<svg width="16" height="16" viewBox="0 0 30 22" fill="none" xmlns="http://www.w3.org/2000/svg">
<path fill-rule="evenodd" clip-rule="evenodd" d="M28.125 0.9375C27.4001 0.9375 26.8125 1.52513 26.8125 2.25C26.8125 5.32223 25.5618 7.11569 24.0769 8.18486C22.525 9.30221 20.6233 9.6875 19.375 9.6875L5.04365 9.6875L11.5531 3.17808C12.0656 2.66551 12.0656 1.83449 11.5531 1.32192C11.0405 0.809359 10.2095 0.809359 9.69692 1.32192L0.946922 10.0719C0.434359 10.5845 0.434359 11.4155 0.946922 11.9281L9.69692 20.6781C10.2095 21.1906 11.0405 21.1906 11.5531 20.6781C12.0656 20.1655 12.0656 19.3345 11.5531 18.8219L5.04365 12.3125L19.375 12.3125C21.0434 12.3125 23.5167 11.8228 25.6107 10.3151C27.7715 8.75931 29.4375 6.17777 29.4375 2.25C29.4375 1.52513 28.8499 0.9375 28.125 0.9375Z" fill="#1C274C"/>
</svg>
