<svg width="290" height="74" viewBox="0 0 290 74" fill="none" xmlns="http://www.w3.org/2000/svg">
<g clip-path="url(#clip0_107_7753)">
<path d="M289.231 27.1112C286.92 33.4964 284.428 39.8245 282.356 46.2877C280.895 50.8476 279.977 55.5877 278.862 60.2579C278.302 62.6004 276.141 64.4035 273.535 64.5765C270.771 64.763 268.343 63.2644 267.459 60.6642C266.501 57.8495 266.246 55.22 268.067 52.3794C269.274 50.4993 269.392 47.9152 269.99 45.6468C270.138 45.0789 270.259 44.5067 270.43 43.7743C267.787 44.8761 265.342 45.9786 262.839 46.9276C248.143 52.4964 232.997 54.0799 217.472 51.8172C203.451 49.773 190.724 44.4285 178.968 36.548C173.165 32.658 167.279 28.8573 161.22 25.3855C148.218 17.9376 134.703 17.9359 120.958 23.2201C112.353 26.5284 104.995 31.8404 97.8916 37.5836C91.4358 42.8074 85.0018 48.0775 77.7147 52.1282C66.3239 58.4617 54.173 62.1107 41.0903 60.5794C25.1917 58.7169 12.7002 51.2068 5.27796 36.4953C3.99186 33.9416 3.30625 31.0862 2.34061 28.3675C2.38491 27.4663 2.4292 26.565 2.47349 25.6637C3.76002 22.7697 5.75277 20.7837 9.13773 21.209C12.4929 21.6299 13.9505 23.9932 14.6204 27.1069C15.4121 30.7987 17.2077 34.046 19.6514 36.8795C27.8543 46.4013 38.4142 49.8866 50.6576 48.6332C60.9994 47.5725 70.1875 43.4014 78.5044 37.3415C84.8869 32.6923 90.9933 27.6711 97.2915 22.9033C107.037 15.5252 117.791 10.344 129.921 8.33822C132.768 7.86978 135.658 7.67151 138.527 7.34875C141.125 7.47641 143.719 7.60393 146.317 7.73159C146.693 7.84342 147.068 7.97027 147.451 8.06137C150.451 8.79306 153.506 9.3497 156.442 10.28C165.004 12.9955 172.47 17.8285 179.958 22.6444C185.789 26.3942 191.535 30.4229 197.769 33.3763C216.222 42.1191 235.36 42.9692 254.81 36.9294C258.097 35.9075 261.272 34.5096 264.497 33.2858C264.455 33.1181 264.415 32.9475 264.372 32.7798C263.797 32.7515 263.224 32.7294 262.649 32.6951C255.61 32.2438 248.814 30.8377 242.474 27.5869C240.652 26.6511 239.712 25.1865 239.567 23.1888C239.184 17.9601 243.527 14.8489 248.297 17.1522C254.851 20.3141 261.779 21.0672 268.877 20.7987C273.364 20.6277 277.832 20.0914 282.316 19.7998C286.031 19.5577 287.881 20.8472 289.103 24.3343C289.15 24.4662 289.265 24.5742 289.349 24.6958L289.231 27.0992L289.231 27.1112Z" fill="#B2EF95"/>
</g>
<defs>
<clipPath id="clip0_107_7753">
<rect width="286.479" height="58.3523" fill="white" transform="translate(3.70312 0.732422) rotate(2.81353)"/>
</clipPath>
</defs>
</svg>
