<svg width="133" height="203" viewBox="0 0 133 203" fill="none" xmlns="http://www.w3.org/2000/svg">
<path fill-rule="evenodd" clip-rule="evenodd" d="M76.1046 125.596C107.895 122.414 132.716 95.5837 132.716 62.9557C132.716 28.1862 104.53 0 69.7604 0C34.9909 0 6.80469 28.1862 6.80469 62.9557C6.80469 71.9904 8.70783 80.5806 12.1351 88.3473L11.9914 88.2834L12.413 88.9681C14.3738 93.2839 16.8074 97.3394 19.6478 101.068C22.6466 107.581 22.7793 115.113 19.9089 121.786L59.7856 138.882C62.5612 133.4 67.244 129.121 72.9533 126.849L76.1046 125.596Z" fill="white"/>
<path d="M15.9319 149.032C24.7457 152.937 33.3954 156.77 42.1851 160.668C41.8474 162.744 41.4928 164.952 41.1262 167.156C40.1903 172.776 39.2544 178.397 38.2992 184.012C38.1714 184.76 38.017 185.522 37.7324 186.219C37.2958 187.285 36.4781 187.454 35.8341 186.511C34.8644 185.097 34.0009 183.587 33.2869 182.029C32.7056 180.765 32.3824 179.378 31.9916 178.032C31.6949 177.002 31.2366 176.163 30.0667 175.98C28.9403 175.801 28.1708 176.344 27.5027 177.198C23.1778 182.734 18.8819 188.296 14.4774 193.766C12.7696 195.887 10.8231 197.819 8.92715 199.78C8.51468 200.207 7.85377 200.392 7.30622 200.689C7.07466 200.074 6.59465 199.435 6.65013 198.849C6.96611 195.624 7.20009 192.367 7.85859 189.205C9.27449 182.396 11.4743 175.813 14.2724 169.44C14.7668 168.314 14.9236 167.286 13.9733 166.341C13.1556 165.528 12.1449 165.569 10.7459 166.121C8.70523 166.929 6.6236 167.663 4.5106 168.251C3.8521 168.435 3.0344 168.049 2.28906 167.923C2.49409 167.224 2.52062 166.392 2.92827 165.846C5.77454 162.059 8.70041 158.333 11.6022 154.589C13.0518 152.72 14.5063 150.855 15.927 149.032H15.9319Z" fill="#FFB500"/>
<path d="M37.0469 128.965C44.9127 112.951 50.4605 96.2448 55.8685 79.4204C59.9642 81.215 64.0213 82.9927 68.2087 84.8283C59.5517 100.189 51.0491 115.679 44.5099 132.238C43.2218 131.681 41.9772 131.148 40.7374 130.605C39.5313 130.077 38.3301 129.536 37.0469 128.965Z" fill="white"/>
<path d="M71.5469 83.4411C73.3535 80.6455 75.0275 77.9174 76.8559 75.2955C77.5265 74.333 78.4599 73.4816 79.4368 72.8231C82.0684 71.0526 85.221 72.6229 85.2596 75.8117C85.2765 77.1263 84.823 78.6145 84.1211 79.7361C81.7187 83.5738 75.9996 85.2333 71.5469 83.4411Z" fill="white"/>
<path d="M54.5943 75.9653C49.8979 73.9392 47.2398 67.4892 49.2467 63.0317C49.6833 62.0596 50.4575 61.0899 51.3307 60.4942C53.8755 58.7574 56.7338 60.0889 57.098 63.1354C57.2452 64.3511 57.1704 65.6174 57.0184 66.838C56.8761 67.9813 56.524 69.1029 56.22 70.2221C55.7063 72.1108 55.1539 73.9874 54.5919 75.9653H54.5943Z" fill="white"/>
<path fill-rule="evenodd" clip-rule="evenodd" d="M59.5685 158.124L58.7242 159.813C58.297 160.667 57.7913 161.479 57.2138 162.239C54.4586 164.491 51.6386 164.485 48.6708 163.138C47.73 162.711 46.7656 162.334 45.7568 161.939C45.2887 161.756 44.8111 161.569 44.3218 161.372C44.1983 162.1 44.0762 162.818 43.9552 163.529C43.6791 165.152 43.409 166.74 43.1423 168.329C42.8728 169.928 42.6051 171.529 42.3373 173.129C41.6584 177.187 40.9794 181.245 40.2719 185.298C39.9608 187.087 39.3843 188.843 37.2882 189.229C35.1728 189.618 33.9739 188.163 33.1562 186.559C32.216 184.716 31.3745 182.82 30.5231 180.902C30.1623 180.09 29.7997 179.273 29.4271 178.455C29.3938 178.492 29.3485 178.541 29.2945 178.6C29.1299 178.779 28.8854 179.045 28.6601 179.325C27.1753 181.171 25.6937 183.02 24.2121 184.868C20.4731 189.533 16.7345 194.198 12.9477 198.822C11.8936 200.11 10.567 201.222 9.21862 202.214C7.2407 203.666 5.35203 202.913 4.76106 200.513C4.10256 197.838 4.49815 195.153 4.95645 192.505C6.3434 184.482 8.84957 176.79 11.9346 169.277C12.018 169.072 12.1002 168.867 12.1939 168.632C12.2818 168.412 12.38 168.167 12.4991 167.873C12.3168 167.939 12.1641 167.995 12.0296 168.044C11.8099 168.125 11.6388 168.188 11.4667 168.247C10.9114 168.434 10.3566 168.624 9.80179 168.814C8.16328 169.375 6.52438 169.936 4.87202 170.446C4.27865 170.63 3.59361 170.615 2.96405 170.552C0.621908 170.323 -0.543131 168.591 0.245624 166.382C0.588142 165.422 1.1574 164.503 1.78213 163.685C4.50362 160.134 7.25006 156.603 9.99627 153.072C10.9716 151.818 11.947 150.564 12.9212 149.309C13.1289 149.042 13.3346 148.773 13.5658 148.471C13.6888 148.311 13.8191 148.14 13.9608 147.956C13.4586 147.712 12.9623 147.474 12.4709 147.238C11.4236 146.736 10.3988 146.244 9.38746 145.727C5.6849 143.834 4.28588 139.576 6.1432 135.881C7.25276 133.674 9.11972 132.478 11.6235 131.993C10.4657 130.172 10.0001 128.266 10.5019 126.221C11.6524 121.512 16.4308 119.293 20.8932 121.387C23.9238 122.807 26.9485 124.24 29.974 125.672C31.2998 126.3 32.6257 126.928 33.9522 127.554C34.1486 127.647 34.3472 127.736 34.5882 127.844C34.6995 127.894 34.8199 127.948 34.9533 128.008C35.0451 127.834 35.1369 127.662 35.2278 127.493C35.3996 127.172 35.5682 126.858 35.7275 126.539C40.8725 116.162 44.8308 105.308 48.6081 94.3858C49.5255 91.735 50.3911 89.0663 51.2567 86.3972C51.9752 84.182 52.6937 81.9667 53.442 79.7612C53.8086 78.6806 53.6856 78.1331 52.6267 77.5035C47.4865 74.445 45.0189 67.7152 47.0306 62.4689C47.9279 60.1292 49.4885 58.4359 51.9971 57.7967C55.5598 56.8849 58.8137 58.8773 59.2431 62.5244C59.477 64.5096 59.272 66.6129 58.8933 68.5908C58.4828 70.73 57.8368 72.8268 57.1924 74.9182C57.0681 75.3218 56.9438 75.7252 56.8213 76.1286C56.5897 76.886 56.6597 77.2695 57.4292 77.6C61.1148 79.1799 64.7909 80.784 68.4452 82.4362C69.2822 82.8149 69.6151 82.5472 70.0324 81.8405L70.0682 81.78C71.4071 79.523 72.7496 77.2599 74.2366 75.1011C75.1147 73.8251 76.1687 72.6214 77.3314 71.6011C79.6952 69.5267 82.4329 69.2638 84.6472 70.6918C86.9821 72.1993 88.0748 75.241 87.3198 78.121C86.2513 82.195 82.0325 85.6082 77.3507 86.2932C74.9892 86.6381 72.7267 86.3294 70.4087 85.5237C61.6455 100.964 53.1115 116.442 46.5699 133.093C46.7236 133.163 46.8664 133.231 47.0023 133.294C47.2972 133.433 47.5591 133.556 47.8266 133.667C49.1623 134.213 50.4996 134.755 51.8369 135.297C54.5881 136.412 57.3394 137.527 60.0776 138.677C65.3264 140.881 66.3563 147.782 61.9567 151.138C61.4525 151.521 60.8688 151.818 60.2851 152.071C59.9128 152.234 59.518 152.345 59.0914 152.466C58.8934 152.522 58.6886 152.579 58.476 152.645C59.4384 154.312 60.1934 156.116 59.6073 157.995C59.5939 158.038 59.581 158.081 59.5685 158.124ZM15.1816 149.989C15.4316 149.668 15.6809 149.348 15.9291 149.029H15.9339C24.7477 152.937 33.3951 156.77 42.1871 160.665C42.1015 161.192 42.0148 161.727 41.9271 162.268C41.6689 163.861 41.4019 165.508 41.1282 167.154C40.1923 172.774 39.2564 178.392 38.3012 184.01C38.1734 184.757 38.019 185.52 37.7344 186.217C37.2978 187.283 36.4825 187.452 35.8361 186.508C34.8688 185.093 34.0053 183.585 33.2889 182.027C32.826 181.02 32.5252 179.936 32.2257 178.856C32.1492 178.58 32.0727 178.304 31.9936 178.03C31.6945 177 31.2362 176.163 30.0688 175.977C28.9399 175.799 28.1704 176.342 27.5047 177.195C26.6661 178.27 25.8285 179.345 24.9909 180.42C21.5112 184.888 18.0313 189.355 14.4794 193.764C13.0404 195.551 11.4319 197.204 9.82702 198.853C9.52723 199.161 9.22757 199.469 8.92917 199.777C8.64643 200.07 8.24696 200.249 7.84728 200.429C7.66389 200.511 7.48046 200.593 7.30824 200.687C7.23479 200.494 7.1371 200.298 7.03941 200.103C6.82591 199.676 6.61243 199.249 6.65215 198.846C6.70394 198.318 6.75352 197.788 6.80314 197.259C7.05623 194.556 7.31003 191.847 7.86061 189.203C9.27651 182.393 11.4787 175.811 14.2744 169.438C14.7688 168.312 14.9232 167.284 13.9753 166.339C13.1576 165.523 12.1469 165.567 10.7479 166.119C8.70725 166.927 6.62561 167.66 4.51262 168.249C4.06094 168.375 3.53435 168.233 3.0076 168.09C2.7664 168.025 2.52517 167.96 2.29108 167.921C2.35487 167.701 2.40121 167.467 2.44756 167.234C2.54842 166.726 2.64933 166.218 2.93028 165.844C5.13974 162.906 7.39717 160.002 9.65404 157.098C10.3045 156.261 10.955 155.424 11.6042 154.587C12.8006 153.044 14.0003 151.505 15.1816 149.989ZM38.2773 129.514C37.8741 129.334 37.465 129.151 37.047 128.966C44.9128 112.952 50.4606 96.2455 55.8685 79.4211C59.9643 81.2157 64.0214 82.9934 68.2088 84.829C59.5518 100.192 51.0492 115.68 44.51 132.239C44.2041 132.107 43.9009 131.976 43.5998 131.846C42.6307 131.428 41.6834 131.02 40.7375 130.606C39.9252 130.249 39.114 129.887 38.2773 129.514ZM84.1142 79.7347C81.7117 83.5723 75.9902 85.2319 71.5399 83.4397C72.0576 82.6386 72.5646 81.8432 73.0674 81.0541C74.3195 79.0894 75.5462 77.1647 76.8489 75.294C77.5195 74.3316 78.453 73.4801 79.4299 72.8216C82.0615 71.0536 85.2141 72.6238 85.2527 75.8102C85.2696 77.1248 84.8161 78.6131 84.1142 79.7347ZM54.588 75.9637C54.7656 75.3384 54.9423 74.7233 55.1171 74.1148C55.4953 72.7984 55.8646 71.5127 56.2159 70.2214C56.272 70.0148 56.3298 69.808 56.3877 69.6011C56.6434 68.6873 56.9002 67.7695 57.0143 66.8372C57.1662 65.6167 57.2386 64.3504 57.0939 63.1347C56.7272 60.0882 53.8713 58.7567 51.3266 60.4934C50.4534 61.0892 49.6791 62.0589 49.2425 63.0309C47.236 67.4878 49.893 73.9365 54.588 75.9637Z" fill="#181818"/>
</svg>
