<svg width="55" height="55" viewBox="0 0 55 55" fill="none" xmlns="http://www.w3.org/2000/svg">
<g clip-path="url(#clip0_813_21745)">
<path d="M27.6138 7.84334C25.4988 7.84334 23.7842 6.12878 23.7842 4.01377C23.7842 1.89876 25.4988 0.184204 27.6138 0.184204C29.7288 0.184204 31.4434 1.89876 31.4434 4.01377C31.4434 6.12878 29.7288 7.84334 27.6138 7.84334Z" fill="#5EB650"/>
<path d="M39.062 10.856C36.947 10.856 35.2325 9.14148 35.2325 7.02647C35.2325 4.91146 36.947 3.1969 39.062 3.1969C41.177 3.1969 42.8916 4.91146 42.8916 7.02647C42.8916 9.14148 41.177 10.856 39.062 10.856Z" fill="#5EB650"/>
<path d="M47.4986 19.2917C45.3835 19.2917 43.669 17.5771 43.669 15.4621C43.669 13.3471 45.3835 11.6326 47.4986 11.6326C49.6136 11.6326 51.3281 13.3471 51.3281 15.4621C51.3281 17.5771 49.6136 19.2917 47.4986 19.2917Z" fill="#5EB650"/>
<path d="M51.1138 31.3427C48.9988 31.3427 47.2842 29.6282 47.2842 27.5132C47.2842 25.3981 48.9988 23.6836 51.1138 23.6836C53.2288 23.6836 54.9434 25.3981 54.9434 27.5132C54.9434 29.6282 53.2288 31.3427 51.1138 31.3427Z" fill="#5EB650"/>
<path d="M47.4986 42.7912C45.3835 42.7912 43.669 41.0767 43.669 38.9616C43.669 36.8466 45.3835 35.1321 47.4986 35.1321C49.6136 35.1321 51.3281 36.8466 51.3281 38.9616C51.3281 41.0767 49.6136 42.7912 47.4986 42.7912Z" fill="#5EB650"/>
<path d="M39.062 51.2269C36.947 51.2269 35.2325 49.5123 35.2325 47.3973C35.2325 45.2823 36.947 43.5677 39.062 43.5677C41.177 43.5677 42.8916 45.2823 42.8916 47.3973C42.8916 49.5123 41.177 51.2269 39.062 51.2269Z" fill="#5EB650"/>
<path d="M27.6138 54.4149C25.4988 54.4149 23.7842 52.7003 23.7842 50.5853C23.7842 48.4703 25.4988 46.7557 27.6138 46.7557C29.7288 46.7557 31.4434 48.4703 31.4434 50.5853C31.4434 52.7003 29.7288 54.4149 27.6138 54.4149Z" fill="#F66A6A"/>
<path d="M16.1656 51.4022C14.0505 51.4022 12.336 49.6876 12.336 47.5726C12.336 45.4576 14.0505 43.743 16.1656 43.743C18.2806 43.743 19.9951 45.4576 19.9951 47.5726C19.9951 49.6876 18.2806 51.4022 16.1656 51.4022Z" fill="#F66A6A"/>
<path d="M7.73 42.9664C5.61499 42.9664 3.90043 41.2518 3.90043 39.1368C3.90043 37.0218 5.61499 35.3073 7.73 35.3073C9.84502 35.3073 11.5596 37.0218 11.5596 39.1368C11.5596 41.2518 9.84502 42.9664 7.73 42.9664Z" fill="#F66A6A"/>
<path d="M4.11477 30.9155C1.99976 30.9155 0.2852 29.2009 0.2852 27.0859C0.2852 24.9709 1.99976 23.2563 4.11477 23.2563C6.22978 23.2563 7.94434 24.9709 7.94434 27.0859C7.94434 29.2009 6.22978 30.9155 4.11477 30.9155Z" fill="#F66A6A"/>
<path d="M7.73 19.467C5.61499 19.467 3.90043 17.7524 3.90043 15.6374C3.90043 13.5224 5.61499 11.8079 7.73 11.8079C9.84502 11.8079 11.5596 13.5224 11.5596 15.6374C11.5596 17.7524 9.84502 19.467 7.73 19.467Z" fill="#F66A6A"/>
<path d="M16.1656 11.0313C14.0505 11.0313 12.336 9.31677 12.336 7.20176C12.336 5.08675 14.0505 3.37219 16.1656 3.37219C18.2806 3.37219 19.9951 5.08675 19.9951 7.20176C19.9951 9.31677 18.2806 11.0313 16.1656 11.0313Z" fill="#F66A6A"/>
</g>
<defs>
<clipPath id="clip0_813_21745">
<rect width="54.2294" height="54.2294" fill="white" transform="matrix(-1 0 0 1 54.7285 0.184204)"/>
</clipPath>
</defs>
</svg>
