<svg width="18" height="12" viewBox="0 0 18 12" fill="none" xmlns="http://www.w3.org/2000/svg">
<path fill-rule="evenodd" clip-rule="evenodd" d="M12.4933 0.935023C12.8053 1.20743 12.8374 1.68122 12.565 1.99325L4.70786 10.9933C4.56543 11.1564 4.35943 11.25 4.14287 11.25C3.9263 11.25 3.72031 11.1564 3.57788 10.9933L0.435023 7.39325C0.162612 7.08122 0.194733 6.60743 0.506767 6.33502C0.818802 6.06261 1.29259 6.09473 1.565 6.40677L4.14287 9.3596L11.435 1.00677C11.7074 0.694733 12.1812 0.662612 12.4933 0.935023Z" fill="#5EB650"/>
<path fill-rule="evenodd" clip-rule="evenodd" d="M17.5175 1.01946C17.8174 1.30513 17.829 1.77986 17.5433 2.07981L8.97162 11.0798C8.82013 11.2389 8.60653 11.3235 8.38721 11.3114C8.16789 11.2993 7.96489 11.1917 7.83182 11.0169L7.4035 10.4544C7.15256 10.1249 7.21629 9.65429 7.54584 9.40336C7.82895 9.18778 8.21614 9.20443 8.47874 9.42235L16.4571 1.04531C16.7428 0.745366 17.2175 0.733794 17.5175 1.01946Z" fill="#5EB650"/>
</svg>
