<svg width="160" height="160" viewBox="0 0 160 160" fill="none" xmlns="http://www.w3.org/2000/svg">
<path opacity="0.2" d="M20 66.6668C20 41.5253 20 28.9545 27.8105 21.144C35.621 13.3335 48.1918 13.3335 73.3333 13.3335H86.6667C111.808 13.3335 124.379 13.3335 132.19 21.144C140 28.9545 140 41.5253 140 66.6668V93.3335C140 118.475 140 131.046 132.19 138.856C124.379 146.667 111.808 146.667 86.6667 146.667H73.3333C48.1918 146.667 35.621 146.667 27.8105 138.856C20 131.046 20 118.475 20 93.3335V66.6668Z" fill="#FFB500"/>
<path d="M110.126 110.009C111.293 109.099 112.351 108.04 114.467 105.924L140.85 79.5415C141.057 79.3346 141.16 79.2311 141.21 79.1608C141.567 78.6538 141.419 78.0102 140.876 77.7098C140.801 77.6682 140.649 77.6152 140.343 77.5094C137.229 76.429 133.178 74.4005 129.389 70.611C125.599 66.8216 123.571 62.7706 122.49 59.6564C122.385 59.3512 122.332 59.1987 122.29 59.1234C121.99 58.5807 121.346 58.4329 120.839 58.7902C120.769 58.8397 120.665 58.9432 120.458 59.1501L94.0757 85.5328C91.9594 87.6491 90.9013 88.7072 89.9913 89.8739C88.9178 91.2502 87.9975 92.7393 87.2466 94.3149C86.61 95.6506 86.1368 97.0702 85.1904 99.9095L83.9675 103.578L82.0229 109.412L80.1996 114.882C79.7339 116.279 80.0976 117.819 81.139 118.861C82.1804 119.902 83.7209 120.266 85.1181 119.8L90.588 117.977L96.4216 116.032L100.09 114.809L100.091 114.809C102.93 113.863 104.349 113.39 105.685 112.753C107.261 112.002 108.75 111.082 110.126 110.009Z" fill="#FFB500"/>
<path d="M149.11 71.281C154.741 65.6501 154.741 56.5206 149.11 50.8897C143.479 45.2588 134.35 45.2588 128.719 50.8897L127.258 52.3506C126.928 52.6801 126.764 52.8448 126.69 53.0779C126.616 53.3109 126.656 53.5358 126.735 53.9856C126.795 54.3331 126.857 54.6783 126.886 54.8389C127.014 55.5556 127.253 56.6034 127.687 57.8537C128.554 60.3541 130.192 63.6364 133.278 66.722C136.363 69.8075 139.646 71.4457 142.146 72.3132C143.396 72.747 144.444 72.9854 145.161 73.1141C145.322 73.1429 145.667 73.2044 146.014 73.2653C146.464 73.3441 146.689 73.3834 146.922 73.3098C147.155 73.2362 147.32 73.0715 147.649 72.742L149.11 71.281Z" fill="#FFB500"/>
<path fill-rule="evenodd" clip-rule="evenodd" d="M48.3333 60C48.3333 57.2386 50.5719 55 53.3333 55H96.6666C99.4281 55 101.667 57.2386 101.667 60C101.667 62.7614 99.4281 65 96.6666 65H53.3333C50.5719 65 48.3333 62.7614 48.3333 60ZM48.3333 86.6667C48.3333 83.9052 50.5719 81.6667 53.3333 81.6667H73.3333C76.0947 81.6667 78.3333 83.9052 78.3333 86.6667C78.3333 89.4281 76.0947 91.6667 73.3333 91.6667H53.3333C50.5719 91.6667 48.3333 89.4281 48.3333 86.6667ZM48.3333 113.333C48.3333 110.572 50.5719 108.333 53.3333 108.333H63.3333C66.0947 108.333 68.3333 110.572 68.3333 113.333C68.3333 116.095 66.0947 118.333 63.3333 118.333H53.3333C50.5719 118.333 48.3333 116.095 48.3333 113.333Z" fill="#FFB500"/>
</svg>
