<svg width="32" height="32" viewBox="0 0 38 38" fill="none" xmlns="http://www.w3.org/2000/svg">
<path d="M5.18533 24.2183C3.83961 22.47 3.16675 21.5958 3.16675 19.0002C3.16675 16.4045 3.83961 15.5303 5.18533 13.782C7.87236 10.2911 12.3788 6.3335 19.0001 6.3335C25.6214 6.3335 30.1278 10.2911 32.8148 13.782C34.1606 15.5303 34.8334 16.4045 34.8334 19.0002C34.8334 21.5958 34.1606 22.47 32.8148 24.2183C30.1278 27.7092 25.6214 31.6668 19.0001 31.6668C12.3788 31.6668 7.87236 27.7092 5.18533 24.2183Z" stroke="#B3B3B3" stroke-width="2.625"/>
<path d="M23.75 19C23.75 21.6234 21.6234 23.75 19 23.75C16.3766 23.75 14.25 21.6234 14.25 19C14.25 16.3766 16.3766 14.25 19 14.25C21.6234 14.25 23.75 16.3766 23.75 19Z" stroke="#B3B3B3" stroke-width="2.625"/>
</svg>
