<svg width="32" height="32" viewBox="0 0 38 38" fill="none" xmlns="http://www.w3.org/2000/svg">
<path d="M4.3727 10.5665C4.08716 9.90021 3.31557 9.59158 2.6493 9.87712C1.98304 10.1627 1.6744 10.9343 1.95994 11.6005L4.3727 10.5665ZM24.6794 21.1039L24.1987 19.8826L24.6794 21.1039ZM14.4201 21.8198C14.8154 21.2122 14.6433 20.3992 14.0358 20.0038C13.4282 19.6085 12.6152 19.7805 12.2198 20.3881L14.4201 21.8198ZM9.98287 23.826C9.58753 24.4336 9.75959 25.2466 10.3672 25.6419C10.9747 26.0373 11.7878 25.8652 12.1831 25.2577L9.98287 23.826ZM36.0394 11.6005C36.3249 10.9343 36.0163 10.1627 35.35 9.87712C34.6837 9.59158 33.9122 9.90021 33.6266 10.5665L36.0394 11.6005ZM30.083 17.6208L29.1847 16.6638V16.6638L30.083 17.6208ZM31.5299 20.9239C32.0425 21.4365 32.8735 21.4365 33.3861 20.9239C33.8986 20.4113 33.8986 19.5803 33.3861 19.0677L31.5299 20.9239ZM17.6872 26.1252C17.6872 26.85 18.2748 27.4377 18.9997 27.4377C19.7245 27.4377 20.3122 26.85 20.3122 26.1252H17.6872ZM25.8162 25.2576C26.2115 25.8652 27.0246 26.0373 27.6321 25.6419C28.2397 25.2466 28.4118 24.4336 28.0164 23.826L25.8162 25.2576ZM8.8444 18.5489C9.35696 18.0363 9.35696 17.2053 8.8444 16.6927C8.33184 16.1802 7.50081 16.1802 6.98824 16.6927L8.8444 18.5489ZM4.61324 19.0677C4.10068 19.5803 4.10068 20.4113 4.61324 20.9239C5.12581 21.4365 5.95684 21.4365 6.4694 20.9239L4.61324 19.0677ZM18.9997 20.8543C13.9412 20.8543 10.307 18.3366 7.88853 15.7321C6.6797 14.4302 5.79305 13.1243 5.20951 12.1439C4.91848 11.655 4.70488 11.2505 4.56601 10.9728C4.49662 10.834 4.44603 10.7272 4.4139 10.6576C4.39784 10.6228 4.3864 10.5974 4.37955 10.582C4.37612 10.5743 4.37384 10.5691 4.3727 10.5665C4.37213 10.5652 4.37185 10.5645 4.37185 10.5645C4.37185 10.5645 4.37192 10.5647 4.37206 10.565C4.37213 10.5652 4.37229 10.5655 4.37233 10.5656C4.3725 10.566 4.3727 10.5665 3.16632 11.0835C1.95994 11.6005 1.96017 11.6011 1.96043 11.6016C1.96053 11.6019 1.9608 11.6025 1.96102 11.603C1.96145 11.604 1.96196 11.6052 1.96254 11.6065C1.9637 11.6092 1.96516 11.6126 1.96691 11.6166C1.97042 11.6246 1.97512 11.6353 1.98102 11.6486C1.99282 11.6751 2.00941 11.7119 2.03084 11.7583C2.0737 11.8511 2.13599 11.9824 2.21813 12.1467C2.38232 12.4751 2.62641 12.9365 2.95386 13.4866C3.6073 14.5844 4.60086 16.0492 5.96495 17.5183C8.69233 20.4554 12.9748 23.4793 18.9997 23.4793V20.8543ZM24.1987 19.8826C22.6761 20.4819 20.9493 20.8543 18.9997 20.8543V23.4793C21.2932 23.4793 23.3454 23.0395 25.1601 22.3252L24.1987 19.8826ZM12.2198 20.3881L9.98287 23.826L12.1831 25.2577L14.4201 21.8198L12.2198 20.3881ZM34.833 11.0835C33.6266 10.5665 33.6267 10.5662 33.6268 10.566C33.6269 10.5659 33.627 10.5657 33.627 10.5655C33.6271 10.5653 33.6272 10.565 33.6273 10.5649C33.6274 10.5645 33.6275 10.5644 33.6275 10.5645C33.6274 10.5647 33.6269 10.5657 33.6261 10.5675C33.6246 10.5711 33.6215 10.578 33.6171 10.588C33.6082 10.6079 33.5935 10.6404 33.573 10.6843C33.532 10.7722 33.4678 10.9061 33.3799 11.0784C33.204 11.4234 32.9341 11.9206 32.5663 12.5108C31.8285 13.6949 30.7099 15.2323 29.1847 16.6638L30.9812 18.5778C32.7155 16.95 33.9719 15.2187 34.7942 13.899C35.2066 13.2373 35.513 12.6738 35.7184 12.271C35.8212 12.0695 35.8989 11.9077 35.9521 11.7935C35.9788 11.7364 35.9993 11.6911 36.0138 11.6586C36.0211 11.6424 36.0268 11.6293 36.0311 11.6196C36.0332 11.6148 36.035 11.6107 36.0363 11.6075C36.037 11.6059 36.0376 11.6046 36.0381 11.6034C36.0384 11.6028 36.0386 11.6023 36.0388 11.6018C36.0389 11.6016 36.0391 11.6012 36.0391 11.6011C36.0392 11.6008 36.0394 11.6005 34.833 11.0835ZM29.1847 16.6638C27.8337 17.932 26.1781 19.1035 24.1987 19.8826L25.1601 22.3252C27.511 21.3999 29.4417 20.0228 30.9812 18.5778L29.1847 16.6638ZM29.1549 18.5489L31.5299 20.9239L33.3861 19.0677L31.0111 16.6927L29.1549 18.5489ZM17.6872 22.1668V26.1252H20.3122V22.1668H17.6872ZM23.5793 21.8198L25.8162 25.2576L28.0164 23.826L25.7795 20.3881L23.5793 21.8198ZM6.98824 16.6927L4.61324 19.0677L6.4694 20.9239L8.8444 18.5489L6.98824 16.6927Z" fill="#B3B3B3"/>
</svg>
