<svg width="50" height="51" viewBox="0 0 50 51" fill="none" xmlns="http://www.w3.org/2000/svg">
<path d="M43.3793 14.2784L33.4824 5.3712C30.6627 2.83352 29.2529 1.56467 27.5231 0.900879L27.5 7.73708C27.5 13.6296 27.5 16.5759 29.3306 18.4065C31.1612 20.2371 34.1074 20.2371 40 20.2371H48.9502C48.0438 18.4765 46.4209 17.0159 43.3793 14.2784Z" fill="#169CD5"/>
<path fill-rule="evenodd" clip-rule="evenodd" d="M20 50.2368H30C39.4281 50.2368 44.1421 50.2368 47.0711 47.3079C50 44.379 50 39.6649 50 30.2368V29.1441C50 26.9621 50 25.3227 49.8935 23.9871H40L39.7629 23.9871C37.0201 23.9873 34.5962 23.9875 32.6424 23.7248C30.5246 23.4401 28.4071 22.7863 26.6789 21.0582C24.9508 19.33 24.297 17.2125 24.0123 15.0947C23.7496 13.1409 23.7498 10.717 23.75 7.97424L23.7731 0.888231C23.7738 0.682136 23.7914 0.478298 23.825 0.278469C22.8035 0.236815 21.5895 0.236816 20.0745 0.236816C10.5967 0.236816 5.85786 0.236816 2.92893 3.16575C0 6.09468 0 10.8087 0 20.2368V30.2368C0 39.6649 0 44.379 2.92893 47.3079C5.85786 50.2368 10.5719 50.2368 20 50.2368ZM14.9676 42.8547C15.6888 43.5309 16.8112 43.5309 17.5324 42.8547L22.5324 38.1672C23.2879 37.459 23.3261 36.2724 22.6179 35.5169C21.9096 34.7615 20.7231 34.7232 19.9676 35.4314L18.125 37.1589V28.9868C18.125 27.9513 17.2855 27.1118 16.25 27.1118C15.2145 27.1118 14.375 27.9513 14.375 28.9868V37.1589L12.5324 35.4314C11.7769 34.7232 10.5904 34.7615 9.88212 35.5169C9.17387 36.2724 9.21215 37.459 9.96761 38.1672L14.9676 42.8547Z" fill="#169CD5"/>
</svg>
