<svg width="25" height="26" viewBox="0 0 25 26" fill="none" xmlns="http://www.w3.org/2000/svg">
<path d="M24.5002 13.4001C24.5002 12.5319 24.4223 11.697 24.2776 10.8955H12.7451V15.6321H19.3351C19.0512 17.1627 18.1885 18.4595 16.8917 19.3278V22.4001H20.849C23.1644 20.2684 24.5002 17.1293 24.5002 13.4001Z" fill="#169CD5"/>
<path d="M12.7452 25.3666C16.0513 25.3666 18.8231 24.2701 20.8491 22.4L16.8918 19.3276C15.7953 20.0623 14.3927 20.4965 12.7452 20.4965C9.55598 20.4965 6.85654 18.3425 5.89364 15.4482H1.80273V18.6208C3.81758 22.6226 7.95858 25.3666 12.7452 25.3666Z" fill="#5EB650"/>
<path d="M5.89332 15.4484C5.64842 14.7137 5.50928 13.9289 5.50928 13.1219C5.50928 12.3148 5.64842 11.53 5.89332 10.7953V7.6228H1.80241C0.973098 9.27586 0.5 11.146 0.5 13.1219C0.5 15.0978 0.973098 16.9679 1.80241 18.6209L5.89332 15.4484Z" fill="#FFB500"/>
<path d="M12.7452 5.74708C14.543 5.74708 16.1571 6.36489 17.4261 7.57825L20.9382 4.06619C18.8176 2.09031 16.0458 0.876953 12.7452 0.876953C7.95858 0.876953 3.81758 3.62092 1.80273 7.62278L5.89364 10.7953C6.85654 7.90107 9.55598 5.74708 12.7452 5.74708Z" fill="#E34446"/>
</svg>
