<svg width="680" height="649" viewBox="0 0 680 649" fill="none" xmlns="http://www.w3.org/2000/svg">
<path d="M6.984 339.288C5.96 339.288 5.048 339.08 4.248 338.664C3.464 338.248 2.8 337.656 2.256 336.888C1.728 336.12 1.328 335.208 1.056 334.152C0.784 333.08 0.648 331.896 0.648 330.6C0.648 329.304 0.784 328.128 1.056 327.072C1.328 326 1.728 325.08 2.256 324.312C2.8 323.544 3.464 322.952 4.248 322.536C5.048 322.12 5.96 321.912 6.984 321.912C8.024 321.912 8.936 322.12 9.72 322.536C10.504 322.952 11.168 323.544 11.712 324.312C12.256 325.08 12.664 326 12.936 327.072C13.208 328.128 13.344 329.304 13.344 330.6C13.344 331.896 13.208 333.08 12.936 334.152C12.664 335.208 12.256 336.12 11.712 336.888C11.168 337.656 10.504 338.248 9.72 338.664C8.936 339.08 8.024 339.288 6.984 339.288ZM6.984 337.56C8.44 337.56 9.576 336.968 10.392 335.784C11.208 334.6 11.616 332.872 11.616 330.6C11.616 328.328 11.208 326.6 10.392 325.416C9.576 324.232 8.44 323.64 6.984 323.64C5.528 323.64 4.392 324.232 3.576 325.416C2.76 326.6 2.352 328.328 2.352 330.6C2.352 332.872 2.76 334.6 3.576 335.784C4.392 336.968 5.528 337.56 6.984 337.56Z" fill="#B3B3B3"/>
<path d="M87.888 106.648C89.072 106.664 90.128 106.928 91.056 107.44C91.984 107.936 92.712 108.624 93.24 109.504C93.768 110.384 94.032 111.376 94.032 112.48C94.032 113.584 93.768 114.576 93.24 115.456C92.712 116.336 91.984 117.024 91.056 117.52C90.128 118.016 89.072 118.264 87.888 118.264C86.704 118.264 85.64 118.016 84.696 117.52C83.768 117.024 83.04 116.336 82.512 115.456C81.984 114.576 81.72 113.584 81.72 112.48C81.72 111.184 82.08 110.048 82.8 109.072L87.768 101.2H89.76L86.184 106.84C86.776 106.712 87.344 106.648 87.888 106.648ZM87.888 116.536C88.72 116.536 89.464 116.36 90.12 116.008C90.792 115.656 91.312 115.176 91.68 114.568C92.064 113.944 92.256 113.248 92.256 112.48C92.256 111.712 92.064 111.016 91.68 110.392C91.312 109.768 90.792 109.28 90.12 108.928C89.464 108.56 88.72 108.376 87.888 108.376C87.056 108.376 86.304 108.552 85.632 108.904C84.976 109.256 84.456 109.744 84.072 110.368C83.704 110.992 83.52 111.696 83.52 112.48C83.52 113.248 83.704 113.944 84.072 114.568C84.456 115.176 84.984 115.656 85.656 116.008C86.328 116.36 87.072 116.536 87.888 116.536Z" fill="#B3B3B3"/>
<path d="M328.984 10.72C328.984 11.968 328.64 13.088 327.952 14.08L322.936 22H320.944L324.52 16.336C323.96 16.464 323.392 16.528 322.816 16.528C321.648 16.528 320.592 16.28 319.648 15.784C318.72 15.272 317.992 14.576 317.464 13.696C316.936 12.816 316.672 11.824 316.672 10.72C316.672 9.616 316.936 8.624 317.464 7.744C317.992 6.864 318.72 6.176 319.648 5.68C320.576 5.184 321.632 4.936 322.816 4.936C324 4.936 325.056 5.184 325.984 5.68C326.928 6.176 327.664 6.864 328.192 7.744C328.72 8.624 328.984 9.616 328.984 10.72ZM318.448 10.72C318.448 11.488 318.632 12.184 319 12.808C319.384 13.432 319.904 13.928 320.56 14.296C321.232 14.648 321.984 14.824 322.816 14.824C323.648 14.824 324.392 14.648 325.048 14.296C325.72 13.928 326.24 13.432 326.608 12.808C326.992 12.184 327.184 11.488 327.184 10.72C327.184 9.936 326.992 9.24 326.608 8.632C326.24 8.008 325.72 7.52 325.048 7.168C324.376 6.816 323.632 6.64 322.816 6.64C321.984 6.64 321.232 6.816 320.56 7.168C319.904 7.52 319.384 8.008 319 8.632C318.632 9.256 318.448 9.952 318.448 10.72Z" fill="#B3B3B3"/>
<path d="M560.088 94.2V109.368H565.104V111H552.864V109.368H558.384V95.976L554.88 97.464L554.088 96.096L558.384 94.2H560.088ZM578.928 109.368V111H567.192V110.376C567.336 108.872 567.832 107.432 568.68 106.056C569.544 104.68 570.696 103.672 572.136 103.032C572.328 102.936 572.616 102.808 573 102.648C573.88 102.248 574.56 101.904 575.04 101.616C575.536 101.328 575.944 100.96 576.264 100.512C576.6 100.064 576.768 99.512 576.768 98.856C576.768 98.152 576.576 97.552 576.192 97.056C575.824 96.544 575.352 96.16 574.776 95.904C574.2 95.648 573.624 95.52 573.048 95.52C571.928 95.52 570.952 95.768 570.12 96.264C569.288 96.744 568.792 97.456 568.632 98.4L567 98.208C567.128 97.296 567.48 96.52 568.056 95.88C568.648 95.24 569.376 94.76 570.24 94.44C571.12 94.104 572.056 93.936 573.048 93.936C573.944 93.936 574.8 94.128 575.616 94.512C576.448 94.88 577.12 95.432 577.632 96.168C578.16 96.904 578.424 97.776 578.424 98.784C578.424 99.824 578.176 100.688 577.68 101.376C577.2 102.048 576.608 102.584 575.904 102.984C575.2 103.368 574.16 103.864 572.784 104.472C571.872 104.888 571.096 105.536 570.456 106.416C569.832 107.296 569.384 108.28 569.112 109.368H578.928Z" fill="#B3B3B3"/>
<path d="M660.088 317.2V332.368H665.104V334H652.864V332.368H658.384V318.976L654.88 320.464L654.088 319.096L658.384 317.2H660.088ZM672.88 322.648C674.064 322.664 675.12 322.928 676.048 323.44C676.976 323.936 677.704 324.624 678.232 325.504C678.76 326.384 679.024 327.376 679.024 328.48C679.024 329.584 678.76 330.576 678.232 331.456C677.704 332.336 676.976 333.024 676.048 333.52C675.12 334.016 674.064 334.264 672.88 334.264C671.696 334.264 670.632 334.016 669.688 333.52C668.76 333.024 668.032 332.336 667.504 331.456C666.976 330.576 666.712 329.584 666.712 328.48C666.712 327.184 667.072 326.048 667.792 325.072L672.76 317.2H674.752L671.176 322.84C671.768 322.712 672.336 322.648 672.88 322.648ZM672.88 332.536C673.712 332.536 674.456 332.36 675.112 332.008C675.784 331.656 676.304 331.176 676.672 330.568C677.056 329.944 677.248 329.248 677.248 328.48C677.248 327.712 677.056 327.016 676.672 326.392C676.304 325.768 675.784 325.28 675.112 324.928C674.456 324.56 673.712 324.376 672.88 324.376C672.048 324.376 671.296 324.552 670.624 324.904C669.968 325.256 669.448 325.744 669.064 326.368C668.696 326.992 668.512 327.696 668.512 328.48C668.512 329.248 668.696 329.944 669.064 330.568C669.448 331.176 669.976 331.656 670.648 332.008C671.32 332.36 672.064 332.536 672.88 332.536Z" fill="#B3B3B3"/>
<path d="M115.358 122.358C171.002 66.7127 245.809 34.4361 324.468 32.1322L325.46 65.9914C255.437 68.0423 188.845 96.7749 139.31 146.31L115.358 122.358Z" fill="#169CD5"/>
<path d="M333.5 32C411.966 32 487.484 61.8995 544.683 115.613L521.495 140.306C470.576 92.4902 403.35 65.8737 333.5 65.8737L333.5 32Z" fill="#FFB500"/>
<path d="M551.642 122.358C580.289 151.004 603.013 185.013 618.517 222.442C634.02 259.871 642 299.987 642 340.5L608.126 340.5C608.126 304.436 601.023 268.724 587.222 235.405C573.42 202.086 553.192 171.811 527.69 146.31L551.642 122.358Z" fill="#F66A6A"/>
<path d="M436.144 120.841L443.5 146.5L427.977 138.419L411.001 131.5L436.144 120.841Z" fill="#181818"/>
<path d="M110 340.5C110 311.15 115.781 282.087 127.013 254.97C138.245 227.854 154.708 203.216 175.462 182.462C196.216 161.708 220.854 145.245 247.97 134.013C275.087 122.781 304.15 117 333.5 117C362.85 117 391.914 122.781 419.03 134.013C446.146 145.245 470.785 161.708 491.538 182.462C512.292 203.216 528.755 227.854 539.987 254.97C551.219 282.087 557 311.15 557 340.5L556.267 340.5C556.267 311.246 550.505 282.278 539.31 255.251C528.115 228.224 511.706 203.666 491.02 182.98C470.334 162.294 445.777 145.885 418.749 134.69C391.722 123.495 362.754 117.733 333.5 117.733C304.246 117.733 275.278 123.495 248.251 134.69C221.224 145.885 196.666 162.294 175.98 182.98C155.294 203.666 138.885 228.224 127.69 255.251C116.495 282.278 110.733 311.246 110.733 340.5L110 340.5Z" fill="#E0E0E0"/>
<path d="M25 340.5C25 261.991 54.9318 186.436 108.697 129.227L133.381 152.425C85.5189 203.353 58.8736 270.612 58.8736 340.5L25 340.5Z" fill="#9AE179"/>
<path d="M308.652 207.8V263.096H326.892V275H276.492V263.096H296.076V221.24L285.612 227.576L279.084 217.784L296.076 207.896V207.8H308.652ZM359.396 276.248C353.828 276.248 348.964 274.808 344.804 271.928C340.708 268.984 337.54 264.888 335.3 259.64C333.124 254.392 332.036 248.312 332.036 241.4C332.036 234.488 333.124 228.408 335.3 223.16C337.54 217.912 340.708 213.848 344.804 210.968C348.964 208.024 353.828 206.552 359.396 206.552C364.964 206.552 369.796 208.024 373.892 210.968C377.988 213.848 381.124 217.912 383.3 223.16C385.54 228.408 386.66 234.488 386.66 241.4C386.66 248.312 385.54 254.392 383.3 259.64C381.124 264.888 377.988 268.984 373.892 271.928C369.796 274.808 364.964 276.248 359.396 276.248ZM359.396 263.672C363.94 263.672 367.524 261.848 370.148 258.2C372.836 254.488 374.18 248.888 374.18 241.4C374.18 233.912 372.836 228.344 370.148 224.696C367.524 220.984 363.94 219.128 359.396 219.128C354.852 219.128 351.236 220.984 348.548 224.696C345.924 228.344 344.612 233.912 344.612 241.4C344.612 248.888 345.924 254.488 348.548 258.2C351.236 261.848 354.852 263.672 359.396 263.672Z" fill="black"/>
<path d="M244.895 325.185L252.98 311.5L253.12 311.57V311.5H256.305V336H253.12V317.24L245.28 330.435H244.475L236.635 317.205V336.035H233.415V311.535H236.635V311.57L236.81 311.5L244.895 325.185ZM269.525 318.08C270.832 318.08 272.022 318.325 273.095 318.815C274.168 319.305 275.09 319.97 275.86 320.81C276.63 321.65 277.225 322.63 277.645 323.75C278.065 324.87 278.275 326.048 278.275 327.285C278.275 327.518 278.263 327.717 278.24 327.88C278.24 328.043 278.217 328.23 278.17 328.44H263.435C263.528 329.187 263.75 329.887 264.1 330.54C264.45 331.17 264.893 331.73 265.43 332.22C265.99 332.687 266.643 333.06 267.39 333.34C268.137 333.62 268.953 333.76 269.84 333.76C270.913 333.76 271.928 333.515 272.885 333.025C273.842 332.535 274.553 331.928 275.02 331.205L277.4 332.605C276.63 333.795 275.592 334.728 274.285 335.405C272.978 336.082 271.473 336.42 269.77 336.42C268.37 336.42 267.087 336.187 265.92 335.72C264.777 335.253 263.797 334.612 262.98 333.795C262.163 332.978 261.522 332.01 261.055 330.89C260.612 329.77 260.39 328.557 260.39 327.25C260.39 325.943 260.612 324.742 261.055 323.645C261.498 322.525 262.117 321.557 262.91 320.74C263.727 319.9 264.695 319.247 265.815 318.78C266.935 318.313 268.172 318.08 269.525 318.08ZM275.405 325.99C275.195 324.357 274.577 323.073 273.55 322.14C272.523 321.207 271.17 320.74 269.49 320.74C268.603 320.74 267.787 320.892 267.04 321.195C266.293 321.475 265.652 321.86 265.115 322.35C264.578 322.84 264.158 323.4 263.855 324.03C263.552 324.66 263.4 325.313 263.4 325.99H275.405ZM298.54 336H295.495V333.06C294.842 334.063 294.002 334.88 292.975 335.51C291.948 336.14 290.735 336.455 289.335 336.455C288.028 336.455 286.85 336.222 285.8 335.755C284.75 335.265 283.852 334.612 283.105 333.795C282.358 332.978 281.787 332.01 281.39 330.89C280.993 329.77 280.795 328.568 280.795 327.285C280.795 325.978 280.993 324.777 281.39 323.68C281.787 322.56 282.358 321.592 283.105 320.775C283.852 319.935 284.75 319.282 285.8 318.815C286.85 318.348 288.028 318.115 289.335 318.115C290.735 318.115 291.948 318.43 292.975 319.06C294.002 319.667 294.842 320.472 295.495 321.475V311.5H298.54V336ZM289.405 333.585C290.292 333.585 291.097 333.422 291.82 333.095C292.567 332.768 293.208 332.325 293.745 331.765C294.305 331.205 294.737 330.54 295.04 329.77C295.343 329 295.495 328.16 295.495 327.25C295.495 326.363 295.343 325.535 295.04 324.765C294.737 323.995 294.305 323.33 293.745 322.77C293.208 322.21 292.567 321.778 291.82 321.475C291.097 321.148 290.292 320.985 289.405 320.985C288.565 320.985 287.795 321.148 287.095 321.475C286.395 321.802 285.788 322.257 285.275 322.84C284.785 323.4 284.4 324.065 284.12 324.835C283.863 325.605 283.735 326.422 283.735 327.285C283.735 328.148 283.863 328.965 284.12 329.735C284.4 330.505 284.785 331.182 285.275 331.765C285.788 332.325 286.395 332.768 287.095 333.095C287.795 333.422 288.565 333.585 289.405 333.585ZM304.878 313.845C304.412 313.845 303.992 313.67 303.618 313.32C303.268 312.97 303.093 312.55 303.093 312.06C303.093 311.57 303.268 311.15 303.618 310.8C303.992 310.427 304.412 310.24 304.878 310.24C305.368 310.24 305.788 310.427 306.138 310.8C306.488 311.15 306.663 311.57 306.663 312.06C306.663 312.55 306.488 312.97 306.138 313.32C305.788 313.67 305.368 313.845 304.878 313.845ZM303.338 318.5H306.383V336H303.338V318.5ZM311.091 318.5H314.101V328.965C314.101 329.898 314.253 330.68 314.556 331.31C314.86 331.917 315.233 332.407 315.676 332.78C316.143 333.13 316.656 333.375 317.216 333.515C317.776 333.655 318.301 333.725 318.791 333.725C319.281 333.725 319.795 333.643 320.331 333.48C320.868 333.317 321.358 333.025 321.801 332.605C322.245 332.185 322.606 331.625 322.886 330.925C323.19 330.225 323.341 329.338 323.341 328.265V318.5H326.386V336H323.341V333.935C322.781 334.612 322.058 335.195 321.171 335.685C320.285 336.175 319.281 336.42 318.161 336.42C317.531 336.42 316.808 336.315 315.991 336.105C315.175 335.918 314.405 335.557 313.681 335.02C312.958 334.46 312.34 333.702 311.826 332.745C311.336 331.765 311.091 330.505 311.091 328.965V318.5ZM357.799 336H354.789V325.535C354.789 324.578 354.637 323.797 354.334 323.19C354.031 322.583 353.646 322.105 353.179 321.755C352.736 321.382 352.234 321.125 351.674 320.985C351.114 320.845 350.589 320.775 350.099 320.775C349.609 320.775 349.107 320.857 348.594 321.02C348.081 321.183 347.602 321.475 347.159 321.895C346.739 322.315 346.389 322.875 346.109 323.575C345.852 324.275 345.724 325.162 345.724 326.235V336H342.714V325.535C342.714 324.578 342.562 323.797 342.259 323.19C341.956 322.583 341.571 322.105 341.104 321.755C340.661 321.382 340.159 321.125 339.599 320.985C339.039 320.845 338.514 320.775 338.024 320.775C337.534 320.775 337.032 320.857 336.519 321.02C336.006 321.183 335.527 321.475 335.084 321.895C334.664 322.315 334.314 322.875 334.034 323.575C333.777 324.275 333.649 325.162 333.649 326.235V336H330.639V318.5H333.649V320.46C334.209 319.783 334.909 319.223 335.749 318.78C336.612 318.313 337.581 318.08 338.654 318.08C339.121 318.08 339.634 318.138 340.194 318.255C340.777 318.348 341.361 318.535 341.944 318.815C342.527 319.072 343.076 319.433 343.589 319.9C344.126 320.343 344.569 320.927 344.919 321.65C345.152 321.207 345.456 320.775 345.829 320.355C346.202 319.912 346.634 319.527 347.124 319.2C347.637 318.873 348.186 318.605 348.769 318.395C349.376 318.185 350.029 318.08 350.729 318.08C351.359 318.08 352.082 318.185 352.899 318.395C353.716 318.582 354.486 318.955 355.209 319.515C355.932 320.052 356.539 320.81 357.029 321.79C357.542 322.747 357.799 323.995 357.799 325.535V336ZM371.944 311.5H381.429C382.503 311.5 383.506 311.698 384.439 312.095C385.373 312.492 386.189 313.04 386.889 313.74C387.589 314.44 388.138 315.257 388.534 316.19C388.954 317.123 389.164 318.127 389.164 319.2C389.164 320.787 388.744 322.21 387.904 323.47C387.064 324.707 385.968 325.628 384.614 326.235L390.179 336H386.504L381.359 326.935H375.129V336H371.944V311.5ZM381.429 323.89C382.059 323.89 382.654 323.773 383.214 323.54C383.798 323.283 384.299 322.945 384.719 322.525C385.139 322.105 385.466 321.615 385.699 321.055C385.956 320.472 386.084 319.853 386.084 319.2C386.084 318.57 385.956 317.975 385.699 317.415C385.466 316.832 385.139 316.33 384.719 315.91C384.299 315.49 383.798 315.163 383.214 314.93C382.654 314.673 382.059 314.545 381.429 314.545H375.129V323.89H381.429ZM395.42 313.845C394.954 313.845 394.534 313.67 394.16 313.32C393.81 312.97 393.635 312.55 393.635 312.06C393.635 311.57 393.81 311.15 394.16 310.8C394.534 310.427 394.954 310.24 395.42 310.24C395.91 310.24 396.33 310.427 396.68 310.8C397.03 311.15 397.205 311.57 397.205 312.06C397.205 312.55 397.03 312.97 396.68 313.32C396.33 313.67 395.91 313.845 395.42 313.845ZM393.88 318.5H396.925V336H393.88V318.5ZM404.233 323.295C404.233 323.878 404.49 324.333 405.003 324.66C405.54 324.963 406.193 325.22 406.963 325.43C407.757 325.617 408.608 325.815 409.518 326.025C410.452 326.235 411.303 326.538 412.073 326.935C412.867 327.308 413.52 327.822 414.033 328.475C414.57 329.105 414.838 329.98 414.838 331.1C414.838 331.94 414.652 332.687 414.278 333.34C413.928 333.993 413.438 334.553 412.808 335.02C412.178 335.463 411.432 335.802 410.568 336.035C409.728 336.292 408.818 336.42 407.838 336.42C406.018 336.42 404.49 336.07 403.253 335.37C402.017 334.647 401.13 333.667 400.593 332.43L403.078 331.135C403.475 332.115 404.082 332.827 404.898 333.27C405.738 333.69 406.718 333.9 407.838 333.9C408.352 333.9 408.853 333.842 409.343 333.725C409.833 333.608 410.265 333.433 410.638 333.2C411.012 332.967 411.315 332.675 411.548 332.325C411.782 331.975 411.898 331.578 411.898 331.135C411.898 330.482 411.63 329.98 411.093 329.63C410.58 329.28 409.927 328.988 409.133 328.755C408.34 328.522 407.477 328.3 406.543 328.09C405.61 327.88 404.747 327.6 403.953 327.25C403.16 326.9 402.495 326.422 401.958 325.815C401.445 325.208 401.188 324.392 401.188 323.365C401.188 322.572 401.352 321.86 401.678 321.23C402.028 320.577 402.495 320.017 403.078 319.55C403.685 319.083 404.385 318.722 405.178 318.465C405.995 318.208 406.87 318.08 407.803 318.08C409.273 318.08 410.568 318.395 411.688 319.025C412.832 319.655 413.707 320.53 414.313 321.65L411.828 322.91C411.502 322.163 411 321.592 410.323 321.195C409.647 320.775 408.807 320.565 407.803 320.565C406.683 320.565 405.808 320.822 405.178 321.335C404.548 321.825 404.233 322.478 404.233 323.295ZM418.686 311.5H421.696V327.425L429.816 318.5H434.016L426.771 326.34L434.296 336H430.481L424.706 328.58L421.696 331.835V336H418.686V311.5Z" fill="#169CD5"/>
</svg>
