<svg width="134" height="140" viewBox="0 0 134 140" fill="#f3f3f3" xmlns="http://www.w3.org/2000/svg">
<path fill-rule="evenodd" clip-rule="evenodd" d="M22.0007 59.5045V45.8071C22.0007 20.9543 42.1478 0.807129 67.0006 0.807129C91.8535 0.807129 112.001 20.9543 112.001 45.8071V59.5045C119.432 60.0595 124.272 61.4608 127.809 64.9983C133.667 70.8562 133.667 80.2843 133.667 99.1405C133.667 117.997 133.667 127.425 127.809 133.283C121.952 139.14 112.523 139.14 93.6673 139.14H40.334C21.4778 139.14 12.0497 139.14 6.19185 133.283C0.333984 127.425 0.333984 117.997 0.333984 99.1405C0.333984 80.2843 0.333984 70.8562 6.19185 64.9983C9.72939 61.4608 14.569 60.0595 22.0007 59.5045ZM32.0007 45.8071C32.0007 26.4772 47.6707 10.8071 67.0006 10.8071C86.3306 10.8071 102.001 26.4772 102.001 45.8071V59.1643C99.4472 59.1405 96.6774 59.1405 93.6673 59.1405H40.334C37.3239 59.1405 34.5541 59.1405 32.0007 59.1643V45.8071Z" fill="#f3f3f3"/>
</svg>
