<svg width="300" height="301" viewBox="0 0 300 301" fill="none" xmlns="http://www.w3.org/2000/svg">
<path d="M145.999 116.689C145.91 117.08 145.13 119.188 145.045 119.374C144.605 120.357 143.953 121.23 143.135 121.93C142.317 122.631 141.353 123.141 140.314 123.424C139.793 123.635 139.254 123.797 138.703 123.908C138.528 123.908 138.36 123.978 138.236 124.101C138.113 124.225 138.043 124.393 138.043 124.568C138.043 124.743 138.113 124.911 138.236 125.035C138.36 125.158 138.528 125.228 138.703 125.228C139.386 125.351 140.084 125.369 140.773 125.279C144.806 124.679 148.123 119.998 147.181 116.681C147.18 116.603 147.165 116.527 147.135 116.455C147.104 116.384 147.06 116.319 147.005 116.264C146.95 116.21 146.885 116.167 146.813 116.137C146.741 116.108 146.664 116.093 146.586 116.094C146.509 116.094 146.432 116.11 146.36 116.14C146.289 116.17 146.224 116.214 146.169 116.27C146.115 116.325 146.072 116.39 146.043 116.462C146.013 116.534 145.998 116.611 145.999 116.689Z" fill="#38A1FF"/>
<path d="M76.307 259.356C75.407 256.89 69.827 258.971 66.1715 259.356C66.518 258.648 66.08 258.776 63.755 252.017C59.6818 238.716 54.8882 225.647 49.3955 212.867C46.0176 205.115 42.1885 197.567 37.928 190.263C37.8485 190.106 37.7097 189.987 37.5421 189.932C37.3746 189.877 37.1921 189.89 37.0348 189.97C36.8774 190.05 36.7582 190.188 36.7032 190.356C36.6482 190.523 36.662 190.706 36.7415 190.863L28.652 194.486C28.595 194.368 28.5012 194.272 28.3847 194.213C28.2683 194.154 28.1356 194.134 28.0069 194.157C27.8782 194.18 27.7605 194.244 27.6717 194.34C27.583 194.436 27.5279 194.558 27.515 194.688C27.161 198.588 27.1415 203.01 29.915 205.728C29.915 211.043 19.9685 236.288 16.7705 242.669C14.7854 246.637 12.4059 250.395 9.66804 253.886C9.50289 254.109 9.43231 254.389 9.47154 254.664C9.55404 255.372 9.95754 255.248 13.316 257.723C14.039 258.266 14.795 258.825 15.485 259.407C15.5942 259.498 15.7217 259.565 15.8588 259.602C15.996 259.639 16.1396 259.647 16.2798 259.624C16.4201 259.6 16.5536 259.547 16.6715 259.468C16.7893 259.388 16.8886 259.284 16.9625 259.163C20.2883 253.762 23.231 248.134 25.769 242.321C28.793 235.44 35.708 216.876 36.9095 210.194C39.4385 215.618 42.2645 220.892 44.8595 226.287C52.4405 242.082 52.7855 249.306 57.938 262.833C57.9867 262.964 58.0625 263.084 58.1604 263.184C58.2582 263.284 58.3761 263.363 58.5062 263.414C58.6363 263.466 58.7758 263.489 58.9156 263.484C59.0555 263.478 59.1926 263.443 59.318 263.381C61.2002 262.464 63.0377 261.459 64.8245 260.369C64.877 260.438 64.9434 260.495 65.0193 260.537C65.0952 260.579 65.1791 260.605 65.2655 260.613C68.957 261.306 72.794 259.908 74.3015 260.219C74.0948 260.604 73.843 260.963 73.5515 261.288C73.1719 261.683 72.741 262.025 72.2705 262.305C69.8795 263.757 63.9515 266.306 61.886 264.405C61.8301 264.34 61.7617 264.287 61.685 264.249C61.6082 264.21 61.5245 264.188 61.4389 264.182C61.3533 264.176 61.2674 264.188 61.1863 264.216C61.1052 264.244 61.0305 264.288 60.9665 264.345C60.8402 264.464 60.7632 264.625 60.7509 264.798C60.7387 264.971 60.7921 265.142 60.9005 265.277C61.5621 265.974 62.3964 266.484 63.3188 266.754C64.2412 267.024 65.2188 267.046 66.152 266.816C69.0437 266.266 71.787 265.112 74.2025 263.43C75.0898 262.735 75.7993 261.839 76.2725 260.816C76.3761 260.587 76.4325 260.34 76.4384 260.089C76.4444 259.839 76.3997 259.589 76.307 259.356Z" fill="#191919"/>
<path d="M21.1037 266.482C19.9952 264.358 16.2122 264.205 14.5037 261.58C14.4113 261.436 14.3736 261.263 14.3976 261.094C14.4215 260.924 14.5055 260.769 14.6342 260.656C14.7799 260.552 14.9599 260.508 15.1371 260.533C15.3143 260.557 15.4752 260.649 15.5867 260.789C16.6082 262.058 18.9122 262.384 20.6867 263.377C22.0997 264.169 23.5982 265.834 23.1842 267.364C22.6187 269.327 19.4747 269.279 17.4662 269.24C15.6667 269.156 13.9129 268.646 12.3485 267.753C10.7841 266.859 9.45361 265.608 8.4662 264.101C7.78192 263.034 7.48076 261.765 7.61213 260.504C7.7435 259.242 8.29959 258.063 9.1892 257.159C9.23766 257.097 9.29796 257.044 9.36667 257.005C9.43537 256.966 9.51113 256.941 9.58962 256.931C9.66811 256.921 9.74779 256.926 9.82411 256.947C9.90044 256.968 9.97191 257.004 10.0345 257.052C10.097 257.1 10.1494 257.161 10.1886 257.229C10.2279 257.298 10.2532 257.374 10.2631 257.452C10.2731 257.531 10.2675 257.611 10.2467 257.687C10.2258 257.763 10.1902 257.835 10.1417 257.897C7.2407 262.312 12.8987 267.127 17.5022 267.197C18.6827 267.295 19.8713 267.193 21.0182 266.897C21.3242 266.77 21.3107 266.887 21.1037 266.482ZM21.2342 266.812C21.2012 266.812 21.2342 266.764 21.2342 266.764C21.2672 266.78 21.2672 266.791 21.2342 266.812Z" fill="#191919"/>
<path d="M265.838 159.036C265.306 153.309 263.061 147.876 259.397 143.443C258.466 142.485 257.443 141.621 256.342 140.863C255.292 148.74 253.372 156.474 252.365 164.349C252.133 166.173 253.844 167.665 254.173 169.474C257.044 168.472 259.974 167.648 262.946 167.008C262.859 165.54 263.064 164.069 263.549 162.68C264.034 161.291 264.79 160.012 265.772 158.917L265.838 159.036Z" fill="#38A1FF"/>
<path d="M224.372 161.446C225.917 153.629 227.461 145.793 228.872 137.957C220.515 141.49 213.456 147.523 208.664 155.228C207.617 157.065 206.685 158.964 205.871 160.915C207.929 161.911 209.916 163.047 211.819 164.314C213.895 165.527 216.122 166.499 218.227 167.74C219.343 166.7 220.276 165.457 221.348 164.335C222.248 163.394 223.319 162.583 224.207 161.635L224.372 161.446Z" fill="#38A1FF"/>
<path d="M196.5 83.9028C197.508 86.7303 201.993 88.1478 204.944 87.3453C205.481 87.1763 205.999 86.9516 206.489 86.6748C206.656 86.6225 206.796 86.5059 206.877 86.3508C206.958 86.1956 206.974 86.0146 206.922 85.8475C206.869 85.6804 206.753 85.541 206.598 85.4598C206.443 85.3787 206.262 85.3625 206.094 85.4148C205.601 85.4718 205.109 85.4328 204.648 85.4628C203.6 85.6324 202.527 85.5835 201.498 85.3192C200.469 85.0549 199.505 84.5808 198.668 83.9268C198.668 83.9268 197.876 83.4558 197.42 83.1483C196.941 82.5078 195.993 83.3223 196.5 83.9028Z" fill="#38A1FF"/>
<path d="M197.295 78.9935C197.683 79.3293 198.114 79.6104 198.578 79.829C199.688 80.2053 200.856 80.3771 202.028 80.336C202.872 80.4019 203.721 80.2954 204.524 80.0231C205.326 79.7508 206.064 79.3184 206.694 78.752C206.837 78.6613 206.94 78.5186 206.98 78.354C207.02 78.1893 206.995 78.0155 206.91 77.869C206.825 77.7225 206.686 77.6146 206.523 77.5681C206.36 77.5216 206.185 77.5401 206.036 77.6195C205.643 77.753 205.215 77.7695 204.821 77.87C204.521 77.9315 204.261 78.0125 203.966 78.071C202.357 78.3827 200.702 78.3587 199.103 78.0006C198.821 77.9601 198.012 77.9255 197.789 77.894C197.717 77.8611 197.64 77.8428 197.562 77.8401C197.483 77.8374 197.405 77.8504 197.331 77.8783C197.258 77.9063 197.191 77.9486 197.134 78.0028C197.077 78.057 197.031 78.122 197 78.194C196.937 78.3398 196.933 78.5041 196.988 78.6529C197.043 78.8017 197.153 78.9237 197.295 78.9935Z" fill="#38A1FF"/>
<path d="M140.249 110.191C140.282 110.396 140.282 110.561 140.315 110.767C140.348 110.972 140.379 111.134 140.412 111.32C140.762 112.106 141.192 112.853 141.695 113.551C142.294 114.653 143.225 115.539 144.356 116.083C144.484 116.201 144.654 116.263 144.829 116.255C145.003 116.247 145.167 116.171 145.284 116.042C145.402 115.914 145.464 115.744 145.456 115.57C145.449 115.396 145.372 115.232 145.244 115.114C145.046 114.794 144.944 114.472 144.717 114.154C144.315 113.588 143.831 113.066 143.436 112.492C142.986 111.833 142.437 110.909 141.99 110.29C141.794 110.059 141.563 109.912 141.366 109.69C141.334 109.617 141.286 109.55 141.228 109.495C141.17 109.44 141.101 109.397 141.026 109.368C140.95 109.34 140.87 109.326 140.79 109.328C140.71 109.331 140.631 109.349 140.557 109.382C140.484 109.415 140.418 109.462 140.362 109.52C140.307 109.579 140.264 109.647 140.235 109.722C140.207 109.798 140.193 109.878 140.196 109.958C140.198 110.038 140.216 110.118 140.249 110.191Z" fill="#38A1FF"/>
<path d="M144.491 106.721C144.624 107.621 144.374 107.893 146.067 110.365C146.712 111.541 147.655 112.527 148.802 113.222C148.858 113.286 148.927 113.339 149.005 113.376C149.082 113.414 149.166 113.435 149.251 113.44C149.337 113.444 149.423 113.431 149.504 113.402C149.584 113.373 149.658 113.328 149.721 113.27C149.849 113.152 149.926 112.99 149.939 112.817C149.951 112.643 149.897 112.472 149.787 112.337C149.589 111.964 149.459 111.596 149.228 111.241C148.802 110.572 148.275 109.982 147.848 109.339C147.182 108.338 146.672 107.389 146.238 106.889C146.04 106.639 145.811 106.463 145.614 106.22C145.548 106.071 145.425 105.955 145.273 105.896C145.12 105.838 144.951 105.842 144.802 105.909C144.653 105.975 144.537 106.098 144.478 106.25C144.42 106.403 144.424 106.572 144.491 106.721Z" fill="#38A1FF"/>
<path d="M148.76 102.861C148.664 103.374 148.675 103.901 148.793 104.409C149.476 106.518 150.634 108.443 152.177 110.034C152.44 110.294 152.735 110.502 153.031 110.75C153.144 110.889 153.306 110.979 153.484 111.001C153.662 111.023 153.841 110.976 153.985 110.87C154.117 110.758 154.201 110.599 154.219 110.427C154.237 110.254 154.188 110.081 154.082 109.944C153.919 109.586 153.782 109.251 153.623 108.908C153.557 108.767 153.458 108.632 153.392 108.501C152.055 106.661 150.9 104.695 149.942 102.632C149.927 102.554 149.897 102.48 149.854 102.414C149.81 102.348 149.754 102.292 149.688 102.248C149.623 102.203 149.549 102.172 149.472 102.157C149.394 102.141 149.314 102.141 149.237 102.156C149.159 102.171 149.085 102.201 149.019 102.244C148.953 102.288 148.897 102.344 148.852 102.41C148.808 102.475 148.777 102.549 148.761 102.626C148.746 102.704 148.745 102.784 148.76 102.861Z" fill="#38A1FF"/>
<path d="M153.822 98.665C153.737 99.1583 153.737 99.6626 153.822 100.156C154.094 101.262 154.514 102.326 155.071 103.319C155.702 104.823 156.765 106.105 158.127 107.002C158.183 107.066 158.252 107.119 158.329 107.157C158.406 107.194 158.489 107.216 158.575 107.221C158.661 107.226 158.746 107.214 158.827 107.186C158.908 107.158 158.982 107.113 159.046 107.056C159.174 106.938 159.252 106.776 159.264 106.603C159.276 106.43 159.222 106.259 159.112 106.124C158.883 105.724 158.722 105.313 158.488 104.924C157.314 103.288 156.364 101.501 155.662 99.613C155.595 99.472 155.077 98.5915 155.005 98.4385C154.99 98.3607 154.96 98.2867 154.917 98.2206C154.873 98.1545 154.817 98.0976 154.752 98.0532C154.686 98.0088 154.613 97.9777 154.535 97.9617C154.458 97.9457 154.378 97.9451 154.3 97.96C154.222 97.9748 154.148 98.0049 154.082 98.0483C154.016 98.0918 153.959 98.1479 153.915 98.2134C153.87 98.2788 153.839 98.3524 153.823 98.4299C153.807 98.5074 153.807 98.5873 153.822 98.665Z" fill="#38A1FF"/>
<path d="M164.268 102.961C165.068 102.836 176.831 101.9 180.206 101.861C181.007 101.852 186.003 101.951 187.073 102.047C187.248 102.078 187.429 102.039 187.576 101.938C187.723 101.838 187.826 101.685 187.862 101.51C187.882 101.336 187.835 101.161 187.732 101.019C187.629 100.878 187.476 100.78 187.304 100.747C185.457 100.2 183.545 99.9068 181.619 99.8735C178.764 99.8073 175.909 99.9231 173.069 100.22C169.401 100.556 167.336 100.432 163.967 101.795C163.812 101.835 163.68 101.935 163.599 102.072C163.518 102.21 163.495 102.374 163.535 102.529C163.575 102.683 163.675 102.815 163.812 102.896C163.95 102.977 164.114 103.001 164.268 102.961Z" fill="#38A1FF"/>
<path d="M164.272 108.46C165.268 108.27 166.281 108.176 167.296 108.178C169.72 108.073 171.602 107.637 176.199 107.409C179.241 107.259 181.899 107.325 183.528 107.272C184.481 107.239 185.433 107.176 186.386 107.149C186.557 107.156 186.725 107.096 186.853 106.982C186.981 106.868 187.06 106.709 187.072 106.538C187.085 106.367 187.031 106.197 186.922 106.066C186.812 105.934 186.655 105.849 186.485 105.831C185.335 105.658 184.186 105.466 183.035 105.381C178.413 105.159 173.781 105.378 169.201 106.036C167.352 106.145 165.537 106.587 163.845 107.341C163.772 107.369 163.704 107.411 163.646 107.465C163.589 107.52 163.543 107.585 163.51 107.657C163.478 107.729 163.46 107.806 163.457 107.885C163.455 107.964 163.468 108.043 163.496 108.117C163.524 108.191 163.566 108.258 163.62 108.316C163.674 108.373 163.739 108.42 163.811 108.452C163.883 108.484 163.961 108.502 164.04 108.505C164.119 108.507 164.198 108.494 164.272 108.466V108.46Z" fill="#38A1FF"/>
<path d="M191.049 87.4053C190.52 88.0271 190.088 88.7255 189.768 89.4768C189.166 91.2826 188.986 93.2021 189.241 95.0883C189.338 96.4647 189.761 97.7984 190.475 98.9791C191.19 100.16 192.174 101.154 193.348 101.879C193.485 101.988 193.66 102.038 193.834 102.018C194.008 101.998 194.167 101.91 194.276 101.773C194.385 101.636 194.435 101.461 194.415 101.287C194.396 101.113 194.307 100.954 194.17 100.845C193.431 99.9585 192.792 98.9926 192.265 97.9653C191.274 95.9502 190.94 93.6747 191.311 91.4598C191.504 90.2903 191.767 89.1336 192.1 87.9963C192.139 87.9272 192.164 87.8512 192.173 87.7726C192.183 87.6939 192.177 87.6142 192.155 87.5379C192.134 87.4617 192.098 87.3904 192.049 87.3281C192 87.2658 191.939 87.2138 191.87 87.175C191.801 87.1362 191.725 87.1114 191.646 87.1019C191.568 87.0925 191.488 87.0987 191.412 87.1201C191.336 87.1414 191.264 87.1776 191.202 87.2266C191.14 87.2755 191.088 87.3362 191.049 87.4053Z" fill="#38A1FF"/>
<path d="M194.4 86.2347C193.814 87.5186 193.743 88.9785 194.202 90.3132C194.892 93.1055 196.574 95.5516 198.934 97.1952C199.585 97.5543 200.297 97.7908 201.034 97.8927C201.118 97.9216 201.208 97.933 201.297 97.9263C201.385 97.9197 201.472 97.895 201.551 97.8538C201.63 97.8126 201.7 97.7557 201.756 97.6867C201.813 97.6176 201.854 97.5379 201.879 97.4522C201.903 97.3665 201.91 97.2768 201.899 97.1884C201.888 97.1 201.859 97.0148 201.813 96.938C201.768 96.8612 201.708 96.7944 201.636 96.7416C201.564 96.6889 201.482 96.6513 201.396 96.6312C200.886 96.3526 200.412 96.0142 199.983 95.6232C198.123 94.1337 196.778 92.098 196.137 89.8032C195.825 88.7502 195.638 87.6643 195.579 86.5677C195.613 86.4146 195.587 86.2543 195.507 86.1196C195.426 85.9849 195.298 85.886 195.147 85.8434C194.996 85.8008 194.834 85.8176 194.695 85.8903C194.556 85.9631 194.451 86.0863 194.4 86.2347Z" fill="#38A1FF"/>
<path d="M177.416 120.838C178.089 121.091 178.781 121.289 179.486 121.429C182.11 121.82 184.774 121.851 187.406 121.521C188.062 121.373 188.7 121.157 189.311 120.876C189.477 120.827 189.618 120.718 189.709 120.571C189.8 120.425 189.834 120.249 189.805 120.079C189.757 119.908 189.645 119.761 189.492 119.67C189.338 119.579 189.156 119.551 188.983 119.592C188.335 119.638 188.461 119.553 186.283 119.665C184.156 119.741 182.027 119.686 179.908 119.499C179.116 119.458 178.323 119.504 177.542 119.637C177.383 119.62 177.223 119.667 177.099 119.768C176.974 119.869 176.895 120.015 176.878 120.175C176.862 120.334 176.909 120.493 177.01 120.618C177.111 120.742 177.257 120.822 177.416 120.838Z" fill="#38A1FF"/>
<path d="M175.181 117.299C175.948 117.493 176.728 117.627 177.515 117.701C180.454 117.929 183.409 117.597 186.223 116.721C186.898 116.415 187.528 116.016 188.095 115.538C188.248 115.452 188.361 115.309 188.41 115.141C188.459 114.973 188.441 114.792 188.359 114.638C188.267 114.486 188.119 114.375 187.947 114.331C187.775 114.286 187.592 114.31 187.438 114.398C186.917 114.6 185.983 114.794 185.599 114.899C180.409 116.249 180.065 115.17 175.214 116.099C175.136 116.097 175.057 116.11 174.984 116.138C174.91 116.166 174.843 116.209 174.785 116.263C174.728 116.317 174.682 116.382 174.65 116.454C174.618 116.526 174.6 116.603 174.598 116.682C174.596 116.761 174.609 116.839 174.637 116.913C174.665 116.987 174.708 117.054 174.762 117.111C174.816 117.169 174.881 117.215 174.953 117.247C175.025 117.279 175.103 117.297 175.181 117.299Z" fill="#38A1FF"/>
<path d="M158.852 122.173C159.449 122.387 160.065 122.544 160.692 122.641C162.654 122.872 164.597 123.241 166.508 123.745C167.034 123.841 167.526 123.847 168.02 123.922C168.183 123.977 168.362 123.967 168.518 123.892C168.674 123.818 168.794 123.686 168.854 123.524C168.914 123.362 168.908 123.183 168.838 123.025C168.768 122.867 168.639 122.743 168.479 122.679C168.054 122.408 167.615 122.16 167.165 121.936C164.751 121.039 162.179 120.645 159.608 120.78C159.344 120.832 159.114 120.895 158.858 120.964C158.697 120.963 158.543 121.026 158.429 121.139C158.315 121.252 158.251 121.405 158.25 121.566C158.249 121.726 158.312 121.88 158.425 121.994C158.538 122.108 158.691 122.172 158.852 122.173Z" fill="#38A1FF"/>
<path d="M173.765 126.731C174.101 126.84 175.509 127.362 175.77 127.449C182.317 129.515 181.92 130.341 186.42 131.616C186.579 131.69 186.761 131.698 186.926 131.638C187.091 131.578 187.226 131.455 187.3 131.296C187.374 131.137 187.382 130.955 187.322 130.79C187.262 130.625 187.139 130.49 186.979 130.416C186.306 129.923 185.605 129.469 184.879 129.056C182.159 127.531 179.255 126.363 176.236 125.579C175.464 125.464 174.681 125.446 173.904 125.525C173.825 125.516 173.745 125.523 173.669 125.545C173.593 125.567 173.522 125.604 173.46 125.654C173.399 125.703 173.347 125.764 173.309 125.834C173.271 125.903 173.247 125.98 173.238 126.059C173.229 126.137 173.236 126.217 173.258 126.293C173.281 126.369 173.317 126.44 173.367 126.502C173.417 126.564 173.478 126.615 173.547 126.654C173.617 126.692 173.693 126.716 173.772 126.725L173.765 126.731Z" fill="#38A1FF"/>
<path d="M151.851 125.598C157.946 126.357 163.855 128.202 169.299 131.046C171.721 132.282 177.948 136.175 179.025 136.917C179.162 137.024 179.335 137.073 179.508 137.052C179.681 137.031 179.838 136.943 179.946 136.806C180.05 136.668 180.099 136.496 180.08 136.323C180.062 136.151 179.978 135.992 179.847 135.879C177.46 133.65 174.799 131.735 171.928 130.179C167.112 127.415 161.871 125.468 156.418 124.418C154.892 124.214 153.346 124.205 151.818 124.391C151.658 124.398 151.507 124.466 151.397 124.582C151.287 124.698 151.226 124.852 151.227 125.012C151.228 125.092 151.246 125.17 151.278 125.243C151.311 125.316 151.357 125.381 151.416 125.436C151.474 125.491 151.542 125.533 151.617 125.561C151.691 125.589 151.771 125.602 151.851 125.598Z" fill="#38A1FF"/>
<path d="M148.858 129.406C150.126 129.763 151.367 130.209 152.572 130.739C160.041 133.777 158.712 132.466 172.584 140.672C172.726 140.774 172.902 140.815 173.074 140.787C173.247 140.759 173.401 140.664 173.503 140.522C173.6 140.377 173.637 140.2 173.606 140.029C173.576 139.857 173.48 139.704 173.34 139.601C170.757 137.304 167.882 135.359 164.79 133.817C160.879 131.698 153.405 128.294 148.984 128.203C148.825 128.186 148.665 128.233 148.54 128.334C148.416 128.435 148.336 128.581 148.32 128.741C148.303 128.901 148.35 129.06 148.451 129.185C148.552 129.309 148.699 129.389 148.858 129.406Z" fill="#38A1FF"/>
<path d="M167.325 79.4916C166.592 79.6041 165.885 79.7061 165.156 79.8921C164.995 79.9293 164.828 79.9279 164.667 79.888C164.506 79.8481 164.358 79.7708 164.233 79.6625C164.108 79.5541 164.01 79.4177 163.948 79.2645C163.885 79.1112 163.86 78.9454 163.874 78.7806C164.117 76.6176 165.399 74.3571 165.189 72.5406L164.96 69.2181C164.946 69.0325 164.985 68.8468 165.072 68.6823C165.159 68.5178 165.291 68.3812 165.452 68.2881C166.181 67.8516 166.536 68.4216 167.39 68.7006C168.522 69.0231 169.394 68.5161 170.577 68.6406C171.123 68.683 171.643 68.8877 172.07 69.2283C172.498 69.5689 172.814 70.0298 172.977 70.5516C173.564 72.4311 172.07 74.1831 175.737 74.1966C175.957 74.196 176.171 74.2697 176.344 74.4059C176.517 74.542 176.639 74.7325 176.69 74.9466C177.297 77.6279 177.715 80.3486 177.939 83.0886C180.074 83.3515 182.143 83.9946 184.05 84.9876C184.194 85.0566 184.305 85.1785 184.361 85.3278C184.417 85.477 184.413 85.6421 184.35 85.7886C184.285 85.9324 184.165 86.0446 184.018 86.1008C183.87 86.1569 183.706 86.1526 183.561 86.0886C181.52 85.2409 179.333 84.7972 177.122 84.7821C176.911 84.7774 176.709 84.6973 176.552 84.5564C176.395 84.4156 176.294 84.2231 176.267 84.0141C176.003 82.2846 175.331 77.8281 174.953 76.1541C174.163 76.2008 173.379 75.9929 172.717 75.5608C172.054 75.1288 171.548 74.4955 171.272 73.7541C170.957 72.6246 171.429 71.2146 170.78 70.7766C170.18 70.3266 168.731 71.1126 167.099 70.7196L167.231 72.3291C167.22 74.1374 166.875 75.9281 166.212 77.6106C166.706 77.5311 167.198 77.4606 167.691 77.3796C167.903 77.3463 168.119 77.3821 168.308 77.4815C168.497 77.581 168.649 77.7388 168.741 77.9316C169.367 79.2276 170.88 80.6316 172.29 80.3136C172.423 80.2812 172.561 80.2765 172.696 80.2998C172.83 80.3231 172.959 80.374 173.073 80.4492C173.187 80.5243 173.284 80.6222 173.358 80.7367C173.433 80.8512 173.483 80.9798 173.505 81.1146L174.096 84.5646C174.132 84.7609 174.108 84.9635 174.026 85.1454C173.944 85.3273 173.808 85.48 173.637 85.5831C170.328 87.5755 167.175 89.818 164.207 92.2911C164.077 92.4061 163.907 92.4654 163.734 92.456C163.56 92.4466 163.398 92.3694 163.281 92.241C163.164 92.1126 163.103 91.9434 163.11 91.77C163.117 91.5966 163.192 91.433 163.319 91.3146C165.982 88.6779 168.911 86.3238 172.059 84.2901L171.698 82.3491C170.795 82.2519 169.928 81.9424 169.168 81.4457C168.408 80.949 167.777 80.2793 167.325 79.4916Z" fill="#191919"/>
<path d="M172.913 61.3196C173.362 61.0688 173.836 60.8652 174.326 60.7121C177.706 59.7461 180.13 62.8121 181.489 66.0431C181.74 66.8873 182.129 67.6845 182.639 68.4026C183.458 69.3026 185.077 69.6566 186.287 70.4951C187.41 71.282 188.177 72.4795 188.423 73.8281C188.451 75.0928 188.551 76.3549 188.723 77.6081C188.776 77.7176 188.905 77.9921 189.023 78.0371C189.023 78.0371 188.99 78.0701 189.023 78.0686C189.099 78.0474 189.179 78.0419 189.257 78.0526C189.336 78.0632 189.411 78.0897 189.478 78.1304C189.546 78.1711 189.605 78.2252 189.651 78.2894C189.697 78.3536 189.729 78.4265 189.746 78.5036C189.95 79.1711 188.951 79.7036 188.005 78.8351C186.175 77.1101 188.035 73.7516 185.245 72.0716C183.787 71.5145 182.424 70.7369 181.202 69.7661C180.493 68.8976 179.967 67.8937 179.657 66.8156C178.814 64.7606 177.049 62.0591 174.893 62.6696C174.411 62.8195 173.955 63.0448 173.543 63.3371C172.493 63.9746 172.078 62.3981 169.567 63.1346C167.172 64.0049 165.175 65.7155 163.948 67.9481C162.898 69.8384 162.071 71.8437 161.483 73.9241C160.883 75.8306 159.946 78.0221 160.793 79.8071C161.926 82.1906 165.247 85.0571 160.103 87.4571C159.946 87.5334 159.764 87.5446 159.599 87.4885C159.433 87.4324 159.296 87.3134 159.217 87.1571C159.146 86.999 159.137 86.8198 159.193 86.6556C159.248 86.4914 159.364 86.3543 159.517 86.2721C163.942 84.0221 158.687 82.4201 158.531 78.5051C158.567 76.73 158.923 74.976 159.581 73.3271C160.781 69.3821 162.155 65.8931 165.299 63.2366C167.44 61.4231 170.351 60.2186 172.913 61.3196Z" fill="#191919"/>
<path d="M181.65 74.9608C182.1 75.8608 181.9 76.3108 181.879 77.5483C181.802 78.4799 181.937 79.4169 182.274 80.2888C182.427 80.6331 182.663 80.9338 182.961 81.164C183.259 81.3942 183.61 81.5465 183.982 81.6073C184.935 81.7693 186.724 81.2623 186.382 80.3683C186.111 79.6573 185.799 80.2048 184.51 79.7608C183.183 79.3633 184.546 76.1068 183.492 74.2738C183.01 73.4563 181.521 72.2728 180.961 72.8983C180.607 73.3618 180.976 73.4653 181.65 74.9608Z" fill="#191919"/>
<path d="M178.531 75.2854C178.429 77.0613 178.484 78.8427 178.695 80.6089C179.395 82.7419 181.14 83.2294 181.587 82.5124C181.957 81.7999 181.033 81.7624 180.634 80.0044C180.484 79.2034 180.586 77.3719 180.436 76.4254C180.372 75.7963 180.094 75.2084 179.647 74.7604C179.578 74.6124 179.452 74.4981 179.298 74.4427C179.144 74.3873 178.975 74.3953 178.827 74.4649C178.679 74.5345 178.565 74.6601 178.509 74.814C178.454 74.9678 178.462 75.1374 178.531 75.2854Z" fill="#191919"/>
<path d="M164.798 87.9417C166.947 87.2457 168.51 84.3417 167 82.2837C166.472 81.5637 165.555 82.0167 165.816 82.8747C166.344 84.6102 165.542 85.6677 164.24 86.8842C163.539 87.5367 164.102 88.1667 164.798 87.9417Z" fill="#191919"/>
<path d="M194.731 63.4393C195.286 64.3194 195.728 65.2665 196.045 66.2578C196.744 68.4388 196.663 71.5078 197.753 71.4898C199.361 71.4508 198.539 64.8448 196.307 62.3818C195.868 61.8898 194.552 60.8098 194.041 61.3513C193.679 61.7368 194.443 63.0043 194.731 63.4393Z" fill="#191919"/>
<path d="M197.95 62.2446C198.25 62.6826 199.014 64.2096 199.857 63.9171C200.725 63.5856 200.211 61.9671 199.627 61.0446C199.429 60.7555 199.21 60.4817 198.97 60.2256C198.33 59.7126 197.388 59.4456 197.064 59.7951C196.554 60.4386 197.85 62.0886 197.95 62.2446Z" fill="#191919"/>
<path d="M200.613 61.5874C200.821 62.0644 201.39 63.5689 202.189 63.3964C203.079 63.2044 202.815 61.6249 202.453 60.7279C201.93 59.2639 200.815 58.8859 200.481 59.0644C199.65 59.5099 200.487 61.2874 200.613 61.5874Z" fill="#191919"/>
<path d="M204.128 65.1311C204.375 67.7186 204.065 70.4306 205.113 70.5056C206.955 70.6376 206.105 62.6681 205.541 61.1906C205.445 60.8231 204.8 59.1656 204.128 59.3411C203.18 59.5901 203.861 62.3546 204.128 65.1311Z" fill="#191919"/>
<path d="M128.189 126.723C126.865 127.996 125.177 128.822 123.359 129.087C123.063 129.123 122.762 129.084 122.485 128.973C122.207 128.862 121.962 128.683 121.772 128.452C121.582 128.222 121.454 127.947 121.398 127.653C121.343 127.36 121.362 127.057 121.454 126.773C121.841 125.774 122.458 124.88 123.254 124.164C124.594 122.664 125.933 121.869 134.131 116.004C134.252 115.899 134.41 115.846 134.57 115.857C134.73 115.867 134.879 115.94 134.986 116.06C135.088 116.183 135.138 116.341 135.125 116.5C135.113 116.659 135.039 116.807 134.92 116.913C132.967 118.926 130.845 120.769 128.578 122.421C127.21 123.358 125.924 124.409 124.733 125.562C124.048 126.351 123.833 126.446 123.583 127.02C124.209 126.905 124.804 126.655 125.324 126.288C126.14 125.774 126.902 125.148 127.625 124.586C127.73 124.505 127.85 124.445 127.977 124.41C128.105 124.376 128.238 124.367 128.37 124.383C128.501 124.4 128.627 124.443 128.742 124.509C128.857 124.575 128.958 124.662 129.038 124.767C129.877 125.882 132.265 126.356 132.62 124.719C133.193 122.075 136.423 121.733 138.074 120.729C138.218 120.629 138.395 120.59 138.568 120.62C138.74 120.65 138.894 120.746 138.995 120.888C139.922 122.291 134.84 123.206 134.525 125.081C134.023 128.075 130.528 128.502 128.189 126.723Z" fill="#191919"/>
<path d="M207.149 72.4835C207.121 72.2805 207.03 72.0914 206.888 71.9434C206.747 71.7954 206.562 71.6962 206.36 71.66C202.965 70.9075 199.413 71.3859 196.339 73.01C196.164 73.099 196.021 73.2383 195.927 73.4098C195.833 73.5812 195.793 73.7769 195.812 73.9715C196.094 77.516 196.333 82.754 193.348 84.677C191.602 85.763 189.1 85.652 187.039 85.6115C186.891 85.6087 186.745 85.6369 186.609 85.6942C186.474 85.7516 186.352 85.8369 186.251 85.9445C184.479 87.985 183.257 90.4434 182.699 93.0875C179.384 93.596 175.949 94.2185 172.508 94.607C172.958 93.5765 173.365 92.6015 173.498 92.246C173.819 91.3955 173.098 90.881 172.414 91.4855C171.51 92.367 170.937 93.532 170.791 94.7855C169.262 94.9205 167.738 94.994 166.232 94.976C166.682 94.55 167.069 94.136 167.32 93.8465C167.876 93.2045 167.432 92.426 166.546 92.78C165.046 93.38 164.401 94.4075 163.016 96.23L161.407 92.7185C161.342 92.5843 161.25 92.4656 161.135 92.3706C161.021 92.2756 160.887 92.2066 160.743 92.1684C160.6 92.1301 160.449 92.1236 160.303 92.1492C160.156 92.1747 160.017 92.2319 159.895 92.3165C157.502 94.0565 156.122 95.5295 154.045 97.1705C147.9 102.041 142.061 107.286 136.562 112.876C136.424 113.017 136.328 113.195 136.288 113.388C136.247 113.581 136.263 113.783 136.333 113.968C137.184 116.185 138.572 118.156 140.374 119.705C140.548 119.85 140.766 119.932 140.993 119.937C141.219 119.943 141.441 119.872 141.623 119.737C147.391 115.424 154.973 110.825 161.306 106.703C161.882 109.25 163.395 111.487 165.545 112.969C165.545 113.17 165.514 114.508 165.611 116.719C156.638 120.489 148.562 126.112 141.911 133.219C141.78 133.357 141.692 133.529 141.655 133.716C141.618 133.903 141.635 134.096 141.704 134.274C141.773 134.451 141.891 134.605 142.043 134.719C142.196 134.832 142.378 134.899 142.568 134.914C147.72 135.279 152.654 137.14 156.764 140.269C158.933 141.689 160.835 143.481 162.383 145.561C162.512 145.762 162.712 145.908 162.943 145.969C163.174 146.03 163.419 146.002 163.631 145.891C169.612 142.741 177.4 140.341 183.052 135.991C191.725 129.275 192.577 119.555 187.39 109.795C188.292 107.887 188.943 105.87 189.328 103.795C192.566 103.677 195.74 102.855 198.628 101.386C209.108 95.7785 208.799 84.2975 207.149 72.4835ZM189.044 120.184C189.233 122.993 188.684 125.804 187.45 128.335C186.216 130.867 184.342 133.031 182.012 134.614C176.623 138.664 169.328 140.926 163.513 143.785C160.04 139.791 155.67 136.677 150.763 134.698C148.858 133.951 146.873 133.426 144.848 133.133C151.139 126.74 158.678 121.71 166.996 118.355C167.19 118.279 167.357 118.146 167.475 117.974C167.592 117.801 167.654 117.596 167.653 117.388C167.633 116.29 167.611 116.435 167.575 113.464C167.887 113.546 168.38 113.663 168.764 113.74C167.925 117.072 167.464 120.488 167.389 123.923C167.389 125.134 167.455 126.323 167.521 127.523C167.515 127.697 167.578 127.867 167.697 127.994C167.816 128.122 167.981 128.197 168.155 128.203C168.329 128.208 168.499 128.145 168.626 128.026C168.754 127.907 168.829 127.742 168.835 127.568C169.607 121.762 169.376 121.321 170.149 116.819C170.609 118.007 171.004 119.203 171.431 120.392C171.731 121.292 172.648 123.556 172.781 123.956C172.801 124.034 172.836 124.107 172.883 124.171C172.931 124.235 172.992 124.29 173.06 124.331C173.129 124.372 173.206 124.399 173.285 124.41C173.364 124.422 173.445 124.417 173.523 124.398C173.6 124.378 173.674 124.343 173.738 124.295C173.802 124.247 173.856 124.187 173.897 124.118C173.938 124.05 173.965 123.973 173.977 123.894C173.988 123.815 173.984 123.734 173.965 123.656C173.55 120.328 172.64 117.081 171.265 114.023C175.397 114.219 179.536 113.815 183.553 112.823C184.678 112.509 185.734 111.985 186.664 111.278C188.089 114.038 188.902 117.073 189.046 120.176L189.044 120.184ZM205.574 89.5865C203.99 96.611 199.025 100.741 192.298 102.037C186.527 103.127 189.127 101.059 187.172 107.023C186.151 110.312 186.326 110.237 183.065 110.941C178.818 111.881 174.462 112.239 170.119 112.007C168.769 111.976 166.66 112.496 164.237 108.707C162.557 106.108 163.811 104.671 162.692 104.039C162.53 103.948 162.347 103.904 162.162 103.911C161.976 103.918 161.796 103.975 161.642 104.078C154.816 108.578 147.793 112.721 141.073 117.622C140.002 116.516 139.135 115.231 138.509 113.825C143.808 108.468 149.426 103.437 155.332 98.7575C156.86 97.5395 158.549 95.8685 160.096 94.7075L161.936 98.708C162.015 98.8752 162.137 99.0181 162.29 99.1214C162.443 99.2247 162.622 99.2847 162.806 99.295C162.991 99.3053 163.174 99.2656 163.338 99.1799C163.502 99.0943 163.639 98.9659 163.736 98.8085C164.113 98.1593 164.541 97.5414 165.017 96.9605C171.206 97.2335 177.592 95.882 183.649 94.9745C184.817 94.8065 184.27 93.641 185.686 90.4745C186.14 89.4456 186.737 88.4861 187.46 87.6245C188.766 87.6809 190.075 87.6201 191.371 87.443C197.539 86.456 198.283 80.672 197.812 74.48C200.144 73.3761 202.757 73.0098 205.303 73.43C206 78.5855 206.723 84.4205 205.574 89.5865Z" fill="#191919"/>
<path d="M127.305 177.061C130.602 168.502 134.523 160.197 139.035 152.212C141.532 147.106 144.548 142.27 148.035 137.781C148.084 137.718 148.146 137.665 148.215 137.626C148.285 137.587 148.362 137.563 148.442 137.554C148.521 137.546 148.602 137.553 148.679 137.576C148.755 137.599 148.826 137.637 148.888 137.688C148.951 137.737 149.003 137.8 149.04 137.87C149.078 137.941 149.1 138.019 149.107 138.098C149.113 138.178 149.103 138.258 149.076 138.334C149.05 138.41 149.009 138.479 148.954 138.538C145.671 142.825 143.178 148.254 140.674 153.088C136.148 161.358 132.197 169.93 128.851 178.744C128.808 178.876 128.737 178.998 128.643 179.101C128.55 179.204 128.436 179.287 128.309 179.343C128.182 179.4 128.044 179.429 127.905 179.429C127.766 179.429 127.629 179.4 127.501 179.344C126.263 178.811 124.99 178.365 123.69 178.009C122.68 177.649 121.633 177.404 120.568 177.279C120.438 177.279 120.339 177.262 120.268 177.309C120.136 177.385 120.202 177.508 120.235 177.627C120.573 178.349 121.054 178.996 121.648 179.527C123.508 181.177 127.798 184.299 130.257 184.807C131.125 184.975 131.671 185.008 132.657 183.37C134.529 180.307 142.029 160.72 159.438 144.52C159.57 144.401 159.742 144.338 159.92 144.343C160.097 144.348 160.266 144.422 160.39 144.549C161.371 145.678 158.779 145.551 149.712 158.049C145.65 163.639 142.004 169.519 138.802 175.642C134.731 183.541 135.202 183.111 134.4 184.425C133.105 186.559 131.841 187.011 130.489 186.892C127.429 186.631 122.604 183.03 120.336 181.08C118.536 179.536 117.154 176.943 119.119 175.62C120.423 174.744 122.77 175.636 124.246 176.056C125.251 176.32 126.601 176.782 127.305 177.061Z" fill="#191919"/>
<path d="M119.549 179.062C119.785 179.239 120.676 179.971 121.291 180.356C128.422 184.825 127.72 184.871 130.853 186.316C130.997 186.407 131.171 186.438 131.338 186.403C131.505 186.367 131.651 186.268 131.746 186.126C131.84 185.984 131.875 185.811 131.844 185.643C131.812 185.476 131.716 185.328 131.576 185.23C131.028 184.626 130.426 184.073 129.776 183.58C127.387 181.754 124.86 180.115 122.218 178.678C121.528 178.38 120.814 178.145 120.082 177.976C120.011 177.941 119.933 177.92 119.854 177.915C119.775 177.91 119.695 177.921 119.62 177.947C119.545 177.972 119.476 178.013 119.416 178.065C119.356 178.118 119.308 178.181 119.273 178.253C119.238 178.324 119.217 178.401 119.212 178.481C119.207 178.56 119.218 178.639 119.243 178.715C119.269 178.79 119.309 178.859 119.362 178.919C119.414 178.978 119.478 179.027 119.549 179.062Z" fill="#191919"/>
<path d="M124.049 180.846C124.547 180.345 124.515 180.746 124.97 178.091C124.97 177.462 124.911 177.728 124.838 177.305C124.88 177.138 124.857 176.961 124.772 176.81C124.688 176.66 124.549 176.548 124.384 176.498C124.219 176.448 124.041 176.463 123.887 176.54C123.733 176.617 123.615 176.751 123.557 176.913C123.395 177.059 123.251 177.224 123.129 177.405C122.941 177.825 122.819 178.272 122.768 178.73C122.468 180.129 122.709 180.335 122.865 180.635C122.851 180.713 122.852 180.794 122.869 180.872C122.886 180.95 122.918 181.024 122.964 181.089C123.01 181.155 123.069 181.21 123.137 181.253C123.204 181.295 123.28 181.324 123.359 181.337C123.437 181.352 123.517 181.351 123.594 181.335C123.672 181.318 123.745 181.286 123.81 181.24C123.874 181.194 123.929 181.136 123.97 181.068C124.011 181 124.038 180.925 124.049 180.846Z" fill="#191919"/>
<path d="M142.156 136.097C141.629 136.466 141.154 136.905 140.744 137.4C139.865 138.628 139.229 140.013 138.871 141.48C138.231 143.53 138.289 145.734 139.034 147.747C139.042 147.833 139.068 147.916 139.109 147.991C139.15 148.066 139.207 148.133 139.274 148.186C139.342 148.239 139.419 148.277 139.502 148.299C139.585 148.322 139.672 148.327 139.757 148.314C139.843 148.304 139.926 148.276 140.002 148.233C140.077 148.19 140.143 148.132 140.195 148.063C140.247 147.994 140.285 147.915 140.306 147.831C140.327 147.746 140.33 147.659 140.317 147.573C140.669 140.973 140.65 141.963 143.077 136.866C143.558 136.236 142.63 135.479 142.156 136.097Z" fill="#191919"/>
<path d="M148.499 175.773V175.791C149.091 175.734 147.875 174.109 147.776 173.773C146.987 171.234 146.594 170.148 145.739 166.705C145.692 166.553 145.708 166.388 145.783 166.247C145.858 166.106 145.986 166.001 146.138 165.954C146.291 165.908 146.456 165.924 146.597 165.999C146.737 166.074 146.843 166.202 146.889 166.354C150.639 175.927 150.252 174.681 150.372 175.191C151.25 177.999 144.801 180.357 145.706 182.202C145.968 182.811 150.423 181.824 152.969 180.402C154.919 179.305 155.519 178.434 155.433 176.352C155.36 174.402 152.283 159.625 152.246 159.468C152.223 159.384 152.217 159.296 152.229 159.21C152.24 159.123 152.268 159.04 152.312 158.964C152.355 158.889 152.413 158.823 152.482 158.77C152.551 158.717 152.63 158.678 152.714 158.655C152.798 158.633 152.886 158.627 152.973 158.638C153.059 158.65 153.142 158.678 153.218 158.722C153.293 158.765 153.359 158.823 153.412 158.892C153.465 158.961 153.504 159.04 153.527 159.124C154.944 163.5 156.063 167.966 156.878 172.492C157.26 174.543 157.841 177.117 157.076 179.092C155.978 181.92 151.299 183.612 148.335 184.182C146.621 184.506 144.735 184.702 143.933 183.157C142.155 179.767 147.755 177.43 148.499 175.788C148.499 175.759 148.532 175.707 148.532 175.684C148.529 175.704 148.499 175.744 148.499 175.773Z" fill="#191919"/>
<path d="M146.101 183.331C148.03 183.241 149.919 182.752 151.651 181.896C153.54 181.353 155.283 180.392 156.751 179.085C156.895 178.995 156.998 178.852 157.04 178.687C157.081 178.521 157.056 178.347 156.971 178.199C156.886 178.052 156.747 177.943 156.583 177.897C156.419 177.85 156.244 177.868 156.094 177.948C155.776 178.059 154.876 178.326 154.385 178.53C153.301 178.98 152.246 179.481 151.132 179.911C150.044 180.331 148.892 180.693 147.779 181.134C147.067 181.415 146.384 181.767 145.742 182.184C145.667 182.207 145.597 182.246 145.536 182.296C145.476 182.347 145.426 182.409 145.389 182.479C145.352 182.549 145.33 182.625 145.323 182.704C145.316 182.782 145.324 182.862 145.348 182.937C145.371 183.012 145.409 183.082 145.46 183.143C145.511 183.203 145.573 183.253 145.642 183.29C145.712 183.327 145.789 183.349 145.867 183.356C145.946 183.363 146.025 183.355 146.101 183.331Z" fill="#191919"/>
<path d="M146.755 178.931C146.739 179.057 146.739 179.185 146.755 179.312C146.75 179.429 146.761 179.546 146.788 179.66C147.164 180.464 147.593 181.243 148.071 181.991C148.25 182.24 148.472 182.454 148.728 182.624C148.804 182.783 148.938 182.907 149.104 182.969C149.269 183.031 149.452 183.027 149.614 182.957C149.694 182.922 149.766 182.872 149.826 182.809C149.886 182.746 149.932 182.672 149.963 182.591C149.994 182.509 150.008 182.423 150.004 182.336C150.001 182.249 149.98 182.164 149.943 182.085C149.943 181.088 150.084 181.448 149.253 179.945C148.461 178.509 148.282 178.559 147.774 178.302C147.375 177.609 146.299 178.271 146.755 178.931Z" fill="#191919"/>
<path d="M170.053 78.1891C170.307 78.5798 170.689 78.8697 171.134 79.0091C171.579 79.1485 172.058 79.1286 172.49 78.9529C172.922 78.7772 173.279 78.4565 173.5 78.0461C173.721 77.6358 173.792 77.1612 173.701 76.7041C173.609 75.8461 172.762 75.6331 172.385 76.5196C172.273 76.8114 172.056 77.0513 171.777 77.1931C171.498 77.3349 171.177 77.3685 170.875 77.2876C170.051 76.9381 169.667 77.4646 170.053 78.1891Z" fill="#191919"/>
<path d="M27.0497 126.337C26.1182 125.366 25.4282 124.936 24.2897 123.799C23.7032 123.253 24.2117 122.765 23.7962 120.431C23.5607 119.662 24.7877 119.338 24.9467 120.11C25.2723 120.926 25.5233 121.77 25.6967 122.632C27.0008 123.521 28.1828 124.578 29.2127 125.774C29.3551 125.962 29.4267 126.195 29.4149 126.43C29.4031 126.666 29.3087 126.89 29.1482 127.063L27.8327 128.455C28.1734 129.943 28.0436 131.5 27.461 132.912C26.8785 134.323 25.872 135.518 24.5807 136.333L25.5002 140.99C25.5307 141.072 25.5437 141.16 25.5384 141.247C25.5331 141.335 25.5095 141.42 25.4693 141.498C25.429 141.575 25.3729 141.644 25.3046 141.698C25.2363 141.753 25.1573 141.793 25.0727 141.815C24.9062 141.866 24.7264 141.849 24.5727 141.767C24.4189 141.686 24.3037 141.547 24.2522 141.38C23.4395 139.673 22.8555 137.866 22.5152 136.006C22.4741 135.802 22.4998 135.591 22.5884 135.404C22.6771 135.216 22.8239 135.062 23.0072 134.965C25.6097 133.532 26.3252 131.291 25.7342 128.332C25.5962 127.639 26.1872 127.231 27.0497 126.337Z" fill="#191919"/>
<path d="M17.099 133.77C16.5004 133.839 15.894 133.779 15.3206 133.594C14.7472 133.409 14.2201 133.103 13.7748 132.697C13.3296 132.291 12.9764 131.794 12.7392 131.241C12.5019 130.687 12.3861 130.088 12.3995 129.486C12.4821 128.568 12.8401 127.696 13.4265 126.985C14.0129 126.273 14.8004 125.755 15.686 125.499C16.886 125.103 17.0735 123.041 16.607 121.844C16.379 121.257 15.446 120.39 15.3575 119.4C15.2285 117.957 16.5395 117.009 18.02 116.898C20.153 116.729 22.493 118.157 25.445 116.837C26.2314 116.482 26.9067 115.92 27.3986 115.211C27.8905 114.502 28.1807 113.673 28.238 112.812C28.3153 112.424 28.2925 112.022 28.172 111.645C27.9035 110.778 29.618 109.98 29.618 112.868C29.6402 114.034 29.3389 115.185 28.7474 116.191C28.156 117.197 27.2974 118.02 26.267 118.568C23.183 120.135 19.9475 118.934 18.512 118.904C18.197 118.904 17.3945 118.982 17.3945 119.204C17.3945 119.478 18.287 120.516 18.512 121.11C19.3835 123.407 18.746 126.642 16.31 127.433C15.8119 127.552 15.362 127.82 15.0205 128.202C14.679 128.583 14.4622 129.06 14.399 129.569C14.4 129.926 14.487 130.278 14.6527 130.595C14.8184 130.912 15.0579 131.185 15.351 131.39C15.6441 131.595 15.9823 131.726 16.3369 131.773C16.6915 131.82 17.0521 131.781 17.3885 131.66C17.5202 131.606 17.6618 131.581 17.804 131.586C17.9461 131.591 18.0856 131.626 18.2131 131.689C18.3407 131.752 18.4535 131.841 18.544 131.951C18.6346 132.061 18.7008 132.188 18.7385 132.326L21.3995 142.076C21.4464 142.242 21.4283 142.42 21.3489 142.573C21.2695 142.727 21.1348 142.844 20.972 142.902C20.8895 142.929 20.8024 142.939 20.7159 142.932C20.6295 142.924 20.5454 142.9 20.4687 142.859C20.392 142.818 20.3242 142.763 20.2695 142.695C20.2147 142.628 20.1741 142.55 20.15 142.467C19.1285 139.652 17.903 136.856 17.099 133.77Z" fill="#191919"/>
<path d="M17.453 115.391C18.875 114.473 22.6385 114.431 24.551 113.646C26.9405 112.664 28.8485 110.622 28.1645 108.12C28.1563 108.034 28.131 107.951 28.0901 107.875C28.0492 107.798 27.9936 107.731 27.9264 107.677C27.8593 107.622 27.7819 107.582 27.6989 107.557C27.6159 107.533 27.5289 107.526 27.443 107.535C27.2687 107.556 27.1093 107.643 26.9987 107.78C26.888 107.916 26.8348 108.09 26.8505 108.264C26.8185 108.74 26.66 109.198 26.3915 109.592C25.8095 110.599 24.8896 111.367 23.795 111.759C21.368 112.734 18.515 111.947 16.631 114.509C16.5705 114.562 16.5215 114.626 16.4869 114.698C16.4524 114.771 16.433 114.849 16.4301 114.93C16.4271 115.01 16.4406 115.09 16.4698 115.164C16.4989 115.239 16.5431 115.307 16.5995 115.364C16.6535 115.422 16.7185 115.469 16.7908 115.502C16.8631 115.535 16.9412 115.553 17.0206 115.556C17.1 115.558 17.1791 115.545 17.2533 115.517C17.3276 115.488 17.3954 115.446 17.453 115.391Z" fill="#191919"/>
<path d="M9.56704 118.18C9.30129 117.735 9.1318 117.24 9.06953 116.725C9.00727 116.211 9.0536 115.689 9.20554 115.194C9.54714 114.215 10.0805 113.314 10.7743 112.544C11.4681 111.773 12.3086 111.149 13.2465 110.707C15.8115 109.366 20.1195 108.531 21.8235 106.336C21.9841 106.169 22.1056 105.969 22.1793 105.75C22.2529 105.53 22.2769 105.297 22.2495 105.067C22.211 104.9 22.239 104.724 22.3276 104.576C22.4162 104.429 22.5585 104.321 22.7245 104.277C22.8906 104.232 23.0676 104.254 23.2182 104.337C23.3687 104.42 23.4813 104.558 23.532 104.722C23.6431 105.146 23.6593 105.589 23.5798 106.02C23.5002 106.451 23.3266 106.859 23.0715 107.215C21.0825 110.308 16.4715 111.253 14.199 112.473C12.387 113.445 10.3485 115.465 11.373 117.229C11.48 117.42 11.6008 117.603 11.7345 117.777C11.8795 117.997 11.9363 118.263 11.8938 118.523C11.8513 118.784 11.7125 119.018 11.505 119.181C9.69154 120.558 9.24154 123.811 9.66454 126.033C10.4156 129.083 12.0099 131.86 14.265 134.047C15.4808 135.402 16.7992 136.66 18.2085 137.812C18.338 137.908 18.4241 138.051 18.4479 138.211C18.4717 138.37 18.4312 138.532 18.3353 138.662C18.2394 138.791 18.096 138.878 17.9367 138.901C17.7773 138.925 17.615 138.885 17.4855 138.789C15.931 137.791 14.4588 136.671 13.083 135.439C6.48004 129.346 6.28354 121.807 9.56704 118.18Z" fill="#191919"/>
<path d="M22.9726 129.79C23.4661 129.061 24.3631 129.442 24.1561 130.329C23.3851 133.629 19.3396 132.879 19.9831 129.678C19.996 129.52 20.0612 129.372 20.1684 129.257C20.2755 129.141 20.4184 129.065 20.5741 129.04C20.9026 129.021 21.0676 129.301 21.1981 129.609C21.6196 130.6 22.0876 131.095 22.9726 129.79Z" fill="#191919"/>
<path d="M63.9511 169.673C60.0074 167.999 56.1763 166.072 52.4821 163.903C48.9316 161.839 44.3251 160.636 42.0991 157.064C40.5511 154.582 40.6861 151.019 39.2071 148.289C32.6296 136.151 16.7356 140.197 12.6571 150.961C10.8016 155.854 11.2396 160.522 11.5066 165.353C12.2419 176.522 15.1669 187.437 20.1151 197.477C20.2211 197.687 20.3981 197.853 20.6147 197.945C20.8313 198.038 21.0735 198.05 21.2986 197.981C31.4881 194.804 41.9986 190.123 50.9986 187.49C51.1246 187.449 51.2357 187.372 51.3177 187.268C51.3997 187.163 51.4489 187.037 51.4591 186.905C51.4921 186.631 50.5066 186.638 51.4261 186.772C53.5761 187.059 55.7562 187.037 57.9001 186.707C58.0228 186.684 58.138 186.63 58.2353 186.552C58.3326 186.473 58.4091 186.372 58.4581 186.257C60.9451 180.476 62.1091 176.486 64.4716 170.9C64.5186 170.785 64.5425 170.663 64.5418 170.539C64.541 170.415 64.5157 170.292 64.4673 170.178C64.4189 170.064 64.3484 169.96 64.2598 169.874C64.1711 169.787 64.0662 169.719 63.9511 169.673ZM29.1976 147.374C29.6056 147.038 29.8771 147.224 31.9441 149.024C32.8546 149.816 33.6976 150.674 34.6306 151.46C36.2806 152.848 38.0656 154.091 39.7486 155.408C40.8211 156.248 41.1241 156.697 41.8411 157.268C41.9123 157.318 41.973 157.381 42.0197 157.455C42.0664 157.528 42.0982 157.61 42.1133 157.695C42.1284 157.781 42.1266 157.869 42.1078 157.953C42.089 158.038 42.0536 158.119 42.0038 158.19C41.954 158.261 41.8906 158.322 41.8173 158.368C41.744 158.415 41.6622 158.447 41.5766 158.462C41.491 158.477 41.4033 158.475 41.3185 158.457C41.2336 158.438 41.1533 158.402 41.0821 158.353C40.3321 157.895 39.6601 157.693 38.5966 157.003C36.1456 155.41 31.4071 151.795 29.7886 149.333C29.2066 148.447 28.7191 147.769 29.1976 147.374ZM50.6101 186.553C48.9736 186.215 47.2561 185.932 45.5821 185.485C39.2148 183.709 33.2471 180.729 28.0021 176.707C24.3421 174.326 19.5796 169.336 18.5056 165.275C18.4578 165.123 18.4726 164.957 18.5468 164.816C18.6209 164.674 18.7482 164.568 18.9008 164.52C19.0534 164.472 19.2186 164.487 19.3603 164.561C19.5019 164.635 19.6083 164.763 19.6561 164.915C20.3693 166.428 21.3489 167.799 22.5481 168.965C24.4375 171.282 26.6507 173.315 29.1196 175.001C30.9616 176.191 33.3526 177.968 35.4286 179.168C40.3859 181.678 45.5675 183.718 50.9056 185.261C51.0768 185.3 51.2255 185.406 51.3189 185.555C51.4123 185.704 51.4427 185.883 51.4036 186.055C51.3644 186.226 51.2588 186.375 51.11 186.468C50.9611 186.561 50.7813 186.592 50.6101 186.553Z" fill="#38A1FF"/>
<path d="M64.1487 176.057C64.6392 176.447 64.9152 176.767 65.7582 177.367C67.5912 178.693 69.7077 180.136 70.5237 182.287C70.6395 182.557 70.7397 182.833 70.8237 183.115C70.8237 183.316 70.8897 183.505 70.8897 183.715C70.8585 183.881 70.8928 184.054 70.9854 184.196C71.078 184.337 71.2217 184.438 71.3868 184.477C71.5518 184.516 71.7254 184.489 71.8714 184.403C72.0174 184.317 72.1246 184.178 72.1707 184.015C73.5792 180.856 69.7017 177.31 66.7812 175.699C66.1274 175.362 65.431 175.116 64.7112 174.967C64.5666 174.892 64.3982 174.878 64.2432 174.928C64.0882 174.977 63.9593 175.086 63.8847 175.231C63.8101 175.375 63.796 175.544 63.8455 175.699C63.895 175.854 64.0041 175.983 64.1487 176.057Z" fill="#191919"/>
<path d="M65.3606 182.3C65.8286 182.674 66.2135 183.141 66.4909 183.672C66.7683 184.203 66.932 184.786 66.9716 185.384C66.9781 185.556 67.0437 185.72 67.1573 185.85C67.271 185.979 67.4257 186.066 67.5956 186.095C68.8901 186.197 68.6861 182.372 66.1166 181.347C65.0981 180.941 64.9076 182.039 65.3606 182.3Z" fill="#191919"/>
<path d="M62.3069 184.41C62.6084 185.13 62.9946 185.812 63.4574 186.441C63.6674 186.733 63.9194 186.984 64.2794 186.867C65.0054 186.631 64.8899 184.545 63.2609 183.646C62.9609 183.48 62.6684 183.346 62.4059 183.559C62.1434 183.772 62.2034 184.102 62.3069 184.41Z" fill="#191919"/>
<path d="M58.2324 185.103C58.8099 185.958 60.7209 187.895 61.4199 187.137C62.2569 186.237 58.8864 183.327 58.1334 184.254C57.9129 184.524 58.0494 184.826 58.2324 185.103Z" fill="#191919"/>
<path d="M242.738 126.241C242.775 126.451 242.853 126.652 242.967 126.832C243.004 126.917 243.061 126.992 243.132 127.051C244.235 128.08 246.965 127.015 246.746 125.401C247.196 124.651 245.996 123.997 245.595 124.78C245.364 124.93 245.31 124.78 244.907 125.132C244.734 125.282 244.43 125.488 244.215 125.422C244.184 125.413 244.151 125.422 244.118 125.422C243.953 125.386 243.854 125.518 243.657 125.458C243.554 125.336 243.406 125.26 243.246 125.248C243.086 125.235 242.928 125.286 242.806 125.39C242.684 125.494 242.608 125.642 242.596 125.801C242.583 125.961 242.634 126.119 242.738 126.241Z" fill="#191919"/>
<path d="M201.073 189.118C201.323 189.839 202.228 192.911 203.341 192.47C204.422 192.082 203.227 189.088 202.618 187.253C202.378 186.691 201.674 184.868 200.81 185.165C199.877 185.522 200.762 188.218 201.073 189.118Z" fill="#191919"/>
<path d="M205.606 187.475C205.882 188.439 206.556 191.09 207.645 190.775C208.792 190.436 207.663 187.082 207.25 185.756C206.976 184.935 206.314 183.48 205.6 183.678C204.6 183.956 205.332 186.468 205.606 187.475Z" fill="#191919"/>
<path d="M209.715 186.216C209.865 186.765 210.483 190.017 211.62 189.735C212.789 189.445 211.763 185.685 211.424 184.512C211.239 183.873 210.674 182.089 209.846 182.284C208.862 182.517 209.46 185.233 209.715 186.216Z" fill="#191919"/>
<path d="M205.707 165.484C205.099 166.227 204.571 167.031 204.13 167.884C203.182 169.901 202.392 171.988 201.765 174.127C200.795 177.136 200.252 180.267 200.154 183.427C200.132 183.599 200.179 183.772 200.284 183.911C200.388 184.049 200.543 184.141 200.715 184.166C200.886 184.192 201.061 184.149 201.202 184.048C201.342 183.947 201.438 183.794 201.468 183.623C201.699 182.737 201.997 181.862 202.218 180.938C202.719 178.898 203.127 176.764 203.73 174.691C204.327 172.648 205.028 170.637 205.83 168.665C206.866 165.754 206.596 166.474 206.749 166.07C206.812 165.933 206.822 165.778 206.775 165.634C206.729 165.491 206.63 165.37 206.498 165.296C206.367 165.222 206.213 165.2 206.066 165.235C205.919 165.27 205.791 165.359 205.707 165.484Z" fill="#191919"/>
<path d="M214.083 171.637C213.74 171.995 213.432 172.385 213.163 172.801C212.306 174.579 211.57 176.412 210.961 178.288C210.838 178.818 210.761 179.358 210.732 179.901C210.702 179.981 210.689 180.066 210.692 180.151C210.695 180.236 210.715 180.32 210.751 180.397C210.786 180.474 210.837 180.544 210.899 180.602C210.962 180.66 211.035 180.705 211.115 180.734C211.195 180.764 211.28 180.777 211.365 180.774C211.45 180.771 211.534 180.751 211.611 180.715C211.688 180.68 211.758 180.629 211.816 180.567C211.874 180.504 211.919 180.431 211.948 180.351C212.211 179.931 212.506 179.563 212.736 179.124C213.163 178.282 213.439 177.385 213.786 176.506C215.377 172.491 214.924 173.526 215.166 172.156C215.229 172.01 215.233 171.844 215.177 171.694C215.121 171.545 215.01 171.422 214.866 171.352C214.796 171.32 214.72 171.301 214.642 171.297C214.565 171.294 214.488 171.306 214.415 171.332C214.342 171.359 214.275 171.399 214.218 171.452C214.161 171.504 214.115 171.567 214.083 171.637Z" fill="#191919"/>
<path d="M246.025 182.746C246.003 184.042 246.28 185.326 246.836 186.497C247.391 187.668 248.21 188.695 249.228 189.498C250.245 190.301 251.435 190.858 252.703 191.125C253.971 191.393 255.284 191.364 256.54 191.041C258.634 190.401 260.51 189.191 261.955 187.545C263.4 185.899 264.358 183.883 264.722 181.723C264.769 181.558 264.748 181.38 264.664 181.23C264.58 181.08 264.44 180.97 264.274 180.923C264.109 180.876 263.932 180.897 263.782 180.981C263.631 181.065 263.521 181.205 263.474 181.371C262.757 183.119 261.757 184.737 260.516 186.162C259.267 187.528 257.68 188.542 255.916 189.102C254.963 189.358 253.963 189.377 253.001 189.159C252.039 188.941 251.145 188.492 250.396 187.851C248.758 186.584 247.638 184.764 247.246 182.731C247.245 182.651 247.228 182.572 247.196 182.498C247.165 182.424 247.119 182.358 247.062 182.302C247.004 182.246 246.936 182.201 246.862 182.172C246.787 182.142 246.708 182.127 246.628 182.128C246.547 182.129 246.468 182.146 246.395 182.177C246.321 182.209 246.254 182.255 246.198 182.312C246.142 182.37 246.098 182.437 246.068 182.512C246.038 182.586 246.024 182.666 246.025 182.746Z" fill="#191919"/>
<path d="M250.362 183.655C251.697 185.67 252.99 185.676 253.319 185.265C253.737 184.741 252.042 182.476 252.137 182.631C251.859 182.181 250.913 180.132 250.067 180.394C249.173 180.672 249.66 182.595 250.362 183.655Z" fill="#191919"/>
<path d="M256.539 183.261C256.951 182.886 256.702 182.401 256.375 181.552C255.882 180.838 254.499 178.822 253.648 179.293C252.316 180.121 255.4 184.3 256.539 183.261Z" fill="#191919"/>
<path d="M257.722 181.307C258.035 181.607 259.792 183.721 260.614 182.957C261.436 182.194 259.45 180.124 258.839 179.534C258.05 178.741 256.708 177.823 256.21 178.459C255.599 179.128 257.158 180.695 257.722 181.307Z" fill="#191919"/>
<path d="M223.351 163.44C222.064 164.79 219.751 167.687 218.851 168.773C218.703 168.951 218.495 169.071 218.265 169.109C218.036 169.147 217.8 169.101 217.602 168.98C214.06 166.88 208.887 163.683 205.378 161.819C205.16 161.706 204.99 161.518 204.9 161.29C204.809 161.062 204.804 160.808 204.886 160.577C209.748 147.117 224.158 135.377 238.96 134.432C239.207 134.417 239.45 134.489 239.649 134.636C239.847 134.782 239.987 134.994 240.045 135.234C241.204 140.942 247.614 141.318 249.673 136.434C249.726 136.31 249.803 136.198 249.901 136.105C249.999 136.012 250.115 135.941 250.242 135.896C250.37 135.851 250.505 135.833 250.639 135.843C250.774 135.853 250.905 135.891 251.023 135.954C253.651 137.308 256.075 139.024 258.223 141.054C263.104 145.95 266.115 152.4 266.733 159.285C266.748 159.362 266.747 159.442 266.731 159.519C266.714 159.596 266.681 159.669 266.635 159.733C266.589 159.796 266.53 159.85 266.462 159.89C266.394 159.93 266.319 159.956 266.241 159.966C266.162 159.978 266.081 159.974 266.003 159.954C265.925 159.934 265.852 159.899 265.788 159.851C265.724 159.803 265.67 159.743 265.629 159.674C265.589 159.604 265.562 159.528 265.551 159.449C264.995 155 263.385 150.749 260.854 147.049C258.323 143.348 254.945 140.306 251.001 138.176C250.35 139.411 249.336 140.418 248.095 141.06C246.855 141.703 245.448 141.95 244.063 141.768C242.678 141.587 241.381 140.985 240.348 140.045C239.315 139.105 238.595 137.871 238.284 136.509C224.977 137.759 212.142 148.059 207.133 160.46C210.475 162.296 215.406 165.323 217.912 166.835C219.816 164.396 221.879 162.087 224.089 159.923C224.23 159.786 224.41 159.698 224.604 159.669C224.798 159.64 224.996 159.673 225.17 159.763C225.344 159.853 225.485 159.995 225.574 160.17C225.663 160.344 225.695 160.542 225.666 160.736C224.664 167.619 222.835 172.971 221.691 179.766C221.663 179.938 221.569 180.092 221.429 180.196C221.289 180.299 221.114 180.343 220.941 180.319C220.769 180.294 220.613 180.203 220.507 180.064C220.401 179.926 220.354 179.751 220.375 179.579C221.034 174.437 222.315 169.379 223.201 164.279C223.254 164.01 223.287 163.728 223.351 163.44Z" fill="#191919"/>
<path d="M251.843 170.816C251.821 170.977 251.735 171.123 251.606 171.221C251.476 171.32 251.313 171.363 251.151 171.341C250.99 171.319 250.844 171.233 250.745 171.104C250.647 170.974 250.604 170.811 250.626 170.649C250.626 169.464 250.194 169.181 251.514 163.599C251.562 163.385 251.678 163.192 251.845 163.05C252.012 162.907 252.221 162.823 252.44 162.81C252.659 162.797 252.876 162.856 253.059 162.977C253.241 163.099 253.38 163.277 253.452 163.484C254.259 165.256 254.685 167.178 254.702 169.125C254.722 169.211 254.726 169.3 254.711 169.387C254.696 169.474 254.664 169.558 254.616 169.632C254.569 169.706 254.506 169.77 254.433 169.82C254.36 169.869 254.278 169.904 254.191 169.921C254.105 169.937 254.015 169.937 253.929 169.918C253.843 169.9 253.761 169.864 253.689 169.813C253.617 169.762 253.556 169.697 253.509 169.622C253.463 169.547 253.432 169.463 253.419 169.376C253.223 168.885 252.992 168.426 252.828 167.934C252.569 167.363 253.001 167.793 251.843 170.816Z" fill="#191919"/>
<path d="M264.394 168.342C265.744 163.29 267.884 158.662 272.344 155.986C274.182 154.896 276.228 154.202 278.35 153.948C280.472 153.695 282.623 153.887 284.666 154.513C286.094 154.991 287.367 155.844 288.35 156.985C289.333 158.125 289.99 159.509 290.252 160.992C290.3 161.226 290.264 161.47 290.15 161.68C290.035 161.89 289.851 162.053 289.628 162.141C283.595 164.553 275.591 165.483 274.25 168.123C274.169 168.242 274.115 168.377 274.092 168.519C274.07 168.661 274.079 168.806 274.118 168.945C274.397 169.759 276.503 170.202 277.634 170.124C282.284 169.795 286.907 167.712 291.041 166.156C291.182 166.098 291.335 166.074 291.486 166.085C291.638 166.096 291.785 166.142 291.916 166.22C292.047 166.298 292.158 166.405 292.241 166.533C292.323 166.661 292.375 166.806 292.391 166.957C293.792 178.62 279.65 186.772 268.991 177.849C266.648 178.941 264.514 179.611 261.761 180.61C261.679 180.645 261.591 180.663 261.502 180.663C261.412 180.663 261.324 180.645 261.242 180.61C261.16 180.574 261.086 180.523 261.024 180.458C260.962 180.393 260.915 180.317 260.884 180.233C260.852 180.149 260.839 180.06 260.843 179.971C260.847 179.882 260.87 179.794 260.909 179.714C260.948 179.634 261.003 179.562 261.071 179.504C261.139 179.445 261.217 179.401 261.302 179.374C263.855 178.468 266.355 177.423 268.793 176.244C268.931 176.175 269.086 176.15 269.238 176.17C269.391 176.19 269.534 176.256 269.648 176.358C271.109 177.614 272.808 178.562 274.643 179.146C283.009 181.942 290.602 175.677 290.513 168.496C285.82 170.326 277.067 174.012 273.164 170.904C272.606 170.486 272.222 169.875 272.089 169.19C271.955 168.505 272.081 167.795 272.441 167.197C274.219 163.656 281.995 162.813 288.049 160.566C286.249 154.969 278.333 154.75 273.394 157.723C269.216 160.237 267.451 164.709 266.194 169.374C266.157 169.534 266.081 169.683 265.971 169.806C265.862 169.929 265.723 170.022 265.568 170.077C257.144 173.077 214.939 185.227 213.782 185.554C213.706 185.576 213.627 185.582 213.548 185.573C213.469 185.564 213.393 185.539 213.324 185.501C213.255 185.462 213.195 185.41 213.145 185.348C213.096 185.286 213.06 185.215 213.038 185.139C213.017 185.063 213.011 184.983 213.02 184.904C213.029 184.826 213.054 184.75 213.092 184.681C213.131 184.612 213.183 184.551 213.245 184.502C213.307 184.453 213.378 184.416 213.454 184.395C218.803 182.8 261.634 169.287 264.394 168.342Z" fill="#191919"/>
<path d="M244.214 184.836C244.173 184.684 244.076 184.553 243.942 184.47C243.808 184.386 243.648 184.356 243.493 184.386C217.058 190.878 210.179 194.606 191.804 199.47C191.654 199.509 191.514 199.581 191.394 199.681C191.275 199.781 191.179 199.906 191.114 200.048C190.341 202.016 189.439 203.931 188.414 205.781C184.129 212.729 174.655 214.481 169.256 208.763C172.786 207.911 176.767 207.437 180.002 205.748C185.102 203.106 184.114 196.739 178.523 195.864C174.304 195.21 170.038 197.111 166.036 198.588C166.493 197.53 167.031 196.508 167.647 195.533C173.056 187.059 183.47 187.311 188.677 193.337C188.784 193.459 188.928 193.546 189.086 193.584C189.245 193.622 189.412 193.61 189.563 193.55C191.927 192.549 193.859 191.999 197.539 190.796C197.854 191.684 198.611 193.847 199.52 193.595C200.798 193.206 199.234 189.297 198.731 188.045C198.506 187.322 197.681 186.036 197.089 186.215C196.339 186.461 196.691 188.228 196.924 188.972L197.107 189.531C194.396 190.344 191.233 191.27 189.497 191.924C187.082 189.268 183.772 187.597 180.2 187.233C176.629 186.868 173.049 187.835 170.147 189.948C166.961 192.532 164.607 195.997 163.378 199.911C163.318 200.087 163.308 200.275 163.349 200.456C163.39 200.637 163.479 200.803 163.609 200.935C163.738 201.068 163.901 201.163 164.081 201.209C164.26 201.255 164.449 201.25 164.626 201.195C169.045 199.805 173.836 197.18 178.231 197.864C181.861 198.44 182.431 202.193 179.084 203.951C175.579 205.751 170.959 206.087 167.156 207.218C167.003 207.269 166.864 207.355 166.75 207.469C166.636 207.583 166.55 207.722 166.499 207.875C166.448 208.028 166.434 208.19 166.457 208.35C166.48 208.51 166.539 208.662 166.631 208.794C171.589 215.592 180.899 215.874 187.201 210.396C190.118 207.846 191.285 204.806 192.787 201.302C210.983 196.389 227.419 189.84 243.752 185.567C243.909 185.529 244.045 185.432 244.132 185.295C244.218 185.159 244.248 184.994 244.214 184.836Z" fill="#191919"/>
<path d="M227.195 142.771C226.919 143.705 225.064 152.288 224.764 154.771C224.471 157.187 224.464 158.057 225.125 158.171C226.133 158.344 226.411 156.698 228.904 144.029C229.067 143.198 229.637 139.994 228.805 139.82C228.236 139.696 227.98 140.108 227.195 142.771Z" fill="#191919"/>
<path d="M255.552 143.299C254.444 146.19 254.522 146.398 252.66 157.053C252.439 158.281 252.307 159.523 252.266 160.77C252.239 160.941 252.28 161.116 252.38 161.258C252.48 161.399 252.631 161.497 252.801 161.53C252.971 161.563 253.147 161.529 253.293 161.435C253.438 161.34 253.542 161.194 253.581 161.025C253.814 160.212 254.171 159.313 254.402 158.28C254.862 156.226 256.122 149.28 256.502 146.739C256.673 145.609 256.721 143.766 256.733 143.538C256.764 143.381 256.732 143.219 256.644 143.086C256.556 142.952 256.418 142.86 256.262 142.828C256.105 142.797 255.942 142.829 255.809 142.917C255.676 143.005 255.584 143.143 255.552 143.299Z" fill="#191919"/>
<path d="M247.896 192.402C247.65 191.74 247.463 191.057 247.337 190.362C247.313 190.197 247.23 190.046 247.104 189.937C246.977 189.828 246.815 189.769 246.648 189.771C245.714 189.775 244.781 189.714 243.855 189.588C238.833 188.934 239.214 187.765 238.038 188.181C235.488 189.081 233.076 190.263 230.514 191.152C226.701 192.502 222.792 193.672 218.948 194.971C218.834 195.016 218.732 195.084 218.647 195.171C218.561 195.258 218.496 195.363 218.454 195.477C216.054 203.236 215.189 211.54 213.525 219.265C212.013 226.426 206.066 255.115 204.686 262.306C204.639 262.525 204.669 262.754 204.771 262.953C204.873 263.152 205.04 263.31 205.245 263.4C207.1 264.382 208.86 265.533 210.503 266.838C210.635 266.933 210.788 266.995 210.949 267.019C211.11 267.043 211.274 267.029 211.428 266.976C211.582 266.924 211.722 266.836 211.835 266.719C211.948 266.602 212.032 266.46 212.079 266.304C218.432 244.404 225.506 210.937 229.1 200.391C231.897 200.796 234.718 201.012 237.545 201.037C239.706 207.76 249.144 250.165 250.595 262.014C250.617 262.175 250.679 262.328 250.774 262.46C250.869 262.592 250.995 262.699 251.14 262.772C251.286 262.844 251.447 262.88 251.61 262.876C251.772 262.873 251.931 262.829 252.074 262.75C253.679 261.862 255.638 260.769 257.265 259.975C257.439 259.897 257.587 259.771 257.692 259.612C257.797 259.452 257.854 259.266 257.856 259.075C257.636 247.153 252.113 203.844 247.896 192.402Z" fill="#191919"/>
<path d="M193.449 268.121C193.722 268.175 193.543 268.595 197.721 268.766C197.89 268.766 203.916 268.935 206.232 268.793C207.582 268.709 208.732 268.712 209.452 267.383C209.485 267.303 209.533 267.231 209.593 267.17C209.654 267.11 209.726 267.062 209.806 267.03C209.885 266.997 209.971 266.981 210.056 266.982C210.142 266.983 210.227 267.002 210.306 267.036C211.297 267.47 210.22 269.046 209.353 269.693C207.775 270.517 206.007 270.911 204.228 270.834C200.795 270.948 197.358 270.823 193.942 270.461C190.705 269.729 190.515 267.201 192.957 266.094C195.057 265.14 200.268 265.472 204.195 263.474C204.262 263.427 204.339 263.395 204.419 263.379C204.5 263.363 204.582 263.363 204.663 263.38C204.743 263.396 204.819 263.429 204.887 263.475C204.954 263.522 205.012 263.581 205.056 263.651C205.1 263.72 205.129 263.797 205.143 263.878C205.157 263.959 205.154 264.042 205.135 264.121C205.116 264.201 205.081 264.276 205.032 264.342C204.984 264.408 204.922 264.464 204.852 264.506C202.377 266.201 199.493 267.2 196.5 267.398C195.445 267.439 194.409 267.685 193.449 268.121Z" fill="#191919"/>
<path d="M268.138 266.852C266.338 264.826 259.246 265.331 256.927 261.029C256.88 260.957 256.848 260.876 256.832 260.792C256.816 260.707 256.817 260.62 256.835 260.536C256.871 260.366 256.973 260.217 257.119 260.122C257.265 260.027 257.442 259.994 257.612 260.03C257.783 260.066 257.932 260.168 258.026 260.314C260.576 263.875 269.687 262.544 270.398 267.064C270.425 267.4 270.339 267.735 270.154 268.017C269.969 268.299 269.696 268.511 269.377 268.621C268.269 268.96 267.134 269.206 265.984 269.354C265.174 269.455 264.334 269.504 263.537 269.522C261 269.75 258.445 269.724 255.913 269.443C252.226 268.76 251.336 266.98 250.487 263.779C250.461 263.704 250.45 263.624 250.454 263.544C250.459 263.465 250.479 263.387 250.514 263.315C250.549 263.243 250.598 263.179 250.658 263.127C250.718 263.074 250.788 263.034 250.864 263.009C250.937 262.982 251.016 262.97 251.094 262.974C251.173 262.978 251.249 262.998 251.32 263.033C251.39 263.067 251.452 263.116 251.503 263.176C251.554 263.236 251.591 263.306 251.614 263.381C252.487 265.402 253.166 266.612 254.981 267.193C257.485 268.001 261.025 267.56 263.504 267.493C265.07 267.476 266.627 267.261 268.138 266.852Z" fill="#191919"/>
<path d="M20.4356 123.472C20.4741 123.666 20.5383 123.854 20.6244 124.024C20.7105 124.194 20.8168 124.343 20.9369 124.462C21.0571 124.581 21.1886 124.668 21.3238 124.717C21.459 124.766 21.595 124.777 21.7238 124.749C21.8527 124.721 21.9717 124.654 22.0739 124.553C22.176 124.451 22.2593 124.318 22.3186 124.159C22.3779 124.001 22.4122 123.821 22.4193 123.631C22.4264 123.44 22.4063 123.243 22.3601 123.05C22.3216 122.856 22.2574 122.669 22.1713 122.499C22.0852 122.328 21.9789 122.179 21.8588 122.06C21.7386 121.941 21.6071 121.854 21.4719 121.805C21.3367 121.756 21.2007 121.745 21.0719 121.773C20.943 121.801 20.824 121.868 20.7218 121.969C20.6197 122.071 20.5364 122.205 20.4771 122.363C20.4178 122.521 20.3835 122.701 20.3764 122.892C20.3693 123.082 20.3894 123.279 20.4356 123.472Z" fill="#191919"/>
<path d="M168.605 73.3097C168.605 73.5711 168.675 73.8218 168.798 74.0066C168.921 74.1914 169.088 74.2952 169.262 74.2952C169.437 74.2952 169.604 74.1914 169.727 74.0066C169.85 73.8218 169.919 73.5711 169.919 73.3097C169.919 73.0484 169.85 72.7977 169.727 72.6129C169.604 72.4281 169.437 72.3242 169.262 72.3242C169.088 72.3242 168.921 72.4281 168.798 72.6129C168.675 72.7977 168.605 73.0484 168.605 73.3097Z" fill="#191919"/>
<path d="M244.959 120.619C245.217 120.661 245.487 120.565 245.709 120.352C245.932 120.139 246.088 119.826 246.144 119.482C246.201 119.138 246.152 118.791 246.01 118.518C245.867 118.245 245.642 118.068 245.384 118.025C245.256 118.004 245.124 118.017 244.995 118.063C244.867 118.109 244.744 118.187 244.634 118.293C244.524 118.398 244.429 118.53 244.354 118.679C244.279 118.828 244.227 118.993 244.199 119.163C244.171 119.334 244.168 119.507 244.192 119.672C244.215 119.838 244.263 119.992 244.334 120.128C244.404 120.263 244.496 120.376 244.603 120.461C244.711 120.545 244.832 120.599 244.959 120.62V120.619Z" fill="#191919"/>
<path d="M65.8095 152.489C65.8095 152.45 65.778 152.411 65.778 152.369C65.7636 152.283 65.7667 152.195 65.7872 152.11C65.8076 152.025 65.8451 151.945 65.8972 151.875C65.9493 151.805 66.015 151.746 66.0904 151.702C66.1658 151.658 66.2494 151.63 66.336 151.619C67.9248 151.173 69.6255 151.374 71.067 152.177C72.1571 152.882 73.0236 153.884 73.565 155.064C74.1064 156.244 74.3003 157.554 74.124 158.84C74.012 159.804 73.6862 160.731 73.1703 161.553C72.6544 162.374 71.9614 163.071 71.1421 163.59C70.3227 164.11 69.3975 164.44 68.4342 164.557C67.4709 164.674 66.4937 164.574 65.574 164.264C59.619 162.451 60.1395 153.614 65.508 152.495C65.6061 152.466 65.7103 152.464 65.8095 152.489ZM66.237 152.911C66.2626 152.986 66.2727 153.065 66.2666 153.144C66.2605 153.223 66.2384 153.3 66.2017 153.37C66.1649 153.44 66.1142 153.502 66.0527 153.552C65.9912 153.602 65.9202 153.639 65.844 153.661C63.0705 154.699 62.5935 158.834 64.134 160.96C64.6872 161.609 65.4124 162.089 66.2262 162.344C67.04 162.6 67.9094 162.621 68.7345 162.404C74.028 161.114 73.101 152.429 66.5325 152.93C66.4335 152.941 66.3332 152.934 66.237 152.908V152.911Z" fill="#191919"/>
<path d="M60.1037 133.704L60.0722 131.64C60.0695 131.457 60.1169 131.276 60.2094 131.117C60.302 130.959 60.4361 130.828 60.5972 130.74C64.6862 128.586 70.1972 129.281 74.4962 130.982C74.6905 131.057 74.8558 131.192 74.9683 131.367C75.0807 131.542 75.1345 131.749 75.1217 131.957L75.0887 133.232C77.1746 134.184 79.1474 135.366 80.9702 136.757L81.7922 135.831C81.9317 135.682 82.1125 135.579 82.3114 135.534C82.5103 135.488 82.7182 135.504 82.9082 135.578C86.3832 136.951 89.2668 139.499 91.0577 142.778C91.1669 142.968 91.2129 143.188 91.1892 143.407C91.1655 143.625 91.0732 143.83 90.9257 143.993L90.1052 144.824C91.1018 147.043 91.6596 149.434 91.7477 151.865C92.2412 151.923 92.7332 152 93.1937 152.048C93.405 152.071 93.6039 152.158 93.763 152.299C93.9221 152.44 94.0335 152.627 94.0817 152.834C94.9965 157.082 94.7372 161.5 93.3317 165.612C93.2463 165.851 93.0728 166.049 92.8467 166.164C92.6206 166.28 92.359 166.304 92.1152 166.233L90.6692 165.849C90.2495 167.725 89.5518 169.528 88.5992 171.198C89.3792 172.302 89.8172 172.688 89.5847 173.318C88.0104 176.956 85.3017 179.988 81.8627 181.961C81.7689 182.018 81.6641 182.054 81.5551 182.068C81.4462 182.082 81.3356 182.073 81.2304 182.042C81.1252 182.01 81.0278 181.957 80.9445 181.885C80.8611 181.814 80.7938 181.726 80.7467 181.626L80.0567 180.137C78.7387 180.959 77.296 181.563 75.7847 181.923C75.7003 181.947 75.6119 181.954 75.5248 181.943C75.4377 181.932 75.3536 181.904 75.2775 181.861C75.2014 181.817 75.1348 181.758 75.0816 181.689C75.0285 181.619 74.9898 181.539 74.9679 181.454C74.946 181.369 74.9413 181.28 74.9541 181.194C74.9669 181.107 74.9969 181.023 75.0424 180.948C75.0879 180.873 75.148 180.808 75.219 180.757C75.2901 180.705 75.3708 180.668 75.4562 180.648C76.2693 180.417 77.0608 180.116 77.8217 179.748C79.8137 178.781 79.8527 178.115 80.5487 178.262C80.655 178.289 80.7541 178.34 80.8393 178.409C80.9244 178.478 80.9937 178.565 81.0422 178.664L81.7652 180.117C84.318 178.368 86.3415 175.952 87.6152 173.132C87.2605 172.678 86.9315 172.204 86.6297 171.713C86.5406 171.563 86.4935 171.392 86.4935 171.218C86.4935 171.044 86.5406 170.873 86.6297 170.723C87.0986 169.968 87.4944 169.17 87.8117 168.339C89.1272 165.099 88.7432 164.219 89.4887 163.784C89.9732 163.502 90.3227 163.709 91.7552 164.084C92.6915 160.799 92.8603 157.343 92.2487 153.983C90.5072 153.788 90.2987 153.833 90.0137 153.486C89.4257 152.897 90.1217 152.117 89.3237 148.836C88.4597 145.275 87.3737 144.828 88.1402 143.937L88.9292 143.145C87.4578 140.794 85.3347 138.921 82.8182 137.754L81.8327 138.866C81.7443 138.968 81.6359 139.052 81.5142 139.111C81.3924 139.171 81.2599 139.205 81.1246 139.211C80.9893 139.218 80.8541 139.196 80.7272 139.149C80.6004 139.101 80.4845 139.029 80.3867 138.935C78.3246 137.232 76.0351 135.825 73.5842 134.754C73.405 134.663 73.2566 134.521 73.1574 134.346C73.0582 134.171 73.0126 133.971 73.0262 133.77L73.0907 132.621C69.7037 131.406 65.4047 130.836 62.0837 132.261L62.1497 134.315C62.1532 134.519 62.0955 134.72 61.9841 134.892C61.8726 135.063 61.7125 135.198 61.5242 135.278C59.1019 136.091 56.8902 137.432 55.0487 139.203C54.9556 139.314 54.8394 139.402 54.7084 139.462C54.5773 139.522 54.4346 139.553 54.2903 139.552C54.146 139.551 54.0037 139.519 53.8735 139.456C53.7433 139.394 53.6283 139.304 53.5367 139.193L51.9227 137.22C48.976 139.067 46.5086 141.586 44.7227 144.57C45.4594 145.321 46.2387 146.028 47.0567 146.688C47.2095 146.79 47.3159 146.949 47.3527 147.129C47.3895 147.309 47.3538 147.496 47.2532 147.65C46.2736 149.151 45.5413 150.8 45.0842 152.534C45.0465 152.691 44.9479 152.826 44.8104 152.91C44.6728 152.994 44.5075 153.02 44.3507 152.982C44.194 152.945 44.0587 152.846 43.9746 152.708C43.8905 152.571 43.8645 152.406 43.9022 152.249C44.2736 150.581 44.8797 148.975 45.7022 147.477C44.9357 146.906 44.6267 146.577 43.2062 145.341C43.0814 145.23 42.9951 145.082 42.9595 144.918C42.924 144.755 42.941 144.584 43.0082 144.431C44.5907 140.574 48.0917 137.505 51.5582 135.117C51.7617 134.976 52.0117 134.919 52.2564 134.957C52.5011 134.995 52.7217 135.126 52.8722 135.323L54.3512 137.088C56.0745 135.659 58.0169 134.516 60.1037 133.704Z" fill="#191919"/>
<path d="M74.8723 96.214C74.8834 96.0707 74.9405 95.9349 75.0351 95.8267C75.1297 95.7186 75.2568 95.6439 75.3973 95.614C81.8473 93.898 85.0933 103.954 78.4858 106.177C77.4345 106.56 76.2992 106.652 75.2001 106.442C74.1011 106.232 73.0792 105.729 72.2428 104.986C71.6139 104.331 71.1525 103.534 70.898 102.662C70.6434 101.79 70.6031 100.87 70.7806 99.9792C70.9581 99.0886 71.348 98.2541 71.9173 97.5466C72.4866 96.839 73.2183 96.2795 74.0503 95.9155C74.1238 95.8808 74.2035 95.8611 74.2847 95.8574C74.3658 95.8536 74.447 95.866 74.5234 95.8937C74.5998 95.9215 74.6699 95.964 74.7298 96.019C74.7897 96.074 74.8381 96.1402 74.8723 96.214ZM74.9053 96.529C74.9053 97.0885 74.3248 96.8665 73.4593 98.0755C72.8996 98.8907 72.6195 99.8655 72.6608 100.853C72.7022 101.841 73.0629 102.789 73.6888 103.555C74.2559 104.026 74.938 104.339 75.6654 104.46C76.3927 104.582 77.1392 104.508 77.8288 104.246C82.0798 102.808 79.7323 96.427 75.6613 96.9145C75.5103 96.9439 75.3538 96.9219 75.2168 96.852C75.0798 96.7822 74.9701 96.6684 74.9053 96.529Z" fill="#191919"/>
<path d="M73.3172 83.1423C73.2917 83.0328 73.1282 81.8823 73.0862 81.3063C73.0692 81.0982 73.118 80.8899 73.2256 80.711C73.3332 80.532 73.4943 80.3914 73.6862 80.3088C75.4085 79.6405 77.2555 79.3545 79.0993 79.4705C80.9432 79.5865 82.7397 80.1019 84.3647 80.9808C84.527 81.07 84.66 81.2044 84.7475 81.3675C84.8351 81.5307 84.8736 81.7158 84.8582 81.9003C84.7725 82.8644 84.6298 83.8226 84.4307 84.7698C85.8047 85.4163 85.6802 85.3848 86.0087 85.5558C86.1392 85.3743 86.2382 85.1958 86.3702 85.0188C86.8292 84.4023 87.2897 83.8098 87.7502 83.2068C87.8641 83.0528 88.0285 82.9437 88.2147 82.8988C88.401 82.8538 88.5971 82.8758 88.7687 82.9608C91.5822 84.3858 93.8107 86.7474 95.0702 89.6388C95.1312 89.7982 95.1346 89.9738 95.0798 90.1354C95.025 90.297 94.9155 90.4344 94.7702 90.5238C94.0582 91.0532 93.409 91.6622 92.8352 92.3388C93.3227 93.2314 93.593 94.2263 93.6242 95.2428C94.0862 95.1588 94.4327 95.0538 95.2007 94.8528C95.3651 94.8141 95.5378 94.8349 95.6883 94.9115C95.8388 94.9881 95.9573 95.1156 96.0227 95.2713C96.7813 97.0672 97.1722 98.997 97.1722 100.947C97.1722 102.896 96.7813 104.826 96.0227 106.622C95.9385 106.818 95.7844 106.976 95.5903 107.064C95.3962 107.153 95.1761 107.166 94.9727 107.102C94.6934 107.022 94.419 106.925 94.1507 106.814C93.808 107.594 93.4245 108.357 93.0017 109.097L94.6442 110.426C94.818 110.58 94.9303 110.792 94.9606 111.023C94.9909 111.253 94.9372 111.487 94.8092 111.681C93.0067 114.756 90.1257 117.052 86.7257 118.122C86.5257 118.177 86.3137 118.168 86.1193 118.096C85.9248 118.024 85.7577 117.893 85.6412 117.722L85.1147 116.955C84.4199 117.323 83.6941 117.629 82.9457 117.869C83.0077 118.107 83.0849 118.342 83.1767 118.571C83.2204 118.701 83.237 118.839 83.2256 118.976C83.2143 119.113 83.1751 119.246 83.1105 119.367C83.0459 119.489 82.9573 119.595 82.8501 119.681C82.7428 119.767 82.6192 119.83 82.4867 119.867C79.088 121.027 75.4289 121.194 71.9387 120.348C71.7209 120.287 71.5294 120.156 71.3938 119.974C71.2583 119.793 71.1862 119.573 71.1887 119.346L71.2547 118.385C70.442 118.265 69.6397 118.084 68.8547 117.842C68.4917 118.709 68.4797 118.947 68.0327 119.169C67.903 119.226 67.7631 119.255 67.6217 119.255C67.4803 119.255 67.3404 119.226 67.2107 119.169C63.9549 117.722 61.167 115.396 59.1602 112.452C59.0211 112.255 58.9579 112.014 58.9822 111.774C59.0064 111.533 59.1165 111.31 59.2922 111.144C59.7182 110.723 60.1127 110.271 60.5402 109.847C59.7761 108.779 59.1473 107.62 58.6682 106.397L56.7287 106.319C56.4748 106.319 56.2299 106.225 56.0416 106.055C55.8533 105.885 55.7352 105.65 55.7102 105.398C55.4746 102.105 55.7519 98.7946 56.5322 95.5863C56.5961 95.3313 56.7467 95.1065 56.9582 94.9503C57.3572 94.7013 57.5147 94.7508 59.1932 95.1378C59.512 94.3502 59.8968 93.591 60.3437 92.8683C61.9472 90.3033 61.9577 91.1838 61.5587 90.5703C61.2962 90.2268 61.0337 89.8743 60.8087 89.5203C60.6989 89.3697 60.6344 89.1909 60.6228 89.0049C60.6111 88.819 60.6527 88.6335 60.7427 88.4703C62.3582 85.4298 65.7242 84.0423 68.8907 82.9008C69.1124 82.8219 69.3545 82.822 69.5761 82.9009C69.7978 82.9799 69.9854 83.133 70.1072 83.3343L70.6322 84.2718C71.4747 83.7809 72.3772 83.4013 73.3172 83.1423ZM82.9172 82.3773C80.4643 81.2895 77.7048 81.1083 75.1307 81.8658C75.1622 82.0563 75.3602 83.2998 75.4307 83.7228C75.4616 83.8551 75.4629 83.9926 75.4343 84.1253C75.4058 84.2581 75.3482 84.383 75.2657 84.4908C74.9132 85.0908 74.4887 84.6933 72.6707 85.4778C70.9607 86.2098 70.7612 86.8098 70.0412 86.6478C69.5282 86.5323 69.4577 86.2683 68.7932 85.0848C66.4688 85.7408 64.3962 87.0821 62.8457 88.9338C63.1664 89.3855 63.5172 89.8149 63.8957 90.2193C64.057 90.4073 64.1456 90.6467 64.1456 90.8943C64.1456 91.142 64.057 91.3814 63.8957 91.5693C62.5049 92.9866 61.4589 94.705 60.8387 96.5913C60.7634 96.8199 60.6104 97.0149 60.4062 97.1423C60.202 97.2698 59.9596 97.3216 59.7212 97.2888C59.2476 97.2203 58.7767 97.1337 58.3097 97.0293C57.7719 99.4142 57.5614 101.861 57.6842 104.303C58.2962 104.321 58.8722 104.348 59.4917 104.397C60.7847 104.501 60.0347 105.878 62.7122 109.347C62.8717 109.558 62.9436 109.823 62.9132 110.086C62.8827 110.349 62.7522 110.59 62.5487 110.759C62.1179 111.137 61.7116 111.541 61.3322 111.971C62.8625 114.008 64.827 115.679 67.0832 116.862C67.2083 116.589 67.348 116.323 67.5017 116.064C67.6267 115.849 67.8265 115.688 68.0631 115.61C68.2997 115.533 68.5563 115.546 68.7842 115.646C69.9805 116.094 71.2274 116.394 72.4967 116.538C72.7537 116.582 72.9849 116.721 73.1435 116.927C73.3022 117.134 73.3765 117.393 73.3517 117.653L73.2857 118.598C75.8328 119.061 78.4532 118.92 80.9357 118.185C80.8638 117.921 80.8092 117.653 80.7722 117.381C80.7242 117.139 80.7684 116.888 80.896 116.676C81.0236 116.465 81.2255 116.309 81.4622 116.238C82.6543 115.924 83.7943 115.437 84.8462 114.794C84.9583 114.72 85.0841 114.668 85.2162 114.643C85.3483 114.618 85.4841 114.62 85.6156 114.648C85.7471 114.675 85.8718 114.729 85.9823 114.806C86.0928 114.883 86.1869 114.98 86.2592 115.094L86.8832 115.994C89.2466 115.053 91.2734 113.425 92.7017 111.32L91.1567 110.04C90.9934 109.897 90.8847 109.702 90.8489 109.488C90.8131 109.274 90.8524 109.054 90.9602 108.866C93.0467 105.354 92.6732 104.99 93.3602 104.753C93.8597 104.556 94.1297 104.862 94.7402 105.128C95.7823 102.312 95.8399 99.2265 94.9037 96.3738C94.2884 96.5257 93.6627 96.632 93.0317 96.6918C92.9362 96.7012 92.8399 96.6897 92.7493 96.658C92.6588 96.6264 92.5762 96.5753 92.5074 96.5085C92.4386 96.4417 92.3851 96.3607 92.3508 96.2711C92.3165 96.1815 92.3021 96.0855 92.3087 95.9898C92.4042 94.8374 92.1882 93.6806 91.6832 92.6403C91.6129 92.5803 91.5559 92.5062 91.5157 92.4229C91.4756 92.3395 91.4533 92.2488 91.4502 92.1564C91.4471 92.0639 91.4633 91.9719 91.4977 91.886C91.5321 91.8002 91.5841 91.7225 91.6502 91.6578C92.0612 91.2513 93.1007 90.0078 93.5237 89.7078C92.4068 87.6317 90.7194 85.9184 88.6607 84.7698C88.3607 85.1778 88.0697 85.5843 87.7742 86.0013C86.9807 87.1743 86.9942 87.5013 86.4587 87.6243C85.9637 87.7398 85.8587 87.4863 84.7502 86.9043C84.1922 86.6298 83.5997 86.4033 83.0087 86.1693C82.81 86.0879 82.6458 85.9401 82.5441 85.751C82.4423 85.562 82.4093 85.3435 82.4507 85.1328C82.6382 84.2203 82.7918 83.3012 82.9112 82.3773H82.9172Z" fill="#191919"/>
<path d="M180.24 151.624C174.09 152.163 174.029 161.905 180.405 162.477C187.11 163.077 187.674 153.702 181.982 152.208C181.899 152.176 181.81 152.161 181.722 152.165C181.633 152.168 181.546 152.189 181.466 152.227C181.386 152.264 181.314 152.317 181.255 152.383C181.196 152.449 181.15 152.527 181.122 152.61C181.093 152.694 181.081 152.783 181.088 152.871C181.094 152.96 181.118 153.046 181.158 153.125C181.199 153.204 181.255 153.274 181.323 153.331C181.39 153.387 181.469 153.43 181.554 153.456C184.034 154.566 184.661 158.433 182.868 159.877C182.358 160.238 181.757 160.447 181.133 160.48C180.51 160.514 179.89 160.371 179.344 160.068C178.798 159.764 178.349 159.313 178.048 158.766C177.747 158.219 177.607 157.598 177.644 156.975C177.606 156.07 177.861 155.177 178.37 154.427C178.879 153.678 179.615 153.112 180.47 152.812C180.627 152.782 180.766 152.69 180.856 152.557C180.946 152.424 180.979 152.261 180.949 152.104C180.918 151.946 180.827 151.807 180.694 151.717C180.561 151.627 180.398 151.594 180.24 151.624Z" fill="#191919"/>
<path d="M196.014 139.957C193.651 138.347 191.027 137.159 188.259 136.447C188.093 136.396 187.952 136.283 187.867 136.132C187.781 135.981 187.757 135.802 187.798 135.634C187.847 135.464 187.96 135.32 188.114 135.234C188.268 135.147 188.45 135.126 188.62 135.173C191.88 135.876 194.965 137.23 197.689 139.154C197.778 139.219 197.853 139.302 197.908 139.397C197.963 139.493 197.998 139.598 198.01 139.708C198.023 139.817 198.013 139.928 197.98 140.034C197.947 140.139 197.893 140.236 197.821 140.32L196.507 142.12C197.515 143.015 198.379 144.061 199.069 145.219L201.304 144.574C201.509 144.523 201.725 144.54 201.92 144.621C202.115 144.702 202.28 144.843 202.389 145.024C204.591 148.624 204.723 152.437 205.444 156.376C205.486 156.632 205.427 156.894 205.28 157.108C205.133 157.322 204.909 157.471 204.655 157.525C203.89 157.697 203.107 157.78 202.323 157.772C201.973 160.315 201.027 162.738 199.563 164.846C200.34 165.623 201.175 166.341 202.06 166.993C202.244 167.125 202.379 167.314 202.444 167.531C202.51 167.748 202.502 167.981 202.422 168.193C200.794 171.819 198.188 174.921 194.896 177.149C194.711 177.254 194.498 177.3 194.286 177.278C194.075 177.257 193.875 177.171 193.714 177.031C193.323 176.702 192.949 176.351 192.597 175.981C189.927 177.916 186.646 178.818 183.363 178.519C183.363 179.314 183.597 179.633 183.199 180.16C183.105 180.266 182.989 180.353 182.86 180.414C182.732 180.475 182.592 180.51 182.449 180.517C178.047 180.594 173.719 179.38 169.999 177.025C169.787 176.886 169.636 176.673 169.575 176.427C169.514 176.181 169.548 175.922 169.671 175.7L170.559 173.87C169.093 172.772 167.798 171.463 166.714 169.987L165.465 170.845C165.276 170.974 165.047 171.032 164.819 171.01C164.591 170.989 164.378 170.887 164.217 170.725C161.43 167.899 159.13 165.175 158.4 161.299C158.353 161.105 158.373 160.9 158.457 160.719C158.54 160.538 158.682 160.39 158.86 160.3L160.569 159.487C160.087 157.393 159.998 155.228 160.306 153.101L158.926 152.819C158.753 152.793 158.595 152.703 158.485 152.566C158.375 152.429 158.321 152.256 158.334 152.081C158.514 150.831 158.811 149.601 159.222 148.406C159.245 148.331 159.283 148.26 159.333 148.199C159.384 148.139 159.446 148.088 159.515 148.051C159.585 148.014 159.662 147.991 159.74 147.984C159.819 147.977 159.898 147.985 159.974 148.008C160.05 148.031 160.12 148.069 160.181 148.119C160.242 148.17 160.292 148.232 160.329 148.302C160.366 148.371 160.389 148.448 160.396 148.527C160.404 148.605 160.396 148.685 160.372 148.76C160.094 149.678 159.896 150.619 159.78 151.571L161.259 151.813C161.441 151.848 161.603 151.952 161.713 152.102C161.823 152.252 161.871 152.438 161.85 152.623C161.152 158.908 163.327 160.04 161.982 160.742L160.339 161.59C161.266 164.338 162.884 166.803 165.037 168.746L166.45 167.77C166.56 167.696 166.684 167.645 166.814 167.621C166.944 167.596 167.078 167.599 167.207 167.628C167.336 167.657 167.458 167.712 167.565 167.79C167.672 167.868 167.763 167.966 167.83 168.08C169.041 169.927 170.605 171.518 172.431 172.76C172.62 172.896 172.757 173.094 172.817 173.319C172.877 173.545 172.856 173.784 172.759 173.996L171.873 175.796C174.765 177.441 178.011 178.367 181.336 178.496V177.326C181.345 177.183 181.382 177.043 181.448 176.916C181.513 176.788 181.604 176.676 181.715 176.585C181.827 176.495 181.956 176.429 182.094 176.391C182.232 176.353 182.377 176.345 182.518 176.366C184.196 176.668 185.919 176.596 187.566 176.157C189.213 175.719 190.743 174.923 192.048 173.827C192.253 173.66 192.514 173.579 192.777 173.6C193.04 173.621 193.285 173.743 193.461 173.939C193.785 174.318 194.136 174.673 194.511 175.001C196.882 173.156 198.831 170.826 200.229 168.167C199.344 167.45 198.619 166.762 197.502 165.692C197.312 165.513 197.198 165.267 197.186 165.006C197.174 164.746 197.263 164.49 197.436 164.294C199.188 162.101 200.241 159.433 200.458 156.635C200.469 156.501 200.507 156.371 200.569 156.252C200.632 156.133 200.719 156.029 200.823 155.944C200.928 155.86 201.048 155.798 201.178 155.762C201.307 155.726 201.443 155.717 201.576 155.735C202.154 155.8 202.739 155.8 203.317 155.735C202.77 152.435 202.651 149.774 201.082 146.66L198.816 147.268C198.609 147.312 198.394 147.286 198.204 147.195C198.014 147.103 197.86 146.951 197.766 146.762C197.046 145.284 196.015 143.98 194.743 142.939C194.571 142.785 194.465 142.57 194.446 142.34C194.428 142.109 194.499 141.881 194.644 141.701L196.014 139.957Z" fill="#191919"/>
<path d="M193.152 58.6464C192.006 57.6818 191.162 56.4075 190.721 54.9759C190.471 53.9574 190.612 52.8824 191.115 51.9624C192.963 47.5494 200.825 49.4304 200.085 54.6894C199.962 55.6091 199.575 56.4732 198.969 57.1764C198.858 57.3064 198.796 57.4722 198.796 57.6437C198.796 57.8151 198.858 57.9809 198.969 58.1109C199.097 58.2351 199.268 58.3045 199.446 58.3045C199.623 58.3045 199.794 58.2351 199.922 58.1109C200.862 57.3205 201.528 56.254 201.827 55.0629C203.676 47.9409 192.362 44.2449 189.275 51.1539C188.6 52.5142 188.448 54.0749 188.847 55.5399C189.506 57.3341 190.822 58.8108 192.528 59.6709C192.596 59.7144 192.671 59.744 192.75 59.7579C192.829 59.7718 192.91 59.7697 192.988 59.7519C193.066 59.734 193.14 59.7006 193.205 59.6538C193.27 59.6069 193.325 59.5475 193.366 59.4791C193.408 59.4106 193.436 59.3345 193.447 59.2553C193.459 59.176 193.455 59.0952 193.435 59.0176C193.415 58.94 193.38 58.8671 193.331 58.8034C193.283 58.7396 193.222 58.6862 193.152 58.6464Z" fill="#191919"/>
<path d="M194.862 33.8786C194.931 33.7286 194.837 33.9746 195.486 31.8506C195.549 31.6524 195.67 31.4782 195.835 31.3513C196 31.2245 196.199 31.1511 196.407 31.1411C200.469 31.11 204.416 32.4853 207.579 35.0336C207.787 35.1916 207.925 35.4253 207.961 35.684C207.998 35.9427 207.931 36.2054 207.776 36.4151C207.476 36.8411 207.347 37.1231 206.955 37.7906C208.302 38.8005 209.497 39.9982 210.504 41.3471L212.705 40.3736C212.919 40.2741 213.162 40.2533 213.39 40.3147C213.619 40.3761 213.818 40.5159 213.954 40.7096C216.292 44.2169 217.57 48.3239 217.634 52.5386C217.634 52.7709 217.552 52.9958 217.401 53.1728C217.251 53.3499 217.042 53.4675 216.813 53.5046L215.433 53.8046C215.677 55.3844 215.61 56.9967 215.235 58.5506L216.585 59.2571C216.779 59.3616 216.929 59.5323 217.007 59.7379C217.086 59.9436 217.087 60.1706 217.013 60.3776C215.869 64.0767 213.677 67.3649 210.704 69.8441C210.565 69.9517 210.392 70.0051 210.216 69.9944C210.041 69.9836 209.876 69.9094 209.751 69.7856C209.589 69.6356 208.716 68.7881 208.568 68.6321C208.405 68.8035 208.23 68.962 208.043 69.1061C207.977 69.162 207.901 69.2043 207.82 69.2307C207.738 69.257 207.651 69.2668 207.566 69.2596C207.48 69.2523 207.397 69.2281 207.32 69.1884C207.244 69.1487 207.177 69.0942 207.122 69.0281C207.012 68.894 206.958 68.7229 206.97 68.55C206.982 68.3772 207.06 68.2155 207.188 68.0981C208.029 67.3061 207.864 67.0481 208.338 66.9521C208.436 66.9357 208.537 66.9406 208.633 66.9665C208.73 66.9924 208.819 67.0386 208.896 67.1021C209.4 67.4981 210.126 68.1371 210.276 68.2811C212.462 66.1297 214.087 63.4752 215.009 60.5501L213.726 59.9186C213.527 59.8286 213.365 59.6717 213.269 59.475C213.173 59.2783 213.149 59.0542 213.201 58.8416C213.425 57.9175 213.557 56.9734 213.596 56.0231C213.681 53.6231 213.056 53.2121 213.464 52.5251C213.816 52.0496 214.016 52.1021 215.633 51.7436C215.424 48.5002 214.444 45.3535 212.774 42.5651L210.507 43.5581C210.284 43.649 210.036 43.6578 209.808 43.5831C209.579 43.5084 209.384 43.355 209.258 43.1501C208.185 41.4746 206.761 40.0523 205.085 38.9816C204.886 38.8429 204.742 38.6399 204.676 38.4071C204.61 38.1742 204.627 37.9257 204.723 37.7036C204.948 37.2086 205.275 36.6416 205.578 36.1046C203.138 34.3399 200.238 33.3216 197.231 33.1736C196.991 33.9536 196.739 34.8236 196.509 35.3426C196.428 35.542 196.285 35.7103 196.102 35.8228C195.918 35.9353 195.704 35.9863 195.489 35.9681C193.537 35.7293 191.556 35.9009 189.674 36.4721C189.437 36.5587 189.176 36.552 188.945 36.4534C188.713 36.3548 188.527 36.1716 188.426 35.9411L187.637 34.2296C184.493 35.0696 181.633 36.7382 179.355 39.0611C179.781 39.7124 180.243 40.3404 180.737 40.9421C180.885 41.12 180.967 41.3446 180.967 41.5766C180.967 41.8086 180.885 42.0332 180.737 42.2111C179.455 43.6601 178.482 45.3551 177.878 47.1926C177.818 47.4121 177.683 47.6037 177.497 47.7337C177.31 47.8637 177.084 47.9239 176.858 47.9036C176.432 47.8541 175.775 47.7911 175.413 47.7536C174.484 50.4897 174.039 53.3667 174.098 56.2556L176.103 56.4521C176.265 56.4622 176.418 56.5346 176.528 56.6543C176.638 56.7739 176.697 56.9315 176.694 57.0941C176.728 57.7232 176.838 58.3458 177.023 58.9481C177.066 59.1051 177.046 59.2729 176.965 59.4147C176.885 59.5565 176.752 59.6606 176.595 59.7041C176.438 59.7477 176.27 59.7271 176.128 59.647C175.987 59.5668 175.883 59.4336 175.839 59.2766C175.583 58.4801 175.497 57.8891 175.446 57.7316L173.31 57.6251C173.137 57.6021 172.976 57.5201 172.856 57.3927C172.737 57.2654 172.664 57.1006 172.652 56.9261C172.357 53.3906 172.794 49.8323 173.934 46.4726C174.221 45.7346 175.119 45.8261 176.234 45.9296C176.837 44.3654 177.679 42.9045 178.731 41.5991C178.62 41.4386 177.371 39.6821 177.252 39.5246C177.113 39.3288 177.046 39.0902 177.064 38.8505C177.082 38.6107 177.184 38.3849 177.351 38.2121C180.198 35.0883 183.958 32.9425 188.096 32.0801C188.314 32.0483 188.538 32.0873 188.733 32.1915C188.928 32.2957 189.085 32.4595 189.18 32.6591L189.903 34.2836C191.525 33.8917 193.198 33.755 194.862 33.8786Z" fill="#191919"/>
<path d="M191.278 73.683C190.687 73.614 189.382 73.095 189.439 72.5235C189.541 71.484 192.177 71.736 192.33 71.742C192.588 71.757 192.831 71.8704 193.009 72.059C193.186 72.2476 193.285 72.497 193.284 72.756V73.6755C193.863 73.8405 194.805 74.2125 194.697 74.8065C194.622 75.6165 193.002 75.5565 192.232 75.5565C191.971 75.5325 191.728 75.4114 191.551 75.217C191.375 75.0226 191.277 74.7691 191.278 74.5065V73.683Z" fill="#191919"/>
<path d="M131.412 116.689C131.5 116.298 132.279 114.192 132.364 114.006C132.804 113.023 133.457 112.149 134.276 111.449C135.094 110.749 136.058 110.239 137.097 109.956C137.617 109.744 138.156 109.582 138.706 109.471C138.881 109.471 139.049 109.402 139.173 109.278C139.297 109.154 139.366 108.986 139.366 108.811C139.366 108.636 139.297 108.468 139.173 108.345C139.049 108.221 138.881 108.151 138.706 108.151C138.023 108.027 137.325 108.01 136.636 108.099C132.628 108.699 129.277 113.331 130.23 116.697C130.23 116.774 130.246 116.851 130.276 116.923C130.306 116.994 130.35 117.059 130.406 117.114C130.461 117.168 130.526 117.211 130.598 117.24C130.67 117.27 130.747 117.284 130.825 117.284C130.902 117.283 130.979 117.268 131.05 117.238C131.122 117.207 131.187 117.163 131.241 117.108C131.296 117.053 131.339 116.988 131.368 116.916C131.398 116.844 131.412 116.767 131.412 116.689Z" fill="#38A1FF"/>
<path d="M120.716 123.055C119.74 119.551 119.655 115.859 120.47 112.315C121.671 107.548 124.666 103.428 128.829 100.815C132.993 98.2025 138.005 97.2977 142.82 98.2896C144.203 98.5213 145.554 98.9166 146.844 99.4671C147.006 99.5392 147.189 99.5471 147.356 99.4892C147.523 99.4312 147.662 99.3118 147.744 99.1551C147.817 98.9945 147.823 98.8118 147.761 98.6469C147.699 98.482 147.574 98.3481 147.414 98.2746C132.972 90.9486 117.738 102.593 118.088 116.684C118.136 119.017 118.639 121.318 119.567 123.458C119.756 124.184 120.926 123.853 120.716 123.055Z" fill="#38A1FF"/>
<path d="M157.107 111.592C157.857 116.678 157.653 115.885 157.764 116.692C157.764 116.866 157.833 117.033 157.957 117.156C158.08 117.279 158.247 117.349 158.421 117.349C158.595 117.349 158.762 117.279 158.886 117.156C159.009 117.033 159.078 116.866 159.078 116.692C159.363 114.844 159.076 112.954 158.256 111.274C157.73 110.465 157.007 110.899 157.107 111.592Z" fill="#38A1FF"/>
<path d="M138.705 135.796C138.465 135.746 137.333 135.44 136.905 135.365C134.102 135.008 131.395 134.106 128.937 132.71C128.366 132.427 127.869 132.223 127.295 131.93C127.154 131.838 126.984 131.802 126.819 131.829C126.653 131.856 126.504 131.945 126.4 132.077C126.297 132.209 126.247 132.375 126.26 132.543C126.273 132.71 126.349 132.866 126.473 132.98C127.988 134.64 129.96 135.814 132.141 136.357C133.627 136.861 135.175 137.164 136.742 137.257C137.406 137.244 138.066 137.16 138.713 137.006C138.873 137.005 139.027 136.941 139.139 136.827C139.252 136.712 139.315 136.558 139.314 136.397C139.313 136.237 139.248 136.083 139.134 135.971C139.02 135.858 138.866 135.795 138.705 135.796Z" fill="#38A1FF"/>
<path d="M141.299 75.616C141.343 74.6257 141.453 73.6396 141.628 72.664C141.656 72.4811 141.745 72.3133 141.882 72.1884C142.018 72.0634 142.193 71.9888 142.378 71.977C147.071 71.8415 151.727 72.8435 155.948 74.8975C156.107 74.9758 156.229 75.1142 156.286 75.2821C156.343 75.4501 156.331 75.6338 156.253 75.793C156.174 75.9521 156.036 76.0736 155.868 76.1307C155.7 76.1878 155.516 76.1758 155.357 76.0975C151.531 74.366 147.364 73.5175 143.165 73.615C143.06 74.437 143.003 76.165 142.969 76.615C142.955 76.8452 142.85 77.0604 142.678 77.2137C142.506 77.3669 142.279 77.4456 142.049 77.4325C137.247 77.4294 132.453 77.845 127.723 78.6745C127.509 78.7007 127.293 78.6551 127.109 78.5448C126.924 78.4345 126.782 78.2658 126.704 78.0655C126.443 77.3729 126.224 76.6657 126.046 75.9475C120.277 77.7851 115.044 81.0021 110.8 85.3195C114.562 90.3595 113.35 86.026 106.462 98.035C106.339 98.252 106.141 98.4171 105.905 98.4998C105.67 98.5825 105.413 98.5773 105.181 98.485L103.831 97.969C100.827 102.164 98.9192 107.043 98.2807 112.163C99.4942 112.841 101.173 113.044 100.909 114.263C99.4104 120.416 99.9052 126.886 102.322 132.739C102.38 132.877 102.408 133.026 102.402 133.175C102.396 133.325 102.357 133.471 102.288 133.604C102.219 133.736 102.121 133.852 102.002 133.942C101.883 134.033 101.745 134.096 101.599 134.126L100.153 134.467C102.076 139.453 104.983 144 108.703 147.836C112.987 145.012 109.615 146.275 118.303 151.286C120.606 152.63 123.025 153.764 125.531 154.675C125.718 154.733 125.876 154.86 125.973 155.03C126.071 155.2 126.1 155.401 126.056 155.591L125.531 158.849C128.192 159.393 130.879 159.801 133.582 160.072C133.74 160.096 133.883 160.18 133.981 160.307C134.078 160.434 134.124 160.594 134.107 160.753C134.096 160.833 134.07 160.91 134.03 160.979C133.989 161.048 133.935 161.109 133.871 161.157C133.807 161.205 133.733 161.24 133.655 161.259C133.577 161.278 133.496 161.282 133.417 161.269C130.416 161.083 127.43 160.699 124.48 160.12C124.301 160.065 124.148 159.947 124.051 159.787C123.954 159.627 123.919 159.437 123.953 159.253L124.381 155.99C119.544 154.364 115.053 151.848 111.139 148.573L109.102 149.923C108.916 150.044 108.695 150.099 108.474 150.079C108.253 150.058 108.046 149.964 107.885 149.81C103.392 145.404 99.9644 140.029 97.8637 134.096C97.817 133.964 97.7988 133.823 97.8102 133.684C97.8215 133.544 97.8623 133.408 97.9297 133.285C98.2012 132.764 98.5417 132.781 100.03 132.431C97.9414 126.73 97.5082 120.554 98.7802 114.617C98.0563 114.331 97.3544 113.991 96.6802 113.602C96.5167 113.501 96.3841 113.356 96.2971 113.184C96.21 113.013 96.1719 112.82 96.1867 112.628C96.7804 106.631 99.0337 100.917 102.694 96.1285C102.819 95.9593 102.995 95.8344 103.196 95.7721C103.397 95.7098 103.612 95.7132 103.811 95.782L105.125 96.2785C106.727 93.4996 108.562 90.8625 110.612 88.396C109.951 87.5487 109.305 86.6895 108.674 85.819C108.545 85.6285 108.484 85.3996 108.502 85.1701C108.52 84.9406 108.616 84.724 108.773 84.556C113.585 79.429 119.693 75.6975 126.451 73.756C126.698 73.6876 126.963 73.717 127.189 73.8382C127.416 73.9594 127.587 74.163 127.667 74.407C127.886 75.1315 128.02 75.8065 128.291 76.6165C132.59 75.9046 136.942 75.5698 141.299 75.616Z" fill="#38A1FF"/>
<path d="M260.514 116.487C260.585 116.009 260.555 115.522 260.426 115.057C260.297 114.592 260.071 114.159 259.764 113.787C262.184 109.941 260.091 103.858 255.395 103.768C254.739 98.9455 248.568 97.8175 245.601 101.436C244.726 101.2 243.803 101.21 242.934 101.466C242.064 101.721 241.282 102.212 240.674 102.883C234.584 100.423 227.529 106.933 229.797 113.202C225.813 115.47 225.582 122.253 229.862 124.11C229.083 128.392 233.676 133.39 237.749 131.391C238.037 131.745 238.398 132.033 238.807 132.236C239.216 132.438 239.664 132.55 240.121 132.565C240.577 132.579 241.031 132.495 241.452 132.318C241.873 132.141 242.251 131.876 242.561 131.541L242.217 136.372C242.203 136.457 242.206 136.545 242.227 136.629C242.248 136.713 242.285 136.792 242.338 136.861C242.39 136.93 242.456 136.987 242.532 137.029C242.607 137.072 242.691 137.098 242.777 137.107C242.862 137.118 242.949 137.111 243.032 137.088C243.115 137.065 243.193 137.025 243.26 136.971C243.328 136.917 243.384 136.85 243.425 136.775C243.466 136.699 243.491 136.615 243.5 136.53C243.773 134.934 244.14 132.78 244.353 130.768C244.366 130.576 244.315 130.385 244.208 130.225C244.101 130.064 243.945 129.944 243.762 129.882C241.662 129.087 241.265 126.658 241.662 124.437C241.683 124.302 241.677 124.164 241.643 124.032C241.61 123.9 241.549 123.776 241.466 123.668C241.383 123.56 241.279 123.47 241.16 123.403C241.041 123.336 240.91 123.294 240.774 123.28C240.249 123.228 239.756 123.175 239.231 123.141C240.171 120.629 241.513 118.288 243.206 116.209C244.611 114.519 246.689 113.557 248.135 115.225C248.61 115.834 248.953 116.535 249.139 117.285C249.326 118.034 249.353 118.814 249.219 119.575C249.209 119.72 249.23 119.866 249.281 120.003C249.332 120.14 249.411 120.264 249.514 120.367C249.617 120.471 249.74 120.551 249.876 120.603C250.013 120.655 250.158 120.677 250.304 120.669C251.064 120.607 252.54 121.189 251.816 121.884C251.285 122.398 250.582 122.695 249.843 122.716C249.631 122.74 249.431 122.829 249.272 122.972C249.113 123.115 249.003 123.304 248.957 123.513C248.573 125.569 247.767 127.524 246.591 129.255C246.12 129.817 246.291 132.327 246.393 136.797C246.392 136.956 246.453 137.11 246.564 137.225C246.675 137.34 246.826 137.406 246.986 137.41C247.148 137.412 247.304 137.351 247.421 137.238C247.538 137.126 247.606 136.972 247.61 136.81C247.671 135.676 247.76 134.04 247.857 132.639C251.867 135.561 256.68 133.207 257.007 129.703C257.812 129.412 258.497 128.862 258.955 128.14C259.413 127.417 259.618 126.563 259.538 125.712C262.769 123.828 263.573 118.839 260.514 116.487ZM238.464 105.672C239.933 104.868 241.679 105.906 241.52 106.59C241.335 107.394 239.42 107.098 238.628 106.872C238.31 106.78 237.987 106.68 237.938 106.347C237.888 106.014 238.175 105.837 238.466 105.67L238.464 105.672ZM235.605 108.274C235.123 108.698 234.722 109.206 234.422 109.774C233.913 110.612 233.596 111.553 233.494 112.529C233.392 113.504 233.507 114.49 233.831 115.416C233.891 115.604 233.894 115.805 233.841 115.995C233.788 116.185 233.68 116.355 233.531 116.485C233.247 116.778 233.043 117.14 232.94 117.535C232.757 118.332 232.656 119.145 232.64 119.962C232.663 120.12 232.624 120.281 232.531 120.411C232.438 120.542 232.299 120.631 232.142 120.661C231.985 120.69 231.822 120.658 231.688 120.571C231.554 120.483 231.459 120.347 231.423 120.192C230.98 119.229 230.843 118.155 231.029 117.112C231.121 116.517 231.358 115.954 231.719 115.473C230.927 112.417 231.719 108.402 234.939 107.125C235.095 107.039 235.277 107.016 235.449 107.062C235.621 107.108 235.768 107.219 235.859 107.371C235.943 107.524 235.963 107.705 235.916 107.873C235.869 108.041 235.758 108.185 235.607 108.273L235.605 108.274Z" fill="#191919"/>
</svg>
