<svg width="280" height="281" viewBox="0 0 280 281" fill="none" xmlns="http://www.w3.org/2000/svg">
<path d="M24.6849 119.508C51.7749 119.26 78.7585 119.571 105.885 119.035C106.035 119.009 106.189 119.014 106.337 119.052C106.485 119.089 106.624 119.157 106.744 119.251C106.864 119.345 106.963 119.463 107.034 119.598C107.106 119.732 107.148 119.881 107.159 120.033C107.169 120.185 107.148 120.338 107.095 120.481C107.043 120.624 106.961 120.755 106.855 120.865C106.75 120.974 106.622 121.061 106.48 121.118C106.339 121.175 106.187 121.202 106.035 121.197C79.2191 121.73 51.6377 122.339 24.8347 121.629C23.2863 121.589 23.0987 119.522 24.6849 119.508ZM85.5723 78.4462C90.0901 98.5656 62.3953 109.799 49.7939 97.0662C44.0077 91.2226 43.1061 81.7124 46.2505 74.3582C54.1549 55.8796 81.7 61.1926 85.5723 78.4462ZM83.0649 76.181C82.2095 73.9809 80.9 71.9857 79.2218 70.3256C77.5436 68.6655 75.5344 67.3777 73.3251 66.5462C61.5133 62.4092 50.0753 64.7794 46.6565 77.9842C44.8505 84.9548 46.7965 93.3982 52.9187 97.6822C66.9873 107.524 90.3281 93.856 83.0649 76.181ZM25.6761 58.9106C25.6761 58.2386 24.5855 58.2554 24.5239 58.9022C23.0539 74.3736 23.7819 90.5828 23.8365 106.142C23.8449 108.473 24.6597 108.644 26.1185 108.741C49.3067 110.267 81.1469 109.411 104.289 108.385C105.129 108.347 105.149 106.928 104.289 106.911C78.4337 106.428 51.2359 108.206 25.7965 106.68C26.1969 91.0756 25.7587 74.606 25.6761 58.9106ZM106.603 107.176C106.691 107.864 108.058 107.957 108.044 107.185C107.741 90.937 107.88 74.5654 107.46 58.3688C107.403 56.1428 107.363 56.3304 104.948 56.2366C80.1767 55.272 52.5505 55.748 27.8811 57.169C27.6938 57.1777 27.5176 57.2605 27.3914 57.3991C27.2651 57.5377 27.199 57.7208 27.2077 57.9082C27.2165 58.0955 27.2993 58.2717 27.4379 58.398C27.5765 58.5243 27.7596 58.5903 27.9469 58.5816C53.8203 58.492 79.9723 57.4476 105.816 58.2848C104.874 71.1578 104.999 94.556 106.603 107.176ZM73.8683 82.2752C70.8289 80.493 66.5575 77.7014 63.1513 75.8352C60.8778 74.5906 60.6999 76.2944 62.3281 77.42C64.6227 79.0076 68.8815 81.0432 71.823 83.097C68.449 85.1774 65.215 87.3698 61.7808 89.4418C61.2893 84.917 61.0611 80.4622 60.4129 75.9234C60.2981 75.11 59.1669 75.348 59.1879 76.1194C59.3279 81.1454 60.0154 86.0818 60.1861 91.0406C60.2083 91.1741 60.2606 91.3008 60.3391 91.4111C60.4176 91.5213 60.5203 91.6122 60.6392 91.6767C60.7582 91.7413 60.8903 91.7778 61.0256 91.7835C61.1608 91.7892 61.2956 91.764 61.4195 91.7098C65.8507 89.388 70.0853 86.7088 74.0812 83.699C74.1857 83.6028 74.2651 83.4825 74.3123 83.3485C74.3596 83.2146 74.3734 83.0711 74.3524 82.9306C74.3314 82.7901 74.2763 82.6569 74.1919 82.5427C74.1075 82.4284 73.9964 82.3366 73.8683 82.2752ZM157.811 69.7592C161.513 69.5212 161.385 67.1286 157.57 67.3946C145.905 68.2094 133.965 67.9868 122.275 67.6872C117.131 67.5556 116.62 69.692 121.9 69.8922C133.317 70.3248 146.453 70.4886 157.811 69.7592ZM169.259 110.573C169.461 106.728 169.437 102.873 169.187 99.0304C169.134 98.4452 168.067 98.3654 167.968 98.959C167.468 101.949 168.101 107.39 167.979 110.638C167.955 111.336 169.218 111.276 169.259 110.573ZM26.1675 30.0188C40.9487 29.9754 151.085 29.2656 156.912 29.5008C169.729 30.0202 170.492 45.0408 168.952 45.2788C167.314 45.5336 14.6441 44.541 13.0341 44.4108C11.9113 44.3212 11.3849 30.0622 26.1675 30.0188ZM157.962 40.9738C158.376 40.9108 158.77 40.7575 159.117 40.5248C159.465 40.2921 159.757 39.9858 159.973 39.6276C160.188 39.2693 160.322 38.868 160.366 38.452C160.409 38.0361 160.36 37.6157 160.222 37.2209C160.084 36.8261 159.861 36.4664 159.569 36.1675C159.276 35.8685 158.922 35.6377 158.53 35.4913C158.138 35.3449 157.719 35.2866 157.302 35.3205C156.885 35.3543 156.481 35.4796 156.118 35.6874C155.59 36.0455 155.194 36.5684 154.993 37.1746C154.792 37.7808 154.798 38.4364 155.008 39.0394C155.218 39.6424 155.622 40.159 156.156 40.5088C156.69 40.8586 157.325 41.0221 157.962 40.9738ZM145.207 40.0344C145.636 40.5419 146.227 40.8854 146.881 41.0067C147.534 41.1279 148.21 41.0193 148.792 40.6994C149.327 40.3355 149.73 39.8087 149.942 39.1973C150.154 38.5859 150.162 37.9225 149.967 37.3058C149.739 36.6928 149.311 36.1745 148.752 35.8346C148.193 35.4948 147.536 35.3531 146.887 35.4326C146.393 35.5101 145.929 35.7185 145.543 36.0361C145.156 36.3536 144.862 36.7688 144.691 37.2385C144.519 37.7081 144.477 38.2151 144.568 38.7068C144.658 39.1984 144.879 39.6568 145.207 40.0344ZM134.658 40.2094C135.129 40.6063 135.712 40.8485 136.326 40.9031C136.94 40.9577 137.556 40.8221 138.091 40.5146C138.53 40.2564 138.889 39.8814 139.128 39.4313C139.367 38.9811 139.477 38.4735 139.445 37.9648C139.413 37.4561 139.24 36.9663 138.946 36.5499C138.652 36.1335 138.248 35.8068 137.78 35.6062C137.155 35.4213 136.489 35.4322 135.871 35.6374C135.252 35.8427 134.712 36.2324 134.322 36.7542C133.962 37.2775 133.799 37.911 133.86 38.543C133.922 39.175 134.204 39.7651 134.658 40.2094ZM167.954 48.678C168.2 60.9546 167.114 73.2368 167.765 85.6002C167.803 86.324 169.025 86.2736 169.011 85.5722C168.814 73.3922 170.097 60.7922 169.225 48.65C169.173 47.9192 167.94 47.9584 167.954 48.678ZM159.096 57.4126C145.336 58.0552 131.849 57.141 118.149 57.1326C117.61 57.1326 117.509 58.1126 118.034 58.3352C122.247 60.1552 152.919 59.9466 159.155 59.4776C159.414 59.4501 159.654 59.3256 159.826 59.1292C159.997 58.9327 160.089 58.6787 160.081 58.4179C160.074 58.157 159.968 57.9086 159.786 57.7222C159.603 57.5359 159.357 57.4253 159.096 57.4126ZM22.7543 139.129C32.5669 139.181 42.8555 140.083 50.6717 139.511C51.3829 139.46 51.4781 138.258 50.7333 138.237C41.4821 137.971 32.6243 137.376 23.8701 137.183C17.9453 137.052 14.6469 134.695 14.0421 128.51C12.1213 108.842 14.5251 51.8812 14.1121 47.0302C14.1021 46.8605 14.0316 46.7 13.9135 46.5778C13.7953 46.4556 13.6373 46.3798 13.468 46.364C13.2988 46.3483 13.1295 46.3937 12.9908 46.492C12.8522 46.5903 12.7533 46.735 12.7121 46.9C12.3229 48.832 11.7237 72.4122 11.5137 90.657C11.3821 102.217 10.8697 118.185 12.0821 129.317C12.7261 135.219 16.6965 139.097 22.7543 139.129ZM129.272 137.221C112.48 138.256 93.1659 137.575 75.8438 138.012C75.0989 138.032 75.0962 139.306 75.8521 139.325C93.0064 139.783 112.168 139.009 129.285 139.027C130.309 139.024 130.311 137.157 129.272 137.221ZM120.624 79.541C118.64 80.0114 118.901 81.2938 120.904 81.2952C124.074 81.2952 127.498 80.9382 130.783 80.9004C132.883 80.8766 133.781 79.2204 130.363 78.9544C127.105 78.8017 123.84 78.9988 120.624 79.5424V79.541ZM174.439 164.045C172.949 159.635 170.683 155.526 167.748 151.913C167.328 151.353 168.028 150.494 168.615 150.98C172.298 154.348 174.859 158.765 175.952 163.635C180.325 162.46 184.926 162.423 189.317 163.529C193.708 164.634 197.743 166.845 201.039 169.95C201.907 147.496 183.094 132.237 164.359 130.851C161.598 137.266 149.456 139.779 147.191 133.133C137.741 135.01 124.123 141.813 119.238 149.915C123.841 149.711 128.452 149.899 133.023 150.475C134.417 150.638 135.714 151.27 136.702 152.267C137.69 153.265 138.309 154.568 138.459 155.964C138.69 161.099 139.309 166.209 140.308 171.251C142.708 165.039 148.372 163.478 153.429 163.363C157.815 163.261 168.437 165.476 174.439 164.045ZM170.842 119.014C179.054 117.295 187.484 116.878 195.825 117.778C203.976 118.632 209.134 119.713 211.059 128.657C213.93 142.008 210.94 163.479 206.341 176.33C202.381 187.39 195.129 186.344 185.453 187.079C184.709 187.135 184.51 188.416 185.328 188.443C194.534 188.744 202.31 188.38 206.532 180.883C213.041 169.33 215.4 143.503 213.492 130.285C212.24 121.625 208.564 117.457 199.731 116.306C190.676 115.126 179.172 114.87 170.442 117.691C170.266 117.745 170.119 117.866 170.033 118.028C169.947 118.19 169.929 118.379 169.983 118.555C170.036 118.73 170.157 118.877 170.319 118.963C170.481 119.049 170.671 119.068 170.846 119.014H170.842ZM212.41 121.345C218.332 123.486 224.738 125.784 229.043 130.616C238.734 141.492 233.552 159.365 231.143 172.075C228.461 186.193 225.9 200.333 223.229 214.451C222.389 218.865 224.069 220.237 224.85 216.29C227.65 202.205 230.282 188.051 232.97 173.942C235.525 160.548 240.769 142.74 231.875 130.682C227.343 124.538 219.905 122.157 212.869 120.182C212.116 119.97 211.642 121.065 212.414 121.345H212.41ZM178.18 246.365C177.848 247.741 179.909 248.129 180.249 246.677C183.306 233.694 187.459 218.257 188.937 205.377C190.109 195.174 189.273 188.601 177.737 187.505C168.475 186.626 160.811 190.347 159.126 200.084C156.922 212.811 158.237 233.376 158.694 246.961C158.7 247.127 158.769 247.284 158.888 247.4C159.007 247.516 159.165 247.581 159.331 247.583C159.497 247.585 159.657 247.523 159.778 247.41C159.899 247.296 159.972 247.141 159.981 246.975C160.373 233.387 159.754 219.405 160.568 205.946C161.128 196.725 163.334 189.899 174.008 189.36C185.731 188.769 188.075 193.239 187.046 204.161C185.734 218.019 180.341 237.436 178.184 246.362L178.18 246.365ZM235.02 226.065C236.28 223.646 240.487 219.345 242.934 219.328C244.971 219.317 243.662 223.318 244.307 225.574C249.563 226.036 250.533 225.973 254.057 229.411C254.508 229.849 255.049 229.62 254.664 228.977C253.862 227.594 252.73 226.43 251.37 225.589C253.162 222.894 255.99 221.323 256.844 221.439C258.447 221.659 256.442 227.074 257.473 231.368C258.173 234.268 259.417 237.636 258.213 241.037C257.277 243.681 255.769 246.089 251.213 247.53C247.03 248.851 239.11 247.846 235.543 245.867C240.753 242.704 238.86 234.935 230.87 237.489C220.038 240.951 214.582 241.732 203.184 239.819C202.38 239.679 202.192 240.575 203.03 240.733C212.172 242.673 221.666 242.154 230.542 239.228C234.866 237.863 237.913 240.573 235.843 243.45C233.743 246.366 228.122 247.444 224.714 247.962C216.094 249.025 207.373 248.972 198.767 247.806C189.947 246.743 194.456 224.249 217.443 221.178C223.348 220.386 229.348 221.583 234.499 224.578C232.733 227.547 231.641 230.867 231.298 234.304C231.251 234.972 231.983 234.816 232.138 234.164C232.747 231.349 233.719 228.625 235.031 226.061L235.02 226.065ZM211.955 223.916C209.995 224.945 208.109 228.855 209.005 232.415C209.185 233.131 209.906 233.201 209.905 232.446C209.905 229.086 211.13 227.721 212.681 225.183C213.191 224.364 212.768 223.49 211.966 223.912L211.955 223.916ZM218.785 222.319C216.967 223.572 215.662 225.438 215.107 227.576C214.438 229.662 214.376 231.896 214.93 234.016C215.085 234.699 215.819 234.647 215.863 233.971C216.024 231.498 216.44 227.99 218.236 225.694C218.794 224.977 219.302 224.223 219.758 223.437C220.285 222.559 219.466 221.953 218.796 222.314L218.785 222.319ZM224.584 223.692C223.255 224.847 222.237 226.317 221.62 227.966C221.004 229.616 220.81 231.393 221.056 233.136C221.196 233.836 221.937 233.954 222.021 233.188C222.408 230.177 223.82 227.391 226.019 225.298C228.008 223.289 226.432 222.069 224.595 223.688L224.584 223.692ZM252.006 236.541C252.352 236.336 252.762 236.266 253.157 236.343C253.552 236.421 253.904 236.641 254.148 236.961C254.697 237.717 255.282 237.292 254.97 236.356C254.83 236.035 254.614 235.753 254.34 235.534C254.066 235.315 253.742 235.167 253.398 235.102C253.053 235.038 252.698 235.058 252.364 235.162C252.029 235.267 251.725 235.451 251.478 235.7C251.391 235.78 251.334 235.889 251.319 236.007C251.304 236.125 251.331 236.245 251.396 236.345C251.46 236.445 251.558 236.519 251.671 236.554C251.785 236.589 251.907 236.583 252.017 236.537L252.006 236.541ZM246.533 238.237C246.621 238.892 247.786 240.226 248.524 240.197C249.391 240.156 250.606 239.247 250.52 238.377C250.435 237.506 246.416 237.271 246.539 238.232L246.533 238.237ZM242.211 236.216C242.519 235.891 242.928 235.68 243.372 235.621C243.816 235.562 244.267 235.657 244.649 235.89C245.371 236.426 246.017 235.759 245.401 235.138C245.127 234.854 244.791 234.639 244.418 234.509C244.046 234.379 243.649 234.339 243.258 234.391C242.867 234.444 242.494 234.588 242.169 234.811C241.845 235.034 241.577 235.331 241.388 235.677C241.016 236.3 241.8 236.617 242.223 236.212L242.211 236.216ZM88.1721 169.74C88.4676 167.269 88.6173 166.054 85.9826 165.927C78.4141 165.56 73.0339 167.467 68.3887 171.086C65.765 173.091 63.5871 175.62 61.9937 178.512C60.4003 181.404 59.4262 184.596 59.1333 187.886C59.1131 188.045 59.155 188.205 59.2503 188.334C59.3455 188.463 59.4869 188.551 59.6449 188.578C59.8028 188.605 59.9653 188.571 60.0985 188.482C60.2316 188.392 60.3252 188.255 60.3598 188.098C61.35 181.967 64.5586 176.412 69.3757 172.491C74.3558 168.604 80.6608 166.823 86.9387 167.53C86.4844 174.087 83.7907 180.29 79.3088 185.098C73.9887 190.767 69.5745 192.028 62.5157 193.627C62.374 193.668 62.2517 193.759 62.1709 193.883C62.09 194.006 62.0559 194.154 62.0746 194.301C62.0933 194.447 62.1637 194.582 62.273 194.682C62.3824 194.781 62.5236 194.838 62.6711 194.842C68.8143 194.765 76.2371 190.586 80.4077 186.213C84.6524 181.667 87.3675 175.907 88.1721 169.74ZM141.351 247.01C139.282 242.473 134.14 236.65 128.541 237.782C125.041 238.482 121.19 242.227 119.48 245.26C118.582 246.855 118.986 248.686 121.004 248.94C125.68 249.361 130.379 249.483 135.071 249.305C140.362 249.369 145.645 248.878 150.833 247.839C151.644 247.626 151.242 246.522 150.532 246.508C147.483 246.449 144.409 246.791 141.351 247.01ZM100.4 248.924C105.672 249.222 112.86 249.204 117.855 247.969C118.631 247.778 118.285 246.677 117.575 246.677C116.865 246.677 116.125 246.702 115.401 246.728C114.267 243.95 112.881 241.128 110.142 239.628C105.735 237.22 101.082 240.696 98.0533 243.76C94.1445 247.719 96.3621 248.696 100.4 248.924ZM43.7529 186.589C43.9284 186.579 44.0932 186.502 44.2131 186.374C44.333 186.245 44.3987 186.076 44.3966 185.9C44.3944 185.724 44.3245 185.556 44.2015 185.431C44.0784 185.306 43.9117 185.232 43.7361 185.227C36.6817 185.414 29.6918 183.84 23.3983 180.648C14.0981 175.647 8.53875 168.144 5.09474 158.4C10.8095 157.69 20.0117 157.255 28.0547 159.543C40.2347 163.005 45.2257 171.303 47.5217 182.949C47.6617 183.665 48.8853 183.581 48.8195 182.825C46.7979 159.417 25.7867 154.577 5.71494 156.731C3.49734 156.971 3.03954 157.095 3.92154 159.422C5.92458 165.142 9.03861 170.409 13.0845 174.922C20.5269 182.687 32.8847 187.979 43.7529 186.589ZM275.898 250.445C243.116 249.605 25.2113 250.496 10.9383 251.016C10.2579 251.041 10.2383 252.195 10.9285 252.216C28.1849 252.749 45.4931 252.414 62.7551 252.378C80.0172 252.342 256.515 252.466 275.887 251.867C276.693 251.843 276.707 250.464 275.898 250.445ZM67.3513 247.352C69.2551 237.969 70.6733 228.494 71.6003 218.964C73.5813 218.813 73.8096 218.6 74.2142 216.523C74.5929 214.819 74.8622 213.092 75.0206 211.354C75.1746 208.879 75.5329 207.798 72.7035 207.738C61.0471 207.481 46.8581 207.372 35.3389 208.158C35.1815 208.168 35.0342 208.239 34.9281 208.356C34.8219 208.473 34.7652 208.626 34.7697 208.784C34.7742 208.942 34.8397 209.092 34.9524 209.202C35.065 209.313 35.2161 209.375 35.3739 209.377C47.9291 210.168 61.3131 208.607 73.4539 209.678C73.4361 212.219 73.1394 214.75 72.5692 217.225C60.1091 218.089 48.2665 217.966 35.8093 217.813C34.985 215.224 34.3648 212.573 33.9543 209.887C33.8339 209.175 32.6341 209.201 32.6523 209.957C32.7524 212.692 33.2601 215.398 34.1587 217.984C34.6109 219.339 35.6035 219.554 37.0497 219.544C48.2497 219.468 58.9037 219.786 70.1514 219.068C68.9893 230.012 67.2113 237.209 66.0213 245.559C65.5999 248.504 67.0252 249.089 67.3513 247.352ZM96.9613 190.855C97.6193 190.869 97.8853 189.808 97.1825 189.665C92.9475 188.803 88.1708 188.504 84.598 191.404C80.1362 195.024 81.8189 202.453 82.6114 207.514C84.1051 217.043 89.0513 237.633 92.8146 247.503C93.1267 248.322 94.4623 247.783 94.2327 246.985C91.2381 236.516 86.8281 221.491 84.4804 207.33C83.905 203.855 82.6379 197.939 84.2003 194.748C86.4977 190.086 92.6787 190.758 96.9613 190.855ZM37.0091 221.969C37.3801 227.328 40.0373 242.409 42.0043 247.066C42.0815 247.214 42.208 247.331 42.362 247.396C42.516 247.46 42.6877 247.469 42.8474 247.42C43.0071 247.371 43.1448 247.268 43.2365 247.129C43.3283 246.989 43.3683 246.822 43.3497 246.656C41.3183 238.403 39.8945 232.236 38.2551 221.754C38.1319 220.966 36.9587 221.196 37.0091 221.969ZM52.9691 170.517C53.0551 170.651 53.1895 170.747 53.3444 170.785C53.4994 170.822 53.6628 170.799 53.8007 170.719C53.9386 170.639 54.0403 170.509 54.0847 170.356C54.129 170.203 54.1126 170.038 54.0387 169.897C50.6794 163.906 49.5863 156.907 50.9587 150.177C52.0116 145.429 54.32 141.05 57.6428 137.499C60.9657 133.948 65.1812 131.354 69.849 129.989C71.5211 135.999 71.9536 142.286 71.1201 148.469C69.4905 159.13 65.2598 164.793 58.5537 172.528C58.0568 173.102 58.8603 173.988 59.4735 173.508C63.8023 170.17 67.7489 163.885 69.8461 158.864C73.5197 150.07 74.3976 139.033 71.2797 129.913C70.6959 128.202 70.5182 128.076 68.834 128.603C62.857 130.497 57.6501 134.268 53.9855 139.356C50.7535 143.869 48.9317 149.238 48.7503 154.786C48.5689 160.333 50.036 165.81 52.9663 170.524L52.9691 170.517ZM53.2281 206.021C53.2435 206.805 54.5833 206.816 54.6113 206.021C54.6365 205.33 54.6636 204.637 54.6925 203.944C60.8932 190.777 67.0461 183.592 78.3133 174.524C78.8453 174.096 78.1733 173.09 77.5462 173.404C69.0299 177.678 58.7987 191.223 54.8787 200.049C55.7803 180.681 57.3694 166.757 62.2553 147.361C62.4346 146.653 61.2403 146.322 61.0065 147.029C56.4187 160.95 54.0611 179.728 53.3583 194.394C48.0831 182.459 37.3185 172.907 25.4353 167.881C24.6863 167.565 24.2803 168.721 25.0055 169.06C37.8855 174.94 47.3383 185.494 53.2267 198.197C53.1665 200.801 53.1763 203.405 53.2253 206.021H53.2281Z" fill="#38A1FF"/>
<path d="M149.682 172.277C148.534 173.774 147.575 173.943 146.836 176.077C146.28 177.741 146.353 179.55 147.04 181.164C147.104 181.308 147.109 181.471 147.055 181.619C147.001 181.767 146.892 181.888 146.75 181.957C146.609 182.027 146.447 182.039 146.297 181.991C146.147 181.944 146.021 181.84 145.946 181.702C145.413 180.787 145.077 179.771 144.958 178.72C144.839 177.668 144.941 176.603 145.255 175.592C145.748 174.01 147.298 171.626 149.016 171.266C149.143 171.244 149.273 171.259 149.391 171.31C149.51 171.361 149.61 171.445 149.681 171.553C149.752 171.66 149.79 171.786 149.79 171.915C149.79 172.043 149.753 172.169 149.682 172.277ZM153.647 175.545C153.718 175.458 153.764 175.353 153.781 175.242C153.798 175.131 153.785 175.018 153.743 174.914C153.702 174.809 153.633 174.718 153.545 174.649C153.456 174.58 153.351 174.536 153.24 174.521C151.436 174.456 149.93 176.925 149.66 178.488C149.49 179.447 149.605 180.435 149.989 181.33C150.373 182.225 151.01 182.989 151.821 183.527C151.951 183.62 152.111 183.659 152.269 183.637C152.426 183.615 152.569 183.533 152.669 183.408C152.768 183.284 152.815 183.126 152.801 182.967C152.787 182.809 152.713 182.661 152.594 182.556C152.077 182.07 151.683 181.467 151.446 180.798C151.209 180.129 151.135 179.413 151.231 178.71C151.6 176.589 153.066 176.115 153.647 175.545ZM198.923 169.604C198.783 168.791 197.523 168.883 197.523 169.66C197.558 174.999 195.758 180.551 186.487 182.388C176.298 184.267 165.777 182.135 157.123 176.438C156.997 176.349 156.841 176.314 156.688 176.339C156.536 176.364 156.4 176.449 156.309 176.574C156.218 176.699 156.181 176.855 156.204 177.007C156.227 177.16 156.309 177.297 156.433 177.39C164.825 183.858 176.453 186.092 186.792 184.158C194.521 182.709 200.392 178.352 198.923 169.604ZM159.771 185.389C158.684 185.492 143.413 185.938 142.373 185.418C141.333 184.897 137.193 171.616 136.189 158.771C135.901 155.071 135.321 153.366 130.813 152.702C127.162 152.163 98.3904 152.432 95.8326 152.702C93.6346 152.933 91.9644 153.797 92.1464 158.196C92.579 168.654 98.0992 188.296 101.076 189.896C104.312 191.631 155.804 191.185 159.64 190.415C162.804 189.78 162.228 185.158 159.771 185.389ZM114.297 167.44C110.195 167.588 111.279 176.26 116.205 176.067C120.61 175.899 119.486 167.252 114.297 167.44ZM122.252 227.882C122.063 227.182 120.974 227.454 121.023 228.151C121.143 229.838 122.29 235.671 122.813 238.393C122.918 238.942 123.862 238.654 123.954 238.15C124.171 236.961 122.682 229.48 122.252 227.882ZM129.918 227.742C129.561 227.182 128.594 227.574 128.835 228.232C130.015 231.001 130.956 233.867 131.647 236.796C131.787 237.478 132.886 237.307 132.861 236.59C132.525 233.463 131.522 230.445 129.921 227.738L129.918 227.742ZM145.815 236.49C144.855 233.727 144.346 230.829 144.308 227.905C144.295 227.761 144.231 227.626 144.128 227.525C144.025 227.424 143.889 227.362 143.745 227.352C143.601 227.342 143.458 227.384 143.341 227.47C143.225 227.555 143.143 227.68 143.111 227.821C142.759 230.544 143.017 233.311 143.867 235.923C144.707 238.615 146.587 240.894 146.143 243.763C146.111 243.922 146.138 244.087 146.219 244.228C146.299 244.369 146.428 244.476 146.581 244.53C146.734 244.584 146.901 244.581 147.052 244.522C147.203 244.462 147.328 244.35 147.403 244.206C148.807 241.72 146.672 238.774 145.815 236.485V236.49ZM109.508 228.11C109.434 227.986 109.319 227.891 109.182 227.844C109.045 227.796 108.896 227.799 108.761 227.852C108.626 227.905 108.514 228.004 108.446 228.132C108.378 228.259 108.357 228.407 108.388 228.549C108.895 230.929 111.035 235.505 109.602 237.649C109.538 237.757 109.507 237.882 109.514 238.008C109.52 238.133 109.564 238.254 109.638 238.356C109.712 238.457 109.815 238.534 109.933 238.578C110.051 238.622 110.179 238.63 110.302 238.602C113.24 237.65 110.688 229.901 109.508 228.106V228.11ZM122.367 215.715C120.725 209.265 118.825 198.383 124.194 193.245C115.809 193.12 108.82 192.965 107.089 192.965C103.909 192.965 100.026 193.718 99.0526 198.256C97.8612 203.816 102.058 216.433 106.162 225.623C111.607 225.943 117.068 225.924 122.511 225.565C122.246 222.287 122.196 218.995 122.361 215.711L122.367 215.715ZM127.289 193.288C118.329 199.112 124.783 218.273 127.47 225.908C133.28 226.234 139.104 226.214 144.911 225.848C144.252 223.016 144.135 215.329 145.407 213.71C146.678 212.092 150.498 212.247 156.201 212.323C156.243 205.734 155.929 195.819 159.916 192.697C156.362 193.501 140.71 193.461 127.289 193.284V193.288ZM178.809 163.923C170.307 167.226 165.855 166.093 157.249 165.693C151.329 165.413 143.171 166.975 141.554 173.785C141.512 173.939 141.533 174.104 141.611 174.244C141.689 174.384 141.818 174.487 141.972 174.533C142.125 174.579 142.29 174.563 142.432 174.489C142.574 174.415 142.681 174.288 142.731 174.136C145.425 167.111 153.651 166.963 159.985 167.532C166.318 168.102 173.755 168.622 179.403 165.043C179.552 164.966 179.664 164.832 179.714 164.671C179.765 164.511 179.749 164.337 179.672 164.188C179.594 164.039 179.46 163.927 179.3 163.876C179.139 163.826 178.965 163.841 178.816 163.919L178.809 163.923ZM176.583 132.199C169.971 126.778 168.087 114.846 165.466 109.188C160.255 97.9315 149.07 94.4203 137.504 97.0201C128.488 99.0459 128.612 108.696 141.89 107.584C148.972 106.991 152.348 105.204 152.373 105.192C153.168 108.299 156.635 113.049 157.043 112.171C158.043 110.018 160.156 110.928 160.5 112.907C161 115.78 159.43 117.228 157.801 117.165C157.22 117.142 160.115 127.224 160.836 129.105C161.025 129.598 161.655 129.515 162.109 129.525C167.051 129.58 171.947 130.484 176.583 132.199ZM174.732 93.5439C167.497 87.8753 154.753 81.5403 145.531 80.9999C144.928 80.9252 144.315 81.0047 143.75 81.2309C135.35 83.5479 123.411 89.4083 116.73 94.9621C116.319 95.3037 116.642 95.8945 117.066 96.0219C121.56 97.1901 125.991 98.5892 130.341 100.213C131.149 100.552 131.488 99.2643 130.718 98.9325C126.817 97.3062 122.776 96.0377 118.646 95.1427C126.141 90.1685 136.237 84.0505 145.041 82.2221C153.636 82.7583 165.945 88.6537 172.834 93.8575C167.802 94.9212 162.845 96.3106 157.994 98.0169C157.852 98.0714 157.735 98.1784 157.67 98.3159C157.604 98.4534 157.593 98.6109 157.639 98.7561C157.686 98.9013 157.786 99.0231 157.92 99.0966C158.054 99.17 158.21 99.1894 158.358 99.1509C164.059 97.6319 168.689 96.0205 174.482 94.8739C174.613 94.8311 174.731 94.7537 174.822 94.6497C174.914 94.5458 174.976 94.4192 175.001 94.2832C175.027 94.1472 175.015 94.0068 174.968 93.8767C174.921 93.7466 174.839 93.6317 174.732 93.5439ZM116.025 117.039C117.098 119.391 117.658 121.944 117.668 124.529C117.596 125.192 116.648 125.163 116.443 124.609C116.123 123.735 116.002 122.623 115.714 121.678C115.609 123.368 115.648 125.054 115.556 126.741C115.562 126.902 115.504 127.059 115.396 127.179C115.288 127.298 115.137 127.371 114.976 127.381C114.815 127.391 114.656 127.338 114.534 127.233C114.412 127.127 114.335 126.978 114.321 126.818C114.122 125.154 114.032 123.48 114.052 121.804C113.572 122.966 113.203 124.17 112.95 125.401C112.919 125.551 112.829 125.683 112.701 125.767C112.572 125.851 112.416 125.88 112.266 125.849C112.116 125.818 111.984 125.728 111.9 125.599C111.816 125.471 111.786 125.314 111.818 125.164C112.104 122.736 112.693 120.354 113.569 118.072C113.949 117.38 115.298 115.87 116.025 117.039ZM116.175 97.3981C116.222 97.2651 116.316 97.1535 116.438 97.0832C116.561 97.013 116.704 96.9888 116.843 97.0149C116.982 97.041 117.107 97.1159 117.196 97.2259C117.284 97.3359 117.331 97.4739 117.327 97.6151C116.442 103.181 116.025 108.812 116.079 114.447C116.079 115.276 114.847 115.172 114.819 114.373C114.639 108.682 115.094 102.988 116.175 97.3981ZM139.31 90.8685C139.189 90.3183 138.239 90.2021 138.167 90.8083C138.059 91.7211 137.985 94.7031 138.008 95.5795C138.005 95.7483 138.068 95.9115 138.183 96.035C138.298 96.1584 138.456 96.2324 138.625 96.2415C138.793 96.2506 138.959 96.1939 139.087 96.0836C139.214 95.9732 139.294 95.8176 139.31 95.6495C139.417 94.0576 139.417 92.4604 139.31 90.8685ZM152.562 90.0285C148.795 88.2815 144.534 87.9105 140.522 88.9799C140.446 88.9991 140.374 89.0338 140.311 89.0818C140.249 89.1298 140.197 89.1901 140.158 89.259C140.12 89.3279 140.096 89.4039 140.088 89.4823C140.08 89.5608 140.088 89.6401 140.112 89.7152C140.136 89.7904 140.175 89.8599 140.226 89.9195C140.278 89.9791 140.341 90.0275 140.412 90.0617C140.483 90.0958 140.561 90.1151 140.64 90.1183C140.718 90.1216 140.797 90.1086 140.871 90.0803C144.713 89.3492 148.687 89.8113 152.26 91.4047C152.062 92.9681 152.04 94.5488 152.194 96.1171C152.199 96.2864 152.271 96.4468 152.394 96.563C152.517 96.6792 152.682 96.7416 152.851 96.7366C153.02 96.7316 153.181 96.6595 153.297 96.5363C153.413 96.413 153.476 96.2486 153.471 96.0793C153.226 90.8853 154.025 90.8321 152.562 90.0285ZM150.057 129.396C152.206 128.455 154.11 127.033 155.622 125.24C156.07 124.729 155.263 124.016 154.763 124.442C152.274 126.553 149.67 129.049 146.126 128.67C142.353 128.265 141.257 124.421 140.474 121.3C140.288 120.555 139.128 120.74 139.286 121.514C140.042 125.181 141.443 129.243 145.649 129.94C146.712 130.111 147.8 130.06 148.842 129.788C149.034 131.03 148.814 132.233 148.912 133.288C148.937 133.431 149.012 133.559 149.124 133.65C149.236 133.741 149.377 133.789 149.521 133.785C149.665 133.78 149.803 133.724 149.909 133.626C150.015 133.528 150.082 133.395 150.098 133.252C150.243 131.97 150.229 130.674 150.057 129.395V129.396ZM152.048 120.03C152.01 119.887 151.922 119.762 151.799 119.679C151.677 119.595 151.528 119.559 151.381 119.576C151.233 119.593 151.097 119.662 150.997 119.771C150.897 119.881 150.839 120.022 150.834 120.17C151.057 122.387 148.905 122.901 147.229 123.351C147.085 123.393 146.962 123.489 146.886 123.619C146.811 123.749 146.789 123.904 146.826 124.05C146.862 124.196 146.953 124.322 147.081 124.402C147.209 124.482 147.362 124.509 147.509 124.478C149.622 124.281 152.675 123.234 152.048 120.029V120.03ZM145.351 119.66C144.902 119.787 144.429 119.803 143.973 119.706C144.163 119.039 144.361 118.378 144.516 117.704C144.561 117.557 144.545 117.398 144.473 117.263C144.401 117.127 144.278 117.026 144.132 116.98C143.985 116.935 143.826 116.95 143.69 117.021C143.554 117.092 143.452 117.214 143.406 117.361C143.168 118.005 142.957 118.659 142.773 119.321C142.694 119.491 142.658 119.677 142.667 119.864C142.677 120.051 142.732 120.233 142.827 120.394C142.923 120.556 143.056 120.691 143.216 120.789C143.375 120.887 143.556 120.945 143.743 120.957C144.428 121.089 145.134 121.05 145.8 120.844C145.886 120.821 145.966 120.78 146.034 120.724C146.103 120.667 146.16 120.598 146.2 120.519C146.24 120.439 146.264 120.353 146.269 120.264C146.273 120.175 146.26 120.087 146.228 120.004C146.197 119.921 146.148 119.845 146.086 119.782C146.023 119.719 145.948 119.669 145.866 119.637C145.783 119.604 145.695 119.589 145.606 119.593C145.517 119.597 145.43 119.619 145.351 119.658V119.66ZM140.288 116.93C140.256 116.421 140.045 115.851 139.458 115.809C137.982 115.709 138.552 118.423 139.706 118.286C140.326 118.215 140.319 117.39 140.288 116.928V116.93ZM148.681 114.151C148.644 114.015 148.576 113.889 148.483 113.784C148.39 113.678 148.274 113.595 148.145 113.54C148.015 113.485 147.875 113.46 147.734 113.467C147.594 113.474 147.456 113.513 147.333 113.581C147.105 113.768 146.951 114.03 146.898 114.32C146.845 114.61 146.896 114.909 147.042 115.166C147.666 116.614 149.5 116.266 148.681 114.151ZM154.533 111.14C153.452 110.85 152.313 110.848 151.231 111.134C148.958 106.495 143.881 107.232 144.28 112.756C143.966 112.71 143.646 112.729 143.34 112.812C143.034 112.895 142.749 113.04 142.502 113.239C142.268 112.531 141.859 111.893 141.313 111.387C140.766 110.88 140.099 110.52 139.375 110.341C136.039 109.798 135.422 114.235 136.015 116.641C136.479 118.513 137.917 120.492 140.085 120.224C143.343 119.82 142.71 114.863 142.805 114.736C142.965 114.467 143.211 114.26 143.502 114.148C143.793 114.035 144.114 114.022 144.413 114.113C144.833 116.416 146.653 119.13 149.339 118.493C151.919 117.881 152.279 114.412 151.673 112.295C152.588 112.197 153.51 112.191 154.427 112.276C154.552 112.25 154.666 112.185 154.751 112.089C154.836 111.994 154.888 111.873 154.9 111.746C154.911 111.618 154.881 111.49 154.814 111.381C154.747 111.272 154.646 111.188 154.528 111.14H154.533ZM149.336 117.086C151.203 116.211 150.596 112.713 149.903 111.433C149.357 110.419 148.011 108.854 146.699 109.48C145.558 110.023 145.243 111.675 145.579 113.288C146.107 115.909 147.239 118.066 149.331 117.086H149.336ZM141.478 114.538C141.236 113.017 140.458 111.64 138.94 111.598C137.009 111.548 136.858 114.841 137.148 116.203C137.408 117.418 138.372 119.06 139.833 118.953C141.606 118.824 141.645 115.629 141.473 114.538H141.478Z" fill="#191919"/>
</svg>
