<svg width="28" height="29" viewBox="0 0 28 29" fill="none" xmlns="http://www.w3.org/2000/svg">
<path d="M3.82071 18.8074C2.82912 17.5192 2.33333 16.8751 2.33333 14.9625C2.33333 13.0499 2.82912 12.4058 3.82071 11.1175C5.80062 8.5453 9.12113 5.62915 14 5.62915C18.8789 5.62915 22.1994 8.5453 24.1793 11.1175C25.1709 12.4058 25.6667 13.0499 25.6667 14.9625C25.6667 16.8751 25.1709 17.5192 24.1793 18.8074C22.1994 21.3797 18.8789 24.2958 14 24.2958C9.12113 24.2958 5.80063 21.3797 3.82071 18.8074Z" stroke="black" stroke-width="1.5"/>
<path d="M17.5 14.9624C17.5 16.8954 15.933 18.4624 14 18.4624C12.067 18.4624 10.5 16.8954 10.5 14.9624C10.5 13.0294 12.067 11.4624 14 11.4624C15.933 11.4624 17.5 13.0294 17.5 14.9624Z" fill="black" stroke="black"/>
</svg>
