<svg width="28" height="29" viewBox="0 0 28 29" fill="none" xmlns="http://www.w3.org/2000/svg">
<path d="M3.02237 8.74826C2.8592 8.36754 2.41829 8.19118 2.03757 8.35434C1.65685 8.51751 1.48048 8.95842 1.64365 9.33914L3.02237 8.74826ZM18.1847 16.4272L17.91 15.7293L17.91 15.7293L18.1847 16.4272ZM10.4433 16.8362C10.6692 16.489 10.5708 16.0245 10.2237 15.7985C9.87647 15.5726 9.41189 15.671 9.18598 16.0181L10.4433 16.8362ZM7.5377 18.5513C7.3118 18.8985 7.41011 19.3631 7.7573 19.589C8.10449 19.8149 8.56907 19.7166 8.79498 19.3694L7.5377 18.5513ZM26.3557 9.33914C26.5189 8.95842 26.3425 8.51751 25.9618 8.35434C25.5811 8.19118 25.1401 8.36754 24.977 8.74826L26.3557 9.33914ZM22.1663 13.8607L21.6531 13.3138V13.3138L22.1663 13.8607ZM23.386 16.141C23.6789 16.4339 24.1538 16.4339 24.4467 16.141C24.7396 15.8481 24.7396 15.3732 24.4467 15.0803L23.386 16.141ZM13.2497 20.127C13.2497 20.5412 13.5855 20.877 13.9997 20.877C14.4139 20.877 14.7497 20.5412 14.7497 20.127H13.2497ZM19.2044 19.3694C19.4303 19.7166 19.8949 19.8149 20.242 19.589C20.5892 19.3631 20.6876 18.8985 20.4616 18.5513L19.2044 19.3694ZM6.36334 14.391C6.65623 14.0981 6.65623 13.6232 6.36334 13.3303C6.07044 13.0375 5.59557 13.0375 5.30268 13.3303L6.36334 14.391ZM3.55268 15.0803C3.25978 15.3732 3.25978 15.8481 3.55268 16.141C3.84557 16.4339 4.32044 16.4339 4.61334 16.141L3.55268 15.0803ZM13.9997 16.4604C10.1925 16.4604 7.461 14.5633 5.65344 12.6167C4.74988 11.6436 4.08772 10.6682 3.65196 9.93613C3.4345 9.5708 3.27459 9.26805 3.17017 9.0592C3.11799 8.95484 3.07975 8.8741 3.05518 8.82092C3.0429 8.79433 3.03405 8.77466 3.02859 8.76238C3.02586 8.75624 3.02398 8.75195 3.02294 8.74958C3.02243 8.74839 3.02212 8.74768 3.02202 8.74746C3.02197 8.74735 3.02198 8.74736 3.02204 8.74749C3.02207 8.74756 3.02215 8.74775 3.02216 8.74779C3.02226 8.74801 3.02237 8.74826 2.33301 9.0437C1.64365 9.33914 1.64378 9.33946 1.64393 9.3398C1.644 9.33996 1.64416 9.34034 1.6443 9.34065C1.64457 9.34128 1.6449 9.34204 1.64528 9.34292C1.64604 9.34467 1.64701 9.34692 1.64821 9.34966C1.6506 9.35514 1.65386 9.36257 1.658 9.37188C1.66629 9.3905 1.67808 9.41668 1.69343 9.44992C1.72413 9.51637 1.76906 9.61108 1.82853 9.73002C1.94741 9.96779 2.12475 10.3031 2.36302 10.7034C2.83872 11.5025 3.56197 12.5688 4.55425 13.6374C6.53835 15.7741 9.64023 17.9604 13.9997 17.9604V16.4604ZM17.91 15.7293C16.764 16.1804 15.4647 16.4604 13.9997 16.4604V17.9604C15.6612 17.9604 17.1465 17.6419 18.4594 17.1251L17.91 15.7293ZM9.18598 16.0181L7.5377 18.5513L8.79498 19.3694L10.4433 16.8362L9.18598 16.0181ZM25.6663 9.0437C24.977 8.74826 24.977 8.74811 24.9771 8.74797C24.9771 8.74794 24.9772 8.74781 24.9772 8.74774C24.9773 8.74761 24.9773 8.74751 24.9773 8.74745C24.9774 8.74734 24.9774 8.74737 24.9773 8.74756C24.9771 8.74794 24.9767 8.74893 24.976 8.75052C24.9746 8.75369 24.9722 8.75926 24.9686 8.76713C24.9616 8.78288 24.9503 8.80783 24.9347 8.84131C24.9035 8.90827 24.8551 9.00921 24.7891 9.13861C24.657 9.39756 24.4551 9.76942 24.1804 10.2102C23.6298 11.0939 22.7941 12.2428 21.6531 13.3138L22.6796 14.4075C23.9402 13.2243 24.8546 11.9647 25.4535 11.0035C25.7536 10.5218 25.9764 10.1121 26.1253 9.82009C26.1998 9.67401 26.256 9.55713 26.2942 9.47513C26.3133 9.43413 26.328 9.40183 26.3382 9.37893C26.3433 9.36748 26.3473 9.35838 26.3502 9.35172C26.3517 9.34839 26.3529 9.34567 26.3538 9.34357C26.3542 9.34252 26.3546 9.34163 26.3549 9.34089C26.3551 9.34052 26.3552 9.34019 26.3554 9.3399C26.3554 9.33975 26.3555 9.33956 26.3556 9.33949C26.3556 9.33931 26.3557 9.33914 25.6663 9.0437ZM21.6531 13.3138C20.6419 14.2629 19.3993 15.1431 17.91 15.7293L18.4594 17.1251C20.1609 16.4553 21.5608 15.4577 22.6796 14.4075L21.6531 13.3138ZM21.636 14.391L23.386 16.141L24.4467 15.0803L22.6967 13.3303L21.636 14.391ZM13.2497 17.2104V20.127H14.7497V17.2104H13.2497ZM17.5561 16.8362L19.2044 19.3694L20.4616 18.5513L18.8134 16.0181L17.5561 16.8362ZM5.30268 13.3303L3.55268 15.0803L4.61334 16.141L6.36334 14.391L5.30268 13.3303Z" fill="#4D4D4D"/>
</svg>
