<svg width="136" height="136" viewBox="0 0 136 136" fill="none" xmlns="http://www.w3.org/2000/svg">
<path opacity="0.2" d="M11.3335 63.75C11.3335 47.3195 22.7502 34 36.8335 34C50.9168 34 62.3335 47.3195 62.3335 63.75V113.333H23.9847C16.9976 113.333 11.3335 106.725 11.3335 98.5736V63.75Z" fill="#FFB500"/>
<path opacity="0.5" d="M62.3335 63.75V113.333H79.3335H85.0002H112.161C119.068 113.333 124.667 106.801 124.667 98.7433V63.75C124.667 47.3195 113.25 34 99.1668 34H36.8335C50.9168 34 62.3335 47.3195 62.3335 63.75Z" fill="#FFB500"/>
<path d="M53.8335 113.333V124.667C53.8335 127.014 55.7363 128.917 58.0835 128.917C60.4307 128.917 62.3335 127.014 62.3335 124.667V113.333H53.8335Z" fill="#FFB500"/>
<path d="M85.0002 113.333H76.5002V124.667C76.5002 127.014 78.403 128.917 80.7502 128.917C83.0974 128.917 85.0002 127.014 85.0002 124.667V113.333Z" fill="#FFB500"/>
<path fill-rule="evenodd" clip-rule="evenodd" d="M24.0835 90.6665C24.0835 88.3193 25.9863 86.4165 28.3335 86.4165H45.3335C47.6807 86.4165 49.5835 88.3193 49.5835 90.6665C49.5835 93.0137 47.6807 94.9165 45.3335 94.9165H28.3335C25.9863 94.9165 24.0835 93.0137 24.0835 90.6665Z" fill="#FFB500"/>
<path fill-rule="evenodd" clip-rule="evenodd" d="M98.5127 37.3135L99.9637 37.023C102.32 36.5514 104.755 36.7766 106.994 37.6729C110.906 39.2392 115.184 39.5318 119.259 38.5119L119.608 38.4247C122.575 37.6821 124.667 34.9238 124.667 31.7525V19.6796C124.667 15.4986 120.903 12.4184 116.991 13.3974C114.744 13.9596 112.386 13.7983 110.23 12.9349L109.816 12.7691C106.206 11.3238 102.278 10.9607 98.4791 11.7212L95.9366 12.2302C92.8773 12.8426 90.6665 15.6244 90.6665 18.8614V58.2576C90.6665 60.5086 92.4229 62.3335 94.5896 62.3335C96.7562 62.3335 98.5127 60.5086 98.5127 58.2576V37.3135Z" fill="#FFB500"/>
</svg>
