<svg width="260" height="260" viewBox="0 0 260 260" fill="none" xmlns="http://www.w3.org/2000/svg">
<path d="M160.055 102.817C161.069 102.042 162.26 101.531 163.521 101.329C164.782 101.127 166.072 101.242 167.278 101.662C165.166 93.8616 163.017 85.0216 157.671 79.1248C156.95 78.3656 152.579 73.9248 147.162 73.0928C144.112 72.6676 141.008 72.8394 138.024 73.5985C134.376 74.4656 133.546 75.2599 132.534 76.777C131.395 78.6458 130.381 80.5884 129.5 82.5919C130.394 82.5919 136.809 79.2704 143.983 81.0384C152.471 83.0976 154.204 87.9726 155.396 90.1033C157.179 94.2535 158.734 98.4978 160.055 102.817Z" fill="#38A1FF"/>
<path d="M90.712 103.287C90.062 103.317 89.4471 103.323 88.7971 103.323C88.4721 102.456 88.1471 101.589 87.7857 100.758C87.4971 100.072 86.4129 99.8912 86.2335 100.758C86.0541 101.625 85.8721 102.456 85.655 103.287C84.745 103.25 83.8129 103.214 82.9107 103.143C82.7187 103.151 82.5345 103.22 82.385 103.341C82.2354 103.462 82.1285 103.627 82.08 103.813C82.0314 103.999 82.0437 104.195 82.1151 104.374C82.1864 104.552 82.3131 104.703 82.4765 104.804C83.2357 105.2 83.9936 105.598 84.7164 106.031C84.3055 106.841 84.0598 107.725 83.9936 108.631C83.8129 109.318 84.8243 109.822 85.4028 109.353C86.0879 108.847 86.7379 108.313 87.4243 107.8C88.0392 108.233 88.6164 108.703 89.23 109.172C89.8449 109.678 91.0721 109.208 90.712 108.306C90.4221 107.511 90.0971 106.716 89.802 105.958C90.2349 105.633 90.712 105.272 91.1384 104.947C91.7585 104.406 91.6506 103.243 90.712 103.287Z" fill="#38A1FF"/>
<path d="M79.6586 104.154C78.9342 104.165 78.211 104.214 77.4915 104.298C77.2757 103.719 77.1015 103.142 76.9143 102.564C76.8609 102.38 76.7492 102.218 76.5961 102.103C76.443 101.988 76.2568 101.926 76.0654 101.926C75.8739 101.926 75.6877 101.988 75.5346 102.103C75.3815 102.218 75.2699 102.38 75.2165 102.564C75.0722 103.25 74.8915 103.936 74.7108 104.586C73.8004 104.701 72.884 104.762 71.9665 104.767C71.0994 104.767 70.6301 106.104 71.4959 106.5C72.1823 106.826 72.9051 107.15 73.5915 107.476C73.2279 108.223 73.0074 109.031 72.9415 109.859C72.9445 109.988 72.9855 110.112 73.0593 110.217C73.1331 110.323 73.2364 110.403 73.3562 110.45C73.476 110.496 73.6068 110.506 73.7322 110.478C73.8576 110.451 73.9719 110.386 74.0608 110.293C74.7836 109.751 75.5051 109.282 76.2279 108.704C76.8779 108.992 77.5279 109.317 78.1779 109.614C78.3547 109.708 78.557 109.742 78.755 109.713C78.953 109.683 79.1363 109.59 79.2778 109.449C79.4193 109.307 79.5116 109.124 79.5411 108.926C79.5705 108.728 79.5356 108.525 79.4415 108.349C79.151 107.839 78.874 107.321 78.6108 106.796C79.1165 106.399 79.5871 106.037 80.1279 105.677C80.2786 105.579 80.3931 105.434 80.4543 105.265C80.5154 105.095 80.5199 104.911 80.4669 104.739C80.4139 104.567 80.3064 104.416 80.1606 104.311C80.0147 104.205 79.8385 104.15 79.6586 104.154Z" fill="#38A1FF"/>
<path d="M67.8131 104.442C67.0552 104.492 66.3324 104.55 65.5732 104.587C65.2118 103.864 64.8504 103.106 64.4903 102.383C64.1653 101.697 63.2254 101.987 63.0096 102.564C62.7496 103.287 62.5039 104.045 62.2504 104.774C61.2754 104.846 60.3004 104.882 59.3254 104.918C58.6026 104.955 58.1333 106.074 58.9276 106.399C59.614 106.724 60.3368 107.013 61.0583 107.338C60.7188 108.056 60.4527 108.806 60.264 109.578C60.2121 109.731 60.2084 109.897 60.2534 110.052C60.2984 110.208 60.3899 110.346 60.5157 110.448C60.6415 110.55 60.7955 110.612 60.9571 110.624C61.1186 110.636 61.2801 110.598 61.4197 110.516C61.4561 110.48 63.4425 109.145 64.1289 108.674C64.9232 109.035 65.6811 109.397 66.4403 109.795C66.5916 109.881 66.767 109.915 66.9397 109.892C67.1123 109.868 67.2724 109.789 67.3955 109.666C67.5186 109.543 67.5977 109.382 67.6208 109.21C67.6439 109.037 67.6096 108.862 67.5232 108.71C67.271 108.133 66.9824 107.555 66.7289 106.941C67.2346 106.616 67.7403 106.291 68.246 105.93C68.3947 105.837 68.509 105.698 68.5715 105.534C68.634 105.37 68.6413 105.191 68.5923 105.022C68.5433 104.854 68.4407 104.706 68.3 104.602C68.1594 104.497 67.9884 104.441 67.8131 104.442Z" fill="#38A1FF"/>
<path d="M211.16 38.638C210.545 38.6068 209.932 38.5652 209.355 38.5652C209.065 37.663 208.813 36.7595 208.524 35.8573C208.475 35.689 208.373 35.541 208.233 35.4357C208.093 35.3304 207.922 35.2734 207.747 35.2734C207.572 35.2734 207.401 35.3304 207.261 35.4357C207.121 35.541 207.019 35.689 206.97 35.8573C206.717 36.688 206.465 37.4823 206.248 38.313C205.382 38.2051 204.558 38.1323 203.684 37.988C203.479 37.9411 203.264 37.968 203.076 38.064C202.889 38.1599 202.741 38.3188 202.659 38.5127C202.578 38.7066 202.567 38.9232 202.628 39.1244C202.69 39.3256 202.821 39.4986 202.998 39.613C203.719 40.0472 204.406 40.523 205.092 40.9858C204.615 41.8075 204.309 42.7163 204.19 43.6586C204.19 43.8029 204.695 45.0301 205.417 44.4165C206.127 43.8693 206.875 43.3745 207.657 42.9358C208.234 43.4415 208.813 43.9472 209.39 44.4958C209.529 44.6313 209.71 44.7172 209.903 44.7405C210.096 44.7638 210.292 44.7232 210.46 44.6249C210.627 44.5265 210.759 44.3759 210.833 44.196C210.907 44.0161 210.92 43.8169 210.87 43.6287C210.655 42.8344 210.401 42.0687 210.185 41.2809C210.655 40.9559 211.16 40.6309 211.63 40.3059C211.79 40.1995 211.913 40.0448 211.98 39.8642C212.047 39.6836 212.055 39.4864 212.003 39.3009C211.951 39.1155 211.841 38.9514 211.69 38.8322C211.538 38.7131 211.353 38.6451 211.16 38.638Z" fill="#38A1FF"/>
<path d="M200.108 38.6741C199.387 38.6234 198.7 38.6377 197.978 38.6377C197.797 38.0241 197.653 37.4092 197.508 36.7956C197.455 36.6117 197.343 36.4502 197.19 36.3353C197.037 36.2203 196.851 36.1582 196.659 36.1582C196.468 36.1582 196.282 36.2203 196.129 36.3353C195.976 36.4502 195.864 36.6117 195.81 36.7956C195.63 37.4456 195.42 38.0956 195.197 38.7105C194.258 38.7516 193.317 38.7395 192.38 38.6741C192.179 38.6805 191.985 38.7513 191.828 38.876C191.67 39.0007 191.556 39.1728 191.504 39.3668C191.451 39.5609 191.462 39.7667 191.536 39.954C191.609 40.1412 191.74 40.3 191.91 40.407C192.597 40.8048 193.318 41.2026 194.005 41.5991C193.707 42.3009 193.43 43.0114 193.174 43.7298C192.957 44.3798 193.824 44.7776 194.293 44.3798C194.403 44.2719 195.853 43.2605 196.353 42.9355C197.003 43.2969 197.689 43.6947 198.339 44.0548C198.516 44.146 198.717 44.1786 198.914 44.1481C199.11 44.1175 199.292 44.0253 199.433 43.8847C199.573 43.7441 199.666 43.5624 199.697 43.3658C199.727 43.1693 199.695 42.9681 199.604 42.7912C199.35 42.2855 199.133 41.7434 198.916 41.2377C199.458 40.8776 200 40.5526 200.542 40.2263C201.3 39.8298 200.904 38.73 200.108 38.6741Z" fill="#38A1FF"/>
<path d="M188.63 39.1075H186.42C186.131 38.386 185.842 37.6996 185.553 36.9768C185.336 36.3983 184.397 36.0668 184.072 36.7961L183.097 39.0711C182.122 39.0711 181.111 39.036 180.136 38.9996C179.963 39.003 179.796 39.0625 179.66 39.1691C179.524 39.2757 179.426 39.4236 179.381 39.5906C179.336 39.7575 179.347 39.9346 179.411 40.095C179.475 40.2555 179.59 40.3907 179.738 40.4803C180.388 40.8417 181.074 41.2031 181.724 41.5281C181.374 42.209 181.061 42.9081 180.786 43.6224C180.71 43.7777 180.685 43.9531 180.715 44.1233C180.745 44.2935 180.828 44.4499 180.952 44.5701C181.077 44.6903 181.236 44.7681 181.407 44.7924C181.578 44.8167 181.752 44.7862 181.905 44.7053C181.942 44.6702 183.964 43.5145 184.687 43.1167L186.962 44.4167C187.1 44.4955 187.259 44.532 187.417 44.5216C187.576 44.5113 187.728 44.4545 187.855 44.3585C187.982 44.2624 188.078 44.1312 188.131 43.9812C188.184 43.8311 188.191 43.6689 188.153 43.5145C187.937 42.8645 187.684 42.2145 187.431 41.5645C187.972 41.2759 188.514 40.9509 189.056 40.6623C189.205 40.5635 189.319 40.4202 189.382 40.253C189.444 40.0857 189.453 39.903 189.405 39.7308C189.358 39.5586 189.258 39.4056 189.119 39.2937C188.979 39.1818 188.808 39.1167 188.63 39.1075Z" fill="#38A1FF"/>
<path d="M167.062 40.4798C167.712 40.8334 168.398 41.2026 169.048 41.5276C168.699 42.2088 168.385 42.9079 168.108 43.6219C168.032 43.7774 168.007 43.953 168.037 44.1235C168.067 44.294 168.15 44.4506 168.275 44.5709C168.399 44.6912 168.559 44.7689 168.73 44.793C168.902 44.8171 169.076 44.7862 169.229 44.7048C170.149 44.1638 171.076 43.6343 172.01 43.1162L174.285 44.4162C174.423 44.4954 174.581 44.5322 174.74 44.5221C174.899 44.5119 175.052 44.4552 175.179 44.3591C175.306 44.263 175.402 44.1316 175.455 43.9813C175.508 43.8311 175.515 43.6686 175.477 43.514C175.26 42.864 175.007 42.214 174.754 41.564C175.296 41.2754 175.838 40.9504 176.38 40.6618C176.535 40.5655 176.655 40.4216 176.721 40.2516C176.787 40.0817 176.796 39.8949 176.747 39.7192C176.698 39.5435 176.594 39.3884 176.449 39.2771C176.305 39.1658 176.128 39.1043 175.946 39.1018H173.743C173.454 38.3803 173.165 37.6939 172.877 36.9711C172.66 36.3939 171.72 36.0689 171.395 36.7904L170.421 39.0654C169.446 39.0654 168.435 39.0303 167.458 38.9939C167.287 39.0014 167.122 39.0634 166.989 39.1708C166.855 39.2783 166.759 39.4256 166.715 39.5914C166.671 39.7571 166.68 39.9327 166.743 40.0924C166.805 40.2522 166.917 40.388 167.062 40.4798Z" fill="#38A1FF"/>
<path d="M172.408 107.584C171.633 106.373 170.611 105.339 169.409 104.55C164.589 101.11 158.48 105.212 157.744 110.69C157.456 113.001 157.239 117.372 159.225 120.7C160.178 122.38 161.747 123.625 163.6 124.17C165.453 124.716 167.445 124.52 169.157 123.625C174.148 121.077 175.153 112.202 172.408 107.584ZM170.711 118.894C170.601 118.993 170.466 119.058 170.32 119.083C170.175 119.107 170.026 119.09 169.889 119.034C169.753 118.977 169.636 118.883 169.551 118.762C169.467 118.642 169.418 118.499 169.411 118.352C169.483 116.439 170.206 114.668 170.098 112.718C170.099 111.676 169.891 110.644 169.488 109.683C169.085 108.722 168.494 107.85 167.751 107.12C167.136 106.578 167.969 105.526 168.618 106.001C169.556 106.705 170.342 107.594 170.925 108.612C171.509 109.631 171.879 110.758 172.012 111.924C172.336 114.122 172.299 117.155 170.711 118.889V118.894Z" fill="#38A1FF"/>
<path d="M107.9 52.29C106.528 47.74 77.9264 49.8447 74.4905 50.5922C73.6299 50.6815 72.8394 51.1075 72.2915 51.7771C71.7436 52.4468 71.4826 53.3059 71.5655 54.1672C71.5083 57.3821 70.6269 70.529 71.1313 73.8518C71.9269 79.1961 76.7304 78.8711 81.0282 79.0154C83.4839 79.0882 93.9216 78.9075 93.9216 78.9075C102.112 84.7822 100.908 84.1283 101.072 83.9645C101.216 82.8803 100.385 78.7996 102.154 78.5461C102.877 78.4382 106.417 78.4382 107.104 77.2825C108.734 74.5733 108.228 53.3001 107.9 52.29ZM81.4286 66.3001C80.9461 66.347 80.4645 66.2033 80.0867 65.8996C79.7089 65.5959 79.4649 65.1564 79.4071 64.6751C79.4081 64.3474 79.4975 64.0261 79.666 63.745C79.8344 63.4639 80.0756 63.2335 80.3641 63.0781C80.6527 62.9228 80.9778 62.8482 81.3051 62.8622C81.6325 62.8763 81.9501 62.9785 82.2242 63.158C82.5262 63.3514 82.7596 63.6349 82.8915 63.9683C83.0234 64.3017 83.047 64.6682 82.9589 65.0158C82.8709 65.3634 82.6758 65.6745 82.4011 65.905C82.1264 66.1355 81.7862 66.2737 81.4286 66.3001ZM89.8084 66.3001C88.147 66.3001 87.822 65.3615 87.7856 64.6751C87.7866 64.3474 87.876 64.0261 88.0445 63.745C88.2129 63.4639 88.4541 63.2335 88.7426 63.0781C89.0311 62.9228 89.3563 62.8482 89.6837 62.8622C90.011 62.8763 90.3286 62.9785 90.6027 63.158C90.9038 63.3518 91.1365 63.6352 91.2679 63.9683C91.3993 64.3014 91.4228 64.6674 91.335 65.0146C91.2473 65.3617 91.0527 65.6726 90.7788 65.9032C90.5049 66.1339 90.1654 66.2727 89.8084 66.3001ZM98.0075 66.3001C96.2369 66.3001 96.0198 65.3615 95.9847 64.6751C95.9863 64.3478 96.0761 64.0271 96.2447 63.7465C96.4132 63.466 96.6543 63.2362 96.9426 63.0811C97.2308 62.9261 97.5555 62.8517 97.8824 62.8657C98.2094 62.8796 98.5266 62.9815 98.8005 63.1606C99.0983 63.356 99.3278 63.6395 99.457 63.9714C99.5862 64.3033 99.6088 64.6673 99.5216 65.0126C99.4343 65.358 99.2416 65.6676 98.9703 65.8983C98.6989 66.1291 98.3624 66.2695 98.0075 66.3001Z" fill="#38A1FF"/>
<path d="M252.911 109.721C252.955 109.294 252.915 108.862 252.792 108.45C252.669 108.038 252.465 107.655 252.193 107.323C251.921 106.99 251.586 106.715 251.207 106.513C250.827 106.311 250.412 106.186 249.984 106.146C246.59 105.423 217.95 103.329 216.574 107.879C216.286 108.89 215.78 130.163 217.369 132.871C218.055 134.027 221.594 134.027 222.316 134.136C224.266 134.414 223.126 139.388 223.437 139.698C223.437 139.626 230.985 135.292 230.985 135.292C230.985 135.292 240.988 134.677 243.445 134.605C247.743 134.461 252.545 134.75 253.341 129.441C253.849 126.113 252.968 112.971 252.911 109.721ZM228.495 120.231C228.422 120.916 228.207 122.001 226.472 121.856C226.119 121.831 225.783 121.695 225.511 121.468C225.239 121.241 225.045 120.935 224.957 120.591C224.883 120.266 224.902 119.926 225.011 119.611C225.12 119.295 225.315 119.016 225.574 118.805C225.832 118.594 226.145 118.46 226.476 118.417C226.807 118.373 227.143 118.423 227.448 118.561C227.771 118.699 228.045 118.932 228.232 119.229C228.419 119.527 228.511 119.875 228.495 120.226V120.231ZM236.658 120.231C236.585 120.916 236.441 121.856 234.635 121.856C234.278 121.844 233.935 121.713 233.66 121.484C233.385 121.255 233.195 120.941 233.118 120.591C233.047 120.266 233.067 119.928 233.177 119.613C233.287 119.299 233.482 119.022 233.741 118.812C233.999 118.602 234.311 118.469 234.641 118.426C234.971 118.383 235.307 118.433 235.61 118.57C235.932 118.707 236.205 118.939 236.392 119.235C236.579 119.531 236.672 119.876 236.658 120.226V120.231ZM245.073 120.268C245.001 120.953 244.604 121.856 243.015 121.893C242.657 121.865 242.317 121.725 242.044 121.493C241.77 121.26 241.578 120.947 241.493 120.598C241.409 120.249 241.437 119.882 241.574 119.55C241.711 119.218 241.95 118.938 242.256 118.751C242.529 118.569 242.847 118.464 243.174 118.449C243.502 118.433 243.828 118.507 244.118 118.662C244.407 118.817 244.649 119.048 244.817 119.33C244.985 119.612 245.074 119.934 245.073 120.263V120.268Z" fill="#38A1FF"/>
<path d="M130.728 124.054C130.151 124.014 129.934 124.776 130.259 125.137C133.003 128.135 139.035 125.066 138.969 121.272C138.963 121.117 138.908 120.969 138.812 120.847C138.716 120.726 138.583 120.639 138.434 120.599C138.284 120.558 138.126 120.567 137.981 120.623C137.837 120.68 137.715 120.781 137.632 120.912C137.05 122.169 136.091 123.214 134.888 123.902C133.472 124.631 132.21 124.15 130.728 124.054Z" fill="#191919"/>
<path d="M127.4 91.2237C126.825 91.6969 127.436 92.6316 128.123 92.4509C130.181 91.8009 131.553 93.2816 131.517 95.3109C131.459 97.7653 129.177 101.054 127.4 108.458C126.677 111.383 124.908 119.546 130.506 118.896C131.084 118.823 131.336 117.921 130.65 117.776C126.244 116.873 128.881 109.939 129.639 107.158C131.564 100.342 135.175 95.5215 132.348 91.9166C132.074 91.5395 131.726 91.2215 131.326 90.9815C130.927 90.7415 130.483 90.5845 130.021 90.5199C129.559 90.4552 129.089 90.4842 128.639 90.6051C128.189 90.7261 127.767 90.9364 127.4 91.2237Z" fill="#191919"/>
<path d="M141.166 104.407C142.935 104.593 145.464 103.107 145.246 101.084C145.24 100.921 145.183 100.765 145.082 100.637C144.982 100.509 144.843 100.417 144.687 100.373C144.53 100.329 144.364 100.335 144.211 100.392C144.059 100.448 143.928 100.552 143.839 100.687C143.224 101.59 142.754 102.601 141.491 102.637C140.89 102.615 140.317 102.376 139.879 101.965C139.441 101.553 139.167 100.996 139.108 100.397C139.101 100.244 139.035 100.1 138.924 99.9937C138.813 99.8877 138.665 99.8286 138.512 99.8286C138.358 99.8286 138.211 99.8877 138.1 99.9937C137.989 100.1 137.923 100.244 137.916 100.397C137.846 101.354 138.143 102.301 138.747 103.045C139.351 103.79 140.216 104.277 141.166 104.407Z" fill="#191919"/>
<path d="M128.7 100.108C128.697 99.9825 128.662 99.8601 128.598 99.7525C128.533 99.645 128.442 99.556 128.333 99.4942C128.224 99.4324 128.101 99.3999 127.975 99.3999C127.85 99.3999 127.727 99.4324 127.618 99.4942C127.22 99.71 126.895 100.181 126.353 100.071C125.847 99.9635 125.666 99.4214 125.522 98.9885C125.495 98.8955 125.441 98.8125 125.367 98.7498C125.294 98.6872 125.203 98.6475 125.107 98.6359C125.011 98.6243 124.913 98.6411 124.827 98.6844C124.74 98.7277 124.668 98.7955 124.62 98.8793C124.499 99.1429 124.435 99.429 124.432 99.719C124.429 100.009 124.488 100.296 124.604 100.562C124.72 100.828 124.89 101.066 125.104 101.262C125.319 101.457 125.572 101.605 125.847 101.696C126.936 102.094 128.785 101.479 128.7 100.108Z" fill="#191919"/>
<path d="M139.541 93.1007C143.039 92.2492 145.608 94.4735 147.378 97.1463C147.47 97.2967 147.614 97.4086 147.783 97.4617C147.952 97.5147 148.134 97.5052 148.296 97.435C148.458 97.3647 148.59 97.2385 148.666 97.0792C148.743 96.92 148.76 96.7384 148.714 96.5678C148.064 92.3792 142.72 90.7178 139.216 91.9814C139.076 92.031 138.959 92.1325 138.891 92.2651C138.823 92.3978 138.808 92.5514 138.85 92.6946C138.891 92.8378 138.986 92.9596 139.115 93.0351C139.243 93.1106 139.396 93.1341 139.541 93.1007Z" fill="#191919"/>
<path d="M118.375 135.9C120.325 136.94 123.684 136.731 124.299 135.069C125.671 131.349 121.663 128.243 117.834 129.76C116.421 127.906 115.479 125.737 115.089 123.439C114.4 119.47 115.7 116.109 116.75 112.352C116.931 111.702 116.064 111.413 115.704 111.919C111.585 117.589 112.164 126.185 116.462 131.602C116.269 132.429 116.352 133.296 116.697 134.072C117.043 134.848 117.632 135.489 118.375 135.9Z" fill="#191919"/>
<path d="M247.097 234.86C244.304 234.772 241.511 234.711 238.717 234.679C239.367 224.783 240.234 214.887 240.415 204.955C240.413 204.815 240.38 204.678 240.316 204.553C240.253 204.429 240.162 204.32 240.05 204.237C239.939 204.153 239.809 204.096 239.672 204.07C239.535 204.045 239.394 204.051 239.259 204.089C235.963 205.138 232.532 205.707 229.074 205.779C225.586 205.776 222.113 205.315 218.745 204.407C218.616 204.372 218.48 204.367 218.348 204.391C218.216 204.416 218.091 204.471 217.984 204.551C217.876 204.631 217.788 204.734 217.726 204.853C217.664 204.972 217.63 205.104 217.626 205.238C217.647 215.114 218.578 224.967 220.407 234.673C217.584 234.701 187.996 234.626 153.548 234.526C168.154 233.737 185.448 227.822 196.172 217.878C195.73 222.99 194.787 228.047 193.355 232.975C193.138 233.769 194.403 234.384 194.763 233.553C195.898 230.669 196.699 227.663 197.148 224.596C197.831 221.847 198.087 219.009 197.906 216.181C202.181 211.826 205.423 206.566 207.392 200.79C209.361 195.014 210.007 188.869 209.282 182.809C207.791 167.894 201.742 156.888 188.371 149.221C190.573 148.613 192.554 147.384 194.078 145.681C194.883 144.781 195.466 143.704 195.78 142.537C196.094 141.371 196.129 140.147 195.883 138.964C195.305 136.688 193.355 135.454 191.333 134.521C189.115 133.47 187.247 131.802 185.953 129.717C181.257 122.892 183.207 113.899 183.171 109.601C183.026 95.0409 182.774 73.9172 167.858 66.1159C159.262 61.601 146.26 62.2874 140.879 71.208C143.072 70.9636 145.289 71.0614 147.452 71.4979C151.918 72.2341 155.97 74.5545 158.865 78.0343C161.777 81.4504 163.998 85.4003 165.402 89.6641C166.594 92.9141 169.266 102.882 169.266 102.882C170.894 103.829 172.27 105.155 173.275 106.747C176.388 112.149 175.208 122.065 169.556 124.986C167.88 125.879 165.949 126.172 164.084 125.817C162.219 125.462 160.53 124.481 159.299 123.036C158.539 127.588 158.937 132.258 160.454 136.616C161.537 139.722 162.693 143.045 165.221 145.031C163.324 146.115 153.887 154.117 150.486 156.047C146.513 158.286 139.108 161.609 137.7 154.927C137.556 154.205 136.472 154.53 136.581 155.215C138.387 164.965 150.491 158.105 155.217 154.999C157.022 153.807 163.741 148.065 165.547 146.873C171.577 142.864 180.246 146.981 185.843 150.015C192.388 153.343 197.915 158.373 201.844 164.575C205.645 171.476 207.621 179.234 207.586 187.112C207.694 202.57 198.918 215.537 185.808 223.192C178.876 227.091 171.346 229.814 163.524 231.252C155.434 232.877 146.802 233.491 138.824 231.143C138.023 227.343 138.036 223.417 138.86 219.622C144.133 220.766 149.609 220.56 154.782 219.024C159.954 217.489 164.656 214.674 168.451 210.839C172.246 207.004 175.013 202.273 176.494 197.085C177.976 191.897 178.125 186.419 176.927 181.158C176.638 179.714 174.399 180.327 174.723 181.772C175.829 186.744 175.648 191.916 174.197 196.798C172.747 201.681 170.075 206.113 166.433 209.675C162.792 213.236 158.302 215.81 153.389 217.153C148.476 218.496 143.301 218.563 138.354 217.347C138.087 217.278 137.802 217.314 137.56 217.448C137.318 217.582 137.137 217.805 137.054 218.069C136.773 219.228 136.543 220.399 136.368 221.579C134.379 220.277 132.14 219.404 129.795 219.015C123.93 217.758 120.241 220.163 115.168 223.385C112.63 224.741 110.213 226.312 107.943 228.08C107.474 228.513 107.98 229.453 108.593 229.2C116.019 226.111 121.101 218.679 129.721 220.677C131.94 221.32 134.112 222.117 136.221 223.06C135.972 225.629 136.104 228.222 136.611 230.753C137.009 232.776 137.442 232.884 139.393 233.389C141.811 233.998 144.281 234.377 146.771 234.522L134.931 234.487C135.133 234.259 135.286 233.994 135.383 233.706C135.479 233.418 135.516 233.114 135.492 232.811C135.506 231.871 135.228 230.95 134.697 230.175C133.83 229.307 114.726 230.319 106.671 229.994C103.746 224.035 100.892 218.034 98.0024 212.045C104.703 209.718 110.696 205.715 115.411 200.415C115.481 205.915 116.859 214.829 119.926 219.123C120.504 219.918 121.876 219.485 121.551 218.437C120.612 215.295 119.023 212.405 118.301 209.155C116.202 199.005 117.497 188.447 121.985 179.105C122.066 178.962 122.087 178.791 122.043 178.632C121.999 178.473 121.893 178.338 121.749 178.256C121.606 178.175 121.436 178.154 121.276 178.198C121.117 178.242 120.982 178.348 120.901 178.492C117.647 184.256 115.78 190.699 115.447 197.309C110.59 203.182 104.363 207.771 97.316 210.672C94.6081 205.038 91.8989 199.362 89.1546 193.733C95.0527 187.518 102.415 174.636 109.488 167.152C119.456 156.533 127.619 153.788 130.327 152.994C138.057 150.826 139.718 153.138 139.862 152.163C140.289 149.499 140.446 146.799 140.332 144.103C140.346 142.11 140.128 140.121 139.682 138.179C143.835 137.277 147.194 133.846 146.544 129.114C146.435 128.283 145.135 128.537 145.099 129.295C144.998 130.857 144.406 132.348 143.407 133.555C142.408 134.761 141.054 135.621 139.537 136.012C137.858 136.314 136.131 136.213 134.498 135.717C132.865 135.221 131.374 134.345 130.146 133.159C125.668 129.187 123.176 122.793 122.02 117.051C120.862 111.267 121.114 105.289 122.755 99.6229C124.397 93.9569 127.379 88.7697 131.45 84.5005C131.551 84.4 131.607 84.2637 131.607 84.1215C131.607 83.9794 131.551 83.8431 131.45 83.7426C131.35 83.6421 131.213 83.5856 131.071 83.5856C130.929 83.5856 130.793 83.6421 130.692 83.7426C126.812 87.4704 123.802 92.0095 121.879 97.0353C119.956 102.061 119.167 107.45 119.568 112.816C120.218 122.351 125.028 136.762 136.111 138.242C136.77 138.32 137.434 138.344 138.097 138.314C138.166 142.233 139.106 142.066 138.349 150.234C138.313 150.234 138.313 150.197 138.278 150.197C133.04 149.042 127.154 151.317 122.566 153.736C111.496 159.546 104.566 169.257 97.6059 179.235C94.6081 183.533 91.4296 187.685 88.2875 191.875C86.9511 189.095 78.7897 173.415 77.5612 173.025C76.2872 172.614 17.7612 173.583 11.178 174.831C7.92799 175.445 10.8179 179.996 11.6122 181.765C18.6543 197.91 38.4819 234.134 38.5222 234.171C31.5867 234.063 24.8722 233.99 17.899 233.919C17.7411 233.919 17.5896 233.981 17.478 234.093C17.3663 234.205 17.3036 234.356 17.3036 234.514C17.3036 234.672 17.3663 234.823 17.478 234.935C17.5896 235.047 17.7411 235.109 17.899 235.109C76.3366 237.906 232.303 236.82 247.023 236.194C247.114 236.205 247.206 236.197 247.294 236.172C247.382 236.146 247.464 236.102 247.535 236.043C247.605 235.984 247.663 235.912 247.704 235.83C247.745 235.748 247.769 235.658 247.774 235.566C247.779 235.475 247.765 235.383 247.733 235.297C247.702 235.211 247.652 235.132 247.589 235.066C247.525 235 247.449 234.947 247.364 234.912C247.28 234.876 247.189 234.859 247.097 234.86ZM236.911 234.679C231.856 234.643 226.799 234.679 221.778 234.715C220.384 225.35 219.6 215.903 219.432 206.435C222.597 207.227 225.847 207.628 229.11 207.627C232.315 207.57 235.497 207.084 238.573 206.183C238.356 215.717 237.526 225.18 236.911 234.679Z" fill="#191919"/>
<path d="M53.7633 201.63C53.2576 201.125 51.5247 199.86 50.1155 201.125C47.9848 203.002 51.1633 207.805 53.6255 207.661C57.5203 207.447 54.7032 202.354 53.7633 201.63Z" fill="#38A1FF"/>
<path d="M222.573 203.943C222.225 200.226 222.283 196.143 221.345 192.53C221.296 192.366 221.191 192.225 221.048 192.132C220.905 192.039 220.733 191.999 220.564 192.021C220.395 192.043 220.238 192.124 220.123 192.25C220.009 192.377 219.942 192.54 219.937 192.711C219.864 196.431 220.839 200.441 221.345 204.124C221.453 204.81 222.641 204.666 222.573 203.943Z" fill="#191919"/>
<path d="M227.557 203.799C227.029 197.884 226.763 192.061 226.798 186.102C226.77 185.882 226.663 185.68 226.497 185.533C226.331 185.387 226.117 185.306 225.895 185.306C225.674 185.306 225.46 185.387 225.293 185.533C225.127 185.68 225.02 185.882 224.992 186.102C224.653 192.096 225.114 198.108 226.365 203.979C226.411 204.116 226.504 204.231 226.627 204.306C226.749 204.381 226.895 204.41 227.037 204.389C227.179 204.367 227.309 204.296 227.404 204.188C227.499 204.08 227.554 203.942 227.557 203.799Z" fill="#191919"/>
<path d="M234.022 203.258C234.68 199.642 234.997 195.89 235.358 192.242C235.939 188.392 236.253 184.506 236.297 180.612C236.292 180.41 236.215 180.216 236.08 180.065C235.945 179.914 235.76 179.817 235.559 179.791C235.358 179.765 235.155 179.811 234.985 179.922C234.816 180.033 234.692 180.201 234.635 180.395C233.978 184.048 233.556 187.739 233.372 191.445C233.01 195.31 232.541 199.21 232.541 203.075C232.541 203.872 233.87 204.088 234.022 203.258Z" fill="#191919"/>
<path d="M251.72 33.907C251.575 31.2342 252.008 27.9478 249.553 26.25C246.23 23.9737 241.354 23.7215 237.49 23.4329C225.11 22.3929 204.063 23.7956 199.79 24.6965C197.84 25.0943 197.046 26.9715 196.793 28.8136C196.63 30.6643 196.63 32.5257 196.793 34.3763C196.802 34.6003 196.897 34.8123 197.059 34.9677C197.22 35.1231 197.436 35.2099 197.66 35.2099C197.884 35.2099 198.1 35.1231 198.261 34.9677C198.423 34.8123 198.518 34.6003 198.526 34.3763C198.526 32.5342 197.913 26.8272 199.934 26.4658C211.37 25.0106 222.909 24.5274 234.426 25.0215C238.689 25.2386 243.526 25.4193 247.465 27.1886C247.931 27.328 248.36 27.5687 248.722 27.8935C249.084 28.2182 249.37 28.619 249.559 29.0671C249.559 30.0369 251.449 58.8644 250.136 62.7995C249.415 65.0745 245.803 66.1951 243.6 66.2315C239.22 66.3745 226.329 65.6309 220.2 65.4723C218.683 65.4359 210.412 74.5723 210.412 74.5723C210.412 74.5723 210.304 69.5881 210.232 67.096C210.227 66.9529 210.19 66.8127 210.124 66.6856C210.058 66.5585 209.964 66.4477 209.85 66.3613C209.736 66.2749 209.604 66.215 209.464 66.1861C209.323 66.1571 209.179 66.1597 209.039 66.1938C205.897 66.6631 202.105 66.7346 199.505 64.604C197.952 63.3403 198.025 61.0653 197.988 59.2232C197.88 55.1777 198.711 50.7733 197.88 46.7627C197.771 46.1491 196.725 46.2934 196.797 46.907C197.265 51.8913 195.785 56.9482 196.436 61.9675C197.194 67.746 203.442 68.6131 208.389 68.1074C208.462 71.1416 208.57 74.1758 208.643 77.2074C208.65 77.4039 208.719 77.5931 208.841 77.7474C208.962 77.9018 209.13 78.0132 209.32 78.0656C209.509 78.118 209.71 78.1085 209.894 78.0386C210.078 77.9686 210.234 77.8419 210.341 77.6767C213.172 73.8964 216.379 70.412 219.911 67.2767C220.127 67.3131 231.36 67.8188 236.741 67.9631C241.473 68.1074 248.769 69.0825 251.586 64.0267C253.21 61.1004 251.917 37.2064 251.72 33.907Z" fill="#191919"/>
<path d="M210.511 62.5109C210.521 62.6572 210.586 62.7944 210.693 62.8946C210.8 62.9948 210.941 63.0506 211.088 63.0506C211.235 63.0506 211.376 62.9948 211.483 62.8946C211.59 62.7944 211.655 62.6572 211.665 62.5109C212.199 52.4683 215.876 48.7309 221.164 46.6912C221.778 46.4754 221.778 45.3912 220.984 45.464C217.661 45.7162 214.916 48.2083 213.184 50.924C210.944 54.421 210.529 58.4302 210.511 62.5109Z" fill="#191919"/>
<path d="M216.253 53.9153C215.602 56.8383 215.192 59.8096 215.025 62.7995C215.03 62.9614 215.092 63.1165 215.2 63.2371C215.308 63.3577 215.456 63.4358 215.616 63.4575C215.777 63.4792 215.94 63.4432 216.076 63.3557C216.212 63.2683 216.313 63.1351 216.36 62.9802C216.921 60.0372 217.247 57.0543 217.335 54.0596C217.372 53.4811 216.357 53.3368 216.253 53.9153Z" fill="#191919"/>
<path d="M239.836 53.3007C242.021 49.337 240.378 44.5907 237.597 41.3823C237.128 40.8402 236.369 41.5266 236.659 42.1038C237.995 44.7402 239.62 47.5209 239.005 50.5915C238.501 53.12 235.213 56.8393 232.686 53.9858C232.598 53.9011 232.484 53.8473 232.363 53.8326C232.242 53.8179 232.119 53.843 232.013 53.9041C231.907 53.9653 231.824 54.0592 231.776 54.1717C231.728 54.2842 231.718 54.4092 231.747 54.5279C231.885 54.9712 232.119 55.3784 232.433 55.72C232.189 57.1331 231.79 61.115 232.288 62.48C232.325 62.605 232.401 62.7149 232.505 62.7931C232.609 62.8712 232.736 62.9135 232.866 62.9135C232.996 62.9135 233.123 62.8712 233.227 62.7931C233.331 62.7149 233.407 62.605 233.444 62.48C233.616 60.4864 233.676 58.4847 233.625 56.4844C235.72 57.1656 238.799 55.1844 239.836 53.3007Z" fill="#191919"/>
<path d="M233.299 51.206C235.373 49.9294 236.947 47.3775 236.08 44.8854C236.044 44.7724 235.969 44.6758 235.869 44.6129C235.768 44.5501 235.649 44.5251 235.531 44.5425C235.414 44.5599 235.307 44.6184 235.228 44.7077C235.15 44.797 235.107 44.9111 235.105 45.0297C235.138 45.8609 234.983 46.6887 234.651 47.4516C234.32 48.2146 233.821 48.8931 233.192 49.4367C232.465 48.2824 231.499 47.298 230.359 46.5501C229.218 45.8023 227.93 45.3086 226.582 45.1025C226.521 45.0854 226.456 45.0807 226.393 45.0885C226.329 45.0963 226.268 45.1165 226.212 45.148C226.157 45.1795 226.108 45.2217 226.068 45.2721C226.029 45.3225 226 45.3802 225.983 45.4418C225.966 45.5034 225.961 45.5678 225.969 45.6313C225.977 45.6948 225.997 45.7561 226.029 45.8117C226.06 45.8674 226.102 45.9163 226.153 45.9556C226.203 45.995 226.261 46.024 226.322 46.0411C227.589 46.4095 228.767 47.0319 229.785 47.8702C230.803 48.7085 231.64 49.7453 232.245 50.9174C232.293 51.0078 232.359 51.0873 232.439 51.1512C232.519 51.2152 232.611 51.2621 232.71 51.2891C232.809 51.3161 232.912 51.3227 233.013 51.3084C233.115 51.2941 233.212 51.2593 233.299 51.206Z" fill="#191919"/>
<path d="M232.613 43.7296C230.719 41.5833 228.479 46.4024 231.386 46.4024C236.441 46.4024 237.849 37.3375 236.911 35.134C236.261 33.5818 233.697 33.0761 233.226 35.0976C233.168 35.3829 233.193 35.6791 233.3 35.9501C233.407 36.2211 233.59 36.4551 233.827 36.6237C234.065 36.7923 234.346 36.8881 234.637 36.8994C234.928 36.9108 235.216 36.8371 235.466 36.6875C235.466 36.9397 235.213 41.2739 232.613 43.7296Z" fill="#191919"/>
<path d="M214.988 42.8626C215.311 43.2656 215.73 43.5823 216.205 43.7846C216.681 43.9869 217.199 44.0684 217.714 44.022C218.228 43.9755 218.724 43.8025 219.155 43.5184C219.587 43.2342 219.942 42.8477 220.188 42.3933C220.531 42.9907 221.025 43.4871 221.621 43.8323C222.217 44.1775 222.894 44.3593 223.583 44.3593C224.272 44.3593 224.948 44.1775 225.544 43.8323C226.14 43.4871 226.635 42.9907 226.978 42.3933C227.055 42.7236 227.241 43.0182 227.506 43.2291C227.772 43.44 228.101 43.5548 228.44 43.5548C228.779 43.5548 229.108 43.44 229.374 43.2291C229.64 43.0182 229.826 42.7236 229.903 42.3933C230.167 42.2618 230.39 42.0617 230.551 41.814C230.711 41.5663 230.801 41.2801 230.813 40.9854C231.104 40.8441 231.332 40.5992 231.452 40.2987C231.572 39.9981 231.576 39.6636 231.463 39.3604C231.499 39.1693 231.499 38.973 231.463 38.7819C231.662 38.5629 231.809 38.3016 231.893 38.0175C231.977 37.7335 231.995 37.4342 231.946 37.1421C231.897 36.85 231.783 36.5728 231.612 36.3312C231.44 36.0897 231.217 35.8902 230.957 35.7477C230.819 35.6727 230.674 35.6121 230.524 35.567C230.596 35.1705 230.271 34.5205 229.332 34.592C229.229 34.4129 229.094 34.2539 228.934 34.1227C228.932 33.8899 228.876 33.6608 228.769 33.4538C228.662 33.2468 228.509 33.0676 228.321 32.9306C228.376 32.599 228.333 32.2585 228.197 31.951C228.062 31.6435 227.839 31.3826 227.556 31.2003C227.376 30.9397 227.142 30.721 226.869 30.5589C226.597 30.3968 226.293 30.2952 225.978 30.2609C225.663 30.2266 225.344 30.2605 225.043 30.3602C224.743 30.46 224.467 30.6232 224.235 30.8389C223.954 30.4925 223.578 30.2348 223.154 30.0967C222.73 29.9585 222.275 29.9459 221.844 30.0603C221.412 30.1747 221.023 30.4113 220.723 30.7415C220.423 31.0717 220.225 31.4816 220.153 31.9218C219.891 31.7619 219.594 31.6689 219.288 31.6511C218.981 31.6333 218.676 31.6912 218.397 31.8197C218.119 31.9482 217.876 32.1434 217.691 32.3879C217.506 32.6325 217.384 32.9189 217.336 33.2218C217.212 33.1139 215.429 33.3791 216.758 34.9183C216.47 35.0904 216.224 35.3245 216.038 35.6036C215.852 35.8826 215.73 36.1997 215.682 36.5317C215.633 36.8637 215.659 37.2023 215.758 37.5229C215.857 37.8436 216.026 38.1382 216.253 38.3854C215.813 38.5246 215.415 38.7709 215.094 39.1021C214.773 39.4334 214.539 39.8392 214.413 40.2831C214.288 40.727 214.275 41.1951 214.375 41.6453C214.475 42.0955 214.686 42.5138 214.988 42.8626ZM223.151 43.224C219.725 42.548 220.045 37.7341 220.118 37.5547C220.888 37.411 221.613 37.0874 222.234 36.6103C222.855 36.1331 223.355 35.516 223.693 34.8091C224.021 35.5119 224.548 36.1025 225.21 36.5071C225.872 36.9117 226.638 37.1124 227.413 37.0841C227.349 37.7442 227.325 38.4075 227.34 39.0705C227.34 39.1433 225.973 43.7804 223.151 43.224Z" fill="#191919"/>
<path d="M43.9755 140.125C48.8154 143.268 53.6553 146.445 58.3509 149.768C58.4919 149.851 58.6524 149.896 58.8162 149.898C58.98 149.899 59.1414 149.858 59.2841 149.777C59.4267 149.697 59.5457 149.58 59.629 149.439C59.7124 149.298 59.7571 149.137 59.7588 148.974C59.4702 146.193 59.1452 143.447 58.8566 140.667C64.093 142.039 70.7386 142.364 72.5807 136.009C73.4829 132.83 73.2671 129.146 73.2671 125.896C73.3022 121.778 73.3386 117.589 72.9772 113.471C72.9772 113.222 72.8783 112.983 72.7023 112.807C72.5262 112.631 72.2875 112.532 72.0386 112.532C71.7896 112.532 71.5509 112.631 71.3749 112.807C71.1989 112.983 71.1 113.222 71.1 113.471C70.9557 119.683 71.49 125.86 71.1 132.071C70.9193 135.105 70.3057 138.067 67.0908 139.221C64.1294 140.269 60.8781 139.293 57.9908 138.427C57.8466 138.389 57.6958 138.385 57.5497 138.415C57.4037 138.444 57.2662 138.506 57.1478 138.597C57.0294 138.687 56.9332 138.803 56.8664 138.937C56.7996 139.07 56.764 139.216 56.7623 139.365L57.6294 147.059C53.6566 144.35 45.4224 138.427 44.7724 138.498C39.6439 139.077 19.4224 140.377 14.5422 140.015C12.6286 139.871 10.3172 139.473 9.16147 137.74C7.78737 135.682 8.11237 104.52 8.29307 99.35C8.36457 97.1829 8.36457 94.5101 10.1352 92.9202C11.8681 91.368 14.433 91.4044 16.6001 91.368C25.8821 91.2237 65.3215 89.5987 67.5965 90.3202C70.4851 91.2237 70.7386 94.8351 70.8101 97.3272C70.8465 98.2658 72.4 98.5908 72.5807 97.5794C73.1579 93.7873 72.2921 89.4531 67.993 88.5509C65.0316 87.9087 64.9068 88.6016 18.7308 89.4895C14.9023 89.5623 9.88167 89.3452 7.71457 93.2452C6.91241 95.0377 6.5296 96.9896 6.59527 98.9522C6.45097 102.131 6.45097 131.746 6.73957 134.6C7.12957 138.916 9.04187 141.262 14.5773 141.57C17.7558 141.787 37.4027 140.884 43.9755 140.125Z" fill="#191919"/>
<path d="M50.3324 124.776C49.9477 127.879 50.2183 131.029 51.1267 134.021C51.1765 134.189 51.2841 134.333 51.4303 134.429C51.5766 134.525 51.752 134.566 51.9255 134.544C52.099 134.522 52.2591 134.44 52.3776 134.312C52.496 134.183 52.565 134.017 52.5723 133.842C52.5286 132.326 52.3594 130.816 52.0666 129.327C51.8859 127.81 51.8066 126.293 51.6324 124.777C51.6326 124.605 51.5643 124.439 51.4425 124.317C51.3207 124.195 51.1555 124.127 50.9831 124.126C50.8107 124.126 50.6453 124.195 50.5233 124.316C50.4012 124.438 50.3326 124.603 50.3324 124.776Z" fill="#191919"/>
<path d="M54.9188 121.888C57.4109 125.972 56.6088 128.923 56.9065 131.386C56.978 131.964 57.8815 132.433 58.2065 131.747C60.3983 126.746 56.3865 117.967 49.7903 115.567C49.7903 115.386 48.4552 113.869 48.021 113.147C47.9648 113.054 47.8884 112.975 47.7976 112.916C47.7067 112.857 47.6036 112.819 47.4961 112.805C47.3885 112.791 47.2792 112.801 47.1763 112.836C47.0734 112.87 46.9795 112.927 46.9017 113.002C46.2153 113.689 43.5425 114.952 43.7596 115.458C44.1679 116.613 44.6877 117.726 45.3118 118.781C45.3829 118.888 45.4795 118.976 45.5929 119.037C45.7063 119.098 45.8331 119.13 45.9618 119.13C46.0905 119.13 46.2172 119.098 46.3306 119.037C46.444 118.976 46.5406 118.888 46.6118 118.781C47.2499 117.932 48.0176 117.189 48.8868 116.579C51.328 117.789 53.4081 119.62 54.9188 121.888ZM46.1074 117.119L45.3482 115.819C46.0319 115.5 46.6748 115.1 47.2631 114.627C47.4789 114.917 47.696 115.206 47.9495 115.494C47.2848 115.976 46.668 116.52 46.1074 117.119Z" fill="#191919"/>
<path d="M40.5814 119.07C41.3094 118.208 41.8814 117.263 42.5314 116.324C42.6307 116.156 42.6599 115.956 42.6127 115.767C42.5655 115.577 42.4457 115.414 42.2792 115.313C41.5928 114.843 40.87 114.446 40.1836 114.013C39.7449 113.652 39.2245 113.404 38.6678 113.29C37.3977 113.29 37.412 114.522 36.8257 114.736C36.7654 114.755 36.7098 114.787 36.6622 114.829C36.6147 114.871 36.5762 114.923 36.549 114.98C36.5219 115.037 36.5068 115.1 36.5045 115.163C36.5022 115.227 36.5129 115.29 36.5358 115.349C35.4165 115.313 32.0573 117.733 30.938 120.116C29.864 118.807 29.3096 117.149 29.3806 115.457C29.56 115.603 29.7407 115.782 29.9578 115.928C32.7749 117.661 35.0148 115.422 34.7678 114.086C34.4064 112.28 31.9507 111.196 31.3735 113.616C30.2913 112.618 29.4617 111.377 28.9529 109.995C28.4442 108.614 28.2708 107.131 28.4472 105.669C28.4472 105.706 29.6757 106.284 30.2178 104.694C30.4156 104.321 30.4763 103.89 30.3894 103.477C30.3024 103.064 30.0733 102.694 29.7418 102.432C29.4104 102.17 28.9976 102.033 28.5753 102.044C28.153 102.055 27.748 102.213 27.4306 102.492C26.2749 103.25 26.3477 108.632 26.5648 109.932C26.4556 109.968 20.9306 118.816 25.1192 124.523C25.823 125.522 26.7892 126.307 27.911 126.791C29.0328 127.275 30.2666 127.44 31.4762 127.268C31.3971 129.97 31.5179 132.674 31.8376 135.359C31.9455 136.332 33.3898 136.405 33.3898 135.359C33.4314 132.482 33.2383 129.607 32.8126 126.762C33.4886 126.399 34.0888 125.909 34.5806 125.32C35.0148 124.742 34.2556 123.947 33.7863 124.526C33.183 125.158 32.4583 125.661 31.6556 126.007C29.0556 126.764 26.1657 124.489 25.3714 121.672C24.36 118.061 26.0214 114.846 26.9964 111.662C27.3487 112.644 27.8216 113.578 28.4043 114.443C27.9227 116 27.9482 117.67 28.4771 119.211C28.8385 120.186 29.56 121.992 30.8249 122.028C32.0521 122.065 32.667 120.873 33.0999 119.969C33.9306 118.2 37.1455 116.358 37.1819 116.214C38.0165 116.83 40.1511 119.578 40.5814 119.07ZM38.1621 115.276C38.3064 115.061 38.4507 114.736 38.5521 114.699C38.7861 114.612 39.0877 114.936 40.8635 116.18L40.3227 117.155C39.6705 116.455 38.9463 115.825 38.1621 115.276Z" fill="#191919"/>
<path d="M42.4597 118.311C42.3154 117.841 41.4483 117.589 41.4119 118.166C41.408 118.379 41.4495 118.59 41.5337 118.786C41.6178 118.981 41.7426 119.157 41.8998 119.3C42.057 119.444 42.2429 119.552 42.4453 119.618C42.6476 119.684 42.8617 119.707 43.0733 119.684C43.3083 119.672 43.5373 119.605 43.7412 119.488C43.945 119.37 44.1177 119.205 44.2449 119.007C44.3722 118.809 44.4502 118.584 44.4725 118.35C44.4948 118.115 44.4608 117.879 44.3733 117.661C44.3167 117.564 44.2319 117.487 44.1302 117.44C44.0285 117.393 43.9148 117.378 43.8045 117.398C43.6942 117.418 43.5927 117.471 43.5135 117.55C43.4343 117.629 43.3814 117.731 43.3619 117.841C43.2904 118.528 42.929 119.178 42.4597 118.311Z" fill="#191919"/>
<path d="M42.9649 134.455C43.4628 135.003 43.7956 134.383 44.1206 133.842C44.8334 133.018 45.44 132.107 45.9263 131.133C46.2825 130.002 45.6377 128.672 44.3013 120.551C44.2496 120.388 44.1399 120.251 43.9932 120.164C43.8464 120.077 43.6729 120.048 43.5057 120.081C42.7686 120.228 41.7754 120.06 41.7 120.551C41.05 123.411 40.6171 126.329 40.1114 129.218C39.8124 130.814 39.3652 130.503 42.9649 134.455ZM41.7728 127.305C42.1108 125.249 42.2785 123.188 42.5307 121.093C42.8547 121.129 43.1818 121.129 43.5057 121.093C44.2285 121.202 44.6614 128.786 44.7706 129.617C44.9864 131.177 43.3978 133.127 43.325 133.228C42.7991 132.549 42.3167 131.837 41.8807 131.097C41.0864 130.013 41.5648 128.57 41.7728 127.304V127.305Z" fill="#191919"/>
<path d="M45.7095 99.6387C45.2024 99.3638 44.621 99.2575 44.0494 99.3354C43.4779 99.4132 42.9461 99.6711 42.531 100.072C41.9543 99.7117 41.2856 99.527 40.6059 99.5399C39.9263 99.5529 39.2651 99.7628 38.7025 100.144C35.8854 102.275 37.5832 107.151 37.7639 107.548C38.3411 110.69 40.0389 113.941 43.6867 113.471C47.1187 113.038 48.2016 108.632 47.9845 105.165C48.1288 101.156 46.8288 100.254 45.7095 99.6387ZM42.9652 107.548C42.3163 107.522 41.6706 107.65 41.0805 107.921C40.4905 108.192 39.9728 108.599 39.5696 109.108C39.2521 108.23 39.0222 107.322 38.8832 106.399C39.5176 104.768 41.777 104.271 42.6038 102.824C43.831 103.762 46.4323 103.864 46.4674 105.676C46.6228 106.76 46.5619 107.865 46.288 108.926C46.2516 108.848 45.5288 107.77 42.9652 107.548Z" fill="#191919"/>
</svg>
