<svg width="416" height="222" viewBox="0 0 416 222" fill="none" xmlns="http://www.w3.org/2000/svg">
<path d="M29.4241 203.942C29.2072 204.449 29.443 205.037 29.9509 205.254C30.4588 205.471 31.0464 205.235 31.2634 204.727L29.4241 203.942ZM211.844 73.8344L211.488 74.769L211.844 73.8344ZM412.813 1.58664C412.676 1.05158 412.131 0.728795 411.596 0.86567L402.877 3.09617C402.342 3.23304 402.019 3.77775 402.156 4.31281C402.293 4.84786 402.837 5.17065 403.372 5.03377L411.123 3.05111L413.105 10.8015C413.242 11.3366 413.787 11.6594 414.322 11.5225C414.857 11.3856 415.18 10.8409 415.043 10.3059L412.813 1.58664ZM31.2634 204.727C32.7262 201.303 34.4213 197.579 36.3384 193.625L34.5387 192.753C32.6087 196.734 30.9003 200.486 29.4241 203.942L31.2634 204.727ZM47.8663 172.005C51.7757 165.273 56.1341 158.286 60.9081 151.265L59.2542 150.141C54.4519 157.203 50.0683 164.23 46.1367 171.001L47.8663 172.005ZM75.4434 131.559C80.5177 125.23 85.9141 119.05 91.6064 113.186L90.1715 111.793C84.4303 117.707 78.9923 123.936 73.8831 130.308L75.4434 131.559ZM109.612 96.6649C116.036 91.4772 122.74 86.8063 129.696 82.8335L128.704 81.0967C121.644 85.1295 114.851 89.8632 108.355 95.1089L109.612 96.6649ZM151.923 72.9884C159.643 70.5554 167.602 69.0732 175.771 68.7426L175.691 66.7442C167.331 67.0826 159.197 68.5991 151.322 71.0809L151.923 72.9884ZM199.848 71.1501C203.69 72.078 207.571 73.2779 211.488 74.769L212.199 72.8998C208.205 71.3794 204.243 70.1542 200.318 69.206L199.848 71.1501ZM211.488 74.769C215.321 76.228 219.087 77.5691 222.786 78.7971L223.417 76.899C219.745 75.6802 216.006 74.3488 212.199 72.8998L211.488 74.769ZM245.82 85.2179C254.047 87.055 261.903 88.2988 269.403 89.0179L269.594 87.027C262.18 86.3162 254.406 85.0858 246.255 83.266L245.82 85.2179ZM293.264 89.556C301.708 89.0913 309.612 87.919 317.006 86.1763L316.547 84.2297C309.269 85.9451 301.482 87.1007 293.154 87.5591L293.264 89.556ZM339.679 78.4959C347.3 75.0648 354.214 71.0229 360.473 66.6168L359.321 64.9815C353.159 69.3197 346.356 73.2968 338.858 76.6722L339.679 78.4959ZM378.739 51.1612C384.797 45.0757 389.938 38.844 394.262 32.9347L392.648 31.7537C388.374 37.5948 383.298 43.747 377.321 49.7501L378.739 51.1612ZM407.095 12.7425C408.454 10.2923 409.591 8.13874 410.522 6.37282C411.46 4.59558 412.174 3.23795 412.704 2.34428L410.983 1.32467C410.422 2.27223 409.678 3.68594 408.753 5.43981C407.822 7.20501 406.693 9.34234 405.346 11.7725L407.095 12.7425Z" fill="black"/>
<g clip-path="url(#clip0_772_18692)">
<path d="M40.7395 172.31L43.0288 169.233L61.6562 183.094L59.3668 186.17L59.3666 186.171C58.298 187.609 56.2655 187.907 54.8265 186.836L41.4056 176.85L41.4054 176.85C39.9673 175.781 39.6687 173.749 40.7395 172.31Z" fill="#BDF4A3" stroke="black"/>
<path d="M88.3714 162.681L88.4059 162.707L69.1028 188.648L34.6405 163.005L53.9437 137.063L53.9782 137.089L54.2729 136.665L53.8622 136.379C54.2729 136.665 54.2729 136.665 54.2731 136.664L54.274 136.663L54.2777 136.658L54.2933 136.635L54.3563 136.546C54.4124 136.466 54.4965 136.348 54.608 136.193C54.8311 135.882 55.1637 135.424 55.6005 134.837C56.4741 133.663 57.7646 131.973 59.429 129.912C62.7584 125.791 67.5826 120.189 73.5602 114.272C85.3917 102.56 101.696 89.6563 119.836 84.4901C120.099 103.35 112.422 122.673 104.602 137.37C100.651 144.796 96.6717 151.025 93.6802 155.398C92.1846 157.584 90.9363 159.306 90.0627 160.48C89.6259 161.067 89.2827 161.517 89.0492 161.82C88.9324 161.971 88.843 162.086 88.783 162.163L88.7153 162.249L88.6985 162.27L88.6944 162.275L88.6934 162.276C88.6932 162.277 88.6932 162.277 89.0843 162.588L88.6932 162.277L88.3714 162.681Z" fill="#BDF4A3" stroke="black"/>
<path d="M54.1393 136.32C54.1393 136.32 35.3349 128.096 18.1964 151.128L9.62712 162.645L14.8439 166.526C14.8439 166.526 28.3161 150.063 38.3547 157.533" stroke="black"/>
<path d="M88.5585 162.987C88.5585 162.987 101.838 178.636 84.6996 201.669L76.1304 213.185L70.9136 209.303C70.9136 209.303 82.8126 191.67 72.774 184.2" stroke="black"/>
<path d="M96.027 133.325C97.1667 141.092 91.7939 148.313 84.0265 149.453C76.2592 150.592 69.0386 145.219 67.8989 137.452C66.7593 129.685 72.132 122.464 79.8994 121.324C87.6667 120.185 94.8873 125.558 96.027 133.325Z" fill="#BDF4A3" stroke="black"/>
<path d="M92.5238 133.839C93.3796 139.672 89.3451 145.094 83.5125 145.949C77.6799 146.805 72.2578 142.771 71.402 136.938C70.5462 131.105 74.5807 125.683 80.4133 124.828C86.246 123.972 91.668 128.006 92.5238 133.839Z" fill="white" stroke="black"/>
<path d="M46.3591 146.42L43.4512 150.328L78.7162 176.569L81.6242 172.661L46.3591 146.42Z" fill="white"/>
<path d="M41.1227 176.939C41.2914 176.837 41.4325 176.756 41.5421 176.695L47.9986 181.499L54.4551 186.303C54.4278 186.426 54.3906 186.584 54.3415 186.775C54.2126 187.276 54.0025 188 53.6791 188.877C53.0321 190.633 51.9339 193.002 50.1315 195.447C46.5851 200.256 40.2919 205.388 29.2512 206.694C27.3307 195.743 30.438 188.241 34.026 183.463C35.8495 181.034 37.8032 179.302 39.2994 178.177C40.0471 177.616 40.6796 177.206 41.1227 176.939Z" fill="#BDF4A3" stroke="black"/>
<path d="M51.2401 186.054L46.7494 182.713L42.2588 179.372C42.2588 179.372 30.8977 185.022 33.7297 200.21C49.0919 198.562 51.2401 186.054 51.2401 186.054Z" fill="white"/>
<path d="M92.9135 137.612C88.0545 140.551 80.3892 144.486 73.2352 142.368C73.821 143.099 74.5074 143.768 75.293 144.353C80.2444 148.037 87.2432 147.01 90.9275 142.059C91.9418 140.696 92.5982 139.175 92.9138 137.614L92.9135 137.612Z" fill="white"/>
</g>
<defs>
<clipPath id="clip0_772_18692">
<rect width="121.265" height="121.265" fill="white" transform="translate(0.34375 101.439) rotate(-8.34729)"/>
</clipPath>
</defs>
</svg>
