<svg width="42" height="42" viewBox="0 0 42 42" fill="none" xmlns="http://www.w3.org/2000/svg">
<path d="M13.0425 4.74716C13.6983 3.08428 16.0517 3.08428 16.7075 4.74717L18.7399 9.90031C18.9401 10.408 19.342 10.8099 19.8497 11.0101L25.0028 13.0425C26.6657 13.6983 26.6657 16.0517 25.0028 16.7075L19.8497 18.7399C19.342 18.9401 18.9401 19.342 18.7399 19.8497L16.7075 25.0028C16.0517 26.6657 13.6983 26.6657 13.0425 25.0028L11.0101 19.8497C10.8099 19.342 10.408 18.9401 9.90031 18.7399L4.74716 16.7075C3.08428 16.0517 3.08428 13.6983 4.74717 13.0425L9.90031 11.0101C10.408 10.8099 10.8099 10.408 11.0101 9.90031L13.0425 4.74716Z" fill="#FFB500"/>
<path d="M29.6179 23.4354C29.9783 22.5215 31.2717 22.5215 31.6321 23.4354L33.2083 27.4319C33.3183 27.7109 33.5391 27.9317 33.8181 28.0417L37.8146 29.6179C38.7285 29.9783 38.7285 31.2717 37.8146 31.6321L33.8181 33.2083C33.5391 33.3183 33.3183 33.5391 33.2083 33.8181L31.6321 37.8146C31.2717 38.7285 29.9783 38.7285 29.6179 37.8146L28.0417 33.8181C27.9317 33.5391 27.7109 33.3183 27.4319 33.2083L23.4354 31.6321C22.5215 31.2717 22.5215 29.9783 23.4354 29.6179L27.4319 28.0417C27.7109 27.9317 27.9317 27.7109 28.0417 27.4319L29.6179 23.4354Z" fill="#FFB500"/>
</svg>
