<svg width="172" height="173" viewBox="0 0 172 173" fill="none" xmlns="http://www.w3.org/2000/svg">
<path d="M61.7743 66.5785C61.5911 65.2136 60.7096 65.2377 60.5359 65.7064C60.5086 65.915 60.5246 66.127 60.5829 66.3291C60.6412 66.5313 60.7405 66.7192 60.8747 66.8812C61.0872 67.2045 61.8345 67.0403 61.7743 66.5785Z" fill="#191919"/>
<path d="M54.6824 143.164C55.4213 145.632 56.9902 147.768 59.1235 149.211C59.4443 149.44 60.0953 149.679 60.2329 150.046C60.3609 150.722 60.4439 151.405 60.4814 152.092C60.46 152.679 60.603 153.261 60.8942 153.771C60.9373 153.814 60.9898 153.846 61.0476 153.866C61.1054 153.885 61.1669 153.891 61.2273 153.883C61.2877 153.874 61.3454 153.852 61.3958 153.818C61.4462 153.784 61.4879 153.738 61.5177 153.685C61.6827 153.09 61.6794 152.461 61.5083 151.868C61.4266 151.207 61.3681 150.548 61.2606 149.896C61.0998 148.914 59.9508 148.563 59.2422 148.015C57.5434 146.637 56.1527 144.917 55.1597 142.968C55.1337 142.905 55.0837 142.855 55.0205 142.828C54.9574 142.802 54.8863 142.802 54.823 142.828C54.7598 142.854 54.7094 142.904 54.683 142.967C54.6566 143.03 54.6564 143.101 54.6824 143.164Z" fill="#191919"/>
<path d="M64.2611 69.5425C64.364 69.5198 64.4554 69.4612 64.5191 69.3774C64.987 68.7169 65.3998 68.157 64.8219 67.4321C64.2139 66.6454 63.525 65.9248 62.7665 65.2821C62.7453 65.2642 62.7203 65.2516 62.6934 65.2451C62.2012 64.0093 61.6152 62.813 60.9407 61.6666C60.9168 61.6246 60.8821 61.5898 60.8401 61.566C60.9096 60.9666 60.94 60.3633 60.9312 59.76C60.9334 59.6898 60.9206 59.6199 60.8938 59.555C60.8669 59.49 60.8267 59.4315 60.7756 59.3833C60.7936 57.4569 59.2706 56.4473 57.6649 55.3654C56.6171 54.6746 55.4245 54.2338 54.1793 54.077C52.934 53.9203 51.6694 54.0519 50.4831 54.4615C45.7101 55.9588 43.6031 57.3357 41.6019 66.2521C39.7468 74.5288 42.0714 82.3505 39.3538 90.8602C38.8817 92.3377 38.3175 92.1502 40.4718 94.1815C46.5056 99.8756 53.469 98.8186 60.3542 94.0714C60.4541 94.0105 60.532 93.9192 60.5765 93.811C60.6211 93.7027 60.6299 93.5831 60.6018 93.4694C56.7869 83.9595 59.3643 77.8286 56.4902 72.9189C56.4422 72.8402 56.3748 72.7752 56.2944 72.7301C56.2141 72.685 56.1235 72.6614 56.0314 72.6614C55.9392 72.6614 55.8486 72.685 55.7683 72.7301C55.688 72.7752 55.6206 72.8402 55.5726 72.9189C54.6696 74.134 53.0218 73.1941 52.6486 72.0382C52.4435 71.3991 52.4244 70.7149 52.5935 70.0654C52.9616 69.5064 53.8835 69.7283 54.3006 70.0473C54.4041 70.1044 54.5231 70.1269 54.6403 70.1114C54.7574 70.0959 54.8666 70.0433 54.9516 69.9613C57.4646 67.8225 59.8081 66.4972 60.6586 62.6668C62.1946 66.7561 65.2974 73.1941 63.4209 75.2004C62.9931 75.5746 62.4782 75.8353 61.9235 75.9587C61.3687 76.082 60.7918 76.0641 60.2458 75.9065C59.9407 75.7741 59.6146 75.6964 59.2826 75.6769C59.2185 75.678 59.1557 75.6956 59.1003 75.728C59.045 75.7604 58.9989 75.8066 58.9666 75.862C58.9343 75.9174 58.9168 75.9802 58.9158 76.0443C58.9148 76.1085 58.9304 76.1718 58.961 76.2281C59.1329 76.4372 59.3467 76.608 59.5886 76.7295C59.8304 76.8511 60.095 76.9208 60.3653 76.9342C59.9801 77.98 59.925 79.8582 60.7412 80.7053C60.8031 80.7648 60.8828 80.8024 60.968 80.8123C61.0533 80.8222 61.1395 80.8039 61.2134 80.7602C61.2873 80.7165 61.3449 80.6499 61.3773 80.5704C61.4098 80.4909 61.4153 80.4029 61.393 80.32C61.1685 79.7589 61.0084 79.174 60.9157 78.5768C60.8788 78.0445 60.9338 77.5121 60.8702 76.9798C60.9157 76.9798 60.9613 76.9884 61.0078 76.9892C61.8153 77.011 62.6149 76.8247 63.3298 76.4483C65.6079 75.2065 65.03 72.0227 64.2611 69.5425ZM46.81 58.1466C43.7562 63.0022 44.7108 67.5353 44.0941 69.9828C44.0818 70.0218 44.0573 70.0558 44.0243 70.08C43.9913 70.1041 43.9514 70.1172 43.9105 70.1172C43.8696 70.1172 43.8298 70.1041 43.7968 70.08C43.7638 70.0558 43.7393 70.0218 43.7269 69.9828C43.4536 68.8005 43.4037 67.5775 43.5799 66.3768C43.7673 63.8975 44.1595 60.9494 45.5166 58.8811C45.7788 58.4981 46.1046 58.1627 46.4798 57.8895C46.6535 57.751 46.9485 57.9273 46.81 58.1466ZM57.683 63.3677C57.371 63.955 56.936 64.468 56.4076 64.8718C56.3632 64.8961 56.3134 64.9087 56.2628 64.9084C56.2122 64.9081 56.1625 64.8949 56.1184 64.8702C56.0743 64.8454 56.0372 64.8098 56.0106 64.7668C55.9841 64.7238 55.9688 64.6747 55.9664 64.6242C55.8951 63.5363 57.7131 61.867 58.1784 59.5785C58.2651 58.9491 58.3048 58.3141 58.297 57.6788C58.2994 57.6075 58.3247 57.5389 58.369 57.483C58.4134 57.4272 58.4745 57.3871 58.5434 57.3686C58.6122 57.3501 58.6852 57.3542 58.7516 57.3803C58.8179 57.4064 58.8742 57.4532 58.9119 57.5137C60.0239 59.1219 58.8053 61.7784 57.683 63.3677ZM64.004 68.7444C63.7933 68.1424 63.2979 66.7716 63.261 66.689C64.1063 67.8414 64.6172 67.9085 64.004 68.7444Z" fill="#191919"/>
<path d="M61.3516 82.5983C62.4696 81.9791 62.86 81.2558 64.5998 81.1113C67.2964 81.0055 69.9902 81.3814 72.5548 82.2216C78.9953 84.0276 88.1827 87.2268 92.6848 92.1314C92.9884 92.4607 93.2335 92.2062 92.9514 91.8734C91.5178 90.1852 90.3542 89.5247 88.5835 88.0894C86.4863 86.5499 84.2134 85.2655 81.8127 84.2632C79.4081 83.2625 76.9406 82.4199 74.4261 81.7408C71.8815 80.8915 69.2454 80.3462 66.5726 80.1163C65.2073 79.9496 63.8219 80.1294 62.5444 80.6392C61.3051 81.2618 60.4176 82.3901 58.8928 82.1167C58.8337 82.1025 58.7716 82.1077 58.7157 82.1315C58.6598 82.1553 58.613 82.1964 58.5821 82.2488C58.5513 82.3012 58.5382 82.362 58.5445 82.4225C58.5509 82.4829 58.5765 82.5397 58.6176 82.5845C59.3796 83.368 60.5139 83.0618 61.3516 82.5983Z" fill="#191919"/>
<path d="M109.659 58.7062C110.863 57.2072 112.646 51.7084 113.301 47.0171C113.364 46.5673 113.582 45.9567 113.173 45.6411C113.121 45.5949 113.056 45.5657 112.987 45.5575C112.918 45.5494 112.849 45.5626 112.788 45.5955C112.311 45.8002 112.367 46.4125 112.301 46.8528C111.244 53.9392 109.495 56.6224 109.237 58.4774C109.227 58.6752 109.483 58.9255 109.659 58.7062Z" fill="#191919"/>
<path d="M113.247 52.6144C113.249 52.6621 113.265 52.7082 113.293 52.7471C113.321 52.786 113.359 52.8163 113.403 52.8343C113.448 52.8524 113.496 52.8574 113.543 52.8489C113.59 52.8405 113.634 52.8188 113.669 52.7864C113.971 52.537 114.304 52.3074 114.587 52.7219C114.984 53.3041 114.771 55.3251 114.642 56.0527C114.194 58.5707 113.387 59.1289 113.751 59.7868C113.776 59.8281 113.814 59.8602 113.859 59.8784C113.903 59.8965 113.953 59.8997 113.999 59.8874C114.402 59.7722 114.511 59.3912 114.651 59.0274C115.295 57.4729 115.632 55.8081 115.642 54.1254C115.623 53.3454 115.583 52.2979 114.807 51.8593C114.224 51.5325 113.208 51.843 113.247 52.6144Z" fill="#191919"/>
<path d="M116.485 57.2376C116.403 57.8143 116.281 58.3845 116.118 58.9438C115.864 59.4947 115.703 60.0837 115.641 60.687C115.65 60.8711 115.879 61.0551 116.054 60.9261C116.77 60.3955 116.972 59.2474 117.155 58.4321C117.368 57.4772 117.475 56.5019 117.476 55.5236C117.476 54.8631 117.595 53.8165 116.98 53.3581C116.874 53.2723 116.746 53.217 116.611 53.1983C116.476 53.1795 116.338 53.1981 116.212 53.2518C116.087 53.3056 115.978 53.3926 115.899 53.5035C115.819 53.6144 115.771 53.7449 115.76 53.881C115.761 53.9292 115.777 53.976 115.804 54.0157C115.832 54.0553 115.87 54.0861 115.915 54.1043C115.96 54.1225 116.009 54.1274 116.056 54.1183C116.104 54.1091 116.147 54.0865 116.182 54.053C116.83 53.4286 116.605 56.4034 116.485 57.2376Z" fill="#191919"/>
<path d="M118.614 54.9442C118.32 54.6423 117.731 54.552 117.532 54.9992C117.478 55.1188 117.54 55.3097 117.704 55.2925C118.4 55.222 118.155 56.6504 118.117 57.0822C117.739 61.4553 115.635 63.0273 113.787 65.8989C113.185 66.8363 112.419 67.7522 112.602 68.9089C111.898 68.5064 111.132 68.2211 110.336 68.0644C109.455 67.8733 108.558 67.7628 107.657 67.7341C108.206 67.1854 106.234 63.4505 105.73 61.1121C105.57 60.6134 105.523 60.0853 105.593 59.5661C105.663 59.047 105.848 58.5501 106.134 58.1116C106.787 57.3247 107.867 57.2576 108.575 56.5799C108.614 56.5377 108.641 56.4849 108.651 56.428C108.661 56.3711 108.655 56.3125 108.632 56.2591C108.61 56.2058 108.573 56.1601 108.525 56.1274C108.477 56.0948 108.421 56.0766 108.363 56.0751C107.836 56.0784 107.314 56.19 106.831 56.403C106.349 56.616 105.915 56.9259 105.556 57.3135C103.492 59.4437 105.365 63.3172 106.455 65.8739C106.659 66.5122 106.936 67.1249 107.281 67.6997C107.407 67.8666 107.514 67.6911 107.07 67.8932C107.03 67.8388 106.979 67.7936 106.921 67.7607C106.862 67.7278 106.797 67.7081 106.73 67.7027C106.663 67.6974 106.595 67.7067 106.532 67.7299C106.469 67.7532 106.412 67.7898 106.364 67.8373C103.268 70.9333 100.726 74.5599 98.0873 78.0404C91.5685 86.6404 90.8168 87.7025 89.876 89.3356C89.8539 89.3772 89.8472 89.4252 89.8572 89.4712C89.8672 89.5172 89.8932 89.5582 89.9306 89.5868C89.968 89.6154 90.0143 89.6298 90.0613 89.6274C90.1084 89.625 90.153 89.606 90.1873 89.5738C94.201 85.3865 102.232 73.3198 107.052 68.5167C107.101 68.4708 107.138 68.4143 107.162 68.3516C108.246 68.6431 110.844 68.7756 112.465 69.9753C112.552 70.0376 112.648 70.0871 112.749 70.1223C111.851 74.2787 110.943 78.4076 109.676 82.4719C107.793 88.5531 105.307 94.4304 102.253 100.016C101.383 101.631 100.19 103.049 98.7478 104.182C95.196 106.749 90.2699 105.888 86.2511 105.214C69.5783 102.435 75.1201 103.013 71.3052 102.214C70.8648 102.122 70.7186 102.422 71.1332 102.599C72.3114 103.105 73.1602 103.418 74.2988 103.883C75.1096 104.226 75.9558 104.479 76.8221 104.636C76.4824 106.021 76.3559 107.481 76.0971 108.875C75.2782 113.339 74.1529 117.741 72.7293 122.051C69.524 121.198 66.2064 120.846 62.8935 121.005C58.6802 121.196 54.4951 121.793 50.396 122.785C45.3848 113.583 44.2599 107.974 41.9826 101.683C41.8828 101.407 41.6051 101.435 41.6386 101.775C41.7857 102.959 42.022 104.13 42.3455 105.279C40.5447 106.312 38.867 107.547 37.3446 108.958C36.8044 109.378 36.3471 109.894 35.9961 110.481C35.9739 110.522 35.9655 110.569 35.9722 110.616C35.9788 110.662 36.0002 110.705 36.0332 110.738C36.0661 110.771 36.1089 110.792 36.155 110.799C36.2012 110.806 36.2483 110.798 36.2894 110.775C37.1124 110.364 38.3405 108.786 42.5751 106.105C43.8634 110.591 45.5205 114.963 47.5296 119.177C47.2056 119.15 46.8797 119.157 46.5569 119.196C46.0531 119.19 45.5496 119.227 45.0519 119.306C45.0586 119.267 45.0572 119.228 45.0477 119.19C45.0382 119.152 45.0209 119.116 44.9969 119.086C43.6046 117.407 36.0839 110.922 34.1884 109.479C33.0143 108.493 31.7305 107.647 30.3623 106.956C29.8583 106.734 29.9159 106.86 30.3898 107.176C30.8637 107.493 31.2498 107.878 32.2981 108.625C32.9208 109.069 33.5546 109.765 34.1609 110.231C35.3701 111.161 36.1062 112.195 37.2569 113.195C42.1288 117.441 42.9449 118.294 44.2573 119.186C43.2387 121.289 42.6432 123.571 42.5046 125.903C41.6446 125.327 37.0118 125.056 28.4944 121.957C24.4248 120.477 19.5297 118.556 17.1811 115.14C16.5627 114.311 16.1187 113.366 15.8759 112.361C15.6331 111.355 15.5964 110.312 15.7681 109.292C16.2368 107.108 17.7057 105.274 19.0713 103.567C27.87 92.5675 37.5003 88.068 40.0829 86.4185C40.3572 86.2465 40.1852 85.7434 39.8532 85.8672C30.0363 89.5411 17.175 102.322 15.0895 107.952C14.7304 108.968 14.5778 110.046 14.6408 111.122C14.7037 112.199 14.9808 113.251 15.4559 114.219C17.4012 118.422 21.8509 120.469 25.9161 122.091C29.8815 123.684 33.9722 124.946 38.1461 125.862C39.5171 126.223 40.923 126.436 42.3395 126.495C42.3928 126.496 42.4455 126.483 42.4922 126.458C42.539 126.432 42.5783 126.395 42.6061 126.349C42.6357 126.372 42.6704 126.386 42.707 126.392C42.7437 126.398 42.7812 126.395 42.8165 126.384C42.8517 126.372 42.8835 126.352 42.9092 126.325C42.9349 126.298 42.9536 126.265 42.9639 126.23C43.0825 125.814 43.1926 125.404 43.2941 124.991C43.7705 125.349 44.3261 125.609 44.8077 125.972C45.0949 126.189 45.8173 126.945 46.1381 126.358C46.4236 125.835 45.5155 125.364 45.1844 125.154C44.6614 124.785 44.0725 124.52 43.4498 124.374C43.6943 123.262 44.0006 122.166 44.3674 121.089C44.5058 120.677 44.7071 120.263 44.8172 119.841C45.397 119.978 45.9922 120.04 46.5879 120.025C47.0102 120.04 47.5692 120.162 47.9183 119.896C49.6091 123.373 49.5712 122.827 49.3494 122.961C46.2353 125.082 44.1894 129.765 42.8263 133.301C41.0636 137.747 39.8167 142.38 39.1102 147.11C38.6426 149.711 38.5335 152.364 38.786 154.995C38.8513 155.463 39.5316 155.307 39.566 154.894C39.7543 152.62 39.6864 150.353 39.9607 148.077C40.8554 141.421 42.8231 134.954 45.7872 128.928C46.8676 126.942 48.1797 125.091 49.6959 123.414C49.7069 123.403 49.7161 123.391 49.7235 123.377C49.7329 123.387 49.7391 123.4 49.7415 123.414C49.7788 123.479 49.8319 123.534 49.8959 123.573C49.9599 123.612 50.0327 123.635 50.1077 123.638C50.1826 123.642 50.2573 123.627 50.3248 123.594C50.3923 123.561 50.4505 123.512 50.494 123.451C53.418 123.351 62.086 120.898 70.3127 122.514C72.6167 122.968 72.6407 123.221 73.1292 123.102C73.1292 123.469 75.4332 129.773 76.5787 134.03C79.0185 143.091 79.1277 148.519 79.6248 151.756C79.697 152.224 80.4306 152.096 80.4324 151.646C80.4607 145.81 77.5617 130.654 73.634 122.946C73.6101 122.904 73.575 122.869 73.5326 122.845C73.6643 122.635 73.7635 122.406 73.8267 122.166C76.2949 115.191 77.584 107.009 77.5703 104.794L84.7728 106.033C88.9747 106.757 93.8664 107.815 97.9204 105.922C101.454 104.273 103.324 100.499 104.94 97.1693C108.891 89.0243 112.368 78.7722 113.573 70.0286C113.583 69.9739 113.575 69.9177 113.553 69.8671C113.53 69.8166 113.492 69.774 113.445 69.7448C113.443 69.6567 113.419 69.5704 113.376 69.4935C113.333 69.4166 113.272 69.3514 113.197 69.3036C113.242 69.2843 113.282 69.254 113.312 69.2156C113.342 69.1771 113.362 69.1317 113.369 69.0835C113.788 66.5258 116.729 63.9914 117.837 61.5877C118.528 60.1192 118.924 58.5294 119.002 56.9084C118.953 56.3107 119.063 55.4069 118.614 54.9442Z" fill="#191919"/>
<path d="M36.8648 36.2641C34.5162 35.7842 23.2768 33.334 22.594 33.1681C22.3498 33.1096 22.68 33.7959 19.0035 24.1759C18.3589 22.2773 17.5039 20.4569 16.4545 18.7484C16.3607 18.6014 16.2306 18.481 16.0767 18.3988C15.9229 18.3167 15.7505 18.2755 15.5761 18.2793C15.4017 18.2831 15.2313 18.3317 15.0811 18.4205C14.931 18.5093 14.8063 18.6353 14.719 18.7863C12.2247 23.1806 10.3781 27.9121 9.23648 32.8344C9.18786 33.0446 9.22208 33.2655 9.33204 33.4512C9.44199 33.6369 9.61924 33.7731 9.82697 33.8315C10.0347 33.8899 10.257 33.8661 10.4476 33.765C10.6382 33.6639 10.7826 33.4932 10.8507 33.2885C12.1513 29.2075 13.7512 25.2281 15.6375 21.3826C16.9928 24.0847 20.2402 33.6806 20.9196 34.4787C21.599 35.2768 22.8907 35.2897 23.6922 35.4548C25.3322 35.7902 32.7841 37.4603 34.3889 37.806C31.2525 40.2725 30.8698 40.3233 26.2352 43.998C24.56 45.3267 24.3725 45.9898 24.8386 48.126C25.5417 52.0723 26.0377 56.0527 26.3247 60.0508C23.2364 57.5661 20.277 54.9253 17.4581 52.1388C17.2722 51.9596 17.026 51.8566 16.7679 51.8501C16.5098 51.8436 16.2587 51.934 16.064 52.1035C12.2439 55.0826 8.31026 57.9782 4.61828 61.0931C3.73162 61.8396 4.85478 63.3248 5.80766 62.6325C9.50566 59.9613 13.0609 57.027 16.6643 54.1847C19.8786 57.3204 23.2666 60.2728 26.8123 63.0281C26.9607 63.1582 27.1434 63.2428 27.3386 63.2716C27.5338 63.3004 27.7332 63.2722 27.9128 63.1905C28.0924 63.1088 28.2446 62.977 28.3512 62.8109C28.4577 62.6448 28.514 62.4514 28.5134 62.2541C28.2167 57.1412 27.6203 52.0502 26.7272 47.0072C26.6128 46.4164 26.5646 46.3794 27.4263 45.6879C31.9706 42.0381 34.8 40.2794 37.3344 37.9927C37.463 37.8641 37.5553 37.7039 37.6021 37.5283C37.6489 37.3526 37.6484 37.1677 37.6007 36.9922C37.5531 36.8168 37.4599 36.6571 37.3307 36.5292C37.2015 36.4013 37.0408 36.3099 36.8648 36.2641Z" fill="#BDF4A3"/>
<path d="M167.383 61.0745C163.677 57.9476 159.702 55.021 155.938 52.0815C155.743 51.9121 155.492 51.8217 155.235 51.828C154.977 51.8344 154.731 51.9371 154.545 52.1159C151.73 54.9094 148.77 57.5525 145.677 60.0339C145.953 56.4365 146.518 51.464 147.075 48.6346C147.505 46.4347 147.697 45.6298 146.117 44.2856C143.148 41.7538 140.527 40.094 137.619 37.7978C139.231 37.4538 149.205 35.2754 149.321 35.2547C150.717 35.0139 151.231 34.7749 151.876 32.8218C151.91 32.7195 155.499 23.0969 156.364 21.3743C158.243 25.2249 159.842 29.2058 161.149 33.2862C161.218 33.4903 161.362 33.6604 161.552 33.7614C161.742 33.8623 161.963 33.8864 162.171 33.8287C162.378 33.771 162.555 33.6358 162.666 33.4511C162.776 33.2665 162.812 33.0464 162.765 32.8364C161.623 27.9114 159.776 23.1772 157.28 18.7806C157.192 18.6301 157.067 18.5047 156.917 18.4165C156.767 18.3284 156.596 18.2803 156.422 18.277C156.248 18.2738 156.075 18.3153 155.922 18.3978C155.768 18.4803 155.638 18.6008 155.545 18.7479C154.517 20.4167 153.681 22.1958 153.051 24.0515C153.051 24.0515 149.902 32.3746 149.616 33.0015C149.549 33.1469 149.453 33.1787 149.1 33.2398C149.1 33.2398 137.292 35.8241 135.121 36.273C134.947 36.3173 134.788 36.4073 134.66 36.5337C134.532 36.6601 134.441 36.8183 134.395 36.9919C134.349 37.1656 134.35 37.3483 134.399 37.5213C134.447 37.6943 134.541 37.8512 134.67 37.9758C137.776 40.6418 145.229 45.8061 145.314 46.4537C145.396 47.0204 144.009 52.49 143.467 62.22C143.464 62.4185 143.518 62.6137 143.624 62.7816C143.73 62.9496 143.882 63.0831 144.063 63.1658C144.243 63.2486 144.444 63.277 144.64 63.2475C144.836 63.2181 145.02 63.1321 145.168 63.0001C148.716 60.2479 152.104 57.2959 155.316 54.1584C158.886 56.9723 162.46 59.9135 166.176 62.6088C166.382 62.7337 166.626 62.779 166.862 62.7363C167.099 62.6935 167.311 62.5656 167.46 62.3766C167.608 62.1877 167.683 61.9509 167.668 61.711C167.654 61.471 167.553 61.2446 167.383 61.0745Z" fill="#191919"/>
<path d="M130.543 36.5725C125.396 35.3109 119.927 35.5173 114.972 33.5075C114.972 33.4155 111.109 21.6283 110.063 18.5796C110.054 18.5478 110.035 18.5196 110.009 18.4983C109.984 18.477 109.952 18.4636 109.919 18.4597C109.886 18.4558 109.853 18.4615 109.823 18.4763C109.793 18.491 109.768 18.514 109.751 18.5426C102.601 34.0287 103.767 33.0113 103.311 33.4439C103.102 33.5775 102.868 33.6654 102.623 33.7019C97.8005 35.163 92.8702 36.2399 87.878 36.9226C87.8497 36.9311 87.824 36.9467 87.8035 36.968C87.783 36.9893 87.7683 37.0155 87.7609 37.0441C87.7535 37.0727 87.7535 37.1027 87.7611 37.1313C87.7686 37.1599 87.7834 37.186 87.804 37.2072C91.5057 40.7694 95.4852 44.031 99.7047 46.9613C98.7501 51.6501 97.9228 56.3715 97.1247 61.0911C97.1163 61.127 97.1197 61.1647 97.1343 61.1985C97.1489 61.2324 97.174 61.2606 97.2059 61.2791C97.2378 61.2976 97.2748 61.3054 97.3114 61.3013C97.3481 61.2972 97.3824 61.2814 97.4094 61.2563C101.045 57.5789 106.125 55.6594 109.456 51.6587L110.144 52.4567C111.203 46.5546 111.434 44.9016 112.484 44.4106C113.659 43.8602 114.164 45.2267 114.218 46.1357C114.297 47.6927 114.177 49.2533 113.86 50.7797C114.083 50.659 114.332 50.5965 114.585 50.5982C114.838 50.5998 115.087 50.6655 115.307 50.7892C115.528 50.9128 115.714 51.0904 115.848 51.3053C115.981 51.5202 116.058 51.7654 116.071 52.0181C116.219 51.9469 116.38 51.9061 116.544 51.8983C116.708 51.8905 116.872 51.9157 117.026 51.9726C117.309 52.1177 117.549 52.3332 117.724 52.5983C117.9 52.8634 118.003 53.1692 118.026 53.4862C118.23 53.3877 118.461 53.3604 118.682 53.4088C118.904 53.4571 119.102 53.5782 119.247 53.7528C119.855 54.4562 119.726 55.7712 119.732 56.6338C119.743 58.1793 119.58 59.7212 119.247 61.2305L119.467 61.4506C119.491 61.4715 119.521 61.4852 119.552 61.4901C119.584 61.4951 119.616 61.4911 119.646 61.4787C119.675 61.4663 119.701 61.4459 119.719 61.4198C119.738 61.3937 119.748 61.363 119.75 61.3311C120.231 57.6331 120.696 53.9351 120.888 50.2113C121.071 46.5726 120.795 46.5571 121.311 46.091C124.56 43.1696 127.66 40.086 130.599 36.852C130.622 36.8338 130.639 36.8094 130.649 36.7817C130.66 36.7541 130.662 36.7241 130.656 36.6952C130.65 36.6662 130.637 36.6395 130.617 36.6178C130.597 36.5962 130.571 36.5805 130.543 36.5725Z" fill="#BDF4A3"/>
<path d="M83.2065 34.7775C78.0146 33.7172 72.5356 34.3914 67.4624 32.6852C67.4624 32.5992 65.0304 26.7262 61.6265 18.097C61.6161 18.0613 61.5943 18.0299 61.5646 18.0075C61.5348 17.9852 61.4986 17.9731 61.4614 17.9731C61.4241 17.9731 61.3879 17.9852 61.3582 18.0075C61.3284 18.0299 61.3067 18.0613 61.2962 18.097C55.9548 31.4382 56.2824 33.0825 55.6624 33.4377C55.3528 33.6157 51.1904 35.0854 47.4872 36.126C45.2306 36.7598 42.9387 37.2655 40.6425 37.76C40.6142 37.7686 40.5887 37.7843 40.5683 37.8057C40.5478 37.827 40.5333 37.8532 40.5259 37.8818C40.5186 37.9104 40.5187 37.9404 40.5263 37.9689C40.5339 37.9975 40.5488 38.0236 40.5694 38.0447C44.5184 41.3316 48.6943 44.3359 53.066 47.0351C52.8184 48.8245 52.583 50.6136 52.36 52.4024C54.8617 51.9431 58.0153 52.6096 59.8377 54.4948C61.0501 53.4948 62.1401 52.3552 63.085 51.0995C66.3057 54.5042 70.223 57.1195 73.7009 60.2292C73.7251 60.2504 73.7548 60.2643 73.7865 60.2694C73.8183 60.2745 73.8508 60.2706 73.8804 60.2581C73.9101 60.2457 73.9356 60.2252 73.9542 60.1989C73.9728 60.1727 73.9836 60.1418 73.9855 60.1097C74.2212 56.3936 74.4671 52.669 74.4259 48.9349C74.3854 45.2704 74.1025 45.2816 74.5824 44.7965C77.1263 42.2226 80.2042 38.7937 83.2684 34.9925C83.2883 34.9783 83.3034 34.9582 83.3114 34.935C83.3195 34.9118 83.3202 34.8867 83.3134 34.8632C83.3066 34.8396 83.2927 34.8187 83.2735 34.8034C83.2544 34.788 83.2309 34.779 83.2065 34.7775Z" fill="#BDF4A3"/>
</svg>
