<svg width="172" height="173" viewBox="0 0 172 173" fill="none" xmlns="http://www.w3.org/2000/svg">
<path d="M126.702 144.762C123.176 144.526 119.899 143.913 116.302 143.695C112.01 143.437 108.065 143.617 103.488 143.671C101.043 143.634 98.5989 143.836 96.1922 144.273C95.1597 144.433 94.1698 144.799 93.2811 145.348C93.2245 145.391 93.183 145.451 93.1628 145.52C93.1425 145.588 93.1445 145.661 93.1685 145.728C93.1924 145.795 93.2371 145.853 93.296 145.893C93.3548 145.933 93.4249 145.953 93.4961 145.95C94.4903 146.354 95.5134 146.683 96.5568 146.933C96.5569 146.865 96.5606 146.798 96.568 146.73C96.6402 146.181 96.9688 145.274 97.4555 145.349C97.9569 145.417 98.0016 146.381 97.8855 146.942C97.7505 147.649 97.3128 147.944 96.9756 147.822C96.9047 148.992 96.903 150.165 96.9705 151.336C96.9807 151.467 97.035 151.591 97.1247 151.687C97.2143 151.783 97.334 151.847 97.4641 151.866C99.3389 152.157 101.22 152.354 103.107 152.468C107.295 152.726 115.342 152.676 116.966 152.554C118.199 152.475 119.42 152.269 120.61 151.939C120.757 151.897 120.884 151.805 120.971 151.68C121.057 151.555 121.098 151.403 121.086 151.251C121.086 151.203 121.078 151.155 121.075 151.108C120.553 150.921 120.422 149.221 120.387 148.676C120.332 147.865 120.064 145.048 120.88 145.015C121.516 144.989 121.628 146.699 121.673 147.681C123.573 147.55 125.414 146.966 127.042 145.977C127.153 145.896 127.237 145.784 127.283 145.654C127.328 145.524 127.333 145.383 127.296 145.251C127.259 145.119 127.182 145.001 127.076 144.913C126.97 144.826 126.839 144.773 126.702 144.762Z" fill="#191919"/>
<path d="M144.031 62.6903C142.957 57.2456 141.643 51.7941 138.191 47.4373C138.358 47.4158 138.528 47.3892 138.694 47.3591C138.8 47.3398 138.893 47.2796 138.955 47.1916C139.016 47.1037 139.04 46.9951 139.021 46.8895C139.012 46.8373 138.992 46.7874 138.964 46.7428C138.935 46.6981 138.898 46.6596 138.854 46.6295C138.81 46.5994 138.761 46.5782 138.709 46.5671C138.657 46.5561 138.604 46.5555 138.552 46.5653C136.782 46.8556 134.966 46.518 133.418 45.6107C133.347 45.5751 133.267 45.56 133.188 45.5669C133.109 45.5739 133.033 45.6028 132.969 45.6502C130.498 47.5422 127.321 48.7609 124.375 47.6764C124.287 47.6448 124.193 47.6407 124.103 47.6645C124.014 47.6883 123.934 47.739 123.874 47.8097C119.884 52.5036 111.376 52.9817 106.502 49.3637C106.423 49.3047 106.329 49.27 106.23 49.264C106.132 49.2581 106.034 49.2811 105.948 49.3302C100.791 52.1518 95.0662 53.778 89.1962 54.0886C91.4849 53.1917 93.5811 51.8656 95.3719 50.1816C95.4395 50.1149 95.4905 50.0331 95.5205 49.943C95.5505 49.8529 95.5588 49.7569 95.5446 49.663C95.5304 49.569 95.4942 49.4797 95.4389 49.4025C95.3836 49.3252 95.3109 49.2621 95.2265 49.2184C94.7526 49.0145 94.3553 48.666 94.0913 48.2227C93.8273 47.7794 93.7102 47.264 93.7568 46.7502C93.9847 43.9638 97.6896 41.6487 100.314 40.7224C102.218 40.062 104.228 39.7622 106.241 39.8384C106.344 39.8419 106.445 39.8202 106.537 39.7752C106.629 39.7302 106.709 39.6633 106.769 39.5804C107.891 37.9908 109.435 36.746 111.226 35.9864C113.018 35.2267 114.986 34.9822 116.909 35.2804C117.044 35.3066 117.184 35.2882 117.308 35.228C117.432 35.1678 117.534 35.0689 117.597 34.9463C117.66 34.8237 117.681 34.684 117.658 34.5481C117.635 34.4121 117.569 34.2874 117.469 34.1925C113.006 29.932 107.099 27.6565 101.311 25.6157C80.3408 18.2197 54.6337 17.7312 38.1948 32.8397C38.1111 32.9163 38.0485 33.0132 38.0131 33.121C37.9776 33.2289 37.9705 33.344 37.9925 33.4553C38.0144 33.5667 38.0647 33.6705 38.1383 33.7568C38.212 33.8432 38.3067 33.9091 38.4132 33.9482C40.1332 34.5813 41.644 35.6789 42.7777 37.119C42.9422 37.3056 43.0633 37.5262 43.1324 37.765C43.2016 38.0039 43.217 38.2551 43.1776 38.5006C43.1383 38.7461 43.0451 38.9799 42.9047 39.1852C42.7643 39.3904 42.5803 39.5621 42.3658 39.6879C42.2766 39.7584 42.2071 39.8508 42.164 39.956C42.1209 40.0612 42.1056 40.1758 42.1196 40.2886C42.1336 40.4015 42.1764 40.5088 42.2439 40.6003C42.3114 40.6918 42.4014 40.7644 42.5051 40.811C43.1451 41.0668 43.7209 41.4605 44.1915 41.9641C44.6621 42.4677 45.016 43.0688 45.2279 43.7247C45.9778 46.4543 43.1355 48.7523 40.4815 49.6948C39.1147 50.1927 37.6506 50.3647 36.2056 50.1971C36.0705 50.1797 35.9332 50.2043 35.8126 50.2676C35.6919 50.3309 35.5936 50.4298 35.5311 50.5508C35.4686 50.6719 35.4448 50.8092 35.463 50.9442C35.4812 51.0793 35.5405 51.2054 35.6328 51.3056C39.1924 55.1524 44.3025 56.7159 49.5313 56.4656C45.571 58.2312 40.9115 57.5931 36.8171 56.0726C34.7006 55.3911 32.7599 54.2525 31.1325 52.7375C31.0326 52.6329 30.9016 52.5633 30.759 52.5393C30.6164 52.5153 30.4699 52.538 30.3413 52.6042C29.0821 53.2245 27.6861 53.5151 26.284 53.4489C24.8819 53.3828 23.5195 52.9619 22.3243 52.2258C22.247 52.1781 22.1609 52.1467 22.071 52.1334C21.9812 52.1201 21.8896 52.1253 21.8018 52.1485C21.714 52.1718 21.6319 52.2127 21.5604 52.2687C21.489 52.3247 21.4296 52.3947 21.3861 52.4743C17.2288 60.0871 14.3883 71.2404 14.1045 80.0201C14.101 80.114 14.1175 80.2075 14.1527 80.2946C14.188 80.3817 14.2413 80.4603 14.3091 80.5252C14.377 80.5902 14.4578 80.6401 14.5463 80.6716C14.6348 80.7032 14.7289 80.7156 14.8226 80.7081C22.953 80.1147 33.7942 81.1614 36.3355 88.9435C36.38 89.0783 36.4663 89.1955 36.5817 89.2782C36.6972 89.3609 36.8359 89.4048 36.9779 89.4036C44.6319 89.3081 49.5674 95.5371 50.6278 102.936C50.6466 103.07 50.7061 103.196 50.7984 103.295C50.8906 103.395 51.0112 103.464 51.1438 103.493C53.6567 104.073 53.7754 105.052 54.4978 104.689C54.6051 104.635 54.6956 104.553 54.7595 104.451C54.8235 104.349 54.8585 104.232 54.8607 104.111C54.9888 98.5101 57.4854 94.1353 61.6599 90.5233C61.7509 90.4462 61.8191 90.3457 61.8572 90.2326C61.8952 90.1195 61.9016 89.9982 61.8757 89.8818C61.2694 87.0696 59.9158 71.1458 60.0895 64.7818C60.1436 63.6725 60.3461 62.5754 60.6915 61.5198C60.7182 61.4338 64.9554 48.8598 66.5954 46.8276C67.3694 45.873 68.1236 45.48 69.1083 46.6212C69.7841 47.5357 70.2995 48.5585 70.6322 49.6458C72.4632 54.7748 75.2049 59.4292 76.9438 64.5866C77.3174 65.7805 77.4917 67.0279 77.4598 68.2786C77.4598 68.3646 76.9911 83.0164 76.6239 90.6816C76.6196 90.7918 76.6437 90.9013 76.694 90.9995C76.7443 91.0977 76.8191 91.1813 76.9111 91.2423C78.9343 92.7191 80.7391 94.4739 82.2723 96.4547C82.3347 96.5287 82.4134 96.5872 82.5023 96.6256C82.5911 96.6639 82.6876 96.6812 82.7842 96.6759C82.8808 96.6707 82.9749 96.6431 83.0591 96.5953C83.1432 96.5475 83.2151 96.4808 83.2691 96.4006C86.4356 91.6645 92.8693 86.5965 98.0551 88.977C98.1283 89.0103 98.2076 89.0284 98.2881 89.03C98.3686 89.0316 98.4485 89.0168 98.5231 88.9864C98.5976 88.9561 98.6652 88.9108 98.7216 88.8535C98.7781 88.7961 98.8223 88.7278 98.8514 88.6528C99.8696 85.8496 101.227 83.1815 102.893 80.7081C105.983 76.3849 110.271 73.0607 115.228 71.1458C120.183 69.3286 125.559 69.3948 130.059 72.9518C130.11 72.9924 130.169 73.0218 130.232 73.0381C130.294 73.0544 130.36 73.0571 130.424 73.0463C130.488 73.0354 130.549 73.0111 130.603 72.9749C130.657 72.9388 130.703 72.8916 130.738 72.8366C134.056 67.625 137.594 64.1936 143.706 63.1573C143.759 63.1487 143.809 63.1297 143.854 63.1014C143.899 63.0731 143.937 63.036 143.967 62.9925C143.998 62.9489 144.019 62.8997 144.03 62.8478C144.041 62.7959 144.041 62.7423 144.031 62.6903Z" fill="#FFF6BD"/>
<path d="M74.3159 114.368C74.2008 113.129 73.7553 111.944 73.0259 110.937C72.7412 110.555 72.3674 110.249 71.9371 110.045C71.5069 109.842 71.0333 109.746 70.5577 109.768C68.4464 109.859 67.134 112.858 67.4772 114.85C67.8711 117.105 69.5498 120.246 70.2791 121.982C70.5414 122.572 70.7512 123.183 70.906 123.809C70.9313 123.899 70.9871 123.977 71.0637 124.031C71.1403 124.084 71.233 124.11 71.3262 124.103C71.4194 124.095 71.5072 124.056 71.5746 123.991C71.6421 123.927 71.6851 123.841 71.6963 123.748C72.1203 121.283 74.6255 117.566 74.3159 114.368Z" fill="#FFF6BD"/>
<path d="M153.424 100.892C152.636 100.794 150.242 100.874 149.382 100.663C148.83 100.526 148.573 100.319 148.56 99.7602C148.562 99.0708 148.614 98.3824 148.715 97.7005C148.741 97.568 148.724 97.4309 148.669 97.3079C148.614 97.1848 148.522 97.0817 148.406 97.0125C147.862 96.7057 147.349 96.3453 146.877 95.9366C147.842 94.7786 148.73 93.5585 149.536 92.2842C149.598 92.2012 149.626 92.0976 149.613 91.9947C149.601 91.8918 149.55 91.7975 149.47 91.7313C149.391 91.665 149.289 91.632 149.185 91.6388C149.082 91.6457 148.985 91.692 148.915 91.7682C147.909 92.7744 147.367 93.3824 145.829 95.1661C145.646 95.3131 145.514 95.5133 145.45 95.7388C145.336 96.2308 145.669 96.6229 146.044 96.9626C146.446 97.3174 146.877 97.6365 147.334 97.9164C147.248 98.6023 147.214 99.2936 147.232 99.9847C147.253 100.386 147.392 100.771 147.631 101.094C147.87 101.416 148.199 101.662 148.576 101.799C149.333 102.038 150.127 102.138 150.92 102.093C150.792 103.326 150.785 104.569 150.899 105.803C150.893 105.891 150.921 105.978 150.979 106.045C151.036 106.112 151.117 106.153 151.205 106.16C151.249 106.164 151.293 106.16 151.335 106.146C151.377 106.133 151.416 106.112 151.449 106.083C151.483 106.055 151.51 106.02 151.53 105.981C151.55 105.942 151.562 105.899 151.565 105.855L152.204 102.168C152.543 102.185 153.087 102.203 153.248 102.197C153.616 102.19 154.42 101.911 154.42 101.552C154.419 101.284 153.72 100.931 153.424 100.892Z" fill="#191919"/>
<path d="M149.997 99.0439C150.187 99.3674 150.485 99.6136 150.838 99.7394C151.192 99.8653 151.578 99.8626 151.93 99.7319C152.205 99.6255 152.454 99.4604 152.659 99.248C152.864 99.0356 153.021 98.7811 153.117 98.5021C153.271 98.03 153.149 97.1072 152.732 97.1003C152.543 97.1003 152.063 97.7952 152.009 97.8821C151.693 98.3886 151.389 98.7421 150.997 98.2605C150.408 97.674 150.348 97.5372 150.076 97.6155C149.592 97.7539 149.776 98.534 149.997 99.0439Z" fill="#191919"/>
<path d="M159.768 93.3163C159.427 93.1599 159.055 93.0823 158.681 93.0893C158.628 93.0813 158.575 93.0838 158.523 93.0965C158.471 93.1093 158.423 93.132 158.38 93.1635C158.337 93.195 158.301 93.2347 158.274 93.2801C158.246 93.3256 158.228 93.376 158.22 93.4286C158.212 93.4811 158.215 93.5346 158.227 93.5862C158.24 93.6378 158.263 93.6863 158.294 93.7291C158.326 93.7719 158.365 93.808 158.411 93.8354C158.456 93.8629 158.507 93.8811 158.559 93.8891C158.801 93.9371 159.028 94.041 159.222 94.1924C159.416 94.3438 159.572 94.5386 159.677 94.7611C159.755 95.0179 159.771 95.2895 159.724 95.5537C159.677 95.8178 159.568 96.0671 159.406 96.2812C159.244 96.4952 159.034 96.6679 158.793 96.7851C158.552 96.9024 158.286 96.9609 158.018 96.9558C157.495 96.9722 156.58 97.0831 156.573 97.5948C156.573 97.8227 157.009 98.2897 157.933 98.2992C157.933 99.5556 157.938 102.291 158.019 103.317C158.075 104.047 158.253 105.295 158.277 105.447C158.275 105.536 158.308 105.622 158.37 105.686C158.431 105.751 158.515 105.788 158.604 105.791C158.693 105.791 158.778 105.757 158.842 105.696C158.906 105.635 158.944 105.551 158.948 105.463C159.331 103.313 159.26 103.986 159.26 98.073C161.255 97.0143 161.842 94.3758 159.768 93.3163Z" fill="#191919"/>
<path d="M149.627 90.6599C149.52 89.8498 149.542 89.0279 149.69 88.2244C149.813 87.5869 150.103 86.9933 150.53 86.5044C152.035 84.7792 154.978 84.8326 156.953 85.9532C158.254 86.6833 159.171 87.7832 160.79 88.1978C162.823 88.6862 164.371 87.7755 164.918 86.4261C164.957 86.3466 164.963 86.2554 164.936 86.1713C164.909 86.0873 164.851 86.0169 164.773 85.9746C164.734 85.9544 164.692 85.942 164.648 85.9382C164.605 85.9344 164.561 85.9393 164.519 85.9526C164.477 85.9659 164.438 85.9873 164.405 86.0155C164.372 86.0438 164.344 86.0784 164.324 86.1174C163.953 86.5848 163.441 86.9196 162.864 87.0719C162.287 87.2241 161.676 87.1855 161.123 86.9619C159.841 86.5999 158.836 85.4922 157.613 84.7904C155.079 83.3542 151.471 83.4058 149.548 85.6599C148.955 86.3315 148.593 87.1755 148.516 88.0679C148.453 88.9971 148.562 89.9299 148.836 90.8199C148.845 90.8738 148.865 90.9253 148.894 90.9714C148.923 91.0175 148.962 91.0572 149.007 91.0881C149.052 91.119 149.103 91.1404 149.156 91.1511C149.21 91.1618 149.265 91.1615 149.318 91.1503C149.372 91.1391 149.422 91.1171 149.467 91.0858C149.512 91.0545 149.55 91.0144 149.579 90.968C149.607 90.9216 149.627 90.8699 149.635 90.8159C149.643 90.7619 149.64 90.7068 149.627 90.6539V90.6599Z" fill="#191919"/>
<path d="M151.231 90.0834C151.518 88.6472 153.591 87.6754 155.015 88.0262C158.014 88.7332 160.646 91.2289 164.328 90.1195C164.867 89.9557 165.376 89.705 165.834 89.3773C166.379 89.001 166.853 88.5304 167.233 87.9875C167.288 87.9176 167.313 87.8287 167.303 87.7403C167.292 87.6519 167.247 87.5713 167.177 87.5163C167.107 87.4612 167.018 87.4361 166.93 87.4466C166.842 87.4571 166.761 87.5022 166.706 87.5722C165.915 88.2259 164.98 88.6817 163.977 88.9017C160.873 89.7617 158.473 87.4655 155.315 86.7423C152.979 86.2306 150.49 87.8061 150.432 89.9956C150.422 90.1024 150.454 90.209 150.521 90.2923C150.589 90.3756 150.687 90.4288 150.793 90.4403C150.899 90.4501 151.003 90.4183 151.085 90.3515C151.167 90.2847 151.22 90.1884 151.231 90.0834Z" fill="#191919"/>
<path d="M154.702 90.3559C156.144 89.8992 157.497 91.0654 158.854 91.8067C161.514 93.224 164.817 93.77 166.766 91.4678C166.83 91.4089 166.868 91.3277 166.873 91.2411C166.878 91.1545 166.849 91.0693 166.793 91.0034C166.737 90.9376 166.657 90.8961 166.571 90.8878C166.484 90.8794 166.398 90.9049 166.33 90.9587C166.119 91.0814 165.898 91.1867 165.67 91.2735C165.344 91.4022 165.008 91.4996 164.664 91.5641C162.883 91.891 161.043 91.562 159.485 90.6379C158.014 89.8596 156.355 88.3856 154.363 89.6231C154.313 89.6439 154.267 89.6747 154.229 89.7136C154.19 89.7525 154.16 89.7988 154.141 89.8496C154.121 89.9004 154.111 89.9547 154.113 90.0092C154.115 90.0638 154.127 90.1174 154.15 90.1669C154.173 90.2164 154.206 90.2607 154.247 90.2972C154.287 90.3338 154.335 90.3617 154.386 90.3793C154.438 90.397 154.492 90.404 154.547 90.4C154.601 90.3959 154.654 90.3809 154.703 90.3559H154.702Z" fill="#191919"/>
<path d="M162.219 95.4242C162.725 95.6215 163.265 95.7143 163.807 95.6972C164.35 95.68 164.883 95.5532 165.375 95.3244C165.527 95.2212 166.162 94.6364 165.99 94.3363C165.786 93.9768 164.12 94.3492 163.77 94.3612C162.81 94.4033 161.792 93.9432 161.534 94.3818C161.306 94.762 162.032 95.3175 162.219 95.4242Z" fill="#191919"/>
<path d="M161.184 98.6202C161.962 98.9844 162.836 99.0905 163.678 98.923C164.497 98.7389 164.882 98.1163 164.801 97.8987C164.624 97.4851 163.081 97.6725 162.712 97.651C162.351 97.626 161.994 97.5649 161.646 97.4687C160.974 97.3715 160.716 97.344 160.568 97.59C160.353 97.9598 161.051 98.5325 161.184 98.6202Z" fill="#191919"/>
<path d="M160.527 101.113C161.524 101.418 162.595 101.378 163.565 100.997C163.657 100.946 164.385 100.405 164.259 100.092C164.149 99.8244 163.166 99.8339 163.035 99.8528C162.308 100.004 161.56 100.022 160.827 99.9044C160.741 99.8992 159.795 99.9207 159.697 100.243C159.58 100.635 160.417 101.066 160.527 101.113Z" fill="#191919"/>
<path d="M134.855 115.607C134.555 112.345 132.051 110.062 128.84 108.544C124.139 106.325 117.676 105.098 109.802 105.803C104.981 106.252 100.067 106.943 96.3178 109.965C93.3551 112.373 91.5611 115.641 89.639 118.718C86.4957 123.77 93.4565 128.83 98.7705 131.446C97.7217 133.166 96.0766 134.44 94.1488 135.025C94.0379 135.054 93.9362 135.11 93.8535 135.189C93.7708 135.268 93.7099 135.367 93.6767 135.477C92.7307 138.605 92.962 142.315 93.0747 145.559C93.079 145.661 93.1063 145.76 93.1546 145.85C93.2028 145.939 93.2708 146.016 93.3533 146.075C93.9209 146.478 94.1213 145.799 98.4936 145.234C104.583 144.446 116.358 144.561 126.54 146.161C126.641 146.176 126.745 146.168 126.843 146.137C126.941 146.106 127.03 146.053 127.104 145.981C127.178 145.91 127.235 145.823 127.27 145.726C127.305 145.63 127.317 145.526 127.305 145.424C126.775 140.278 126.783 135.09 127.33 129.944C131.426 127.231 134.537 121.414 134.86 117.508C134.909 116.875 134.908 116.24 134.855 115.607Z" fill="#FFF6BD"/>
<path d="M102.299 131.755C104.363 127.619 107.163 123.299 108.159 117.681C108.761 114.364 108.213 111.39 105.34 109.627C105.264 109.585 105.208 109.514 105.182 109.431C105.157 109.348 105.165 109.258 105.205 109.181C105.244 109.104 105.312 109.045 105.395 109.016C105.477 108.988 105.567 108.993 105.646 109.03C106.479 109.35 107.233 109.847 107.857 110.485C108.481 111.123 108.96 111.888 109.262 112.728C110.42 116.033 108.948 120.91 107.59 124.156C106.3 127.104 104.788 129.951 103.066 132.67C103.003 132.782 102.903 132.868 102.784 132.914C102.664 132.96 102.532 132.962 102.411 132.921L100.058 131.97C100.008 131.952 99.9624 131.924 99.9232 131.888C99.884 131.852 99.8522 131.809 99.8297 131.761C99.8072 131.713 99.7943 131.661 99.7919 131.608C99.7895 131.555 99.7976 131.502 99.8156 131.452C99.8337 131.402 99.8614 131.356 99.8972 131.317C99.933 131.278 99.9762 131.246 100.024 131.223C100.072 131.201 100.124 131.188 100.177 131.186C100.23 131.183 100.283 131.191 100.333 131.209L102.299 131.755Z" fill="#191919"/>
<path d="M128.5 111.269C129.03 111.969 129.454 112.744 129.759 113.568C130.697 116.15 130.662 118.986 129.662 121.545C128.93 123.391 128.086 125.19 127.136 126.934C127.11 126.969 127.091 127.009 127.081 127.052C127.07 127.094 127.068 127.139 127.075 127.182C127.081 127.225 127.097 127.267 127.12 127.304C127.143 127.342 127.173 127.374 127.209 127.4C127.281 127.452 127.371 127.474 127.459 127.46C127.547 127.446 127.626 127.399 127.678 127.327C129.159 125.822 130.269 123.993 130.92 121.985C132.296 118.103 132.235 113.404 129.078 110.706C129.003 110.629 128.901 110.585 128.794 110.584C128.687 110.582 128.584 110.624 128.507 110.698C128.43 110.773 128.386 110.875 128.385 110.982C128.384 111.089 128.425 111.192 128.5 111.269Z" fill="#191919"/>
<path d="M88.0423 122.861C87.4878 123.685 87.0599 124.588 86.773 125.539C85.3204 130.562 87.0972 136.302 92.4309 135.96C92.5196 135.967 92.6073 135.937 92.6745 135.879C92.7418 135.821 92.7831 135.738 92.7895 135.65C92.7959 135.561 92.7668 135.473 92.7086 135.406C92.6504 135.339 92.5678 135.297 92.4791 135.291C91.7171 135.116 90.986 134.826 90.311 134.431C87.4438 132.763 87.2709 129.075 88.0062 125.857C88.1941 124.966 88.445 124.089 88.757 123.234C88.7816 123.187 88.7967 123.136 88.8015 123.083C88.8063 123.03 88.8007 122.977 88.7849 122.926C88.7691 122.876 88.7435 122.829 88.7096 122.788C88.6757 122.747 88.6341 122.714 88.5871 122.689C88.5402 122.664 88.4889 122.649 88.4361 122.644C88.3833 122.64 88.3301 122.645 88.2796 122.661C88.229 122.677 88.182 122.702 88.1413 122.736C88.1006 122.77 88.0669 122.812 88.0423 122.859V122.861Z" fill="#191919"/>
<path d="M167.678 122.263C167.226 120.581 166.759 118.976 166.354 117.148C165.346 112.499 164.677 108.799 160.064 106.656C157.348 105.399 154.606 106.065 153.449 106.295C144.632 108.073 141.078 114.538 138.821 123.25C138.399 124.884 134.878 140.908 134.289 143.44C134.267 143.534 134.28 143.633 134.327 143.718C134.374 143.803 134.45 143.868 134.541 143.9C135.494 144.227 136.466 144.496 137.452 144.705C138.204 144.853 138.196 144.496 137.974 143.862C137.903 143.666 137.849 143.465 137.812 143.26C137.766 142.997 137.726 142.715 137.891 142.549C137.934 142.504 137.968 142.451 137.989 142.393C138.01 142.334 138.018 142.272 138.012 142.21C138.007 142.148 137.988 142.088 137.957 142.034C137.926 141.98 137.884 141.934 137.833 141.898C136.887 141.183 137.126 139.945 137.879 139.038C137.943 138.957 137.979 138.859 137.984 138.756C137.988 138.653 137.96 138.551 137.903 138.465C137.767 138.291 137.667 138.091 137.61 137.877C137.553 137.663 137.541 137.44 137.573 137.221C137.851 136.095 140.308 135.692 141.659 136.252C141.733 136.282 141.812 136.296 141.892 136.292C141.972 136.289 142.05 136.269 142.121 136.234C142.193 136.198 142.256 136.148 142.307 136.086C142.357 136.025 142.394 135.953 142.415 135.876L142.688 134.943C142.727 134.808 142.715 134.664 142.655 134.538C142.596 134.411 142.492 134.311 142.364 134.255C141.189 133.722 141.597 132.835 142.752 132.586C143.55 132.522 144.353 132.634 145.105 132.913C145.856 133.192 146.537 133.631 147.102 134.2C147.205 134.312 147.346 134.382 147.498 134.399C147.65 134.416 147.802 134.377 147.928 134.291C148.32 134.04 148.726 133.81 149.142 133.603C149.267 133.535 149.365 133.428 149.423 133.298C149.48 133.168 149.494 133.023 149.461 132.885C149.212 131.858 149.083 130.78 148.909 129.696C153.506 128.515 158.03 127.066 162.457 125.356C162.766 126.738 162.911 127.844 163.123 129.193C163.148 129.351 163.228 129.495 163.35 129.598C163.472 129.701 163.627 129.756 163.787 129.754C163.947 129.752 164.1 129.692 164.219 129.586C164.338 129.479 164.415 129.333 164.435 129.175C164.663 127.448 164.802 125.71 164.853 123.968L167.284 123.053C167.435 122.993 167.559 122.879 167.631 122.733C167.704 122.587 167.721 122.42 167.678 122.263Z" fill="#FFF6BD"/>
<path d="M150.617 109.405C146.325 111.346 145.371 115.895 145.822 120.565C146.004 122.794 146.539 124.979 147.406 127.041C147.417 127.083 147.437 127.123 147.464 127.158C147.49 127.193 147.524 127.222 147.562 127.244C147.6 127.266 147.642 127.28 147.685 127.286C147.729 127.292 147.773 127.289 147.816 127.277C147.858 127.266 147.898 127.247 147.933 127.221C147.968 127.195 147.997 127.162 148.019 127.124C148.041 127.086 148.055 127.044 148.061 127.001C148.067 126.957 148.064 126.913 148.052 126.871C147.955 126.223 147.649 123.97 147.573 123.517C147.03 121.008 146.936 118.423 147.294 115.881C147.503 114.72 147.939 113.612 148.578 112.621C149.217 111.629 150.045 110.774 151.016 110.104C151.062 110.078 151.102 110.043 151.135 110.001C151.168 109.959 151.192 109.911 151.206 109.86C151.22 109.809 151.224 109.756 151.218 109.703C151.211 109.651 151.194 109.6 151.168 109.554C151.142 109.508 151.107 109.467 151.065 109.434C151.024 109.402 150.976 109.378 150.925 109.364C150.874 109.349 150.82 109.345 150.768 109.352C150.715 109.358 150.664 109.375 150.618 109.401L150.617 109.405Z" fill="#191919"/>
<path d="M139.022 137.874C139.108 137.874 141.164 137.714 141.251 137.702C141.401 137.683 142.291 137.414 142.32 137.129C142.374 136.579 141.052 136.392 140.49 136.408C139.711 136.439 137.824 136.681 137.955 137.414C138.009 137.771 138.936 137.874 139.022 137.874Z" fill="#191919"/>
<path d="M138.783 141.024C138.869 141.018 140.959 140.68 141.046 140.666C141.203 140.632 142.078 140.314 142.091 140.021C142.109 139.468 140.76 139.368 140.167 139.44C139.383 139.531 137.468 139.942 137.663 140.666C137.756 141.019 138.697 141.032 138.783 141.024Z" fill="#191919"/>
<path d="M139.327 143.495C141.15 143.268 142.996 143.32 144.803 143.65C145.941 143.809 147.339 144.409 148.612 144.689C153.514 145.728 158.919 145.678 161.485 141.351C162.024 140.48 162.43 139.534 162.689 138.543C163.304 135.53 163.476 132.444 163.198 129.382C163.089 128.136 162.913 126.904 162.713 125.638C162.704 125.55 162.66 125.469 162.591 125.413C162.522 125.357 162.434 125.331 162.345 125.34C162.257 125.349 162.176 125.393 162.12 125.462C162.064 125.531 162.038 125.619 162.047 125.708C162.225 129.075 162.179 135.119 161.399 138.225C161.167 139.087 160.81 139.911 160.339 140.67C158.122 144.416 153.145 144.301 148.884 143.413C147.591 143.015 146.278 142.686 144.95 142.429C143.019 142.18 141.06 142.273 139.162 142.705C139.061 142.73 138.973 142.794 138.918 142.883C138.863 142.971 138.844 143.078 138.866 143.18C138.887 143.282 138.947 143.372 139.034 143.431C139.12 143.489 139.226 143.512 139.329 143.495H139.327Z" fill="#191919"/>
<path d="M153.731 131.775C153.604 131.431 152.731 131.48 152.386 131.612C151.947 131.78 151.527 131.994 151.133 132.251C151.041 131.975 150.948 131.7 150.844 131.43C150.631 130.879 150.371 130.358 150.137 129.814C150.122 129.763 150.097 129.715 150.064 129.674C150.031 129.633 149.99 129.599 149.943 129.573C149.896 129.548 149.845 129.532 149.793 129.527C149.74 129.521 149.687 129.526 149.636 129.541C149.585 129.556 149.538 129.581 149.496 129.615C149.455 129.648 149.421 129.689 149.396 129.736C149.37 129.782 149.355 129.834 149.349 129.886C149.344 129.939 149.348 129.992 149.363 130.043C149.495 131.04 149.712 132.024 150.012 132.984C148.966 133.586 148.228 133.93 147.186 134.608C145.922 133.419 144.565 132.526 142.891 132.974C142.846 132.977 142.802 132.989 142.762 133.009C142.722 133.029 142.686 133.057 142.657 133.091C142.628 133.126 142.606 133.166 142.592 133.209C142.579 133.252 142.575 133.297 142.579 133.342C142.584 133.387 142.598 133.43 142.62 133.47C142.642 133.509 142.671 133.543 142.707 133.571C142.743 133.599 142.784 133.619 142.827 133.63C142.871 133.641 142.916 133.644 142.961 133.637C143.192 133.663 143.419 133.714 143.639 133.789C144.781 134.29 145.806 135.022 146.649 135.939C146.761 136.048 146.907 136.114 147.062 136.127C147.217 136.14 147.372 136.098 147.5 136.009C147.938 135.698 152.163 133.192 152.447 133.043C152.631 132.952 153.94 132.32 153.731 131.775Z" fill="#191919"/>
<path d="M154.026 145.588C152.412 145.659 150.796 145.59 149.195 145.383C146.938 144.981 144.994 144.107 142.605 143.932C141.221 143.977 139.844 144.149 138.491 144.444C138.322 144.462 138.166 144.545 138.056 144.675C137.945 144.805 137.889 144.972 137.898 145.143C137.975 146.737 138.136 148.067 138.291 149.75C138.306 149.915 138.383 150.069 138.507 150.181C138.63 150.292 138.791 150.353 138.957 150.352C149.301 150.249 151.979 150.233 152.646 150.197C153.116 150.172 153.142 149.997 153.349 149.574C153.897 148.506 154.308 147.373 154.574 146.202C154.585 146.125 154.579 146.045 154.557 145.97C154.534 145.895 154.495 145.826 154.443 145.767C154.391 145.709 154.326 145.662 154.254 145.632C154.182 145.601 154.104 145.586 154.026 145.588Z" fill="#191919"/>
<path d="M71.9812 67.4355C70.164 65.8436 65.8451 65.6742 64.5525 68.63C64.0735 69.6628 63.9993 70.8377 64.3445 71.9225C64.6897 73.0073 65.4292 73.9232 66.417 74.4892C67.3099 74.9798 68.3244 75.2047 69.341 75.1377C72.787 74.8934 74.4829 69.6147 71.9812 67.4355ZM66.6414 72.9877C66.1071 72.4435 65.7503 71.7502 65.618 70.9991C65.4856 70.2481 65.584 69.4746 65.9001 68.7806C66.7601 66.8679 68.7244 66.9746 70.5794 67.9292C69.3246 69.6646 67.8196 71.1911 66.6414 72.9877Z" fill="#191919"/>
<path d="M144.23 63.5067C144.216 63.4195 144.168 63.3415 144.096 63.2893C144.025 63.2371 143.936 63.2148 143.848 63.2272C138.356 63.9471 133.199 66.8031 130.416 71.7412C128.067 70.3155 125.412 69.469 122.671 69.2714C119.93 69.0739 117.181 69.5311 114.651 70.6052C107.331 73.5464 101.198 80.8271 98.1876 88.1655C93.0955 86.9065 87.9123 89.5639 84.5996 93.5723C84.5651 93.6125 84.5387 93.6591 84.5222 93.7094C84.5056 93.7597 84.4991 93.8128 84.5031 93.8656C84.507 93.9184 84.5213 93.97 84.5452 94.0173C84.5691 94.0646 84.602 94.1067 84.6422 94.1412C84.6823 94.1758 84.7289 94.2021 84.7792 94.2187C84.8295 94.2352 84.8826 94.2417 84.9354 94.2378C84.9883 94.2338 85.0398 94.2195 85.0871 94.1956C85.1344 94.1718 85.1765 94.1388 85.2111 94.0987C88.3879 90.5727 93.2744 88.273 97.8178 89.3936C97.4146 90.7091 97.1681 92.0675 97.0834 93.4408C97.0903 93.7125 97.2167 94.8787 97.5994 94.8976C97.9821 94.9165 98.2874 93.6936 98.3631 93.3135C99.0511 89.8374 98.9926 88.1827 102.335 83.0597C105.517 78.1749 110.03 73.9067 115.149 71.8496C117.511 70.8431 120.079 70.4156 122.64 70.6026C125.201 70.7895 127.681 71.5857 129.872 72.9246C129.419 73.7889 129.079 74.7077 128.86 75.6585C128.823 75.9406 128.788 76.9399 129.118 77.0242C129.462 77.1102 130.01 76.0782 130.143 75.7463C131.942 71.5073 132.951 69.335 136.799 66.7773C138.966 65.3473 141.397 64.3668 143.95 63.8937C144.038 63.8796 144.118 63.8309 144.17 63.7583C144.223 63.6857 144.244 63.5952 144.23 63.5067Z" fill="#191919"/>
<path d="M51.2112 102.061C50.8672 94.258 44.6176 87.6463 36.8853 88.4057C34.5823 83.6344 29.2657 79.8581 20.6546 79.8581C20.6016 79.8556 20.5486 79.8636 20.4987 79.8816C20.4487 79.8996 20.4029 79.9273 20.3637 79.9631C20.3245 79.9989 20.2928 80.0421 20.2704 80.0902C20.248 80.1383 20.2354 80.1904 20.2332 80.2434C20.2294 80.3505 20.2681 80.4546 20.3407 80.5334C20.4133 80.6121 20.514 80.659 20.621 80.664C23.7416 80.8686 26.7945 81.666 29.6166 83.0135C32.3972 84.3219 34.6153 86.5855 35.8671 89.3921C35.9254 89.5255 36.0256 89.6362 36.1526 89.7073C36.2796 89.7784 36.4264 89.806 36.5706 89.786C43.1573 88.8744 48.258 93.8589 50.0296 100.116C50.1992 100.707 50.3361 101.306 50.4398 101.912C49.9118 101.842 49.3763 101.853 48.8514 101.943C48.6243 101.996 47.7136 102.312 47.7798 102.717C47.8357 103.082 48.8634 103.17 48.9606 103.178C49.4753 103.169 49.9899 103.202 50.4991 103.278C51.1287 103.389 52.8289 104.15 53.0946 103.823C53.2744 103.588 52.939 102.523 51.2112 102.061Z" fill="#191919"/>
<path d="M95.6157 49.2054C92.9282 47.7572 93.1149 44.7755 95.4343 42.6264C98.1605 40.1152 101.926 39.0144 105.65 38.6988C105.755 38.6923 105.857 38.7265 105.937 38.7943C106.016 38.8621 106.067 38.9581 106.077 39.0622C106.087 39.1662 106.056 39.2701 105.991 39.352C105.926 39.4339 105.832 39.4874 105.728 39.5012C96.1016 40.6192 92.0399 46.8112 96.9066 48.3961C97.0064 48.4298 97.0962 48.4881 97.1677 48.5655C97.2392 48.6429 97.2901 48.737 97.3158 48.8392C97.3414 48.9414 97.341 49.0484 97.3146 49.1504C97.2882 49.2524 97.2366 49.3461 97.1646 49.423C95.5199 51.2231 93.569 52.7174 91.4026 53.8365C96.4061 53.2938 101.234 51.6806 105.559 49.1065C105.675 49.0359 105.81 49.0021 105.946 49.0096C106.081 49.0171 106.212 49.0656 106.319 49.1486C111.097 52.8527 118.683 52.1027 122.496 47.2566C122.576 47.1553 122.683 47.0794 122.805 47.038C122.927 46.9966 123.059 46.9916 123.184 47.0236C125.894 47.7021 130.109 47.396 132.198 45.5332C132.287 45.4543 132.396 45.401 132.514 45.3791C132.631 45.3571 132.752 45.3673 132.864 45.4085C137.992 47.3512 144.142 45.9314 147.548 41.6744C147.613 41.5912 147.702 41.5289 147.802 41.495C147.903 41.4611 148.011 41.4571 148.114 41.4835C151.695 42.469 156.037 42.0493 158.466 39.2002C158.524 39.1377 158.604 39.0998 158.689 39.0941C158.774 39.0884 158.858 39.1153 158.924 39.1694C158.99 39.2235 159.032 39.3006 159.043 39.3852C159.054 39.4697 159.032 39.5551 158.982 39.6241C156.524 42.7477 152.093 43.4597 148.191 42.6195C146.348 44.7996 143.883 46.3648 141.127 47.1057C138.37 47.8466 135.453 47.728 132.765 46.7656C130.346 48.649 126.229 49.0188 123.277 48.4073C121.127 50.8148 118.172 52.3544 114.968 52.737C111.763 53.1196 108.529 52.3188 105.873 50.4851C99.8358 54.0653 92.6186 55.5591 85.491 55.4731C85.3224 55.4692 85.1618 55.4006 85.0426 55.2814C84.9233 55.1621 84.8546 55.0016 84.8508 54.833C84.8469 54.6644 84.9081 54.5009 85.0218 54.3763C85.1354 54.2517 85.2927 54.1758 85.4609 54.1642C89.3317 53.7853 92.9367 52.0249 95.6157 49.2054Z" fill="#191919"/>
<path d="M45.2676 56.7832C41.2784 56.2291 37.6596 54.149 35.173 50.9808C35.1042 50.8869 35.0617 50.7763 35.05 50.6604C35.0382 50.5446 35.0575 50.4277 35.106 50.3219C35.1545 50.216 35.2303 50.125 35.3257 50.0582C35.421 49.9914 35.5325 49.9513 35.6485 49.9419C38.496 49.7158 42.8201 47.8642 44.1711 45.4777C45.0311 43.9572 44.547 42.2553 41.7631 40.5533C41.7054 40.5194 41.6552 40.4741 41.6157 40.42C41.5762 40.366 41.5483 40.3044 41.5335 40.2391C41.5187 40.1738 41.5176 40.1062 41.53 40.0404C41.5424 39.9747 41.5682 39.9121 41.6058 39.8567C42.9818 37.9269 41.4338 35.9007 39.3887 34.7346C39.3501 34.7139 39.316 34.6858 39.2883 34.652C39.2605 34.6181 39.2398 34.5791 39.2271 34.5373C39.2144 34.4954 39.2102 34.4514 39.2145 34.4079C39.2188 34.3643 39.2317 34.3221 39.2524 34.2835C39.273 34.2449 39.3011 34.2108 39.3349 34.1831C39.3688 34.1554 39.4078 34.1346 39.4497 34.1219C39.4916 34.1093 39.5355 34.105 39.5791 34.1093C39.6226 34.1136 39.6649 34.1265 39.7034 34.1472C42.034 35.3305 43.8495 37.5812 42.6747 39.953C45.9092 41.9525 46.2308 44.167 45.2221 46.059C43.8323 48.6683 39.8901 50.5199 36.9411 51.0806C40.5265 55.0177 46.9816 56.7359 51.8759 54.9119C52.0337 54.8543 52.2075 54.8582 52.3626 54.9229C52.5177 54.9875 52.6428 55.1082 52.7131 55.2609C52.7833 55.4136 52.7935 55.5871 52.7416 55.7469C52.6897 55.9068 52.5796 56.0412 52.4332 56.1236C45.5532 59.9463 36.5773 58.0328 30.5995 53.1463C24.9235 55.4124 19.7678 52.4721 17.0244 46.9405C14.3313 47.0881 11.6594 46.3902 9.3824 44.9446C7.10538 43.4991 5.33708 41.378 4.32476 38.878C4.28667 38.778 4.28987 38.667 4.33366 38.5693C4.37745 38.4717 4.45824 38.3954 4.55825 38.3573C4.65827 38.3192 4.76932 38.3224 4.86697 38.3662C4.96463 38.41 5.04089 38.4908 5.07898 38.5908C6.90132 43.1342 12.4371 46.3824 17.3151 45.6428C17.4478 45.6234 17.5832 45.6474 17.7012 45.7112C17.8191 45.7751 17.9132 45.8754 17.9695 45.9971C20.4377 51.213 25.1445 54.1112 30.4541 51.7729C30.568 51.7228 30.6937 51.7056 30.8168 51.7234C30.94 51.7412 31.0557 51.7932 31.1507 51.8735C35.0806 55.2112 40.1147 56.962 45.2676 56.7832Z" fill="#191919"/>
<path d="M151.188 92.2203C151.5 92.2754 151.678 92.7363 151.59 93.2472C151.503 93.758 151.176 94.1321 150.867 94.0771C150.558 94.022 150.374 93.5611 150.464 93.0502C150.554 92.5394 150.876 92.1661 151.188 92.2203Z" fill="#191919"/>
<path d="M116.061 91.9574C116.337 92.0391 116.44 92.5242 116.285 93.0359C116.13 93.5476 115.785 93.8959 115.511 93.8176C115.237 93.7394 115.133 93.2543 115.284 92.7392C115.435 92.224 115.783 91.8757 116.061 91.9574Z" fill="#191919"/>
<path d="M58.3225 149.462C56.9362 143.002 48.8066 141.153 42.852 143.926C41.8774 141.889 40.2482 140.239 38.2248 139.238C36.2014 138.237 33.9008 137.943 31.6909 138.404C27.691 130.125 19.9837 124.902 9.2965 124.959C9.19293 124.958 9.09311 124.998 9.01884 125.07C8.94456 125.142 8.90185 125.241 8.90004 125.344C8.89867 125.396 8.90747 125.447 8.92594 125.494C8.94441 125.542 8.97217 125.585 9.00762 125.622C9.04307 125.659 9.08549 125.689 9.13242 125.709C9.17936 125.729 9.22987 125.74 9.28102 125.741C18.5131 126.127 26.4578 130.484 30.5282 138.96C29.0434 139.44 27.6896 140.257 26.5722 141.346C26.4062 141.532 25.6649 142.448 25.9272 142.73C26.1852 142.997 27.3582 142.231 27.5104 142.128C30.5643 140.016 33.2131 138.644 36.8062 140.026C37.958 140.47 39.0076 141.143 39.8913 142.005C40.7749 142.867 41.4741 143.9 41.9464 145.04C41.9801 145.124 42.0312 145.2 42.0963 145.262C42.1614 145.325 42.2389 145.373 42.3239 145.403C42.4089 145.433 42.4994 145.445 42.5894 145.438C42.6793 145.431 42.7668 145.405 42.846 145.362C47.6878 142.679 56.0745 143.561 57.6956 149.623C57.7048 149.665 57.7224 149.706 57.7474 149.741C57.7724 149.776 57.8042 149.806 57.8411 149.829C57.8779 149.852 57.9189 149.867 57.9617 149.874C58.0045 149.881 58.0483 149.879 58.0903 149.868C58.1323 149.858 58.1718 149.839 58.2064 149.813C58.241 149.786 58.2699 149.754 58.2916 149.716C58.3133 149.679 58.3272 149.637 58.3325 149.594C58.3378 149.551 58.3344 149.507 58.3225 149.466V149.462Z" fill="#191919"/>
<path d="M89.6783 138.065C88.9292 137.483 88.0155 137.152 87.0674 137.119C85.791 137.053 84.5135 137.226 83.3006 137.629C82.0065 136.062 80.1949 135.01 78.193 134.663C77.2779 134.46 76.3298 134.455 75.4126 134.649C74.4954 134.843 73.6303 135.231 72.8757 135.787C72.8927 132.707 73.1549 129.633 73.66 126.595C74.0573 124.55 75.0953 122.593 75.7713 120.568C76.6457 117.967 76.9272 115.203 76.5952 112.478C76.4871 110.744 75.8519 109.084 74.7745 107.72C74.3037 107.172 73.7183 106.734 73.0596 106.438C72.401 106.142 71.6852 105.993 70.963 106.004C71.0017 105.701 71.0404 105.383 71.0808 105.049L75.2407 104.969C75.4103 104.967 75.5727 104.9 75.6947 104.782C75.8168 104.664 75.8894 104.504 75.8977 104.335C75.9347 103.724 75.933 102.741 75.9278 102.127L76.8867 101.702C79.6851 104.602 82.555 107.756 84.1107 111.454C84.1723 111.6 84.2836 111.719 84.4249 111.791C84.5662 111.862 84.7283 111.882 84.8824 111.845C85.0365 111.808 85.1725 111.718 85.2663 111.59C85.3601 111.463 85.4056 111.306 85.3947 111.148C84.9483 104.791 85.2364 99.0605 81.203 94.3597C80.0211 93.0683 78.7629 91.8486 77.4354 90.7073C77.4106 90.6845 77.3835 90.6643 77.3545 90.6471C77.6125 86.1227 77.8705 76.4632 77.7372 71.2481C77.6564 68.3878 77.5076 66.8139 77.2943 64.5539C77.314 64.4349 77.3028 64.3129 77.2617 64.1995C75.4797 59.1058 74.2955 56.641 71.3535 49.9743C70.9151 48.648 70.2912 47.3906 69.5002 46.2393C69.2647 45.9325 68.9607 45.685 68.6124 45.5167C68.2642 45.3484 67.8814 45.264 67.4946 45.2701C65.6388 45.3673 64.9318 48.563 64.4201 49.9072C62.5565 54.8462 61.0034 59.7774 59.5715 64.8566C59.538 64.9744 59.5382 65.0992 59.5721 65.2169C59.606 65.3345 59.6722 65.4403 59.7632 65.5222C59.9868 68.7971 60.5278 81.1897 61.1771 90.8578C61.0988 90.8724 61.0265 90.9095 60.969 90.9645C59.642 92.1064 58.3839 93.326 57.2013 94.6169C53.1593 99.3108 53.4551 105.12 53.0071 111.405C52.9962 111.563 53.0416 111.72 53.1354 111.847C53.2293 111.975 53.3653 112.065 53.5194 112.102C53.6735 112.139 53.8356 112.12 53.9769 112.048C54.1182 111.976 54.2295 111.857 54.2911 111.711C55.9491 107.762 59.095 104.451 62.0852 101.37L62.1454 101.99C62.1336 102.063 62.142 102.138 62.1697 102.206C62.1974 102.275 62.2435 102.335 62.3028 102.379C62.3621 102.423 62.4324 102.451 62.5061 102.458C62.5798 102.465 62.654 102.452 62.7208 102.42C63.1809 102.471 63.2566 102.476 63.7528 102.536C63.7309 103.259 63.7686 103.982 63.8654 104.699C63.8905 104.837 63.9647 104.962 64.0742 105.051C64.1838 105.139 64.3216 105.185 64.4623 105.18L68.4252 105.103C68.4854 105.579 68.5481 106.062 68.6169 106.57C67.4907 107.109 66.4951 107.886 65.6988 108.847C64.9026 109.809 64.3249 110.932 64.0056 112.139C62.7543 117.652 66.8574 122.299 68.297 127.131C68.8801 129.084 68.7631 131.398 68.9085 133.461C68.973 134.268 69.0426 135.101 69.114 135.943C65.7996 133.563 61.0593 134.674 57.879 137.037C54.8096 135.124 50.2009 134.829 45.151 137.758C45.1037 137.78 45.0613 137.811 45.0263 137.85C44.9913 137.888 44.9643 137.934 44.9471 137.983C44.9299 138.032 44.9228 138.084 44.9261 138.136C44.9294 138.188 44.9431 138.239 44.9664 138.286C44.9897 138.332 45.0222 138.374 45.0618 138.408C45.1014 138.441 45.1474 138.467 45.1971 138.483C45.2468 138.498 45.2992 138.504 45.3511 138.499C45.403 138.494 45.4534 138.479 45.4993 138.455C47.84 137.428 50.3644 136.886 52.9202 136.861C54.5712 136.905 56.1742 137.426 57.5358 138.361C57.6514 138.441 57.7901 138.482 57.9309 138.477C58.0717 138.472 58.2071 138.422 58.3167 138.333C61.7137 135.536 66.5787 135.38 69.1828 136.816C69.3789 139.179 69.5621 141.568 69.6042 143.622C69.6042 143.729 69.6468 143.832 69.7226 143.908C69.7984 143.984 69.9012 144.026 70.0084 144.026C70.1156 144.026 70.2184 143.984 70.2942 143.908C70.37 143.832 70.4126 143.729 70.4126 143.622C70.4548 139.389 70.2544 137.091 70.0944 133.388C69.9826 131.222 70.1804 129.025 69.5251 126.766C68.1388 122.06 64.1613 117.392 65.2973 112.437C65.548 111.497 65.9859 110.618 66.5849 109.852C67.1839 109.086 67.9315 108.449 68.7829 107.979L68.807 107.966C68.9532 108.987 69.1226 110.141 69.3299 111.538L69.2938 112.32C69.2864 112.426 69.3215 112.531 69.3912 112.612C69.461 112.692 69.5599 112.742 69.6661 112.75C69.7291 112.753 69.7919 112.742 69.8502 112.719C69.9085 112.695 69.9609 112.659 70.0037 112.612C70.0464 112.566 70.0785 112.511 70.0976 112.451C70.1167 112.391 70.1223 112.327 70.1142 112.265C70.3172 110.467 70.5365 109.124 70.7807 107.363C71.346 107.326 71.9123 107.42 72.4348 107.639C72.9572 107.859 73.4214 108.197 73.7907 108.626C74.6695 109.794 75.1857 111.194 75.2751 112.652C75.5824 115.178 75.3248 117.74 74.5208 120.154C73.8328 122.252 72.8223 124.11 72.3975 126.357C71.3079 132.356 72.1842 138.012 71.8161 143.643C71.8095 143.731 71.838 143.818 71.8954 143.885C71.9528 143.952 72.0344 143.993 72.1223 144C72.2109 144.007 72.2988 143.979 72.3668 143.921C72.4348 143.864 72.4773 143.782 72.4852 143.694C72.708 141.472 72.7802 139.183 72.8464 136.905C74.3773 135.976 76.1927 135.632 77.9574 135.936C79.5526 136.341 81.0644 137.022 82.4242 137.949C81.6612 138.242 80.9475 138.65 80.3078 139.159C80.0954 139.331 79.9053 139.513 79.717 139.701C79.633 139.761 79.5763 139.851 79.5593 139.953C79.5423 140.055 79.5664 140.159 79.6262 140.243C79.6861 140.327 79.7769 140.384 79.8786 140.401C79.9802 140.418 80.0845 140.394 80.1685 140.334C80.9272 139.989 81.6883 139.65 82.4518 139.316C83.884 138.68 85.4374 138.361 87.0046 138.383C87.8095 138.427 88.6112 138.517 89.4057 138.653C89.4837 138.689 89.5729 138.693 89.6536 138.663C89.7343 138.634 89.8 138.573 89.8362 138.495C89.8723 138.417 89.876 138.328 89.8464 138.247C89.8168 138.167 89.7563 138.101 89.6783 138.065ZM74.8631 102.971C74.8261 103.659 74.3592 104.12 74.145 104.113C73.2575 104.068 73.3392 101.315 74.2026 101.315C74.7229 101.315 74.8906 102.31 74.8631 102.971ZM64.5595 58.9888C64.5437 58.2225 64.5851 57.4562 64.6833 56.696C64.7968 55.8515 65.8194 49.9132 65.8374 49.8264C65.9831 49.0085 66.3387 48.2424 66.8694 47.6033C66.8994 47.5593 66.9378 47.5217 66.9824 47.4926C67.027 47.4635 67.0768 47.4435 67.1291 47.4336C67.1815 47.4238 67.2352 47.4244 67.2873 47.4353C67.3394 47.4463 67.3888 47.4674 67.4327 47.4975C67.4768 47.5271 67.5146 47.5651 67.5439 47.6094C67.5732 47.6537 67.5934 47.7034 67.6033 47.7555C67.6133 47.8077 67.6127 47.8613 67.6017 47.9133C67.5907 47.9653 67.5695 48.0145 67.5394 48.0582C67.3987 48.3754 67.3029 48.7105 67.2547 49.0541C67.2323 49.1573 66.3414 55.1885 65.9398 56.9231C65.7679 57.6788 65.5234 58.4161 65.2096 59.1247C65.2007 59.1676 65.1834 59.2083 65.1587 59.2446C65.1341 59.2808 65.1025 59.3118 65.0659 59.3359C64.9918 59.3844 64.9015 59.4016 64.8149 59.3835C64.7282 59.3655 64.6522 59.3138 64.6037 59.2398C64.5551 59.1658 64.538 59.0755 64.556 58.9888H64.5595ZM63.6135 61.5198C63.6797 61.0975 64.2034 60.6477 64.4889 60.7174C64.6683 60.8279 64.8072 60.9935 64.8847 61.1894C64.9622 61.3854 64.9742 61.6011 64.9189 61.8044C64.9036 61.8934 64.8708 61.9785 64.8223 62.0546C64.7738 62.1308 64.7107 62.1966 64.6367 62.2482C64.5626 62.2998 64.479 62.3362 64.3907 62.3552C64.3025 62.3743 64.2114 62.3756 64.1226 62.3591C63.9439 62.3152 63.7899 62.2021 63.6944 62.0448C63.599 61.8874 63.5699 61.6986 63.6135 61.5198ZM65.3816 104.399C65.1606 104.417 64.6936 103.922 64.624 103.342C64.4786 102.138 64.9318 101.714 65.1752 101.702C65.6439 101.675 65.8933 102.562 65.938 103.031C66.0369 103.881 65.5975 104.386 65.3816 104.399ZM68.1783 104.022C67.9586 103.944 67.7661 103.804 67.6238 103.619C67.4814 103.435 67.3954 103.213 67.376 102.98C67.2607 102.292 67.3605 101.332 67.8782 101.29C68.6642 101.236 69.1622 103.893 68.1783 104.022ZM70.0583 90.5646C69.9482 90.4291 69.7893 90.3424 69.6159 90.3231C69.4424 90.3038 69.2684 90.3534 69.1312 90.4614C67.1489 91.9913 67.4233 94.7717 67.6288 97.2425C67.7105 98.1652 67.7845 98.984 67.8533 99.7287C66.078 99.9294 64.3639 100.497 62.8197 101.395C62.8972 97.2337 62.7485 93.0709 62.3742 88.9254C61.3929 74.2117 61.4721 71.482 60.6224 65.6031C64.2954 64.7568 74.5742 64.7757 76.6184 64.7887C76.5633 67.5768 76.2297 86.2757 76.1428 88.5745C75.9373 94.0003 75.65 96.1356 75.9837 100.185C74.5326 99.8428 73.0527 99.6375 71.5633 99.5714C71.7287 97.4749 71.6468 95.3663 71.3191 93.2891C71.1173 92.2949 70.6855 91.3618 70.0583 90.5646ZM70.9389 102.655C70.9888 101.923 71.2967 101.157 71.7129 101.174C72.2341 101.195 72.3614 102.202 72.2797 102.864C72.2738 103.102 72.1983 103.332 72.0625 103.527C71.9267 103.722 71.7367 103.873 71.516 103.961C71.0533 103.922 70.8959 103.301 70.9389 102.655Z" fill="#191919"/>
<path d="M53.5283 141.38C54.0727 141.177 54.8673 140.979 55.0221 140.938C56.1606 140.588 57.352 140.442 58.5413 140.508C59.743 140.602 60.9278 140.848 62.0673 141.242C62.2307 141.29 63.3839 141.597 63.6084 141.666C63.6456 141.686 63.6864 141.699 63.7286 141.703C63.7708 141.708 63.8134 141.704 63.8541 141.692C63.8948 141.68 63.9327 141.66 63.9657 141.634C63.9988 141.607 64.0262 141.574 64.0466 141.537C64.0669 141.5 64.0797 141.459 64.0842 141.417C64.0888 141.375 64.085 141.332 64.073 141.291C64.0611 141.251 64.0412 141.213 64.0146 141.18C63.988 141.147 63.9552 141.119 63.918 141.099C63.4815 140.73 63.006 140.41 62.4998 140.145C60.0179 139.029 57.2024 138.909 54.6343 139.809C54.1033 140.041 53.6047 140.342 53.1508 140.702C53.0641 140.755 53.0012 140.839 52.9754 140.937C52.9495 141.035 52.9627 141.139 53.0121 141.227C53.0615 141.315 53.1433 141.381 53.2403 141.41C53.3373 141.44 53.4418 141.43 53.5318 141.384L53.5283 141.38Z" fill="#191919"/>
<path d="M126.226 90.3566C125.564 89.1926 124.575 88.2489 123.381 87.6433C123.346 86.5541 123.19 85.4721 122.915 84.4175C122.574 83.4014 121.968 82.495 121.159 81.7922C120.351 81.0893 119.368 80.6156 118.315 80.4202C117.564 80.2583 116.786 80.2831 116.047 80.4922C115.308 80.7013 114.632 81.0884 114.078 81.6197C113.523 82.1509 113.108 82.81 112.867 83.5392C112.627 84.2683 112.569 85.0453 112.699 85.8021C112.83 86.5927 113.092 87.3562 113.473 88.0613C113.81 88.7585 114.25 89.4007 114.778 89.9662C114.24 90.7473 113.797 91.5897 113.458 92.4757C112.197 93.1359 111.223 94.2353 110.719 95.5656C110.65 95.7225 110.644 95.8999 110.702 96.0611C110.76 96.2223 110.878 96.355 111.031 96.4317L111.906 96.8677C111.866 99.6816 112.697 102.238 115.329 103.232C115.263 103.895 115.263 104.072 115.243 104.942C115.23 105.03 115.253 105.119 115.307 105.19C115.36 105.262 115.439 105.309 115.527 105.321C115.615 105.334 115.704 105.311 115.775 105.257C115.846 105.204 115.893 105.125 115.906 105.037L116.375 103.348C118.004 103.606 120.709 103.131 122.59 102.678C122.567 103.297 122.575 103.917 122.616 104.535C122.639 105.02 122.788 106.132 123.243 106.162C123.652 106.189 123.924 105.283 123.943 104.69C123.954 104.358 123.907 103.196 123.879 102.864C123.868 102.577 123.827 102.292 123.756 102.014C124.397 100.817 125.012 99.6069 125.602 98.3839C126.884 95.6422 127.718 92.9994 126.226 90.3566ZM114.115 85.2499C114.12 84.5949 114.315 83.9554 114.675 83.4087C115.965 81.281 118.486 81.2845 116.719 83.0509C116.372 83.359 116.069 83.7138 115.82 84.1053C115.594 84.496 115.429 84.9188 115.33 85.3592C114.819 87.0078 114.245 86.2639 114.115 85.2499ZM117.745 97.5419C117.297 97.8068 116.774 97.9154 116.258 97.8507C116.171 97.8466 116.084 97.8605 116.002 97.8915C115.921 97.9224 115.847 97.9697 115.784 98.0305C115.722 98.0913 115.673 98.1643 115.64 98.2449C115.606 98.3255 115.59 98.412 115.592 98.4991C115.634 99.7031 115.604 100.885 115.748 102.133C113.644 101.015 113.139 99.0263 113.254 96.4901C113.259 96.3615 113.228 96.2339 113.163 96.1226C113.098 96.0114 113.002 95.9213 112.887 95.8632L112.215 95.533C112.397 95.1876 112.613 94.861 112.86 94.5577C113.824 93.3873 114.353 93.7476 114.547 93.1766C114.813 92.2762 115.129 91.3914 115.493 90.526C116.045 90.8712 116.647 91.1302 117.277 91.294C116.954 92.3974 116.858 92.9512 116.568 94.3771C116.534 94.5384 116.562 94.7066 116.647 94.848C116.732 94.9894 116.867 95.0937 117.025 95.1399C117.392 95.212 117.737 95.3709 118.031 95.6035C118.238 95.9027 118.323 96.2691 118.27 96.6287C118.216 96.9883 118.029 97.3144 117.745 97.5411V97.5419Z" fill="#191919"/>
</svg>
