<svg width="172" height="173" viewBox="0 0 172 173" fill="none" xmlns="http://www.w3.org/2000/svg">
<path d="M117.301 26.9524C108.693 20.5256 97.0912 15.6477 86.5743 17.1286C86.5484 17.1317 86.5238 17.1414 86.5028 17.1568C86.4818 17.1721 86.4651 17.1925 86.4542 17.2162C86.4433 17.2398 86.4387 17.2658 86.4408 17.2917C86.4428 17.3177 86.4515 17.3426 86.4659 17.3643C80.3711 19.7723 81.2491 19.4592 81.066 19.418C75.1826 18.1774 69.074 18.5406 63.3792 20.4697C62.9492 20.6142 62.5106 20.7527 62.0961 20.9359C61.9246 21.0003 61.7733 21.1092 61.6579 21.2514C61.5424 21.3937 61.4669 21.564 61.439 21.7451C61.3651 22.2069 61.3943 21.3229 62.041 32.2793C62.041 32.3222 62.0577 32.3634 62.0876 32.3942C62.1174 32.425 62.1581 32.443 62.201 32.4444C66.4187 32.6399 70.5462 33.7326 74.3081 35.6496C78.191 37.6276 81.0737 40.7055 84.905 40.6032C87.0748 40.5456 89.1534 39.6933 91.3369 40.1311C92.3758 40.3392 93.3726 40.715 94.4028 40.9558C99.7409 42.2037 102.453 37.6568 108.455 36.9258C111.325 36.5758 112.139 37.3232 112.732 36.5036C112.904 36.2679 116.349 29.1936 117.362 27.1812C117.383 27.1425 117.389 27.0972 117.377 27.0546C117.366 27.0121 117.339 26.9755 117.301 26.9524ZM98.8284 28.3491C98.8039 28.5623 98.7328 28.7674 98.6201 28.9501C98.5073 29.1327 98.3558 29.2882 98.1762 29.4057C97.9966 29.5232 97.7933 29.5996 97.5808 29.6297C97.3684 29.6598 97.1519 29.6427 96.9467 29.5797C95.8881 31.9611 94.5387 34.4731 92.2167 35.6857C91.6228 36.0709 90.9232 36.2607 90.2161 36.2286C89.5089 36.1966 88.8294 35.9442 88.2728 35.5068C87.728 35.0314 87.2111 34.5249 86.7248 33.9898C85.7065 32.8546 85.292 31.7684 83.4473 27.9397C82.4101 28.042 81.4039 27.0935 81.5261 25.6108C81.5252 25.2106 81.6793 24.8257 81.9561 24.5367C82.1131 24.4027 82.3091 24.3231 82.5151 24.3096C83.0749 23.4703 87.5891 22.5105 90.317 17.4296C90.3363 17.3978 90.3626 17.3707 90.3938 17.3504C90.425 17.3302 90.4604 17.3172 90.4974 17.3125C90.5343 17.3078 90.5719 17.3114 90.6072 17.3232C90.6425 17.335 90.6747 17.3546 90.7014 17.3806C95.5269 21.7993 94.7752 22.3901 96.8323 24.3888C97.3543 24.8113 97.7711 25.3491 98.0501 25.96C98.2169 26.2378 98.6435 26.0881 98.8052 26.6901C98.9188 27.2365 98.9267 27.7997 98.8284 28.3491Z" fill="#169CD5"/>
<path d="M91.5233 10.705C90.8886 10.939 90.6745 11.2038 90.4913 11.2408C90.4562 11.2254 90.4215 11.209 90.3872 11.1918C89.8111 10.8737 89.1697 10.6917 88.5124 10.6596C87.855 10.6276 87.199 10.7464 86.5946 11.0069C83.2613 12.3511 80.0767 16.9521 80.6787 21.0207C80.7366 21.4832 80.8418 21.9385 80.9926 22.3795C81.1457 22.739 81.1904 23.6764 81.5851 24.1193C81.2657 24.4119 81.0372 24.7902 80.9268 25.2091C80.8164 25.6279 80.8288 26.0697 80.9625 26.4817C81.0026 26.9359 81.1887 27.365 81.493 27.7045C81.7974 28.044 82.2035 28.2758 82.6507 28.3651C83.7085 28.4726 82.9654 27.4355 83.7627 29.5691C84.8101 32.3676 87.1726 36.6022 90.1757 36.8594C91.3644 36.8361 92.5032 36.377 93.3757 35.5694C95.059 34.1004 96.3331 32.2204 97.0737 30.1127C97.2781 30.1748 97.4937 30.1908 97.705 30.1596C97.9164 30.1283 98.1181 30.0506 98.2958 29.9321C98.8206 29.5248 99.1891 28.9493 99.3395 28.3023C99.4898 27.6553 99.4128 26.9763 99.1214 26.3794C98.9339 26.1214 98.9554 26.3433 99.2272 25.9976C99.7465 25.2246 100.147 24.3781 100.415 23.4864C102.849 15.6586 95.4991 9.23702 91.5233 10.705ZM82.8622 27.6023C82.4013 27.6823 82.0332 27.2583 81.8535 26.7836C81.5404 25.9554 81.5095 24.7678 82.3652 24.5356C82.864 24.6138 82.4787 24.2208 82.87 26.3493C82.9474 26.7696 83.0388 27.1867 83.1443 27.6006C83.0511 27.5822 82.9552 27.5828 82.8622 27.6023ZM96.3789 29.7274C95.444 32.0098 94.3733 34.0712 92.3429 35.3896C91.8198 35.7679 91.2149 36.0175 90.5773 36.118C87.9973 36.3012 85.6753 32.3177 84.6665 29.9665C83.9444 28.2198 83.4666 26.3818 83.2467 24.5046C86.0907 24.0454 88.0919 21.6666 89.8747 19.6181C90.1009 19.3601 90.7433 18.6162 90.8362 18.5001C92.6645 22.5137 95.1826 24.9561 97.5287 26.1592C97.2462 27.3788 96.8616 28.5724 96.3789 29.7274ZM97.3403 29.4444C97.7123 28.4893 98.0183 27.5097 98.2562 26.5127C99.3631 26.609 98.5744 29.7687 97.3403 29.4444Z" fill="#191919"/>
<path d="M85.8795 25.7555C86.0274 25.0374 87.0654 25.015 87.443 26.25C87.4888 26.4078 87.543 26.5632 87.6055 26.7152C87.6388 26.7712 87.6896 26.8148 87.75 26.8393C87.8103 26.8638 87.8771 26.868 87.94 26.8511C88.395 26.7281 88.026 25.8191 87.7981 25.451C86.9218 24.0441 85.2628 24.7209 85.428 25.7563C85.4641 25.9842 85.8339 25.9739 85.8795 25.7555Z" fill="#191919"/>
<path d="M92.7773 26.4949C92.8409 26.3685 92.914 26.2481 92.9863 26.1259C93.0585 26.0038 93.1075 25.8679 93.1841 25.7432C93.4584 25.3038 93.9684 25.0114 94.3821 25.3261C94.5034 25.4232 94.6389 25.5012 94.7837 25.5575C95.0107 25.6383 95.2644 24.9976 94.5523 24.6614C94.2179 24.5295 93.8463 24.5269 93.51 24.6541C93.1738 24.7813 92.8969 25.0292 92.7334 25.3494C92.5212 25.6582 92.415 26.0276 92.4307 26.402C92.432 26.4422 92.4462 26.4809 92.4712 26.5124C92.4963 26.5439 92.5307 26.5665 92.5696 26.577C92.6084 26.5874 92.6496 26.585 92.687 26.5702C92.7244 26.5554 92.7561 26.529 92.7773 26.4949Z" fill="#191919"/>
<path d="M90.6711 29.408C90.3418 29.0924 90.0898 29.2695 89.6951 28.9006C89.6349 28.8457 89.5826 28.7829 89.5394 28.714C89.5815 28.6477 89.6297 28.585 89.6727 28.5196C90.3297 27.5541 90.5899 26.3728 90.3994 25.2206C90.3461 24.9712 89.9857 25.0443 89.9694 25.2783C89.962 26.4096 89.5989 27.5099 88.9314 28.4233C88.5332 29.1973 90.1405 30.28 90.6686 29.6686C90.7027 29.6339 90.7221 29.5874 90.7225 29.5388C90.723 29.4902 90.7046 29.4433 90.6711 29.408Z" fill="#191919"/>
<path d="M90.1896 33.0787C90.6944 34.2741 92.8788 34.146 92.7627 31.8214C92.7516 31.6133 92.7627 31.3914 92.5787 31.259C92.5358 31.2338 92.4859 31.2236 92.4365 31.2298C92.3872 31.236 92.3414 31.2584 92.3061 31.2934C92.1272 31.4877 92.2622 31.6769 92.2201 32.2884C92.1341 33.513 90.9843 33.6085 90.5164 32.8904C90.4895 32.8512 90.4487 32.8236 90.4023 32.8131C90.356 32.8026 90.3073 32.81 90.2661 32.8337C90.2249 32.8575 90.1942 32.8959 90.18 32.9413C90.1658 32.9867 90.1693 33.0358 90.1896 33.0787Z" fill="#191919"/>
<path d="M59.6429 21.7802C51.8495 21.4689 42.9073 22.2265 36.6697 26.9634C32.7593 29.933 29.3932 34.7894 27.3232 39.2614C27.1808 39.569 27.0682 39.8895 26.9869 40.2186C26.9737 40.2954 26.9869 40.3744 27.0245 40.4428C27.062 40.5111 27.1217 40.5646 27.1936 40.5946C27.2656 40.6245 27.3456 40.6292 27.4205 40.6078C27.4955 40.5863 27.5609 40.5401 27.6061 40.4766C28.1522 39.6544 31.016 32.7486 36.4839 28.1924C43.1188 22.6634 51.6294 22.8036 59.6429 22.1096C59.683 22.1045 59.7199 22.085 59.7467 22.0547C59.7734 22.0244 59.7882 21.9853 59.7882 21.9449C59.7882 21.9044 59.7734 21.8654 59.7467 21.8351C59.7199 21.8047 59.683 21.7852 59.6429 21.7802Z" fill="#191919"/>
<path d="M28.7875 42.823C28.8735 42.7507 38.7798 34.1825 42.1889 32.644C44.2084 31.9021 46.3324 31.4835 48.4824 31.4039C58.1849 30.42 58.2459 30.9111 59.9814 30.5267C60.0204 30.5152 60.0546 30.4913 60.0789 30.4588C60.1032 30.4262 60.1163 30.3867 60.1163 30.3461C60.1163 30.3055 60.1032 30.2659 60.0789 30.2334C60.0546 30.2008 60.0204 30.177 59.9814 30.1655C58.1075 29.7088 51.1965 30.408 49.2529 30.6006C44.5203 31.0685 42.7315 31.1545 39.7198 33.3045C35.7573 36.1014 31.9999 39.178 28.4762 42.5108C28.2732 42.7172 28.5725 42.9975 28.7875 42.823Z" fill="#191919"/>
<path d="M36.5484 55.7907C35.9154 53.8884 34.0647 52.8263 32.3344 51.79C31.2637 51.1493 31.3652 51.2645 31.4744 51.2241C31.6623 51.1576 31.8298 51.0433 31.9602 50.8926C32.0906 50.7418 32.1796 50.5596 32.2183 50.3641C32.294 49.6299 32.1321 48.8907 31.7565 48.2553C29.5127 43.4471 21.9155 40.2574 16.0752 43.0515C5.00101 48.3543 7.91039 67.4162 20.3477 66.9991C22.1907 66.9371 24.1764 66.6456 25.6195 65.4846C25.8624 65.253 26.0766 64.9931 26.2576 64.7106C30.4338 65.507 33.4421 65.4769 35.4106 61.7668C36.397 59.9118 37.2106 57.7953 36.5484 55.7907ZM35.9696 57.4496C35.7614 59.3145 35.0707 61.0929 33.9658 62.6096C32.7162 64.1653 30.9515 64.5214 28.9666 64.3804C26.1286 64.1783 21.3272 62.7756 21.1922 62.7971C20.1102 62.2707 19.1902 61.4622 18.5293 60.4567C17.8683 59.4513 17.4908 58.2861 17.4366 57.0841C17.2715 53.8643 18.4462 51.0701 21.5973 50.0897C24.6873 49.1291 27.7085 50.2884 30.5499 51.8364C31.8316 52.5157 33.067 53.279 34.2479 54.1214C34.8002 54.4779 35.2496 54.9726 35.5516 55.5564C35.8536 56.1402 35.9977 56.7929 35.9696 57.4496Z" fill="#191919"/>
<path d="M20.8175 57.4527C20.9706 57.1947 20.6756 56.9539 20.4331 57.0683C20.1652 57.1798 19.9385 57.3718 19.7847 57.6178C19.599 57.9473 19.5071 58.3213 19.5191 58.6993C19.5311 59.0773 19.6464 59.4448 19.8526 59.7618C19.9054 59.8555 19.9762 59.9378 20.0609 60.0041C20.1456 60.0704 20.2426 60.1192 20.3462 60.1479C20.4217 60.1678 20.501 60.1675 20.5763 60.1472C20.6516 60.1268 20.7203 60.0871 20.7754 60.0319C20.8306 59.9768 20.8703 59.9081 20.8907 59.8328C20.9111 59.7575 20.9113 59.6782 20.8915 59.6027C20.6577 59.2963 20.525 58.9247 20.5118 58.5395C20.4985 58.1543 20.6054 57.7745 20.8175 57.4527Z" fill="#191919"/>
<path d="M22.8147 52.8144C22.8356 52.888 22.8824 52.9516 22.9465 52.9935C23.0106 53.0353 23.0876 53.0526 23.1635 53.0421C23.2393 53.0317 23.3088 52.9941 23.3591 52.9365C23.4094 52.8788 23.4372 52.8049 23.4374 52.7284C23.4488 52.5131 23.5048 52.3025 23.6019 52.1101C23.699 51.9176 23.8351 51.7474 24.0015 51.6104C24.4591 51.3111 24.6646 51.4169 24.8959 51.2148C25.0903 51.0428 25.0998 50.8828 25.0224 50.7633C24.4591 49.8955 22.2463 51.2234 22.8147 52.8144Z" fill="#191919"/>
<path d="M24.2823 59.6448C24.1 59.5287 23.9813 59.6328 23.6614 59.4203C23.5384 59.2965 23.4894 59.1847 23.7027 58.986C23.8179 58.9078 23.8291 58.9147 24.094 58.8622C24.1455 58.8648 24.1964 58.8502 24.2387 58.8208C24.281 58.7914 24.3124 58.7488 24.3279 58.6997C24.3435 58.6505 24.3423 58.5976 24.3245 58.5492C24.3068 58.5008 24.2735 58.4597 24.2299 58.4322C24.1303 58.3795 24.02 58.3501 23.9074 58.3462C23.7442 58.3556 23.5854 58.4029 23.4436 58.4842C23.3018 58.5656 23.1809 58.6788 23.0904 58.8149C23.0296 58.9153 22.9892 59.0267 22.9716 59.1428C22.9539 59.2588 22.9594 59.3772 22.9876 59.4911C23.0158 59.605 23.0662 59.7123 23.1359 59.8067C23.2057 59.9011 23.2933 59.9808 23.3939 60.0413C23.6329 60.1986 23.9157 60.276 24.2015 60.2623C24.2637 60.2424 24.319 60.2053 24.3609 60.1551C24.4028 60.105 24.4295 60.044 24.438 59.9792C24.4465 59.9144 24.4364 59.8486 24.4088 59.7894C24.3812 59.7302 24.3374 59.68 24.2823 59.6448Z" fill="#191919"/>
<path d="M26.2471 54.7676C26.2932 54.767 26.3381 54.753 26.3763 54.7271C26.4144 54.7013 26.4442 54.6649 26.4618 54.6223C26.4795 54.5798 26.4843 54.533 26.4756 54.4877C26.467 54.4425 26.4452 54.4007 26.4131 54.3677C26.0691 54.0822 25.9221 53.7115 26.1551 53.4922C26.5103 53.2755 26.9979 53.5593 27.0942 53.1319C27.1081 53.087 27.1127 53.0398 27.1076 52.993C27.1025 52.9463 27.0879 52.9012 27.0647 52.8603C27.0415 52.8194 27.0102 52.7838 26.9727 52.7555C26.9351 52.7272 26.8922 52.7069 26.8466 52.6959C26.5229 52.6396 26.1897 52.685 25.8928 52.8257C25.7145 52.9398 25.5741 53.1043 25.4896 53.2984C25.405 53.4925 25.3802 53.7073 25.4182 53.9156C25.4562 54.1239 25.5553 54.3161 25.7029 54.4678C25.8506 54.6195 26.04 54.7239 26.2471 54.7676Z" fill="#191919"/>
<path d="M29.2707 58.1932C29.474 57.8796 29.5662 57.5068 29.5323 57.1345C29.4985 56.7623 29.3406 56.4122 29.0841 56.1404C29.0426 56.1015 28.9909 56.0754 28.935 56.0652C28.8791 56.055 28.8214 56.0611 28.7689 56.0828C28.7164 56.1045 28.6712 56.1408 28.6388 56.1875C28.6064 56.2341 28.5881 56.2891 28.5861 56.3459C28.5904 56.8447 29.0497 57.2876 28.7014 57.7477C28.6205 57.82 28.6197 57.844 28.5079 57.8707C28.2791 57.8587 28.2232 57.7546 27.696 57.3934C26.2302 56.3582 24.5137 55.7346 22.7252 55.5874C22.6673 55.5896 22.6119 55.6122 22.5689 55.6511C22.5259 55.6901 22.498 55.7429 22.4901 55.8004C22.4822 55.8579 22.4948 55.9163 22.5257 55.9655C22.5566 56.0146 22.6038 56.0512 22.659 56.069C23.8265 56.3534 24.9628 56.7536 26.0509 57.2635C27.5903 58.053 27.8569 58.6043 28.4864 58.5983C28.6391 58.5939 28.7889 58.5552 28.9247 58.4851C29.0604 58.4149 29.1787 58.3152 29.2707 58.1932Z" fill="#191919"/>
<path d="M31.3884 55.5468C31.2078 55.5158 30.6273 55.6654 30.5989 55.92C30.4217 57.4867 29.9514 59.006 29.2126 60.3989C29.1633 60.4855 29.1498 60.5879 29.175 60.6844C29.2003 60.7808 29.2622 60.8635 29.3476 60.9149C29.9877 61.3091 30.7415 61.4773 31.4886 61.3928C32.2356 61.3083 32.9327 60.976 33.4687 60.4488C35.1724 58.5826 33.9064 55.9836 31.3884 55.5468ZM33.4635 58.7606C33.3958 59.1231 33.2441 59.4647 33.0206 59.7581C32.797 60.0514 32.5079 60.2883 32.1764 60.4499C31.8448 60.6114 31.48 60.693 31.1113 60.6882C30.7425 60.6833 30.38 60.5922 30.0528 60.4221C30.587 59.4084 30.9337 58.3065 31.0762 57.1696C31.1071 56.8547 31.1028 56.5374 31.0633 56.2236C31.1734 56.2864 33.6063 56.6329 33.4635 58.7606Z" fill="#191919"/>
<path d="M58.5775 16.9197C59.8675 16.7632 63.2034 15.6976 66.6873 16.6118C67.0166 16.744 67.3713 16.8008 67.7253 16.7778C67.766 16.7763 67.8054 16.7632 67.8388 16.74C67.8723 16.7168 67.8983 16.6845 67.9139 16.6469C67.9295 16.6093 67.9339 16.568 67.9267 16.5279C67.9195 16.4879 67.901 16.4507 67.8733 16.4209C67.7815 16.2916 67.6473 16.1984 67.494 16.1577C65.301 15.1902 60.5125 15.5291 58.4588 16.4811C58.4156 16.5081 58.3822 16.5483 58.3636 16.5957C58.345 16.6431 58.3421 16.6953 58.3554 16.7444C58.3687 16.7936 58.3975 16.8372 58.4375 16.8688C58.4775 16.9003 58.5266 16.9182 58.5775 16.9197Z" fill="#191919"/>
<path d="M43.9168 72.6067C42.3353 70.5264 38.8359 69.1349 36.2706 68.6009C36.1657 68.5751 36.055 68.5912 35.9619 68.6458C35.8688 68.7004 35.8006 68.7892 35.772 68.8933C35.7433 68.9973 35.7563 69.1085 35.8083 69.2031C35.8603 69.2977 35.9472 69.3682 36.0504 69.3998C38.2407 69.8327 40.3174 70.715 42.1495 71.991C45.2576 74.313 44.2729 77.839 41.0195 77.7616C38.6115 77.7022 36.6782 75.4396 33.9271 73.1477C33.8736 73.0943 33.8011 73.0644 33.7255 73.0644C33.65 73.0645 33.5775 73.0946 33.5241 73.1481C33.4708 73.2016 33.4408 73.2741 33.4409 73.3496C33.441 73.4252 33.4711 73.4976 33.5246 73.551C34.1445 74.2964 34.8269 74.9875 35.5645 75.6167C36.8007 76.9061 38.3319 77.8753 40.0262 78.441C40.7453 78.6394 41.5048 78.6384 42.2233 78.4381C42.9419 78.2378 43.5924 77.8458 44.1052 77.3041C44.6017 76.612 44.8528 75.774 44.8186 74.923C44.7845 74.072 44.4671 73.2568 43.9168 72.6067ZM40.5938 77.7323C40.6239 77.7323 40.6239 77.7323 40.5938 77.7323V77.7323Z" fill="#191919"/>
<path d="M47.9064 57.4705C46.1446 56.6712 44.2091 56.331 42.2803 56.4815C42.2234 56.4789 42.1666 56.4879 42.1133 56.5079C42.06 56.5279 42.0113 56.5585 41.9701 56.5979C41.9289 56.6372 41.8962 56.6845 41.8738 56.7368C41.8514 56.7892 41.8399 56.8455 41.8399 56.9025C41.8399 56.9594 41.8514 57.0158 41.8738 57.0681C41.8962 57.1205 41.9289 57.1678 41.9701 57.2071C42.0113 57.2465 42.06 57.277 42.1133 57.297C42.1666 57.317 42.2234 57.326 42.2803 57.3235C44.4303 57.2701 46.6293 57.3587 48.3261 58.6831C50.4451 60.3386 50.2585 62.695 49.0322 63.4527C46.6242 64.9405 41.6602 60.5226 40.8441 60.0058C40.783 59.9702 40.7109 59.958 40.6415 59.9715C40.572 59.9851 40.5099 60.0234 40.4666 60.0794C40.4233 60.1354 40.4019 60.2053 40.4063 60.2759C40.4108 60.3465 40.4407 60.4131 40.4906 60.4633C40.7543 60.7801 41.0552 61.0639 41.3868 61.3087C43.2856 62.8825 46.7102 65.2484 49.0038 64.3368C51.4513 63.3607 51.4694 59.3625 47.9064 57.4705Z" fill="#191919"/>
<path d="M44.0909 59.019C44.0049 59.707 43.8992 60.3907 43.8433 61.083C43.8447 61.162 43.8691 61.239 43.9137 61.3043C43.9582 61.3697 44.0208 61.4206 44.0939 61.4509C44.167 61.4811 44.2473 61.4893 44.325 61.4745C44.4027 61.4598 44.4744 61.4226 44.5313 61.3676C44.8753 60.9918 45.2098 60.6177 45.5478 60.241C45.571 60.9634 45.4265 61.6961 45.7335 62.0539C45.7804 62.1084 45.8378 62.1527 45.9024 62.1842C45.967 62.2156 46.0373 62.2335 46.1091 62.2368C46.1808 62.2401 46.2525 62.2287 46.3197 62.2033C46.3869 62.178 46.4482 62.1391 46.4998 62.0892C46.7937 61.7128 47.0493 61.308 47.2626 60.8809C47.414 60.6556 47.5483 60.4193 47.6642 60.1739C47.6867 60.0924 47.6815 60.0057 47.6495 59.9273C47.6175 59.849 47.5606 59.7834 47.4875 59.7408C47.4144 59.6983 47.3292 59.681 47.2453 59.6919C47.1614 59.7027 47.0834 59.7409 47.0235 59.8007C46.7759 60.1357 46.5504 60.4864 46.3484 60.8508C46.4136 60.2798 46.3399 59.7015 46.1334 59.1652C46.102 59.1112 46.0586 59.0652 46.0067 59.0306C45.9547 58.996 45.8956 58.9737 45.8337 58.9654C45.7718 58.9571 45.7089 58.963 45.6496 58.9828C45.5904 59.0025 45.5364 59.0354 45.4919 59.0792C45.2241 59.375 44.9581 59.672 44.6938 59.9701C44.7007 59.6528 44.7033 59.3363 44.711 59.0181C44.7109 58.9774 44.7029 58.9371 44.6872 58.8995C44.6716 58.8619 44.6487 58.8277 44.6199 58.799C44.5911 58.7702 44.5569 58.7475 44.5192 58.7319C44.4816 58.7164 44.4413 58.7084 44.4005 58.7085C44.3598 58.7086 44.3195 58.7166 44.2819 58.7323C44.2443 58.7479 44.2102 58.7708 44.1814 58.7996C44.1527 58.8284 44.1299 58.8626 44.1144 58.9003C44.0988 58.9379 44.0909 58.9782 44.0909 59.019Z" fill="#191919"/>
<path d="M38.3307 72.7292C38.3298 72.6548 38.3022 72.5831 38.2529 72.5273C38.2037 72.4714 38.1361 72.4351 38.0624 72.4248C37.9877 72.4128 37.9113 72.4288 37.8478 72.4698C37.7843 72.5107 37.7382 72.5737 37.7184 72.6467C37.5904 73.3553 37.5088 74.0714 37.4741 74.7906C37.4761 74.8674 37.5003 74.942 37.5439 75.0053C37.5874 75.0687 37.6483 75.118 37.7193 75.1474C37.7903 75.1768 37.8683 75.185 37.9438 75.171C38.0194 75.157 38.0892 75.1213 38.1449 75.0684C38.4373 74.7494 38.7289 74.4277 39.0195 74.1069L39.1365 75.7212C39.1381 75.7927 39.158 75.8626 39.1945 75.9241C39.231 75.9856 39.2828 76.0367 39.3448 76.0723C39.4069 76.108 39.477 76.127 39.5486 76.1275C39.6201 76.1281 39.6906 76.1102 39.7531 76.0755C40.4282 75.7048 40.6467 74.9334 41.0199 74.4303C41.179 74.2437 41.3157 74.1499 41.2452 74.2015C41.3281 74.1441 41.3862 74.0575 41.408 73.959C41.4297 73.8606 41.4135 73.7576 41.3625 73.6706C41.3115 73.5836 41.2295 73.5191 41.133 73.49C41.0364 73.4608 40.9325 73.4693 40.8419 73.5135C40.4238 73.8342 40.0934 74.2551 39.8813 74.7373L39.7626 73.1291C39.7613 73.049 39.7366 72.971 39.6915 72.9048C39.6465 72.8385 39.5831 72.7868 39.5091 72.7561C39.4351 72.7254 39.3537 72.717 39.275 72.732C39.1963 72.7469 39.1236 72.7845 39.066 72.8402C38.8174 73.1171 38.5706 73.3966 38.3247 73.6752C38.3462 73.3579 38.3367 73.0448 38.3307 72.7292Z" fill="#191919"/>
<path d="M81.9573 41.1124C81.9767 41.0399 81.9693 40.9629 81.9364 40.8955C81.9034 40.8282 81.8472 40.775 81.7781 40.7458C81.709 40.7167 81.6317 40.7135 81.5605 40.737C81.4892 40.7604 81.4289 40.8088 81.3905 40.8733C80.3216 42.9932 79.6276 49.0691 80.2433 50.0512C80.2637 50.0849 80.2924 50.1127 80.3267 50.132C80.361 50.1513 80.3996 50.1614 80.439 50.1614C80.4783 50.1614 80.517 50.1513 80.5512 50.132C80.5855 50.1127 80.6142 50.0849 80.6346 50.0512C80.6751 49.9802 80.7096 49.906 80.7378 49.8293C80.755 49.7631 80.7679 49.2119 80.7662 49.1413C80.7244 46.4181 81.1267 43.7062 81.9573 41.1124Z" fill="#191919"/>
<path d="M86.3411 41.3887C86.3626 41.1067 85.9205 41.0533 85.8534 41.3225C85.0923 44.3738 86.8854 48.1845 86.4116 51.4516C86.3411 51.9401 86.1656 52.3606 86.3256 52.6195C86.3628 52.6792 86.4215 52.7225 86.4896 52.7404C86.5577 52.7583 86.6301 52.7495 86.6919 52.7158C86.9852 52.5765 87.0755 51.9667 87.1219 51.6477C87.6242 48.2928 86.0426 45.3112 86.3411 41.3887Z" fill="#191919"/>
<path d="M84.7129 50.2008C84.7297 50.6919 84.6843 51.1831 84.5779 51.6628C84.5287 51.8434 84.5087 52.0307 84.5186 52.2175C84.5796 52.6888 85.4878 52.9202 85.2229 50.2034C85.2138 50.1425 85.1833 50.0868 85.1367 50.0464C85.0901 50.0061 85.0307 49.9837 84.969 49.9834C84.9074 49.9831 84.8477 50.0048 84.8007 50.0447C84.7538 50.0846 84.7226 50.14 84.7129 50.2008Z" fill="#191919"/>
<path d="M83.4722 50.2986C83.1067 51.6454 83.1032 51.5886 83.1505 51.924C83.1658 51.9702 83.1937 52.011 83.2311 52.042C83.2685 52.0729 83.3139 52.0927 83.3621 52.0989C83.4102 52.1052 83.4592 52.0978 83.5033 52.0775C83.5474 52.0572 83.5849 52.0249 83.6115 51.9842C83.7663 51.7641 83.7628 51.7194 84.0226 50.4491C84.0392 50.3773 84.0274 50.3017 83.9896 50.2383C83.9518 50.175 83.8909 50.1287 83.8197 50.1092C83.7485 50.0898 83.6726 50.0986 83.6078 50.1339C83.543 50.1692 83.4944 50.2283 83.4722 50.2986Z" fill="#191919"/>
<path d="M81.8896 49.7959C81.8123 49.7845 81.7334 49.8018 81.668 49.8446C81.6025 49.8874 81.555 49.9527 81.5344 50.0281C81.3624 51.0128 81.2644 51.3224 81.4433 51.7429C81.4561 51.7834 81.4803 51.8194 81.5129 51.8467C81.5455 51.874 81.5852 51.8914 81.6274 51.8969C81.6695 51.9024 81.7124 51.8958 81.7509 51.8778C81.7894 51.8598 81.822 51.8312 81.8449 51.7954C82.1201 51.429 82.108 51.0137 82.1717 50.115C82.1713 50.0366 82.1425 49.9611 82.0906 49.9024C82.0387 49.8437 81.9673 49.8059 81.8896 49.7959Z" fill="#191919"/>
<path d="M95.7771 51.007C94.924 47.991 95.7617 44.2578 95.0891 41.5608C95.0195 41.2796 94.543 41.3295 94.5731 41.6305C94.949 45.4566 94.0503 48.9895 95.3661 52.1483C95.4835 52.5822 95.7378 52.9667 96.091 53.2448C96.1328 53.2684 96.18 53.2807 96.228 53.2805C96.2761 53.2803 96.3232 53.2676 96.3648 53.2437C96.4064 53.2197 96.441 53.1853 96.4652 53.1439C96.4895 53.1024 96.5025 53.0554 96.503 53.0074C96.466 52.4321 96.1461 52.2996 95.7771 51.007Z" fill="#191919"/>
<path d="M98.0296 51.4775C97.9703 51.3347 97.7398 50.6278 97.7252 50.5831C97.7104 50.5347 97.6788 50.4932 97.6362 50.466C97.5936 50.4387 97.5427 50.4275 97.4925 50.4343C97.4424 50.4411 97.3964 50.4656 97.3626 50.5032C97.3288 50.5409 97.3095 50.5893 97.3081 50.6399C97.3301 51.3536 97.5846 52.0406 98.0331 52.5964C98.0778 52.6416 98.1376 52.6687 98.2011 52.6725C98.2646 52.6763 98.3273 52.6566 98.3771 52.617C98.66 52.3968 98.3074 52.1466 98.0296 51.4775Z" fill="#191919"/>
<path d="M99.7886 51.3366C99.5825 50.9507 99.4099 50.5479 99.2726 50.1326C99.2531 50.0727 99.2112 50.0225 99.1557 49.9927C99.1002 49.9628 99.0353 49.9554 98.9745 49.9722C98.9138 49.9889 98.8618 50.0284 98.8293 50.0824C98.7969 50.1365 98.7866 50.201 98.8005 50.2625C98.8841 50.736 99.0757 51.1838 99.3603 51.5714C99.6269 51.8492 99.9288 51.6823 99.7886 51.3366Z" fill="#191919"/>
<path d="M100.963 50.5547C100.795 50.2883 100.668 49.9984 100.586 49.6947C100.567 49.6262 100.522 49.5681 100.46 49.533C100.398 49.4979 100.325 49.4888 100.257 49.5076C100.188 49.5264 100.13 49.5717 100.095 49.6334C100.06 49.6951 100.051 49.7681 100.07 49.8366C100.412 51.5101 101.259 51.1128 100.963 50.5547Z" fill="#191919"/>
<path d="M102.159 49.2359C101.418 46.7169 101.452 43.4868 99.9234 41.1519C99.8933 41.1081 99.8479 41.0774 99.7961 41.0658C99.7443 41.0543 99.6901 41.0628 99.6443 41.0896C99.5985 41.1164 99.5646 41.1595 99.5494 41.2103C99.5341 41.2611 99.5387 41.3158 99.5622 41.3634C100.852 43.8127 100.632 46.6352 101.418 49.3743C101.517 49.7183 101.599 50.1879 101.917 50.3951C101.957 50.4179 102.001 50.4314 102.046 50.4345C102.092 50.4376 102.138 50.4304 102.18 50.4132C102.223 50.3961 102.261 50.3695 102.291 50.3355C102.322 50.3016 102.344 50.2611 102.357 50.2171C102.378 49.8784 102.309 49.5402 102.159 49.2359Z" fill="#191919"/>
<path d="M36.6889 143.68C36.0938 147.316 35.8616 151.311 37.8387 154.42C42.1895 161.261 54.9269 160.747 60.1695 146.93C62.0219 142.047 63.7815 139.49 64.2837 136.892C64.6232 135.433 64.3993 133.899 63.6568 132.598C62.8785 131.555 61.8802 130.695 60.7328 130.081C56.7355 127.55 53.3772 125.467 48.7091 124.71C44.4951 124.026 44.0651 125.814 42.3555 126.994C41.4017 127.654 40.2364 127.94 39.25 128.542C38.5204 129.001 37.9086 129.625 37.4641 130.363C37.0196 131.101 36.7546 131.934 36.6906 132.793C36.7436 134.236 36.9293 135.671 37.2453 137.08C37.3699 139.295 37.1826 141.517 36.6889 143.68ZM40.7567 139.605C41.1196 138.712 41.6362 137.889 42.2832 137.175C44.4616 134.576 47.3684 132.359 50.7362 131.956C54.1039 131.552 55.3802 133.649 56.0338 137.036C56.7536 140.772 57.0296 144.752 54.7739 147.836C53.5552 148.482 52.8277 149.149 51.4138 148.894C50.1847 148.545 49.0456 147.933 48.0745 147.103C43.9946 144.234 41.7965 144.329 40.8204 142.411C40.6211 141.971 40.5127 141.495 40.5018 141.012C40.4908 140.53 40.5776 140.05 40.7567 139.601V139.605Z" fill="#169CD5"/>
<path d="M53.2558 143.92C52.9754 144.495 52.1524 144.565 51.9899 143.955C51.9039 143.646 51.9899 143.217 51.7112 143.05C51.6578 143.019 51.5979 143.002 51.5365 142.999C51.475 142.995 51.4136 143.007 51.3575 143.032C51.3013 143.057 51.2518 143.095 51.2132 143.143C51.1745 143.191 51.1477 143.248 51.135 143.308C51.069 143.617 51.092 143.939 51.2012 144.236C51.2762 144.527 51.4515 144.783 51.6964 144.959C51.9414 145.134 52.2403 145.218 52.5406 145.194C52.8409 145.171 53.1235 145.043 53.3388 144.833C53.554 144.622 53.6881 144.342 53.7176 144.042C53.7158 143.989 53.6968 143.937 53.6634 143.895C53.63 143.853 53.5839 143.823 53.5321 143.809C53.4803 143.796 53.4254 143.799 53.3756 143.819C53.3259 143.839 53.2838 143.874 53.2558 143.92Z" fill="#191919"/>
<path d="M45.68 140.999C45.6198 140.973 45.5523 140.97 45.4902 140.991C45.428 141.011 45.3753 141.054 45.342 141.11C45.3028 141.168 45.2508 141.216 45.1899 141.25C45.1291 141.284 45.0612 141.304 44.9915 141.308C44.9218 141.311 44.8522 141.299 44.7881 141.271C44.724 141.243 44.6672 141.201 44.6222 141.148C44.2971 140.677 44.5775 140.505 44.5947 139.938C44.6041 139.594 44.3178 139.499 44.1019 139.667C43.9897 139.74 43.8959 139.838 43.8277 139.953C43.7595 140.069 43.7189 140.198 43.7089 140.332C43.4965 141.513 44.4296 142.274 45.2319 142.001C45.7239 141.837 46.0558 141.149 45.68 140.999Z" fill="#191919"/>
<path d="M51.8561 139.848L51.2265 139.286C51.0167 139.099 50.6615 138.699 50.3665 138.995C50.3055 139.069 50.2734 139.163 50.2764 139.258C50.2794 139.354 50.3173 139.446 50.3829 139.516C50.4379 139.578 50.7381 139.826 51.0485 140.094C50.0145 140.914 49.1741 141.951 48.5872 143.133C48.558 143.188 48.5512 143.253 48.5683 143.313C48.5854 143.373 48.6251 143.424 48.6789 143.455C48.7328 143.486 48.7968 143.496 48.8574 143.481C48.9181 143.467 48.9707 143.429 49.0043 143.377C49.2021 143.092 49.4257 142.83 49.6347 142.553C50.24 141.735 50.9647 141.012 51.7847 140.41C51.831 140.381 51.8704 140.343 51.8999 140.297C51.9293 140.251 51.9482 140.2 51.9551 140.146C51.9619 140.092 51.9566 140.037 51.9394 139.986C51.9223 139.934 51.8938 139.887 51.8561 139.848Z" fill="#191919"/>
<path d="M49.6198 137.784C50.0496 137.621 50.5073 137.545 50.9666 137.56C51.4259 137.574 51.8777 137.68 52.2961 137.87C52.2767 137.963 52.2909 138.059 52.3361 138.143C52.3814 138.226 52.4548 138.29 52.5433 138.325C52.6318 138.359 52.7295 138.361 52.8191 138.329C52.9087 138.298 52.9842 138.236 53.0323 138.154C54.2028 135.731 52.7055 133.202 51.0861 133.863C49.8924 134.349 49.1795 136.088 49.0952 137.389C49.0963 137.452 49.1118 137.514 49.1406 137.571C49.1693 137.627 49.2105 137.676 49.2611 137.714C49.3117 137.752 49.3703 137.778 49.4325 137.791C49.4946 137.803 49.5587 137.8 49.6198 137.784ZM51.7002 134.575C52.5817 134.796 52.7519 136.371 52.5129 137.254C51.7615 136.795 50.8642 136.638 50.0017 136.814C50.1754 135.961 50.8238 134.575 51.7002 134.575Z" fill="#191919"/>
<path d="M64.5672 132.702C65.424 131.557 66.2225 130.37 66.9598 129.144C67.3949 128.295 67.7561 127.221 66.9443 126.695C66.7454 126.595 66.5279 126.538 66.3057 126.528C66.0835 126.518 65.8615 126.554 65.6543 126.635C64.1529 127.053 62.7701 127.816 61.6166 128.864C61.5191 128.951 61.44 129.057 61.3842 129.175C61.3283 129.293 61.2968 129.421 61.2915 129.552C61.292 129.606 61.3134 129.657 61.3512 129.694C61.389 129.732 61.4401 129.754 61.4936 129.754C61.7927 129.729 62.0723 129.595 62.2796 129.378C63.034 128.72 63.8884 128.186 64.8106 127.796C65.2892 127.596 65.7872 127.446 66.2967 127.348C66.5306 127.337 66.5814 127.443 66.6011 127.593C66.7026 128.344 65.4462 129.948 64.0555 132.402C64.0157 132.47 64.0045 132.551 64.0244 132.627C64.0442 132.703 64.0935 132.768 64.1613 132.808C64.2292 132.848 64.3101 132.859 64.3862 132.839C64.4623 132.819 64.5274 132.77 64.5672 132.702Z" fill="#191919"/>
<path d="M50.9857 124.676C51.8457 118.766 49.5237 117.963 48.3421 118.877C47.7391 119.456 47.3473 120.221 47.2292 121.049C46.4552 124.159 46.4664 123.996 46.5412 124.263C46.5597 124.327 46.5946 124.386 46.6425 124.433C46.6905 124.48 46.7497 124.514 46.8146 124.531C46.8795 124.548 46.9477 124.549 47.0127 124.532C47.0777 124.515 47.1371 124.481 47.1854 124.435C47.4219 124.192 47.3574 124.229 47.9439 121.881C48.0447 121.059 48.3583 120.277 48.8538 119.614C49.6149 118.943 50.2117 120.406 50.3158 121.751C50.5265 124.392 50.1558 124.835 50.6383 124.897C50.7135 124.911 50.7911 124.896 50.8556 124.855C50.92 124.814 50.9665 124.75 50.9857 124.676Z" fill="#191919"/>
<path d="M21.1242 120.669C21.1489 120.693 21.1789 120.711 21.2118 120.722C21.2446 120.733 21.2796 120.737 21.3139 120.732C21.3483 120.728 21.3812 120.715 21.4102 120.696C21.4391 120.677 21.4634 120.652 21.4811 120.622C21.7339 120.173 21.543 119.807 21.7391 117.623C21.9087 116.344 21.9102 115.048 21.7434 113.768C21.6721 113.496 21.5809 113.23 21.4708 112.972C21.4473 112.903 21.3984 112.845 21.3341 112.811C21.2698 112.777 21.1949 112.769 21.1248 112.789C21.0546 112.808 20.9945 112.853 20.9567 112.915C20.9189 112.978 20.9062 113.052 20.9212 113.123C20.9462 113.252 21.0451 114.409 21.0537 114.539C21.1913 116.742 20.4474 119.889 21.1242 120.669Z" fill="#191919"/>
<path d="M20.7386 127.453C20.8572 127.873 21.0879 128.252 21.406 128.551C21.578 128.676 21.7852 128.504 21.7964 128.326C21.8437 127.559 19.7324 124.55 19.9844 118.134C19.9804 118.06 19.9483 117.991 19.8948 117.94C19.8413 117.89 19.7704 117.861 19.6967 117.861C19.623 117.861 19.5522 117.89 19.4987 117.94C19.4451 117.991 19.4131 118.06 19.4091 118.134C19.0544 121.303 19.512 124.509 20.7386 127.453Z" fill="#191919"/>
<path d="M15.6585 124.198C15.6947 124.629 15.8263 125.046 16.0438 125.42C16.1349 125.557 16.3972 125.562 16.4316 125.368C16.4876 124.617 16.4527 123.861 16.3276 123.118C16.1031 119.713 16.8573 116.891 17.2959 113.916C17.3122 113.848 17.3014 113.777 17.2658 113.716C17.2302 113.656 17.1726 113.612 17.1051 113.593C17.0377 113.575 16.9656 113.583 16.9041 113.616C16.8426 113.65 16.7966 113.706 16.7756 113.773C15.9242 116.763 15.207 121.121 15.6585 124.198Z" fill="#191919"/>
<path d="M18.661 126.304C18.9268 127.12 19.251 127.137 19.3241 126.906C19.5443 126.208 18.95 125.825 18.3936 120.406C18.3936 120.336 18.3658 120.269 18.3165 120.22C18.2671 120.171 18.2002 120.143 18.1304 120.143C18.0606 120.143 17.9937 120.171 17.9443 120.22C17.895 120.269 17.8673 120.336 17.8673 120.406C17.8528 122.4 18.1201 124.385 18.661 126.304Z" fill="#191919"/>
<path d="M17.188 120.838C17.188 120.779 17.1644 120.722 17.1225 120.68C17.0805 120.638 17.0237 120.614 16.9644 120.614C16.9051 120.614 16.8482 120.638 16.8062 120.68C16.7643 120.722 16.7408 120.779 16.7408 120.838C16.5448 122.259 16.701 123.706 17.1957 125.052C17.2427 125.263 17.3528 125.454 17.5113 125.601C17.5393 125.628 17.5745 125.647 17.6127 125.654C17.6509 125.661 17.6903 125.657 17.7262 125.642C17.7621 125.627 17.7929 125.602 17.8148 125.57C17.8366 125.538 17.8486 125.5 17.8493 125.461C17.8441 124.945 17.8269 125.284 17.5913 124.305C17.2951 123.174 17.1593 122.007 17.188 120.838Z" fill="#191919"/>
<path d="M35.8597 142.379C29.0494 138.898 23.5041 135.197 18.4929 129.575C14.8613 125.551 12.0459 120.86 10.2033 115.763C8.82733 111.871 5.82421 100.669 5.30563 94.5019C6.93275 94.366 10.623 94.0014 12.3826 93.6256C12.8487 93.5258 12.7532 92.7423 12.2682 92.7828C10.4545 92.9367 9.30377 93.2128 4.78619 93.5731C4.65788 93.5749 4.53532 93.6266 4.44458 93.7174C4.35384 93.8081 4.30207 93.9307 4.30029 94.059C4.77351 98.706 5.65849 103.302 6.94479 107.792C9.13091 116.197 10.8612 121.963 16.9552 129.201C22.0198 135.178 28.4142 139.885 35.6258 142.946C35.9457 143.076 36.171 142.538 35.8597 142.379Z" fill="#191919"/>
<path d="M37.4337 128.316C36.4352 127.506 33.2274 126.008 30.5391 123.887C26.0352 120.335 24.3686 116.539 24.2748 110.91C24.3117 106.745 24.8074 102.596 25.7532 98.5393C26.3448 95.9292 26.5581 95.7736 26.3259 95.3427C26.1117 95.0519 25.7917 94.857 25.435 94.8001C25.091 94.6857 24.7581 94.5765 24.4081 94.4913C24.3081 94.4649 24.202 94.4754 24.1091 94.5209C24.0162 94.5664 23.9429 94.6438 23.9024 94.739C23.8611 94.8338 23.8557 94.9405 23.8874 95.039C23.919 95.1374 23.9856 95.221 24.0744 95.2739C24.5904 95.5027 25.0591 95.6566 25.4668 95.7968C24.1401 100.575 23.4365 105.505 23.3735 110.463C23.4045 119.938 27.978 124.209 36.6322 128.609C36.7988 128.685 36.9713 128.747 37.1482 128.795C37.4165 128.875 37.6581 128.498 37.4337 128.316Z" fill="#191919"/>
<path d="M9.02835 92.8171C8.75129 88.504 9.61753 84.1941 11.5396 80.323C11.6213 80.1622 11.7718 79.789 11.7236 79.9059C12.0229 79.2128 11.408 78.9092 11.0132 79.5181C10.182 81.0294 9.53493 82.6351 9.08597 84.3005C8.31184 87.0679 8.07451 89.9579 8.38679 92.8145C8.38645 92.8996 8.41992 92.9813 8.47983 93.0417C8.53975 93.1021 8.6212 93.1362 8.70628 93.1366C8.79136 93.1369 8.87308 93.1035 8.93348 93.0435C8.99388 92.9836 9.02801 92.9022 9.02835 92.8171Z" fill="#191919"/>
<path d="M11.5737 85.3828C11.5744 85.4487 11.5989 85.5121 11.6427 85.5614C11.6865 85.6107 11.7466 85.6426 11.8119 85.6511C11.8772 85.6608 11.9437 85.6463 11.999 85.6104C12.0543 85.5744 12.0945 85.5194 12.1121 85.4558C12.7141 81.2341 14.115 79.5089 14.0523 78.9379C14.051 78.901 14.0403 78.865 14.0213 78.8334C14.0022 78.8018 13.9754 78.7755 13.9433 78.7572C13.9113 78.7388 13.8751 78.729 13.8382 78.7285C13.8012 78.7281 13.7648 78.7371 13.7323 78.7547C13.1432 79.0316 11.6933 82.2136 11.5737 85.3828Z" fill="#191919"/>
<path d="M60.0529 20.6581C59.8567 18.9935 59.3135 17.3886 58.4585 15.947C58.413 15.8715 58.3442 15.8127 58.2626 15.7794C58.1809 15.746 58.0907 15.74 58.0053 15.7621C53.0674 16.9863 48.4488 19.2536 44.4603 22.4116C44.3046 22.5432 44.5084 22.8064 44.6779 22.6946C45.2885 22.2947 45.8939 21.9532 45.9343 21.9257C47.9731 20.5732 50.1322 19.4116 52.3843 18.4556C52.4927 18.5846 52.8031 18.834 53.4653 19.467C54.1017 20.0668 54.6279 20.7735 55.0202 21.5551C55.0666 21.6297 55.138 21.6854 55.2217 21.712C55.3055 21.7387 55.3959 21.7346 55.4769 21.7005C55.5579 21.6664 55.624 21.6045 55.6634 21.526C55.7028 21.4474 55.7129 21.3574 55.6919 21.2721C55.1638 19.7026 53.7999 18.0961 53.2091 18.1194C54.7401 17.5089 56.312 17.0066 57.9133 16.6161C58.6075 18.047 59.1211 19.5588 59.4423 21.1165C59.4743 21.1685 59.5206 21.2101 59.5758 21.2364C59.6309 21.2627 59.6924 21.2725 59.753 21.2646C59.8135 21.2566 59.8705 21.2314 59.917 21.1918C59.9635 21.1523 59.9976 21.1001 60.0151 21.0416C60.0493 20.9168 60.0621 20.7872 60.0529 20.6581Z" fill="#169CD5"/>
<path d="M50.3326 31.7963C49.276 34.264 48.3073 36.7685 47.4284 39.3049C46.0334 37.9616 42.6003 35.201 40.7358 34.8123C40.6365 34.7721 40.5301 34.7523 40.4229 34.7542C40.3158 34.7562 40.2101 34.7797 40.1123 34.8235C40.0365 34.8704 39.9816 34.9446 39.9588 35.0309C39.9361 35.1171 39.9474 35.2088 39.9902 35.287C40.1141 35.5742 41.1306 35.9922 41.4634 36.159C44.2472 37.5505 46.8143 39.8992 47.2039 39.9516C46.1082 43.1526 45.4099 45.5236 44.8234 47.536C42.0336 44.6335 41.7042 44.1269 41.0566 43.5576C39.4569 42.1109 37.7135 40.8315 35.8536 39.7392C35.4229 39.4472 34.9321 39.2556 34.4174 39.1785C34.3539 39.18 34.2919 39.1979 34.2374 39.2303C34.1828 39.2628 34.1376 39.3088 34.106 39.3639C34.0745 39.419 34.0576 39.4813 34.0572 39.5448C34.0568 39.6083 34.0727 39.6708 34.1035 39.7263C34.4475 40.2939 35.9757 40.6224 39.2162 43.2523C41.1256 44.8048 42.9263 46.4863 44.6058 48.285C44.0539 50.2992 43.3936 52.2821 42.6278 54.2251C41.8538 53.5801 40.8107 52.6925 40.3205 52.3047C38.9135 51.1927 33.1592 47.0647 32.2442 46.6786C31.9002 46.5341 31.7936 46.4489 31.5399 46.4988C31.4842 46.5151 31.4371 46.5524 31.4085 46.6028C31.3799 46.6532 31.3721 46.7128 31.3868 46.7689C31.4857 47.2324 32.8737 48.0967 33.3553 48.4209C39.6875 52.6822 40.8511 53.7185 42.3638 54.8494C41.7667 56.2373 41.1152 57.6012 40.4108 58.9379C40.4133 58.8818 40.4003 58.8262 40.3731 58.7772C40.346 58.7281 40.3057 58.6876 40.2568 58.6601C38.5162 57.7605 38.4955 57.7227 38.0896 57.8001C38.0473 57.8124 38.0084 57.8341 37.9757 57.8636C37.943 57.8931 37.9175 57.9296 37.9009 57.9704C37.8844 58.0112 37.8773 58.0552 37.8802 58.0992C37.8831 58.1431 37.8959 58.1858 37.9176 58.2241C38.118 58.5569 38.1593 58.5517 40.0143 59.2354C40.0592 59.2501 40.107 59.2533 40.1534 59.2447C40.1998 59.2361 40.2433 59.2161 40.28 59.1864C39.5344 60.6054 37.27 64.7566 36.9028 65.4257C36.8833 65.3821 36.8552 65.3428 36.8202 65.3103C36.7852 65.2778 36.7439 65.2527 36.699 65.2365C34.9988 64.5261 35.237 64.6078 34.776 64.5425C34.6981 64.5179 34.6137 64.5234 34.5396 64.5578C34.4654 64.5922 34.4068 64.6531 34.3753 64.7285C34.3437 64.8039 34.3415 64.8884 34.369 64.9653C34.3965 65.0423 34.4518 65.1062 34.5241 65.1445C34.9635 65.4025 34.7821 65.3345 36.5356 65.8376C36.5833 65.8492 36.6332 65.8492 36.6809 65.8376C35.6489 67.7391 34.6169 69.6492 33.6107 71.5704C30.3359 69.7214 32.5547 70.6364 25.3986 67.8922C25.0789 67.7558 24.7287 67.7065 24.3838 67.7494C24.3413 67.7624 24.3021 67.7847 24.2693 67.8146C24.2364 67.8446 24.2106 67.8815 24.1937 67.9226C24.1768 67.9638 24.1693 68.0082 24.1717 68.0526C24.1741 68.097 24.1863 68.1403 24.2075 68.1794C24.3958 68.5114 24.9471 68.8012 30.4597 70.7732C30.9267 70.9452 32.4024 71.7467 33.2977 72.1681C32.4429 73.8038 31.6081 75.4481 30.7934 77.1011C29.0029 76.5223 25.1681 75.5427 23.8274 75.1609C18.4954 73.6396 18.2167 73.3919 16.4924 72.8724C16.8158 71.4964 17.1572 70.1204 17.4986 68.7444C17.5208 68.646 17.5042 68.5427 17.4523 68.4561C17.4003 68.3696 17.3171 68.3063 17.2198 68.2794C17.1225 68.2525 17.0186 68.2641 16.9296 68.3118C16.8406 68.3595 16.7734 68.4396 16.7418 68.5355C15.8426 71.399 15.1443 74.3218 14.652 77.2825C12.476 89.4691 12.888 101.977 15.8612 113.994C15.8953 114.111 15.9737 114.21 16.0797 114.27C16.1857 114.33 16.3109 114.347 16.4288 114.316L21.9405 112.732C22.0368 112.703 22.1214 112.645 22.1822 112.565C22.243 112.485 22.2767 112.388 22.2785 112.288C21.8287 91.0073 34.9635 71.8551 41.8925 57.9798C45.981 49.7918 45.4805 45.2518 50.975 32.056C51.1221 31.7042 50.4882 31.4342 50.3326 31.7963ZM16.6386 113.303C16.0745 110.987 15.6058 108.651 15.2325 106.295C16.2293 106.332 16.1304 106.279 19.7269 105.793C20.386 105.726 21.034 105.576 21.6559 105.348C21.4186 107.54 21.3167 109.744 21.3506 111.949L16.6386 113.303ZM21.7376 104.628C21.2353 104.733 20.1896 104.925 19.6469 104.972C18.1426 105.224 16.6229 105.373 15.0984 105.42C14.7314 102.94 14.472 100.446 14.3201 97.938C14.4491 97.9875 14.5824 98.0252 14.7182 98.0507C17.0322 98.2414 19.3566 98.2716 21.6748 98.141C21.741 98.1204 21.799 98.0792 21.8401 98.0233C21.8813 97.9674 21.9035 97.8999 21.9035 97.8305C21.9035 97.7611 21.8813 97.6936 21.8401 97.6377C21.799 97.5818 21.741 97.5406 21.6748 97.52C21.1631 97.3833 16.0495 97.2569 15.2248 97.1889C14.8879 97.153 14.5611 97.0523 14.2625 96.8922C14.1317 94.181 14.1291 91.4613 14.2547 88.7334C15.463 89.897 21.6068 90.923 22.951 91.0769C23.3374 91.152 23.7344 91.154 24.1215 91.0829C24.1868 91.0637 24.2452 91.026 24.2895 90.9743C24.3339 90.9227 24.3623 90.8593 24.3714 90.7918C24.3805 90.7243 24.3699 90.6556 24.3408 90.594C24.3117 90.5325 24.2654 90.4806 24.2075 90.4448C23.7182 90.1868 22.7455 90.1954 20.3065 89.6794C18.8699 89.3856 17.4503 89.0141 16.0538 88.5666C15.4157 88.3387 14.7028 87.7926 14.3106 87.7307C14.4345 85.5921 14.6397 83.4547 14.9264 81.3185C15.0555 81.3798 15.1881 81.4332 15.3237 81.4785C18.6631 82.6326 21.9741 83.8005 25.7804 84.1187C25.8678 84.1171 25.9518 84.0842 26.017 84.026C26.0823 83.9678 26.1245 83.8882 26.1361 83.8015C26.1476 83.7148 26.1277 83.6269 26.08 83.5537C26.0322 83.4804 25.9598 83.4267 25.8759 83.4023C22.8169 82.6515 21.3961 82.4494 18.0774 81.4071C17.3799 81.1886 15.9119 80.578 15.0674 80.3407C15.3868 78.1557 15.7918 75.977 16.2826 73.8047C19.9161 75.1355 23.6359 76.2178 27.4162 77.0443C27.8126 77.12 29.9858 77.7375 30.4623 77.7891C26.2775 86.3968 22.8625 95.2746 21.7376 104.628Z" fill="#169CD5"/>
<path d="M149.133 64.3092C149.117 64.4084 149.121 64.51 149.148 64.6071C149.174 64.7043 149.221 64.7945 149.286 64.8716C149.355 64.9383 149.447 64.9755 149.544 64.9755C149.64 64.9755 149.732 64.9383 149.802 64.8716C149.866 64.7946 149.914 64.7044 149.94 64.6073C149.967 64.5102 149.972 64.4084 149.955 64.3092C150.082 63.2693 149.809 62.2201 149.191 61.374C149.156 61.321 149.102 61.2835 149.04 61.2691C148.978 61.2548 148.912 61.2646 148.858 61.2967C148.803 61.3288 148.762 61.3807 148.744 61.4418C148.726 61.5028 148.732 61.5684 148.761 61.6251C149.048 62.4895 149.174 63.3993 149.133 64.3092Z" fill="#191919"/>
<path d="M152.777 69.4889C152.434 68.9243 151.91 68.4928 151.29 68.2651C151.236 68.2297 151.17 68.216 151.106 68.2267C151.042 68.2375 150.985 68.272 150.945 68.3233C150.905 68.3745 150.886 68.4389 150.892 68.5035C150.898 68.5681 150.927 68.6282 150.975 68.6719C151.294 68.9583 151.219 68.9746 151.551 69.3134C152.025 69.7919 152.391 70.3671 152.623 70.9999C152.666 71.1669 152.732 71.327 152.82 71.4755C152.861 71.5475 152.925 71.6037 153.002 71.6355C153.079 71.6673 153.164 71.6729 153.244 71.6513C153.324 71.6297 153.395 71.5821 153.445 71.5161C153.495 71.4501 153.522 71.3693 153.522 71.2863C153.435 70.6323 153.178 70.0125 152.777 69.4889Z" fill="#191919"/>
<path d="M151.128 65.4471C148.345 66.2469 147.129 66.1154 145.42 66.6013C145.306 66.634 145.209 66.7103 145.15 66.8137C145.092 66.9171 145.076 67.0394 145.107 67.1543C145.349 67.8 145.675 68.4115 146.075 68.9731C146.137 69.0604 146.23 69.1212 146.334 69.1438C146.439 69.1664 146.549 69.1491 146.641 69.0954C146.734 69.0416 146.803 68.9551 146.835 68.853C146.868 68.7509 146.86 68.6404 146.816 68.5431C146.562 68.1628 146.34 67.7631 146.149 67.3477C148.041 66.9057 150.046 66.7569 151.319 65.9055C151.374 65.8763 151.416 65.8278 151.437 65.7694C151.458 65.7109 151.456 65.6468 151.432 65.5895C151.408 65.5323 151.364 65.4859 151.308 65.4596C151.252 65.4333 151.188 65.4288 151.128 65.4471Z" fill="#191919"/>
<path d="M144.994 70.4342C144.619 70.3129 144.408 70.6569 143.869 70.644C143.69 70.6349 143.52 70.5591 143.394 70.4316C143.315 70.3405 143.265 70.2284 143.249 70.1091C143.242 69.7326 143.374 69.3667 143.618 69.0805C143.678 69.0462 143.723 68.9913 143.745 68.9262C143.766 68.8612 143.764 68.7903 143.737 68.727C143.711 68.6637 143.662 68.6123 143.6 68.5824C143.538 68.5525 143.468 68.5461 143.402 68.5645C143.072 68.7328 142.804 69.001 142.636 69.3307C142.467 69.6605 142.408 70.0349 142.465 70.4006C142.559 70.7498 142.776 71.053 143.077 71.2536C143.377 71.4543 143.741 71.5387 144.099 71.4911C145.351 71.3544 145.413 70.5709 144.994 70.4342ZM143.816 70.6414H143.835C143.828 70.643 143.82 70.643 143.813 70.6414H143.816Z" fill="#191919"/>
<path d="M161.334 73.2869C163.249 72.0253 165.727 69.5562 164.688 67.5249C165.03 66.7816 165.211 65.9745 165.219 65.1566C165.228 64.3386 165.063 63.528 164.737 62.7777C164.249 61.133 163.422 59.6082 162.311 58.3006C161.413 57.3593 160.303 56.6474 159.072 56.2245C157.842 55.8016 156.528 55.6801 155.241 55.8702C154.744 55.9777 154.295 56.2405 153.957 56.6205C153.619 57.0005 153.411 57.4781 153.363 57.9841C153.307 58.4691 153.29 57.8267 149.984 59.1184C149.803 57.794 147.846 57.6418 146.585 58.4872C145.502 59.213 144.921 60.5297 145.845 61.1024C145.931 61.1024 142.663 62.8611 141.407 63.7934C138.607 65.8772 138.769 68.3574 140.09 71.5471C141.307 74.4849 142.435 76.7372 145.642 76.7501C147.486 76.6417 149.299 76.2263 151.007 75.5212C151.093 75.5264 151.164 75.6347 151.317 75.7792C151.95 76.3381 152.776 76.6287 153.619 76.5894C154.463 76.55 155.258 76.1839 155.836 75.5685C157.003 75.5737 159.578 74.3241 160.546 73.7694C163.706 79.9012 166.549 86.6247 166.762 93.6113C166.882 100.1 166.154 106.576 164.596 112.875C163.583 116.504 162.17 120.01 160.382 123.327C158.317 122.934 156.296 122.332 154.352 121.53C156.566 116.733 159.426 108.506 158.281 103.36C156.499 95.3769 138.795 84.9838 136.995 60.0223C136.87 56.5997 136.367 53.2014 135.493 49.8898C131.62 37.056 125.988 33.9505 118.171 24.9842C119.332 23.0693 120.866 21.407 122.682 20.0959C135.99 28.5377 144.124 42.0681 151.126 56.1987C151.325 56.6003 151.911 56.2486 151.728 55.8487C145.068 41.6054 136.171 27.4076 122.927 19.0527C122.85 19.0068 122.762 18.9825 122.672 18.9825C122.583 18.9825 122.495 19.0068 122.418 19.0527C122.214 19.1938 122.013 19.34 121.816 19.4888C121.787 19.3116 121.719 19.1433 121.615 18.9968C120.077 16.2491 116.885 13.7818 114.214 12.2424C113.949 12.0902 113.708 12.4686 113.913 12.6328C116.474 14.6814 119.169 16.2216 120.926 19.2548C121.037 19.4475 121.166 19.7536 121.364 19.8379C119.934 20.9823 118.69 22.3404 117.674 23.8644C117.115 23.6709 117.134 23.7243 116.556 23.5041C113.546 22.3637 112.732 20.3883 111.463 19.3709C110.855 18.8833 109.765 18.2736 109.109 18.6915C109.066 18.7179 109.03 18.7549 109.005 18.799C108.981 18.8431 108.968 18.8929 108.968 18.9435C108.968 18.9941 108.981 19.0439 109.005 19.088C109.03 19.1322 109.066 19.1692 109.109 19.1955C109.689 19.5275 109.945 19.309 110.785 19.9317C112.124 20.925 113.049 23.2452 116.742 24.3899C116.914 24.4424 117.081 24.4948 117.253 24.5318C117.1 24.7898 116.889 25.0521 117.186 25.3961C124.532 33.8912 129.891 37.0603 133.653 47.517C135.93 53.8466 135.606 56.2159 136.326 64.5278C134.626 65.1608 132.839 65.9348 131.719 67.4226C131.373 67.7891 131.185 68.2771 131.195 68.7812C131.206 69.2853 131.414 69.7651 131.775 70.117C132.553 70.5744 133.465 70.7457 134.355 70.6011C135.273 70.6241 136.188 70.4909 137.062 70.2073C137.484 72.4682 138.268 74.6462 139.384 76.6573C137.85 77.3983 136.436 78.3644 135.189 79.5236C134.004 80.8283 134.827 82.2318 136.185 82.5646C138.238 82.7975 140.315 82.4432 142.174 81.5429C145.131 86.3082 151.002 94.0929 152.421 95.8189C151.991 96.322 150.866 101.554 145.483 107.515C142.455 110.88 138.79 113.611 134.699 115.55C132.893 116.399 131.001 116.992 129.145 117.716C128.939 117.06 127.637 113.362 127.46 112.9C127.137 112.058 126.797 111.896 125.973 111.524C122.259 109.862 122.433 109.883 122.189 109.985C121.84 110.132 122.032 110.236 121.352 112.527C120.736 114.602 120.417 114.859 120.763 115.409C120.87 115.581 124.572 119.911 124.737 120.097C122.189 122.184 122.2 124.325 120.932 126.296C115.051 121.231 116.862 120.866 114.629 120.878L110.914 120.899C110.796 120.902 110.683 120.95 110.6 121.033C110.516 121.117 110.468 121.23 110.465 121.348C110.46 121.434 110.163 126.259 110.167 126.374C110.201 127.148 110.463 127.056 115.019 129.951C111.917 132.329 111.975 136.235 109.501 140.391C108.223 142.541 107.283 143.229 105.912 144.859C105.858 144.7 105.296 142.899 104.956 141.745C104.922 141.624 104.842 141.521 104.733 141.459C104.624 141.398 104.494 141.381 104.373 141.414C99.2019 143.47 93.7743 144.812 88.2404 145.403C80.2424 146.249 74.6524 145.413 66.3603 139.416C66.067 139.203 65.711 139.059 65.4281 138.837C65.3612 138.77 65.2706 138.733 65.1761 138.733C65.0816 138.733 64.9909 138.77 64.9241 138.837C64.8573 138.904 64.8197 138.994 64.8197 139.089C64.8197 139.183 64.8573 139.274 64.9241 139.341C65.3936 139.81 65.902 140.238 66.4437 140.621C74.0117 146.066 80.1504 147.044 87.1147 146.434C92.9631 145.924 98.7112 144.597 104.192 142.493C104.527 143.631 104.874 144.767 105.232 145.898C97.8036 152.506 89.2363 153.098 80.4419 155.769C80.1098 155.856 79.7835 155.964 79.465 156.092C78.7417 156.417 78.8853 157.28 78.918 157.946C71.9183 157.506 65.134 155.352 59.1621 151.674C58.7957 151.445 58.5016 151.995 58.831 152.24C63.217 155.499 69.839 158.227 78.9481 158.963L79.0135 161.3C79.0238 161.666 78.9653 162.067 79.262 162.332C79.4658 162.51 79.692 162.515 80.448 162.59C85.706 163.116 91.0328 162.275 96.2513 161.166C107.268 158.824 117.508 156.335 127.837 144.568C128.513 143.794 128.518 143.747 128.65 143.641C128.67 143.873 128.882 144.05 129.29 143.893C129.044 143.988 130.388 143.183 135.678 143.611C136.666 143.695 137.639 143.911 138.57 144.253C138.631 144.289 138.704 144.299 138.772 144.281C138.841 144.264 138.899 144.219 138.935 144.158C138.971 144.097 138.981 144.024 138.963 143.956C138.946 143.888 138.901 143.829 138.84 143.793C137.686 143.085 136.358 142.708 135.004 142.704C133.957 142.622 131.754 142.665 130.762 142.704C130.141 142.727 130.484 142.781 130.299 142.532C128.751 140.437 125.417 135.308 124.819 132.799C124.009 129.398 126.625 127.295 130.607 128.861C134.077 130.407 137.256 132.539 140.004 135.162C140.081 135.235 140.162 135.304 140.244 135.372C139.236 138.091 138.492 141.026 139.316 143.793C139.334 143.856 139.373 143.91 139.428 143.945C139.482 143.981 139.547 143.995 139.612 143.987C139.677 143.979 139.736 143.948 139.78 143.899C139.823 143.85 139.847 143.787 139.846 143.722C139.178 138.523 141.941 134.251 141.944 133.132C149.684 125.63 154.765 115.266 157.516 105.021C157.937 109.518 155.32 117.171 153.255 121.533C153.191 121.649 153.174 121.785 153.208 121.913C153.242 122.041 153.323 122.151 153.436 122.221C154.61 122.737 154.18 122.424 154.038 122.69C153.38 124.175 152.633 125.619 151.802 127.015C151.241 127.899 151.15 127.84 151.226 128.327C151.247 128.461 151.39 128.507 151.542 128.486C151.914 128.435 152.111 128.041 152.421 127.561C153.38 126.135 154.105 124.565 154.571 122.911C154.58 122.871 154.581 122.829 154.574 122.789C154.567 122.748 154.552 122.71 154.529 122.675C156.312 123.377 158.156 123.912 160.038 124.273C159.788 124.49 159.816 125.632 159.744 126.308C159.479 128.833 158.346 131.415 157.409 133.815C157.289 134.123 157.794 134.331 157.942 134.04C159.276 131.393 160.527 128.466 160.63 125.514C160.642 125.116 160.574 124.719 160.431 124.348L160.528 124.367C160.634 124.393 160.746 124.385 160.847 124.344C160.948 124.302 161.034 124.23 161.091 124.137C166.165 114.486 167.551 105.435 167.699 94.7336C167.797 87.4184 164.688 79.7885 161.334 73.2869ZM149.288 59.2767C149.288 59.293 149.297 59.3111 149.288 59.2767V59.2767ZM146.222 60.2992C146.078 59.9432 146.863 59.2251 147.328 58.9954C147.93 58.7005 149.112 58.6145 149.281 59.2603C149.389 59.4968 148.573 59.6043 146.615 60.681C146.586 60.5176 146.296 60.4875 146.222 60.3026V60.2992ZM152.507 75.5668C151.803 75.2615 151.647 74.7128 151.051 74.6801C150.564 74.6535 150.391 74.9201 148.879 75.3681C147.173 75.8738 144.89 76.3021 143.423 75.2916C142.984 74.9716 142.605 74.5755 142.305 74.122C141.355 72.5698 140.632 70.8903 140.155 69.134C139.348 65.571 141.617 64.4977 144.681 62.6771C147.359 60.9467 150.285 59.6315 153.357 58.7761C153.588 62.3245 155.908 66.2513 157.606 69.103C157.745 69.3448 157.903 69.5749 158.078 69.791C156.958 70.3269 155.939 71.0545 155.068 71.941C155.019 71.9927 154.982 72.0548 154.959 72.1228C154.937 72.1907 154.93 72.2629 154.939 72.3338C154.948 72.4048 154.973 72.4729 155.012 72.5331C155.05 72.5932 155.102 72.6439 155.163 72.6815C156.537 74.0575 154.896 76.4311 152.507 75.5702V75.5668ZM121.492 114.93C121.492 114.948 121.492 114.991 121.492 114.93C121.446 114.839 122.049 113.573 122.656 110.979C126.354 112.598 126.406 112.504 126.657 113.079C126.839 113.58 128.269 117.487 128.472 117.981C127.409 118.403 126.392 118.935 125.439 119.568C125.005 119.047 121.574 115.06 121.492 114.933V114.93ZM111.072 126.395C111.051 126.274 111.122 125.295 111.33 121.794C115.502 121.771 115.167 121.758 115.329 121.814C115.637 121.986 117.503 124.877 120.514 126.855C119.334 128.231 117.434 128.493 115.864 129.386C115.492 129.158 110.977 126.398 111.072 126.398V126.395Z" fill="#191919"/>
<path d="M106.121 17.5671C111.745 17.1655 112.785 18.8219 113.996 18.7711C114.031 18.7708 114.065 18.7615 114.095 18.744C114.125 18.7265 114.15 18.7015 114.167 18.6715C114.184 18.6414 114.194 18.6073 114.194 18.5726C114.194 18.5379 114.185 18.5038 114.168 18.4736C114.021 18.2242 113.8 18.0268 113.535 17.9085C111.206 16.793 108.574 16.4742 106.045 17.0012C105.734 17.0872 105.786 17.5955 106.121 17.5671Z" fill="#191919"/>
<path d="M107.676 15.5033C111.963 15.5033 113.544 16.8114 114.159 16.6213C114.192 16.6115 114.223 16.5944 114.248 16.5712C114.274 16.5481 114.294 16.5194 114.307 16.4874C114.32 16.4554 114.325 16.421 114.323 16.3865C114.321 16.3521 114.311 16.3186 114.294 16.2885C113.988 15.6392 110.371 14.6588 107.677 15.0071C107.614 15.0107 107.554 15.0384 107.511 15.0844C107.467 15.1305 107.443 15.1914 107.443 15.2548C107.443 15.3182 107.467 15.3792 107.51 15.4254C107.554 15.4716 107.613 15.4995 107.676 15.5033Z" fill="#191919"/>
<path d="M110.348 13.5519C113.056 14.0559 114.164 15.1807 114.9 15.2994C114.931 15.3066 114.963 15.3047 114.993 15.294C115.023 15.2834 115.049 15.2643 115.068 15.2392C115.088 15.2141 115.099 15.184 115.102 15.1524C115.105 15.1209 115.098 15.0892 115.083 15.0612C114.973 14.8723 114.827 14.7069 114.653 14.5744C113.406 13.687 111.946 13.1465 110.421 13.0084C110.113 12.9748 110.041 13.4951 110.348 13.5519Z" fill="#191919"/>
<path d="M135.542 135.254C135.224 135.119 135.089 134.94 134.843 134.91C134.784 134.898 134.724 134.901 134.668 134.92C134.612 134.939 134.561 134.973 134.523 135.019C134.485 135.064 134.459 135.119 134.449 135.177C134.44 135.236 134.446 135.296 134.468 135.351C134.545 135.54 134.69 135.694 134.874 135.781C135.02 135.905 135.19 135.996 135.373 136.049C135.557 136.103 135.749 136.117 135.938 136.091C136.127 136.066 136.309 136.001 136.471 135.9C136.634 135.8 136.773 135.667 136.881 135.509C137.006 135.232 137.058 134.928 137.031 134.626C137.004 134.324 136.899 134.033 136.726 133.784C136.694 133.73 136.644 133.688 136.586 133.664C136.528 133.641 136.463 133.637 136.403 133.654C136.342 133.67 136.288 133.706 136.25 133.756C136.211 133.805 136.19 133.866 136.189 133.929C136.295 134.89 136.471 135.524 135.542 135.254Z" fill="#191919"/>
<path d="M131.686 138.933C131.476 139.327 131.051 139.143 130.616 139.217C130.559 139.234 130.509 139.267 130.471 139.311C130.432 139.356 130.408 139.411 130.4 139.47C130.393 139.528 130.402 139.588 130.428 139.641C130.454 139.694 130.494 139.739 130.544 139.769C131.411 140.239 132.59 139.496 132.314 138.629C132.284 138.532 132.135 138.253 132.125 138.199C132.155 138.143 132.165 138.079 132.153 138.017C132.14 137.955 132.106 137.899 132.056 137.86C131.811 137.672 131.562 137.963 131.568 138.266C131.574 138.569 131.751 138.751 131.686 138.933Z" fill="#191919"/>
<path d="M133.762 137.976C133.816 138.03 133.889 138.06 133.966 138.06C134.042 138.06 134.115 138.03 134.169 137.976C134.223 137.922 134.254 137.848 134.254 137.772C134.254 137.695 134.223 137.622 134.169 137.568C133.127 136.553 132.395 135.263 132.058 133.848C131.978 133.718 131.856 133.619 131.712 133.57C131.568 133.52 131.411 133.522 131.269 133.575C130.01 133.911 129.93 134.708 130.304 134.793C130.679 134.877 131.164 134.352 131.4 134.352C131.782 135.78 132.609 137.05 133.762 137.976Z" fill="#191919"/>
<path d="M129.11 129.907C128.873 129.774 128.607 129.701 128.336 129.695C128.064 129.688 127.795 129.749 127.552 129.87C127.309 129.992 127.099 130.171 126.941 130.393C126.784 130.614 126.682 130.87 126.647 131.14C126.564 131.639 126.673 132.15 126.951 132.572C127.229 132.995 127.656 133.297 128.146 133.418C128.41 133.412 128.661 133.305 128.848 133.12C129.035 132.934 129.145 132.685 129.153 132.421C129.325 132.381 129.484 132.3 129.616 132.183C129.748 132.067 129.85 131.919 129.911 131.754C129.972 131.589 129.991 131.411 129.967 131.237C129.942 131.062 129.875 130.897 129.771 130.755C129.654 130.405 129.421 130.106 129.11 129.907Z" fill="#191919"/>
<path d="M149.264 126.943C148.49 130.762 149.378 140.558 143.978 146.58C143.466 147.153 142.869 147.645 142.209 148.037C141.917 148.202 142.111 148.704 142.442 148.59C144.823 147.772 146.819 144.118 147.715 141.768C148.743 138.823 149.359 135.749 149.543 132.636C149.625 131.702 149.899 127.961 149.901 127.728C149.904 127.494 149.885 127.261 149.879 127.028C149.878 126.953 149.85 126.881 149.8 126.825C149.751 126.768 149.682 126.732 149.608 126.721C149.534 126.711 149.458 126.728 149.395 126.768C149.332 126.809 149.285 126.871 149.264 126.943Z" fill="#191919"/>
<path d="M140.218 149.441C135.774 152.594 130.314 153.386 125.4 151.012C124.819 150.662 124.21 150.362 123.579 150.115C123.52 150.1 123.457 150.102 123.4 150.122C123.342 150.142 123.291 150.179 123.254 150.227C123.217 150.275 123.194 150.333 123.19 150.394C123.185 150.455 123.199 150.516 123.228 150.57C123.656 151.039 124.182 151.408 124.768 151.652C127.275 152.965 130.117 153.496 132.928 153.177C135.739 152.857 138.39 151.701 140.537 149.858C140.761 149.663 140.468 149.264 140.218 149.441Z" fill="#191919"/>
<path d="M155.705 126.666C155.74 126.599 155.748 126.521 155.728 126.449C155.707 126.376 155.659 126.315 155.594 126.277C155.529 126.239 155.451 126.228 155.378 126.245C155.305 126.263 155.241 126.308 155.2 126.371C151.903 131.111 150.907 130.837 150.636 131.882C150.629 131.911 150.628 131.94 150.634 131.969C150.64 131.998 150.652 132.025 150.67 132.048C150.688 132.071 150.711 132.09 150.737 132.103C150.763 132.117 150.792 132.124 150.821 132.124C151.314 132.024 151.756 131.756 152.074 131.365C153.54 130.015 154.768 128.426 155.705 126.666Z" fill="#191919"/>
<path d="M157.11 128.819C157.162 128.752 157.2 128.676 157.222 128.595C157.244 128.513 157.25 128.428 157.239 128.345C157.238 128.305 157.226 128.266 157.206 128.232C157.185 128.198 157.157 128.17 157.122 128.15C157.088 128.13 157.049 128.119 157.009 128.119C156.969 128.118 156.93 128.128 156.895 128.146C156.844 128.163 156.794 128.185 156.747 128.212C156.505 128.376 156.045 129.232 154.974 130.485C154.334 131.232 152.45 133.224 151.552 133.614C151.264 133.739 151.466 134.216 151.766 134.121C153.446 133.581 156.501 129.944 157.11 128.819Z" fill="#191919"/>
<path d="M158.012 129.001C158.005 128.977 157.992 128.955 157.974 128.938C157.956 128.92 157.934 128.908 157.909 128.901C157.885 128.895 157.859 128.895 157.835 128.901C157.811 128.908 157.789 128.921 157.771 128.939C157.097 129.656 156.739 132.028 153.672 134.424C153.447 134.601 153.739 134.974 153.977 134.821C156.728 133.055 158.162 130.003 158.012 129.001Z" fill="#191919"/>
<path d="M77.7419 161.507C76.3109 161.783 74.8456 161.837 73.3981 161.666C72.3869 161.536 71.3947 161.286 70.4423 160.923C67.7591 159.908 66.6583 158.453 65.9574 158.182C65.9107 158.169 65.8615 158.169 65.8149 158.182C65.7682 158.194 65.7256 158.219 65.6914 158.253C65.6573 158.287 65.6327 158.33 65.6202 158.376C65.6077 158.423 65.6077 158.472 65.6202 158.519C65.6626 158.64 65.7264 158.753 65.8086 158.853C67.8003 161.316 72.8451 163.147 76.4623 162.35C76.9353 162.246 77.4083 162.126 77.8727 161.982C77.9333 161.963 77.9841 161.921 78.0145 161.865C78.0448 161.809 78.0523 161.743 78.0355 161.682C78.0186 161.62 77.9786 161.568 77.9239 161.535C77.8692 161.502 77.804 161.492 77.7419 161.507Z" fill="#191919"/>
<path d="M70.1824 159.342C70.4404 159.428 70.6261 159.008 70.3707 158.894C67.1156 157.432 66.444 156.273 65.989 156.557C65.817 156.666 65.8712 156.919 65.989 157.049C67.2268 158.075 68.6505 158.854 70.1824 159.342Z" fill="#191919"/>
<path d="M127.197 45.2913C129.566 47.107 131.657 49.2574 133.407 51.675C133.472 51.7387 133.557 51.7769 133.648 51.7824C133.738 51.7879 133.828 51.7603 133.9 51.7049C133.971 51.6495 134.021 51.5699 134.038 51.4809C134.056 51.3919 134.041 51.2996 133.995 51.221C133.601 50.4939 133.129 49.8125 132.586 49.1888C129.032 44.8389 123.904 41.7721 119.055 38.9694C117.308 37.8465 115.428 36.9466 113.459 36.2905C113.367 36.2688 113.27 36.2836 113.189 36.3318C113.108 36.3799 113.048 36.4576 113.023 36.5486C112.998 36.6396 113.009 36.7367 113.055 36.8196C113.1 36.9025 113.175 36.9647 113.265 36.9931C116.732 38.3614 124.258 42.9882 127.197 45.2913Z" fill="#191919"/>
<path d="M100.875 18.5178C100.842 18.4284 100.775 18.3554 100.689 18.314C100.603 18.2726 100.505 18.2661 100.414 18.2959C99.9514 18.4438 99.7484 19.3443 98.2495 20.0159C97.2543 20.4418 96.1768 20.6407 95.0952 20.5982C94.0136 20.5557 92.955 20.2727 91.9964 19.77C92.9267 19.8842 93.8675 19.6681 94.6547 19.1594C96.6645 17.8788 97.6483 15.7039 98.2237 13.4111C98.2462 13.3446 98.2549 13.2741 98.2493 13.204C98.2436 13.134 98.2237 13.0658 98.1908 13.0037C98.1579 12.9416 98.1126 12.8869 98.0578 12.843C98.0029 12.799 97.9397 12.7667 97.8719 12.748C97.8042 12.7294 97.7333 12.7247 97.6637 12.7345C97.5941 12.7442 97.5272 12.768 97.4671 12.8045C97.407 12.841 97.3551 12.8893 97.3143 12.9466C97.2736 13.0039 97.245 13.0689 97.2304 13.1376C97.0646 13.772 96.856 14.3943 96.606 15.0004C96.189 16.1549 95.4614 17.1718 94.5033 17.939C92.257 19.6238 90.8397 18.0577 90.3031 18.5341C90.0253 18.572 89.9281 18.627 89.5127 18.6726C89.0365 18.7317 88.5532 18.6887 88.095 18.5463C87.6368 18.4039 87.2142 18.1655 86.8553 17.847C86.5353 17.6349 86.2599 17.3623 86.0443 17.0446C85.4595 16.1743 84.191 13.8136 84.1463 12.8203C84.1463 12.7654 84.1355 12.7111 84.1145 12.6604C84.0935 12.6096 84.0627 12.5636 84.0239 12.5248C83.9851 12.486 83.939 12.4552 83.8883 12.4342C83.8376 12.4132 83.7832 12.4023 83.7284 12.4023C83.6735 12.4023 83.6191 12.4132 83.5684 12.4342C83.5177 12.4552 83.4716 12.486 83.4328 12.5248C83.394 12.5636 83.3632 12.6096 83.3422 12.6604C83.3212 12.7111 83.3104 12.7654 83.3104 12.8203C83.5779 14.1669 84.0797 15.4562 84.793 16.6292C85.1616 17.4609 85.7662 18.1661 86.532 18.6571C87.2578 19.2164 88.1442 19.5276 89.0604 19.5446C89.806 19.5446 89.9591 19.3812 89.8481 19.4887C89.5327 19.821 89.1477 20.0794 88.7207 20.2455C86.3729 21.1288 82.6095 19.8499 80.899 16.7797C80.8707 16.7319 80.8333 16.6901 80.789 16.6567C80.7446 16.6233 80.694 16.599 80.6403 16.5852C80.5865 16.5713 80.5305 16.5682 80.4755 16.576C80.4205 16.5838 80.3676 16.6023 80.3197 16.6305C80.2719 16.6588 80.2301 16.6961 80.1967 16.7405C80.1634 16.7849 80.139 16.8355 80.1252 16.8892C80.1113 16.943 80.1082 16.999 80.116 17.054C80.1238 17.109 80.1423 17.1619 80.1705 17.2097C82.7566 21.9062 89.0956 22.5159 90.5155 19.7175C91.0187 20.2853 91.6532 20.7214 92.3636 20.9877C96.1631 22.5882 99.9703 20.8398 100.719 19.2987C100.799 19.1873 100.854 19.0599 100.881 18.9252C100.908 18.7905 100.906 18.6516 100.875 18.5178Z" fill="#169CD5"/>
<path d="M90.9928 23.109C90.9623 23.0029 90.899 22.9091 90.8121 22.841C90.7253 22.7728 90.6191 22.7338 90.5087 22.7294C90.3984 22.725 90.2895 22.7555 90.1975 22.8166C90.1054 22.8776 90.035 22.9661 89.9961 23.0695C89.9624 23.1833 89.9659 23.3049 90.0061 23.4166C90.0463 23.5283 90.1212 23.6242 90.2197 23.6904C90.3091 23.7403 90.4112 23.7633 90.5134 23.7563C90.6156 23.7494 90.7136 23.7129 90.7955 23.6514C90.8774 23.5898 90.9396 23.5058 90.9747 23.4095C91.0097 23.3132 91.016 23.2088 90.9928 23.109Z" fill="#169CD5"/>
</svg>
