<svg width="192" height="193" viewBox="0 0 192 193" fill="none" xmlns="http://www.w3.org/2000/svg">
<path d="M34.8158 72.6915C35.027 73.5401 35.7354 77.2035 36.5582 77.0009C37.4634 76.8012 36.5342 73.6342 36.1626 72.1702C36.0138 71.5827 35.5348 69.7568 35.3265 69.248C34.9204 68.3427 34.6727 67.6284 34.2119 67.7724C33.3892 68.0048 34.2849 70.5555 34.8158 72.6915Z" fill="#FFB500"/>
<path d="M40.7408 71.6631C41.192 72.7258 41.5452 73.8231 41.9484 74.8733C42.4601 76.2087 42.6579 76.6887 43.11 76.5783C44.1891 76.3143 42.4928 72.1229 42.0646 71.1063C41.6142 69.9928 41.0624 68.923 40.4163 67.9104C39.9574 67.3047 39.2249 66.3226 38.791 66.6336C38.1565 67.0368 39.4563 68.6352 40.7408 71.6631Z" fill="#FFB500"/>
<path d="M23.3984 90.4813C23.619 86.6609 24.0607 82.8564 24.7213 79.0871C24.7441 78.9676 24.7189 78.8439 24.651 78.7429C24.5832 78.642 24.4782 78.5718 24.3589 78.5478C24.2397 78.5238 24.1158 78.5478 24.0141 78.6146C23.9124 78.6814 23.8413 78.7857 23.816 78.9047C23.0426 82.6921 22.5074 86.5242 22.2138 90.3786C22.2138 91.4692 22.4394 90.6983 26.2083 96.7645C27.3459 98.5674 28.4163 100.402 29.4589 102.242L22.2829 109.742C8.70947 102.796 2.73827 90.4487 9.06851 76.1677C11.4685 70.6957 15.3402 66.8202 19.6122 62.6106C19.6798 62.5428 19.7331 62.4622 19.769 62.3735C19.805 62.2848 19.8228 62.1898 19.8215 62.0941C19.7101 57.562 19.3299 52.1696 20.5184 47.7469C20.8146 46.5216 21.2188 45.3249 21.7261 44.1709C25.0573 37.1284 34.3511 36.2557 34.7821 40.8052C34.7868 40.8601 34.8022 40.9135 34.8275 40.9625C34.8528 41.0114 34.8876 41.0549 34.9297 41.0904C34.9718 41.1259 35.0205 41.1528 35.073 41.1695C35.1255 41.1862 35.1808 41.1924 35.2357 41.1877C35.2906 41.1831 35.3441 41.1676 35.393 41.1423C35.4419 41.117 35.4854 41.0823 35.5209 41.0402C35.5565 40.998 35.5833 40.9493 35.6 40.8968C35.6167 40.8443 35.6229 40.789 35.6183 40.7341C35.3178 36.5101 29.8016 36.1914 26.0039 38.098C23.6487 39.3065 21.7423 41.2372 20.5635 43.6074C17.7565 49.2032 18.2682 56.433 18.4035 61.8205C15.8959 64.1806 13.5672 66.724 11.4368 69.4295C5.57027 77.1757 3.09923 87.5447 7.02755 96.5428C9.69827 102.664 15.0157 107.715 22.1226 111.231C22.2553 111.297 22.4059 111.32 22.5522 111.295C22.6986 111.269 22.833 111.198 22.9357 111.091C24.0032 109.997 29.2285 104.479 30.8077 102.822C30.9068 102.714 30.9693 102.578 30.9866 102.432C31.0038 102.286 30.9748 102.139 30.9037 102.011C28.6941 97.9852 26.1853 94.1312 23.3984 90.4813Z" fill="#191919"/>
<path d="M60.743 79.0918C58.937 75.3502 59.072 75.6613 58.1141 73.9258C53.5305 65.926 46.9836 57.9272 37.8795 58.9542C37.7084 56.6722 37.3578 54.4076 36.8309 52.1817C36.7215 51.8766 36.6036 51.5746 36.4775 51.2761C36.602 50.7774 36.6776 50.2675 36.7033 49.7537L38.4893 49.008C38.6747 48.9216 38.8189 48.7649 38.8906 48.5718C38.9623 48.3788 38.9557 48.1649 38.8722 47.9767C37.102 43.8335 36.006 41.1658 33.5638 38.1317C33.4293 37.9321 33.237 37.7793 33.0132 37.6943C32.7895 37.6092 32.5452 37.596 32.3137 37.6565C31.3299 38.0721 30.4497 38.7031 29.7365 39.5039C28.4091 41.2102 27.6109 43.2747 27.4421 45.4379C27.4342 45.5289 27.4424 45.6205 27.4663 45.7086C26.3228 50.116 26.9758 54.8995 28.3356 59.2067C28.672 60.1508 29.1929 61.0169 29.8675 61.7536C30.542 62.4902 31.3563 63.0824 32.262 63.4948C35.6199 65.1163 36.5408 62.846 35.2232 59.7032C35.1783 59.5732 35.0841 59.4666 34.9614 59.4067C34.8386 59.3469 34.6973 59.3388 34.5686 59.3841C34.4399 59.4295 34.3343 59.5246 34.2751 59.6486C34.2158 59.7725 34.2078 59.9152 34.2527 60.0452C34.4014 60.5587 34.7095 62.1929 34.3297 62.5679C34.0628 62.7693 30.7218 61.5026 29.8378 58.7326C28.5174 54.7102 28.1025 50.4408 28.6236 46.2359C29.5495 46.0422 30.4298 45.6704 31.2166 45.1407C32.5827 44.3727 33.6826 43.1999 34.3677 41.7806C35.1061 43.3498 34.9658 42.8907 37.1369 47.8638L35.6062 48.487C35.467 48.5505 35.3491 48.6535 35.2668 48.7834C35.1846 48.9134 35.1416 49.0647 35.143 49.2189C35.143 51.8823 33.855 53.8522 31.2641 54.306C31.1031 54.3314 30.9552 54.4106 30.8441 54.531C30.733 54.6513 30.665 54.8058 30.6512 54.9698C30.5066 56.4746 30.5494 57.9918 30.7788 59.4858C30.7942 59.6195 30.8606 59.7419 30.9638 59.827C31.0671 59.9122 31.1991 59.9533 31.3319 59.9418C31.4646 59.9303 31.5878 59.8671 31.6752 59.7654C31.7626 59.6638 31.8073 59.5318 31.8 59.3974C31.7942 58.1573 31.8796 56.9184 32.0553 55.691C33.4477 55.3957 34.68 54.5841 35.5091 53.4165C35.6346 54.1867 35.8477 55.7933 36.4448 58.4322C36.6474 59.1247 36.833 60.0068 37.4227 59.8694C37.6865 60.0207 38.0314 59.8055 40.1191 60.1453C49.9585 61.7434 54.8111 71.5916 59.8463 79.5903C59.8774 79.6503 59.9202 79.7032 59.9721 79.746C60.024 79.7888 60.0839 79.8205 60.1482 79.8394C60.2126 79.8582 60.28 79.8636 60.3465 79.8554C60.413 79.8473 60.4772 79.8256 60.5352 79.7917C60.6517 79.7238 60.7381 79.6135 60.7767 79.4834C60.8153 79.3533 60.8033 79.2132 60.743 79.0918Z" fill="#191919"/>
<path d="M24.0184 112.945C24.0993 113.294 24.2323 113.628 24.413 113.937C24.9321 114.586 25.6017 115.099 26.3637 115.43C26.8871 115.729 27.4796 115.887 28.0826 115.887C28.6856 115.887 29.2781 115.729 29.8015 115.43C29.9181 115.393 30.0153 115.311 30.0716 115.203C30.128 115.094 30.1389 114.968 30.102 114.851C30.065 114.734 29.9833 114.637 29.8748 114.581C29.7662 114.525 29.6397 114.514 29.5231 114.551C29.2511 114.557 28.979 114.54 28.71 114.5C28.5237 114.488 28.3615 114.484 28.1752 114.462C27.3173 114.349 26.5106 113.99 25.853 113.427C25.6908 113.308 25.5746 113.181 25.4354 113.058C25.396 113.026 24.846 112.608 24.7634 112.532C24.7085 112.433 24.6167 112.36 24.508 112.329C24.3994 112.298 24.2828 112.311 24.184 112.366C24.0853 112.421 24.0123 112.513 23.9813 112.621C23.9502 112.73 23.9636 112.847 24.0184 112.945Z" fill="#191919"/>
<path d="M29.0137 113.107C29.134 113.29 29.2831 113.452 29.4553 113.587C29.8914 113.82 30.3615 113.982 30.8483 114.067C31.1956 114.189 31.5658 114.23 31.9314 114.189C32.2971 114.148 32.6487 114.025 32.9603 113.829C33.0212 113.818 33.0793 113.795 33.1312 113.762C33.1831 113.728 33.2278 113.684 33.2625 113.633C33.2972 113.582 33.3214 113.524 33.3335 113.464C33.3456 113.403 33.3454 113.34 33.333 113.28C33.3205 113.219 33.2961 113.162 33.2611 113.111C33.2261 113.059 33.1812 113.016 33.1291 112.983C33.077 112.949 33.0188 112.927 32.9578 112.916C32.8968 112.905 32.8343 112.907 32.7741 112.921C32.5888 112.893 32.4265 112.803 32.2403 112.778C31.8918 112.734 31.5433 112.736 31.1949 112.672C30.6985 112.584 30.1993 112.384 29.871 112.352C29.6857 112.334 29.5696 112.367 29.4073 112.359C29.3578 112.326 29.3018 112.303 29.2431 112.293C29.1844 112.283 29.1242 112.286 29.0664 112.3C29.0087 112.315 28.9547 112.342 28.9079 112.379C28.8611 112.415 28.8227 112.462 28.7949 112.515C28.7672 112.567 28.7509 112.625 28.747 112.685C28.7431 112.744 28.7518 112.804 28.7724 112.86C28.793 112.916 28.8252 112.966 28.8667 113.009C28.9083 113.052 28.9584 113.085 29.0137 113.107Z" fill="#191919"/>
<path d="M29.5473 107.329C29.5527 107.679 29.6153 108.027 29.7325 108.357C30.0883 109.043 30.5409 109.674 31.0765 110.231C31.7414 111.123 32.6929 111.759 33.7713 112.032C33.8798 112.09 34.0072 112.103 34.1253 112.068C34.2434 112.032 34.3426 111.951 34.401 111.843C34.4594 111.734 34.4724 111.607 34.4369 111.489C34.4014 111.371 34.3205 111.271 34.2119 111.213C34.0026 111.031 33.8433 110.799 33.6081 110.592C32.557 109.788 31.6467 108.814 30.9143 107.712C30.8778 107.666 30.3834 107.113 30.3565 107.068C30.319 106.963 30.2422 106.878 30.1425 106.829C30.0428 106.78 29.9281 106.772 29.8225 106.806C29.7169 106.84 29.6288 106.914 29.5769 107.013C29.525 107.111 29.5133 107.225 29.5444 107.332L29.5473 107.329Z" fill="#191919"/>
<path d="M39.512 179.205C38.1028 177.881 36.369 177.583 34.3789 177.381C32.0672 177.194 29.7796 177.145 29.2304 177.154C29.1968 176.674 29.1344 176.218 29.074 175.831C29.4176 175.848 29.7623 175.861 30.106 175.868C30.2634 175.87 30.4172 175.82 30.5433 175.726C30.6694 175.632 30.7607 175.498 30.8029 175.347C33.034 167.557 34.4288 158.809 35.6797 150.688C36.7271 143.998 37.6266 138.065 38.049 131.304C38.057 131.165 38.0208 131.028 37.9456 130.911C37.8703 130.794 37.76 130.705 37.6304 130.655C32.6116 128.899 29.8794 122.711 29.6884 117.393H29.7344C29.7339 117.326 29.7193 117.26 29.6914 117.199C29.6636 117.137 29.6232 117.083 29.5729 117.038C29.5226 116.993 29.4634 116.96 29.3993 116.939C29.3352 116.919 29.2675 116.913 29.2007 116.92C28.4017 117.015 27.5917 116.936 26.826 116.689C26.0604 116.442 25.3572 116.032 24.7645 115.488C24.6912 115.397 24.5889 115.334 24.4747 115.31C24.3606 115.286 24.2416 115.301 24.1376 115.354C23.2612 115.795 24.6455 116.458 24.9056 125.07C25.0276 129.885 24.6877 134.619 24.6503 138.998C24.4583 150.892 24.392 162.518 22.8628 174.416C22.8378 174.602 22.8871 174.79 22.9999 174.94C23.1128 175.09 23.2801 175.189 23.4656 175.216L23.866 175.277C23.5826 175.883 23.4196 176.538 23.386 177.206C22.6158 177.813 22.0128 178.606 21.634 179.51C20.7335 181.519 21.1117 183.846 23.4215 184.529C25.8983 185.231 28.7111 184.891 31.1783 184.817C33.5552 184.74 35.8871 184.926 38.2612 184.241C38.7877 184.125 39.2713 183.863 39.6575 183.487C40.0437 183.111 40.3172 182.634 40.4471 182.111C40.5771 181.587 40.5585 181.038 40.3933 180.525C40.2281 180.011 39.9229 179.554 39.512 179.205ZM28.0928 175.774C27.9818 176.318 27.9096 176.87 27.8768 177.425C26.8524 177.668 25.7845 177.658 24.7645 177.397C24.7645 177.006 24.8788 176.382 24.8528 175.422C25.9328 175.57 26.9927 175.691 28.0928 175.774ZM39.0743 181.748C38.5693 183.617 34.3511 183.284 31.1322 183.391C28.7773 183.472 26.0279 183.8 23.793 183.199C21.704 182.666 22.4375 179.643 23.5703 178.255C24.4602 179.407 28.8704 179.215 29.2247 178.084C29.4167 178.084 31.858 178.372 32.2468 178.422C33.8765 178.54 35.4883 178.837 37.0535 179.307C38.1556 179.732 39.3892 180.617 39.0743 181.748Z" fill="#191919"/>
<path d="M69.5379 176.066C68.1286 174.74 66.3891 174.444 64.4057 174.242C61.6092 174.016 60.75 174.063 59.2966 174.016C59.1843 174.016 59.3417 174.102 59.0815 172.584C59.21 172.568 59.3284 172.507 59.4152 172.411C59.5019 172.314 59.5511 172.19 59.5539 172.061C59.8351 160.79 59.5817 159.56 58.1609 144.184C57.4687 137.26 57.1337 135.359 56.4185 130.345C56.4066 130.251 56.3757 130.161 56.3279 130.08C56.28 129.999 56.2161 129.928 56.1401 129.872C56.0641 129.816 55.9775 129.776 55.8855 129.755C55.7936 129.733 55.6983 129.731 55.6054 129.747C52.5582 130.377 49.4293 130.511 46.3395 130.144C46.223 130.123 46.1032 130.131 45.9906 130.167C45.8779 130.203 45.7759 130.266 45.6934 130.351C45.6109 130.436 45.5504 130.54 45.5173 130.653C45.4841 130.767 45.4793 130.887 45.5033 131.003C47.1247 138.209 53.3062 164.891 53.3062 172.273C53.3138 172.378 53.3554 172.477 53.4248 172.556C53.4941 172.634 53.5873 172.688 53.6902 172.709C53.5148 173.141 53.4198 173.601 53.4099 174.066C52.6392 174.675 52.0362 175.469 51.6579 176.375C50.7574 178.383 51.1356 180.71 53.4454 181.393C55.9308 182.097 58.7619 181.755 61.2022 181.681C63.5561 181.605 65.9119 181.791 68.286 181.105C68.8135 180.989 69.2981 180.729 69.6852 180.352C70.0723 179.976 70.3464 179.498 70.4766 178.974C70.6068 178.45 70.5879 177.9 70.422 177.386C70.2561 176.872 69.9499 176.415 69.5379 176.066ZM58.1215 172.61C58.01 173.162 57.9369 173.721 57.9027 174.282C56.8789 174.526 55.8114 174.518 54.7913 174.259C54.7913 173.971 54.8873 173.203 54.8873 172.695L58.1215 172.61ZM69.0963 178.608C68.5913 180.477 64.3721 180.144 61.1542 180.252C58.8003 180.332 56.0518 180.661 53.8159 180.06C51.726 179.526 52.4604 176.508 53.5923 175.115C54.4783 176.267 58.8915 176.075 59.2467 174.945C59.4387 174.945 61.8799 175.233 62.2687 175.282C63.8988 175.401 65.511 175.698 67.0764 176.168C68.1823 176.589 69.415 177.477 69.0963 178.611V178.608Z" fill="#191919"/>
<path d="M70.375 18.2248C70.375 18.9578 70.6662 19.6608 71.1845 20.1791C71.7028 20.6974 72.4058 20.9886 73.1388 20.9886C73.8719 20.9886 74.5749 20.6974 75.0932 20.1791C75.6115 19.6608 75.9027 18.9578 75.9027 18.2248C75.9027 17.4918 75.6115 16.7888 75.0932 16.2704C74.5749 15.7521 73.8719 15.4609 73.1388 15.4609C72.4058 15.4609 71.7028 15.7521 71.1845 16.2704C70.6662 16.7888 70.375 17.4918 70.375 18.2248Z" fill="#FFB500"/>
<path d="M73.1371 14.996C72.6921 14.9579 72.2441 15.0137 71.822 15.1597C71.4 15.3057 71.0133 15.5388 70.6871 15.8438C70.3608 16.1488 70.1023 16.5189 69.9281 16.9302C69.754 17.3414 69.6682 17.7847 69.6763 18.2312C69.6683 18.803 69.8022 19.3678 70.0662 19.8751C70.3302 20.3824 70.7159 20.8162 71.1888 21.1377C71.6617 21.4592 72.207 21.6584 72.7757 21.7173C73.3445 21.7763 73.9191 21.6932 74.4478 21.4754C74.9766 21.2577 75.4431 20.9122 75.8055 20.4698C76.1678 20.0275 76.4148 19.5021 76.5241 18.9408C76.6335 18.3795 76.6019 17.7999 76.4322 17.2538C76.2624 16.7078 75.9598 16.2124 75.5515 15.812C75.2238 15.5234 74.8404 15.3051 74.4249 15.1707C74.0094 15.0363 73.5708 14.9886 73.1361 15.0306L73.1371 14.996ZM73.1371 15.8994C73.7022 15.9798 74.2203 16.2585 74.5989 16.6857C74.9775 17.1128 75.1919 17.6606 75.204 18.2312C75.1962 18.634 75.0708 19.0257 74.8432 19.3581C74.6156 19.6906 74.2958 19.9492 73.9232 20.1022C73.5505 20.2553 73.1412 20.296 72.7457 20.2194C72.3502 20.1428 71.9857 19.9523 71.6971 19.6712C71.4203 19.3629 71.2341 18.9841 71.1592 18.5766C71.0842 18.1691 71.1234 17.7489 71.2725 17.3623C71.4215 16.9757 71.6745 16.6378 72.0036 16.3861C72.3327 16.1344 72.725 15.9785 73.1371 15.9359V15.8994Z" fill="#191919"/>
<path d="M83.062 14.8257C82.6174 14.7883 82.1699 14.8446 81.7484 14.9909C81.3269 15.1373 80.9409 15.3705 80.6151 15.6754C80.2894 15.9803 80.0313 16.3502 79.8575 16.7611C79.6836 17.172 79.598 17.6148 79.606 18.0609C79.599 18.6311 79.7335 19.1942 79.9974 19.6998C80.2613 20.2053 80.6464 20.6376 81.1181 20.958C81.5899 21.2784 82.1338 21.4768 82.701 21.5357C83.2683 21.5945 83.8413 21.5118 84.3687 21.295C84.8962 21.0783 85.3618 20.7341 85.7238 20.2935C86.0858 19.8528 86.3329 19.3293 86.4431 18.7697C86.5533 18.2102 86.5231 17.6321 86.3553 17.087C86.1874 16.542 85.8871 16.0471 85.4812 15.6465C85.1537 15.3578 84.7704 15.1395 84.3551 15.0051C83.9398 14.8707 83.5013 14.823 83.0668 14.865L83.062 14.8257ZM83.062 15.729C83.6269 15.8097 84.1447 16.0885 84.5231 16.5156C84.9015 16.9427 85.1159 17.4904 85.1279 18.0609C85.1204 18.4637 84.9951 18.8555 84.7677 19.188C84.5403 19.5205 84.2205 19.7792 83.8479 19.9323C83.4752 20.0853 83.0659 20.126 82.6704 20.0494C82.2749 19.9727 81.9105 19.7821 81.622 19.5009C81.3452 19.1926 81.159 18.8138 81.084 18.4063C81.0091 17.9988 81.0483 17.5785 81.1973 17.1919C81.3464 16.8053 81.5994 16.4675 81.9285 16.2158C82.2576 15.964 82.6499 15.8082 83.062 15.7655V15.729Z" fill="#191919"/>
<path d="M93.7339 14.478C93.2892 14.4406 92.8416 14.4969 92.4201 14.6434C91.9985 14.7898 91.6124 15.023 91.2867 15.328C90.9609 15.6331 90.7028 16.003 90.5291 16.4141C90.3553 16.8251 90.2697 17.268 90.2779 17.7142C90.2692 18.2861 90.4026 18.8513 90.6662 19.3589C90.9298 19.8666 91.3152 20.3009 91.7879 20.6229C92.2607 20.9449 92.806 21.1445 93.3749 21.2039C93.9438 21.2632 94.5185 21.1804 95.0476 20.9629C95.5766 20.7454 96.0434 20.4 96.406 19.9577C96.7687 19.5154 97.0159 18.99 97.1255 18.4286C97.235 17.8672 97.2036 17.2873 97.0339 16.7411C96.8641 16.1949 96.5615 15.6993 96.1531 15.2988C95.8255 15.0101 95.442 14.7918 95.0265 14.6575C94.611 14.5232 94.1723 14.4759 93.7377 14.5183L93.7339 14.478ZM93.7339 15.3814C94.299 15.4621 94.8171 15.7409 95.1957 16.1682C95.5743 16.5955 95.7887 17.1434 95.8008 17.7142C95.7932 18.117 95.668 18.5088 95.4405 18.8413C95.2131 19.1738 94.8934 19.4325 94.5207 19.5856C94.1481 19.7386 93.7388 19.7793 93.3433 19.7027C92.9478 19.626 92.5833 19.4354 92.2948 19.1542C92.0179 18.846 91.8317 18.4673 91.7567 18.0598C91.6817 17.6523 91.7209 17.2321 91.87 16.8455C92.019 16.459 92.2721 16.1212 92.6013 15.8696C92.9304 15.6179 93.3227 15.4623 93.7348 15.4198L93.7339 15.3814Z" fill="#191919"/>
<path d="M76.8873 35.8866C78.1881 35.854 82.4851 35.8799 83.3443 35.8559C88.3833 35.7157 104.199 35.0197 107.056 34.8181C109.84 34.6261 111.359 34.4015 112.792 34.2748C112.914 34.2638 113.026 34.2064 113.106 34.1144C113.186 34.0224 113.228 33.9031 113.222 33.7813C113.216 33.6595 113.163 33.5448 113.074 33.461C112.986 33.3773 112.868 33.3311 112.746 33.332C111.772 33.3724 107.939 33.4108 106.986 33.4434C103.154 33.5759 82.0896 34.532 81.1373 34.6088C79.6973 34.7231 78.2841 34.9084 76.8413 35.0226C76.783 35.0234 76.7254 35.0359 76.6721 35.0595C76.6187 35.0831 76.5707 35.1172 76.5309 35.1597C76.491 35.2023 76.4602 35.2525 76.4402 35.3073C76.4203 35.3621 76.4116 35.4204 76.4147 35.4786C76.4178 35.5368 76.4326 35.5938 76.4583 35.6462C76.484 35.6985 76.52 35.7452 76.5641 35.7833C76.6082 35.8214 76.6596 35.8502 76.7152 35.8679C76.7707 35.8857 76.8293 35.892 76.8873 35.8866Z" fill="#191919"/>
<path d="M76.5375 42.5373C78.0168 42.5719 79.765 42.7197 82.8543 42.6996C90.3269 42.6583 114.864 41.1636 118.479 41.0618C118.604 41.0618 118.724 41.0121 118.812 40.9237C118.901 40.8354 118.95 40.7155 118.95 40.5904C118.95 40.4654 118.901 40.3455 118.812 40.2571C118.724 40.1687 118.604 40.1191 118.479 40.1191C115.263 40.0941 114.754 39.9693 110.072 40.1056C105.914 40.2285 79.0267 41.6157 76.5375 41.6733C76.4229 41.6733 76.313 41.7188 76.232 41.7999C76.151 41.8809 76.1055 41.9908 76.1055 42.1053C76.1055 42.2199 76.151 42.3298 76.232 42.4108C76.313 42.4918 76.4229 42.5373 76.5375 42.5373Z" fill="#191919"/>
<path d="M87.0132 49.2652C87.9271 49.4025 88.9236 49.5446 89.8462 49.5926C92.4689 49.7327 98.4084 49.5023 101.462 49.2748C102.652 49.1855 103.388 49.0463 104.621 48.8726C104.682 48.8695 104.743 48.8542 104.799 48.8275C104.854 48.8008 104.904 48.7632 104.945 48.717C104.987 48.6708 105.018 48.6169 105.038 48.5584C105.058 48.4999 105.066 48.4379 105.062 48.3762C105.055 48.2532 105 48.1379 104.909 48.055C104.818 47.9721 104.698 47.9282 104.574 47.9327C100.502 47.8137 102.978 47.8636 95.4468 48.1132C90.5412 48.2764 92.7214 48.0335 87.0631 48.4012C87.0051 48.3958 86.9465 48.4021 86.891 48.4199C86.8354 48.4376 86.784 48.4664 86.7399 48.5045C86.6957 48.5426 86.6598 48.5893 86.6341 48.6416C86.6084 48.694 86.5936 48.751 86.5905 48.8092C86.5874 48.8674 86.596 48.9257 86.616 48.9805C86.636 49.0353 86.6668 49.0855 86.7066 49.1281C86.7465 49.1706 86.7945 49.2047 86.8478 49.2283C86.9012 49.2519 86.9587 49.2644 87.017 49.2652H87.0132Z" fill="#FFB500"/>
<path d="M110.167 49.2264C111.202 49.4587 111.066 49.4808 113.815 49.4069C115.044 49.4932 116.278 49.3632 117.463 49.0229C117.584 49.012 117.697 48.9544 117.777 48.8624C117.857 48.7703 117.898 48.6508 117.892 48.5289C117.886 48.4071 117.833 48.2923 117.744 48.2086C117.655 48.125 117.538 48.0789 117.416 48.0802C116.911 47.9731 116.396 47.918 115.88 47.916C114.898 47.916 111.883 47.9727 111.211 48.0754C110.84 48.1413 110.475 48.2377 110.12 48.3634C110.005 48.3696 109.898 48.4211 109.821 48.5064C109.745 48.5917 109.705 48.704 109.712 48.8184C109.718 48.9329 109.769 49.0401 109.855 49.1167C109.94 49.1932 110.052 49.2327 110.167 49.2264Z" fill="#191919"/>
<path d="M87.5543 56.2501C88.5129 56.3179 89.4749 56.3234 90.4343 56.2665C90.6752 56.253 99.3201 55.6166 99.561 55.5945C100.281 55.5273 101.555 55.317 101.837 55.2748C101.962 55.2679 102.08 55.2137 102.166 55.1231C102.253 55.0324 102.301 54.9123 102.302 54.7871C102.294 54.6631 102.24 54.5466 102.149 54.4618C102.058 54.3769 101.938 54.3302 101.814 54.3311C99.4148 54.1415 97.0024 54.1962 94.6141 54.4943C89.3092 54.8687 88.9386 55.0607 87.4852 55.3909C87.3769 55.4072 87.2789 55.4639 87.2108 55.5496C87.1428 55.6353 87.1098 55.7437 87.1186 55.8528C87.1274 55.9619 87.1772 56.0636 87.2581 56.1374C87.339 56.2111 87.4448 56.2514 87.5543 56.2501Z" fill="#FFB500"/>
<path d="M108.728 54.8651C109.024 54.9498 109.327 55.008 109.633 55.0388C110.173 55.0686 112.552 54.8468 113.395 54.7508C113.817 54.6975 114.23 54.593 114.626 54.4398C114.688 54.4371 114.748 54.4221 114.804 54.3956C114.86 54.3692 114.91 54.3318 114.951 54.2857C114.992 54.2397 115.024 54.1858 115.044 54.1273C115.064 54.0689 115.072 54.007 115.068 53.9454C115.061 53.8221 115.006 53.7065 114.915 53.6232C114.823 53.54 114.703 53.4957 114.58 53.4999C113.286 53.2686 113.791 53.2859 111.584 53.4625C109.178 53.6545 109.392 53.7255 108.658 54.0078C108.544 54.0168 108.439 54.0707 108.365 54.1574C108.291 54.2442 108.254 54.3568 108.263 54.4705C108.275 54.5836 108.329 54.6878 108.416 54.7614C108.503 54.8349 108.614 54.8721 108.728 54.8651Z" fill="#191919"/>
<path d="M144.421 32.459C145.827 32.4795 147.232 32.3932 148.625 32.2007C149.211 32.1259 150.439 31.9531 150.389 31.3953C150.389 30.6791 148.645 30.7799 147.928 30.8308C146.883 30.9057 145.838 30.9847 144.792 31.0679C144.289 31.1054 143.054 31.2359 143.004 31.7399C143.004 32.2478 144.208 32.435 144.421 32.459Z" fill="#FFB500"/>
<path d="M143.854 38.1486C144.43 38.1486 145.724 37.9566 146.617 37.8606C147.36 37.7819 148.104 37.7646 148.847 37.6446C150.05 37.442 150.404 37.2875 150.404 36.89C150.319 35.9512 147.158 36.3409 146.339 36.4254C145.42 36.5214 142.328 36.8392 142.508 37.7444C142.577 38.0939 142.843 38.1409 143.854 38.1486Z" fill="#FFB500"/>
<path d="M145.009 43.6258C146.409 43.7486 147.817 43.7284 149.213 43.5653C149.966 43.4012 150.397 43.3157 150.397 42.8876C150.397 42.013 147.805 42.2271 146.891 42.2444C146.242 42.2568 143.755 42.1013 143.685 42.8108C143.638 43.2936 144.7 43.5682 145.009 43.6258Z" fill="#FFB500"/>
<path d="M155.161 44.0053C157.112 44.3173 158.098 44.4296 166.47 43.9448C167.474 43.8903 168.474 43.7849 169.466 43.6289C169.528 43.6274 169.589 43.6138 169.646 43.5887C169.702 43.5637 169.753 43.5278 169.796 43.483C169.838 43.4383 169.872 43.3856 169.894 43.3279C169.916 43.2703 169.927 43.2088 169.925 43.147C169.924 43.0853 169.91 43.0244 169.885 42.9679C169.86 42.9114 169.824 42.8604 169.779 42.8178C169.735 42.7752 169.682 42.7418 169.624 42.7195C169.567 42.6973 169.505 42.6866 169.443 42.6881C168.018 42.5148 166.579 42.4766 165.146 42.5739C155.598 42.9099 157.004 42.9377 155.162 43.1432C155.048 43.1432 154.938 43.1887 154.857 43.2697C154.776 43.3507 154.73 43.4606 154.73 43.5752C154.73 43.6898 154.776 43.7996 154.857 43.8807C154.938 43.9617 155.048 44.0072 155.162 44.0072L155.161 44.0053Z" fill="#191919"/>
<path d="M154.167 37.5324C154.963 37.6361 156.053 37.782 156.93 37.83C159.013 37.9586 169.602 37.9788 170.191 37.9577C170.959 37.9298 171.727 37.8617 172.513 37.8233C172.634 37.8191 172.748 37.7691 172.833 37.6835C172.917 37.5979 172.966 37.4832 172.969 37.3628C172.972 37.2424 172.929 37.1254 172.848 37.0357C172.768 36.9461 172.656 36.8906 172.536 36.8805C172.049 36.8249 171.561 36.7663 171.073 36.7202C168.65 36.4889 158.375 36.3794 156.187 36.5129C155.515 36.5532 154.863 36.6204 154.19 36.6693C154.075 36.6663 153.964 36.7089 153.881 36.7877C153.798 36.8666 153.749 36.9753 153.746 37.0898C153.743 37.2044 153.786 37.3155 153.865 37.3987C153.943 37.4818 154.052 37.5303 154.167 37.5333V37.5324Z" fill="#191919"/>
<path d="M154.686 31.245C157.812 32.0514 159.381 32.1311 168.783 32.0303C171.196 32.0044 170.903 31.9391 172.498 31.8796C172.62 31.8809 172.738 31.8349 172.826 31.7515C172.915 31.668 172.968 31.5534 172.974 31.4318C172.98 31.3102 172.939 31.1909 172.859 31.099C172.779 31.0071 172.667 30.9497 172.545 30.9388C167.489 30.287 167.882 30.8428 157.612 30.4463C156.829 30.4156 155.381 30.4137 154.802 30.3906C154.746 30.383 154.689 30.3865 154.634 30.4009C154.579 30.4154 154.528 30.4404 154.483 30.4747C154.438 30.509 154.4 30.5518 154.371 30.6007C154.343 30.6496 154.324 30.7037 154.316 30.7598C154.309 30.8159 154.312 30.8729 154.327 30.9277C154.341 30.9824 154.366 31.0338 154.4 31.0789C154.435 31.1239 154.478 31.1618 154.526 31.1903C154.575 31.2188 154.629 31.2374 154.686 31.245Z" fill="#191919"/>
<path d="M133.78 75.5657C134.783 75.5221 135.783 75.4228 136.776 75.2681C137.325 75.128 137.788 74.9801 137.751 74.576C137.751 74.096 136.71 73.9472 136.614 73.9347C135.607 73.9221 134.603 74.0187 133.617 74.2227C133.43 74.2822 132.561 74.648 132.642 75.0444C132.68 75.4265 133.679 75.5609 133.78 75.5657Z" fill="#FFB500"/>
<path d="M141.61 75.2002C142.539 75.2241 143.468 75.1984 144.394 75.1234C153.452 74.3928 152.629 74.4293 154.868 73.8811C154.989 73.8602 155.098 73.7924 155.17 73.6924C155.243 73.5924 155.273 73.4681 155.255 73.3461C155.236 73.224 155.171 73.1139 155.073 73.0393C154.975 72.9648 154.851 72.9317 154.729 72.9471C151.622 72.9848 148.521 73.1989 145.439 73.5883C144.088 73.671 142.753 73.9255 141.467 74.3458C141.354 74.3647 141.253 74.4279 141.186 74.5215C141.119 74.615 141.092 74.7312 141.111 74.8445C141.13 74.9578 141.194 75.0589 141.287 75.1256C141.381 75.1923 141.497 75.2191 141.61 75.2002Z" fill="#191919"/>
<path d="M146.207 81.4559C146.497 81.4492 146.784 81.4135 147.067 81.3493C147.163 81.3253 147.888 80.9471 147.856 80.5813C147.806 80.0159 146.959 79.9352 146.276 79.9851C145.296 80.0687 144.863 80.6485 144.883 80.8491C144.904 81.0498 145.363 81.5163 146.207 81.4559Z" fill="#FFB500"/>
<path d="M150.827 80.994C151.563 81.0434 152.302 81.0316 153.035 80.9585C153.495 80.9134 159.325 80.2251 159.979 80.1156C160.615 80.0091 161.313 79.8142 161.697 79.7259C161.822 79.7131 161.936 79.6515 162.015 79.5544C162.094 79.4574 162.132 79.3329 162.119 79.2084C162.106 79.0839 162.044 78.9696 161.947 78.8905C161.85 78.8115 161.726 78.7742 161.601 78.787C159.768 78.6769 157.927 78.7894 156.121 79.122C152.051 79.5915 151.861 79.7671 150.71 80.1415C150.597 80.1596 150.496 80.2203 150.427 80.3111C150.358 80.4019 150.326 80.5158 150.339 80.6292C150.357 80.7416 150.418 80.8426 150.509 80.9107C150.6 80.9788 150.714 81.0087 150.827 80.994Z" fill="#191919"/>
<path d="M146.09 86.6133C148.328 86.5309 150.561 86.331 152.778 86.0142C155.216 85.8855 157.644 85.6046 160.047 85.1733C160.169 85.1624 160.281 85.105 160.361 85.0131C160.441 84.9212 160.482 84.8019 160.476 84.6803C160.47 84.5587 160.417 84.4441 160.328 84.3607C160.24 84.2772 160.122 84.2313 160 84.2325C159.107 84.2018 158.344 84.1451 157.446 84.1864C154.327 84.3466 151.219 84.669 148.134 85.1522C147.387 85.3142 146.65 85.5181 145.926 85.7627C145.87 85.7728 145.817 85.7938 145.769 85.8245C145.721 85.8551 145.68 85.8949 145.647 85.9416C145.615 85.9882 145.592 86.0407 145.58 86.0962C145.568 86.1517 145.567 86.209 145.577 86.2648C145.601 86.3779 145.668 86.4773 145.763 86.5422C145.859 86.6072 145.976 86.6327 146.09 86.6133Z" fill="#191919"/>
<path d="M153.893 90.8451C157.798 91.1533 158.789 90.7491 168.013 89.5971C170.498 89.2918 170.317 89.2419 171.706 89.0557C171.77 89.055 171.833 89.0416 171.891 89.016C171.949 88.9905 172.002 88.9535 172.045 88.9072C172.089 88.8609 172.123 88.8063 172.145 88.7466C172.167 88.6869 172.176 88.6234 172.173 88.5599C172.17 88.4963 172.154 88.4341 172.126 88.3769C172.098 88.3197 172.059 88.2687 172.011 88.2269C171.963 88.1852 171.907 88.1536 171.847 88.134C171.786 88.1144 171.722 88.1073 171.659 88.113C170.451 88.0476 169.241 88.0694 168.036 88.1782C167.515 88.2234 159.406 89.2054 153.87 89.9802C153.814 89.9817 153.758 89.9944 153.706 90.0175C153.654 90.0406 153.607 90.0738 153.568 90.115C153.529 90.1562 153.498 90.2047 153.478 90.2578C153.458 90.3108 153.448 90.3674 153.449 90.4242C153.451 90.481 153.464 90.5369 153.487 90.5888C153.51 90.6407 153.543 90.6875 153.584 90.7266C153.625 90.7657 153.674 90.7963 153.727 90.8166C153.78 90.8369 153.837 90.8466 153.893 90.8451Z" fill="#191919"/>
<path d="M155.588 95.7719C159.044 96.0599 159.847 95.8238 168.686 94.7755C170.856 94.5182 170.752 94.4634 172.123 94.2666C172.248 94.2605 172.365 94.2052 172.449 94.1127C172.533 94.0203 172.576 93.8983 172.57 93.7737C172.564 93.6491 172.509 93.532 172.416 93.4482C172.324 93.3643 172.202 93.3207 172.077 93.3268C169.596 93.2308 169.309 93.1742 158.166 94.5105C157.454 94.5931 155.888 94.858 155.565 94.9079C155.508 94.9094 155.453 94.9221 155.401 94.9452C155.349 94.9683 155.302 95.0014 155.263 95.0426C155.224 95.0838 155.193 95.1323 155.173 95.1853C155.153 95.2382 155.143 95.2947 155.145 95.3515C155.146 95.4082 155.159 95.4641 155.182 95.5159C155.205 95.5677 155.238 95.6145 155.279 95.6535C155.321 95.6926 155.369 95.7231 155.422 95.7435C155.475 95.7638 155.531 95.7734 155.588 95.7719Z" fill="#191919"/>
<path d="M155.543 101.169C156.575 101.159 157.606 101.097 158.631 100.983C169.953 99.7048 167.882 99.9909 170.87 99.4466C170.933 99.4434 170.994 99.4277 171.051 99.4005C171.107 99.3732 171.158 99.335 171.199 99.2879C171.241 99.2409 171.272 99.186 171.292 99.1266C171.312 99.0671 171.32 99.0043 171.315 98.9417C171.311 98.8792 171.294 98.8182 171.265 98.7624C171.236 98.7066 171.197 98.657 171.149 98.6167C171.101 98.5763 171.045 98.546 170.985 98.5274C170.926 98.5089 170.863 98.5025 170.8 98.5087C170.011 98.4991 169.244 98.4616 168.455 98.4924C164.447 98.7312 160.46 99.2338 156.518 99.9967C156.145 100.093 155.774 100.211 155.403 100.32C155.346 100.329 155.292 100.348 155.243 100.378C155.194 100.408 155.151 100.447 155.118 100.493C155.084 100.539 155.06 100.592 155.047 100.648C155.034 100.703 155.032 100.761 155.041 100.817C155.05 100.874 155.071 100.928 155.101 100.976C155.131 101.025 155.171 101.067 155.218 101.1C155.264 101.133 155.317 101.156 155.373 101.169C155.429 101.181 155.487 101.183 155.543 101.173V101.169Z" fill="#191919"/>
<path d="M156.82 105.644C162.763 105.224 158.644 105.3 168.436 104.511C169.911 104.398 170.313 104.291 171.339 104.156C171.403 104.157 171.466 104.145 171.524 104.12C171.583 104.096 171.636 104.06 171.681 104.015C171.726 103.97 171.761 103.916 171.784 103.857C171.807 103.798 171.819 103.735 171.817 103.672C171.815 103.608 171.801 103.546 171.775 103.488C171.748 103.43 171.711 103.378 171.664 103.335C171.617 103.292 171.562 103.259 171.502 103.238C171.442 103.217 171.379 103.208 171.315 103.212C168.854 102.997 166.376 103.066 163.931 103.42C162.201 103.575 160.48 103.82 158.775 104.151C158.051 104.327 157.338 104.544 156.639 104.799C156.533 104.829 156.443 104.898 156.386 104.992C156.329 105.087 156.311 105.199 156.334 105.306C156.357 105.414 156.42 105.509 156.51 105.571C156.601 105.634 156.711 105.66 156.82 105.644Z" fill="#191919"/>
<path d="M61.1612 81.3547C51.0648 81.7714 42.1532 83.4523 31.7852 82.667C31.7289 82.663 31.674 82.6479 31.6237 82.6226C31.5733 82.5973 31.5284 82.5623 31.4916 82.5195C31.4549 82.4768 31.4269 82.4271 31.4094 82.3735C31.3919 82.3199 31.3852 82.2634 31.3896 82.2072C31.4004 82.0933 31.4547 81.988 31.5413 81.9132C31.6279 81.8384 31.74 81.8 31.8543 81.8059C41.3093 82.4203 51.6437 80.4379 61.813 79.955C61.9089 79.947 62.0055 79.9599 62.0959 79.9927C62.1864 80.0256 62.2687 80.0777 62.3371 80.1454C62.4055 80.213 62.4585 80.2948 62.4923 80.3849C62.5261 80.475 62.54 80.5714 62.533 80.6674C62.3295 88.4309 71.9343 87.5006 73.0066 80.2834C73.0311 80.124 73.1087 79.9777 73.2268 79.868C73.345 79.7584 73.4968 79.692 73.6575 79.6795C77.9554 79.3723 82.1794 78.8731 86.6396 78.7464C86.8277 78.7408 87.0105 78.8088 87.1492 78.9359C87.288 79.063 87.3717 79.2392 87.3826 79.427C87.637 83.5003 87.638 87.6782 87.638 91.9954C102.539 90.252 103.574 106.704 88.4741 108.054C88.4041 110.496 88.1487 124.898 88.1487 124.898C88.1359 125.065 88.0669 125.222 87.953 125.344C87.8391 125.466 87.687 125.546 87.5218 125.57C84.4805 125.954 74.4092 127.586 65.0415 128.066C56.1452 128.515 32.5215 135.483 31.0882 119.687C31.0761 119.563 31.113 119.439 31.1911 119.342C31.2692 119.246 31.3823 119.183 31.5058 119.169C31.6316 119.16 31.7562 119.198 31.8552 119.277C31.9541 119.355 32.0202 119.467 32.0405 119.592C32.6904 125.595 36.8252 127.892 42.0495 128.528C49.502 129.436 59.4697 126.958 64.9714 126.659C74.4524 126.144 84.1599 124.547 86.7327 124.218C86.8066 123.305 87.0332 107.459 87.0341 107.362C87.0365 107.181 87.107 107.008 87.2316 106.877C87.3563 106.747 87.5258 106.668 87.7061 106.656C101.812 105.846 100.884 91.3032 87.0341 93.5467C86.9319 93.5626 86.8274 93.5561 86.728 93.5276C86.6285 93.4991 86.5364 93.4493 86.4581 93.3816C85.838 92.8584 86.5426 92.2709 85.9935 80.2181C82.1746 80.3506 78.2434 80.7826 74.3122 81.0706C72.5746 89.2997 61.4857 89.9074 61.1612 81.3547Z" fill="#FFB500"/>
<path d="M181.065 11.6751C186.153 16.6671 185.178 24.7416 185.128 31.8428C185.108 34.7333 185.403 79.9628 185.686 89.6079C185.86 95.5455 185.995 107.741 181.552 111.688C177.372 115.399 170.23 116.275 164.669 116.785C130.671 119.896 127.872 117.355 127.742 118.793C127.739 118.919 127.787 119.042 127.874 119.134C127.961 119.226 128.08 119.279 128.207 119.283C140.418 119.788 152.649 119.425 164.808 118.198C170.743 117.669 178.048 116.72 182.505 112.768C184.57 110.935 185.798 107.59 186.452 103.84C187.839 95.8834 186.81 93.4536 186.452 31.8466C186.411 24.7426 187.117 15.9452 181.668 11.0463C181.584 10.9747 181.475 10.9381 181.364 10.944C181.253 10.9498 181.149 10.9976 181.072 11.0776C180.995 11.1577 180.951 11.264 180.95 11.3749C180.949 11.4859 180.99 11.5932 181.065 11.6751Z" fill="#191919"/>
<path d="M182.591 57.9135C182.76 57.8792 182.911 57.7844 183.015 57.6469C183.119 57.5095 183.17 57.3387 183.157 57.1666C182.987 53.7105 182.917 50.2502 182.948 46.79C183.023 24.4105 184.283 16.3282 180.068 11.846C176.761 8.26518 170.391 8.42838 164.206 8.19798C151.172 7.74845 138.122 8.27697 125.167 9.7791C125.053 9.79183 124.949 9.8493 124.877 9.93887C124.805 10.0284 124.772 10.1428 124.785 10.2567C124.798 10.3706 124.855 10.4749 124.945 10.5464C125.034 10.618 125.149 10.651 125.263 10.6383C138.19 9.50508 151.174 9.16396 164.143 9.61686C175.984 10.0719 181.327 9.95382 181.665 21.926C179.601 21.9586 157.942 22.2572 150.789 22.4895C146.168 22.6575 127.636 23.6415 125.987 23.6511C125.872 23.6511 125.762 23.6966 125.681 23.7776C125.6 23.8587 125.555 23.9685 125.555 24.0831C125.555 24.1977 125.6 24.3076 125.681 24.3886C125.762 24.4696 125.872 24.5151 125.987 24.5151C139.003 24.8482 138.705 24.3365 150.836 23.9439C166.884 23.3679 171.705 23.5801 181.683 22.8927C181.908 38.2767 181.147 44.7625 181.7 56.5426C175.884 57.037 170.053 57.253 164.213 57.829C164.808 45.1465 149.078 46.9013 148.188 59.4159C140.899 60.1916 133.125 60.3337 125.708 60.686C125.516 60.6946 125.498 49.838 125.244 45.0562C138.12 44.4053 139.172 33.4604 133.325 29.8421C131.189 28.4981 128.263 28.1986 125.522 28.4674C125.127 25.4914 123.664 13.1449 123.362 9.97014C123.355 9.89774 123.33 9.82826 123.289 9.76811C123.248 9.70796 123.193 9.65908 123.128 9.62598C123.063 9.59288 122.991 9.57663 122.918 9.57873C122.846 9.58082 122.775 9.6012 122.712 9.63798C122.424 9.60822 74.808 10.8341 73.0368 10.7391C65.3923 10.3244 63.4694 16.141 63.5146 23.7596C63.5818 37.4665 63.169 51.1407 63.863 64.743C63.8752 64.9354 63.9625 65.1154 64.1062 65.244C64.2499 65.3726 64.4384 65.4395 64.631 65.4303C71.063 65.1164 77.3539 65.2854 83.7677 65.1817C87.7469 65.1183 91.7194 64.7727 95.6582 64.7286C95.7132 65.5385 95.8417 66.3419 96.0422 67.1286C81.6672 67.7247 82.2518 67.7142 68.3664 67.0604C68.2527 67.0477 68.1386 67.0806 68.0492 67.152C67.9599 67.2234 67.9025 67.3274 67.8898 67.441C67.877 67.5547 67.91 67.6688 67.9814 67.7582C68.0527 67.8476 68.1567 67.9049 68.2704 67.9177C76.7654 69.4959 88.3344 69.2809 96.4166 68.0857C98.5219 72.253 104.711 71.5618 106.892 66.8924C107.279 65.9967 107.538 65.0506 107.66 64.0825C111.608 63.5852 115.718 63.2233 119.713 62.6425C120.204 62.5724 125.024 61.8466 125.426 61.5366C125.513 61.6025 125.619 61.6365 125.728 61.6326C133.497 61.4137 140.992 61.4482 148.906 60.687C149.066 60.6682 149.214 60.5936 149.324 60.4763C149.435 60.359 149.5 60.2065 149.509 60.0457C150.103 48.6745 163.889 46.6239 162.724 58.5644C162.716 58.6696 162.731 58.7753 162.767 58.8745C162.803 58.9738 162.859 59.0644 162.932 59.1404C163.338 59.5244 162.996 59.3055 169.203 58.8601C173.352 58.5625 177.501 58.3522 181.651 58.0047C182.169 63.926 182.273 105.302 179.073 110.037C175.268 115.413 134.543 116.79 125.38 115.652C125.426 111.483 125.565 97.8207 125.565 95.1529C127.346 95.2995 129.138 95.1322 130.86 94.6585C135.426 93.1954 137.539 87.565 133.764 83.151C132.804 82.0129 131.594 81.113 130.228 80.5222C128.862 79.9313 127.378 79.6655 125.892 79.7458C125.555 75.4258 125.311 68.7836 125.358 63.0015C125.355 62.8908 125.309 62.7856 125.23 62.7078C125.151 62.63 125.045 62.5857 124.935 62.5839C124.824 62.5822 124.717 62.6233 124.636 62.6985C124.554 62.7738 124.505 62.8775 124.499 62.9881C124.403 69.1638 124.272 72.6793 124.707 80.4822C124.713 80.5682 124.736 80.6521 124.777 80.7283C124.817 80.8045 124.873 80.8713 124.941 80.9244C125.009 80.9774 125.087 81.0154 125.171 81.036C125.255 81.0566 125.342 81.0592 125.427 81.0438C126.796 80.882 128.184 81.0708 129.46 81.5926C130.736 82.1143 131.859 82.9518 132.723 84.0265C135.766 87.661 134.15 92.1356 130.419 93.3087C128.615 93.772 126.742 93.898 124.892 93.6802C124.795 93.6729 124.698 93.6861 124.606 93.719C124.514 93.752 124.431 93.8039 124.361 93.8715C124.29 93.939 124.235 94.0206 124.199 94.1109C124.162 94.2012 124.145 94.2981 124.149 94.3954C124.149 97.3119 123.963 111.888 123.917 116.27C123.917 116.442 123.977 116.609 124.087 116.741C124.198 116.873 124.351 116.962 124.521 116.992C131.447 118.185 175.826 117.39 180.234 110.858C184.017 105.518 183.307 64.6105 182.591 57.9135ZM67.176 14.1817C68.3606 12.7887 70.1952 11.9986 72.959 12.1426C78.815 12.4306 116.217 10.8831 122.542 10.5845C122.797 13.5922 123.661 22.3234 123.812 23.6722C112.258 23.4437 107.638 23.8028 91.2134 24.4095C75.4598 25.0479 74.4192 24.5583 64.9526 25.6153C64.9459 21.9346 64.7424 17.0069 67.176 14.1817ZM124.47 43.6738C124.376 43.6762 124.284 43.6976 124.198 43.7368C124.113 43.776 124.037 43.8321 123.974 43.9018C123.911 43.9716 123.863 44.0533 123.832 44.1422C123.802 44.2311 123.79 44.3252 123.798 44.4188C124.138 52.4473 123.952 55.1814 124.239 60.399C118.62 61.5644 112.645 61.9762 106.914 62.7145C106.75 62.732 106.596 62.8071 106.482 62.9265C106.367 63.0459 106.298 63.202 106.287 63.3673C106.216 64.3735 105.972 65.3599 105.567 66.2838C103.708 70.3311 98.0506 70.5663 97.2758 66.1081L96.9974 63.9106C96.9772 63.734 96.8926 63.5709 96.7598 63.4527C96.627 63.3344 96.4553 63.2691 96.2774 63.2694C92.1245 63.2809 87.9158 63.6582 83.737 63.7244C77.6534 63.8204 71.449 63.6735 65.2742 63.9452C64.6867 51.8185 64.9642 37.5941 64.9555 26.4879C70.1136 26.222 83.4576 26.1471 91.2845 25.861C95.7197 25.6892 121.831 24.7215 123.924 24.6553C124.095 26.1663 124.308 27.6706 124.448 29.1797C124.456 29.2561 124.48 29.3299 124.518 29.3969C124.555 29.4639 124.606 29.5227 124.667 29.5698C124.727 29.617 124.797 29.6515 124.871 29.6714C124.945 29.6913 125.022 29.6961 125.099 29.6857C129.81 29.149 134.425 30.3135 135.275 34.9417C135.428 35.8021 135.407 36.6847 135.211 37.5365C135.015 38.3884 134.65 39.192 134.136 39.8991C132.065 42.6342 127.915 43.6316 124.47 43.6738Z" fill="#191919"/>
<path d="M103.714 72.299C109.256 71.7815 108.53 68.625 111.215 67.258C114.309 65.6846 119.243 66.0887 123.896 65.1556C123.959 65.1498 124.02 65.1315 124.076 65.1016C124.131 65.0718 124.18 65.0311 124.22 64.9818C124.26 64.9326 124.289 64.876 124.306 64.8152C124.324 64.7544 124.328 64.6908 124.321 64.6281C124.313 64.5654 124.293 64.5049 124.261 64.4502C124.229 64.3955 124.187 64.3477 124.136 64.3097C124.086 64.2717 124.028 64.2442 123.967 64.2289C123.906 64.2136 123.842 64.2108 123.78 64.2206C121.38 64.378 114.27 64.0871 110.565 65.963C107.341 67.595 108.511 70.1294 103.552 71.4474C103.496 71.4581 103.442 71.4797 103.395 71.5109C103.347 71.5421 103.306 71.5824 103.274 71.6295C103.242 71.6766 103.22 71.7295 103.208 71.7852C103.197 71.841 103.196 71.8984 103.207 71.9543C103.218 72.0102 103.239 72.0635 103.27 72.1111C103.302 72.1587 103.342 72.1996 103.389 72.2316C103.436 72.2636 103.489 72.286 103.545 72.2976C103.6 72.3092 103.658 72.3096 103.714 72.299Z" fill="#191919"/>
<path d="M44.8008 112.499L48.3208 99.6992L50.5608 105.779L54.4008 99.6992V112.499" stroke="black" stroke-width="1.28"/>
<path d="M57.2812 99.0586L60.8012 109.299L64.6412 99.0586" stroke="black" stroke-width="1.28"/>
<path d="M68.1602 111.218V104.818M68.1602 104.818V98.4184C69.9735 98.2051 73.4722 98.5464 72.9602 101.618C72.4482 104.69 69.5468 105.032 68.1602 104.818Z" stroke="black" stroke-width="1.28"/>
</svg>
