<svg width="192" height="193" viewBox="0 0 192 193" fill="none" xmlns="http://www.w3.org/2000/svg">
<path d="M85.6535 21.7622C85.6896 21.6918 85.7072 21.6134 85.7047 21.5343C85.7022 21.4552 85.6798 21.378 85.6394 21.31C85.599 21.2419 85.5421 21.1852 85.4739 21.1451C85.4057 21.105 85.3285 21.0828 85.2494 21.0806C20.1681 20.9961 29.1537 21.4589 27.2116 21.4589C26.603 21.4589 27.7876 54.6614 27.9451 64.8921C27.9451 64.9939 28.2225 65.3721 28.4251 65.3721C32.5435 65.3597 50.8612 65.3222 52.6046 64.7913C52.6521 64.7789 52.6941 64.7512 52.724 64.7123C52.754 64.6735 52.7703 64.6258 52.7703 64.5768C52.7703 64.5277 52.754 64.4801 52.724 64.4412C52.6941 64.4024 52.6521 64.3746 52.6046 64.3622C50.8871 63.9072 32.8209 64.3622 28.8801 64.4381C28.7284 57.312 27.9451 23.4806 27.6167 21.9897C29.7643 22.3689 75.1684 22.1165 84.7444 22.0656C84.7185 28.8374 84.8068 48.9993 84.8203 52.3353C84.827 54.1037 84.6686 61.128 85.0727 62.6937C85.0851 62.7412 85.1129 62.7832 85.1518 62.8132C85.1906 62.8432 85.2382 62.8595 85.2873 62.8595C85.3364 62.8595 85.384 62.8432 85.4229 62.8132C85.4617 62.7832 85.4895 62.7412 85.5019 62.6937C85.8561 61.0742 85.6785 28.6099 85.6535 21.7622Z" fill="#191919"/>
<path d="M84.9988 63.0241C82.8503 63.1201 73.4269 63.554 72.4919 63.9083C72.4619 63.9134 72.4335 63.9252 72.4087 63.9429C72.384 63.9605 72.3635 63.9836 72.3489 64.0103C72.3343 64.037 72.326 64.0666 72.3245 64.097C72.323 64.1274 72.3283 64.1577 72.3402 64.1857C72.5965 64.9537 82.7908 64.0695 84.9988 63.9582C85.6045 63.9284 85.6045 62.9953 84.9988 63.0241Z" fill="#191919"/>
<path d="M158.145 21.8901C158.12 28.7118 158.049 61.4824 158.448 63.0491C158.461 63.096 158.489 63.1373 158.528 63.1667C158.566 63.1962 158.614 63.2121 158.662 63.2121C158.711 63.2121 158.758 63.1962 158.797 63.1667C158.836 63.1373 158.864 63.096 158.877 63.0491C159.282 61.4574 159.105 28.636 159.08 21.7883C159.155 21.1317 158.751 20.98 158.271 20.9301C102.708 20.7832 100.613 21.1797 100.613 21.46C100.259 23.0517 101.358 57.46 101.472 64.7416C101.472 64.8434 101.749 65.2216 101.952 65.2216C105.565 65.2216 122.545 64.972 123.251 64.6917C123.298 64.6748 123.339 64.6439 123.367 64.6032C123.396 64.5624 123.411 64.5139 123.411 64.4642C123.411 64.4144 123.396 64.3659 123.367 64.3252C123.339 64.2845 123.298 64.2535 123.251 64.2366C122.57 63.9582 105.869 64.1858 102.432 64.2616C102.28 57.1365 101.497 23.3051 101.169 21.8142C103.316 22.1954 148.619 21.94 158.145 21.8901Z" fill="#191919"/>
<path d="M158.749 63.5296C156.321 63.6256 145.552 62.9152 145.99 64.0096C146 64.0454 146.02 64.0781 146.046 64.1045C146.073 64.131 146.105 64.1505 146.141 64.1613C147.075 64.4138 156.574 64.5731 158.749 64.4646C159.359 64.4358 159.359 63.5066 158.749 63.5296Z" fill="#191919"/>
<path d="M25.0384 113.255C23.5081 112.718 21.9083 112.403 20.2883 112.321C20.3641 110.956 20.4909 109.593 20.5158 108.253C20.5123 108.177 20.4818 108.104 20.4298 108.048C20.3779 107.992 20.3078 107.957 20.2321 107.948C20.1563 107.939 20.0798 107.957 20.0161 107.999C19.9524 108.041 19.9057 108.104 19.8841 108.177C19.6261 109.537 19.4657 110.913 19.4041 112.295C17.8881 112.233 16.3699 112.25 14.8557 112.346C14.7686 112.346 14.6851 112.381 14.6235 112.442C14.5619 112.504 14.5273 112.587 14.5273 112.675C14.5273 112.762 14.5619 112.845 14.6235 112.907C14.6851 112.968 14.7686 113.003 14.8557 113.003C16.356 112.969 17.8572 113.011 19.3533 113.13C19.2174 114.611 19.2512 116.103 19.4541 117.576C19.527 117.981 20.0925 117.83 20.1366 117.475C20.2454 116.055 20.279 114.63 20.2374 113.205C21.8041 113.382 23.3459 113.781 24.9117 113.963C24.9956 113.96 25.0761 113.928 25.1395 113.873C25.203 113.818 25.2457 113.743 25.2605 113.66C25.2753 113.578 25.2614 113.492 25.221 113.419C25.1805 113.345 25.1161 113.287 25.0384 113.255Z" fill="#191919"/>
<path d="M174.997 78.4853C173.811 77.4504 172.521 76.5393 171.334 75.5035C172.37 74.5435 173.523 73.6267 174.467 72.5726C174.717 72.2933 174.391 71.8152 174.062 72.0427C172.829 72.8627 171.701 73.8298 170.702 74.9227C169.599 73.8936 168.561 72.7967 167.595 71.6385C167.318 71.3083 166.866 71.7605 167.139 72.0926C168.065 73.2168 169.035 74.3918 170.121 75.5035C169.128 76.4615 168.208 77.4918 167.367 78.5861C167.138 78.8885 167.617 79.2149 167.872 78.9653C168.845 78.0177 169.792 77.0453 170.752 76.0853C171.908 77.2294 173.217 78.207 174.643 78.9902C174.71 79.0252 174.787 79.0346 174.86 79.0168C174.934 78.9989 174.998 78.955 175.042 78.8932C175.085 78.8314 175.104 78.7559 175.096 78.6809C175.088 78.6058 175.053 78.5363 174.997 78.4853Z" fill="#191919"/>
<path d="M24.9113 101.734C24.6704 101.136 24.2189 100.646 23.6419 100.357C23.0649 100.069 22.4022 100.001 21.7788 100.167C21.155 100.351 20.6269 100.77 20.3063 101.336C19.9856 101.901 19.8975 102.569 20.0604 103.199C20.0825 103.282 20.1336 103.355 20.2045 103.403C20.2753 103.452 20.3612 103.474 20.4467 103.464C20.5322 103.455 20.6116 103.416 20.6705 103.353C20.7294 103.291 20.764 103.209 20.768 103.123C20.8064 100.668 23.1968 100.497 24.0272 101.962C24.1907 102.345 24.2172 102.773 24.1022 103.173C23.9871 103.574 23.7375 103.922 23.3955 104.16C22.9863 104.396 22.5023 104.468 22.0423 104.36C21.5823 104.251 21.1808 103.972 20.9196 103.578C20.694 103.249 20.1411 103.55 20.3638 103.907C20.6847 104.45 21.1913 104.86 21.7902 105.059C22.3891 105.259 23.04 105.236 23.623 104.993C24.1872 104.689 24.6259 104.195 24.8616 103.599C25.0973 103.002 25.1149 102.342 24.9113 101.734Z" fill="#191919"/>
<path d="M19.7579 63.5302C18.0736 60.8712 16.0713 58.4276 13.7954 56.2534C13.7457 56.2015 13.6831 56.1639 13.614 56.1443C13.5449 56.1247 13.4719 56.1238 13.4024 56.1418C13.3328 56.1598 13.2694 56.196 13.2185 56.2466C13.1676 56.2973 13.1311 56.3606 13.1128 56.43C12.6866 59.1852 10.9403 61.7868 10.9144 64.59C10.9195 64.6588 10.9481 64.7236 10.9955 64.7737C11.0429 64.8238 11.106 64.856 11.1744 64.8649C11.2427 64.8738 11.3121 64.8589 11.3707 64.8226C11.4293 64.7864 11.4736 64.731 11.4962 64.6659C12.2286 62.2659 13.2645 59.8399 13.7704 57.3641C15.6174 59.2008 17.2685 61.2244 18.6971 63.4025C16.0946 63.8326 13.564 64.5871 10.9403 64.9951C10.636 65.0422 10.6869 65.5951 11.0162 65.551C13.8146 65.1718 16.5746 64.4643 19.3787 64.1359C19.9346 64.111 19.7838 63.606 19.7579 63.5302Z" fill="#191919"/>
<path d="M178.384 123.132C176.135 122.45 173.81 122.122 171.562 121.49C171.492 121.472 171.419 121.472 171.349 121.491C171.279 121.51 171.216 121.547 171.165 121.598C171.114 121.649 171.077 121.712 171.058 121.782C171.039 121.852 171.038 121.925 171.056 121.995C171.472 124.562 172.211 127.066 173.255 129.448C173.385 129.75 173.814 129.678 173.962 129.448C175.204 127.522 177.348 126.062 178.232 123.941C178.253 123.893 178.257 123.839 178.243 123.788C178.23 123.738 178.199 123.693 178.156 123.662C178.227 123.693 178.306 123.694 178.377 123.665C178.448 123.637 178.505 123.581 178.535 123.511C178.566 123.44 178.567 123.361 178.538 123.29C178.51 123.219 178.454 123.162 178.384 123.132ZM177.752 123.662C176.317 125.161 174.968 126.738 173.71 128.388C172.935 126.463 172.359 124.465 171.991 122.424C173.937 122.879 175.933 123.107 177.879 123.587C177.828 123.612 177.777 123.612 177.752 123.666V123.662Z" fill="#FFB500"/>
<path d="M181.743 64.7183C181.506 64.1172 181.055 63.6249 180.477 63.3357C179.899 63.0466 179.234 62.981 178.611 63.1516C177.987 63.3353 177.459 63.7544 177.138 64.3203C176.818 64.8862 176.729 65.5546 176.893 66.1842C176.916 66.2662 176.967 66.3373 177.038 66.3849C177.108 66.4326 177.194 66.4537 177.278 66.4447C177.363 66.4356 177.442 66.3969 177.501 66.3353C177.559 66.2738 177.595 66.1934 177.6 66.1084C177.563 65.7023 177.649 65.2945 177.847 64.9382C178.046 64.582 178.347 64.2939 178.712 64.1116C179.11 63.9661 179.547 63.9705 179.943 64.124C180.338 64.2775 180.664 64.5697 180.859 64.9458C181.023 65.329 181.049 65.7569 180.934 66.1573C180.819 66.5578 180.57 66.9063 180.228 67.1442C179.818 67.3805 179.334 67.4519 178.874 67.3438C178.414 67.2357 178.013 66.9563 177.752 66.5625C177.526 66.2332 176.989 66.5404 177.196 66.8917C177.508 67.4454 178.015 67.8631 178.619 68.0638C179.222 68.2644 179.878 68.2337 180.46 67.9775C181.039 67.6888 181.49 67.196 181.727 66.5942C181.964 65.9924 181.97 65.3241 181.743 64.7183Z" fill="#191919"/>
<path d="M66.6246 28.3594V36.672H76.2544C76.5486 38.7463 76.1012 40.8579 74.991 42.6346C71.919 47.1859 63.279 48.6423 59.2758 43.8979C57.9936 42.2247 57.2944 40.1777 57.2852 38.0697C57.2761 35.9617 57.9573 33.9087 59.2249 32.2243C60.1251 31.1046 61.2472 30.1832 62.5206 29.5181C63.7941 28.853 65.1913 28.4584 66.6246 28.3594Z" fill="#FFB500"/>
<path d="M139.47 27.8047V36.6482L144.7 29.549C145.004 29.7506 150.038 33.1116 149.78 38.093C149.483 43.804 142.375 48.7327 136.464 46.6082C128.448 43.7234 126.291 29.1928 139.47 27.8047Z" fill="#FFB500"/>
<path d="M45.7062 44.0228C45.1197 41.2128 41.5581 30.0836 40.527 27.3716C40.431 27.1172 39.663 27.0922 39.592 27.2756C38.5408 29.8368 35.6714 40.6714 35.0186 43.37C34.9949 43.4704 35.0106 43.576 35.0624 43.6653C35.1141 43.7545 35.1981 43.8206 35.297 43.85C35.3905 43.8724 35.4891 43.8589 35.5732 43.8122C35.6573 43.7654 35.7207 43.6888 35.751 43.5975C36.3431 41.6286 36.899 39.6491 37.4186 37.6599C39.2377 37.9159 41.0916 37.7339 42.8262 37.129C43.5155 39.5461 44.3336 41.9245 45.2771 44.2541C45.377 44.4778 45.759 44.2743 45.7062 44.0228ZM37.5702 37.0234C38.2422 34.32 39.2982 31.3421 39.9203 28.0791C40.649 30.6768 41.5859 33.3043 42.5987 36.3408C41.2346 37.0234 38.2019 36.9725 37.5702 37.0234Z" fill="#191919"/>
<path d="M114.736 33.1076C115.34 32.4751 115.675 31.6324 115.67 30.7575C115.67 27.3466 110.567 27.5741 108.419 28.2308C108.393 28.2308 108.141 28.4324 108.141 28.61C108.141 30.8833 108.231 39.7546 108.596 41.8244C108.645 42.1028 109.025 42.001 109.051 41.7735C109.176 39.601 109.051 34.6993 109.051 34.4458C109.922 34.6766 110.832 34.7194 111.72 34.5715C112.609 34.4235 113.456 34.0881 114.205 33.5876C116.352 34.2442 116.96 37.0234 116.428 38.9693C115.647 41.8244 112.204 41.9338 109.91 41.2177C109.43 41.0679 109.255 41.7677 109.707 41.9501C112.426 43.0503 116.513 42.2554 117.212 38.9943C117.6 37.201 116.933 33.6375 114.736 33.1076ZM109.051 33.9658C109.051 32.2983 109.051 30.6058 108.924 28.9383C110.844 28.5841 115.173 28.1559 114.837 31.0858C114.515 33.8909 111.249 34.1434 109.051 33.9658Z" fill="#191919"/>
<path d="M46.5913 47.741C44.8738 47.3877 37.3446 47.7036 35.3986 47.716C35.3116 47.716 35.228 47.7506 35.1665 47.8122C35.1049 47.8738 35.0703 47.9573 35.0703 48.0444C35.0703 48.1314 35.1049 48.2149 35.1665 48.2765C35.228 48.3381 35.3116 48.3727 35.3986 48.3727C37.3446 48.3602 44.9497 48.4236 46.5913 48.0444C46.6225 48.0331 46.6494 48.0125 46.6685 47.9853C46.6875 47.9582 46.6977 47.9258 46.6977 47.8927C46.6977 47.8595 46.6875 47.8272 46.6685 47.8C46.6494 47.7729 46.6225 47.7523 46.5913 47.741Z" fill="#191919"/>
<path d="M46.5897 51.83C44.8723 51.4767 37.343 51.7801 35.3971 51.8051C35.3206 51.8154 35.2506 51.8531 35.1998 51.9112C35.1491 51.9693 35.1211 52.0438 35.1211 52.1209C35.1211 52.198 35.1491 52.2725 35.1998 52.3306C35.2506 52.3887 35.3206 52.4264 35.3971 52.4367C37.5119 52.4348 48.0316 52.551 46.5897 51.83Z" fill="#191919"/>
<path d="M35.3736 55.9271C35.2972 55.9374 35.2271 55.9751 35.1764 56.0332C35.1256 56.0913 35.0977 56.1658 35.0977 56.2429C35.0977 56.32 35.1256 56.3945 35.1764 56.4526C35.2271 56.5107 35.2972 56.5484 35.3736 56.5587C37.0162 56.5463 43.332 56.5837 44.772 56.2554C44.792 56.2489 44.8104 56.2385 44.8263 56.2248C44.8423 56.2111 44.8553 56.1944 44.8648 56.1757C44.8742 56.157 44.8799 56.1366 44.8814 56.1156C44.883 56.0947 44.8804 56.0737 44.8738 56.0538C44.8738 55.5997 35.845 55.9127 35.3736 55.9271Z" fill="#191919"/>
<path d="M119.713 47.741C117.995 47.3877 110.466 47.7036 108.52 47.716C108.433 47.716 108.349 47.7506 108.288 47.8122C108.226 47.8738 108.191 47.9573 108.191 48.0444C108.191 48.1314 108.226 48.2149 108.288 48.2765C108.349 48.3381 108.433 48.3727 108.52 48.3727C111.381 48.3544 121.215 48.4917 119.713 47.741Z" fill="#191919"/>
<path d="M108.518 51.806C108.442 51.8163 108.372 51.854 108.321 51.9121C108.27 51.9702 108.242 52.0447 108.242 52.1218C108.242 52.1989 108.27 52.2734 108.321 52.3315C108.372 52.3896 108.442 52.4273 108.518 52.4376C110.464 52.4376 118.022 52.5135 119.712 52.1093C119.752 52.0955 119.785 52.0666 119.804 52.0287C119.822 51.9908 119.826 51.947 119.813 51.9068C119.348 51.4431 110.39 51.782 108.518 51.806Z" fill="#191919"/>
<path d="M117.918 55.952C116.478 55.6745 110.161 55.8761 108.518 55.927C108.442 55.9374 108.372 55.9751 108.321 56.0331C108.27 56.0912 108.242 56.1657 108.242 56.2429C108.242 56.32 108.27 56.3945 108.321 56.4526C108.372 56.5106 108.442 56.5483 108.518 56.5587C110.161 56.5462 116.478 56.5837 117.918 56.2553C117.949 56.2445 117.977 56.2241 117.996 56.1969C118.015 56.1697 118.026 56.1371 118.026 56.1036C118.026 56.0702 118.015 56.0376 117.996 56.0104C117.977 55.9832 117.949 55.9628 117.918 55.952Z" fill="#191919"/>
<path d="M22.8176 149.386C24.0157 153.675 15.1616 152.458 11.3936 152.468C10.8378 152.468 11.2467 152.046 11.6461 151.761C12.6445 151.047 17.2294 149.385 19.3261 148.451C19.7802 148.248 19.3789 147.598 18.9469 147.794C17.5664 148.42 11.7978 150.499 10.761 151.483C8.89279 153.255 12.681 153.383 13.5901 153.378C15.9651 153.365 18.5667 153.65 20.9178 153.201C23.0643 152.792 24.177 151.382 23.5203 149.209C23.5137 149.158 23.4963 149.109 23.4694 149.065C23.4424 149.021 23.4064 148.984 23.3639 148.955C23.3213 148.926 23.273 148.906 23.2223 148.897C23.1716 148.888 23.1196 148.89 23.0696 148.902C23.0196 148.915 22.9729 148.938 22.9325 148.97C22.8921 149.002 22.8588 149.042 22.835 149.087C22.8112 149.133 22.7974 149.183 22.7944 149.235C22.7914 149.286 22.7993 149.338 22.8176 149.386Z" fill="black"/>
<path d="M56.4215 104.362C55.9141 99.3265 55.7115 94.2651 55.8147 89.2054C55.8205 88.877 55.3607 88.903 55.3347 89.2054C54.8254 94.2831 55.0638 99.4081 56.0422 104.417C56.0524 104.464 56.0803 104.506 56.1203 104.534C56.1602 104.562 56.2092 104.573 56.2574 104.566C56.3056 104.559 56.3494 104.534 56.3798 104.497C56.4103 104.459 56.4251 104.41 56.4215 104.362Z" fill="black"/>
<path d="M58.038 71.4129C57.8863 71.7912 57.6588 72.4229 57.8614 72.8021C57.9673 72.9694 58.1185 73.1033 58.2974 73.1882C58.4763 73.2732 58.6756 73.3057 58.8722 73.2821C58.9054 73.2821 58.9382 73.2755 58.9689 73.2628C58.9995 73.2502 59.0273 73.2316 59.0508 73.2081C59.0742 73.1847 59.0928 73.1568 59.1055 73.1262C59.1182 73.0956 59.1247 73.0627 59.1247 73.0296C59.1247 72.9964 59.1182 72.9636 59.1055 72.933C59.0928 72.9023 59.0742 72.8745 59.0508 72.8511C59.0273 72.8276 58.9995 72.809 58.9689 72.7963C58.9382 72.7836 58.9054 72.7771 58.8722 72.7771C58.6188 72.7771 57.9871 72.6504 58.4172 71.5137C58.493 71.2613 58.1138 71.1854 58.038 71.4129Z" fill="#191919"/>
<path d="M136.417 74.5197C136.404 75.1015 136.267 76.0778 135.457 75.9348C135.155 75.881 134.924 76.3188 135.231 76.4657C135.448 76.5603 135.69 76.5794 135.92 76.5196C136.149 76.4599 136.351 76.3249 136.494 76.1364C136.821 75.6652 136.948 75.0841 136.848 74.5197C136.848 74.4627 136.825 74.408 136.785 74.3677C136.744 74.3273 136.69 74.3047 136.633 74.3047C136.576 74.3047 136.521 74.3273 136.48 74.3677C136.44 74.408 136.417 74.4627 136.417 74.5197Z" fill="#191919"/>
<path d="M134.977 78.1083C134.534 78.3034 134.037 78.3423 133.569 78.2184C133.101 78.0946 132.689 77.8154 132.4 77.4267C132.199 77.2222 131.815 77.4267 131.92 77.7041C132.066 77.9905 132.275 78.2406 132.53 78.4366C132.785 78.6325 133.08 78.7693 133.394 78.837C133.709 78.9047 134.034 78.9017 134.347 78.8281C134.66 78.7546 134.953 78.6123 135.204 78.4117C135.376 78.2821 135.15 78.0296 134.977 78.1083Z" fill="#191919"/>
<path d="M157.44 111.029L161.129 94.8047L142.604 96.4981C141.366 101.905 140.305 107.211 139.066 112.617L157.44 111.029Z" fill="#191919"/>
<path d="M139.016 114.643C145.256 114.239 151.194 113.86 157.435 113.455V111.434L139.091 113.127L139.016 114.643Z" fill="#191919"/>
<path d="M138.74 113.127C135.632 112.596 131.26 112.015 128.18 111.484C128.23 111.914 128.276 112.319 128.33 112.748L128.457 112.849C131.211 113.43 135.785 114.214 138.564 114.618L138.74 113.127Z" fill="#191919"/>
<path d="M137.653 72.7525C137.517 73.1417 137.457 73.5532 137.476 73.9649C137.487 74.0068 137.506 74.046 137.533 74.0803C137.559 74.1146 137.592 74.1432 137.63 74.1644C137.668 74.1856 137.709 74.1991 137.752 74.2039C137.795 74.2087 137.839 74.2048 137.88 74.1925C138.249 74.0782 138.238 73.2036 138.284 72.8484C138.337 72.474 137.727 72.3982 137.653 72.7525Z" fill="#191919"/>
<path d="M134.417 72.1949C134.26 72.5273 134.174 72.8885 134.164 73.2557C134.187 73.3135 134.224 73.3643 134.272 73.4034C134.32 73.4424 134.378 73.4683 134.439 73.4784C134.5 73.4886 134.563 73.4827 134.621 73.4613C134.679 73.44 134.731 73.4038 134.771 73.3565C134.947 73.029 135.051 72.6671 135.074 72.2957C135.15 71.9415 134.514 71.8647 134.417 72.1949Z" fill="#191919"/>
<path d="M59.9821 69.5703C59.9315 69.8965 59.9062 70.2261 59.9063 70.5562C59.9187 70.6031 59.9405 70.6469 59.9703 70.6852C60.0001 70.7234 60.0373 70.7553 60.0797 70.7789C60.1221 70.8024 60.1687 70.8172 60.217 70.8223C60.2652 70.8275 60.3139 70.8228 60.3603 70.8087L60.512 70.7328C60.6353 70.5574 60.7077 70.3513 60.7211 70.1373C60.7345 69.9233 60.6883 69.7098 60.5878 69.5204C60.5648 69.4838 60.5347 69.4521 60.4994 69.4272C60.4641 69.4023 60.4241 69.3846 60.382 69.3751C60.3398 69.3657 60.2961 69.3647 60.2535 69.3721C60.2109 69.3796 60.1702 69.3954 60.1338 69.4186C60.0579 69.4186 60.007 69.4944 59.9821 69.5703Z" fill="#191919"/>
<path d="M57.2042 69.1637C57.1188 69.46 57.1099 69.7731 57.1783 70.0738C57.2076 70.1288 57.2513 70.1748 57.3047 70.2069C57.3582 70.239 57.4193 70.2559 57.4816 70.2559C57.544 70.2559 57.6051 70.239 57.6586 70.2069C57.712 70.1748 57.7557 70.1288 57.785 70.0738C57.8409 69.7424 57.8078 69.4022 57.689 69.0878C57.5824 68.8862 57.2762 68.9602 57.2042 69.1637Z" fill="#191919"/>
<path d="M58.1119 67.8255C57.9298 67.7263 57.7256 67.6743 57.5182 67.6743C57.3107 67.6743 57.1066 67.7263 56.9244 67.8255C56.9244 67.6738 56.8995 67.5481 56.8995 67.3964C56.8735 67.1439 56.4886 67.1439 56.4953 67.3964C56.5203 68.4841 56.5443 69.5708 56.4694 70.6556C56.4502 70.934 56.8735 70.934 56.9244 70.6556C56.9917 69.9248 57.0087 69.1903 56.9753 68.4572C57.309 68.4028 57.6478 68.386 57.9852 68.4073C58.0269 68.4061 58.0679 68.3965 58.1059 68.3792C58.1439 68.3619 58.178 68.3372 58.2062 68.3065C58.2345 68.2758 58.2563 68.2398 58.2705 68.2006C58.2846 68.1613 58.2908 68.1196 58.2886 68.078C58.2578 67.9773 58.196 67.8889 58.1119 67.8255Z" fill="#191919"/>
<path d="M60.3356 68.5841C60.7536 68.6937 61.1309 68.9217 61.4224 69.2407C61.599 69.3674 61.9782 69.2666 61.9024 68.9633C61.7749 68.6933 61.5801 68.4608 61.3366 68.2881C61.0931 68.1154 60.8092 68.0083 60.5123 67.9773C60.1081 67.9524 59.9555 68.5409 60.3356 68.5841Z" fill="#191919"/>
<path d="M69.1793 64.9695C69.009 64.2715 68.6577 63.6307 68.1608 63.1118C67.664 62.5929 67.0391 62.2141 66.3492 62.0136C65.6925 61.862 63.3684 62.3669 61.4724 61.1036C61.0273 60.5984 60.4789 60.1949 59.8642 59.9203C59.2495 59.6457 58.583 59.5064 57.9098 59.5119C54.7514 59.6492 53.4842 62.6799 55.0049 65.197C56.4449 67.574 60.5268 68.1567 63.1409 65.677C64.4292 66.4354 64.7325 68.9621 64.7825 69.3154C66.7658 69.6908 66.0439 73.1756 64.0749 72.1704C63.4692 73.4588 59.6791 75.5055 56.6474 72.9039C55.914 72.2722 55.7124 73.7621 55.6106 74.3439C55.3814 75.5158 55.4928 76.7289 55.9318 77.8394C56.3708 78.9499 57.1189 79.9113 58.0874 80.6098C59.0029 81.1481 60.0442 81.4353 61.1062 81.4425C62.1682 81.4496 63.2133 81.1765 64.1359 80.6507C65.0586 80.1248 65.8262 79.3648 66.3613 78.4475C66.8964 77.5301 67.18 76.4878 67.1834 75.4258C67.0553 73.56 67.2604 71.6862 67.7892 69.8924C68.5437 67.4204 69.5585 66.5871 69.1793 64.9695ZM61.2477 76.0364C60.9597 77.3199 58.6231 77.3141 58.8218 76.5164C58.8308 76.4628 58.8504 76.4116 58.8797 76.3658C58.9089 76.32 58.9471 76.2806 58.9919 76.2499C59.0367 76.2193 59.0873 76.198 59.1405 76.1874C59.1938 76.1767 59.2487 76.177 59.3018 76.188C59.8327 76.2888 60.1361 75.9106 60.5143 75.6072C60.5847 75.5443 60.6733 75.5053 60.7672 75.4958C60.8612 75.4864 60.9558 75.507 61.0373 75.5547C61.1188 75.6024 61.1831 75.6747 61.2209 75.7613C61.2587 75.8478 61.2681 75.9441 61.2477 76.0364Z" fill="#191919"/>
<path d="M71.4517 91.0168C71.2981 90.6895 70.6933 90.9208 70.845 91.2703C75.284 101.608 64.125 105.419 63.0124 106.253C62.9275 106.305 62.8647 106.386 62.8357 106.481C59.4661 106.769 58.2853 105.477 57.0498 106.329C56.7954 106.504 56.9461 106.981 57.2764 106.86C58.7471 106.319 59.8463 107.647 63.1132 107.087C63.4679 107.464 63.7302 107.918 63.8793 108.413C64.0285 108.909 64.0603 109.432 63.9724 109.942C61.779 109.942 59.5925 110.187 57.4539 110.675C57.3864 110.695 57.3282 110.738 57.2898 110.798C57.2514 110.857 57.2354 110.928 57.2445 110.997C57.2536 111.067 57.2874 111.132 57.3396 111.179C57.3919 111.226 57.4593 111.253 57.5298 111.256C59.6963 111.248 61.8559 111.011 63.9724 110.548C64.0103 110.583 64.0564 110.608 64.1063 110.62C64.1563 110.633 64.2086 110.633 64.2586 110.621C64.3086 110.608 64.3548 110.584 64.393 110.549C64.4311 110.514 64.4601 110.471 64.4773 110.422C64.7127 109.807 64.7783 109.14 64.6671 108.491C64.556 107.842 64.2722 107.235 63.8456 106.733C75.7717 101.351 72.8994 94.108 71.4517 91.0168Z" fill="#191919"/>
<path d="M23.0407 148.474C27.1591 142.889 31.8084 137.204 35.6484 131.418L31.8334 121.867C26.8308 129.296 23.2894 139.327 19.4023 147.387C19.5444 147.672 21.3127 149.369 23.0407 148.474Z" fill="#191919"/>
<path d="M47.653 149.362C48.9499 154.432 37.4501 155.116 36.9144 154.693C36.589 154.436 36.9903 154.238 37.2427 153.985C37.7986 153.429 42.2261 150.988 44.0395 149.867C44.4456 149.616 44.0655 148.958 43.6555 149.21C41.3064 150.677 38.3266 151.688 36.4047 153.733C34.764 155.478 37.7429 155.545 38.8296 155.425C42.4911 155.023 49.6949 154.541 48.4056 149.159C48.3696 149.07 48.3024 148.998 48.2165 148.955C48.1307 148.912 48.0322 148.903 47.9397 148.928C47.8471 148.952 47.7669 149.01 47.7141 149.09C47.6613 149.17 47.6395 149.267 47.653 149.362Z" fill="#191919"/>
<path d="M78.2993 86.7754C76.2725 84.0458 73.3124 82.1572 69.9828 81.4695C69.9061 81.4562 69.8272 81.4722 69.7618 81.5143C69.6963 81.5565 69.6491 81.6217 69.6295 81.697V81.7729C69.2503 81.7729 67.3303 80.1303 67.2295 77.6794C67.2233 77.6236 67.1966 77.5721 67.1547 77.5347C67.1129 77.4972 67.0587 77.4766 67.0025 77.4766C66.9464 77.4766 66.8922 77.4972 66.8503 77.5347C66.8084 77.5721 66.7818 77.6236 66.7755 77.6794C66.7534 78.435 66.9 79.186 67.2046 79.8778C65.9655 80.9683 64.6665 81.9888 63.3137 82.9345C63.242 82.9767 63.189 83.0447 63.1655 83.1245C63.142 83.2044 63.1497 83.2902 63.187 83.3646C63.0877 83.9177 62.9611 84.4655 62.8078 85.0062C62.682 84.8295 62.0254 83.8945 61.7979 83.5921C61.7988 83.5399 61.7851 83.4885 61.7583 83.4437C61.7315 83.3989 61.6926 83.3625 61.6462 83.3386C60.8785 82.8711 60.0658 82.4819 59.2203 82.177C59.1809 82.1522 59.1369 82.1358 59.0909 82.1287C59.0449 82.1216 58.998 82.124 58.953 82.1358C58.908 82.1476 58.8659 82.1685 58.8293 82.1972C58.7927 82.226 58.7624 82.2619 58.7403 82.3028C58.5963 82.5574 58.436 82.8024 58.2603 83.0362C52.1959 85.1079 48.9617 91.5802 48.6843 93.9255C48.6828 94.0037 48.7076 94.0801 48.7546 94.1426C48.8016 94.2051 48.8681 94.25 48.9436 94.2703C49.0191 94.2907 49.0992 94.2851 49.1712 94.2547C49.2432 94.2242 49.3029 94.1705 49.3409 94.1021C49.8209 93.0922 51.8427 86.8762 57.8302 83.8945C57.7553 84.0212 57.426 84.5012 57.5527 84.6778C58.3384 85.3597 59.1652 85.9925 60.0286 86.5729C60.136 86.6065 60.2501 86.6126 60.3605 86.5906C60.4708 86.5686 60.5739 86.5193 60.6603 86.4471C61.0103 85.7725 61.3059 85.0711 61.5444 84.3495C61.8703 84.9333 62.2529 85.4835 62.6868 85.9921C62.7236 86.0348 62.7714 86.0665 62.8251 86.0838C62.8787 86.1011 62.936 86.1034 62.9908 86.0903C63.0457 86.0772 63.0958 86.0493 63.1358 86.0096C63.1758 85.97 63.2042 85.92 63.2177 85.8653C63.4212 85.2516 63.5483 84.6151 63.596 83.9703C64.051 84.6529 64.8891 86.7543 65.3652 86.4471C67.074 85.3335 69.7611 81.9994 69.787 82.0253C72.9232 82.8867 75.6969 84.7388 77.6945 87.3053C79.8142 90.1853 80.3288 94.3805 79.7672 97.8653C78.667 104.689 72.6632 109.21 66.0728 110.196C66.0256 110.204 65.9806 110.222 65.9406 110.249C65.9007 110.275 65.8666 110.31 65.8405 110.35C65.8144 110.39 65.7969 110.435 65.7889 110.482C65.781 110.53 65.7828 110.578 65.7944 110.625C65.7944 110.651 65.8193 110.701 65.8193 110.726C65.5668 110.776 58.796 111.787 55.9908 112.419C55.8948 111.884 52.507 96.122 51.9991 96.122C49.0174 95.5911 36.5374 94.394 33.403 94.4545C33.3771 94.4545 33.1246 94.5802 33.1246 94.707C33.2254 95.9194 36.738 110.827 36.7879 111.004L36.7131 112.924L34.5147 113C32.8971 113.303 31.9918 115.022 31.7854 116.638C31.4148 119.545 43.964 149.106 44.5707 149.636C45.1774 150.166 47.0974 149.763 47.7291 148.803C48.3608 147.843 46.2382 132.91 43.7364 124.749L42.7006 121.869C52.5675 125.57 62.8068 123.437 67.8161 119.418C70.0875 117.594 72.642 111.586 73.147 108.554C75.1007 107.358 76.7735 105.755 78.0511 103.854C79.3288 101.953 80.1813 99.7986 80.5505 97.538C81.0775 93.9428 80.5697 89.785 78.2993 86.7754ZM60.234 85.9402C59.4696 85.6116 58.775 85.1402 58.1873 84.5511C58.5406 84.0202 58.8699 83.4644 59.1982 82.9335C59.8182 83.2774 60.4595 83.5814 61.1182 83.8436C60.7868 84.5265 60.4917 85.2263 60.234 85.9402ZM65.3124 85.8394C64.938 84.9642 64.4812 84.1265 63.9483 83.3377C65.3075 82.6116 66.5231 81.6441 67.5358 80.4826C67.9551 81.111 68.466 81.673 69.0516 82.1502C67.9545 83.524 66.6995 84.7638 65.3124 85.8442V85.8394ZM37.5195 112.623C37.5198 112.185 37.4945 111.746 37.4436 111.31C39.6161 111.765 52.2747 112.927 55.3073 112.978C55.3832 113.255 55.4839 113.558 55.5598 113.842C52.6788 113.432 37.5195 112.622 37.5195 112.622V112.623ZM33.8811 95.1399V95.114C36.6651 95.6698 48.6651 96.7057 51.7448 96.7565C51.7448 96.7815 54.7764 110.88 55.1297 112.27C52.3505 111.841 40.2497 110.603 37.4177 110.678C37.3928 110.577 34.2343 96.1239 33.8811 95.139V95.1399ZM65.7924 112.346L56.3172 114.14C56.2673 113.71 56.1915 113.281 56.1156 112.851C56.3432 112.826 62.8865 111.891 65.8433 111.411C65.8433 111.486 65.7924 112.32 65.7924 112.345V112.346Z" fill="#191919"/>
<path d="M138.51 89.0759C140.355 91.8091 141.102 93.1319 139.647 96.0743C138.742 97.6496 138.462 99.5077 138.864 101.279C138.888 101.356 138.939 101.422 139.007 101.464C139.075 101.507 139.157 101.523 139.236 101.511C139.315 101.499 139.388 101.459 139.44 101.398C139.492 101.337 139.521 101.259 139.521 101.179C139.355 99.8286 139.52 98.4584 140.001 97.186C140.571 96.2018 140.989 95.1369 141.239 94.0276C141.465 91.9559 140.136 90.251 138.935 88.7476C138.761 88.522 138.358 88.8215 138.51 89.0759Z" fill="#191919"/>
<path d="M141.874 85.2865C142.766 84.9717 143.506 84.3306 143.945 83.4922C145.408 80.2282 138.586 76.4228 141.468 67.322C142.352 66.8367 143.116 66.161 143.707 65.3437C144.297 64.5265 144.698 63.5882 144.88 62.5969C144.934 62.2186 145.303 59.8013 144.122 58.8327C142.596 57.5847 138.917 62.1985 131.716 61.4093C128.052 61.0081 124.086 64.2394 124.086 72.4762C124.183 75.8701 123.325 79.2231 121.609 82.153C113.421 87.2497 112.441 99.337 116.986 107.546C117.011 107.59 117.045 107.629 117.086 107.659C117.127 107.69 117.174 107.712 117.224 107.724C117.273 107.736 117.325 107.737 117.375 107.728C117.426 107.72 117.474 107.701 117.516 107.673C117.946 107.42 118.376 107.193 118.78 106.94C120.905 109.151 123.722 110.568 126.764 110.957C127.042 110.985 127.068 110.55 126.84 110.477C124.112 109.705 121.568 108.39 119.361 106.611C121.205 105.55 122.999 104.438 124.818 103.302C126.728 104.926 128.864 106.262 131.16 107.269C130.798 108.288 130.781 109.397 131.11 110.427C131.195 110.599 131.463 110.523 131.463 110.401C133.379 110.928 135.364 111.158 137.35 111.084C137.424 111.083 137.494 111.053 137.546 111.001C137.598 110.949 137.628 110.879 137.628 110.805C137.628 110.214 136.86 110.858 131.463 109.947C131.416 109.2 131.484 108.45 131.666 107.724C132.736 108.09 133.835 108.369 134.95 108.557C134.798 108.86 135.2 109.212 135.43 108.936C136.07 108.007 136.771 107.12 137.528 106.283C137.719 106.23 137.921 106.226 138.115 106.27C138.309 106.314 138.489 106.406 138.639 106.536C138.841 106.687 139.018 106.384 138.892 106.207C138.488 105.702 137.627 105.27 137.048 105.702C136.405 106.401 135.822 107.153 135.304 107.95C134.129 107.769 132.965 107.525 131.817 107.218C131.841 107.18 131.858 107.138 131.865 107.094C131.872 107.05 131.869 107.005 131.857 106.962C131.845 106.918 131.824 106.878 131.796 106.844C131.767 106.81 131.731 106.782 131.691 106.763C129.429 105.745 127.299 104.455 125.349 102.923C125.495 102.821 125.646 102.728 125.803 102.644C125.893 102.587 125.957 102.497 125.981 102.392C126.005 102.288 125.987 102.179 125.93 102.088C125.012 101.204 124.368 100.073 124.077 98.8314C123.785 97.59 123.858 96.2908 124.287 95.09C124.42 94.6618 123.807 94.5341 123.631 94.9133C123.135 96.1375 123.001 97.4778 123.242 98.776C123.484 100.074 124.092 101.276 124.995 102.24C122.518 103.81 120.007 105.326 117.466 106.789C113.914 99.889 114.039 90.7729 119.31 84.8045C122.574 81.1153 128.886 80.5345 128.886 80.5345C129.089 78.9934 129.139 77.4362 129.037 75.8852C128.697 75.5009 128.492 75.0161 128.452 74.5043C128.413 73.9926 128.542 73.4821 128.819 73.0503C129.097 72.6185 129.507 72.2891 129.989 72.1122C130.471 71.9352 130.997 71.9205 131.488 72.0701C131.725 71.0935 132.217 70.1974 132.914 69.4736C133.611 68.7499 134.488 68.2246 135.455 67.9517C136.616 68.4623 137.912 68.5776 139.144 68.2801C138.993 69.5185 138.133 76.2394 138.058 76.7693C137.35 79.5994 135.23 82.4506 132.044 80.5345C131.666 80.3069 131.34 80.8829 131.691 81.1412C132.209 81.518 132.804 81.7746 133.433 81.8925C134.062 82.0104 134.71 81.9866 135.329 81.8228C135.557 81.9236 135.809 82.0503 136.037 82.177C135.891 82.99 135.465 83.7261 134.832 84.257C134.2 84.7879 133.401 85.0798 132.575 85.082C131.692 85.043 130.832 84.7848 130.073 84.3306C129.314 83.8765 128.681 83.2406 128.229 82.4804C128.188 82.4211 128.126 82.38 128.055 82.3659C127.984 82.3517 127.911 82.3656 127.85 82.4045C127.8 82.4412 127.763 82.4929 127.745 82.552C127.727 82.6112 127.728 82.6746 127.749 82.7329C128.222 83.7529 129.003 84.5989 129.982 85.1518C130.961 85.7048 132.089 85.9369 133.207 85.8154C134.068 85.7058 134.874 85.3336 135.516 84.7496C136.157 84.1656 136.604 83.3981 136.794 82.5514C141.343 85.4833 145.683 90.6154 146.421 94.705C146.471 94.9834 146.901 94.8567 146.85 94.5783C146.183 91.0442 144.446 87.8004 141.874 85.2865Z" fill="#191919"/>
<path d="M163.881 148.12C163.375 147.692 159.434 145.037 157.336 144.734C157.72 143.87 166.68 122.722 165.118 116.158C164.446 113.326 162.617 110.599 159.509 110.574C159.44 110.581 159.376 110.614 159.33 110.665C159.284 110.716 159.258 110.783 159.258 110.852C159.258 110.921 159.284 110.988 159.33 111.039C159.376 111.091 159.44 111.123 159.509 111.13C163.552 111.458 164.591 116.007 164.335 119.316C163.788 126.391 156.604 144.18 156.25 144.936C154.936 145.467 152.207 146.831 152.157 146.881C152.157 146.881 161.949 125.557 161.986 120.2C162.004 117.749 162.063 115.154 159.56 114.086C159.279 113.966 159.08 114.439 159.358 114.591C162.693 116.158 160.798 120.908 160.368 123.637C159.763 127.477 151.222 146.553 150.864 147.261C149.566 147.75 148.329 148.385 147.176 149.156C148.388 140.211 149.551 131.267 151.112 122.372C151.125 122.325 151.128 122.276 151.121 122.228C151.114 122.18 151.097 122.135 151.07 122.094C151.044 122.053 151.009 122.019 150.969 121.992C150.928 121.966 150.882 121.949 150.834 121.942C150.464 121.756 145.306 123.603 137.49 122.245C132.154 121.318 124.639 118.078 124.226 111.734C124.199 111.33 123.571 111.305 123.594 111.734C124.032 120.112 136.872 125.471 150.327 122.751C149.492 127.551 146.991 145.311 146.713 149.381C146.714 149.436 146.732 149.489 146.764 149.533C146.619 149.641 146.502 149.783 146.423 149.945C146.344 150.108 146.305 150.287 146.309 150.468C146.463 151.402 148.709 151.804 152.6 152.464C155.127 152.892 159.313 153.624 159.573 152.818C159.696 152.434 155.733 149.66 155.349 149.356C155.628 149.381 159.796 149.687 161.615 149.609C162.213 149.586 165.344 149.36 163.881 148.12Z" fill="#191919"/>
<path d="M147.05 125.258C147.397 124.848 146.794 124.244 146.444 124.651C139.016 133.291 132.568 133.146 132.194 133.519C132.118 132.257 132.068 131.069 132.017 130.063C131.249 129.561 130.321 129.362 129.414 129.508C129.171 129.555 128.94 129.653 128.736 129.794C128.531 129.935 128.359 130.117 128.228 130.328C128.098 130.539 128.012 130.775 127.977 131.021C127.943 131.266 127.959 131.517 128.025 131.756C128.278 132.338 128.505 133.019 128.758 133.778C112.451 133.778 99.4114 113.84 104.123 98.4295C105.768 93.0487 109.61 89.4448 114.482 86.9584C114.885 86.753 114.607 86.0704 114.179 86.226C100.792 91.074 97.7718 111.063 110.262 125.338C108.47 129.434 106.744 133.57 105.083 137.744C106.043 138.023 110.818 131.731 113.446 128.522C113.825 128.851 117.968 133.903 128.657 134.713C128.726 134.718 128.796 134.704 128.858 134.673C128.92 134.642 128.973 134.594 129.01 134.535C130.4 138.983 131.738 144.819 132.274 144.769C132.81 144.719 132.527 139.133 132.274 134.283C132.329 134.32 132.391 134.345 132.456 134.358C132.521 134.371 132.588 134.371 132.653 134.358C135.757 133.778 138.698 132.528 141.269 130.695C141.547 132.488 145.364 137.88 145.868 137.82C146.425 137.754 144.959 131.225 144.175 128.316C145.201 127.363 146.162 126.341 147.05 125.258Z" fill="#191919"/>
<path d="M91.5165 97.0861C90.5719 94.5119 89.109 92.1589 87.2185 90.1728C85.328 88.1867 83.05 86.6096 80.5255 85.5392C80.0944 85.3674 79.816 86.048 80.2221 86.2717C84.521 88.6371 88.552 91.4557 90.1773 96.2019C94.9034 110.006 87.0611 123.486 80.753 128.543C76.8557 131.767 71.9855 133.583 66.929 133.698C67.0807 133.066 67.194 132.462 67.313 131.928C67.4484 131.3 64.7479 130.27 63.2954 131.499C63.1946 136.299 62.2394 145.72 63.018 145.926C63.6756 146.1 65.6205 139.484 66.7821 134.531C72.4904 134.54 77.9995 132.433 82.2458 128.618C85.4541 131.882 90.1543 138.347 90.5834 138.068C91.0125 137.79 87.3751 129.044 85.7834 124.981C92.0983 117.274 94.9197 106.261 91.5165 97.0861Z" fill="#191919"/>
<path d="M62.8626 133.364C57.0066 132.276 52.7058 128.867 48.6373 124.748C48.3867 124.494 48.0613 124.873 48.2533 125.132C49.0918 126.187 50.0038 127.182 50.9826 128.108C50.3 131.773 49.1586 138.038 49.6683 138.063C50.1781 138.088 52.4226 133.036 53.7867 130.383C56.432 132.249 59.4343 133.548 62.6053 134.198C63.1679 134.276 63.3935 133.465 62.8626 133.364Z" fill="#191919"/>
<path d="M20.2138 140.543C7.23168 143.902 4.77695 150.322 4.80095 152.192C4.96223 164.757 56.2234 170.229 68.7005 171.217C92.6085 172.974 116.639 172.016 140.331 168.362C151.171 166.749 176.427 163.427 185.963 152.773C187.932 150.572 187.299 147.973 185.811 145.369C182.824 140.142 170.654 135.887 162.338 135.415C161.833 135.386 161.705 136.204 162.212 136.299C184.98 140.58 186.602 148.811 184.952 151.382C174.137 168.243 101.825 171.712 78.9331 170.762C67.8662 170.303 41.1312 168.5 14.9587 160.202C11.2147 159.015 -4.90081 150.878 20.3904 141.176C20.4743 141.152 20.5454 141.097 20.5882 141.021C20.631 140.945 20.6418 140.855 20.6184 140.771C20.595 140.687 20.5392 140.616 20.4633 140.573C20.3874 140.531 20.2977 140.52 20.2138 140.543Z" fill="#FFB500"/>
<path d="M91.4649 132.788C95.9875 132.183 100.681 132.704 105.159 131.828C105.563 131.749 105.489 131.054 105.058 131.096C100.519 131.527 95.8896 131.501 91.3632 132.131C90.9849 132.181 91.0857 132.836 91.4649 132.788Z" fill="#FFB500"/>
</svg>
