<svg width="192" height="193" viewBox="0 0 192 193" fill="none" xmlns="http://www.w3.org/2000/svg">
<path fill-rule="evenodd" clip-rule="evenodd" d="M77.6085 145.353C77.7611 145.216 77.8851 145.049 77.9734 144.864C78.0617 144.679 78.1124 144.478 78.1227 144.272C78.1331 144.067 78.1029 143.862 78.0337 143.669C77.9645 143.475 77.8579 143.297 77.7198 143.145C73.7339 138.768 70.0033 134.185 66.052 129.777C65.7778 129.472 65.4089 129.268 65.0045 129.199C64.6003 129.128 64.1842 129.198 63.8238 129.393C45.7758 139.225 27.8546 149.434 9.19979 158.182C8.98015 158.285 8.7873 158.437 8.63621 158.627C8.48511 158.817 8.37985 159.04 8.32858 159.277C8.27732 159.514 8.28145 159.76 8.34064 159.995C8.39983 160.232 8.51249 160.449 8.66987 160.635L27.82 183.025C28.0904 183.341 28.458 183.559 28.8654 183.645C29.2729 183.73 29.6972 183.679 30.0722 183.498C36.5042 180.411 42.0664 175.459 47.5125 171.108C57.8901 162.81 67.7598 154.194 77.6085 145.353Z" fill="#191919"/>
<path fill-rule="evenodd" clip-rule="evenodd" d="M80.1226 109.097C80.0056 108.937 79.8298 108.829 79.6337 108.797C79.4376 108.767 79.2371 108.815 79.0762 108.931C78.1744 109.773 77.2225 110.56 76.226 111.288C75.7287 109.944 73.7405 107.64 71.7379 107.606C70.2432 107.579 68.6659 108.697 67.5399 111.529C66.7411 113.348 66.3418 115.317 66.3687 117.303C66.3226 118.058 66.0212 124.709 66.0096 125.463C65.9981 126.135 66.0461 126.807 66.0202 127.465C66.0075 127.667 66.0753 127.865 66.2088 128.017C66.3423 128.168 66.5305 128.26 66.732 128.273C66.9335 128.286 67.1319 128.218 67.2834 128.085C67.4348 127.951 67.5272 127.763 67.5399 127.561C67.5936 126.925 67.681 126.285 67.7069 125.634C67.7923 123.275 67.4947 121.873 67.8087 118.056C67.8864 117.027 68.0581 116.01 68.3213 115.013C68.4843 114.014 68.7088 113.026 68.9933 112.056C69.6951 109.925 70.6349 108.858 71.736 108.835C73.2259 108.805 74.2656 110.61 74.976 112.195C74.0437 112.831 73.1532 113.527 72.3101 114.278C72.1592 114.406 72.0638 114.587 72.044 114.783C72.0242 114.98 72.0815 115.177 72.2039 115.332C72.3264 115.487 72.5043 115.588 72.7002 115.615C72.896 115.641 73.0945 115.591 73.2538 115.474C74.5306 114.718 78.3543 111.34 79.9536 110.137C80.1127 110.02 80.2196 109.847 80.2511 109.652C80.2827 109.457 80.2366 109.257 80.1226 109.097Z" fill="#191919"/>
<path fill-rule="evenodd" clip-rule="evenodd" d="M77.1568 109.336C78.1763 108.339 79.3416 107.503 80.6128 106.855C81.0192 106.675 81.4407 106.531 81.8724 106.425C83.489 105.998 84.3616 107.356 84.666 108.999C84.9574 110.852 84.8778 112.745 84.4317 114.567C84.4217 114.665 84.4312 114.764 84.4597 114.859C84.4881 114.953 84.5348 115.041 84.5972 115.117C84.6596 115.194 84.7365 115.257 84.8234 115.303C84.9103 115.351 85.0056 115.379 85.1037 115.389C85.2014 115.399 85.3002 115.392 85.3945 115.364C85.4889 115.336 85.5768 115.29 85.6531 115.229C85.7296 115.167 85.7928 115.09 85.8395 115.004C85.886 114.918 85.9149 114.823 85.9245 114.725C86.2192 110.998 86.1818 109.144 85.9034 107.774C84.8561 102.624 78.8829 105.586 77.178 107.069C76.7681 107.449 76.3896 107.862 76.0461 108.303C75.9165 108.452 75.8499 108.646 75.8605 108.844C75.8709 109.04 75.9577 109.227 76.1024 109.361C76.2472 109.495 76.4385 109.568 76.636 109.565C76.8337 109.562 77.0222 109.481 77.1616 109.341L77.1568 109.336Z" fill="#191919"/>
<path fill-rule="evenodd" clip-rule="evenodd" d="M86.379 121.891C86.3386 121.98 86.3162 122.076 86.3129 122.174C86.3097 122.273 86.326 122.37 86.3605 122.462C86.3951 122.554 86.4474 122.638 86.5145 122.71C86.5816 122.781 86.6621 122.839 86.7515 122.88C86.8409 122.92 86.9374 122.942 87.0355 122.946C87.1335 122.949 87.2312 122.933 87.3231 122.898C87.4149 122.863 87.499 122.812 87.5706 122.744C87.6422 122.677 87.6999 122.597 87.7403 122.507C89.6046 118.513 90.6779 113.322 88.2318 109.868C88.1828 109.781 88.1169 109.704 88.0381 109.642C87.9594 109.581 87.8692 109.535 87.7728 109.508C87.6764 109.481 87.5756 109.474 87.4763 109.486C87.3771 109.498 87.2811 109.53 87.1941 109.58C85.5093 110.537 90.3995 112.956 86.379 121.891Z" fill="#191919"/>
<path fill-rule="evenodd" clip-rule="evenodd" d="M90.9019 116.307C90.8597 118.643 90.7752 123.072 89.4715 125.926C89.4275 126.015 89.4018 126.112 89.3959 126.212C89.3899 126.31 89.4038 126.409 89.4368 126.503C89.4698 126.597 89.5211 126.683 89.5879 126.757C89.6547 126.83 89.7354 126.889 89.8255 126.932C89.9155 126.974 90.0131 126.997 90.1123 127.001C90.2115 127.004 90.3105 126.988 90.4034 126.953C90.4962 126.917 90.5812 126.864 90.6531 126.795C90.725 126.727 90.7825 126.644 90.8222 126.554C92.2536 122.624 93.1675 120.265 92.4139 116.15C92.406 116.048 92.3777 115.95 92.3311 115.86C92.2845 115.77 92.2203 115.69 92.1423 115.625C92.0644 115.56 91.9741 115.511 91.8771 115.482C91.7801 115.453 91.6781 115.443 91.5773 115.453C91.4764 115.463 91.3786 115.494 91.2897 115.543C91.2009 115.592 91.1226 115.658 91.0596 115.738C90.9968 115.818 90.9504 115.909 90.9233 116.007C90.8962 116.104 90.889 116.206 90.9019 116.307Z" fill="#191919"/>
<path fill-rule="evenodd" clip-rule="evenodd" d="M94.3818 122.303C94.1572 122.921 93.8826 123.516 93.6618 124.132C93.154 125.55 92.7585 126.996 92.1258 128.356C91.2847 130.136 90.1263 131.749 88.7073 133.114C86.5402 135.548 84.0051 137.627 81.1943 139.276C80.2641 139.852 79.2743 140.35 78.3201 140.935C78.1531 141.043 78.0357 141.212 77.9936 141.406C77.9515 141.6 77.9881 141.802 78.0954 141.969C78.2028 142.136 78.372 142.253 78.5658 142.296C78.7598 142.338 78.9624 142.301 79.1294 142.194C80.1028 141.538 81.0302 140.84 81.9882 140.209C84.3356 138.777 86.5903 137.2 88.739 135.484C89.8454 134.598 90.7804 133.517 91.498 132.295C92.2468 131.256 92.8958 130.149 93.4362 128.987C94.4848 127.031 95.2868 124.951 95.8238 122.798C95.8568 122.704 95.8709 122.604 95.8651 122.504C95.8595 122.404 95.8341 122.306 95.7906 122.216C95.7471 122.127 95.6862 122.046 95.6115 121.98C95.5368 121.914 95.4497 121.863 95.3553 121.83C95.1636 121.765 94.9536 121.778 94.7712 121.866C94.5889 121.954 94.4489 122.112 94.3818 122.303Z" fill="#191919"/>
<path fill-rule="evenodd" clip-rule="evenodd" d="M103.031 78.6526C100.78 77.1435 96.4197 77.5266 91.6255 75.4923C85.4872 72.8936 82.8338 68.4287 80.1919 62.2847C79.7752 61.3189 79.3279 60.3061 78.9093 59.2126C78.8419 59.0217 78.7015 58.8653 78.5189 58.7779C78.3362 58.6905 78.1263 58.6793 77.9354 58.7466C77.7443 58.814 77.588 58.9543 77.5006 59.137C77.4131 59.3197 77.4019 59.5295 77.4693 59.7205C77.8389 60.8658 78.1999 61.9515 78.6213 62.9519C80.3848 67.2461 83.0724 71.0993 86.4933 74.2376C90.3333 77.516 93.1528 78.0959 98.0431 78.6978C99.532 78.7492 100.995 79.0958 102.349 79.7173C104.264 80.9317 105.068 82.1327 104.815 83.2184C104.364 85.149 101.296 85.4859 100.967 85.6798C100.541 84.6013 100.01 83.5673 99.3823 82.5925C99.2949 82.4105 99.1384 82.2706 98.9483 82.2037C98.7573 82.1369 98.548 82.1484 98.3656 82.2358C98.1842 82.3233 98.044 82.4795 97.9768 82.6701C97.9106 82.8606 97.9221 83.07 98.0095 83.252C99.076 86.5515 100.552 88.3678 101.753 90.955C101.837 91.1302 101.985 91.266 102.167 91.334C102.349 91.4019 102.549 91.3967 102.728 91.3195C102.905 91.2422 103.047 91.0989 103.12 90.9197C103.195 90.7405 103.197 90.5395 103.126 90.3589C102.407 89.3013 101.819 88.1613 101.371 86.9634C107.069 85.46 107.585 81.5758 103.031 78.6526Z" fill="#191919"/>
<path fill-rule="evenodd" clip-rule="evenodd" d="M103.155 88.3957C104.186 89.9628 104.809 91.7626 104.967 93.6316C105.032 95.3039 103.517 95.8588 101.845 95.7964C99.9763 95.6744 98.1495 95.185 96.4695 94.3564C96.2813 94.2933 96.0759 94.3075 95.8978 94.3959C95.72 94.4842 95.5844 94.6396 95.521 94.8277C95.489 94.9205 95.4757 95.0188 95.482 95.1167C95.4882 95.2147 95.5139 95.3105 95.5575 95.3985C95.601 95.4865 95.6617 95.5649 95.7358 95.6292C95.81 95.6936 95.8962 95.7425 95.9895 95.7733C96.4291 95.9087 100.142 96.9045 101.049 97.0696C105.194 97.829 106.617 96.2322 106.471 93.5596C106.442 93.0517 105.991 90.6633 105.965 90.5596C105.732 89.4288 105.195 88.3828 104.413 87.5337C104.298 87.367 104.122 87.2527 103.923 87.2159C103.724 87.179 103.519 87.2227 103.353 87.3373C103.186 87.4519 103.071 87.6279 103.035 87.8268C102.997 88.0257 103.042 88.231 103.156 88.3977L103.155 88.3957Z" fill="#191919"/>
<path fill-rule="evenodd" clip-rule="evenodd" d="M99.2763 98.184C97.3169 98.3626 95.343 98.0573 93.5289 97.295C91.7148 96.5328 90.1156 95.3363 88.8718 93.8114C88.8018 93.7428 88.7189 93.6885 88.6279 93.6518C88.5369 93.6152 88.4396 93.5967 88.3415 93.5977C88.2434 93.5986 88.1464 93.6188 88.0562 93.6573C87.9658 93.6957 87.884 93.7515 87.8153 93.8216C87.7467 93.8915 87.6924 93.9744 87.6557 94.0654C87.619 94.1564 87.6006 94.2538 87.6016 94.3519C87.6025 94.45 87.6227 94.5469 87.6611 94.6372C87.6995 94.7274 87.7554 94.8093 87.8254 94.878C91.0318 97.5658 95.3326 100.824 99.5268 99.6778C99.6257 99.6614 99.7198 99.6259 99.8043 99.5731C99.8887 99.5203 99.9627 99.4512 100.02 99.3696C100.079 99.288 100.12 99.1968 100.142 99.0989C100.165 99.0019 100.168 98.9011 100.152 98.8022C100.135 98.7043 100.1 98.6093 100.047 98.5248C99.9934 98.4403 99.9252 98.3664 99.8436 98.3088C99.762 98.2502 99.6699 98.209 99.5729 98.1869C99.4759 98.1638 99.3751 98.161 99.2763 98.1773V98.184Z" fill="#191919"/>
<path fill-rule="evenodd" clip-rule="evenodd" d="M92.832 100.97C89.4144 99.442 87.0595 99.202 84.5462 95.8827C84.4816 95.807 84.4026 95.7451 84.3137 95.7004C84.2249 95.6558 84.128 95.6294 84.0287 95.6227C83.9295 95.6161 83.83 95.6295 83.736 95.662C83.6419 95.6945 83.5554 95.7454 83.4814 95.812C83.4075 95.8784 83.3476 95.959 83.3052 96.0491C83.2629 96.139 83.239 96.2366 83.235 96.336C83.231 96.4354 83.247 96.5342 83.2818 96.6273C83.3168 96.7204 83.3699 96.8059 83.4384 96.8779C86.4883 99.7291 88.3133 101.5 92.3837 102.428C92.5745 102.48 92.7786 102.457 92.9524 102.362C93.1261 102.267 93.256 102.108 93.3144 101.919C93.3728 101.73 93.355 101.524 93.2649 101.349C93.1748 101.172 93.0195 101.038 92.832 100.973V100.97Z" fill="#191919"/>
<path fill-rule="evenodd" clip-rule="evenodd" d="M86.7397 102.377C80.0907 98.1819 79.0597 97.1153 77.4142 94.2973C76.0897 91.9668 74.9189 89.552 73.9093 87.0685C72.5768 84.1357 65.5189 69.9633 62.7848 66.1924C62.7263 66.1137 62.6529 66.0471 62.5686 65.9967C62.4844 65.9463 62.3912 65.913 62.294 65.8986C62.197 65.8843 62.098 65.8892 62.0029 65.9131C61.9076 65.9369 61.8182 65.9794 61.7393 66.0378C61.6605 66.0964 61.594 66.1698 61.5436 66.254C61.4932 66.3382 61.4599 66.4315 61.4456 66.5286C61.4312 66.6256 61.4361 66.7246 61.46 66.8197C61.4839 66.915 61.5263 67.0045 61.5848 67.0833C66.8648 74.0625 69.5192 81.9354 72.1736 87.5149C72.9013 89.0423 75.6296 94.2647 76.9083 96.2625C77.9968 98.0053 79.4352 99.5028 81.1323 100.661C82.6683 101.771 84.2775 102.777 85.9486 103.672C86.0337 103.726 86.1285 103.761 86.2277 103.779C86.327 103.795 86.4284 103.792 86.5264 103.77C86.6245 103.747 86.717 103.705 86.7987 103.646C86.8804 103.588 86.9495 103.513 87.0023 103.427C87.055 103.342 87.0902 103.247 87.1058 103.147C87.1214 103.048 87.1171 102.946 87.0933 102.848C87.0694 102.751 87.0263 102.658 86.9666 102.578C86.9069 102.497 86.8317 102.428 86.7454 102.377H86.7397Z" fill="#191919"/>
<path fill-rule="evenodd" clip-rule="evenodd" d="M80.9386 54.3742C74.379 31.4888 75.9879 33.259 70.6033 9.22926C70.5574 9.03388 70.4369 8.86421 70.2676 8.75656C70.0982 8.64891 69.8934 8.61184 69.697 8.65326C69.5994 8.67422 69.507 8.71423 69.4248 8.77101C69.3427 8.82779 69.2726 8.90022 69.2186 8.98415C69.1645 9.06808 69.1276 9.16185 69.1099 9.26009C69.0921 9.35832 69.094 9.4591 69.1153 9.55662C69.5818 11.804 69.9908 13.8478 70.3633 15.7304C64.0273 18.6814 57.217 20.0744 45.6913 29.2385C44.8569 29.8831 44.1018 30.6242 43.442 31.4465C42.6205 29.2495 41.9627 26.9947 41.474 24.7006C41.4319 24.5109 41.3176 24.3451 41.1553 24.2383C40.993 24.1313 40.7956 24.0918 40.6047 24.128C40.4138 24.1642 40.2444 24.2732 40.1326 24.4321C40.0207 24.591 39.975 24.7871 40.0052 24.979C41.6372 33.2945 53.7678 58.506 58.1204 66.4308C58.1708 66.5185 58.238 66.5953 58.3182 66.6569C58.3984 66.7185 58.4899 66.7637 58.5876 66.7898C58.6853 66.8159 58.7871 66.8225 58.8874 66.8092C58.9876 66.7958 59.0841 66.7629 59.1716 66.7121C65.5594 63.0267 72.4282 60.0593 80.5796 55.2488C80.7284 55.1639 80.8446 55.0318 80.9097 54.8733C80.9747 54.7148 80.9849 54.5391 80.9386 54.3742ZM44.0554 33.1294C49.1646 27.6104 60.9601 20.7454 67.4151 18.331C68.4865 17.9278 69.5703 17.563 70.6474 17.1617C70.8759 18.3195 72.6692 27.1918 73.2942 30.1054C61.0897 35.3422 62.1658 34.266 56.354 37.9592C51.193 41.2232 50.0545 42.2062 48.4398 43.7883C46.9201 40.3764 45.3505 36.6171 44.0554 33.1294ZM49.1041 45.2734C49.6705 44.7848 50.2676 44.3336 50.8378 43.8584C52.2778 42.6718 53.6775 41.4651 55.2097 40.434C59.7596 37.6803 64.486 35.2292 69.3582 33.0968C70.971 32.4248 71.69 32.1752 73.6023 31.5329C73.9815 33.2734 75.8103 41.1416 76.4535 43.6644C75.3207 44.1224 74.211 44.6244 73.0935 45.114C64.1425 49.0644 65.1735 48.7284 59.7303 52.3352C57.8106 53.467 56.0396 54.8337 54.458 56.4036C52.6167 52.7796 50.8081 49.0347 49.1041 45.2734ZM59.065 65.0052C57.8516 62.8702 56.5441 60.4596 55.2164 57.8897C58.2501 54.9327 61.7341 52.4762 65.5383 50.612C70.0609 47.9873 71.9847 46.5617 76.8126 45.0584C77.5038 47.7204 78.314 50.7118 79.3038 54.21C75.7316 56.1521 65.5911 61.1604 59.065 65.0052Z" fill="#FFB500"/>
<path fill-rule="evenodd" clip-rule="evenodd" d="M87.8407 71.833C89.6023 66.7047 84.1389 65.8493 79.2209 68.0007C76.8208 69.0994 74.5315 70.4258 72.3847 71.9616C69.5971 74.2117 67.231 76.9387 65.3969 80.016C63.0237 84.048 66.0602 87.9015 70.9831 86.6083C71.0776 86.5821 71.1661 86.5376 71.2434 86.4773C71.3207 86.4169 71.3854 86.3419 71.4338 86.2566C71.4822 86.1713 71.5133 86.0772 71.5253 85.9798C71.5373 85.8825 71.53 85.7837 71.5039 85.6891C71.4777 85.5946 71.4331 85.5061 71.3729 85.4288C71.3125 85.3514 71.2375 85.2867 71.1522 85.2383C71.0667 85.1899 70.9727 85.1589 70.8754 85.1469C70.7779 85.1348 70.6792 85.1421 70.5847 85.1683C66.4087 86.3866 64.7124 83.5114 66.4961 80.6823C68.1267 78.2172 70.1308 76.0207 72.4365 74.1715C75.1418 71.9319 76.6932 70.6551 79.8017 69.3408C81.6007 68.5805 84.0257 68.2301 85.5357 68.7927C86.4429 69.1296 86.8663 69.9226 86.4065 71.3539C86.3427 71.5449 86.3576 71.7533 86.4476 71.9333C86.5376 72.1134 86.6954 72.2503 86.8865 72.3139C87.0774 72.3776 87.2858 72.3627 87.4658 72.2728C87.6458 72.1827 87.7827 72.0249 87.8465 71.8339L87.8407 71.833Z" fill="#FFB500"/>
<path fill-rule="evenodd" clip-rule="evenodd" d="M86.6839 70.8502C87.1227 70.1069 87.293 69.2355 87.1663 68.3818C87.0396 67.5279 86.6236 66.7435 85.988 66.1596C84.836 65.1353 82.7028 64.6044 79.4599 65.144C76.5624 65.7271 73.7392 66.6323 71.0427 67.8425C68.3829 69.1569 65.9614 70.9064 63.8783 73.0188C62.013 74.9388 61.3466 77.4694 62.4458 79.1293C63.2618 80.3619 65.1214 81.2883 68.5111 80.8956C68.6085 80.8831 68.7024 80.8514 68.7875 80.8025C68.8726 80.7537 68.9472 80.6885 69.0072 80.6107C69.0671 80.533 69.111 80.4442 69.1367 80.3495C69.1622 80.2548 69.1689 80.1559 69.1563 80.0585C69.1437 79.9612 69.112 79.8673 69.0631 79.7822C69.0143 79.6972 68.9491 79.6225 68.8713 79.5626C68.7936 79.5027 68.7049 79.4587 68.6101 79.4331C68.5153 79.4075 68.4165 79.4008 68.3192 79.4134C65.6639 79.7859 64.1028 79.4134 63.4452 78.4534C62.6033 77.2246 63.3675 75.3478 64.8114 73.9616C66.839 72.1973 69.1003 70.7209 71.5314 69.5744C72.0757 69.296 73.7508 68.3868 75.1793 67.8252C77.802 66.7942 81.6882 65.7651 84.2111 66.9891C84.5068 67.1125 84.773 67.2973 84.9921 67.5313C85.2112 67.7653 85.3781 68.043 85.4819 68.3461C85.5857 68.6494 85.624 68.9712 85.5942 69.2903C85.5645 69.6094 85.4673 69.9186 85.3092 70.1974C85.2221 70.3797 85.2111 70.5892 85.2784 70.7796C85.3458 70.9701 85.486 71.126 85.6683 71.2131C85.8505 71.3002 86.06 71.3113 86.2505 71.2439C86.4409 71.1766 86.5968 71.0364 86.6839 70.854V70.8502Z" fill="#FFB500"/>
<path fill-rule="evenodd" clip-rule="evenodd" d="M135.333 93.983C143.8 91.727 147.486 90.431 153.376 88.966C155.104 88.536 156.857 88.1712 158.602 87.7248C168.448 85.2048 172.216 83.7552 182.462 83.1763C182.56 83.1695 182.656 83.1434 182.743 83.0998C182.831 83.056 182.909 82.9953 182.973 82.9213C183.038 82.8473 183.088 82.7613 183.118 82.6682C183.15 82.5752 183.162 82.4769 183.155 82.379C183.148 82.2812 183.122 82.1856 183.079 82.0977C183.035 82.0099 182.974 81.9315 182.9 81.8671C182.826 81.8027 182.74 81.7535 182.647 81.7224C182.554 81.6912 182.456 81.6786 182.358 81.6854C178.5 81.9849 171.247 83.2416 167.526 83.9894C156.294 86.2435 156.631 86.4912 152.992 87.5212C141.154 90.8726 144.172 89.7801 134.918 92.5132C134.728 92.5732 134.571 92.7044 134.477 92.8787C134.384 93.0531 134.362 93.2571 134.416 93.4476C134.469 93.6381 134.595 93.8 134.767 93.8993C134.938 93.9985 135.141 94.0272 135.333 93.9792V93.983Z" fill="#191919"/>
<path fill-rule="evenodd" clip-rule="evenodd" d="M126.375 114.873C128.953 113.094 131.804 111.746 134.814 110.882C142.156 108.674 148.204 108.748 155.987 107.881C159.242 107.519 181.152 105.138 183.944 104.748C184.041 104.733 184.134 104.7 184.219 104.649C184.302 104.598 184.376 104.532 184.434 104.453C184.492 104.374 184.534 104.284 184.558 104.189C184.582 104.094 184.587 103.995 184.573 103.898C184.557 103.801 184.525 103.708 184.474 103.623C184.423 103.54 184.357 103.466 184.278 103.408C184.199 103.35 184.109 103.308 184.014 103.284C183.919 103.26 183.82 103.256 183.723 103.27C181.302 103.654 178.887 104.065 176.452 104.378C167.255 105.559 155.207 105.672 140.146 108.134C134.29 109.094 129.773 110.216 125.436 113.677C125.284 113.804 125.188 113.985 125.168 114.181C125.148 114.377 125.205 114.574 125.326 114.73C125.448 114.885 125.626 114.986 125.822 115.013C126.018 115.04 126.215 114.989 126.375 114.873Z" fill="#191919"/>
<path fill-rule="evenodd" clip-rule="evenodd" d="M117.434 129.325C116.12 131.143 115.369 131.093 114.313 130.781C112.902 130.362 112.328 127.333 112.155 125.869C112.142 125.772 112.109 125.678 112.059 125.593C112.009 125.509 111.944 125.435 111.865 125.376C111.788 125.317 111.698 125.273 111.603 125.248C111.508 125.224 111.409 125.219 111.312 125.232C111.215 125.246 111.121 125.278 111.037 125.328C110.952 125.377 110.878 125.443 110.819 125.522C110.759 125.6 110.716 125.689 110.692 125.784C110.667 125.879 110.662 125.978 110.675 126.075C110.979 128.005 111.895 131.643 113.712 132.259C119.407 134.189 122.256 122.635 124.272 117.071C124.344 116.884 124.338 116.676 124.258 116.492C124.177 116.309 124.029 116.164 123.842 116.088C121.809 115.294 122.775 121.934 117.434 129.325Z" fill="#191919"/>
<path fill-rule="evenodd" clip-rule="evenodd" d="M114.076 123.744C112.636 124.066 108.316 126.014 106.071 126.79C105.977 126.821 105.891 126.87 105.817 126.934C105.742 126.998 105.682 127.077 105.638 127.164C105.593 127.253 105.568 127.348 105.561 127.446C105.553 127.544 105.566 127.642 105.596 127.736C105.628 127.829 105.677 127.915 105.741 127.989C105.806 128.064 105.883 128.124 105.972 128.168C106.06 128.213 106.155 128.239 106.253 128.246C106.351 128.253 106.45 128.24 106.543 128.21C108.847 127.451 112.169 126.143 114.612 125.17C114.799 125.097 114.951 124.953 115.033 124.769C115.116 124.586 115.123 124.377 115.053 124.188C115.019 124.094 114.965 124.009 114.898 123.936C114.83 123.863 114.748 123.804 114.657 123.763C114.566 123.722 114.468 123.699 114.368 123.696C114.269 123.692 114.169 123.708 114.076 123.744Z" fill="#191919"/>
<path fill-rule="evenodd" clip-rule="evenodd" d="M108.984 128.998C107.72 129.664 106.351 130.107 104.937 130.31C102.577 130.612 101.271 129.909 102.263 127.201C103.095 124.93 103.783 123.254 104.177 121.972C104.252 121.792 104.254 121.589 104.181 121.408C104.108 121.227 103.968 121.081 103.789 121.001C103.61 120.922 103.408 120.916 103.224 120.986C103.041 121.054 102.892 121.192 102.809 121.369C102.686 121.67 101.339 125.316 101.068 126.291C100.334 128.94 99.9515 131.301 102.664 131.735C105.113 132.173 107.637 131.67 109.731 130.326C109.903 130.226 110.029 130.061 110.08 129.868C110.132 129.675 110.106 129.47 110.008 129.296C109.911 129.123 109.749 128.994 109.557 128.938C109.366 128.883 109.16 128.904 108.984 128.998Z" fill="#191919"/>
<path fill-rule="evenodd" clip-rule="evenodd" d="M100.43 123.01C100.376 118.808 102.787 115.182 105.391 112.874C105.464 112.809 105.522 112.729 105.565 112.64C105.606 112.551 105.63 112.455 105.635 112.358C105.639 112.26 105.625 112.162 105.591 112.069C105.559 111.976 105.508 111.892 105.442 111.819C105.375 111.747 105.296 111.687 105.207 111.646C105.119 111.604 105.022 111.58 104.924 111.575C104.826 111.57 104.728 111.585 104.636 111.618C104.544 111.651 104.46 111.703 104.387 111.768C100.964 114.794 98.0113 118.872 98.9146 123.174C98.9223 123.276 98.9511 123.374 98.9972 123.466C99.0442 123.556 99.1085 123.636 99.1873 123.701C99.266 123.766 99.3562 123.815 99.4541 123.844C99.5521 123.874 99.6548 123.883 99.7556 123.872C99.8573 123.861 99.9553 123.83 100.045 123.781C100.133 123.731 100.212 123.663 100.274 123.583C100.336 123.503 100.382 123.411 100.409 123.312C100.435 123.213 100.442 123.11 100.428 123.01H100.43Z" fill="#191919"/>
<path fill-rule="evenodd" clip-rule="evenodd" d="M98.0602 116.909C98.9089 113.694 100.772 110.838 103.374 108.765C103.449 108.702 103.509 108.625 103.554 108.537C103.598 108.45 103.625 108.355 103.634 108.258C103.642 108.16 103.63 108.062 103.6 107.969C103.57 107.876 103.522 107.79 103.458 107.715C103.395 107.641 103.317 107.579 103.231 107.534C103.143 107.49 103.048 107.463 102.95 107.456C102.854 107.448 102.755 107.458 102.662 107.489C102.569 107.519 102.483 107.567 102.408 107.63C99.387 110.691 97.5726 112.707 96.6193 116.421C96.5847 116.516 96.5703 116.618 96.5751 116.719C96.5799 116.819 96.6058 116.918 96.649 117.009C96.6932 117.101 96.7546 117.182 96.8305 117.248C96.9063 117.316 96.9946 117.368 97.0906 117.399C97.1866 117.432 97.2874 117.445 97.3882 117.438C97.489 117.431 97.5879 117.403 97.6782 117.358C97.7684 117.312 97.8481 117.248 97.9143 117.172C97.9796 117.095 98.0295 117.006 98.0602 116.909Z" fill="#191919"/>
<path fill-rule="evenodd" clip-rule="evenodd" d="M96.3614 111.863C100.692 106.425 103.799 102.599 110.342 100.391C113.738 99.4034 117.192 98.6239 120.684 98.0565C120.78 98.0354 120.871 97.996 120.952 97.9404C121.032 97.8847 121.102 97.8136 121.154 97.7311C121.208 97.6485 121.244 97.5564 121.262 97.4594C121.279 97.3634 121.278 97.2645 121.257 97.1685C121.236 97.0725 121.197 96.9813 121.141 96.9007C121.085 96.82 121.014 96.7509 120.932 96.6972C120.849 96.6444 120.757 96.6079 120.661 96.5906C120.564 96.5724 120.465 96.5743 120.369 96.5954C114.507 97.7368 108.516 98.7794 103.632 102.12C101.028 103.985 98.7028 106.211 96.7281 108.734C96.18 109.448 95.6971 110.21 95.1576 110.942C95.0347 111.101 94.9804 111.303 95.0064 111.502C95.0324 111.702 95.1366 111.883 95.2963 112.006C95.4559 112.129 95.6578 112.184 95.8576 112.158C96.0571 112.132 96.2385 112.027 96.3614 111.868V111.863Z" fill="#191919"/>
<path fill-rule="evenodd" clip-rule="evenodd" d="M133.705 105.552C137.194 104.033 135.089 99.2942 133.846 95.4136C133.346 93.771 132.656 92.3224 130.992 91.9C128.778 91.5317 126.505 91.7804 124.424 92.6191C122.974 93.2632 122.227 94.2962 122.489 95.38C122.512 95.476 123.948 103.186 124.975 104.713C125.456 105.438 126.194 105.953 127.041 106.153C127.345 108.199 128.096 110.154 129.239 111.879C129.298 111.959 129.371 112.029 129.456 112.08C129.541 112.133 129.636 112.168 129.735 112.182C129.834 112.198 129.935 112.193 130.031 112.168C130.128 112.143 130.219 112.1 130.299 112.039C130.379 111.979 130.445 111.903 130.495 111.816C130.545 111.73 130.577 111.634 130.589 111.535C130.601 111.435 130.594 111.335 130.567 111.239C130.539 111.143 130.493 111.053 130.43 110.976C129.252 108.739 128.787 107.554 128.688 106.343C129.866 106.295 131.039 106.163 132.199 105.951C132.65 107.358 133.273 108.705 134.054 109.96C134.114 110.038 134.188 110.104 134.272 110.153C134.357 110.203 134.451 110.234 134.548 110.248C134.646 110.261 134.745 110.256 134.839 110.231C134.934 110.206 135.023 110.162 135.101 110.103C135.179 110.043 135.245 109.969 135.295 109.885C135.345 109.8 135.376 109.706 135.39 109.609C135.403 109.512 135.397 109.414 135.372 109.319C135.347 109.223 135.304 109.134 135.245 109.056C134.61 107.945 134.095 106.771 133.705 105.552ZM128.005 101.097C127.976 101.208 127.904 101.302 127.804 101.359C127.705 101.416 127.588 101.431 127.476 101.401C127.366 101.372 127.272 101.3 127.215 101.201C127.158 101.102 127.142 100.984 127.172 100.873C127.623 98.6213 128.315 96.4238 129.238 94.3202C129.258 94.2649 129.289 94.214 129.328 94.1709C129.369 94.1277 129.417 94.0929 129.47 94.0688C129.524 94.0447 129.582 94.0317 129.641 94.0304C129.7 94.0292 129.758 94.0399 129.813 94.0617C129.868 94.0836 129.917 94.1163 129.959 94.1578C130 94.1993 130.034 94.2487 130.056 94.3033C130.078 94.3578 130.089 94.4162 130.088 94.475C130.087 94.5339 130.074 94.5919 130.05 94.6456C129.229 96.7493 128.546 98.9045 128.005 101.097ZM131.929 96.9009C131.108 99.0043 130.425 101.159 129.884 103.351C129.87 103.406 129.844 103.457 129.81 103.502C129.776 103.547 129.732 103.584 129.683 103.613C129.635 103.641 129.58 103.659 129.524 103.667C129.467 103.675 129.411 103.671 129.356 103.656C129.301 103.642 129.251 103.616 129.205 103.582C129.16 103.547 129.123 103.505 129.094 103.456C129.066 103.407 129.047 103.352 129.04 103.296C129.033 103.24 129.036 103.183 129.051 103.128C129.502 100.876 130.194 98.6789 131.117 96.5755C131.137 96.5198 131.168 96.469 131.207 96.4259C131.247 96.3827 131.295 96.348 131.349 96.3239C131.403 96.2998 131.46 96.2867 131.52 96.2855C131.579 96.2842 131.637 96.2949 131.692 96.3168C131.747 96.3387 131.795 96.3713 131.838 96.4129C131.879 96.4543 131.913 96.5035 131.935 96.5582C131.957 96.6129 131.967 96.6715 131.966 96.7301C131.965 96.7886 131.953 96.8472 131.929 96.9009Z" fill="#191919"/>
<path fill-rule="evenodd" clip-rule="evenodd" d="M122.58 67.3862C121.283 68.1282 120.18 68.7935 120.18 68.7935C120.052 68.8743 119.949 68.9906 119.886 69.1286C119.821 69.2664 119.799 69.4199 119.82 69.5704C119.842 69.7207 119.908 69.8615 120.007 69.9758C120.108 70.0899 120.24 70.1725 120.386 70.2134L122.427 70.8172C122.357 72.8966 122.337 74.7263 122.337 74.7263C122.335 74.8869 122.384 75.0441 122.477 75.1756C122.569 75.307 122.7 75.4063 122.852 75.4593C123.004 75.5123 123.168 75.5164 123.322 75.471C123.476 75.4256 123.612 75.333 123.711 75.2063C123.711 75.2063 125.33 72.934 126.234 71.6716C128.437 72.0402 130.729 72.286 130.729 72.286C130.884 72.3093 131.044 72.2832 131.184 72.2114C131.325 72.1395 131.439 72.0256 131.511 71.8855C131.583 71.7453 131.61 71.5862 131.587 71.4302C131.564 71.2743 131.493 71.1294 131.383 71.0159C131.383 71.0159 130.009 69.6278 128.462 68.0399C129.284 66.5769 130.086 65.1014 130.086 65.1014C130.145 64.9897 130.168 64.8629 130.154 64.7377C130.138 64.6125 130.087 64.4947 130.003 64.4C129.919 64.3052 129.81 64.2378 129.688 64.2067C129.565 64.1756 129.437 64.1824 129.318 64.2258C126.996 65.1158 126.755 65.2818 126.07 65.5487C124.966 64.3785 124.15 63.4694 124.15 63.4694C124.044 63.3603 123.909 63.2842 123.761 63.2503C123.613 63.2164 123.458 63.2261 123.316 63.2783C123.173 63.3306 123.048 63.423 122.957 63.5444C122.865 63.6659 122.812 63.8112 122.801 63.9628C122.801 63.9628 122.651 66.143 122.58 67.3862Z" fill="#FFB500"/>
<path fill-rule="evenodd" clip-rule="evenodd" d="M44.8104 84.7924C42.9336 84.9181 41.2863 85.0621 41.2863 85.0621C41.1335 85.0802 40.9893 85.1426 40.8714 85.2415C40.7536 85.3405 40.6673 85.4719 40.6231 85.6193C40.5789 85.7667 40.5788 85.9238 40.6227 86.0713C40.6668 86.2187 40.7529 86.3502 40.8706 86.4493L42.9893 88.2666C41.8373 90.5072 40.8581 92.5223 40.8581 92.5223C40.785 92.6656 40.7593 92.8285 40.7849 92.9873C40.8104 93.1462 40.8858 93.2929 41.0002 93.4061C41.1145 93.5192 41.2619 93.5931 41.4211 93.617C41.5801 93.6409 41.7428 93.6135 41.8853 93.5389L46.6584 91.0112C48.9797 92.5856 51.4959 94.1005 51.4959 94.1005C51.6276 94.1855 51.7826 94.2271 51.9391 94.2197C52.0957 94.2122 52.246 94.156 52.3691 94.0589C52.4921 93.9618 52.5817 93.8287 52.6253 93.678C52.6689 93.5275 52.6644 93.3671 52.6124 93.2192C52.6124 93.2192 51.7484 90.9594 50.7951 88.4029C52.476 87.2375 54.1762 86.0317 54.1762 86.0317C54.28 85.9583 54.3587 85.8546 54.4016 85.735C54.4446 85.6153 54.4497 85.4852 54.4163 85.3625C54.3829 85.2398 54.3125 85.1304 54.2148 85.049C54.1171 84.9676 53.9967 84.9182 53.87 84.9076C53.774 84.8989 51.3807 84.6935 49.4098 84.6292C48.7234 82.7312 48.2232 81.2634 48.2232 81.2634C48.1712 81.122 48.0795 80.9985 47.9591 80.9079C47.8389 80.8172 47.695 80.7632 47.5446 80.7521C47.3944 80.7411 47.244 80.7735 47.1118 80.8456C46.9795 80.9178 46.8708 81.0265 46.7986 81.1588C46.7986 81.1588 45.5247 83.4676 44.8104 84.7924Z" fill="#FFB500"/>
<path fill-rule="evenodd" clip-rule="evenodd" d="M102.576 147.565C99.9837 147.661 97.9677 147.704 97.9677 147.704C97.818 147.711 97.674 147.76 97.5501 147.845C97.4273 147.929 97.3303 148.047 97.2698 148.183C97.2103 148.321 97.1901 148.471 97.2113 148.619C97.2324 148.768 97.2957 148.906 97.3917 149.021C97.3917 149.021 99.4413 151.411 100.631 152.774C99.8205 155.11 99.1562 157.19 99.1562 157.19C99.1111 157.343 99.113 157.505 99.162 157.656C99.2109 157.806 99.3041 157.94 99.4289 158.037C99.5546 158.134 99.7063 158.191 99.8647 158.2C100.023 158.21 100.181 158.171 100.317 158.09L103.616 156.164C105.646 158.414 107.499 160.407 107.499 160.407C107.604 160.523 107.743 160.604 107.897 160.638C108.051 160.671 108.21 160.657 108.355 160.596C108.5 160.536 108.623 160.432 108.706 160.3C108.79 160.167 108.83 160.012 108.822 159.854C108.822 159.854 108.467 155.235 108.303 153.014C111.298 150.838 114.366 148.392 114.366 148.392C114.495 148.297 114.589 148.163 114.635 148.01C114.682 147.857 114.678 147.693 114.625 147.542C114.571 147.391 114.47 147.263 114.337 147.174C114.204 147.084 114.046 147.041 113.886 147.048C113.886 147.048 110.841 147.209 107.409 147.366C106.9 144.898 106.348 142.356 106.348 142.356C106.319 142.232 106.253 142.121 106.158 142.036C106.064 141.95 105.946 141.896 105.82 141.88C105.694 141.864 105.566 141.887 105.453 141.946C105.341 142.005 105.248 142.097 105.19 142.209C103.82 144.851 102.62 147.468 102.576 147.565Z" fill="#FFB500"/>
<path d="M117.255 47.1848C117.133 47.1848 117.013 47.1538 116.906 47.0946C116.799 47.0354 116.709 46.9499 116.645 46.8463C116.58 46.7428 116.543 46.6244 116.536 46.5024C116.53 46.3804 116.554 46.2588 116.608 46.149L125.608 27.7516C125.65 27.6666 125.708 27.5907 125.778 27.5281C125.849 27.4655 125.932 27.4174 126.021 27.3867C126.111 27.356 126.205 27.3432 126.3 27.349C126.394 27.3549 126.487 27.3794 126.572 27.4208C126.657 27.4624 126.732 27.5203 126.795 27.5911C126.858 27.6621 126.906 27.7446 126.937 27.834C126.968 27.9235 126.98 28.0182 126.974 28.1125C126.969 28.2069 126.944 28.2992 126.902 28.3842L117.902 46.7816C117.843 46.9028 117.751 47.0047 117.636 47.0761C117.522 47.1474 117.39 47.185 117.255 47.1848Z" fill="#191919"/>
<path d="M110.373 46.2591C110.19 46.2587 110.014 46.1892 109.882 46.0644C109.749 45.9397 109.668 45.7691 109.655 45.5871L108.599 29.9688C108.593 29.8743 108.605 29.7794 108.636 29.6897C108.667 29.5998 108.714 29.517 108.776 29.4456C108.838 29.3743 108.914 29.316 109 29.274C109.084 29.2319 109.177 29.2071 109.271 29.2008C109.366 29.1945 109.461 29.2069 109.551 29.2372C109.64 29.2676 109.724 29.3154 109.795 29.3778C109.866 29.4402 109.924 29.516 109.966 29.601C110.009 29.6858 110.033 29.7783 110.039 29.8728L111.095 45.4911C111.102 45.5898 111.088 45.6887 111.054 45.7819C111.022 45.875 110.969 45.9602 110.902 46.0322C110.833 46.1043 110.752 46.1616 110.661 46.2006C110.569 46.2396 110.471 46.2595 110.373 46.2591Z" fill="#191919"/>
<path d="M144.511 160.722C144.393 160.722 144.276 160.693 144.171 160.637C144.067 160.581 143.978 160.5 143.912 160.402L130.814 140.834C130.76 140.755 130.723 140.667 130.703 140.574C130.683 140.481 130.682 140.385 130.701 140.291C130.719 140.198 130.754 140.108 130.807 140.03C130.86 139.95 130.928 139.882 131.007 139.829C131.086 139.776 131.175 139.739 131.268 139.721C131.361 139.702 131.458 139.702 131.551 139.722C131.644 139.741 131.733 139.777 131.811 139.831C131.89 139.885 131.958 139.953 132.01 140.033L145.108 159.596C145.181 159.705 145.224 159.832 145.231 159.962C145.238 160.093 145.209 160.223 145.148 160.339C145.087 160.454 144.995 160.551 144.883 160.619C144.77 160.686 144.642 160.722 144.511 160.722Z" fill="#191919"/>
<path d="M151.887 148.369C151.563 148.369 151.813 148.456 138.735 140.217C138.655 140.166 138.585 140.101 138.531 140.023C138.477 139.946 138.437 139.859 138.416 139.767C138.395 139.675 138.393 139.579 138.409 139.486C138.425 139.393 138.459 139.303 138.509 139.224C138.56 139.143 138.625 139.074 138.703 139.019C138.78 138.964 138.867 138.926 138.96 138.905C139.052 138.884 139.148 138.881 139.241 138.897C139.334 138.914 139.423 138.947 139.503 138.998L152.271 147.039C152.402 147.122 152.503 147.246 152.559 147.392C152.614 147.538 152.62 147.698 152.577 147.847C152.534 147.997 152.444 148.129 152.319 148.223C152.194 148.317 152.043 148.368 151.887 148.369Z" fill="#191919"/>
</svg>
