<svg width="192" height="193" viewBox="0 0 192 193" fill="none" xmlns="http://www.w3.org/2000/svg">
<path d="M15.5228 53.4302C13.141 55.8119 11.2249 60.202 9.99608 63.275C8.9488 66.51 8.42413 69.8914 8.44184 73.2916C9.06392 84.4891 13.7708 91.5009 22.2582 95.7451C22.7766 95.9169 23.1164 95.4072 22.6038 95.0539C20.0418 93.4857 17.6662 91.6316 15.5228 89.5271C10.5308 84.0791 8.00216 73.8254 10.5145 64.8292C11.2902 61.8958 12.5136 59.0994 14.1414 56.5387C14.7151 55.5791 15.3497 54.6572 16.0412 53.7787C16.214 53.4302 15.6956 53.0846 15.5228 53.4302Z" fill="#191919"/>
<path d="M154.904 61.2032C153.18 65.5098 151.986 69.225 149.72 70.3568C147.749 70.8493 146.347 70.665 145.574 71.048C145.531 71.076 145.496 71.1143 145.471 71.1595C145.446 71.2047 145.434 71.2553 145.434 71.3068C145.434 71.3582 145.446 71.4088 145.471 71.454C145.496 71.4992 145.531 71.5375 145.574 71.5655C147.061 72.1677 148.711 72.2289 150.238 71.7383C153.052 70.8004 155.305 64.1332 155.592 61.5488C155.425 61.0304 155.075 60.8576 154.904 61.2032Z" fill="#191919"/>
<path d="M161.466 52.9158C159.175 48.9135 152.518 50.845 152.011 55.3724C151.363 54.9103 150.566 54.705 149.775 54.7964C149.642 48.5065 141.828 48.8262 140.049 53.7846C139.611 54.8824 139.561 56.0967 139.906 57.227C140.252 58.3573 140.972 59.336 141.949 60.0015C144.925 61.7852 149.387 59.846 149.754 55.4742C150.274 55.6422 150.906 55.6604 151.275 56.029C151.878 56.4812 151.904 60.829 151.794 61.3839C151.716 61.9938 151.407 62.5504 150.93 62.9382C150.757 63.111 149.202 63.974 150.066 63.974C151.966 64.3196 152.83 62.5926 152.83 61.0383V58.4905C153.599 59.5681 154.753 60.3081 156.053 60.5568C157.354 60.8054 158.7 60.5435 159.812 59.8255C160.924 59.1075 161.717 57.9886 162.026 56.7013C162.334 55.414 162.135 54.0572 161.47 52.9129L161.466 52.9158ZM148.167 57.0582C147.793 57.9977 147.077 58.7605 146.163 59.193C145.249 59.6254 144.205 59.6954 143.241 59.3888C142.277 59.0821 141.466 58.4217 140.97 57.5405C140.474 56.6593 140.33 55.6228 140.568 54.6399C140.676 54.0181 140.917 53.4267 141.273 52.9055C141.629 52.3843 142.093 51.9453 142.633 51.618C143.173 51.2906 143.776 51.0826 144.403 51.0077C145.03 50.9328 145.665 50.9929 146.267 51.1839C148.858 52.0518 149.24 55.0047 148.167 57.0582ZM160.43 57.5766C159.909 58.3812 159.123 58.9776 158.207 59.2616C157.292 59.5456 156.306 59.4993 155.421 59.1308C154.561 58.7876 153.857 58.1406 153.443 57.3127C153.029 56.4847 152.934 55.5336 153.175 54.6399C153.386 53.8888 153.807 53.2135 154.388 52.6934C154.97 52.1733 155.688 51.8301 156.458 51.7042C157.141 51.5857 157.844 51.6336 158.505 51.844C159.167 52.0544 159.768 52.421 160.257 52.9129C160.711 53.5996 160.967 54.398 160.998 55.2205C161.028 56.043 160.832 56.8581 160.43 57.5766Z" fill="#191919"/>
<path d="M148.859 66.2127C148.513 65.8671 147.649 66.2127 147.305 66.0399C146.613 65.8671 145.749 64.6585 145.059 64.8313C144.368 64.8313 144.714 65.8671 145.059 66.2127C146.999 67.7651 149.404 67.0287 148.859 66.2127Z" fill="#191919"/>
<path d="M143.675 49.1138C144.342 49.1047 144.996 48.9263 145.575 48.5954C145.921 48.4235 146.094 47.9051 145.748 47.7314C144.632 47.3598 142.56 49.1138 143.675 49.1138Z" fill="#191919"/>
<path d="M129.684 73.1213C134.549 87.7133 140.002 113.108 141.946 137.37C142.439 143.52 142.81 144.627 142.81 145.314C142.81 145.383 142.837 145.449 142.886 145.498C142.934 145.546 143 145.573 143.069 145.573C143.138 145.573 143.204 145.546 143.252 145.498C143.301 145.449 143.328 145.383 143.328 145.314C143.419 143.183 143.362 141.048 143.156 138.925C141.93 122.989 139.043 102.321 134.692 86.9376C131.342 75.0912 130.948 75.698 130.029 72.9485C129.857 72.7757 129.511 72.9485 129.684 73.1213Z" fill="#191919"/>
<path d="M124.504 41.8583C123.591 43.7108 122.783 45.6137 122.086 47.5578C122.086 49.4836 125.022 44.0183 125.022 41.8583C125.022 41.6826 124.676 41.6826 124.504 41.8583Z" fill="#191919"/>
<path d="M128.824 42.549C128.7 42.7554 126.406 47.925 126.406 48.2485C126.406 48.4213 126.578 48.4213 126.751 48.4213C127.807 48.0699 129.343 43.6789 129.343 42.549C129.342 42.3791 128.996 42.2063 128.824 42.549Z" fill="#191919"/>
<path d="M132.968 44.4495C132.908 44.5455 128.208 52.0191 128.133 52.3935C128.139 52.483 128.177 52.5673 128.24 52.6308C128.304 52.6944 128.388 52.7328 128.477 52.7391C130.317 51.8204 133.209 46.8197 133.661 44.7941C133.487 44.4495 133.141 44.2748 132.968 44.4495Z" fill="#191919"/>
<path d="M104.126 65.693C97.4145 71.5663 95.2938 74.6662 90.1367 81.7558C85.8868 87.5954 82.6238 92.5337 81.8462 99.7183C81.5056 102.935 81.9194 106.187 83.0548 109.217C84.005 111.598 85.4134 113.769 87.2001 115.607C92.9313 121.783 103.026 123.63 115.179 114.399C115.868 113.876 116.562 113.189 117.252 112.671C117.598 112.325 117.07 111.449 116.562 111.807C111.814 115.145 106.728 118.825 100.845 119.406C91.3406 120.345 82.7966 112.361 83.2276 101.789C83.4964 95.2294 86.337 89.527 90.1396 84.173C91.0194 82.7787 92.0006 81.4509 93.0753 80.2006C95.1873 77.382 96.323 74.8802 102.92 68.2831C103.438 67.5919 104.129 67.0745 104.648 66.3833C104.817 65.8658 104.471 65.5212 104.126 65.693Z" fill="#191919"/>
<path d="M185.818 107.49C184.048 95.2786 181.706 87.8098 172.346 80.892C166.937 76.6635 160.245 74.4086 153.38 74.5004C152.516 73.8188 150.758 72.2088 150.758 73.2927C154.982 85.429 157.822 102.803 158.702 115.78C160.01 135.062 159.566 133.044 159.566 145.314C159.566 145.659 160.084 145.832 160.257 145.314C162.711 129.976 158.636 90.0255 152.143 74.5714C161.408 82.0508 164.285 86.821 164.92 87.4556C165.353 87.8885 164.669 88.3023 163.365 90.9116C162.837 91.797 162.375 92.7209 161.984 93.6754C161.811 93.8482 162.157 94.0201 162.33 93.8482C163.594 92.3195 164.749 90.7033 165.786 89.0117C165.958 88.6661 166.303 88.3215 166.303 87.9759C166.303 86.6079 158.172 77.8882 153.658 74.7087C159.55 75.0823 165.231 77.0391 170.104 80.3727C172.672 82.1303 174.997 84.2209 177.016 86.5897C178.573 88.343 179.854 90.3231 180.815 92.462C184.211 99.996 185.574 115.08 185.824 123.205C186.141 129.316 185.91 135.443 185.133 141.512C185.133 142.031 185.824 142.031 185.997 141.685C187.658 130.342 187.597 118.814 185.818 107.49Z" fill="#191919"/>
<path d="M163.708 94.02C164.691 95.9841 166.817 99.5102 166.817 99.5467C166.817 100.497 166.329 100.372 164.917 103.346C162.456 108.53 162.406 114.879 161.981 117.854C161.981 118.89 161.809 119.754 161.809 120.79C161.809 121.135 162.154 121.135 162.327 120.79C163.171 116.566 163.059 110.065 165.783 103.691C167.041 100.746 168.167 99.947 167.511 98.8555C166.892 97.6171 164.823 95.1422 163.884 93.5016C163.881 93.3326 163.536 93.6744 163.708 94.02Z" fill="#191919"/>
<path d="M133.833 57.5775C134.178 58.2678 134.869 57.4047 134.869 57.0591C135.266 54.6822 131.934 54.2953 131.934 55.1593C134.655 55.4991 133.332 56.5763 133.833 57.5775Z" fill="#191919"/>
<path d="M132.794 56.7129C132.276 56.7129 131.93 57.4041 132.104 57.9225C132.104 58.2671 132.794 59.1311 132.968 58.4399C132.794 58.0943 133.313 56.7129 132.794 56.7129Z" fill="#191919"/>
<path d="M136.593 65.522C137.099 68.0891 139.953 69.9159 140.049 70.0119C140.12 70.022 140.192 70.0156 140.259 69.9931C140.327 69.9707 140.388 69.9328 140.438 69.8825C140.489 69.8322 140.526 69.7708 140.549 69.7033C140.571 69.6358 140.578 69.564 140.568 69.4935C140.568 68.8974 139.284 69.0443 136.768 65.522C136.676 65.3223 136.569 65.3963 136.593 65.522Z" fill="#191919"/>
<path d="M153.345 48.2509C153.518 48.7683 155.245 49.9789 155.418 48.7683C155.421 47.84 153.11 47.3091 153.345 48.2509Z" fill="#191919"/>
<path d="M109.134 120.445C107.666 133.945 108.961 144.912 108.961 147.387C108.905 148.492 109.021 149.6 109.307 150.669C109.479 151.014 109.997 151.187 110.171 150.669C110.296 150.043 109.227 130.293 109.998 120.272C109.824 120.099 109.134 120.099 109.134 120.445Z" fill="#191919"/>
<path d="M172.347 92.811C173.569 104.41 173.403 122.763 172.52 132.88C172.312 135.264 171.484 142.638 171.484 143.415C171.487 143.562 171.542 143.704 171.639 143.814C171.736 143.924 171.869 143.996 172.015 144.017C172.161 144.038 172.309 144.006 172.433 143.928C172.557 143.849 172.649 143.729 172.693 143.588C173.76 137.136 174.338 130.612 174.421 124.072C174.535 114.969 174.395 101.85 173.04 92.811C172.866 92.4692 172.347 92.4692 172.347 92.811Z" fill="#191919"/>
<path d="M162.674 31.6696C162.501 31.1522 161.984 30.461 161.638 31.1522C161.069 32.4508 160.158 33.5705 159.002 34.3917C157.846 35.2129 156.489 35.7048 155.075 35.8149C151.272 36.3122 147.473 35.6229 143.676 36.5061C142.268 36.7735 140.929 37.3248 139.74 38.1264C138.552 38.928 137.539 39.9632 136.764 41.1688C134.219 45.5138 134.518 51.1864 134.518 51.3592C133.847 51.1701 133.141 51.134 132.454 51.2536C131.766 51.3732 131.114 51.6455 130.546 52.0504C129.275 53.1316 128.37 54.5791 127.954 56.1947C127.66 56.9485 127.584 57.7703 127.737 58.565C127.89 59.3597 128.265 60.0949 128.818 60.6856C129.667 61.3064 130.705 61.6119 131.755 61.5496C132.407 61.5893 133.058 61.4707 133.654 61.204C132.969 65.3417 132.705 69.5381 132.864 73.7291C132.181 73.1519 131.522 72.5456 130.891 71.9119C130.545 71.9119 130.2 72.2575 130.372 72.4303C132.238 74.8521 134.593 76.8531 137.284 78.3026C140.866 80.1525 142.117 79.3432 141.947 79.5112C140.795 81.245 137.147 86.3675 136.247 89.356C136.075 89.7016 136.593 89.8744 136.766 89.5288C136.766 89.5288 140.522 83.5413 142.638 80.7208C144.521 83.7333 149.831 91.9365 148.686 88.492C147.042 85.5323 142.935 79.4066 142.838 79.3403C144.035 79.0983 145.154 78.5637 146.095 77.7842C147.574 76.7347 148.811 75.38 149.722 73.8117C149.902 73.4699 149.549 73.1215 149.205 73.4661C148.228 74.1986 144.107 79.6485 139.877 77.957C137.603 77.0671 135.478 75.835 133.577 74.3032C133.918 72.7202 134.713 60.4399 134.696 60.34C134.696 59.9944 127.909 61.2386 129.342 56.02C129.909 53.9608 131.578 51.5743 134.005 52.0485C136.932 52.6197 136.769 56.884 137.461 58.2655C137.521 58.3832 137.621 58.4756 137.743 58.5257C137.865 58.5759 138.002 58.5806 138.127 58.5388C138.252 58.4971 138.359 58.4118 138.427 58.2984C138.494 58.185 138.519 58.051 138.497 57.9208C138.497 54.6386 137.761 50.1064 140.225 47.5576C144.289 43.3499 154.427 47.4683 160.26 43.0667C163.51 40.6139 164.401 35.6421 162.674 31.6696Z" fill="#191919"/>
<path d="M122.255 58.9232C122.257 57.3545 122.025 55.7942 121.566 54.2941C121.481 54.081 121.238 54.0771 121.221 54.2941C121.221 56.0221 121.614 58.5949 121.221 60.1664C121.007 60.7778 120.89 61.4188 120.875 62.0663C120.89 62.118 120.917 62.1653 120.954 62.2042C120.991 62.243 121.038 62.2723 121.089 62.2893C121.14 62.3063 121.194 62.3106 121.247 62.3019C121.3 62.2931 121.351 62.2715 121.393 62.2391C122.017 61.8234 122.122 60.7088 122.216 59.72L125.02 58.785C125.193 58.785 125.711 58.6122 125.711 58.2666C125.711 57.4602 123.111 58.1859 122.255 58.9232Z" fill="#191919"/>
<path d="M129.857 63.1024C127.261 65.6944 125.763 66.7292 121.912 66.7292C121.823 66.7353 121.738 66.7737 121.675 66.8372C121.611 66.9008 121.573 66.9852 121.567 67.0748C121.236 68.0464 120.615 69.0544 120.531 69.3203C117.805 69.1574 115.149 68.3904 112.755 67.0748C113.296 66.2564 113.759 65.3885 114.136 64.4828C114.133 64.4248 114.116 64.3684 114.086 64.3183C114.057 64.2682 114.016 64.2259 113.967 64.1948C114.027 62.2476 114.317 60.3142 114.831 58.4348C115.521 56.535 116.039 54.4624 116.73 52.5625C116.767 52.4617 120.703 41.536 120.703 40.9907C120.703 40.646 120.357 40.646 120.184 40.8179C118.888 42.1158 113.242 59.2681 113.006 61.3072C112.32 61.0049 111.598 60.7941 110.858 60.6803C106.86 60.014 104.611 61.3436 108.094 64.8256C113.068 69.014 118.688 70.6864 120.981 70.6115C103.447 96.711 105.468 93.3318 100.149 99.7129C99.9774 99.8857 100.149 100.059 100.322 99.8857C106.417 95.823 113.676 83.3248 118.457 76.3974C119.301 75.1744 120.012 73.9792 120.703 72.7705C121.194 71.9065 121.774 71.1385 122.254 70.3244C122.512 70.202 122.746 70.036 122.947 69.8339C123.057 69.426 123.043 68.9948 122.907 68.5948C122.772 68.1949 122.521 67.844 122.186 67.5865C123.808 67.6431 125.423 67.3484 126.92 66.7225C128.374 66.0137 129.667 65.0142 130.72 63.7859C131.066 63.2752 130.375 62.7568 129.857 63.1024Z" fill="#191919"/>
<path d="M128.132 73.1223C128.819 71.7665 129.99 70.7183 131.413 70.1857C131.586 70.0129 131.586 69.6673 131.24 69.8401C128.477 70.3585 127.091 73.2961 126.232 75.5396C124.183 81.2107 122.623 87.0467 121.568 92.9837C121.55 93.1203 121.574 93.2591 121.635 93.3822C121.697 93.5054 121.794 93.6074 121.914 93.6749C121.994 93.7143 129.221 97.2721 130.032 97.4746C130.376 97.6474 130.722 97.129 130.376 96.9562C128.085 95.2281 125.561 93.8325 122.88 92.8109C123.808 88.0676 125.526 80.9252 126.579 77.0938C126.931 75.7111 127.453 74.3771 128.132 73.1223Z" fill="#191919"/>
<path d="M126.23 97.1261C123.81 104.387 124.479 103.493 126.23 105.244C128.026 106.588 133.643 113.064 136.765 121.651C136.765 121.824 137.111 121.824 137.111 121.478C136.799 118.357 134.564 114.374 133.139 111.806C131.151 108.898 128.768 106.281 126.058 104.03C125.299 103.373 125.228 103.182 125.366 102.649C125.393 102.546 126.311 98.2195 126.575 97.2951C126.748 96.9533 126.23 96.7805 126.23 97.1261Z" fill="#191919"/>
<path d="M156.456 124.934C156.456 124.864 146.781 95.9608 145.057 91.7733C145.793 91.3828 146.394 90.7809 146.785 90.0453C146.958 89.8725 144.021 86.0728 142.985 84.173C142.813 83.6546 138.665 89.5269 139.013 89.8725C139.385 90.481 139.888 90.9984 140.486 91.3868C141.084 91.7752 141.762 92.0247 142.469 92.117C142.814 98.6805 143.418 105.065 143.85 111.634C144.066 114.913 144.369 124.587 144.542 125.969C144.542 126.66 151.453 134.605 152.486 136.677C153.519 138.75 156.629 126.315 156.456 124.934Z" fill="#FFB500"/>
<path d="M62.501 43.2423C60.9381 44.0237 58.3432 46.5428 56.6287 49.633C53.141 55.9201 52.9807 65.3693 56.4559 71.5671C58.0231 74.4617 60.4338 76.8112 63.3679 78.3034C63.8863 78.4762 64.2319 77.9626 63.7135 77.6122C58.9 74.3425 56.7458 71.1802 55.4229 65.0045C54.4975 58.7578 55.253 51.8756 59.3954 47.042C60.5184 45.803 61.7306 44.648 63.0223 43.586C63.1922 43.5879 62.8466 43.0695 62.501 43.2423Z" fill="#191919"/>
<path d="M43.5036 57.0579C32.1439 38.6768 12.0703 49.5181 12.0703 70.8752C12.0703 83.2534 18.7836 92.5712 26.0594 95.7459C31.7234 98.215 36.7241 96.92 41.2582 92.9821C48.0367 87.0953 49.638 75.1385 47.4761 66.3843C46.6349 63.0912 45.2953 59.9461 43.5036 57.0579ZM28.8233 89.6979C21.0473 88.7264 16.637 78.5619 17.9426 78.1261C20.4732 77.4358 34.4825 74.2937 43.6764 71.3897C44.022 71.2179 44.5404 71.5625 44.5404 72.0809C43.9644 77.815 41.0086 84.4429 36.4226 87.9709C34.1652 89.4075 31.4801 90.0187 28.8233 89.7008V89.6979ZM23.815 62.7574C24.509 62.6009 25.3692 63.7933 25.543 65.1757C25.7167 66.5581 25.3702 67.9385 24.5062 67.9385C23.8159 68.1113 22.9519 66.9027 22.7782 65.5213C22.6044 64.1398 22.9558 62.9504 23.815 62.7574ZM36.7692 64.6573C36.078 64.8301 35.215 63.6214 35.0412 62.239C34.8674 60.8566 35.214 59.4761 36.077 59.4761C36.7682 59.3033 37.6313 60.512 37.805 61.8934C37.9788 63.2749 37.6332 64.6573 36.7692 64.6573Z" fill="#FFB500"/>
<path d="M83.0547 49.8029C81.1347 44.4144 76.8445 40.6378 71.1383 40.9939C66.057 40.9939 58.8992 47.0803 57.1482 56.7111C54.5907 70.777 65.6922 84.7018 77.1824 75.7095C84.5907 69.9159 86.2093 58.6637 83.0547 49.8029ZM64.0563 66.0374C63.3661 66.0374 61.6391 66.3831 61.6391 65.6919C61.6391 64.5235 72.9517 63.5242 74.0739 63.4474C76.4922 63.2803 80.1219 62.4106 80.1219 63.4474C80.3725 64.4592 64.1523 66.0288 64.0563 66.0374ZM78.2192 53.4298C78.0464 54.4656 77.528 55.3296 77.0106 55.3296C76.4931 55.3296 75.9738 54.2928 76.1466 53.257C76.3194 52.2211 76.8378 51.3571 77.3552 51.3571C77.8727 51.3571 78.2192 52.393 78.2192 53.4298ZM68.5453 53.7783C68.3725 54.8141 67.8541 55.6781 67.1639 55.6781C66.6455 55.6781 66.1271 54.6413 66.2999 53.6055C66.7213 51.0624 68.5453 51.0125 68.5453 53.7783Z" fill="#FFB500"/>
<path d="M45.4001 123.034C47.9076 123.592 49.5645 125.995 47.8183 128.906C47.6455 129.252 47.1271 129.597 46.9543 129.943C46.7815 130.289 46.9543 130.807 47.2999 130.633C48.2282 130.217 48.9798 129.486 49.4222 128.57C49.8645 127.654 49.9694 126.611 49.7181 125.625C49.1997 123.725 47.2999 122.169 45.3981 122.515C45.0545 122.515 45.0545 122.861 45.4001 123.034Z" fill="#191919"/>
<path d="M37.2866 136.16C37.9768 137.197 39.3583 137.197 40.3951 137.37C43.8511 137.543 49.7215 136.16 50.4127 131.843C50.4127 131.325 49.8943 131.325 49.5487 131.671C48.8049 132.888 47.7979 133.922 46.6019 134.699C45.4058 135.476 44.0509 135.976 42.6367 136.16C41.0824 136.506 38.837 136.679 37.4527 135.988C37.2866 135.815 37.1138 135.988 37.2866 136.16Z" fill="#191919"/>
<path d="M37.9764 141.512C39.2014 142.127 40.5426 142.475 41.9119 142.535C43.2813 142.595 44.6477 142.364 45.9214 141.857C47.9998 141.009 50.4123 139.265 51.1054 137.022C51.2782 136.676 50.7598 136.331 50.4152 136.676C48.86 138.231 47.4785 139.958 45.4059 140.649C43.087 141.536 40.5448 141.657 38.1521 140.994C37.8036 140.822 37.6328 141.34 37.9764 141.512Z" fill="#191919"/>
<path d="M42.2921 119.923C41.5272 120.135 40.7871 120.428 40.0841 120.797C39.6464 118.738 35.1229 98.4188 34.3472 96.0898C34.0016 96.0898 33.4832 96.0898 33.4832 96.4354C33.6608 98.5743 38.3715 119.296 38.9158 121.395C35.1113 123.357 40.0093 120.894 31.928 124.935C28.5334 126.632 25.6342 127.02 25.1926 130.119C24.847 132.192 25.1926 134.264 25.1926 136.337C25.1926 142.341 23.7622 140.185 20.7017 143.249C20.3561 143.939 20.7017 144.63 21.0473 144.285C21.2893 144.189 25.0045 142.242 25.3673 141.521C25.7776 140.778 26.0136 139.951 26.0576 139.104C26.2726 138.028 26.2304 137.533 26.2304 131.159C26.2304 128.471 27.3411 128.508 31.2397 126.668C32.5433 126.052 38.2688 123.243 39.5293 122.522C40.2205 122.178 41.7747 120.968 42.6387 121.141C43.927 121.399 43.9981 128.518 43.6745 130.295C43.6745 130.813 43.1571 130.64 42.8105 130.467C42.0493 130.219 41.3485 129.815 40.7533 129.279C40.158 128.744 39.6815 128.09 39.3545 127.359C39.0243 126.66 37.9721 127.013 38.3177 127.705C38.4473 127.965 38.5904 128.225 38.7449 128.48C37.9625 128.839 37.6112 130.112 37.4547 130.813C37.1417 132.203 36.7635 133.405 36.4179 134.613C35.3581 136.868 33.7562 138.827 31.7552 140.312C31.5824 140.485 31.7552 140.658 31.927 140.658C33.1875 140.658 36.6857 138.398 38.1449 132.194C38.6768 130.067 37.9683 131.025 39.2691 129.261C40.7446 131.233 42.7462 131.884 43.6717 131.677C44.5357 131.485 44.7085 130.813 44.7085 129.949C44.7104 127.614 44.5933 119.464 42.2921 119.923Z" fill="#191919"/>
<path d="M51.7922 140.305C51.7922 140.133 51.4466 140.133 51.4466 140.305C51.206 141.263 50.8586 142.19 50.4107 143.069C50.0237 143.751 49.5029 144.346 48.8797 144.821C48.2564 145.296 47.5435 145.64 46.7839 145.832C45.0559 146.178 43.5016 145.142 41.7746 145.487C41.429 145.487 41.429 146.005 41.6018 146.005C42.7409 146.404 43.903 146.735 45.0818 146.995C45.389 148.531 47.9618 160.781 49.0283 162.067C49.0712 162.099 49.1214 162.121 49.1745 162.129C49.2276 162.138 49.282 162.134 49.3331 162.117C49.3841 162.1 49.4303 162.071 49.4675 162.032C49.5047 161.993 49.5319 161.946 49.5467 161.894C49.7944 159.914 46.4824 148.926 45.8565 147.024C46.9021 146.94 47.9211 146.652 48.8565 146.177C50.7554 144.969 52.3106 142.551 51.7922 140.305Z" fill="#191919"/>
<path d="M75.6248 94.1966C75.6248 94.0247 75.2801 93.8519 75.1073 93.8519C74.1579 94.0094 73.172 94.2042 72.1832 94.402C72.1361 92.2286 70.7499 80.3591 70.2699 77.7806C70.2699 77.6078 69.9243 77.7806 69.9243 77.9534C70.0472 83.5168 70.4802 89.0691 71.2213 94.5844C66.5528 95.5118 64.7144 95.4839 62.8433 96.6062C61.6074 97.2731 60.4971 98.1502 59.5621 99.1982C58.4686 100.614 57.0455 101.74 55.4168 102.479C53.5169 103.515 51.6171 104.034 49.8901 104.898C49.5445 105.07 49.8901 105.415 50.0629 105.415C52.3573 104.396 55.0798 104.116 57.3166 102.998C59.3893 101.961 60.5979 99.7156 62.5006 98.3342C65.1013 96.5102 67.7653 96.803 74.7637 95.0529C74.7306 95.4238 74.6215 95.7839 74.4432 96.1108C74.2648 96.4377 74.0209 96.7243 73.7269 96.9527C72.1294 98.2305 69.9589 98.3025 69.0641 99.1982C68.2001 100.062 68.0273 101.271 67.1643 102.134C66.3003 102.978 65.307 103.679 64.2219 104.209C63.8773 104.382 64.2219 104.728 64.3947 104.728C65.6802 104.375 66.8643 103.724 67.8507 102.828C68.3065 102.353 68.7119 101.832 69.0603 101.274C69.4059 100.755 69.5787 99.8913 70.0961 99.5457C71.3967 99.1147 72.6663 98.5951 73.8958 97.9905C74.5604 97.6355 75.0898 97.0717 75.4022 96.3861C75.7147 95.7004 75.7929 94.931 75.6248 94.1966Z" fill="#191919"/>
<path d="M75.7991 97.8192C76.3904 100.184 73.3424 101.275 70.6151 102.828C69.6272 103.816 75.5168 102.803 76.6631 99.3725C76.8359 98.8541 76.8359 97.6445 76.1447 97.4727L75.7991 97.8192Z" fill="#191919"/>
<path d="M77.1825 101.964C75.1771 104.472 71.6558 104.038 70.9655 104.728C70.7927 104.901 70.7927 105.247 70.9655 105.247C72.6225 105.72 75.9249 104.716 77.5281 102.31C77.5252 101.964 77.3524 101.791 77.1825 101.964Z" fill="#191919"/>
<path d="M69.5819 106.973C71.2821 108.107 75.4878 107.453 76.3173 106.627C76.4901 106.455 76.3173 106.282 76.1445 106.282C76.0485 106.263 69.6779 106.789 69.5819 106.8C69.4859 106.812 69.5243 106.941 69.5819 106.973Z" fill="#191919"/>
<path d="M70.9648 108.7C71.1376 109.217 72.0007 109.564 72.5191 109.908C73.3831 110.254 75.2829 110.427 75.9751 109.39C76.3207 109.045 75.9751 108.7 75.6295 108.7C75.112 108.7 74.7655 109.045 74.248 109.045C73.7064 109.098 73.1621 108.977 72.6938 108.7C72.3482 108.527 71.657 108.008 71.3124 108.181C70.9648 108.527 70.9648 108.527 70.9648 108.7Z" fill="#191919"/>
<path d="M71.8258 109.908C70.2836 110.663 68.6616 111.243 66.9903 111.636C66.2106 111.775 65.4108 111.755 64.639 111.577C63.8673 111.399 63.1395 111.067 62.4994 110.6C62.2347 110.328 61.9082 110.122 61.5475 110.002C61.1867 109.882 60.8024 109.85 60.4268 109.909C59.1845 110.065 53.8028 111.037 52.31 111.464C51.9644 111.636 51.9644 112.155 52.31 112.155C55.67 112.155 58.8649 110.773 60.5996 110.773C61.2908 110.773 61.9743 111.48 62.6722 111.809C65.7442 113.262 69.2357 111.809 71.9986 110.255C72.1714 110.254 71.9986 109.736 71.8258 109.908Z" fill="#191919"/>
<path d="M72.5195 111.288C73.6283 118.494 73.9595 126.612 74.5922 127.869C74.765 128.042 75.1106 128.042 75.1106 127.869C75.4898 125.97 73.8069 113.237 73.3826 111.115C73.2107 110.598 72.5195 110.943 72.5195 111.288Z" fill="#191919"/>
<path d="M142.465 55.3327C142.465 55.6074 142.538 55.8709 142.667 56.0652C142.797 56.2594 142.973 56.3686 143.156 56.3686C143.339 56.3686 143.515 56.2594 143.645 56.0652C143.774 55.8709 143.847 55.6074 143.847 55.3327C143.847 55.058 143.774 54.7945 143.645 54.6003C143.515 54.406 143.339 54.2969 143.156 54.2969C142.973 54.2969 142.797 54.406 142.667 54.6003C142.538 54.7945 142.465 55.058 142.465 55.3327Z" fill="#191919"/>
<path d="M154.727 55.3327C154.727 55.6074 154.799 55.8709 154.929 56.0652C155.059 56.2594 155.234 56.3686 155.418 56.3686C155.601 56.3686 155.777 56.2594 155.907 56.0652C156.036 55.8709 156.109 55.6074 156.109 55.3327C156.109 55.058 156.036 54.7945 155.907 54.6003C155.777 54.406 155.601 54.2969 155.418 54.2969C155.234 54.2969 155.059 54.406 154.929 54.6003C154.799 54.7945 154.727 55.058 154.727 55.3327Z" fill="#191919"/>
<path d="M41.6026 147.215C39.8746 147.906 38.1466 149.115 36.4186 149.633C35.5268 149.917 34.5901 150.034 33.6557 149.979C30.7613 149.979 29.0314 151.772 27.0922 152.742C26.3108 153.188 25.5303 153.635 24.7959 154.128C24.502 154.075 24.2241 153.955 23.9837 153.778C19.9411 150.939 18.9744 145.315 18.9744 143.415C18.9744 142.379 19.1472 140.134 20.8743 140.823C22.0839 141.169 21.3927 139.959 20.5287 139.959C17.9627 140.34 15.5305 141.349 13.4477 142.896C13.0723 143.244 12.7832 143.675 12.6034 144.155C12.4236 144.634 12.358 145.149 12.4119 145.659C12.4161 146.585 12.5367 147.508 12.7709 148.405C12.0989 148.716 5.08131 152.346 4.98531 152.395C4.63971 152.568 4.81251 152.912 5.15715 152.74C7.51779 151.953 11.4154 150.092 13.0416 149.393C13.6181 151.496 14.5122 153.498 15.6931 155.331C16.729 157.059 17.9386 159.13 19.8384 159.994C22.0839 161.03 24.6739 159.821 26.401 158.44C26.7466 158.267 26.9194 157.23 26.2282 157.576C24.5002 158.267 22.4285 159.821 20.5287 159.13C18.8007 158.612 17.593 156.538 16.729 155.158C15.001 152.222 13.273 148.768 13.273 145.141C13.273 142.723 17.9367 141.685 18.1095 141.34C17.4183 143.586 17.9367 146.524 18.7997 148.768C19.6627 151.011 20.8723 153.776 22.945 155.331C23.9818 156.022 25.4132 156.539 26.5719 155.849C27.3399 155.39 28.2355 154.703 27.6788 153.563C35.1226 149.254 32.9079 151.703 36.9351 150.491C37.7991 150.146 38.6631 149.8 39.3533 149.454C40.2173 148.937 41.0813 148.59 41.9453 148.073C42.2938 147.906 42.121 147.043 41.6026 147.215Z" fill="#191919"/>
</svg>
