<svg width="192" height="193" viewBox="0 0 192 193" fill="none" xmlns="http://www.w3.org/2000/svg">
<path d="M109.501 45.5161C106.194 40.671 99.7222 41.341 94.6006 41.3766C82.6658 41.4562 33.1471 41.3948 29.67 41.5686C24.3142 41.8441 18.9362 44.0137 18.0665 49.3446C17.597 52.2246 18.0127 55.3033 18.1202 58.2054C18.5522 69.9538 18.8748 84.4873 20.3215 94.9561C20.7142 97.8034 21.2297 100.658 23.0009 103.01C25.7964 106.726 31.3366 108.031 35.9849 108.109C36.0396 108.2 78.5734 109.202 93.9487 108.05C98.4214 107.714 103.868 107.378 106.884 103.549C108.395 101.629 108.523 98.8614 108.826 96.5305C109.914 88.167 110.639 74.0137 111.59 58.8361C111.861 54.5017 112.073 49.2822 109.501 45.5161ZM110.677 56.0761C110.645 57.8118 109.352 78.3356 109.267 79.5807C108.979 83.7913 108.053 97.0374 106.856 101.174C105.672 105.257 100.354 106.262 96.7404 106.646C93.679 106.977 90.5964 107.167 87.5177 107.267C71.7161 107.778 37.3932 107.67 36.0185 107.634C30.4505 107.378 24.2038 105.746 22.1052 99.9692C21.3289 97.3434 20.9006 94.6271 20.8313 91.8898C19.7839 79.2918 19.9452 75.4892 19.1426 56.0972C19.0294 53.3209 18.463 50.0569 19.7359 47.462C22.5276 41.7884 30.9593 42.5842 36.125 42.5276C42.2009 42.4614 93.7654 42.423 96.9574 42.397C99.7951 42.374 102.858 42.23 105.501 43.4617C110.269 45.6802 110.759 51.446 110.677 56.0722V56.0761Z" fill="#191919"/>
<path d="M64.8197 111.908C65.5637 113.588 68.3496 112.738 67.3772 110.494C67.2955 110.302 67.1721 110.13 67.0159 109.991C66.8598 109.852 66.6747 109.749 66.4741 109.69C66.2735 109.631 66.0623 109.617 65.8557 109.65C65.6492 109.682 65.4524 109.76 65.2796 109.878C64.6872 110.284 64.1688 111.375 64.838 111.955C64.8648 111.982 64.8991 112 64.9365 112.008C64.9739 112.015 65.0127 112.011 65.0479 111.997C65.0831 111.982 65.1132 111.957 65.1343 111.925C65.1554 111.894 65.1665 111.856 65.1663 111.818C65.2076 111.375 65.1202 110.902 65.4898 110.57C65.583 110.476 65.6962 110.404 65.8209 110.36C65.9456 110.316 66.0787 110.3 66.2103 110.314C66.3419 110.328 66.4687 110.371 66.5813 110.441C66.6938 110.511 66.7893 110.605 66.8607 110.716C67.0121 110.928 67.0776 111.189 67.0441 111.447C67.0107 111.705 66.8806 111.941 66.6802 112.107C66.421 112.252 66.1165 112.293 65.8282 112.222C65.54 112.15 65.2896 111.972 65.1279 111.723C65.0069 111.524 64.7276 111.7 64.8197 111.908Z" fill="#191919"/>
<path d="M61.0258 122.247C62.523 122.502 64.042 122.606 65.5599 122.556C67.2178 122.604 68.8834 122.661 70.5404 122.652C70.6498 122.646 70.753 122.599 70.8286 122.52C70.9042 122.441 70.9464 122.335 70.9464 122.226C70.9464 122.116 70.9042 122.011 70.8286 121.932C70.753 121.852 70.6498 121.805 70.5404 121.8C68.8834 121.733 67.2178 121.728 65.5599 121.72C64.0474 121.617 62.5282 121.667 61.0258 121.871C60.9856 121.883 60.9503 121.908 60.9253 121.942C60.9002 121.976 60.8867 122.017 60.8867 122.059C60.8867 122.101 60.9002 122.142 60.9253 122.176C60.9503 122.21 60.9856 122.235 61.0258 122.247Z" fill="#191919"/>
<path d="M116.853 41.5163C115.759 39.0868 113.756 37.1831 111.274 36.2142C108.113 34.9748 104.592 35.1707 101.262 35.2014C87.0767 35.332 28.8431 35.2888 24.8351 35.4548C21.706 35.4958 18.6408 36.3461 15.9378 37.923C9.8898 41.7428 11.2703 48.1144 11.5122 55.2596C11.9768 68.9972 12.3311 86.0488 13.8709 98.258C14.276 101.473 14.7224 104.729 16.4495 107.547C19.533 112.575 25.7768 114.472 31.6511 114.448C31.8776 114.448 44.9365 114.761 59.9125 114.873C59.9356 115.663 60.092 116.535 60.1804 117.369C59.854 117.329 51.0604 117.549 48.476 117.917C48.4224 117.928 48.3717 117.95 48.3278 117.983C48.2838 118.015 48.2476 118.057 48.2217 118.106C48.1959 118.154 48.181 118.207 48.1781 118.262C48.1753 118.317 48.1846 118.371 48.2053 118.422C46.8805 119.541 45.7093 120.929 44.5016 122.153C43.0156 123.652 41.4479 125.106 40.0597 126.695C40.0022 126.755 39.9705 126.835 39.9714 126.918C39.9722 127.002 40.0057 127.081 40.0644 127.14C40.1232 127.199 40.2026 127.232 40.2858 127.233C40.3689 127.234 40.449 127.202 40.509 127.144C42.0642 125.717 43.4773 124.114 44.9404 122.592C46.1576 121.324 47.5525 120.096 48.6498 118.71C52.5037 118.366 56.3731 118.226 60.2418 118.29C60.2495 118.921 60.2159 119.668 60.8418 119.988C60.9378 120.039 61.1058 120.003 61.124 119.871C61.1701 119.038 61.1357 118.202 61.0213 117.375C61.0026 116.524 60.8454 115.681 60.5557 114.879C64.0463 114.904 67.6319 114.917 71.1752 114.911C70.7198 116.347 70.6536 117.878 70.9832 119.348C70.9975 119.394 71.0261 119.435 71.0649 119.463C71.1037 119.492 71.1506 119.507 71.1988 119.507C71.2469 119.507 71.2939 119.492 71.3326 119.463C71.3714 119.435 71.4 119.394 71.4143 119.348C71.5388 118.931 71.6132 118.5 71.636 118.065C73.6002 118.327 75.2274 118.143 80.5189 118.474C81.3224 118.525 82.4687 118.536 83.1455 118.532C84.1414 119.904 85.3141 121.139 86.6332 122.204C87.9241 123.473 89.2846 124.669 90.7084 125.787C91.052 126.046 91.4764 125.479 91.1672 125.192C89.7973 123.939 88.3573 122.767 86.9903 121.506C85.9482 120.391 84.8362 119.343 83.661 118.369C83.6797 118.312 83.6785 118.251 83.6578 118.195C83.6371 118.138 83.5979 118.091 83.5468 118.06C82.7367 117.756 81.873 117.62 81.0085 117.661C79.8642 117.588 78.7189 117.533 77.5727 117.494C75.6162 117.299 73.6493 117.231 71.684 117.288C71.7378 116.438 71.8856 115.651 71.8924 114.91C82.004 114.888 91.6991 114.712 97.7826 114.23C102.945 113.819 109.263 113.518 112.799 109.142C114.629 106.879 114.801 103.748 115.16 100.966C116.677 89.2216 117.313 71.0756 118.273 57.6337C118.658 52.3595 119.111 46.4584 116.853 41.5163ZM117.476 53.6123C117.419 55.2347 115.994 78.6952 115.844 81.0356C115.52 85.9633 114.456 101.339 113.114 106.157C111.818 110.812 106.088 112.174 101.931 112.679C98.3692 113.113 94.7644 113.342 91.1788 113.463C72.9474 114.081 32.4124 113.855 31.6885 113.828C25.076 113.54 18.0421 111.399 15.7736 104.491C14.7704 101.438 14.6495 98.0996 14.396 94.9124C13.3938 82.2664 13.461 78.2248 12.572 53.5633C12.4511 50.2945 11.8712 46.6638 12.8024 43.4747C14.9912 35.9944 24.8476 36.484 30.9292 36.4043C38.1215 36.3083 99.6133 36.2353 103.285 36.2123C106.593 36.195 110.157 36.2795 112.959 38.2782C117.602 41.5864 117.656 48.4878 117.476 53.6094V53.6123Z" fill="#191919"/>
<path d="M5.61944 152.981C6.20024 152.158 19.7814 136.853 20.4562 136.092C20.8811 135.588 21.4213 135.193 22.0309 134.943C22.6406 134.692 23.3018 134.592 23.9583 134.652C33.2089 134.598 42.4623 134.539 51.7129 134.688C68.9737 134.97 106.944 134.003 108.217 134.016C109.465 134.029 111.074 133.742 112.027 134.657C112.935 135.532 122.33 148.309 125.614 151.731C126.124 152.262 126.93 151.454 126.422 150.923C123.207 147.569 115.18 136.764 113.869 135.13C113.398 134.367 112.778 133.708 112.045 133.192C110.406 132.375 91.3964 133.372 83.27 133.556C73.6508 133.776 76.1247 133.605 24.9778 133.592C22.7151 133.592 21.1138 133.688 19.623 135.54C17.9084 137.672 5.72216 151.806 5.17592 152.719C5.006 153.009 5.43224 153.246 5.61944 152.981Z" fill="#191919"/>
<path d="M124.768 156.616C125.607 155.19 127.343 152.855 126.51 152.584C125.222 152.173 5.85042 153.273 5.85042 153.273C5.85042 153.273 3.5541 153.333 5.75442 155.381C7.95474 157.428 8.05842 157.951 12.0309 157.798C16.0034 157.644 113.464 157.333 116.18 157.376C118.897 157.42 124.236 157.519 124.768 156.616Z" fill="#191919"/>
<path d="M18.2979 143.321C17.4531 144.368 13.7024 148.223 13.5507 149.177C13.5303 149.262 13.5369 149.351 13.5696 149.431C13.6023 149.512 13.6595 149.58 13.7331 149.627C14.2457 149.955 29.8092 149.627 33.2777 149.614C40.6045 149.583 92.5529 149.902 93.8672 149.919C94.8723 149.932 95.5837 149.719 95.0912 148.593C93.4121 144.753 91.7446 140.913 90.0387 137.084C89.6048 136.114 89.2582 135.983 88.2147 135.988C88.2147 135.988 25.8944 135.988 23.9235 135.965C23.8324 135.97 23.7465 136.009 23.6837 136.075C23.6208 136.141 23.5858 136.229 23.5858 136.321C23.5858 136.412 23.6208 136.5 23.6837 136.566C23.7465 136.632 23.8324 136.671 23.9235 136.676C36.2432 136.796 85.3433 136.643 88.8003 136.848C89.0797 136.865 88.7043 136.215 94.1917 148.588C94.2685 148.76 94.2483 149.068 93.3392 149.09C92.7085 149.103 32.4329 148.849 18.6272 148.952C17.8937 148.952 14.7814 149.082 14.8044 148.898C14.8812 148.28 19.6784 143.182 23.7718 136.909C23.9129 136.693 23.5798 136.517 23.4339 136.712C23.4262 136.709 20.1728 140.998 18.2979 143.321Z" fill="#191919"/>
<path d="M96.7602 146.977C97.0753 147.902 97.4794 148.793 97.9669 149.64C98.2549 150.035 98.4469 150.03 98.9269 150.045C101.603 150.129 109.049 149.789 116.495 149.935C116.987 149.945 119.018 150.255 118.991 149.455C118.952 148.28 115.382 144.129 110.461 136.45C109.9 135.572 109.658 135.518 108.547 135.567C106.731 135.644 96.0325 136.029 92.5016 136.143C92.0322 136.159 92.0293 136.89 92.5016 136.875C110.723 136.299 109.321 136.255 109.432 136.326C109.791 136.554 110.151 137.437 110.382 137.791C110.895 138.571 117.146 147.877 117.713 148.692C118.052 149.176 117.721 149.148 117.041 149.135C116.273 149.118 99.595 149.225 99.0526 149.22C98.3806 149.212 98.0523 147.901 97.7778 147.316C94.2584 139.793 93.6978 138.635 92.7358 137.065C92.5842 136.818 92.1915 136.893 92.299 137.145C93.9829 141.086 95.2309 143.518 96.7602 146.977Z" fill="#191919"/>
<path d="M54.6127 62.8032C54.2978 58.703 56.0527 54.4896 57.7807 52.7232C59.5642 51.0574 61.8929 50.0974 64.3322 50.0223C66.7715 49.9473 69.1548 50.7622 71.0373 52.3152C73.5499 54.5097 75.1788 57.5429 75.6204 60.8496C75.8076 61.6349 76.4844 63.6192 73.7964 63.8006C73.6044 63.8141 73.0543 63.3293 72.9775 63.1805C72.2095 61.6915 72.0818 59.975 71.4329 58.4352C70.6655 56.47 69.1987 54.8579 67.3145 53.9088C66.3705 53.4547 65.3207 53.2662 64.2777 53.3634C63.2347 53.4606 62.2379 53.84 61.3941 54.4608C59.8496 55.8475 58.8446 57.7351 58.5564 59.7907C57.6789 65.3894 59.8677 69.3561 60.4245 69.5952C60.7401 69.7039 61.0752 69.7442 61.4076 69.7133C64.0476 69.6489 74.5452 69.2333 77.0441 69.2841C77.309 69.2899 77.8994 69.3801 78.0655 69.841C78.6636 71.496 78.3247 75.5145 78.2921 75.9254C78.1644 77.5094 77.1938 76.4832 75.5714 77.5037C70.1474 76.8317 68.2495 76.5619 67.2194 76.8595C67.0067 76.9107 66.8067 77.0046 66.6316 77.1357C66.4565 77.2667 66.3099 77.4321 66.2009 77.6217C66.0601 78.0287 66.0831 78.4744 66.2652 78.8647C66.4472 79.2549 66.774 79.559 67.1762 79.7126C67.9634 80.0621 68.9109 80.1725 69.5445 80.5133C69.4908 81.5693 69.6165 81.9705 69.5647 83.0304C69.5321 83.2971 69.5583 83.5678 69.6415 83.8233C69.7346 84.0088 69.8732 84.1677 70.0442 84.2852C70.2152 84.4027 70.4132 84.475 70.6197 84.4953C71.0333 84.5306 71.4499 84.4949 71.8514 84.3898C71.8408 83.0682 72.0614 81.755 72.5033 80.5094C73.301 80.6429 74.1938 80.9664 74.9916 81.0998C75.0876 81.1209 74.2917 83.7561 74.4405 84.8208C74.4943 85.1981 75.1279 85.0953 75.1893 85.1721C76.1215 86.3549 76.4777 86.5968 77.1218 86.7533C77.8457 86.9299 77.9561 87.2582 78.0914 88.1261C79.0514 94.2432 72.8633 99.768 66.4937 99.8784C62.9244 99.9427 56.7449 99.8784 52.2722 93.4272C51.2536 92.0248 50.6846 90.3464 50.6402 88.6138C50.7549 88.1985 50.9453 87.8079 51.2018 87.4617C52.7445 85.9872 53.9532 84.7085 53.7449 82.0118C53.573 79.7741 52.6572 77.7494 50.5221 77.3491C50.3378 77.3165 49.9164 76.6819 49.8885 76.4947C49.5803 74.5158 49.5344 72.5048 49.7522 70.5139C49.8365 70.3592 49.9666 70.2344 50.1247 70.1568C51.3276 69.9005 54.3689 70.0771 55.5641 69.8515C55.6787 69.732 55.7665 69.5894 55.8218 69.4334C55.8771 69.2773 55.8985 69.1112 55.8847 68.9462C55.1771 66.9677 54.749 64.9001 54.6127 62.8032Z" fill="#FFB500"/>
<path d="M90.5559 68.2863C90.4464 70.0892 89.3472 91.8553 89.7936 93.6226C89.8088 93.6724 89.8396 93.716 89.8814 93.747C89.9232 93.778 89.9739 93.7947 90.026 93.7947C90.078 93.7947 90.1287 93.778 90.1705 93.747C90.2123 93.716 90.2431 93.6724 90.2583 93.6226C90.7728 91.9455 90.7882 70.4108 90.7613 68.2863C90.7613 68.2591 90.7505 68.2329 90.7312 68.2137C90.712 68.1944 90.6858 68.1836 90.6586 68.1836C90.6314 68.1836 90.6052 68.1944 90.586 68.2137C90.5667 68.2329 90.5559 68.2591 90.5559 68.2863Z" fill="#191919"/>
<path d="M138.449 76.5153C135.768 75.7053 132.879 75.9389 130.363 77.1691C127.099 78.7636 124.969 82.0968 123.693 85.6363C123.263 84.9049 122.596 84.3421 121.803 84.0408C120.374 83.5099 117.52 84.0408 117.441 85.9406C117.441 85.9976 117.458 86.0534 117.49 86.1008C117.522 86.1481 117.567 86.185 117.62 86.2067C117.673 86.2284 117.731 86.2339 117.787 86.2226C117.842 86.2113 117.894 86.1837 117.934 86.1432C118.937 85.3396 120.025 84.5188 121.39 85.0267C121.81 85.1807 122.181 85.4432 122.467 85.7876C122.752 86.132 122.941 86.5458 123.014 86.987C123.062 87.5393 122.94 88.0931 122.663 88.5737C122.387 89.0543 121.97 89.4386 121.469 89.675C120.772 89.9112 120.017 89.9091 119.322 89.6689C118.626 89.4287 118.031 88.9641 117.629 88.3483C117.582 88.2916 117.465 88.2993 117.474 88.3867C117.677 90.5419 120.703 91.4587 122.479 90.2788C121.574 95.5444 122.706 101.751 127.479 104.181C128.667 104.798 129.967 105.169 131.301 105.272C132.635 105.375 133.977 105.208 135.245 104.781C136.514 104.354 137.683 103.675 138.683 102.786C139.683 101.897 140.494 100.815 141.066 99.6052C141.371 98.9812 140.445 98.4302 140.127 99.0561C139.197 101.041 137.563 102.609 135.542 103.457C133.521 104.305 131.257 104.371 129.19 103.644C124.42 102.108 122.932 96.6696 123.304 92.1614C123.588 89.2711 124.396 86.4566 125.688 83.8555C126.57 81.7528 128.043 79.9507 129.927 78.6667C132.199 77.2958 134.909 76.8458 137.502 77.4091C141.681 78.3096 144.132 83.2132 143.75 87.1444C143.729 87.3499 144.027 87.3595 144.089 87.1886C145.578 83.1067 142.428 77.8852 138.449 76.5153Z" fill="#191919"/>
<path d="M137.378 96.539C135.927 97.6584 134.514 98.9208 132.592 99.035C129.197 99.2414 125.896 95.1364 128.211 88.9886C129.353 85.9608 131.845 81.7502 135.496 81.635C136.274 81.6051 137.045 81.7917 137.723 82.1741C138.401 82.5565 138.959 83.1196 139.336 83.8008C139.808 84.732 139.557 85.715 139.896 86.6404C139.992 86.9073 140.429 87.0465 140.573 86.7307C141.492 84.7089 140.075 82.2187 138.29 81.2212C135.602 79.7208 132.542 80.9332 130.617 83.0721C127.092 86.9947 123.83 95.3985 129.458 99.0753C132.267 100.913 135.742 99.2836 137.641 96.8865C137.787 96.7108 137.595 96.371 137.378 96.539Z" fill="#191919"/>
<path d="M67.9837 77.1701C69.3529 76.9978 70.7416 77.0673 72.0867 77.3756C78.4102 78.1551 84.7079 79.7823 88.76 79.5058C88.9088 79.4952 88.9683 79.261 88.7965 79.2284C85.9885 78.6927 83.0999 78.6053 80.2775 78.1196C77.5751 77.6559 74.8832 77.1221 72.1664 76.7602C70.7802 76.4421 69.355 76.3276 67.9357 76.4204C67.658 76.0273 67.2799 75.716 66.8409 75.5189C66.4018 75.3218 65.9179 75.2463 65.4397 75.3001C62.2112 75.3202 61.5191 78.8204 62.7325 80.8882C63.1159 81.5419 63.6022 82.1296 64.1725 82.6287C64.2892 82.7286 64.3724 82.8618 64.4108 83.0105C64.4493 83.1592 64.4412 83.3161 64.3875 83.4601C64.0237 84.4345 63.2077 86.5925 62.5405 88.0911C62.5128 88.1531 62.5009 88.2211 62.5058 88.2889C62.5106 88.3566 62.5322 88.4222 62.5685 88.4796C62.6047 88.5371 62.6546 88.5847 62.7137 88.6182C62.7728 88.6518 62.8393 88.6702 62.9072 88.6719C64.7927 88.7228 66.7587 88.7967 68.6394 88.7564C68.7053 88.7547 68.7698 88.7372 68.8275 88.7053C68.8852 88.6734 68.9344 88.6282 68.971 88.5733C69.0075 88.5184 69.0303 88.4555 69.0374 88.39C69.0445 88.3244 69.0358 88.2581 69.0119 88.1967C68.3696 86.5388 68.0087 84.9913 67.3511 83.39C67.2895 83.244 67.2768 83.082 67.3148 82.9282C67.3529 82.7743 67.4397 82.637 67.5623 82.5365C67.8618 82.276 68.0986 81.9512 68.255 81.5863C68.4114 81.2214 68.4834 80.8259 68.4656 80.4293C70.0016 81.0149 68.2986 83.2536 68.8832 84.3327C69.2192 84.9557 70.8666 85.2121 71.4877 85.0613C72.6003 84.7906 72.296 81.949 72.6579 81.3452C72.8816 80.9679 74.457 81.4585 74.5136 81.5583C74.4876 81.8613 74.4264 82.1603 74.3312 82.4492C74.1747 83.3132 73.4672 84.8655 74.552 85.2562C74.9647 85.3229 75.382 85.3578 75.8 85.3609C76.1208 85.4609 76.4508 85.5291 76.785 85.5644C77.8611 85.4818 77.6067 83.8258 77.7834 82.9848C78.032 81.7839 78.6531 82.0997 79.6285 82.2821C82.5529 82.9349 85.5083 83.4401 88.4835 83.7961C88.8887 83.8297 88.9895 83.1394 88.5795 83.078C86.1795 82.7151 83.8112 82.3637 81.441 81.8405C80.3156 81.4721 79.1514 81.2354 77.9715 81.1349C77.2583 81.1657 77.2247 81.6841 77.1075 82.3081C77.092 83.0217 76.977 83.7296 76.7658 84.4114C76.4682 84.8559 76.0371 84.6034 75.5581 84.5612C74.4109 84.4585 74.8314 83.8959 74.8573 83.7394C74.9619 83.1106 75.5888 81.4921 75.0138 80.9631C74.257 80.6271 73.4415 80.4431 72.6138 80.4217C72.2077 80.4831 72.1434 80.6837 72.0263 81.0351C71.8902 81.5581 71.7829 82.0882 71.7047 82.6229C71.6355 82.9493 71.7824 84.5295 70.5095 84.1589C69.7933 83.8767 69.7031 83.7749 69.6186 82.9973C69.5341 82.2197 69.9728 81.3826 69.8807 80.6185C69.8115 80.0329 69.6368 79.9791 69.0493 79.8409C68.4186 79.6921 67.6784 79.7583 67.1504 79.3148C66.0925 78.4277 67.0237 77.4169 67.9837 77.1701Z" fill="#191919"/>
<path d="M114.977 77.9812V78.153C114.977 78.1684 115.002 78.1684 115.002 78.153C115.002 78.0964 115.002 78.0378 115.01 77.9812C115.009 77.963 114.977 77.961 114.977 77.9812Z" fill="#191919"/>
<path d="M40.0131 127.461C40.0131 127.461 90.7587 126.807 91.2512 126.914C91.7437 127.022 91.1303 130.304 89.6192 130.294C88.1082 130.285 42.776 130.651 42.0426 130.361C41.3091 130.071 39.2307 127.472 40.0131 127.461Z" fill="#191919"/>
<path d="M145.771 82.1238C147.487 82.1439 159.559 80.7692 161.252 80.941C162.987 81.1177 185.18 85.6009 186.905 85.526C187.036 85.526 187.119 85.3187 186.979 85.2543C185.374 84.5238 163.521 80.2623 161.471 80.079C159.703 79.9244 148.82 80.7586 145.754 81.9673C145.736 81.9723 145.72 81.9836 145.709 81.9993C145.698 82.015 145.694 82.034 145.696 82.0529C145.698 82.0718 145.707 82.0893 145.72 82.1023C145.734 82.1153 145.752 82.1229 145.771 82.1238Z" fill="#191919"/>
<path d="M138.253 90.286C151.405 90.8802 157.357 84.478 166.63 86.35C167.04 86.4316 167.618 86.4268 167.706 86.0188C167.802 85.5848 167.205 85.4101 166.771 85.316C163.307 84.4357 159.654 84.6626 156.326 85.965C150.541 88.2332 144.449 89.6245 138.253 90.093C138.227 90.093 138.203 90.1032 138.185 90.1213C138.166 90.1393 138.156 90.1639 138.156 90.1895C138.156 90.2151 138.166 90.2396 138.185 90.2577C138.203 90.2758 138.227 90.286 138.253 90.286Z" fill="#191919"/>
<path d="M139.371 92.9215C143.648 97.8021 151.67 95.7803 157.094 94.8309C162.437 93.8939 166.753 96.2805 171.926 96.9429C173.733 97.1771 176.026 97.3768 177.71 96.5378C178.013 96.3861 177.822 96.0021 177.556 95.9685C176.404 95.8274 174.643 96.4178 170.879 95.6392C168.552 95.1592 166.381 94.2952 164.105 93.6789C158.386 92.1429 152.777 95.5029 147.121 95.0363C140.225 94.4718 138.062 90.2363 137.926 90.2363C138.249 91.2079 138.738 92.1163 139.371 92.9215Z" fill="#191919"/>
<path d="M142.039 102.328C146.013 102.533 149.999 102.727 153.943 103.273C159.437 104.032 164.657 106.542 170.279 106.206C175.902 105.87 181.241 103.589 186.902 103.543C186.966 103.541 187.029 103.518 187.08 103.478C187.13 103.438 187.167 103.383 187.184 103.321C187.201 103.258 187.198 103.192 187.174 103.132C187.151 103.071 187.108 103.02 187.053 102.986C184.061 101.428 181.518 103.003 177.443 103.817C173.961 104.51 170.579 105.47 167.038 104.995C162.67 104.41 158.541 102.719 154.154 102.167C150.125 101.595 146.037 101.561 141.999 102.064C141.849 102.09 141.895 102.322 142.039 102.328Z" fill="#191919"/>
<path d="M22.4999 148.134C22.5022 148.134 22.5041 148.132 22.5055 148.13C22.5069 148.128 22.5077 148.126 22.5077 148.124C22.5077 148.121 22.5069 148.119 22.5055 148.117C22.5041 148.115 22.5022 148.114 22.4999 148.113C22.4977 148.114 22.4957 148.115 22.4943 148.117C22.4929 148.119 22.4922 148.121 22.4922 148.124C22.4922 148.126 22.4929 148.128 22.4943 148.13C22.4957 148.132 22.4977 148.134 22.4999 148.134Z" fill="#191919"/>
<path d="M90.0995 144.52C89.2355 144.507 87.7821 144.496 85.8611 144.488C85.3984 143.332 86.0627 145.052 84.1907 140.333C85.8727 140.333 87.1619 140.333 87.9511 140.342C88.03 140.342 88.1057 140.311 88.1615 140.255C88.2173 140.199 88.2487 140.123 88.2487 140.045C88.2487 139.966 88.2173 139.89 88.1615 139.834C88.1057 139.778 88.03 139.747 87.9511 139.747C87.1437 139.735 85.7623 139.725 83.9431 139.717C83.5053 138.661 83.3613 138.499 83.0119 138.313C82.9841 138.297 82.9533 138.288 82.9215 138.286C82.8898 138.284 82.858 138.289 82.8284 138.3C82.7989 138.312 82.7723 138.33 82.7507 138.354C82.7292 138.377 82.7131 138.405 82.7037 138.436C82.5914 138.757 82.577 138.953 82.841 139.713C79.4752 139.702 74.921 139.695 69.833 139.694C69.6335 139.096 69.3719 138.52 69.0525 137.977C69.03 137.941 68.9967 137.913 68.9574 137.898C68.9181 137.882 68.8748 137.879 68.8339 137.89C68.793 137.901 68.7566 137.924 68.73 137.957C68.7033 137.99 68.6879 138.03 68.6858 138.073C68.6986 138.617 68.7629 139.158 68.8778 139.69C64.5472 139.69 59.8682 139.69 55.2295 139.701C55.2064 139.293 55.1824 138.885 55.1575 138.476C55.1537 138.419 55.1285 138.366 55.0869 138.327C55.0452 138.288 54.9903 138.266 54.9333 138.266C54.8763 138.266 54.8214 138.288 54.7797 138.327C54.7381 138.366 54.7129 138.419 54.7091 138.476C54.6679 138.885 54.6266 139.294 54.5882 139.702C49.7546 139.709 44.9882 139.719 40.721 139.733C40.7559 139.361 40.706 138.987 40.5751 138.637C40.5338 138.534 40.3984 138.466 40.3139 138.565C40.0427 138.903 39.8664 139.307 39.8032 139.735C34.9475 139.752 30.8128 139.772 28.0864 139.795C28.3668 139.361 28.5998 138.897 28.7815 138.413C28.9255 138.004 28.3101 137.629 28.0269 137.978C27.5534 138.57 27.1031 139.181 26.6771 139.809C26.0245 139.813 25.372 139.825 24.7197 139.846C24.668 139.846 24.6184 139.866 24.5819 139.903C24.5454 139.939 24.5248 139.989 24.5248 140.041C24.5248 140.092 24.5454 140.142 24.5819 140.178C24.6184 140.215 24.668 140.236 24.7197 140.236C25.1661 140.269 25.7047 140.299 26.3258 140.327C24.0458 143.715 24.233 143.351 23.4189 144.579C22.5394 144.582 21.66 144.595 20.7808 144.619C20.7291 144.619 20.6796 144.639 20.643 144.676C20.6065 144.713 20.5859 144.762 20.5859 144.814C20.5859 144.865 20.6065 144.915 20.643 144.952C20.6796 144.988 20.7291 145.009 20.7808 145.009C21.3175 145.047 22.0941 145.08 23.0752 145.105C22.589 145.857 22.1575 146.644 21.784 147.459C21.7731 147.478 21.7659 147.498 21.763 147.52C21.7601 147.542 21.7615 147.564 21.7671 147.585C21.7785 147.628 21.8063 147.664 21.8445 147.686C21.8827 147.708 21.9281 147.714 21.9708 147.703C22.0135 147.692 22.0499 147.664 22.072 147.626C22.648 146.789 23.2883 145.95 23.9488 145.13C27.2128 145.204 32.2211 145.233 38.0685 145.238C37.8023 145.971 37.6342 146.736 37.5683 147.513C37.5501 147.793 37.912 147.831 38.0483 147.644C38.55 146.907 38.9359 146.098 39.1927 145.244C43.8592 145.244 49.0039 145.232 54.1927 145.213C54.0975 146.026 54.1898 146.851 54.4624 147.623C54.4917 147.673 54.5337 147.715 54.5843 147.744C54.6348 147.773 54.6921 147.788 54.7504 147.788C54.8087 147.788 54.866 147.773 54.9166 147.744C54.9671 147.715 55.0091 147.673 55.0384 147.623C55.3454 146.857 55.4712 146.031 55.4061 145.208C60.5152 145.188 65.632 145.163 70.3408 145.142C70.5489 145.892 70.8447 146.614 71.2221 147.294C71.2565 147.349 71.3075 147.392 71.3678 147.415C71.4281 147.439 71.4944 147.442 71.5568 147.425C71.6193 147.408 71.6746 147.372 71.7146 147.321C71.7546 147.27 71.7771 147.207 71.7789 147.143C71.7463 146.465 71.6407 145.793 71.464 145.137C76.7114 145.113 81.3923 145.094 84.904 145.093C85.2234 145.98 85.6602 146.819 86.2029 147.589C86.3392 147.771 86.729 147.748 86.6983 147.456C86.5953 146.646 86.3938 145.853 86.0983 145.092C87.8128 145.092 89.1779 145.101 90.1034 145.115C90.1425 145.115 90.1811 145.107 90.2171 145.092C90.2531 145.077 90.2858 145.055 90.3133 145.027C90.3407 144.999 90.3624 144.966 90.3771 144.93C90.3919 144.894 90.3993 144.855 90.3991 144.816C90.3988 144.777 90.3909 144.738 90.3757 144.702C90.3605 144.666 90.3384 144.633 90.3105 144.606C90.2827 144.578 90.2498 144.557 90.2136 144.542C90.1774 144.527 90.1386 144.52 90.0995 144.52ZM24.3981 144.574C25.6115 143.083 26.8327 141.653 27.7053 140.381C30.6333 140.477 34.7968 140.52 39.5911 140.536C39.2429 141.883 38.8202 143.209 38.3248 144.509C32.5216 144.527 27.5719 144.549 24.3981 144.574ZM39.4202 144.507C40.3245 141.461 40.4186 141.435 40.6067 140.539C44.92 140.549 49.6941 140.539 54.5114 140.517C54.2944 142.929 54.3645 143.039 54.2445 144.475C49.3031 144.482 44.3616 144.493 39.4202 144.507ZM55.3735 144.473C55.3178 143.191 55.385 142.841 55.2717 140.513C59.9757 140.491 64.6931 140.458 69.0487 140.428C69.2887 141.364 69.0074 140.181 70.145 144.46C65.4871 144.463 60.424 144.466 55.3735 144.473ZM71.273 144.464L70.0672 140.42C75.1792 140.383 79.7306 140.35 83.0714 140.336C83.8211 142.301 83.5831 141.549 84.6688 144.484C81.1917 144.471 76.5194 144.465 71.273 144.464Z" fill="black"/>
<path d="M113.417 145.268C112.899 145.082 112.44 145.008 110.201 145.039C109.325 143.33 108.359 141.668 107.307 140.061C108.265 140.113 109.225 140.028 110.158 139.807C110.219 139.788 110.273 139.75 110.311 139.698C110.349 139.646 110.37 139.584 110.37 139.519C110.37 139.455 110.349 139.392 110.311 139.34C110.273 139.288 110.219 139.25 110.158 139.231C109.006 138.976 107.821 138.917 106.65 139.056C106.335 138.585 106.015 138.117 105.69 137.653C105.654 137.595 105.597 137.554 105.532 137.538C105.466 137.521 105.396 137.531 105.338 137.565C105.279 137.599 105.236 137.655 105.218 137.72C105.2 137.786 105.208 137.856 105.241 137.915L105.895 139.082C104.295 139.141 101.705 139.251 100.008 139.328C99.6065 138.684 99.1295 138.091 98.5868 137.561C98.5599 137.536 98.5258 137.521 98.4895 137.517C98.4533 137.513 98.4167 137.52 98.3851 137.539C98.3535 137.557 98.3287 137.585 98.3142 137.619C98.2997 137.652 98.2963 137.689 98.3045 137.725C98.4616 138.294 98.6702 138.847 98.9276 139.378C97.7834 139.364 96.6406 139.463 95.5157 139.673C95.4751 139.685 95.4394 139.71 95.4141 139.744C95.3887 139.778 95.375 139.819 95.375 139.861C95.375 139.904 95.3887 139.945 95.4141 139.979C95.4394 140.013 95.4751 140.038 95.5157 140.05C96.7852 140.312 98.0866 140.382 99.3768 140.259C99.8895 141.203 100.471 142.123 100.952 143.012C101.341 143.728 101.707 144.496 102.097 145.251C100.864 145.199 99.6293 145.292 98.4178 145.528C98.3739 145.536 98.3342 145.56 98.3057 145.594C98.2772 145.628 98.2616 145.672 98.2616 145.716C98.2616 145.761 98.2772 145.804 98.3057 145.839C98.3342 145.873 98.3739 145.897 98.4178 145.905C99.7885 146.162 101.187 146.24 102.577 146.138C102.961 146.84 103.42 147.497 103.945 148.1C104.089 148.259 104.317 148.086 104.281 147.908C104.155 147.3 103.967 146.707 103.72 146.137C105.761 146.129 108.461 146.105 109.768 146.086C110.069 146.628 110.413 147.146 110.796 147.635C110.942 147.827 111.291 147.731 111.212 147.461C111.069 146.989 110.897 146.526 110.695 146.076C111.612 146.14 112.533 146.062 113.426 145.845C113.488 145.825 113.542 145.786 113.579 145.733C113.617 145.681 113.637 145.617 113.636 145.553C113.635 145.488 113.613 145.425 113.573 145.374C113.534 145.323 113.479 145.285 113.417 145.268ZM103.288 145.219C102.819 144.287 102.272 143.384 101.795 142.519C101.398 141.801 100.996 141.009 100.555 140.236C101.995 140.205 103.898 140.152 106.45 140.082C107.84 142.578 108.65 144.074 109.189 145.057C107.918 145.076 106.675 145.118 103.288 145.215V145.219Z" fill="black"/>
</svg>
