<svg width="192" height="193" viewBox="0 0 192 193" fill="none" xmlns="http://www.w3.org/2000/svg">
<path d="M47.0249 75.7788C48.6828 77.1967 51.2489 79.0687 53.2034 77.0623C53.4982 76.7685 53.1238 76.3135 52.7494 76.4738C50.7967 77.4338 48.8978 76.5804 47.2658 75.4044C47.1055 75.2968 46.8377 75.6184 47.0249 75.7788Z" fill="#191919"/>
<path d="M51.7874 72.3297C51.5591 71.9746 51.2225 71.7026 50.8274 71.554C50.7914 71.5436 50.7534 71.5421 50.7168 71.5496C50.6801 71.5572 50.6458 71.5735 50.6168 71.5972C50.5878 71.6209 50.565 71.6512 50.5504 71.6857C50.5357 71.7201 50.5296 71.7576 50.5326 71.7949C50.6449 72.4717 50.9307 73.1077 51.3621 73.641C51.073 73.7466 50.7781 73.8357 50.4789 73.9079C50.2658 73.9348 50.3454 74.2295 50.5326 74.2564C52.4344 74.5281 52.8808 73.7879 51.7874 72.3297Z" fill="#191919"/>
<path d="M52.2696 69.5742C52.2673 69.9988 52.3587 70.4187 52.5374 70.8039C52.5928 70.894 52.6732 70.966 52.7687 71.0113C52.8643 71.0566 52.9709 71.0732 53.0757 71.0591C53.1805 71.045 53.2789 71.0007 53.3591 70.9318C53.4392 70.8628 53.4976 70.772 53.5272 70.6705C53.699 70.2404 53.3246 69.2305 52.6709 69.2305C52.5758 69.2367 52.4853 69.2735 52.413 69.3355C52.3407 69.3975 52.2903 69.4812 52.2696 69.5742Z" fill="#191919"/>
<path d="M47.4531 70.6972C47.4887 71.0437 47.5866 71.3922 47.6451 71.7407C47.6989 72.141 47.9399 72.6229 48.4208 72.4357C49.2234 72.141 48.6618 70.7769 48.2874 70.3497C48.2191 70.2807 48.1318 70.2337 48.0367 70.2146C47.9415 70.1955 47.8429 70.2053 47.7533 70.2426C47.6637 70.2799 47.5873 70.3431 47.5338 70.4241C47.4804 70.5051 47.4523 70.6001 47.4531 70.6972Z" fill="#191919"/>
<path d="M45.9586 69.6285C46.3867 69.6554 46.7611 69.281 47.1355 69.0938C47.5368 68.8797 48.0178 68.7731 48.2875 68.3719C48.3121 68.3252 48.3261 68.2737 48.3284 68.221C48.3307 68.1684 48.3212 68.1158 48.3008 68.0672C48.2803 68.0187 48.2493 67.9752 48.2099 67.9401C48.1706 67.9049 48.124 67.8789 48.0735 67.864C47.5647 67.6499 47.0031 68.0243 46.6018 68.3181C46.2543 68.5859 45.7195 68.9335 45.7733 69.4413C45.7804 69.4881 45.8022 69.5314 45.8355 69.5651C45.8687 69.5987 45.9119 69.6209 45.9586 69.6285Z" fill="#191919"/>
<path d="M57.0551 63.3686C57.7636 57.4656 51.3172 52.5773 46.6506 58.5005C46.181 59.2475 45.539 59.871 44.7786 60.3187C43.6506 60.8246 41.9457 60.2227 39.8826 60.72C39.2301 60.9081 38.6333 61.2525 38.144 61.7234C37.6546 62.1943 37.2876 62.7775 37.0746 63.4224C36.129 66.3091 38.5012 68.4403 39.3008 70.7078C39.1281 71.063 39.0334 71.4511 39.023 71.846C39.0127 72.2408 39.087 72.6333 39.241 72.9971C39.3949 73.3609 39.625 73.6875 39.9156 73.9549C40.2063 74.2224 40.5509 74.4246 40.9261 74.5478C41.5876 77.7437 42.6685 80.2886 42.4506 84.7651C42.4237 85.8614 42.0493 87.0921 42.344 88.1625C42.3635 88.2324 42.4033 88.2949 42.4584 88.3421C42.5134 88.3893 42.5813 88.4191 42.6533 88.4276C42.7254 88.4362 42.7983 88.4231 42.8629 88.3901C42.9275 88.3571 42.9808 88.3056 43.0161 88.2422C43.4518 87.2225 43.6267 86.1103 43.5248 85.0061C43.6506 82.0464 43.088 77.375 41.625 74.6813C42.0225 74.6828 42.4123 74.5717 42.7492 74.3606C42.7882 74.3357 42.8182 74.299 42.8349 74.2558C42.8517 74.2127 42.8542 74.1653 42.8423 74.1206C42.8303 74.0759 42.8044 74.0362 42.7683 74.0072C42.7322 73.9782 42.6879 73.9614 42.6416 73.9593C39.13 73.6329 39.7386 71.0793 40.9837 70.6425C41.5453 70.4505 42.081 70.7645 42.6685 70.6963C42.9479 70.6637 43.0247 70.44 42.9316 70.1952L43.3367 69.9744C44.0294 69.5649 44.5988 68.976 44.9849 68.2699C45.371 67.5639 45.5594 66.7667 45.5303 65.9625C45.5303 66.2294 48.178 67.6205 49.3818 67.7808C50.6625 68.0111 51.9778 67.9627 53.2381 67.6387C53.5376 68.2684 53.9408 68.8867 54.1981 69.5193C55.3887 72.4323 55.7136 75.6269 55.1341 78.72C53.9312 84.3638 46.7754 82.6137 44.9706 78.3724C44.914 78.24 44.7297 78.3456 44.7565 78.4531C45.0294 79.9067 45.8127 81.215 46.9651 82.1419C48.1176 83.0689 49.5633 83.5535 51.0416 83.5085C50.7748 86.0227 50.9504 88.8643 52.6736 90.8371C52.7379 90.8984 52.8204 90.937 52.9087 90.9469C52.997 90.9568 53.086 90.9376 53.1623 90.892C53.2385 90.8465 53.2977 90.7772 53.3309 90.6948C53.364 90.6124 53.3692 90.5214 53.3456 90.4358C52.6909 88.6041 51.8279 87.5424 51.4727 83.4547C56.24 83.1417 57.1367 78.2841 56.528 73.5312C56.2436 71.2751 55.5289 69.0946 54.4228 67.1078C55.1134 66.7212 55.7084 66.1846 56.164 65.5374C56.6195 64.8903 56.9241 64.1491 57.0551 63.3686Z" fill="#191919"/>
<path d="M36.6232 128.468C38.9889 126.727 41.2158 124.804 43.2837 122.718C46.1186 120.126 72.0098 96.1256 73.4277 94.8469C74.6347 93.9067 75.7457 92.8493 76.7445 91.6904C77.092 91.2104 76.4229 90.6747 75.9688 90.9147C75.2316 91.3438 77.7996 88.9198 43.7128 120.819C41.2524 123.123 38.4444 125.338 36.2776 127.96C36.0348 128.257 36.3026 128.685 36.6232 128.468Z" fill="#191919"/>
<path d="M39.2437 130.183C52.5129 119.319 64.5474 106.94 76.8239 94.9832C77.2521 94.5828 76.6098 93.9406 76.1817 94.3419C64.0118 106.485 51.2217 117.906 38.709 129.648C38.3615 129.969 38.8761 130.484 39.2437 130.183Z" fill="#191919"/>
<path d="M84.74 87.04C88.7653 83.68 92.3019 80.1472 107.262 65.1875C107.663 64.7863 107.021 64.1181 106.619 64.5462C96.6123 74.9968 88.2018 82.2995 84.2053 86.5053C84.1375 86.5768 84.1003 86.672 84.1016 86.7706C84.1029 86.8691 84.1427 86.9632 84.2123 87.0329C84.282 87.1026 84.3762 87.1424 84.4747 87.1437C84.5733 87.145 84.6685 87.1078 84.74 87.04Z" fill="#191919"/>
<path d="M65.6155 113.225C70.1704 112.171 74.282 109.719 77.3753 106.214C80.4685 102.708 82.3889 98.3231 82.8677 93.6724C83.0011 92.4417 83.2689 92.8429 82.7601 91.6929C82.5681 91.2916 82.0113 91.4529 81.8779 91.8004C81.5035 92.8698 81.7176 92.3082 81.6101 93.4583C81.0924 97.9005 79.2912 102.095 76.4268 105.53C73.5624 108.964 69.7591 111.49 65.4821 112.797C65.2411 112.877 65.3477 113.305 65.6155 113.225Z" fill="#191919"/>
<path d="M76.2367 89.5547C76.6689 89.5999 77.0863 89.7378 77.4602 89.9592C77.8342 90.1806 78.1559 90.4801 78.4034 90.8373C78.8585 91.4258 78.9113 92.2543 79.4201 92.7899C79.4687 92.8354 79.5266 92.8697 79.5899 92.8905C79.6531 92.9113 79.7201 92.9181 79.7862 92.9105C79.8524 92.9028 79.916 92.8808 79.9728 92.8461C80.0296 92.8113 80.0782 92.7647 80.1151 92.7093C81.0204 91.4786 79.1292 88.6619 76.2098 88.804C76.1103 88.8076 76.0162 88.8505 75.9483 88.9235C75.8805 88.9964 75.8443 89.0933 75.8479 89.1928C75.8515 89.2924 75.8944 89.3864 75.9673 89.4543C76.0403 89.5222 76.1372 89.5583 76.2367 89.5547Z" fill="#191919"/>
<path d="M77.5671 87.7639C77.7764 88.0087 78.0471 87.9779 78.3428 88.0048C80.7629 88.3677 80.1475 89.6906 81.2314 90.3578C81.299 90.3959 81.3771 90.4114 81.4542 90.4019C81.5312 90.3924 81.6032 90.3584 81.6596 90.305C82.9325 88.9984 80.2339 86.1885 78.1075 87.041C77.8925 87.1466 77.3242 87.4759 77.5671 87.7639Z" fill="#191919"/>
<path d="M79.4446 85.8083C82.3054 86.4217 81.9924 87.975 82.5166 89.0723C82.5602 89.1429 82.6211 89.2013 82.6936 89.2417C82.7661 89.2822 82.8478 89.3034 82.9308 89.3034C83.0138 89.3034 83.0955 89.2822 83.168 89.2417C83.2405 89.2013 83.3014 89.1429 83.345 89.0723C84.5585 87.4259 81.9895 83.9401 79.3332 85.3004C79.1498 85.3801 79.1998 85.7564 79.4446 85.8083Z" fill="#191919"/>
<path d="M34.9638 137.138C33.3856 136.791 31.9946 136.818 31.0048 135.293C29.9882 133.742 30.3626 132.137 30.3894 130.452C30.4293 130.364 30.4499 130.268 30.4499 130.171C30.4499 130.074 30.4293 129.978 30.3894 129.89C30.3799 129.816 30.3459 129.746 30.2928 129.693C30.2396 129.639 30.1703 129.605 30.0957 129.595C27.5323 127.871 25.3478 125.641 23.6762 123.043C20.3536 117.252 21.7562 112.478 21.5901 110.525C21.5632 110.23 21.135 110.045 20.9747 110.365C19.9581 112.424 20.1184 115.366 20.44 117.586C20.8243 120.309 21.833 122.907 23.3872 125.176C24.9415 127.445 26.9992 129.324 29.3997 130.666C29.1404 131.617 29.0947 132.614 29.2658 133.585C29.4369 134.556 29.8206 135.477 30.3894 136.283C31.3494 137.513 33.7331 138.931 35.0934 137.539C35.1127 137.505 35.1247 137.467 35.1286 137.427C35.1324 137.388 35.1282 137.348 35.116 137.311C35.1038 137.273 35.0841 137.238 35.0579 137.209C35.0317 137.179 34.9997 137.155 34.9638 137.138Z" fill="#191919"/>
<path d="M32.6629 134.248C32.5285 135.078 33.7055 135.688 34.3477 135.934C36.5721 136.824 37.5157 135.499 36.9685 135.262C36.2669 135.088 35.5505 134.981 34.8287 134.941C33.5548 134.601 33.4578 134.067 32.8761 134.112C32.7695 134.115 32.6629 134.169 32.6629 134.248Z" fill="#191919"/>
<path d="M34.6172 132.592C34.6575 134.492 38.6569 135.106 38.87 133.047C38.8722 133.011 38.8669 132.975 38.8543 132.942C38.8416 132.908 38.8221 132.878 38.7969 132.853C38.7716 132.827 38.7413 132.808 38.7079 132.795C38.6745 132.782 38.6388 132.777 38.6031 132.779C37.9877 132.806 37.4511 133.099 36.8377 133.073C36.1943 132.998 35.5838 132.748 35.0722 132.351C35.0281 132.323 34.9773 132.307 34.9251 132.305C34.8729 132.303 34.821 132.315 34.7748 132.339C34.7287 132.364 34.6898 132.4 34.6621 132.444C34.6344 132.489 34.6189 132.539 34.6172 132.592Z" fill="#191919"/>
<path d="M36.2207 130.343C36.3013 131.783 38.494 132.669 39.6709 132.001C40.0722 131.76 39.9119 131.065 39.4309 131.117C38.9334 131.207 38.4224 131.189 37.9324 131.065C37.4498 130.859 37.0133 130.559 36.6489 130.181C36.4885 130.048 36.1919 130.099 36.2207 130.343Z" fill="#191919"/>
<path d="M29.7751 112.022C28.9581 113.998 28.6714 116.153 28.9435 118.273C29.2157 120.394 30.0371 122.407 31.3265 124.112C32.1022 125.156 33.2263 126.704 34.5636 127.001C34.6712 127.026 34.7838 127.02 34.888 126.983C34.9922 126.946 35.0835 126.88 35.1511 126.792C35.2187 126.705 35.2597 126.6 35.2693 126.49C35.2788 126.38 35.2565 126.269 35.2049 126.171C34.6433 125.156 33.4394 124.487 32.6906 123.551C31.4498 121.965 30.5899 120.115 30.1773 118.144C29.7647 116.173 29.8103 114.134 30.3108 112.183C30.4174 111.808 29.9095 111.701 29.7751 112.022Z" fill="#191919"/>
<path d="M26.9112 135.373C23.4072 138.958 16.7208 143.932 18.7512 145.698C20.7057 147.382 27.9278 140.374 29.5329 138.262C29.8536 137.86 29.2113 137.486 28.8609 137.753C26.7096 139.499 20.5579 146.275 19.3128 145.029C18.3173 144 23.7835 140.053 27.3902 135.881C27.6869 135.507 27.2625 135.079 26.9112 135.373Z" fill="#191919"/>
<path d="M132.724 62.0051C131.043 59.9997 128.899 57.6985 126.545 56.5216C126.171 56.3296 125.585 56.7625 125.903 57.1638C127.354 58.9 128.977 60.486 130.745 61.8976C126.973 62.0896 123.202 62.1654 119.431 62.1117C115.338 62.0589 106.752 61.3629 106.485 61.4704C105.587 62.0148 104.79 62.7116 104.131 63.5296C103.171 64.4656 89.9548 77.2777 87.7353 79.4713C86.1033 81.0755 83.9634 82.7075 82.6799 84.6333C82.4879 84.9001 82.8402 85.1949 83.1081 85.0614C85.0866 83.9641 86.7724 81.9318 88.4034 80.3805C90.7074 78.2137 106.217 63.2617 107.074 62.5129C113.882 63.4269 125.437 63.3837 132.269 63.0477C132.39 63.0496 132.51 63.0156 132.612 62.9498C132.714 62.884 132.795 62.7894 132.844 62.678C132.892 62.5665 132.907 62.4431 132.885 62.3234C132.864 62.2037 132.808 62.0929 132.724 62.0051Z" fill="#191919"/>
<path d="M61.1744 112.074C61.3742 116.528 61.8297 120.966 62.5385 125.367C62.5385 125.367 53.0969 129.915 43.6016 128.203L61.1744 112.074Z" fill="#FFB500"/>
<path d="M62.325 101.242C63.285 100.199 67.4869 96.6687 67.4341 96.4815C67.1039 95.568 66.7014 94.6823 66.2302 93.8329C62.3787 86.6646 52.1077 85.2476 52.1077 85.2476C52.1077 85.2476 53.6859 88.7996 53.7397 89.0723C54.6488 94.1814 49.5934 92.8163 47.347 92.1443C39.8043 89.8979 42.0776 85.1094 42.0776 85.1094C40.3779 85.4615 38.6992 85.9079 37.0491 86.4467C23.4075 91.479 19.075 107.156 19.1816 107.26C23.8357 112.316 32.8232 110.39 32.8232 110.39C33.6517 106.512 33.9752 105.896 35.0965 104.185C34.2142 109.694 33.2245 118.093 36.0565 125.636L61.0654 102.419C61.2574 102.259 60.3166 97.3907 60.1294 96.4009C60.1323 96.6188 61.2939 98.4303 62.325 101.242Z" fill="#FFB500"/>
<path d="M92.3088 97.9812C92.2953 99.7466 93.0576 101.699 93.5126 103.411C93.9926 105.256 94.4217 107.129 95.0371 108.947C95.7321 111.059 97.6848 113.651 100.146 112.184C100.232 112.138 100.303 112.068 100.35 111.983C100.397 111.898 100.419 111.801 100.413 111.704C100.005 107.142 100.34 102.545 101.403 98.0896C101.563 97.3946 100.494 97.0999 100.333 97.7959C99.2608 102.349 98.9177 107.044 99.3168 111.704C99.3974 111.544 99.504 111.384 99.5846 111.224C96.6691 112.937 95.5987 107.079 95.1177 105.394C94.7433 104.056 94.3421 102.719 93.9408 101.381C93.6839 100.165 93.2702 98.9873 92.71 97.8775C92.6857 97.8381 92.6494 97.8075 92.6064 97.7902C92.5634 97.773 92.5161 97.7699 92.4712 97.7815C92.4264 97.7931 92.3864 97.8187 92.3572 97.8546C92.3279 97.8906 92.311 97.9349 92.3088 97.9812Z" fill="#191919"/>
<path d="M125.37 99.3177C126.439 102.429 127.322 105.603 128.366 108.706C129.038 110.766 129.756 113.922 132.431 114.108C133.391 114.189 134.036 113.895 134.224 112.932C134.544 111.354 134.838 109.749 135.212 108.171C135.962 104.935 137.085 101.805 137.941 98.5958C138.102 98.0342 137.219 97.606 136.981 98.1945C135.496 102.233 134.334 106.383 133.504 110.605C133.467 111.287 133.341 111.962 133.129 112.611C131.899 114.162 130.374 111.194 130.027 110.307C129.547 109.023 126.79 101.587 125.88 99.1535C125.744 98.8895 125.268 99.022 125.37 99.3177Z" fill="#191919"/>
<path d="M145.941 66.6055C146.368 63.6363 145.673 60.2129 142.089 59.9191C138.585 59.6244 135.83 62.8606 134.279 65.5889C132.308 69.3333 131.159 73.4552 130.909 77.6791C130.911 77.7734 130.947 77.8638 131.009 77.9342C131.072 78.0045 131.158 78.0502 131.251 78.063C131.345 78.0759 131.44 78.055 131.519 78.0042C131.598 77.9534 131.657 77.8759 131.685 77.7857C132.731 73.8142 133.209 69.8177 135.268 66.1774C136.205 64.386 137.587 62.8653 139.28 61.7614C141.584 60.451 144.523 61.1191 144.87 64.0347C145.084 65.9335 144.523 67.9399 144.198 69.786C142.324 80.0407 140.258 82.1009 138.199 85.1921C130.604 80.6244 105.455 80.9681 96.6456 81.6103C84.4824 82.4983 85.0642 92.4689 90.3067 93.7803C90.707 93.9415 90.8952 93.3262 90.467 93.1927C86.8565 92.0667 87.395 87.4951 89.6645 85.4091C92.3659 82.9217 96.2981 82.8948 99.7445 82.8171C110.665 82.5022 122.18 82.1739 133.098 84.7428C136.121 85.4657 140.801 87.0699 140.4 91.0289C139.998 95.0139 135.077 95.6561 131.952 95.6023C123.278 95.419 105.346 94.2113 94.6661 94.2113C94.5281 94.2171 94.3976 94.2761 94.302 94.3758C94.2064 94.4756 94.1531 94.6084 94.1531 94.7465C94.1531 94.8846 94.2064 95.0175 94.302 95.1172C94.3976 95.2169 94.5281 95.2759 94.6661 95.2817C103.868 96.0305 113.148 96.1371 122.376 96.5124C131.814 96.9358 133.433 97.0183 135.375 96.7255C141.973 95.6753 143.887 89.3911 139.009 85.7383C143.33 81.7543 145.191 72.1649 145.941 66.6055Z" fill="#191919"/>
<path d="M89.8764 74.6843C89.6844 71.9799 88.3308 65.5787 89.5816 62.6747C90.7336 60.0001 93.5944 62.6219 94.6639 64.0129C95.7871 65.4529 96.0818 67.1156 96.8575 68.7169C97.1244 69.2257 97.7935 68.931 97.8175 68.45C98.1381 65.2935 93.3237 58.37 89.6575 60.5857C87.9458 61.6292 87.9727 64.0897 87.9727 65.8283C87.9727 68.7438 88.133 72.0337 89.2562 74.762C89.4213 75.0327 89.9013 75.0327 89.8764 74.6843Z" fill="#191919"/>
<path d="M167.39 40.3929C167.206 37.4358 166.297 34.5695 164.742 32.0476C156.26 17.9126 136.875 20.1648 133.313 34.7491C130.666 45.5011 141.016 58.0723 151.745 58.1798C156.292 58.2057 161.615 57.2198 164.691 53.4989C167.55 50.0217 167.604 45.0998 167.39 40.3929ZM144.949 28.223C145.42 28.1274 145.909 28.1839 146.346 28.3843C146.783 28.5847 147.145 28.9187 147.38 29.3381C147.615 29.7576 147.711 30.2408 147.653 30.7181C147.596 31.1954 147.388 31.6421 147.061 31.9939C146.756 32.294 146.37 32.4995 145.951 32.5856C145.532 32.6718 145.097 32.6349 144.699 32.4795C144.3 32.3241 143.955 32.0567 143.705 31.7096C143.455 31.3625 143.31 30.9505 143.289 30.5232C143.268 30.0093 143.42 29.5034 143.721 29.0863C144.022 28.6693 144.454 28.3653 144.949 28.223ZM153.16 48.095C153.099 48.4346 152.968 48.7576 152.775 49.0436C152.582 49.3295 152.331 49.5721 152.039 49.7559C151.747 49.9396 151.42 50.0604 151.079 50.1107C150.737 50.1609 150.389 50.1394 150.057 50.0477C149.385 49.8062 148.831 49.3171 148.508 48.6806C148.185 48.0441 148.117 47.3082 148.318 46.6233C148.402 46.3222 148.545 46.041 148.74 45.7963C148.934 45.5516 149.176 45.3484 149.45 45.1988C149.725 45.0492 150.026 44.9562 150.337 44.9254C150.648 44.8945 150.962 44.9264 151.261 45.0192C151.899 45.2101 152.446 45.6289 152.796 46.1961C153.146 46.7633 153.276 47.4394 153.16 48.096V48.095ZM154.685 30.8697C150.077 38.3356 149.152 40.0109 143.129 48.9773C143.051 49.0978 142.929 49.1824 142.788 49.2125C142.648 49.2426 142.501 49.2156 142.381 49.1376C142.26 49.0595 142.175 48.9368 142.145 48.7964C142.115 48.6559 142.142 48.5093 142.22 48.3888C148.819 36.3648 147.39 39.1094 152.866 29.8003C153.321 29.0236 153.508 28.5158 154.417 28.3017C154.591 28.2578 154.775 28.2834 154.929 28.373C155.084 28.4627 155.198 28.6094 155.247 28.7817C155.465 29.6995 155.166 30.095 154.685 30.8707V30.8697Z" fill="#FFB500"/>
<path d="M65.183 184.026C63.263 181.626 58.3296 179.908 55.2336 179.181C55.5018 178.856 55.7102 178.486 55.8489 178.089C58.7226 171.786 60.7117 165.116 61.7596 158.268C63.0119 151.289 63.5587 144.201 63.3916 137.112C63.4028 133.702 63.0348 130.302 62.2944 126.974C62.269 126.889 62.2139 126.816 62.1392 126.769C62.0644 126.721 61.975 126.702 61.8872 126.715C61.7995 126.728 61.7194 126.772 61.6616 126.839C61.6038 126.906 61.5721 126.992 61.5724 127.081C62.2066 133.301 62.2872 139.566 61.8134 145.801C60.8256 158.987 58.4966 166.851 54.9129 177.764C54.7113 178.343 54.3495 178.854 53.8694 179.236C51.1478 180.964 48.0067 179.439 48.119 179.101C48.7315 173.278 50.4384 161.899 48.6806 148.851C48.6806 148.762 48.6452 148.676 48.5822 148.613C48.5192 148.55 48.4337 148.515 48.3446 148.515C48.2555 148.515 48.17 148.55 48.107 148.613C48.044 148.676 48.0086 148.762 48.0086 148.851C48.0624 154.013 48.2764 159.175 48.0355 164.337C47.4595 176.858 45.7526 178.725 47.904 180.354C47.398 181.794 48.096 183.082 48.624 184.344L48.7305 184.536C51.2541 185.71 53.9904 186.358 56.7725 186.441C59.5546 186.523 62.3245 186.038 64.9132 185.016C65.0062 184.98 65.0893 184.922 65.156 184.848C65.2227 184.774 65.2711 184.685 65.2974 184.589C65.3236 184.493 65.3269 184.392 65.307 184.294C65.2872 184.196 65.2447 184.104 65.183 184.026Z" fill="#191919"/>
<path d="M51.1717 135.454C46.1499 148.965 41.4046 158.507 29.8002 168.059C27.1256 170.252 18.9406 174.715 17.7646 173.302C17.6542 173.169 16.4274 172.017 17.2021 170.761C21.7208 163.487 27.3138 158.761 31.2718 148.239C32.3144 145.511 33.6517 142.248 33.5989 139.279C33.5989 139.011 33.1659 138.848 33.0373 139.118C32.3259 140.605 31.8344 143.486 30.1746 147.384C24.4232 160.891 15.1525 169.507 15.2274 171.059C14.3014 171.081 13.4155 171.441 12.7362 172.071C10.8363 174.612 11.0504 183.303 13.6184 187.396C13.694 187.52 13.8095 187.613 13.9456 187.662C14.0818 187.711 14.2305 187.712 14.3672 187.664C17.8635 186.457 19.1365 180.897 20.156 175.147C20.5625 175.141 20.9653 175.069 21.3483 174.933C21.4558 174.879 27.0718 171.616 29.4258 169.825C31.9931 167.86 34.4006 165.696 36.6258 163.351C43.9111 155.47 49.2812 146.015 52.3189 135.722C52.5358 134.998 51.4395 134.732 51.1717 135.454Z" fill="#191919"/>
<path d="M93.9695 57.6722C91.3976 50.6565 88.7797 41.8111 92.8175 34.8569C94.8229 31.4066 98.1666 29.6949 102.018 28.973C111.234 27.2815 121.521 28.6053 129.943 28.781C130.477 28.781 130.638 27.8978 130.076 27.821C120.901 26.4569 111.032 25.8146 101.858 27.5263C98.1397 28.2223 94.7423 29.7468 92.469 32.8764C90.4119 35.8486 89.3618 39.402 89.4728 43.0149C89.5256 48.3381 91.6395 52.9653 93.5115 57.8066C93.5951 58.1013 94.0808 57.966 93.9695 57.6722Z" fill="#191919"/>
<path d="M130.079 51.8391C129.489 51.0116 124.462 47.0785 122.669 45.6337C107.362 33.3111 110.26 35.1697 108.708 34.1329C107.629 32.9761 106.139 32.2888 104.558 32.2188C102.977 32.1488 101.432 32.7016 100.255 33.7585C95.8948 37.3959 100.309 41.4078 100.336 41.4615C104.401 46.1578 110.826 51.6375 115.635 55.5303C117.51 57.1975 119.503 58.7263 121.6 60.1047C121.683 60.1472 121.774 60.1696 121.868 60.17C121.961 60.1704 122.053 60.1489 122.136 60.1072C122.219 60.0656 122.291 60.0048 122.347 59.93C122.402 59.8552 122.439 59.7684 122.455 59.6766C122.509 59.569 118.231 54.1402 124.408 51.6788C125.212 51.3136 126.116 51.2338 126.972 51.4527C127.827 51.6716 128.582 52.1761 129.112 52.8826C130.184 54.3277 130.68 56.1203 130.503 57.9111C130.486 57.9759 130.493 58.0446 130.522 58.1047C130.552 58.1648 130.602 58.2121 130.664 58.2381C130.726 58.2642 130.795 58.2671 130.858 58.2463C130.922 58.2256 130.976 58.1826 131.011 58.1252C132.43 56.1994 131.277 53.5268 130.079 51.8391Z" fill="#191919"/>
<path d="M125.557 178.089C126.805 172.551 128.989 169.737 134.998 167.87C135.108 167.834 135.201 167.761 135.262 167.663C135.323 167.565 135.348 167.449 135.332 167.335C135.316 167.22 135.261 167.115 135.175 167.038C135.09 166.96 134.98 166.915 134.865 166.91C129.435 166.43 123.845 172.766 124.888 178.092C124.968 178.409 125.503 178.409 125.557 178.089Z" fill="#191919"/>
<path d="M133.048 178.033C134.459 176.935 135.509 175.519 137.113 174.637C138.71 173.857 140.429 173.359 142.195 173.165C142.294 173.137 142.38 173.077 142.442 172.995C142.504 172.913 142.537 172.813 142.537 172.711C142.537 172.608 142.504 172.508 142.442 172.426C142.38 172.344 142.294 172.285 142.195 172.256C138.745 171.507 133.288 174.101 132.595 177.792C132.589 177.847 132.6 177.903 132.626 177.952C132.652 178 132.692 178.04 132.74 178.066C132.789 178.092 132.845 178.103 132.899 178.097C132.954 178.091 133.006 178.069 133.048 178.033Z" fill="#191919"/>
<path d="M120.096 178.542C121.459 175.289 121.915 171.08 120.203 167.87C120.152 167.782 120.073 167.713 119.979 167.675C119.884 167.636 119.78 167.63 119.682 167.658C119.583 167.685 119.497 167.745 119.437 167.827C119.376 167.909 119.344 168.008 119.347 168.11C119.678 171.04 120.456 173.724 119.16 178.328C119.003 178.89 119.863 179.105 120.096 178.542Z" fill="#191919"/>
<path d="M107.711 176.188C107.77 172.901 106.684 169.695 104.639 167.12C102.74 164.767 99.5579 162.387 96.3745 162.416C96.0001 162.416 95.786 163.005 96.1604 163.165C97.484 163.642 98.7712 164.214 100.012 164.877C101.992 166.049 103.65 167.693 104.84 169.663C106.029 171.632 106.712 173.866 106.828 176.164C106.825 176.281 106.868 176.394 106.948 176.479C107.029 176.565 107.14 176.614 107.257 176.618C107.374 176.621 107.488 176.578 107.573 176.497C107.658 176.417 107.708 176.306 107.711 176.188Z" fill="#191919"/>
<path d="M97.4443 176.965C96.3685 175.545 95.7273 173.845 95.5982 172.069C95.6418 170.451 95.8751 168.844 96.2932 167.281C96.3739 166.801 95.7854 166.321 95.411 166.772C92.7095 169.822 94.234 175.091 96.5342 177.873C97.0699 178.517 97.93 177.603 97.4443 176.965Z" fill="black"/>
<path d="M89.7411 175.893C88.1091 172.563 83.911 169.822 80.1411 171.266C79.6333 171.453 79.6611 172.282 80.2745 172.282C81.9319 172.202 83.5862 172.494 85.1158 173.138C86.664 173.828 87.9554 174.989 88.807 176.454C89.1526 177.072 90.0569 176.539 89.7411 175.893Z" fill="black"/>
<path d="M147.408 179.157C150.636 176.596 153.889 177.244 155.673 177.178C155.791 177.175 155.905 177.133 155.997 177.059C156.09 176.986 156.156 176.884 156.186 176.77C156.217 176.656 156.209 176.535 156.165 176.425C156.12 176.315 156.042 176.223 155.941 176.162C152.945 174.637 148.933 176.322 146.606 178.354C146.044 178.837 146.842 179.607 147.408 179.157Z" fill="black"/>
<path d="M173.934 16.2957C173.954 16.0643 173.886 15.834 173.744 15.6505C173.601 15.4669 173.395 15.3436 173.166 15.3049C173.149 15.3049 169.693 15.5113 163.95 15.855C161.29 14.9094 156.183 13.6029 146.712 9.6227L148.132 9.58046C148.372 8.62046 149.284 6.26366 149.522 5.30078C135.144 6.03134 131.497 6.27614 130.75 6.27998C130.361 7.23998 129.392 9.35198 129.033 10.1689C133.95 10.0243 138.866 9.87198 143.782 9.71198C149.37 12.116 155.079 14.2276 160.886 16.0384L138.652 17.3699C136.37 16.3609 131.185 15.2579 120.482 10.7709L121.838 10.7305C122.079 9.77054 122.99 7.41374 123.229 6.45086C108.851 7.18238 105.204 7.42622 104.457 7.43006C104.069 8.38526 103.099 10.5021 102.741 11.319C107.676 11.1744 112.611 11.0214 117.547 10.8601C123.448 13.3993 129.476 15.633 135.606 17.5523C127.542 18.0323 118.836 18.5545 110.166 19.071C108.033 18.0227 102.87 17.0224 91.7344 12.351L93.0919 12.3107C93.3328 11.3507 94.2439 8.9939 94.4829 8.03102C80.0992 8.75678 76.4512 9.00446 75.7044 9.0083C75.3204 9.9635 74.3469 12.0803 73.9888 12.8973C78.9245 12.7526 83.8599 12.5997 88.7949 12.4384C91.7584 13.7305 101.851 17.6809 107.359 19.239C98.4064 19.7718 89.5735 20.295 81.6237 20.7673C79.1335 19.8073 73.9072 18.5536 63.8522 14.3353L65.2692 14.2931C65.5101 13.3331 66.4212 10.9763 66.6602 10.0134C52.2823 10.744 48.6343 10.9878 47.8874 10.9926C47.5034 11.9469 46.53 14.0646 46.1719 14.8816C51.0884 14.7369 56.0045 14.5846 60.9204 14.4246C63.7197 15.6467 72.8858 19.2371 78.5479 20.9526C69.1831 21.5065 61.2679 21.9702 56.1799 22.2621C56.1549 22.1633 56.1281 22.065 56.0992 21.9673C56.0723 21.8932 56.0232 21.8292 55.9587 21.7839C55.8941 21.7386 55.8171 21.7144 55.7383 21.7144C55.6594 21.7144 55.5825 21.7386 55.5179 21.7839C55.4533 21.8292 55.4042 21.8932 55.3773 21.9673C55.1364 22.4224 56.0724 50.0522 56.6608 52.4857C56.7684 52.887 57.4634 52.9408 57.544 52.4857C57.9184 50.0253 56.4477 23.7059 56.2605 22.6893C63.8858 22.6681 73.3965 22.3945 83.9565 21.9616C76.9107 24.0801 70.3451 27.5511 64.6269 32.1808C62.1631 34.4236 59.8321 36.8081 57.6458 39.3222C57.5124 39.5363 58.2074 46.8102 61.9255 49.8611C64.6807 52.1344 68.586 55.2102 72.33 54.8358C72.419 54.8613 72.5129 54.8639 72.6032 54.8435C72.6935 54.8231 72.7772 54.7802 72.8466 54.7189C72.916 54.6576 72.9687 54.5798 73.0001 54.4926C73.0314 54.4055 73.0403 54.3119 73.026 54.2205C71.5524 44.2365 73.3389 36.1811 80.3546 28.864C82.4149 26.9036 84.6533 25.1395 87.041 23.5945C87.4423 23.3008 87.2234 22.5117 86.6666 22.7123C81.2416 24.6678 76.8237 29.7741 74.176 34.7728C71.1598 40.5637 70.3153 47.2428 71.7952 53.6022C70.2797 53.2397 68.7951 52.7582 67.3552 52.1622C64.025 50.5588 61.3782 47.817 59.8932 44.4323C59.28 42.8376 58.8144 41.1901 58.5021 39.5104C61.8804 36.6822 67.9101 29.0301 82.2804 23.8624C84.8285 22.9998 87.4218 22.2768 90.0487 21.6966C113.102 20.6617 169.441 17.3574 172.475 16.9734C172.417 20.4064 172.724 23.8576 172.873 27.2867C175.067 78.2685 173.205 120.186 173.477 128.759C145.889 126.798 75.6631 121.816 67.889 121.63C67.4887 121.62 67.4887 122.238 67.889 122.271C78.089 123.103 94.2352 124.366 110.897 125.653C110.978 142.499 111.057 158.09 111.138 174.937C111.111 176.969 115.47 176.783 116.487 176.328C116.434 162.294 117.063 140.289 117.023 126.125C143.244 128.141 169.109 130.102 173.646 130.429C173.82 130.453 173.997 130.41 174.14 130.309C174.284 130.209 174.384 130.057 174.421 129.886C176.48 127.37 178.185 124.99 180.277 122.458C180.437 89.5062 180.518 20.5782 180.518 20.5782C178.011 19.702 175.752 18.2328 173.934 16.2957Z" fill="black"/>
<path d="M47.8868 10.9871C47.9054 10.943 47.9217 10.9017 47.9358 10.8633C47.8148 10.9391 47.5422 10.989 47.8868 10.9871Z" fill="#FFB500"/>
<path d="M75.7028 9.00765L75.7527 8.88477C75.6308 8.96061 75.3591 9.00957 75.7028 9.00765Z" fill="#FFB500"/>
<path d="M104.457 7.42952L104.506 7.30664C104.385 7.38248 104.113 7.43144 104.457 7.42952Z" fill="#FFB500"/>
<path d="M130.751 6.28108L130.8 6.1582C130.678 6.23404 130.405 6.283 130.751 6.28108Z" fill="#FFB500"/>
</svg>
