<svg width="192" height="193" viewBox="0 0 192 193" fill="none" xmlns="http://www.w3.org/2000/svg">
<path d="M181.039 101.373C185.176 101.373 121.362 101.333 121.56 101.358C121.272 101.297 121.15 101.737 121.438 101.797C121.927 101.887 180.429 101.999 181.084 101.737C181.418 101.737 181.291 101.31 181.039 101.373Z" fill="#FFB500"/>
<path d="M129.131 98.9963C129.118 99.2257 129.496 99.2334 129.496 98.9205C129.73 98.2168 129.631 83.5451 129.603 83.2168C130.157 83.2686 130.185 83.2331 133.942 83.2619C133.942 83.2619 133.851 97.6465 133.866 98.1621C133.866 98.4357 133.911 98.7237 133.896 98.9963C133.881 99.2238 134.23 99.2094 134.245 98.9963C134.245 99.0712 134.276 98.8494 134.276 98.7688C134.521 96.316 134.366 85.396 134.366 83.1208C134.396 83.0903 134.412 83.0495 134.412 83.007C134.412 82.9645 134.396 82.9237 134.366 82.8933C134.274 82.8297 134.171 82.7849 134.061 82.7613C133.952 82.7378 133.839 82.7359 133.73 82.756C133.634 82.756 129.881 82.7905 129.481 82.8472C129.376 82.7637 129.222 82.8251 129.222 83.0296C129.126 83.6056 129.083 98.0757 129.086 98.1726C129.126 98.4453 129.141 98.7209 129.131 98.9963Z" fill="#FFB500"/>
<path d="M140.099 98.8112C140.084 99.0387 140.433 99.0234 140.447 98.8112C140.447 98.841 140.447 98.7958 140.463 98.7507C140.463 98.72 140.463 98.6893 140.478 98.6749C140.676 97.8877 140.554 84.1414 140.554 78.7069C141.095 78.7549 145.021 78.7376 144.924 78.7376C144.887 78.9901 144.841 98.911 144.848 98.8122C144.833 99.0397 145.182 99.0243 145.197 98.8122C145.197 98.8419 145.197 98.7814 145.212 98.7517C145.209 98.7205 145.215 98.6892 145.227 98.6605C145.419 97.8925 145.323 78.8269 145.288 78.5965L145.303 78.5811C145.332 78.5504 145.348 78.5097 145.348 78.4674C145.348 78.425 145.332 78.3843 145.303 78.3536C145.114 78.2324 144.888 78.184 144.666 78.2173C144.57 78.2173 140.888 78.2547 140.447 78.3229C140.432 78.3014 140.412 78.2847 140.387 78.2748C140.363 78.2649 140.337 78.2623 140.311 78.2671C140.285 78.272 140.262 78.2842 140.243 78.3023C140.224 78.3204 140.21 78.3435 140.204 78.369C140.204 78.4688 140.039 99.6982 140.099 98.8112Z" fill="#FFB500"/>
<path d="M151.45 98.8083C151.435 99.0358 151.784 99.0358 151.8 98.8083C151.853 98.4467 151.878 98.0814 151.876 97.7158C151.997 95.0595 151.919 74.0134 151.891 73.7869C152.291 73.8224 152.196 73.8176 156.261 73.8176C156.261 73.9971 156.215 74.048 156.215 74.1814V98.8083C156.215 98.8292 156.219 98.85 156.227 98.8693C156.235 98.8886 156.247 98.9062 156.261 98.921C156.276 98.9358 156.294 98.9475 156.313 98.9556C156.332 98.9636 156.353 98.9677 156.374 98.9677C156.395 98.9677 156.416 98.9636 156.435 98.9556C156.454 98.9475 156.472 98.9358 156.487 98.921C156.502 98.9062 156.513 98.8886 156.521 98.8693C156.529 98.85 156.534 98.8292 156.534 98.8083C156.649 97.7757 156.7 96.7369 156.685 95.6979C156.772 90.1722 156.572 73.6659 156.67 73.6659C156.699 73.6355 156.716 73.5947 156.716 73.5522C156.716 73.5097 156.699 73.4689 156.67 73.4384C156.389 73.2464 156.682 73.2848 152.422 73.3626C152.224 73.3628 152.026 73.3779 151.83 73.4077C151.818 73.3832 151.799 73.3629 151.775 73.3492C151.751 73.3356 151.724 73.3292 151.696 73.3308C151.669 73.3325 151.643 73.342 151.621 73.3584C151.598 73.3748 151.582 73.3973 151.572 73.423C151.572 73.5018 151.515 73.5094 151.542 73.5901C151.424 74.1795 151.445 98.9062 151.45 98.8083Z" fill="#FFB500"/>
<path d="M163.164 98.7075V98.7833C163.149 99.0108 163.498 99.0108 163.514 98.7833V98.6921C163.511 98.656 163.516 98.6198 163.528 98.5856C163.72 97.4518 163.624 70.6188 163.59 70.303C164.133 70.351 168.056 70.3337 167.959 70.3337C167.951 70.4263 167.933 70.5177 167.906 70.6064V98.768C167.906 98.8112 167.923 98.8528 167.954 98.8834C167.984 98.914 168.026 98.9312 168.069 98.9312C168.112 98.9312 168.154 98.914 168.184 98.8834C168.215 98.8528 168.232 98.8112 168.232 98.768V98.6768C168.23 98.6358 168.235 98.5948 168.247 98.5558C168.419 97.5238 168.373 70.4806 168.308 70.2876V70.1955C168.368 70.1955 168.428 70.0409 168.339 69.9526C168.312 69.927 168.281 69.9062 168.247 69.8912C167.704 69.7724 167.143 69.7571 166.593 69.846C165.561 69.8199 164.528 69.8503 163.498 69.9372C163.468 69.8153 163.255 69.8153 163.24 69.9372C163.24 69.9929 163.186 70.0716 163.21 70.1196C163.145 70.5104 163.065 97.4796 163.104 98.599C163.164 98.6422 163.164 98.672 163.164 98.7075Z" fill="#FFB500"/>
<path d="M163.833 62.4839C162.563 62.188 161.266 62.0271 159.963 62.0039C159.919 62.0049 159.876 62.0219 159.843 62.0517C159.81 62.0815 159.789 62.1222 159.783 62.1663C159.778 62.2105 159.788 62.2551 159.813 62.2921C159.838 62.3291 159.875 62.3559 159.918 62.3677C161.1 62.6672 162.302 62.885 163.514 63.0196C161.769 64.2937 159.95 65.4644 158.067 66.5255C146.569 73.0593 134.476 74.9341 129.784 76.0535C129.511 76.1149 129.632 76.4941 129.89 76.4481C131.104 76.281 132.318 76.0237 133.516 75.7655C143.19 73.7053 152.838 70.5796 161.088 65.2612C162.001 64.6746 162.898 64.0621 163.776 63.4247C163.75 63.609 163.776 63.6551 163.625 64.7601C163.534 65.4426 163.367 66.1108 163.291 66.7933C163.261 67.1274 163.771 67.1725 163.867 66.8692C164.113 65.7646 164.281 64.6441 164.369 63.5159C164.448 62.6116 164.559 62.5751 163.833 62.4839Z" fill="#FFB500"/>
<path d="M186.593 23.9418C186.587 23.8979 186.573 23.8555 186.55 23.8171C186.528 23.7788 186.499 23.7452 186.463 23.7184C186.428 23.6916 186.388 23.6721 186.345 23.661C186.302 23.6499 186.257 23.6475 186.213 23.6538C186.117 23.6538 16.0822 24.0446 15.9843 24.0935C15.9472 24.0457 15.896 24.0107 15.8379 23.9937C15.7798 23.9766 15.7178 23.9783 15.6607 23.9985C15.6036 24.0187 15.5543 24.0564 15.5199 24.1062C15.4854 24.156 15.4676 24.2154 15.4688 24.2759C15.4688 25.4558 15.9747 114.947 15.9085 115.604C15.8931 116.014 16.5306 116.014 16.5613 115.604C16.687 113.239 16.689 113.051 16.0909 24.7156C18.0771 24.7444 185.788 24.2154 185.971 24.2154C185.971 28.785 186.472 114.598 186.41 115.209C186.396 115.619 187.032 115.619 187.063 115.209C187.508 106.854 186.605 24.0657 186.593 23.9418Z" fill="#191919"/>
<path d="M45.9845 110.008C45.9706 109.964 45.9467 109.924 45.9147 109.89C45.8828 109.857 45.8436 109.832 45.8002 109.816C45.0415 107.378 44.0333 105.026 42.7916 102.795C43.1535 102.186 43.0517 97.8034 42.9653 96.6735C42.9631 96.6277 42.9507 96.583 42.9292 96.5425C42.9077 96.5021 42.8776 96.4668 42.8409 96.4394C42.8043 96.4119 42.762 96.3928 42.7171 96.3835C42.6723 96.3742 42.6259 96.3748 42.5813 96.3855C37.7698 97.2427 32.5541 99.0562 29.3045 102.713C29.0438 102.93 28.8451 103.213 28.7285 103.532C28.6527 103.896 28.9109 104.305 29.0319 104.641C29.867 106.755 30.8287 108.817 31.9119 110.815C31.9261 110.839 31.9458 110.858 31.9692 110.872C31.9926 110.886 32.0191 110.894 32.0463 110.896C31.1228 112.549 32.4303 114.928 34.021 114.928C34.0508 115.231 34.1727 115.535 34.2178 115.824C34.5058 117.411 33.8972 118.304 34.0354 118.812C34.043 118.838 34.0563 118.861 34.0742 118.881C34.0922 118.901 34.1143 118.917 34.1391 118.927C34.1638 118.937 34.1906 118.942 34.2173 118.94C34.2441 118.939 34.2702 118.931 34.2937 118.919C35.029 118.405 34.9455 115.655 34.5663 114.852C35.1625 114.699 35.6813 114.332 36.0236 113.82C36.044 113.784 36.0537 113.743 36.0516 113.702C36.0495 113.661 36.0356 113.622 36.0117 113.588C35.9877 113.555 35.9547 113.529 35.9165 113.514C35.8782 113.498 35.8365 113.494 35.7961 113.502C35.246 113.643 34.0028 115.238 32.8066 113.532C31.8255 112.141 32.5033 110.46 33.6255 110.527C33.8785 110.566 34.1242 110.643 34.3541 110.756C34.4501 110.787 34.9244 110.626 34.9301 110.372C34.9609 109.124 35.1567 107.881 35.2642 106.639C35.2969 106.255 35.2037 106.154 35.5369 105.987C37.7982 104.896 40.1149 103.923 42.4777 103.073C42.7263 103.675 43.3109 104.848 43.4117 105.153C43.2035 105.103 42.9864 105.104 42.7782 105.154C42.57 105.204 42.3766 105.302 42.2137 105.441C42.1835 105.472 42.1644 105.513 42.1591 105.556C42.1538 105.599 42.1626 105.643 42.1843 105.68C42.2059 105.718 42.2392 105.748 42.2791 105.765C42.3191 105.782 42.3635 105.786 42.4057 105.775C42.7054 105.676 43.0283 105.671 43.3311 105.76C43.4213 105.778 43.5529 105.797 43.6191 105.73C44.236 107.157 44.7756 108.615 45.2357 110.1C44.0719 111.16 42.6047 111.829 41.0409 112.011C39.4772 112.193 37.8956 111.881 36.5189 111.117C36.0293 110.628 35.6665 111.145 35.9727 111.45C36.7894 112.253 37.367 113.267 37.6412 114.379C37.8111 115.097 37.6729 115.572 38.3391 115.804C39.499 116.242 40.7173 116.506 41.9545 116.588C41.9199 116.953 42.0658 117.904 42.3903 118.112C42.4969 118.172 42.6783 118.127 42.6937 117.99C42.7407 117.712 42.4623 117.259 42.3759 116.6C45.1205 116.581 47.2047 114.031 45.9845 110.008ZM43.9215 114.105C43.7606 114.258 43.5579 114.36 43.3393 114.397C43.1206 114.435 42.8956 114.407 42.6927 114.317C42.5016 114.231 42.3366 114.095 42.214 113.925C42.0914 113.755 42.0155 113.555 41.9938 113.347C41.9938 113.225 42.1465 113.163 42.2069 113.225C42.4796 113.498 42.6773 113.96 43.1324 113.953C43.5874 113.947 43.8466 113.456 44.0281 113.316C44.3689 113.047 44.5445 113.598 43.9186 114.105H43.9215Z" fill="#191919"/>
<path d="M42.9611 108.793C43.1486 109.117 43.2917 109.464 43.3864 109.825C43.3864 110.122 42.7566 110.18 42.46 110.158C42.3121 110.158 42.1153 110.328 42.1873 110.508C42.207 110.562 42.242 110.608 42.2878 110.642C42.3337 110.677 42.3885 110.696 42.4456 110.7C42.6859 110.74 42.9323 110.723 43.1645 110.649C43.3966 110.575 43.608 110.447 43.7809 110.276C44.0843 109.866 43.8107 109.349 43.6283 108.94C43.2433 108.014 42.6577 107.185 41.9137 106.512C41.7774 106.406 41.5499 106.542 41.6565 106.704C42.1399 107.369 42.5758 108.067 42.9611 108.793Z" fill="#191919"/>
<path d="M38.8665 107.794C38.967 107.582 39.1005 107.387 39.262 107.218C39.4233 107.07 39.5183 107.091 39.6671 106.883C39.8994 106.556 39.5529 106.408 39.3388 106.465C39.1284 106.559 38.9422 106.7 38.7945 106.877C38.6468 107.053 38.5414 107.262 38.4863 107.485C38.4143 107.849 38.7618 108.001 38.8665 107.794Z" fill="#191919"/>
<path d="M13.5234 126.197C13.9803 125.563 14.2392 124.807 14.2674 124.026C14.0833 123.242 13.8295 122.475 13.509 121.736C13.3418 120.915 13.4046 120.064 13.6905 119.277C13.7058 119.125 13.4937 119.065 13.4025 119.156C13.1971 119.423 13.047 119.729 12.961 120.054C12.875 120.38 12.8547 120.72 12.9014 121.053C12.9695 122.61 14.2098 123.594 13.5993 124.998C13.287 125.55 13.0134 126.123 12.7804 126.712C12.6287 127.243 12.6134 128.093 13.2047 128.382C13.2324 128.397 13.2641 128.402 13.2952 128.398C13.3263 128.393 13.3551 128.379 13.3773 128.357C13.3995 128.334 13.414 128.306 13.4185 128.275C13.4231 128.243 13.4174 128.212 13.4025 128.184C13.2314 127.876 13.152 127.525 13.1734 127.173C13.1948 126.821 13.3163 126.482 13.5234 126.197Z" fill="#191919"/>
<path d="M10.7658 119.278C10.809 119.582 10.7956 120.006 11.0231 120.238C11.0508 120.262 11.0841 120.28 11.1201 120.289C11.1561 120.297 11.1937 120.297 11.2296 120.288C11.2656 120.279 11.2988 120.262 11.3264 120.237C11.354 120.212 11.3751 120.181 11.3879 120.146C11.529 119.805 11.2593 119.393 11.2055 118.204C11.1604 117.551 11.145 116.884 11.1143 116.231C11.0999 116.05 10.8263 116.004 10.7956 116.186C10.6413 117.21 10.6313 118.251 10.7658 119.278Z" fill="#191919"/>
<path d="M9.04869 120.233C9.06465 120.46 9.14936 120.677 9.29157 120.855C9.31688 120.882 9.34891 120.902 9.38431 120.912C9.41971 120.922 9.45718 120.922 9.4928 120.913C9.52842 120.904 9.56088 120.885 9.58679 120.859C9.61269 120.832 9.63109 120.8 9.64005 120.764C9.69067 120.553 9.68035 120.332 9.61029 120.127C9.33764 118.583 9.18519 117.021 9.15429 115.453C9.13989 115.286 8.88165 115.226 8.85093 115.408C8.62867 117.016 8.69565 118.65 9.04869 120.233Z" fill="#191919"/>
<path d="M7.10205 120.173C7.19325 120.477 7.23837 120.932 7.57245 121.068C7.61274 121.081 7.65648 121.079 7.69552 121.063C7.73456 121.046 7.76623 121.016 7.78461 120.978C8.01981 120.554 7.44381 120.224 6.93501 116.88C6.90429 116.668 6.54045 116.713 6.55101 116.927C6.61576 118.026 6.80053 119.114 7.10205 120.173Z" fill="#191919"/>
<path d="M8.0617 127.698C6.3001 124.818 5.9497 121.923 5.16442 118.822C5.11834 118.63 4.78042 118.67 4.81498 118.868C5.07457 121.909 5.93054 124.868 7.33402 127.577C7.54618 127.961 7.80442 128.336 8.01658 128.715C8.46778 129.489 8.42842 129.648 8.66938 129.778C8.69599 129.791 8.72512 129.798 8.7548 129.799C8.78447 129.8 8.81398 129.794 8.84132 129.783C8.86866 129.771 8.89318 129.754 8.91321 129.732C8.93323 129.71 8.9483 129.684 8.95738 129.656C9.11002 129.296 8.75002 128.824 8.0617 127.698Z" fill="#191919"/>
<path d="M7.0756 122.479C7.05576 122.501 7.04425 122.53 7.04307 122.559C7.04189 122.589 7.05111 122.618 7.06914 122.641C7.08716 122.665 7.11285 122.681 7.14174 122.688C7.17063 122.694 7.2009 122.691 7.22728 122.677C9.86536 121.327 10.6641 122.036 11.4302 121.903C11.5972 121.873 11.5818 121.661 11.4762 121.569C10.9137 121.141 8.42056 121.135 7.0756 122.479Z" fill="#191919"/>
<path d="M137.524 124.119C137.961 123.517 138.211 122.799 138.242 122.056C138.071 121.307 137.832 120.576 137.528 119.871C137.379 119.09 137.442 118.283 137.711 117.534C137.725 117.382 137.528 117.336 137.437 117.428C137.244 117.683 137.103 117.974 137.022 118.283C136.941 118.593 136.922 118.916 136.967 119.233C137.033 120.701 138.194 121.633 137.634 122.966C137.343 123.49 137.085 124.032 136.861 124.589C136.724 125.09 136.694 125.909 137.255 126.183C137.28 126.197 137.31 126.202 137.338 126.198C137.367 126.194 137.394 126.18 137.414 126.16C137.435 126.139 137.448 126.113 137.452 126.084C137.457 126.055 137.451 126.026 137.437 126C137.28 125.708 137.205 125.379 137.22 125.048C137.236 124.716 137.34 124.395 137.524 124.119Z" fill="#191919"/>
<path d="M134.881 117.549C134.916 117.837 134.91 118.247 135.123 118.46C135.15 118.484 135.182 118.502 135.217 118.51C135.251 118.519 135.288 118.519 135.323 118.51C135.358 118.501 135.389 118.483 135.416 118.458C135.442 118.434 135.461 118.403 135.472 118.368C135.523 118.068 135.497 117.76 135.396 117.473C135.282 116.536 135.222 115.594 135.215 114.651C135.199 114.484 134.941 114.423 134.91 114.605C134.759 115.58 134.749 116.571 134.881 117.549Z" fill="#191919"/>
<path d="M133.258 118.459C133.279 118.674 133.357 118.878 133.486 119.051C133.511 119.074 133.542 119.091 133.575 119.099C133.609 119.107 133.644 119.107 133.677 119.098C133.71 119.089 133.741 119.071 133.766 119.047C133.79 119.023 133.809 118.993 133.819 118.96C133.869 118.759 133.859 118.548 133.789 118.353C133.533 116.884 133.386 115.398 133.348 113.907C133.334 113.755 133.091 113.695 133.06 113.862C132.851 115.394 132.918 116.951 133.258 118.459Z" fill="#191919"/>
<path d="M131.407 118.398C131.49 118.686 131.544 119.126 131.847 119.247C131.888 119.259 131.931 119.256 131.97 119.239C132.008 119.223 132.04 119.194 132.059 119.156C132.294 118.734 131.675 118.335 131.255 115.257C131.225 115.044 130.876 115.105 130.891 115.302C130.949 116.35 131.122 117.388 131.407 118.398Z" fill="#191919"/>
<path d="M132.317 125.561C130.635 122.777 130.344 120.281 129.555 117.125C129.51 116.943 129.191 116.973 129.221 117.17C129.474 120.062 130.289 122.876 131.621 125.455C131.833 125.819 132.06 126.184 132.273 126.547C132.707 127.292 132.645 127.449 132.895 127.564C132.919 127.577 132.946 127.585 132.974 127.587C133.002 127.589 133.03 127.585 133.056 127.575C133.082 127.565 133.106 127.549 133.125 127.529C133.144 127.509 133.159 127.485 133.168 127.458C133.282 127.168 133.114 126.88 132.317 125.561Z" fill="#191919"/>
<path d="M134.473 119.49C133.91 119.452 133.345 119.528 132.813 119.716C132.281 119.904 131.792 120.198 131.378 120.582C131.272 120.688 131.408 120.826 131.53 120.764C133.974 119.516 134.87 120.155 135.521 120.036C135.687 120.006 135.672 119.809 135.566 119.718C135.229 119.543 134.851 119.465 134.473 119.49Z" fill="#191919"/>
<path d="M76.0705 116.804C75.6298 116.425 75.0682 116.258 74.6132 115.924C74.1572 115.522 73.6383 115.198 73.0772 114.964C72.8204 114.878 72.5467 114.855 72.2793 114.898C72.0118 114.94 71.7586 115.047 71.5412 115.208C70.0052 116.346 70.2932 117.128 70.4938 118.348C70.5928 119.052 70.5619 119.768 70.4026 120.46C70.3933 120.495 70.3968 120.532 70.4123 120.565C70.4279 120.597 70.4545 120.623 70.4875 120.638C70.5204 120.652 70.5575 120.655 70.5921 120.645C70.6267 120.634 70.6565 120.612 70.6762 120.582C71.6362 118.854 70.2721 117.349 71.1313 116.303C71.3965 115.924 71.765 115.629 72.193 115.453C73.153 115.165 73.9834 116.257 74.7274 116.667C75.1506 116.831 75.5334 117.085 75.8497 117.41C75.9172 117.479 75.9669 117.564 75.9944 117.656C76.0219 117.749 76.0264 117.846 76.0074 117.941C75.9885 118.036 75.9468 118.124 75.8858 118.199C75.8248 118.274 75.7465 118.333 75.6577 118.37C75.3082 118.489 74.9361 118.527 74.57 118.479C74.2038 118.432 73.8534 118.302 73.5457 118.098C73.3536 117.937 73.1509 117.79 72.9389 117.657C72.8017 117.581 72.6807 117.717 72.7412 117.855C73.0648 118.264 73.4905 118.58 73.9755 118.772C74.4604 118.964 74.9873 119.024 75.5031 118.947C75.7538 118.943 75.9962 118.857 76.1935 118.702C76.3909 118.547 76.5323 118.333 76.5965 118.09C76.6607 117.848 76.6441 117.591 76.5491 117.359C76.4542 117.127 76.2861 116.932 76.0705 116.804Z" fill="#191919"/>
<path d="M74.6593 114.938C75.3217 113.75 75.9189 111.819 76.4651 110.963C76.5553 110.826 76.6571 110.704 76.7531 110.568C76.5722 112.163 76.2627 113.742 75.8277 115.287C75.7969 115.5 76.1003 115.696 76.2222 115.453C76.7412 113.963 77.0824 112.416 77.2389 110.845C77.2686 110.587 77.284 110.253 77.0564 110.086C76.4219 109.551 75.6462 111.442 75.3419 112.211C74.9632 113.056 74.629 113.922 74.3406 114.803C74.3311 114.843 74.3362 114.885 74.3549 114.922C74.3736 114.959 74.4048 114.988 74.4429 115.005C74.4811 115.021 74.5237 115.023 74.5633 115.011C74.6029 114.999 74.6369 114.973 74.6593 114.938Z" fill="#191919"/>
<path d="M76.1476 116.349C76.0516 116.514 76.2839 116.713 76.4202 116.561C76.684 116.256 77.0033 116.004 77.3611 115.818C77.9918 115.502 78.0926 115.863 78.3623 115.91C78.6503 115.981 78.7761 115.43 78.0743 115.238C77.6799 115.216 77.2876 115.309 76.9455 115.507C76.6033 115.704 76.3261 115.997 76.1476 116.349Z" fill="#191919"/>
<path d="M77.146 117.198C77.0097 117.305 77.1911 117.517 77.3274 117.441C77.7565 117.191 78.0628 116.855 78.3594 116.683C78.8461 116.439 79.0036 116.734 79.2551 116.834C79.5066 116.935 79.6276 116.381 79.0276 116.182C78.1636 115.891 77.481 116.935 77.146 117.198Z" fill="#191919"/>
<path d="M79.6041 117.988C79.4774 117.342 78.6096 117.473 78.1171 118.063C78.0115 118.184 78.1478 118.412 78.2995 118.306C78.4358 118.215 78.9974 117.881 79.1491 118.063C79.2096 118.139 79.1491 118.427 79.1193 118.518C78.8131 120.05 75.5078 121.718 75.5078 123.343C75.5099 123.382 75.5239 123.418 75.548 123.448C75.5721 123.478 75.6049 123.5 75.6419 123.51C75.6789 123.52 75.7181 123.518 75.754 123.504C75.7899 123.491 75.8207 123.467 75.8419 123.435C76.1662 122.772 76.5965 122.168 77.1158 121.644C77.904 120.834 79.8806 119.388 79.6041 117.988Z" fill="#191919"/>
<path d="M74.9477 123.891C73.2519 123.183 71.6596 122.249 70.2139 121.115C70.1515 121.08 70.0801 121.066 70.0095 121.075C69.9389 121.083 69.8725 121.112 69.8194 121.16C67.6407 122.911 65.6752 124.913 63.9634 127.123C63.5005 128.708 63.2354 130.344 63.1742 131.993C63.1735 132.041 63.1559 132.087 63.1246 132.123C63.0932 132.159 63.0501 132.183 63.0029 132.19C62.9556 132.198 62.9073 132.188 62.8665 132.163C62.8257 132.138 62.7949 132.1 62.7797 132.055C62.3774 130.735 62.9669 128.695 63.4623 127.139C63.0984 126.774 60.9288 124.619 60.2309 123.906C56.6837 120.354 52.8994 116.13 47.6213 116.034C46.208 115.995 44.8108 116.342 43.5797 117.037C42.5678 117.622 42.0187 118.837 39.0514 119.122C37.7117 119.27 36.3566 119.19 35.0434 118.886C33.9586 118.502 34.7765 117.976 32.4024 117.976C27.6907 118.102 23.7624 122.321 21.5391 126.549C20.4736 128.635 19.5643 130.798 18.8184 133.019C19.5 134.147 21.8021 138.443 21.9336 139.75C21.948 139.962 21.6754 139.993 21.5688 139.841C21.0149 139.046 21.0447 138.246 19.2168 134.879C18.036 132.499 16.3352 130.414 14.2402 128.78C13.7198 128.345 13.6018 128.288 12.8597 128.613C12.6802 128.693 8.70673 130.333 8.61073 130.373C8.54185 130.394 8.48129 130.436 8.43768 130.493C8.39407 130.55 8.36963 130.62 8.36785 130.691C8.32849 131.295 10.045 138.124 14.2709 144.62C15.5602 146.593 17.1509 148.55 19.475 149.324C22.0037 150.188 23.8958 149.339 25.7717 147.427C27.4121 145.722 28.8436 143.827 30.036 141.783C29.5896 140 28.7295 136.472 28.4127 134.651C28.4039 134.606 28.4126 134.56 28.4371 134.521C28.4615 134.482 28.4998 134.454 28.5441 134.442C28.5885 134.431 28.6356 134.437 28.6759 134.458C28.7162 134.48 28.7467 134.517 28.7611 134.56C30.323 139.578 30.3067 143.383 34.8005 150.872C34.8455 150.947 34.9183 151.002 35.0033 151.025C35.0882 151.048 35.1787 151.036 35.2555 150.994C43.4923 147.039 52.1333 144.159 61.02 146.381C61.0573 146.391 61.0964 146.392 61.1342 146.384C61.172 146.377 61.2076 146.36 61.2382 146.337C61.2689 146.314 61.2938 146.283 61.311 146.249C61.3283 146.214 61.3374 146.176 61.3378 146.138C61.2513 144.643 60.8754 143.18 60.2309 141.828C58.5403 138.006 55.3656 132.604 55.4203 128.248C55.4203 128.081 55.6939 128.036 55.7237 128.203C56.5522 133.063 57.4574 134.523 60.3365 140.587C63.6715 140.815 65.9774 140.376 68.1211 137.811C71.285 133.766 73.6766 129.173 75.1762 124.261C75.2357 124.118 75.1147 123.95 74.9477 123.891ZM47.9544 137.228C47.1536 136.713 46.4108 136.112 45.7387 135.438C45.0833 134.778 44.5583 134.001 44.1912 133.147C44.1307 132.995 44.389 132.889 44.4648 133.025C45.3845 134.936 47.4773 136.264 48.1512 136.97C48.1807 136.998 48.1988 137.035 48.2021 137.075C48.2055 137.116 48.1938 137.156 48.1693 137.188C48.1448 137.22 48.1093 137.242 48.0696 137.249C48.0299 137.257 47.9889 137.249 47.9544 137.228Z" fill="#FFB500"/>
<path d="M111.393 104.546C108.542 97.5272 97.2534 97.7701 95.127 106.85C94.7282 108.422 94.6737 110.061 94.9671 111.656C95.2605 113.251 95.895 114.764 96.8272 116.091C96.9174 116.197 97.0998 116.106 97.0192 115.97C95.6167 113.592 95.0257 110.823 95.3353 108.08C96.2732 100.808 103.329 98.395 107.959 101.236C110.629 102.891 111.492 105.301 111.646 108.352C111.772 109.985 111.527 111.625 110.928 113.15C110.33 114.674 109.393 116.043 108.19 117.153C107.962 117.345 108.296 117.669 108.508 117.471C112.351 114.251 112.884 108.213 111.393 104.546Z" fill="#191919"/>
<path d="M103.883 111.024C103.52 111.074 103.17 111.193 102.851 111.374C102.699 111.449 102.806 111.677 102.957 111.646C104.162 111.318 104.762 111.471 104.973 111.343C104.998 111.329 105.019 111.309 105.034 111.286C105.05 111.262 105.059 111.235 105.062 111.207C105.065 111.179 105.062 111.15 105.052 111.124C105.041 111.097 105.025 111.074 105.004 111.055C104.64 110.944 104.253 110.933 103.883 111.024Z" fill="#191919"/>
<path d="M97.7984 110.994C97.7675 111.002 97.7404 111.021 97.7224 111.047C97.7043 111.073 97.6964 111.105 97.7001 111.137C97.7039 111.168 97.7191 111.197 97.7428 111.218C97.7666 111.24 97.7973 111.251 97.8291 111.252C98.5328 111.27 99.2336 111.351 99.9228 111.494C99.9714 111.482 100.015 111.455 100.048 111.417C100.08 111.379 100.1 111.332 100.105 111.282C100.105 110.859 98.5596 110.757 97.7984 110.994Z" fill="#191919"/>
<path d="M101.453 110.87C101.424 110.719 101.196 110.764 101.196 110.901C101.212 111.645 100.952 112.369 100.467 112.934C100.346 113.071 100.164 113.192 100.164 113.389C100.164 113.818 101.242 114.389 101.484 114.087C101.513 114.053 101.529 114.01 101.529 113.966C101.529 113.921 101.513 113.878 101.484 113.844C101.393 113.723 101.165 113.738 101.029 113.693C100.922 113.649 100.619 113.475 100.619 113.405C100.956 113.083 101.208 112.684 101.353 112.242C101.499 111.8 101.533 111.329 101.453 110.87Z" fill="#191919"/>
<path d="M100.983 116.394C101.182 116.476 101.395 116.515 101.61 116.51C101.825 116.505 102.036 116.455 102.231 116.365C102.38 116.302 102.507 116.196 102.596 116.061C102.685 115.926 102.733 115.767 102.732 115.605C102.778 115.284 102.725 114.956 102.58 114.664C102.401 114.44 102.152 114.59 102.176 114.848C102.234 115.013 102.262 115.187 102.258 115.362C102.263 115.499 102.242 115.636 102.196 115.765C102.011 115.913 101.785 116.003 101.548 116.024C101.312 116.044 101.074 115.994 100.866 115.879C100.601 115.774 100.481 116.158 100.983 116.394Z" fill="#191919"/>
<path d="M34.7082 151.157C33.297 153.544 30.3642 164.329 30.3987 165.571C30.3987 165.753 30.6723 165.844 30.7482 165.662C31.1322 164.894 31.5939 161.353 33.9037 154.479C34.231 153.424 34.611 152.386 35.0423 151.369C35.1632 151.123 34.8426 150.931 34.7082 151.157Z" fill="#191919"/>
<path d="M61.3817 146.726C61.3691 146.68 61.3391 146.642 61.2981 146.618C61.2571 146.594 61.2085 146.588 61.1627 146.599C61.1169 146.611 61.0776 146.641 61.0532 146.681C61.0288 146.722 61.0213 146.77 61.0323 146.816C62.0667 151.16 62.7968 155.571 63.2173 160.017C63.4592 163.316 63.4313 163.244 63.5216 163.78C63.5667 164.038 63.9152 163.947 63.9305 163.72C64.1149 161.444 63.08 151.891 61.3817 146.726Z" fill="#191919"/>
<path d="M52.2649 158.835C51.7149 158.979 48.5392 161.907 47.2125 165.223C47.151 165.39 47.4093 165.497 47.5005 165.345C48.2973 163.839 49.2702 162.433 50.3987 161.157C50.3382 161.854 50.3229 162.568 50.3075 163.269C50.2148 164.042 50.23 164.823 50.3526 165.592C50.3645 165.633 50.3897 165.67 50.4244 165.696C50.459 165.722 50.5012 165.736 50.5446 165.736C50.588 165.736 50.6302 165.722 50.6649 165.696C50.6995 165.67 50.7247 165.633 50.7366 165.592C50.8711 164.825 50.912 164.045 50.8585 163.269C50.898 162.418 50.8842 161.565 50.8173 160.715C50.9133 160.624 50.9344 160.584 51.0256 160.493C52.0211 159.497 52.2803 159.453 52.4512 159.127C52.5529 158.957 52.432 158.792 52.2649 158.835Z" fill="#191919"/>
<path d="M51.8692 147.485C51.8385 147.303 51.5352 147.348 51.5352 147.531C51.6417 149.355 51.8232 151.157 51.9297 152.978C52.043 154.676 52.1323 158.162 52.2331 158.41C52.2457 158.449 52.2701 158.482 52.3029 158.506C52.3356 158.53 52.375 158.542 52.4155 158.542C52.4559 158.542 52.4953 158.53 52.5281 158.506C52.5608 158.482 52.5853 158.449 52.5979 158.41C52.6652 154.755 52.4214 151.1 51.8692 147.485Z" fill="#191919"/>
<path d="M49.8975 156.589C49.8845 157.527 49.9763 158.463 50.1711 159.381C50.18 159.412 50.1989 159.439 50.2249 159.459C50.2509 159.479 50.2826 159.489 50.3151 159.489C50.3476 159.489 50.3793 159.479 50.4053 159.459C50.4313 159.439 50.4502 159.412 50.4591 159.381C50.5247 158.928 50.5298 158.469 50.4745 158.015C50.2287 154.216 50.0501 151.351 49.6105 148.137C49.5951 147.97 49.3369 147.97 49.3522 148.137C49.4665 150.986 49.7209 153.843 49.8975 156.589Z" fill="#191919"/>
<path d="M113.29 149.307C112.975 148.974 112.617 148.684 112.227 148.443C112.288 148.004 112.492 147.244 112.485 146.972C111.813 146.672 104.789 143.07 104.276 142.8C103.662 142.507 103.074 142.161 102.52 141.766C95.2562 145.398 95.5816 145.522 93.9285 146.182C94.0376 146.984 94.1947 147.78 94.3989 148.563C91.1571 150.529 88.5902 153.434 87.0396 156.893C86.5271 157.863 86.1734 158.908 85.9922 159.989C85.9931 160.041 86.0106 160.091 86.0422 160.131C86.0737 160.172 86.1176 160.201 86.1672 160.215C86.2168 160.228 86.2695 160.226 86.3174 160.207C86.3653 160.188 86.4058 160.154 86.4328 160.11C87.1596 158.574 87.0751 157.746 88.7368 155.042C93.5541 147.336 98.8101 147.03 107.916 148.153C112.17 148.691 112.219 148.967 113.868 150.991C115.939 153.615 117.677 156.484 119.042 159.535C120.057 161.735 120.17 162.359 120.59 163.026C120.614 163.065 120.652 163.094 120.696 163.108C120.74 163.122 120.787 163.119 120.83 163.101C120.872 163.082 120.906 163.049 120.926 163.008C120.946 162.966 120.95 162.919 120.938 162.874C120.807 161.701 117.561 153.728 113.29 149.307Z" fill="#191919"/>
<path d="M120.53 131.462C120.497 127.788 119.509 124.185 117.662 121.008C116.875 119.645 115.601 118.63 114.096 118.17C113.089 117.879 112.032 117.806 110.995 117.957C109.957 118.108 108.965 118.479 108.082 119.045C107.684 117.735 107.585 116.352 107.794 114.999C108.06 114.983 108.319 114.912 108.555 114.791C108.792 114.671 109.002 114.503 109.171 114.298C109.34 114.093 109.465 113.856 109.539 113.601C109.613 113.345 109.634 113.078 109.6 112.814C109.476 111.95 108.795 111.197 108.007 111.342C108.007 111.028 107.889 111.049 107.582 110.022L107.491 109.75C107.515 109.747 107.539 109.739 107.559 109.727C107.58 109.714 107.598 109.697 107.611 109.676C107.624 109.656 107.632 109.633 107.635 109.608C107.638 109.584 107.635 109.56 107.627 109.537C107.102 108.111 100.139 106.465 97.5829 107.868C97.5675 107.845 97.5457 107.827 97.5201 107.816C97.4946 107.805 97.4664 107.801 97.439 107.806C97.4116 107.811 97.3861 107.824 97.3658 107.843C97.3455 107.862 97.3312 107.886 97.3246 107.913C97.1073 109.289 96.9908 110.679 96.9761 112.071C96.9416 115.005 97.7816 118.413 100.693 118.853C100.666 119.301 100.594 119.745 100.478 120.178C98.2347 118.856 95.3163 119.434 93.2734 120.902C90.9214 122.586 89.4805 125.196 88.1297 127.684C85.6702 132.207 81.859 140.164 85.0193 144.208C85.8876 145.25 87.0873 145.961 88.4177 146.224C90.2036 146.57 92.0483 146.454 93.7764 145.886C94.5003 145.531 99.6545 142.372 110.238 137.575C106.452 135.797 101.178 136.519 97.1432 137.591C95.2092 138.06 93.3427 138.774 91.5886 139.714C90.9032 140.225 90.6766 139.786 90.9761 139.474C91.774 138.932 92.6376 138.492 93.546 138.167C93.5475 136.98 93.7638 135.803 94.1845 134.693C94.2981 134.298 94.5004 133.935 94.7758 133.631C94.8041 133.605 94.8395 133.589 94.8772 133.585C94.9149 133.581 94.953 133.588 94.9863 133.606C95.0195 133.625 95.0463 133.653 95.063 133.687C95.0796 133.721 95.0853 133.759 95.0792 133.797C94.9592 134.574 94.2065 135.112 94.002 137.985C96.6706 137.063 99.434 136.441 102.241 136.133C105.111 135.845 108.306 135.869 110.707 137.453C111.137 137.367 111.574 137.316 112.013 137.302C112.013 137.206 112.052 136.673 112.058 136.574C112.092 136.009 112.073 133.337 112.073 133.13C112.073 132.947 112.376 132.887 112.407 133.084C112.592 134.487 112.638 135.905 112.543 137.317C112.998 137.342 113.45 137.403 113.894 137.5C114.243 137.575 114.78 137.633 114.971 137.955C114.985 137.979 114.993 138.006 114.994 138.034C114.996 138.062 114.992 138.09 114.982 138.116C114.972 138.142 114.956 138.166 114.936 138.185C114.916 138.204 114.892 138.219 114.866 138.228C114.592 138.319 114.343 138.146 113.803 138.045C112.733 137.833 111.634 137.808 110.555 137.97C108.698 138.816 106.735 139.689 102.875 141.596C103.547 141.82 106.085 143.126 106.32 143.25C113.957 147.18 114.339 147.698 116.485 146.452C117.852 145.562 118.899 144.26 119.475 142.734C120.645 139.906 120.674 134.508 120.53 131.462ZM102.792 127.046C102.096 124.775 101.526 122.468 101.085 120.134C101.191 119.736 101.23 119.323 101.199 118.912C102.559 118.926 103.871 118.409 104.856 117.472C105.401 117.052 105.843 116.512 106.145 115.894C106.221 115.696 105.953 115.606 105.826 115.711C105.128 116.601 104.275 117.356 103.308 117.942C102.843 118.193 102.332 118.349 101.806 118.401C101.28 118.452 100.749 118.4 100.243 118.245C99.7147 118.038 99.2405 117.713 98.8566 117.295C98.4726 116.877 98.189 116.377 98.0273 115.833C96.9924 113.097 97.7221 109.467 97.6635 108.2C98.2949 108.02 98.9389 107.889 99.5902 107.806C101.638 107.662 103.693 107.984 105.599 108.748C106.21 108.941 106.77 109.269 107.238 109.708C107.235 109.854 107.24 110.001 107.253 110.147C107.322 110.546 107.444 110.933 107.617 111.299C107.656 111.36 107.707 111.411 107.768 111.45C107.632 111.513 107.52 111.621 107.451 111.754C107.434 111.786 107.43 111.823 107.438 111.858C107.447 111.894 107.467 111.925 107.496 111.946C107.525 111.968 107.56 111.979 107.596 111.977C107.632 111.975 107.666 111.96 107.693 111.936C108.119 111.495 109.095 112.059 109.133 113.088C109.135 113.288 109.097 113.486 109.019 113.67C108.941 113.854 108.825 114.02 108.68 114.157C108.534 114.294 108.362 114.399 108.173 114.466C107.985 114.532 107.784 114.559 107.585 114.544C107.53 114.543 107.476 114.56 107.432 114.593C107.388 114.626 107.357 114.672 107.342 114.725C107.13 115.868 107.13 117.039 107.342 118.181C107.381 118.414 107.484 119.163 107.731 119.362C107.464 119.837 102.856 126.95 102.792 127.046Z" fill="#191919"/>
<path d="M155.85 111.737C155.572 111.913 155.579 112.381 155.107 112.511C154.713 112.546 154.32 112.426 154.013 112.177C153.987 112.152 153.952 112.137 153.916 112.135C153.88 112.133 153.844 112.144 153.815 112.165C153.786 112.187 153.766 112.219 153.758 112.254C153.75 112.29 153.754 112.327 153.771 112.359C153.926 112.582 154.141 112.757 154.39 112.864C154.64 112.971 154.914 113.007 155.182 112.966C155.364 112.921 155.534 112.838 155.68 112.722C155.827 112.606 155.947 112.46 156.032 112.294C156.121 112.182 156.17 112.042 156.168 111.899C156.165 111.864 156.153 111.829 156.133 111.8C156.113 111.77 156.086 111.746 156.054 111.73C156.022 111.714 155.987 111.706 155.951 111.707C155.915 111.708 155.88 111.719 155.85 111.737Z" fill="#191919"/>
<path d="M158.355 135.013C158.243 134.926 158.111 134.868 157.971 134.846C157.011 134.525 156.581 133.034 155.877 132.235C155.235 131.629 154.509 131.119 153.722 130.719C153.524 130.552 153.364 130.345 153.252 130.111C153.131 129.869 152.828 130.05 152.858 130.278C153.022 131.316 154.601 131.468 155.604 132.645C156.287 133.459 156.487 134.514 157.501 135.134C157.729 135.256 158.092 135.437 158.335 135.285C158.355 135.269 158.371 135.249 158.382 135.226C158.394 135.203 158.4 135.179 158.402 135.153C158.404 135.128 158.401 135.102 158.393 135.078C158.385 135.054 158.372 135.032 158.355 135.013Z" fill="#191919"/>
<path d="M149.9 132.842C150.629 133.251 151.418 133.543 152.237 133.706C152.571 133.768 153.133 133.934 153.436 133.706C153.456 133.694 153.472 133.677 153.485 133.658C153.497 133.638 153.505 133.616 153.508 133.593C153.511 133.57 153.509 133.546 153.502 133.524C153.495 133.502 153.483 133.481 153.467 133.464C153.154 133.152 152.914 133.385 151.251 132.872C150.526 132.587 149.817 132.263 149.127 131.902C149.095 131.894 149.062 131.895 149.032 131.906C149.001 131.916 148.974 131.936 148.955 131.962C148.935 131.988 148.924 132.019 148.922 132.051C148.92 132.083 148.928 132.116 148.944 132.144C149.209 132.443 149.535 132.681 149.9 132.842Z" fill="#191919"/>
<path d="M152.224 135.571C152.623 135.62 152.665 135.623 152.921 135.495C153.028 135.449 152.997 135.313 152.921 135.252C152.511 135.05 152.07 134.917 151.617 134.858C150.303 134.425 149.15 133.605 148.31 132.506C148.172 132.339 147.926 132.551 148.022 132.733C148.48 133.478 149.092 134.116 149.817 134.605C150.541 135.094 151.362 135.424 152.224 135.571Z" fill="#191919"/>
<path d="M149.676 136.044C150.014 136.236 151.345 136.908 151.71 136.773C151.734 136.764 151.756 136.749 151.775 136.731C151.794 136.713 151.809 136.691 151.819 136.667C151.829 136.643 151.834 136.617 151.833 136.591C151.833 136.564 151.827 136.539 151.816 136.515C151.55 136.072 150.088 136.186 148.326 134.421C148.299 134.396 148.265 134.381 148.229 134.379C148.192 134.377 148.157 134.388 148.128 134.41C148.099 134.432 148.078 134.463 148.07 134.499C148.062 134.534 148.067 134.571 148.084 134.603C148.482 135.213 149.03 135.709 149.676 136.044Z" fill="#191919"/>
<path d="M153.743 138.972C151.472 138.273 150.179 137.986 148.6 136.408C148.574 136.383 148.54 136.369 148.505 136.367C148.469 136.366 148.435 136.377 148.407 136.399C148.379 136.421 148.36 136.453 148.354 136.488C148.348 136.523 148.354 136.559 148.372 136.589C149.768 138.999 153.67 139.132 156.02 140.413C156.327 140.623 156.658 140.797 157.005 140.929C157.037 140.937 157.07 140.935 157.1 140.924C157.131 140.914 157.157 140.894 157.177 140.868C157.196 140.842 157.208 140.811 157.21 140.779C157.212 140.747 157.204 140.714 157.188 140.686C156.769 139.918 154.582 139.231 153.743 138.972Z" fill="#191919"/>
<path d="M164.073 119.795C162.257 119.856 160.447 120.039 158.656 120.341C154.202 121.058 149.848 122.295 145.682 124.028C145.602 124.048 145.528 124.089 145.468 124.145C145.408 124.202 145.362 124.273 145.337 124.351C145.311 124.43 145.306 124.514 145.321 124.595C145.337 124.677 145.372 124.753 145.425 124.817C147.685 128.631 148.073 129.533 149.339 131.554C149.445 131.736 149.704 131.584 149.627 131.387C148.733 129.456 146.256 125.255 146.046 124.923C145.781 124.461 145.758 124.539 145.924 124.453C151.265 122.253 156.908 120.872 162.661 120.356C163.07 120.326 163.464 120.295 163.859 120.235C164.016 120.682 164.214 121.114 164.451 121.525C169.037 131.002 169.481 133.859 170.126 134.923C170.202 135.059 170.475 135.014 170.444 134.831C170.294 133.173 164.609 119.854 164.073 119.795Z" fill="#191919"/>
<path d="M162.514 143.388C161.309 143.292 156.092 144.339 154.912 144.587C152.831 139.926 152.789 139.819 152.512 139.473C152.421 139.352 152.238 139.488 152.269 139.61C152.392 140.224 154.545 144.855 154.59 144.951C154.708 145.185 154.701 145.02 158.702 144.313C160.004 144.182 161.296 143.969 162.572 143.676C162.726 143.635 162.681 143.401 162.514 143.388Z" fill="#191919"/>
<path d="M175.439 117.276C173.765 114.278 171.544 113.634 168.202 114.044C166.538 114.195 164.928 114.71 163.486 115.554C162.816 114.031 162.429 112.398 162.345 110.736C162.666 110.715 162.973 110.594 163.223 110.391C163.473 110.187 163.654 109.911 163.741 109.601C167.816 107.339 168.025 102.519 166.045 98.3687C162.712 91.4442 152.611 92.5808 149.521 98.384C148.828 99.5373 148.582 100.905 148.832 102.228C149.082 103.55 149.809 104.734 150.876 105.555C148.539 106.345 148.673 109.186 150.827 109.582C150.789 112.09 151.136 114.466 153.451 115.394C154.039 115.635 154.668 115.758 155.302 115.757C155.325 116.273 155.281 116.789 155.171 117.293C153.693 116.943 152.176 116.789 150.659 116.834C146.103 116.93 144.131 120.857 142.465 125.058C141.786 126.645 141.271 128.297 140.929 129.989C140.929 130.171 141.203 130.263 141.279 130.08C141.545 129.4 141.772 128.706 141.961 128.001C142.63 125.949 143.441 123.947 144.389 122.008C145.587 119.716 147.469 117.608 150.185 117.395C151.824 117.315 153.466 117.407 155.086 117.669C155.076 117.702 155.074 117.737 155.079 117.771C155.084 117.805 155.097 117.838 155.116 117.866C155.95 118.836 157.408 118.836 158.591 118.76C159.972 118.747 161.319 118.325 162.46 117.548C164.561 115.97 162.545 116.218 165.467 115.225C167.62 114.492 170.639 114.007 172.611 115.043C174.188 115.895 175.052 117.578 175.767 119.216C176.937 121.987 177.739 124.9 178.149 127.88C178.573 130.822 178.869 136.484 178.149 139.366C177.227 143.12 174.427 144.953 170.714 144.919C168.707 144.775 166.733 144.33 164.858 143.599C162.746 142.932 157.562 141.295 157.073 141.126C157.824 139.259 158.368 137.315 158.698 135.33C158.728 135.194 158.728 135.057 158.879 134.996C159.027 134.953 159.18 134.933 159.334 134.936C162.413 134.618 165.519 134.705 168.575 135.194C169.891 135.401 171.193 135.684 172.475 136.043C172.657 136.089 172.854 136.089 173.051 136.119C173.097 136.118 173.141 136.102 173.177 136.073C173.213 136.045 173.239 136.006 173.251 135.961C173.263 135.917 173.261 135.87 173.244 135.827C173.227 135.784 173.196 135.748 173.157 135.724C172.534 135.413 173.137 135.595 171.124 135.087C167.297 134.2 163.35 133.949 159.441 134.344C157.74 134.526 158.545 134.572 157.329 138.774C156.587 141.351 156.553 141.477 156.843 141.566C159.043 142.265 165.598 144.357 166.675 144.693C169.651 145.591 172.861 145.904 175.567 144.1C176.498 151.747 176.582 151.248 176.401 151.338C176.275 151.386 176.142 151.412 176.007 151.413C171.322 152.165 166.579 152.495 161.835 152.399C156.675 152.399 151.594 152.355 146.647 151.263C146.735 146.688 147.095 142.123 147.724 137.591C147.739 137.395 147.436 137.363 147.39 137.545C147.198 138.426 147.041 139.32 146.904 140.216C146.544 140.216 145.415 141.916 142.823 142.537C142.061 142.732 141.268 142.77 140.491 142.65C139.714 142.53 138.969 142.254 138.302 141.839C134.654 139.509 133.623 131.738 132.612 127.79C134.108 127.833 135.684 126.973 137.118 126.362C137.24 126.303 137.36 126.254 137.482 126.195C137.871 126.012 137.778 126.088 138.362 126.867C141.673 131.496 141.926 135.016 142.505 136.093C142.569 136.212 142.719 136.138 142.732 136.032C142.647 134.885 142.381 133.758 141.943 132.693C141.176 130.552 140.119 128.525 138.802 126.67C137.791 125.29 138.11 125.393 136.114 126.276C132.861 127.774 132.178 127.23 132.259 127.627C132.24 127.643 132.226 127.664 132.218 127.688C132.21 127.712 132.209 127.737 132.214 127.762C132.694 131.404 133.627 134.973 134.991 138.384C135.568 139.852 136.52 141.143 137.753 142.128C140.473 144.108 144.569 143.292 146.825 140.87C146.379 144.383 146.141 147.919 146.113 151.461C146.117 151.518 146.138 151.573 146.173 151.619C146.208 151.664 146.256 151.699 146.31 151.718C151.249 152.656 156.276 153.058 161.301 152.917C166.346 153.05 171.392 152.694 176.369 151.855C176.498 151.851 176.624 151.81 176.731 151.738C176.838 151.665 176.923 151.564 176.975 151.445C177.023 151.116 177.003 150.78 176.915 150.459C176.824 149.731 176.732 149.002 176.627 148.289C176.034 143.613 176.084 143.873 175.943 143.798C178.58 141.771 179.044 138.58 179.1 135.239C179.199 129.48 178.271 122.207 175.439 117.276ZM149.704 107.663C149.763 107.282 149.938 106.927 150.203 106.646C150.469 106.366 150.814 106.173 151.193 106.093C151.403 106.096 151.61 106.143 151.801 106.23C151.992 106.317 152.163 106.444 152.303 106.601C152.443 106.758 152.549 106.942 152.613 107.142C152.678 107.342 152.701 107.553 152.68 107.762C152.629 108.085 152.482 108.384 152.257 108.62C152.032 108.856 151.74 109.017 151.42 109.082C151.211 109.12 150.997 109.111 150.792 109.057C150.587 109.004 150.396 108.906 150.233 108.771C150.07 108.636 149.938 108.467 149.846 108.275C149.755 108.084 149.706 107.875 149.704 107.663ZM159.75 118.065C158.371 118.395 156.923 118.269 155.622 117.706C155.828 117.07 155.845 116.388 155.669 115.744C157.698 115.472 159.539 114.414 160.797 112.799C160.938 112.621 160.658 112.311 160.433 112.511C159.53 113.432 158.491 114.209 157.353 114.815C155.134 115.828 152.361 115.289 151.593 112.782C151.317 111.764 151.199 110.71 151.243 109.656C151.683 109.619 152.101 109.447 152.44 109.165C152.779 108.882 153.024 108.503 153.14 108.077C153.168 107.947 153.188 107.816 153.201 107.684L153.565 107.593C153.388 108.218 153.241 108.851 153.125 109.489C153.034 109.969 152.806 110.737 153.489 110.87C154.082 110.974 154.693 110.855 155.203 110.537C155.254 110.503 155.29 110.451 155.303 110.391C155.317 110.332 155.307 110.269 155.276 110.217C155.245 110.164 155.195 110.125 155.136 110.108C155.078 110.092 155.015 110.098 154.961 110.126C154.745 110.241 154.516 110.328 154.278 110.385C154.044 110.445 153.799 110.445 153.565 110.385C153.435 110.313 153.463 110.143 153.732 108.928C153.838 108.473 153.959 108.017 154.096 107.562C154.321 107.58 154.542 107.636 154.748 107.729C154.736 108.005 154.781 108.281 154.881 108.539C154.981 108.797 155.133 109.031 155.329 109.227C155.525 109.423 155.759 109.575 156.017 109.675C156.275 109.775 156.551 109.82 156.828 109.807C157.275 109.776 157.701 109.608 158.048 109.326C158.396 109.044 158.648 108.661 158.77 108.23C158.835 107.944 158.84 107.647 158.785 107.359C158.729 107.071 158.614 106.797 158.447 106.556C158.28 106.315 158.065 106.111 157.814 105.958C157.564 105.804 157.285 105.705 156.994 105.666C156.526 105.684 156.075 105.841 155.697 106.116C155.319 106.392 155.031 106.774 154.87 107.213C154.677 107.132 154.472 107.081 154.263 107.061C154.399 106.622 154.521 106.197 154.647 105.756C154.692 105.59 154.431 105.468 154.342 105.635C154.11 106.095 153.913 106.572 153.751 107.061C153.561 107.079 153.376 107.131 153.205 107.213C153.137 106.815 152.956 106.444 152.684 106.146C152.411 105.847 152.059 105.633 151.669 105.528C151.734 105.123 151.861 104.46 151.897 104.318C152.734 103.528 156.1 103.853 157.192 103.996C158.334 104.159 159.46 104.418 160.559 104.77C160.87 104.866 160.935 104.866 160.985 105.21C161.098 106.054 161.344 106.876 161.714 107.643C161.497 107.856 161.691 108.089 161.865 107.987C162.563 107.562 163.231 108.23 163.321 108.928C163.35 109.094 163.34 109.265 163.292 109.427C163.244 109.59 163.16 109.739 163.046 109.863C162.932 109.988 162.79 110.085 162.633 110.146C162.475 110.208 162.306 110.232 162.137 110.218C162.098 110.208 162.057 110.207 162.017 110.215C161.978 110.223 161.94 110.24 161.908 110.265C161.876 110.29 161.85 110.322 161.832 110.358C161.814 110.395 161.805 110.435 161.804 110.475C161.84 111.915 162.36 114.833 163.194 115.957C162.805 116.535 162.296 117.023 161.702 117.386C161.108 117.75 160.442 117.982 159.75 118.065ZM155.41 107.397C155.55 106.991 156.516 105.936 157.368 106.366C157.666 106.499 157.913 106.724 158.073 107.007C158.233 107.291 158.297 107.619 158.256 107.942C158.215 108.265 158.071 108.567 157.846 108.802C157.62 109.036 157.325 109.192 157.003 109.246C156.76 109.296 156.507 109.279 156.272 109.199C156.037 109.118 155.828 108.977 155.665 108.788C155.503 108.6 155.394 108.372 155.349 108.128C155.304 107.883 155.325 107.631 155.41 107.397Z" fill="#191919"/>
<path d="M147.855 152.066C147.043 153.449 144.566 163.473 144.38 165.54C144.35 165.814 144.775 165.859 144.851 165.601C145.075 164.806 145.331 163.097 146.003 160.321C146.979 156.276 147.517 154.795 147.839 153.614C148.005 153.134 148.133 152.642 148.223 152.142C148.249 151.96 147.945 151.914 147.855 152.066Z" fill="#191919"/>
<path d="M160.433 162.84V162.764C160.434 162.725 160.421 162.686 160.396 162.655C160.371 162.625 160.336 162.604 160.297 162.597C160.149 162.343 159.992 162.095 159.827 161.853C159.804 161.818 159.769 161.793 159.728 161.783C159.687 161.774 159.644 161.781 159.608 161.803C159.572 161.825 159.547 161.86 159.536 161.9C159.526 161.941 159.532 161.984 159.553 162.02C159.69 162.308 159.827 162.596 159.963 162.871C159.277 164.417 158.748 166.028 158.385 167.68C158.379 167.703 158.377 167.727 158.381 167.751C158.384 167.774 158.392 167.797 158.404 167.817C158.416 167.838 158.432 167.856 158.45 167.87C158.469 167.884 158.491 167.895 158.514 167.901C158.537 167.907 158.561 167.908 158.584 167.905C158.608 167.901 158.63 167.894 158.651 167.882C158.671 167.87 158.689 167.854 158.703 167.835C158.718 167.816 158.728 167.794 158.734 167.771C159.06 166.875 159.644 164.699 160.237 163.416C161.154 165.291 161.925 167.234 162.541 169.228C162.647 169.486 162.981 169.288 162.951 169.061C162.331 166.905 161.487 164.82 160.433 162.84Z" fill="#191919"/>
<path d="M174.667 155.48C174.417 154.375 174.087 153.29 173.681 152.233C173.62 152.081 173.348 152.157 173.377 152.309C173.549 153.683 173.698 153.666 176.257 163.916C176.476 165.026 176.765 166.12 177.121 167.194C177.197 167.391 177.531 167.39 177.516 167.149C177.39 165.939 174.973 156.655 174.667 155.48Z" fill="#191919"/>
<path d="M63.8846 63.5291C63.2347 59.3118 60.732 55.0167 56.723 53.7121C52.7127 52.6741 48.4565 53.2243 44.8421 55.2481C39.5467 58.2068 37.8273 63.4129 39.0917 69.1777C40.811 76.9153 47.2641 82.0023 47.4062 87.2487C46.2312 87.6404 45.5371 89.6487 46.7237 90.5127C46.5204 90.6611 46.3545 90.8547 46.2392 91.0784C46.1238 91.302 46.0622 91.5494 46.0593 91.8011C46.0563 92.0527 46.112 92.3015 46.222 92.5278C46.332 92.7541 46.4932 92.9517 46.6929 93.1048C46.4579 93.3441 46.3117 93.6567 46.2787 93.9905C46.2457 94.3244 46.3279 94.6595 46.5115 94.9403C46.8384 95.344 47.2468 95.6743 47.7099 95.9097C48.1731 96.1451 48.6806 96.2802 49.1995 96.3064C50.3634 96.5737 51.5591 96.6758 52.7515 96.6097C55.8235 96.3726 56.5137 94.5937 55.6488 93.6203C55.8865 93.49 56.0893 93.3044 56.2402 93.0791C56.3909 92.8538 56.4853 92.5956 56.5151 92.3261C56.545 92.0567 56.5095 91.784 56.4117 91.5312C56.3138 91.2784 56.1565 91.0529 55.9531 90.8737C56.4236 90.3675 56.6826 89.7005 56.6769 89.0094C56.7121 88.833 56.7122 88.6515 56.677 88.4752C56.6419 88.2988 56.5723 88.1311 56.4723 87.9817C56.3722 87.8323 56.2436 87.7042 56.0939 87.6046C55.9442 87.505 55.7763 87.4359 55.5998 87.4014C56.1173 82.4574 60.2078 79.4152 62.7163 72.7441C63.8766 69.8201 64.2785 66.6501 63.8846 63.5291ZM51.3969 65.0919C50.9774 64.6724 50.7825 63.9399 51.275 63.5742C51.6398 63.3169 51.9729 63.6961 52.0037 64.0446C51.9986 64.2561 51.9404 64.4629 51.8344 64.6459C51.7283 64.829 51.5779 64.9824 51.3969 65.0919ZM51.1541 65.9867C51.2145 65.9559 51.2606 65.9262 51.3211 65.8964C52.1728 66.5767 53.2101 66.9839 54.2971 67.0647C53.9784 67.9902 53.7355 68.9607 53.508 69.9015C52.0921 75.6061 51.454 81.4759 51.611 87.3515L49.7294 87.2603C50.3784 81.2324 50.1019 71.2014 48.4401 66.5483C49.3785 66.6044 50.315 66.4106 51.1541 65.9867ZM62.6097 70.9182C60.3134 78.7057 55.379 81.7662 54.947 87.5176C54.9326 87.5329 54.9019 87.5636 54.9019 87.579C54.0188 87.4849 53.1334 87.4139 52.2465 87.3659C52.1294 82.8865 52.4752 78.4071 53.2785 73.9988C53.693 71.6428 54.2606 69.3162 54.9777 67.034C55.4607 67.0281 55.9343 66.8996 56.354 66.6607C56.7738 66.4218 57.126 66.0802 57.3777 65.6679C58.14 64.0359 55.9781 62.5959 54.5409 66.4273C53.5759 66.4053 52.642 66.0817 51.8702 65.5019C53.5301 64.0436 52.1793 62.4347 51.0811 62.9675C50.3419 63.3265 50.0155 64.3719 50.8689 65.426C50.0597 65.8395 49.1458 66.0032 48.2433 65.8964C47.9828 65.1089 47.5529 64.388 46.9838 63.7844C45.851 62.8465 44.5128 63.9495 45.0725 64.8913C45.7563 65.7344 46.7303 66.2918 47.8037 66.4542C48.3262 68.0746 48.6921 69.7415 48.8961 71.4318C49.9646 78.6116 49.2753 85.7214 49.2753 87.1959C48.4181 87.1575 48.0369 87.1335 47.8795 87.1508C47.8795 82.2999 42.9739 78.29 40.4597 71.5988C38.3745 66.0375 38.8949 60.3543 43.5547 56.7899C47.4571 53.7879 54.4699 52.5467 58.4549 55.2116C60.648 56.8563 62.2032 59.2105 62.8555 61.8731C63.6423 64.8493 63.5569 67.989 62.6097 70.9182ZM55.236 66.3812C55.3999 66.0049 55.5979 65.6444 55.8273 65.3041C56.8709 63.7979 57.2673 65.1246 56.4993 65.8052C56.1399 66.1108 55.7024 66.3103 55.236 66.3812ZM47.5272 65.7591C46.9881 65.6108 46.4832 65.3584 46.0411 65.0161C45.8437 64.8924 45.6817 64.7198 45.5707 64.515C45.4536 64.1367 46.2206 63.6241 46.8907 64.6062C47.138 64.97 47.351 65.356 47.5272 65.7591Z" fill="#191919"/>
<path d="M22.4161 33.1537C22.5169 33.1642 33.5137 33.315 34.7521 33.3054C35.8571 33.3772 36.9666 33.3264 38.0603 33.1537C38.2427 33.0932 38.2724 32.7898 38.0603 32.7591C37.5774 32.696 37.089 32.686 36.604 32.7294C33.604 32.8196 24.0222 32.4999 22.3556 32.714C22.0792 32.7294 22.1752 33.1287 22.4161 33.1537Z" fill="#191919"/>
<path d="M22.4161 37.7205C22.4728 37.7205 33.1969 37.8837 34.7521 37.8722C35.8571 37.9441 36.9666 37.8932 38.0603 37.7205C38.2427 37.66 38.2724 37.3557 38.0603 37.3259C37.5774 37.2625 37.0891 37.2522 36.604 37.2952C33.604 37.3864 24.0222 37.0667 22.3556 37.2798C22.0792 37.3106 22.1752 37.7022 22.4161 37.7205Z" fill="#191919"/>
<path d="M80.0476 34.976C80.1004 34.976 90.8256 35.1392 92.3836 35.1276C93.4883 35.1995 94.5975 35.1487 95.6908 34.976C95.8732 34.9155 95.903 34.6121 95.6908 34.5814C95.208 34.5184 94.7196 34.5081 94.2345 34.5507C91.2345 34.6419 81.6528 34.3222 79.9862 34.5363C79.7136 34.566 79.8201 34.9587 80.0476 34.976Z" fill="#191919"/>
<path d="M80.044 39.558C80.14 39.5685 91.013 39.7202 92.38 39.7096C93.4847 39.7816 94.5938 39.7307 95.6872 39.558C95.8696 39.4975 95.8994 39.1941 95.6872 39.1634C95.2043 39.1003 94.716 39.0903 94.2309 39.1337C91.2309 39.2239 81.6492 38.9042 79.9826 39.1183C79.71 39.1337 79.8156 39.533 80.044 39.558Z" fill="#191919"/>
<path d="M40.8966 52.7875C39.5832 49.6436 37.994 46.6222 36.1475 43.7587C36.7091 43.9104 38.4515 44.351 38.7577 44.4422C39.053 44.5729 39.3771 44.6252 39.6985 44.5939C39.7444 44.5811 39.7862 44.5565 39.8197 44.5226C39.8532 44.4887 39.8772 44.4466 39.8895 44.4005C39.9017 44.3544 39.9017 44.306 39.8894 44.2599C39.8771 44.2138 39.853 44.1718 39.8195 44.1379C39.5225 43.9489 39.1843 43.8346 38.8336 43.8048C38.4841 43.7136 37.119 43.3795 36.7849 43.3037C35.9603 43.1117 35.4899 42.7881 35.222 43.5917C34.859 44.6012 34.5702 45.636 34.358 46.6877C34.3453 46.734 34.3515 46.7835 34.3753 46.8253C34.399 46.867 34.4384 46.8976 34.4848 46.9104C34.5311 46.9231 34.5806 46.9169 34.6224 46.8931C34.6641 46.8694 34.6947 46.83 34.7075 46.7837C35.0923 45.9356 35.4069 45.0575 35.6483 44.1581C37.4353 46.993 39.0612 49.9262 40.5184 52.944C40.6259 53.1513 40.9868 53.0006 40.8966 52.7875Z" fill="#FFB500"/>
<path d="M73.7481 46.3229C73.6684 45.8832 73.2623 45.9206 72.0489 45.7622C71.3491 45.6569 70.644 45.5909 69.9369 45.5645C69.8946 45.5659 69.8542 45.5824 69.823 45.6109C69.7917 45.6394 69.7715 45.6781 69.7661 45.72C69.7607 45.762 69.7704 45.8045 69.7934 45.84C69.8164 45.8755 69.8513 45.9017 69.8918 45.9139C70.7955 46.1621 71.7194 46.3295 72.6527 46.4141C70.1671 48.6458 67.5475 50.7235 64.8086 52.6358C64.5964 52.7875 64.7779 53.136 65.0207 52.9997C66.544 52.0846 68.0092 51.0763 69.4079 49.9805C71.5564 48.3485 73.0559 46.9085 73.1519 46.8393C73.0914 47.4307 72.9244 49.2518 72.8937 49.5705C72.8154 49.88 72.8207 50.2046 72.909 50.5113C72.934 50.5512 72.9687 50.5841 73.0098 50.6069C73.051 50.6297 73.0972 50.6416 73.1443 50.6416C73.1913 50.6416 73.2375 50.6297 73.2787 50.6069C73.3198 50.5841 73.3545 50.5512 73.3794 50.5113C73.466 50.359 73.5079 50.1853 73.5004 50.0102C73.5916 48.9782 73.8143 46.5984 73.7481 46.3229Z" fill="#FFB500"/>
<path d="M78.2241 72.8915C77.5223 72.0832 76.7569 71.3323 75.9355 70.646C75.9006 70.6159 75.8556 70.6 75.8095 70.6017C75.7635 70.6033 75.7197 70.6224 75.6872 70.655C75.6546 70.6876 75.6355 70.7313 75.6338 70.7774C75.6322 70.8234 75.648 70.8684 75.6782 70.9033C76.2245 71.6516 76.839 72.3477 77.5137 72.9827C76.9483 73.0787 73.6238 73.1343 72.7041 73.119C70.953 73.1012 69.2025 73.0455 67.4539 72.9519C67.2263 72.9366 67.1659 73.3311 67.3934 73.3619C70.7781 73.7467 74.1904 73.828 77.5895 73.6047C75.1089 76.1766 75.178 76.0691 75.1319 76.2927C75.1193 76.3389 75.119 76.3876 75.1313 76.434C75.1435 76.4803 75.1677 76.5225 75.2016 76.5564C75.2354 76.5904 75.2776 76.6147 75.3238 76.6271C75.3701 76.6394 75.4188 76.6394 75.4651 76.6268C75.8059 76.5308 75.8356 76.3283 77.6961 74.3507C77.9397 74.1214 78.1644 73.8729 78.3681 73.6076C78.5879 73.3465 78.4219 73.1027 78.2241 72.8915Z" fill="#FFB500"/>
<path d="M115.081 55.8255C112.941 54.1657 110.389 53.1206 107.7 52.8024C105.011 52.4842 102.285 52.9051 99.8172 54.0198C99.7628 53.9948 99.7028 53.9849 99.6433 53.9911C99.5838 53.9973 99.527 54.0194 99.479 54.055C99.4309 54.0906 99.3933 54.1384 99.37 54.1935C99.3468 54.2487 99.3387 54.309 99.3468 54.3683C100.41 60.4905 101.869 66.5372 103.717 72.47C103.735 72.5265 103.769 72.5766 103.814 72.6147C103.859 72.6528 103.915 72.6772 103.974 72.6851C104.032 72.6931 104.092 72.6842 104.146 72.6596C104.2 72.6349 104.246 72.5955 104.278 72.5459C115.745 55.2543 115.321 56.0655 115.081 55.8255Z" fill="#FFB500"/>
<path d="M181.143 42.0157C181.028 41.6396 180.821 41.298 180.542 41.0213C180.262 40.7446 179.918 40.5416 179.541 40.4303C179.164 40.319 178.765 40.303 178.38 40.3837C177.995 40.4643 177.636 40.6392 177.335 40.8925C177.185 40.0362 177.493 34.8311 177.187 33.2125C177.101 32.7594 177.054 32.7565 176.53 32.7632C175.961 32.7719 169.229 32.8036 169.202 32.8093C168.995 32.8439 168.845 33.2039 169.186 33.4813C169.382 33.7145 169.524 33.9882 169.601 34.2829C169.678 34.5775 169.689 34.8855 169.632 35.1847C169.575 35.4839 169.453 35.7668 169.273 36.0128C169.094 36.2588 168.862 36.4618 168.594 36.6071C168.313 36.754 168.002 36.8369 167.685 36.8501C167.368 36.8632 167.051 36.8062 166.759 36.683C166.466 36.5599 166.204 36.3737 165.992 36.1377C165.779 35.9017 165.622 35.6218 165.53 35.3178C165.287 34.4538 165.924 33.8154 166.273 33.0868C166.288 33.0561 166.295 33.0222 166.293 32.9881C166.291 32.954 166.281 32.9209 166.263 32.892C166.244 32.8631 166.219 32.8394 166.189 32.823C166.159 32.8067 166.126 32.7984 166.091 32.7988L138.749 32.7383C138.713 32.7382 138.677 32.7451 138.644 32.7588C138.611 32.7724 138.581 32.7925 138.556 32.8179C138.53 32.8432 138.51 32.8733 138.496 32.9064C138.483 32.9396 138.476 32.9751 138.476 33.0109C138.506 34.1792 138.582 39.7482 138.597 41.3562C138.286 41.1257 137.925 40.9723 137.543 40.9086C137.161 40.8449 136.77 40.8727 136.401 40.9898C136.032 41.1068 135.696 41.3098 135.421 41.5819C135.146 41.8541 134.94 42.1877 134.818 42.5552C134.6 43.1395 134.574 43.7781 134.743 44.3783C134.912 44.9786 135.269 45.5092 135.76 45.8932C136.184 46.1932 136.69 46.3544 137.209 46.3544C137.728 46.3544 138.234 46.1932 138.657 45.8932C138.657 46.257 138.733 53.5098 138.733 53.5098C138.734 53.5684 138.754 53.6251 138.789 53.6716C138.825 53.7182 138.875 53.752 138.931 53.768C139.254 53.8429 147.434 53.8295 147.337 53.8285C146.932 54.2252 146.638 54.722 146.487 55.2685C146.389 55.7201 146.421 56.1902 146.578 56.6247C146.736 57.0591 147.013 57.4402 147.378 57.724C147.743 58.0078 148.18 58.1828 148.64 58.2289C149.1 58.275 149.563 58.1902 149.977 57.9844C150.358 57.8214 150.697 57.5755 150.971 57.2646C151.244 56.9537 151.445 56.5857 151.559 56.1873C151.672 55.789 151.695 55.3704 151.626 54.962C151.557 54.5536 151.398 54.1657 151.16 53.8266C166.978 53.8266 165.956 53.9226 166.183 53.7815C166.349 53.6605 166.136 53.4935 166.061 53.3869C165.803 53.0736 165.636 52.6961 165.577 52.2951C165.518 51.894 165.57 51.4845 165.726 51.1103C165.881 50.7361 166.136 50.4114 166.463 50.171C166.789 49.9306 167.175 49.7836 167.578 49.7456C167.905 49.7431 168.229 49.8108 168.527 49.9443C168.825 50.0778 169.091 50.274 169.306 50.5194C169.566 50.8118 169.721 51.1826 169.745 51.5729C169.77 51.9632 169.664 52.3506 169.444 52.6736C169.201 53.1354 168.644 53.8477 169.14 53.9024C169.14 53.9024 176.808 53.8487 177.045 53.842C177.561 53.9485 177.561 53.7508 177.561 53.6605C177.561 50.8679 177.455 48.0925 177.424 45.2999C179.337 46.2916 181.747 44.1143 181.143 42.0157ZM179.672 44.5799C178.172 45.6973 176.97 43.9079 176.818 44.7469C176.849 47.5837 176.864 50.4061 176.955 53.2439C174.497 53.289 172.054 53.289 169.596 53.289C171.356 51.3018 168.924 48.4036 166.62 49.3895C166.266 49.5451 165.948 49.7738 165.688 50.0606C165.428 50.3474 165.231 50.686 165.111 51.0541C164.99 51.4221 164.949 51.8115 164.989 52.1966C165.03 52.5817 165.151 52.954 165.345 53.289C163.055 53.2736 160.763 53.289 158.472 53.2439C158.411 50.7095 158.366 48.176 158.336 45.6599C157.963 46.0041 157.492 46.223 156.988 46.2856C156.485 46.3483 155.974 46.2517 155.528 46.0093C155.067 45.7524 154.678 45.382 154.399 44.9332C154.121 44.4844 153.961 43.9719 153.935 43.4442C153.911 43.0525 153.975 42.6604 154.124 42.2971C154.273 41.9339 154.501 41.6089 154.793 41.3463C155.085 41.0838 155.432 40.8904 155.809 40.7808C156.186 40.6711 156.582 40.648 156.969 40.713C157.226 40.7306 157.477 40.8019 157.704 40.9223C157.932 41.0427 158.131 41.2095 158.29 41.4119C158.26 38.7104 158.229 36.01 158.184 33.3085C160.627 33.3546 163.069 33.3546 165.528 33.3546C163.829 35.3418 166.271 38.1796 168.547 37.208C169.958 36.632 170.777 34.6285 169.761 33.368C172.065 33.3527 174.374 33.3824 176.665 33.322C176.893 34.2042 176.301 42.5773 177.181 41.8343C179.23 39.1175 182.236 42.6666 179.672 44.5799Z" fill="#FFB500"/>
<path d="M114.535 59.0858C114.485 59.1818 105.127 73.2631 105.187 73.1661C105.042 73.3895 104.836 73.567 104.593 73.6777C104.351 73.7884 104.082 73.8278 103.818 73.7912C103.554 73.7547 103.305 73.6437 103.102 73.4713C102.899 73.2989 102.748 73.0722 102.669 72.8176C101.008 67.5086 99.6551 62.1079 98.618 56.6426C94.1613 58.7591 90.701 62.524 88.9671 67.1431C85.0647 78.1543 93.0058 88.7104 105.021 87.3991C112.355 86.6128 118.52 81.617 119.769 74.3047C120.295 71.5318 120.09 68.6695 119.172 66.0005C118.254 63.3315 116.656 60.9481 114.535 59.0858Z" fill="#FFB500"/>
<path d="M40.2832 108.708C39.6055 108.811 40.0471 109.686 40.5597 109.522C40.6644 109.483 40.7497 109.405 40.7975 109.304C40.8454 109.203 40.8521 109.087 40.8161 108.981C40.7802 108.875 40.7045 108.788 40.605 108.737C40.5055 108.686 40.3901 108.676 40.2832 108.708Z" fill="#191919"/>
<path d="M43.7043 107.428C43.6378 107.452 43.5778 107.49 43.5292 107.541C43.4805 107.592 43.4447 107.654 43.4247 107.721C43.4046 107.789 43.4009 107.86 43.4138 107.93C43.4267 107.999 43.4558 108.064 43.4988 108.12C43.5744 108.201 43.6756 108.253 43.7852 108.268C43.8949 108.283 44.0064 108.259 44.1008 108.201C44.1756 108.135 44.2284 108.047 44.2519 107.95C44.2754 107.853 44.2686 107.751 44.2323 107.658C44.1925 107.558 44.1146 107.477 44.0156 107.434C43.9167 107.391 43.8047 107.389 43.7043 107.428Z" fill="#191919"/>
<path d="M150.304 107.754C150.207 107.794 150.129 107.871 150.089 107.968C150.049 108.066 150.048 108.175 150.089 108.272C150.129 108.369 150.206 108.447 150.303 108.487C150.4 108.527 150.509 108.528 150.606 108.487C151.004 108.36 150.847 107.555 150.304 107.754Z" fill="#191919"/>
<path d="M155.902 107.924C155.854 107.943 155.809 107.972 155.772 108.009C155.735 108.045 155.705 108.089 155.684 108.137C155.664 108.185 155.653 108.236 155.652 108.288C155.652 108.341 155.661 108.392 155.681 108.441C155.7 108.489 155.729 108.533 155.766 108.571C155.802 108.608 155.845 108.638 155.893 108.659C155.942 108.679 155.993 108.69 156.045 108.691C156.098 108.691 156.149 108.682 156.198 108.662C156.6 108.5 156.422 107.744 155.902 107.924Z" fill="#191919"/>
</svg>
