<svg width="192" height="193" viewBox="0 0 192 193" fill="none" xmlns="http://www.w3.org/2000/svg">
<path d="M101.766 120.388C117.474 119.591 131.865 119.23 134.186 120.531C135.381 121.203 137.241 130.035 138.095 135.942C142.92 135.366 148.983 134.836 155.041 134.423C154.141 129.878 153.586 127.031 151.545 122.64C151.236 121.975 152.083 121.706 152.428 122.314C154.473 126.057 155.846 130.131 156.486 134.348C164.687 133.81 172.779 133.484 177.85 133.484C177.274 128.521 174.084 117.084 168.366 111.219C163.957 106.698 155.406 102.675 147.837 101.723C147.719 102.772 147.314 103.768 146.668 104.602C146.021 105.436 145.156 106.076 144.17 106.451C140.126 108.039 132.746 108.457 126.162 104.841C119.217 106.822 106.488 114.381 101.766 120.388Z" fill="#FFB500"/>
<path d="M186.436 155.711C145.019 156.49 103.789 156.336 62.3934 156.383C61.5563 156.383 61.3672 157.692 62.2331 157.707C103.535 158.47 145.33 157.572 186.625 157.066C187.507 157.058 187.313 155.695 186.436 155.711Z" fill="#FFB500"/>
<path d="M84.4587 73.8771C88.7106 73.9568 109.432 73.5709 111.635 73.4758C112.3 73.447 112.282 72.3008 111.635 72.3008C108.678 72.3008 89.2184 72.6761 84.4587 72.9257C84.3436 72.9413 84.238 72.9981 84.1616 73.0855C84.0851 73.173 84.043 73.2852 84.043 73.4014C84.043 73.5176 84.0851 73.6298 84.1616 73.7173C84.238 73.8048 84.3436 73.8615 84.4587 73.8771Z" fill="#FFB500"/>
<path d="M67.4871 68.569C67.178 68.7303 61.8318 75.1565 64.2951 74.3923C64.6446 74.2839 68.1351 69.8611 68.307 69.0682C68.3276 68.9654 68.3161 68.8588 68.274 68.7628C68.2319 68.6668 68.1613 68.586 68.0718 68.5315C67.9823 68.477 67.8782 68.4514 67.7736 68.4581C67.669 68.4648 67.569 68.5035 67.4871 68.569Z" fill="black"/>
<path d="M55.8391 53.9715C57.5584 54.0522 92.5687 53.9648 94.6557 53.7594C94.9521 53.7201 95.2233 53.5722 95.4169 53.3443C95.6104 53.1164 95.7125 52.8248 95.7033 52.526C95.6941 52.2271 95.5742 51.9424 95.3671 51.7268C95.1599 51.5113 94.88 51.3804 94.5818 51.3594C84.8387 51.4803 64.5847 51.5303 55.8938 51.7203C54.5901 51.7501 54.4807 53.9101 55.8391 53.9715Z" fill="#FFB500"/>
<path d="M104.844 90.9163C102.591 90.9163 85.4597 90.7243 84.2463 91.0709C83.8335 91.1899 83.6703 91.8581 84.1656 91.9992C85.4597 92.3707 102.502 92.1826 104.855 92.1826C107.208 92.1826 109.491 92.267 111.795 92.1826C112.5 92.1566 112.448 90.9758 111.749 90.9451C109.457 90.8434 107.141 90.9163 104.844 90.9163Z" fill="#FFB500"/>
<path d="M83.9783 99.885C83.8329 99.9283 83.7104 100.027 83.6374 100.16C83.5644 100.293 83.5469 100.45 83.5886 100.595C83.7863 101.267 82.8983 101.037 112.095 101.524C112.256 101.507 112.405 101.432 112.514 101.312C112.622 101.191 112.682 101.035 112.682 100.873C112.682 100.711 112.622 100.555 112.514 100.435C112.405 100.315 112.256 100.239 112.095 100.223C84.0859 99.7708 85.8244 99.742 83.9783 99.885Z" fill="#FFB500"/>
<path d="M111.47 83.2399C111.627 83.2294 111.773 83.1612 111.882 83.0485C111.991 82.9359 112.054 82.7868 112.059 82.6303C112.064 82.4739 112.01 82.3212 111.909 82.2019C111.807 82.0827 111.665 82.0054 111.51 81.9852C107.343 81.87 87.9553 81.7087 84.4378 82.4095C83.8618 82.5237 83.9905 83.3628 84.5406 83.4117C87.5156 83.6796 92.0641 82.6802 111.47 83.2399Z" fill="#FFB500"/>
<path d="M137.076 66.1896C137.128 57.9202 137.512 47.604 136.818 39.5803C136.799 39.4599 136.736 39.3507 136.641 39.274C136.546 39.1972 136.426 39.1583 136.304 39.1648C136.183 39.1712 136.068 39.2225 135.981 39.3089C135.895 39.3952 135.844 39.5104 135.838 39.6322C135.612 43.4818 135.824 61.3685 135.838 66.2818C135.84 67.0891 137.071 66.9979 137.076 66.1896Z" fill="black"/>
<path d="M64.6318 104.498C65.8214 105.801 67.0863 107.034 68.4199 108.189C68.9959 108.732 69.883 107.867 69.3031 107.325C68.0601 106.075 66.7534 104.889 65.3883 103.773C64.9726 103.507 64.3111 104.052 64.6318 104.498Z" fill="black"/>
<path d="M11.4233 39.5776C11.4233 38.8557 10.2866 38.7242 10.277 39.4634C9.89879 70.0452 10.4038 105.616 11.8649 136.039C11.9052 136.882 13.2089 136.676 13.1657 135.839C11.622 103.657 11.3791 71.7866 11.4233 39.5776Z" fill="black"/>
<path d="M25.8639 107.816C25.5414 108.296 26.2892 108.907 26.6665 108.459C27.1532 107.883 29.9756 104.612 29.8345 103.908C29.4457 102.044 26.415 107.001 25.8639 107.816Z" fill="black"/>
<path d="M46.9834 92.3048C46.491 92.2136 43.3671 94.986 42.7364 95.588C36.8391 91.7316 37.4257 92.6811 37.4986 95.012C37.5209 96.6063 37.6317 98.1982 37.8308 99.7803C37.9028 100.28 38.6631 100.193 38.6948 99.7064C38.8148 97.9236 38.5854 96.1467 38.5566 94.3649C43.7492 97.5329 42.1441 97.4369 46.993 93.4644C47.569 94.1009 50.3118 96.7697 51.1422 96.6689C51.8142 96.5854 54.0769 93.5451 54.6154 92.8971C54.6154 94.2728 54.6596 98.1992 55.0676 99.3108C55.2788 99.8868 55.8356 99.6833 55.8644 99.1102C55.9355 97.8891 55.7876 94.9947 55.7905 93.5854C55.7905 91.9803 55.7857 91.5694 55.1137 90.6094C53.6545 88.5243 49.9585 83.4161 47.7035 80.6436C45.7172 78.2004 45.6299 78.1476 44.2359 80.3057C42.0884 83.636 38.4836 90.0977 37.9326 91.3265C37.6993 91.844 38.497 92.0878 38.7745 91.7048C39.698 90.4289 41.7889 86.6782 42.7518 85.028C44.9166 85.1144 47.0845 85.0779 49.2452 84.9185C51.0209 87.0312 52.718 89.2087 54.3332 91.4465L51.027 95.4584C50.5767 95.1012 47.4817 92.3969 46.9834 92.3048Z" fill="black"/>
<path d="M63.5229 135.283C58.3649 134.995 16.362 135.221 14.7233 135.475C14.6021 135.514 14.4973 135.592 14.4252 135.698C14.3532 135.803 14.318 135.928 14.3251 136.056C14.3323 136.183 14.3813 136.304 14.4646 136.4C14.548 136.497 14.6609 136.563 14.7857 136.588C30.6669 136.633 47.5217 136.507 63.4308 136.524C64.2045 136.524 64.337 135.331 63.5229 135.283Z" fill="black"/>
<path d="M27.8901 75.8396C28.4584 76.4742 29.3301 75.6793 28.8577 75.1408C27.7115 73.84 25.2558 70.886 24.124 69.8915C23.6757 69.4969 23.068 70.1142 23.3848 70.5846C24.1989 71.799 26.7678 74.5878 27.8901 75.8396Z" fill="black"/>
<path d="M46.3688 70.1974C46.4408 67.7058 46.2933 65.2127 45.9282 62.7469C45.8776 62.6582 45.8024 62.5861 45.7116 62.5393C45.6209 62.4924 45.5186 62.4729 45.417 62.4831C45.3154 62.4932 45.2189 62.5326 45.1393 62.5965C45.0596 62.6604 45.0002 62.7459 44.9682 62.8429C44.8904 65.3317 45.0111 67.8228 45.3291 70.2925C45.358 70.4163 45.4308 70.5256 45.5339 70.6C45.6371 70.6744 45.7637 70.709 45.8903 70.6975C46.017 70.6859 46.1352 70.6289 46.2231 70.537C46.3111 70.4451 46.3628 70.3245 46.3688 70.1974Z" fill="black"/>
<path d="M47.2085 107.363C47.2085 108.16 46.9963 113.449 47.2824 114.144C47.333 114.231 47.4057 114.304 47.4932 114.354C47.5808 114.405 47.6801 114.431 47.7811 114.431C47.8822 114.431 47.9815 114.405 48.069 114.354C48.1566 114.304 48.2293 114.231 48.2799 114.144C48.5784 113.381 48.2395 108.412 48.2002 107.363C48.1483 106.801 47.2085 106.79 47.2085 107.363Z" fill="black"/>
<path d="M23.1871 90.0117C34.8463 68.0843 61.4229 70.3883 71.1967 88.2347C59.6498 105.857 37.0284 108.525 23.1343 91.5813C22.7004 91.0533 22.1637 91.7282 22.5583 92.2811C34.7733 109.273 60.8728 107.056 71.6498 89.8811C72.0009 89.4446 72.2058 88.9088 72.2357 88.3494C72.2655 87.79 72.1186 87.2354 71.8159 86.764C59.9647 66.4677 30.2834 70.1186 22.3845 89.4923C22.1493 90.0683 22.9058 90.5416 23.1871 90.0117Z" fill="black"/>
<path d="M129.458 67.741C126.455 68.317 123.807 74.8767 127.12 77.9478C129.148 79.8284 138.49 79.9081 144.153 79.6671C144.194 80.3602 144.342 81.0426 144.594 81.6898C144.819 82.2658 145.495 82.4482 145.327 81.4095C145.235 80.8179 145.193 80.2197 145.201 79.621C146.082 79.5828 146.961 79.5188 147.837 79.429C147.685 80.7082 147.465 81.9784 147.179 83.2345C147.02 83.9228 147.793 84.0514 148.055 83.3948C148.859 81.3179 149.184 79.0866 149.007 76.8668C148.665 71.9737 134.944 66.687 129.458 67.741ZM130.404 70.3254C129.022 70.6412 128.696 72.7398 128.57 73.862C128.354 75.782 127.13 74.438 127.424 72.7494C127.649 71.4764 128.736 69.4028 130.323 69.6092C130.415 69.6043 130.505 69.6346 130.576 69.6941C130.646 69.7536 130.691 69.8377 130.701 69.9293C130.712 70.0208 130.686 70.1127 130.631 70.1864C130.576 70.26 130.495 70.3097 130.404 70.3254Z" fill="#191919"/>
<path d="M140.688 87.4933C141.454 86.1973 141.98 84.7744 142.242 83.2923C143.531 83.5259 144.761 84.0155 145.858 84.7323C146.511 85.0136 146.758 84.1563 146.434 83.8904C145.256 82.9302 143.816 82.3471 142.301 82.2171C141.602 80.8933 136.29 80.5851 135.47 81.9819C135.269 81.8693 135.047 81.8004 134.818 81.7797C134.589 81.7591 134.358 81.7871 134.14 81.8619C133.723 80.7157 129.011 80.4286 127.837 81.7525C126.484 81.6037 125.923 82.8526 127.71 82.8411C127.776 84.0818 128.006 85.3084 128.393 86.4891C128.855 87.4357 132.183 87.4213 132.845 86.9422C133.633 86.373 133.991 83.8875 134.215 82.9304C134.54 82.8285 134.89 82.8489 135.201 82.988C135.194 84.2712 135.34 85.5506 135.636 86.7992C136.145 87.811 139.95 88.365 140.688 87.4933ZM132.481 85.8421C132.325 86.2194 132.184 86.3096 130.922 86.2597C128.791 86.1762 129.237 86.6379 128.585 82.3458C130.086 81.836 131.714 81.836 133.215 82.3458C133.194 83.5472 132.945 84.7337 132.481 85.8421ZM136.493 86.277C136.255 85.0969 136.17 83.8912 136.241 82.6894C137.887 82.1017 139.694 82.1569 141.302 82.844C141.212 83.7881 140.97 84.7114 140.585 85.5781C140.039 86.7714 139.949 86.9278 138.23 86.7877C137.404 86.7205 136.609 86.5371 136.493 86.2779V86.277Z" fill="#191919"/>
<path d="M137.305 85.5112C137.484 86.1583 138.745 86.2341 138.451 84.365C138.283 83.3013 136.784 83.6354 137.305 85.5112Z" fill="black"/>
<path d="M148.196 84.7373C144.907 85.0128 143.283 91.0378 141.536 91.6147C140.315 92.0189 137.576 90.2621 134.808 90.073C132.041 89.8838 130.464 91.0531 129.948 90.8064C129.431 90.5597 129.788 88.3997 129.788 87.8957C129.788 87.3917 129.513 87.1162 129.025 88.2278C128.538 89.3395 123.782 100.011 125.851 102.882C128.807 106.985 140.874 107.854 144.62 105.032C149.316 101.493 145.319 90.1286 146.476 87.168C146.694 86.7448 147.041 86.4021 147.466 86.1897C147.892 85.9773 148.375 85.9064 148.844 85.9872C150.426 86.6727 149.991 91.3632 147.462 90.6288C146.827 90.4454 146.683 91.2442 147.27 91.5523C148.988 92.4557 150.673 91.0474 150.898 88.6867C151.066 86.8992 150.459 84.5482 148.196 84.7373ZM135.1 95.3933C132.717 95.3933 132.235 94.4477 132.034 92.8973C134.097 93.3408 136.235 93.3037 138.282 92.7888C138.064 94.2058 137.761 95.3971 135.1 95.3971V95.3933Z" fill="black"/>
<path d="M133.957 85.3216C133.516 86.3392 133.185 87.4013 132.971 88.4896C132.734 89.7808 134.452 89.7846 135.419 89.6358C135.995 89.5475 136.101 88.8909 135.47 88.8448C135.007 88.8102 134.096 88.7872 134.009 88.6269C134.089 87.5558 134.294 86.4978 134.623 85.4752C134.756 85.0528 134.14 84.8877 133.957 85.3216Z" fill="#191919"/>
<path d="M131.232 85.5559C131.765 85.3524 131.808 83.9153 131.352 83.6474C130.201 82.9639 130.04 86.0052 131.232 85.5559Z" fill="#191919"/>
<path d="M140.624 34.9922C96.2264 35.0267 49.0942 34.924 5.372 35.2965C4.62704 35.3023 4.60976 37.2165 5.32592 37.2213C49.5867 37.4987 96.2034 37.1531 140.578 37.1186C141.375 37.1176 141.392 34.9922 140.624 34.9922Z" fill="#191919"/>
<path d="M90.0418 137.187C82.4578 136.736 70.7103 135.251 63.6332 132.213C62.7231 131.821 58.2274 132.556 53.1231 130.197C52.5893 129.951 52.3772 130.703 52.8764 131.011C55.4847 132.618 58.7794 133.046 61.788 133.143C62.5967 133.122 63.398 133.301 64.1208 133.665C72.4595 136.655 81.2411 138.224 90.0994 138.306C90.8271 138.317 90.804 137.233 90.0418 137.187Z" fill="#191919"/>
<path d="M176.267 135.01C176.119 134.202 175.029 134.487 175.165 135.29C175.634 138.175 175.448 141.127 174.621 143.93C172.662 150.759 166.896 149.663 161.124 149.397C155.067 149.119 146.724 148.538 141.491 148.297C141.375 148.282 141.258 148.312 141.164 148.382C141.071 148.452 141.008 148.555 140.99 148.67C140.972 148.785 140.999 148.903 141.066 148.998C141.133 149.094 141.235 149.159 141.349 149.18C146.385 149.98 157.14 150.453 161.331 150.652C167.062 150.925 173.456 151.689 175.59 145.053C176.64 141.812 176.872 138.362 176.267 135.01Z" fill="#191919"/>
<path d="M138.699 138.431C146.115 137.252 153.587 136.447 161.085 136.019C161.206 136.008 161.318 135.951 161.398 135.859C161.478 135.767 161.519 135.648 161.513 135.526C161.507 135.405 161.455 135.29 161.366 135.207C161.278 135.123 161.16 135.077 161.039 135.078C153.49 135.388 145.966 136.154 138.509 137.371C138.369 137.396 138.244 137.476 138.162 137.594C138.081 137.711 138.05 137.856 138.075 137.997C138.1 138.138 138.181 138.262 138.298 138.344C138.416 138.425 138.561 138.457 138.701 138.431H138.699Z" fill="#191919"/>
<path d="M59.7351 130.129C59.8149 130.128 59.8939 130.112 59.9671 130.08C60.0404 130.048 60.1065 130.002 60.1615 129.944C60.2165 129.886 60.2593 129.818 60.2873 129.743C60.3153 129.668 60.3279 129.589 60.3245 129.509C60.321 129.429 60.3014 129.351 60.267 129.279C60.2326 129.207 60.184 129.142 60.1242 129.089C60.0643 129.036 59.9944 128.996 59.9187 128.971C59.8429 128.946 59.7628 128.936 59.6832 128.942C56.1197 129.057 54.3216 128.045 51.9696 126.374C51.5972 126.11 51.2016 126.576 51.4896 126.95C53.1639 129.163 57.0701 130.233 59.7351 130.129Z" fill="#191919"/>
<path d="M65.6642 124.055C66.0982 124.807 67.0082 124.909 67.8185 125.092C72.6041 126.18 83.5548 125.817 88.6342 125.758C89.3561 125.749 89.2102 124.816 88.4681 124.823C84.7596 124.86 73.567 124.966 68.0134 123.94C66.9881 123.748 67.0409 123.9 66.5177 123.076C65.5289 121.515 64.0543 119.606 62.2658 119.574C61.7321 119.565 61.6898 120.079 62.1449 120.308C63.7248 121.1 64.9721 122.428 65.6642 124.055Z" fill="#191919"/>
<path d="M62.4947 124.264C60.016 123.537 56.513 122.369 54.5863 119.88C54.0103 119.133 53.5207 119.714 53.8068 120.316C55.0068 122.843 59.3997 125.116 61.9216 125.212C63.3165 125.27 62.9287 124.391 62.4947 124.264Z" fill="#191919"/>
<path d="M52.4582 122.303C52.379 122.207 52.2659 122.144 52.1422 122.129C52.0185 122.113 51.8935 122.146 51.793 122.219C51.6924 122.293 51.624 122.403 51.6016 122.525C51.5793 122.648 51.6048 122.775 51.6729 122.879C52.588 124.192 53.7763 125.291 55.1564 126.101C56.5364 126.911 58.0754 127.413 59.6678 127.572C59.7932 127.577 59.9166 127.54 60.0193 127.468C60.1219 127.396 60.1982 127.292 60.2364 127.172C60.2747 127.053 60.2728 126.924 60.2312 126.806C60.1895 126.687 60.1104 126.586 60.0057 126.516C59.1638 126.154 55.5849 125.92 52.4582 122.303Z" fill="#191919"/>
<path d="M162.977 151.677C161.258 151.453 141.314 151.895 140.39 151.516C139.467 151.138 134.69 123.933 133.442 122.145C132.194 120.358 92.883 121.491 91.0955 122.523C89.3079 123.555 95.211 154.631 96.7403 155.259C98.1044 155.819 160.928 155.042 162.98 154.933C165.033 154.825 164.697 151.9 162.977 151.677ZM113.449 142.736C108.086 143.183 106.405 134.384 111.764 133.51C114.308 133.094 116.55 135.35 117.025 138.128C117.124 138.67 117.107 139.226 116.977 139.761C116.846 140.295 116.604 140.796 116.267 141.231C115.929 141.666 115.504 142.025 115.018 142.284C114.533 142.543 113.998 142.698 113.449 142.736Z" fill="#191919"/>
</svg>
