<svg width="192" height="193" viewBox="0 0 192 193" fill="none" xmlns="http://www.w3.org/2000/svg">
<path d="M94.4336 125.389C95.0447 125.66 95.7359 125.691 96.3686 125.475C97.0014 125.258 97.5292 124.811 97.8464 124.222C98.0081 123.71 98.0081 123.16 97.8464 122.647C97.8068 122.584 97.753 122.532 97.6892 122.495C97.6254 122.457 97.5536 122.435 97.4797 122.431C97.4058 122.426 97.3319 122.439 97.2641 122.469C97.1963 122.499 97.1366 122.544 97.0899 122.602C96.1462 123.979 95.0115 124.092 94.2857 124.49C93.7702 124.773 93.9805 125.141 94.4336 125.389ZM97.232 123.489C97.232 124.803 95.4464 125.06 94.9568 124.922C95.8135 124.622 96.5912 124.132 97.232 123.489Z" fill="#191919"/>
<path d="M94.3357 119.856C94.0851 120.336 94.3702 120.424 94.6035 120.265C94.9089 120.084 95.2557 119.985 95.6106 119.977C96.9766 119.95 95.1267 118.711 94.3357 119.856Z" fill="#191919"/>
<path d="M92.6108 120.756C92.1097 120.742 92.0415 122.553 92.0137 123.002C91.9052 123.856 92.1951 124.25 93.1513 124.089C95.0617 123.773 94.6412 122.781 94.0729 122.951C93.6006 123.094 93.2022 123.424 92.6732 123.361C92.7472 122.518 93.1628 120.77 92.6108 120.756Z" fill="#191919"/>
<path d="M96.2745 116.97C95.2454 116.321 92.7868 115.997 93.1737 117.265C93.3657 117.897 94.0771 117.227 95.7283 117.649C96.96 117.959 96.8323 117.322 96.2745 116.97Z" fill="#191919"/>
<path d="M90.4786 117.17C90.043 117.275 89.6399 117.485 89.305 117.783C88.9701 118.08 88.7137 118.456 88.5586 118.876C88.3877 119.491 88.8178 119.631 89.0645 119.304C89.4844 118.738 90.0878 118.336 90.7714 118.166C91.1324 118.034 91.2687 117.115 90.4786 117.17Z" fill="#191919"/>
<path d="M89.7444 120.783C89.5678 121.096 89.78 121.354 90.0516 121.199C90.3779 121.012 90.7512 120.923 91.1268 120.942C91.4628 120.942 91.531 120.703 91.2295 120.454C90.985 120.316 90.698 120.273 90.4239 120.334C90.1497 120.394 89.9077 120.554 89.7444 120.783Z" fill="#191919"/>
<path d="M124.791 130.159C124.727 130.226 124.688 130.313 124.681 130.406C124.674 130.499 124.7 130.591 124.754 130.666C124.808 130.742 124.887 130.796 124.977 130.82C125.067 130.844 125.162 130.835 125.246 130.796C126.953 129.88 128.727 130.916 129.621 132.451C131.816 136.221 132.789 148.209 128.518 148.209C129.399 143.828 129.286 135.765 124.69 131.49C124.388 131.21 123.966 131.535 124.251 131.922C128.032 137.048 128.074 141.742 127.545 147.851C127.467 148.749 127.012 149.416 128.505 149.307C129.186 149.244 129.838 149 130.393 148.6C130.949 148.2 131.387 147.658 131.662 147.032C133.312 143.444 132.718 133.664 129.557 130.676C128.318 129.511 126.191 128.949 124.791 130.159Z" fill="#191919"/>
<path d="M126.003 149.772C124.699 150.56 123.257 151.089 121.753 151.33C121.785 150.069 121.728 148.807 121.582 147.554C121.533 147.144 120.854 147.087 120.866 147.554C120.877 154.185 120.265 160.804 119.039 167.321C118.663 169.393 119.91 168.619 120.095 167.754C121.03 162.683 121.576 157.548 121.727 152.394C123.275 152.01 125.324 151.561 126.466 150.29C127.047 149.64 126.319 149.577 126.003 149.772Z" fill="#191919"/>
<path d="M92.6502 135.806C90.4173 134.52 89.1942 133.568 88.4349 132.393C87.9481 131.635 87.4624 131.596 86.6109 131.966C85.984 132.314 85.3752 132.694 84.7869 133.104C83.0291 132.042 81.0662 131.364 79.0275 131.116C76.9889 130.868 74.9208 131.055 72.9597 131.664C72.1302 131.941 72.5065 132.613 72.9597 132.461C74.759 131.919 76.6502 131.751 78.5169 131.967C80.3837 132.183 82.1865 132.779 83.8144 133.718C85.3504 134.582 84.9827 133.667 87.4489 132.58C88.6507 134.324 90.2572 135.751 92.1309 136.739C91.3591 137.673 90.7225 138.711 90.2397 139.823C88.5039 138.24 86.9088 136.51 85.4723 134.651C85.4273 134.589 85.3604 134.547 85.2853 134.534C85.2103 134.52 85.1328 134.535 85.0688 134.577C85.0048 134.618 84.9591 134.683 84.9411 134.757C84.9231 134.831 84.9342 134.909 84.9721 134.976C86.2192 137.045 87.7703 138.915 89.5734 140.522C90.2349 141.098 90.7206 140.794 91.1152 140.033C91.62 139.047 92.2265 138.116 92.9248 137.256C93.5904 142.219 94.6093 147.127 95.9737 151.944C96.1801 152.559 96.7821 152.376 96.6563 151.785C93.2454 135.828 94.1824 136.689 92.6502 135.806Z" fill="#191919"/>
<path d="M100.616 150.437C100.082 150.097 99.0372 150.897 99.7294 151.837C100.311 152.626 101.458 150.973 100.616 150.437Z" fill="#191919"/>
<path d="M99.3898 159.015C100.136 159.219 100.614 158.185 100.35 157.615C99.8938 156.622 98.281 158.712 99.3898 159.015Z" fill="#191919"/>
<path d="M71.4789 133.611C71.6834 133.227 71.2178 132.843 70.972 133.196C66.9285 138.988 67.9058 144.863 68.3388 149.926C66.3016 150.819 65.2188 148.988 64.9884 147.201C64.4652 143.011 65.0759 138.758 66.7567 134.885C67.5813 133.181 69.1979 130.773 71.3935 131.706C71.4417 131.732 71.4949 131.749 71.5498 131.754C71.6047 131.759 71.66 131.753 71.7125 131.736C71.765 131.72 71.8134 131.692 71.8549 131.656C71.8964 131.62 71.93 131.575 71.9537 131.525C71.9773 131.476 71.9906 131.421 71.9926 131.366C71.9946 131.311 71.9853 131.256 71.9653 131.205C71.9453 131.154 71.915 131.107 71.8762 131.068C71.8375 131.029 71.7911 130.998 71.74 130.977C70.0735 129.948 68.1583 130.983 67.0812 132.377C64.3932 135.861 63.1912 143.185 63.9813 147.611C64.3058 149.435 65.6882 151.513 67.7695 151.206C68.7544 151.061 69.3564 150.638 69.2719 149.682C68.6911 143.106 68.6796 138.822 71.4789 133.611Z" fill="#191919"/>
<path d="M99.0391 165.94C99.0295 167.157 100.626 166.543 100.319 165.518C100.062 164.665 99.0477 164.824 99.0391 165.94Z" fill="#191919"/>
<path d="M101.224 142.979C100.702 142.716 99.7397 144.054 100.552 144.538C101.509 145.107 101.783 143.261 101.224 142.979Z" fill="#191919"/>
<path d="M75.7376 149.174C75.6867 148.736 75.0416 148.804 75.0608 149.299C75.1095 150.518 75.2252 151.733 75.4073 152.94C72.6713 152.035 71.5673 150.966 70.4931 150.528C70.4249 150.493 69.3545 150.499 70.3788 151.438C71.9182 152.668 73.688 153.577 75.584 154.112C75.9372 156.239 78.0272 167.336 79.111 168.697C79.4816 169.164 80.1526 169.177 79.7936 168.185C78.0656 163.418 76.3193 154.195 75.7376 149.174Z" fill="#191919"/>
<path d="M123.087 130.323C118.952 128.616 111.55 129.806 108.217 132.058C107.456 131.241 106.559 130.561 105.567 130.05C104.826 129.672 105.115 130.651 100.179 134.607C99.7773 134.902 99.4517 135.289 99.2292 135.735C99.0066 136.181 98.8936 136.673 98.8993 137.172C97.5419 146.964 96.3496 157.507 97.107 168.488C97.1502 169.114 97.8462 169.085 97.8184 168.443C97.3537 157.731 98.7851 146.763 100.185 136.137C102.843 138.499 102.607 140.194 103.945 139.095C105.562 137.763 106.827 136.054 107.626 134.117C107.859 133.551 107.237 133.309 106.977 133.829C106.086 135.564 104.867 137.11 103.387 138.38C102.738 137.17 101.822 136.124 100.708 135.32C102.44 134.061 104.022 132.609 105.423 130.99C107.942 132.409 107.496 133.363 108.783 132.76C113.151 130.508 118.182 129.902 122.959 131.053C123.494 131.156 123.559 130.551 123.087 130.323Z" fill="#191919"/>
<path d="M147.444 98.5851C148.01 98.2846 147.444 97.5627 146.926 97.7547C146.374 98.0535 145.945 98.5373 145.715 99.121C145.484 99.7047 145.466 100.351 145.664 100.947C145.823 101.316 146.534 101.453 146.46 100.639C146.386 100.237 146.441 99.8214 146.618 99.4524C146.795 99.0833 147.084 98.7797 147.444 98.5851Z" fill="#191919"/>
<path d="M142.657 98.2497C141.889 98.7691 141.115 100.28 141.951 102.431C142.151 102.942 142.992 102.67 142.845 102.152C142.571 101.185 142.36 99.6763 143.317 99.1367C144.174 98.6529 143.602 97.6075 142.657 98.2497Z" fill="#191919"/>
<path d="M144.645 97.8174C144.157 98.333 143.812 98.9666 143.644 99.6559C143.476 100.345 143.49 101.066 143.685 101.749C143.973 102.736 144.612 102.204 144.567 101.868C144.383 100.492 144.794 98.9042 145.527 98.5077C146.259 98.1112 145.482 96.9381 144.645 97.8174Z" fill="#191919"/>
<path d="M141.645 109.382C141.76 109.023 141.786 108.642 141.721 108.272C141.655 107.901 141.501 107.552 141.27 107.255C139.158 104.979 138.562 105.889 138.562 104.069C138.635 103.222 138.599 102.37 138.454 101.532C138.427 101.448 138.374 101.375 138.303 101.324C138.232 101.272 138.147 101.244 138.059 101.244C137.971 101.244 137.885 101.272 137.814 101.324C137.743 101.375 137.69 101.448 137.663 101.532C137.505 102.321 137.457 103.129 137.521 103.932C137.484 106.345 138.357 106.063 140.292 107.845C140.738 108.257 140.853 108.498 140.627 109.421C139.04 115.915 134.661 122.364 136.259 129.005C134.62 128.505 131.421 128.776 130.234 130.052C129.906 130.406 130.166 130.893 130.603 130.701C133.088 129.609 136.158 129.35 138.233 131.349C138.664 131.765 139.204 131.301 138.847 130.78C138.476 130.246 137.987 129.804 137.419 129.489C135.603 123.576 139.86 116.409 141.645 109.382Z" fill="#191919"/>
<path d="M143.46 105.649C143.516 105.75 143.607 105.828 143.716 105.87C143.824 105.911 143.944 105.913 144.054 105.875C144.164 105.837 144.257 105.762 144.316 105.662C144.376 105.562 144.399 105.445 144.381 105.33C143.99 103.778 142.106 103.055 140.644 103.146C141.299 102.858 139.647 100.938 141.065 99.9944C142.344 99.139 141.065 98.6168 140.309 99.283C139.829 99.772 139.546 100.421 139.515 101.105C139.483 101.789 139.705 102.461 140.138 102.992C140.177 103.05 140.23 103.097 140.291 103.129C140.353 103.162 140.421 103.179 140.49 103.18C140.409 103.215 140.342 103.276 140.299 103.353C140.257 103.431 140.241 103.52 140.255 103.607C140.269 103.695 140.311 103.775 140.375 103.835C140.44 103.896 140.522 103.933 140.61 103.942C141.932 104.091 142.948 104.443 143.46 105.649Z" fill="#191919"/>
<path d="M149.568 102.656C149.472 102.201 148.709 102.315 148.759 102.776C149.462 109.287 148.541 129.882 147.218 137.721C147.058 138.665 147.167 138.528 146.439 139.137C142.096 142.77 139.209 143.91 133.196 145.218C132.513 145.367 132.236 146.285 133.264 146.178C138.629 145.802 143.678 143.503 147.485 139.704C147.926 139.364 148.218 138.866 148.298 138.316C149.226 132.561 150.698 108.255 149.568 102.656Z" fill="#191919"/>
<path d="M62.5463 145.818C59.0465 144.931 55.677 143.593 52.523 141.836C50.2478 140.569 49.5335 140.269 48.5409 137.804C45.6686 130.661 43.8369 118.604 43.4836 114.566C43.3588 113.155 42.9652 111.206 41.7153 110.39C41.0538 109.959 40.4942 110.524 41.0318 111.113C41.5057 111.566 41.8824 112.111 42.1387 112.714C42.3951 113.318 42.5257 113.967 42.5226 114.623C43.0257 119.088 45.2586 132.633 47.6423 138.385C48.6206 140.745 49.1841 141.051 51.9719 142.753C55.1979 144.588 58.6807 145.93 62.3044 146.734C62.3679 146.762 62.4367 146.776 62.5062 146.775C62.5757 146.774 62.6442 146.759 62.7069 146.729C62.7696 146.699 62.8251 146.655 62.8695 146.602C62.9139 146.549 62.9462 146.486 62.964 146.419C62.9819 146.352 62.985 146.281 62.9731 146.213C62.9611 146.145 62.9345 146.079 62.895 146.022C62.8554 145.965 62.8039 145.917 62.7441 145.882C62.6842 145.847 62.6174 145.825 62.5482 145.818H62.5463Z" fill="#191919"/>
<path d="M40.4069 103.688C40.3436 103.754 40.3051 103.839 40.298 103.93C40.291 104.021 40.3159 104.112 40.3683 104.186C40.4208 104.261 40.4976 104.315 40.5856 104.339C40.6736 104.363 40.7672 104.356 40.8504 104.319C42.4555 103.57 43.8427 105.838 44.2104 106.082C44.5781 106.326 44.8114 105.952 44.7797 105.588C44.6731 104.376 42.1301 102.209 40.4069 103.688Z" fill="#191919"/>
<path d="M57.373 131.778C59.6952 130.033 63.8127 129.98 65.8152 132.228C66.23 132.694 66.6629 132.27 66.3836 131.727C65.0693 129.173 61.1564 128.825 58.8293 129.929C58.6018 121.067 53.7413 117.79 51.1896 111.913C50.5758 110.9 50.3287 109.707 50.4898 108.534C50.7068 107.209 51.1253 105.964 51.3711 104.672C51.5391 103.791 50.7951 103.232 50.3592 102.567C49.8629 101.781 49.407 100.97 48.9932 100.138C48.7656 99.6991 47.2815 99.7835 49.2812 102.874C50.1144 104.161 50.5656 103.909 50.2028 104.95C49.8302 106.045 49.5728 107.176 49.4348 108.324C49.2878 109.687 49.5786 111.062 50.2652 112.249C52.8869 118.263 57.7224 121.431 57.7119 130.453C56.053 131.409 56.8728 132.154 57.373 131.778Z" fill="#191919"/>
<path d="M46.3579 104.391C46.1922 103.597 45.7264 102.897 45.0576 102.439C44.3888 101.98 43.5688 101.797 42.7685 101.928C41.9889 102.12 41.8757 102.902 42.7685 102.856C44.6059 102.76 45.0139 103.536 45.5525 104.738C45.8366 105.38 46.4875 104.974 46.3579 104.391Z" fill="#191919"/>
<path d="M47.3799 103.922C48.5175 104.892 48.3245 100.867 45.4282 100.605C44.666 100.605 44.2906 101.243 45.1834 101.504C47.4644 102.171 46.8231 103.448 47.3799 103.922Z" fill="#191919"/>
<path d="M39.9578 106.613C40.0931 106.106 40.361 105.749 41.0138 105.901C41.8211 106.084 42.0698 106.841 42.7197 107.142C42.7888 107.175 42.866 107.188 42.9422 107.179C43.0185 107.17 43.0906 107.14 43.1502 107.091C43.2099 107.043 43.2546 106.979 43.2791 106.906C43.3037 106.834 43.3071 106.755 43.289 106.681C43.0221 105.513 40.7479 104.127 39.5795 105.326C38.5927 106.341 39.7341 107.444 39.9578 106.613Z" fill="#191919"/>
<path d="M46.3543 109.222C46.3111 106.378 48.1466 105.862 48.4759 105.24C48.5012 105.19 48.5164 105.135 48.5205 105.078C48.5246 105.022 48.5175 104.966 48.4996 104.912C48.4818 104.859 48.4535 104.809 48.4165 104.767C48.3795 104.724 48.3344 104.689 48.2839 104.664C47.3805 104.212 45.064 106.864 45.5248 109.391C45.6064 109.843 46.3658 109.683 46.3543 109.222Z" fill="#191919"/>
<path d="M101.143 123.619C101.764 125.677 102.617 128.808 102.947 130.02C103.277 131.231 103.977 130.782 103.743 129.74C103.307 127.8 102.037 123.376 101.86 122.596C103.225 121.628 104.34 117.885 102.19 116.685C102.759 107.453 100.359 107.242 99.9143 108.717C95.0903 105.173 85.1246 103.296 90.0676 107.136C84.754 106.203 82.7409 107.284 87.2231 109.116C86.4158 109.081 81.5918 110.094 81.9268 111.595C82.5364 114.327 91.666 114.395 96.8068 113.752C97.1154 115.379 97.8274 116.902 98.8775 118.183C99.5495 118.855 99.8097 118.484 100.118 118.109C101.759 116.105 103.6 119.005 101.283 121.984C100.934 122.433 100.901 122.817 101.143 123.619Z" fill="#191919"/>
<path d="M89.9378 132.876C90.5886 133.128 90.916 131.351 91.0754 130.764C92.4635 131.52 96.4341 131.094 98.0094 130.559C99.5848 130.024 100.337 128.898 100.626 126.69C100.638 126.608 100.619 126.524 100.571 126.455C100.524 126.387 100.452 126.338 100.371 126.32C100.289 126.302 100.204 126.316 100.132 126.358C100.06 126.4 100.007 126.468 99.9832 126.548C99.3755 128.762 98.2763 129.626 95.9733 129.916C94.7953 130.064 93.6058 130.099 92.4213 130.019C91.227 129.937 90.9371 129.278 90.3093 128.084C88.6878 124.989 87.8469 120.007 87.243 115.405C87.1682 114.835 86.4962 114.95 86.5202 115.506C86.8481 119.508 87.611 123.462 88.7954 127.299C89.1706 128.273 89.6636 129.198 90.2632 130.052C90.0856 130.657 89.3656 132.655 89.9378 132.876Z" fill="#191919"/>
<path d="M50.0327 148.427C44.3207 146.562 42.826 141.601 42.4324 137.414C42.3114 136.128 41.3457 136.464 41.4311 137.75C41.8439 143.922 45.0465 148.022 49.7764 149.252C50.2478 149.375 50.5031 148.581 50.0327 148.427Z" fill="#191919"/>
<path d="M154.504 132.802C154.176 138.736 153.676 142.671 148.161 147.024C148.089 147.081 148.043 147.163 148.031 147.253C148.018 147.344 148.042 147.435 148.095 147.509C148.149 147.582 148.229 147.632 148.319 147.648C148.409 147.663 148.501 147.644 148.577 147.593C154.577 144.464 155.517 138.281 155.26 132.87C155.242 132.479 154.532 132.285 154.504 132.802Z" fill="#191919"/>
<path d="M42.738 150.573C39.1207 149.421 37.53 142.928 37.5156 139.401C37.507 139.292 37.46 139.19 37.383 139.114C37.3059 139.037 37.204 138.99 37.0955 138.982C36.987 138.974 36.8792 139.004 36.7915 139.069C36.7037 139.133 36.6419 139.227 36.617 139.332C35.849 142.673 38.4919 150.527 42.5614 151.403C43.1086 151.522 43.2458 150.739 42.738 150.573Z" fill="#191919"/>
<path d="M159.327 136.966C159.185 141.232 158.103 143.945 155.862 146.431C155.607 146.719 156.005 147.132 156.363 146.898C159.03 145.152 160.75 139.975 159.998 136.931C159.992 136.843 159.952 136.761 159.886 136.702C159.82 136.643 159.734 136.613 159.645 136.618C159.557 136.622 159.474 136.661 159.415 136.726C159.355 136.791 159.324 136.877 159.327 136.966Z" fill="#191919"/>
<path d="M61.9885 64.4106C62.3157 63.6933 55.5689 40.3342 54.7568 40.5009C50.3183 41.5214 46.3478 44.0379 43.4882 47.643C40.6286 51.2481 39.0472 55.7308 39 60.3653C38.9988 60.9618 61.6506 65.1605 61.9885 64.4106Z" fill="#FFB500"/>
<path d="M121.66 81.0725C122.279 81.3091 141.532 74.402 141.349 73.7291C140.256 70.0569 137.932 66.8573 134.753 64.6482C131.575 62.4391 127.727 61.3498 123.833 61.5568C123.332 61.5875 121.012 80.8288 121.66 81.0725Z" fill="#FFB500"/>
<path d="M74.1062 84.7805C80.952 81.8065 88.9499 67.6347 84.9104 56.0286C80.871 44.4225 66.8345 39.4993 57.5953 42.2414C59.8819 50.6569 63.5671 62.0879 64.095 67.0181C56.3335 66.208 48.6231 64.9599 41 63.2796C41.9667 89.9912 67.2557 87.7628 74.1062 84.7805Z" fill="#FFB500"/>
<path d="M105.205 92.3319C108.066 97.9212 120.39 103.882 129.919 99.8734C139.449 95.8646 142.835 83.8179 140.042 76.2068C133.098 78.5743 123.697 82.2763 119.585 82.9819C119.853 76.4224 120.49 69.8825 121.496 63.393C99.1206 65.6256 102.337 86.739 105.205 92.3319Z" fill="#FFB500"/>
<path d="M10.7928 133.563C10.7438 134.821 10.2552 159.806 10.4741 161.933C10.5355 162.536 11.4235 162.427 11.4917 161.876C11.7422 159.86 11.7701 134.781 11.748 133.632C11.7365 133.023 10.8168 132.938 10.7928 133.563Z" fill="#FFB500"/>
<path d="M118.624 108.151C118.624 105.876 118.578 103.551 118.533 101.252C118.52 100.603 117.685 100.75 117.634 101.143C117.468 102.417 117.531 106.615 117.531 108.168C117.568 108.286 117.641 108.388 117.741 108.461C117.841 108.533 117.961 108.571 118.084 108.569C118.207 108.567 118.326 108.525 118.424 108.45C118.521 108.375 118.591 108.27 118.624 108.151Z" fill="#FFB500"/>
<path d="M116.473 59.7874C116.512 60.4191 117.511 60.1973 117.497 59.6626C117.251 49.9167 117.247 37.3167 117.093 29.6942C117.093 29.5878 117.051 29.4858 116.976 29.4105C116.9 29.3352 116.798 29.293 116.692 29.293C116.585 29.293 116.483 29.3352 116.408 29.4105C116.333 29.4858 116.291 29.5878 116.291 29.6942C116.434 40.3272 115.984 51.8693 116.473 59.7874Z" fill="#FFB500"/>
<path d="M65.2674 37.9049C65.2674 36.8239 65.3798 31.0764 65.0908 30.5954C65.0567 30.5384 65.0084 30.4911 64.9506 30.4583C64.8928 30.4255 64.8275 30.4082 64.761 30.4082C64.6946 30.4082 64.6292 30.4255 64.5714 30.4583C64.5136 30.4911 64.4653 30.5384 64.4313 30.5954C64.0982 31.159 64.2153 36.8527 64.2153 37.8914C64.2153 38.5423 65.2674 38.5874 65.2674 37.9049Z" fill="#FFB500"/>
<path d="M11.9752 116.151C11.9954 88.0233 12.2171 59.1877 11.9752 30.5653C11.9704 29.9961 11.0805 29.9394 11.0767 30.525C10.8847 58.7749 11.0517 87.982 10.8203 116.1C10.8146 116.857 11.9752 116.913 11.9752 116.151Z" fill="#FFB500"/>
<path d="M117.215 123.017C117.157 124.243 117.127 125.47 117.125 126.698C117.12 127.562 118.181 128.194 118.171 126.248C118.165 125.144 118.131 124.041 118.069 122.937C118.044 122.836 117.984 122.747 117.9 122.686C117.815 122.626 117.711 122.598 117.607 122.607C117.504 122.617 117.407 122.664 117.335 122.739C117.263 122.814 117.22 122.913 117.215 123.017Z" fill="#FFB500"/>
<path d="M171.147 68.582C171.051 57.0851 171.243 43.9734 171.255 32.0271C171.255 31.5663 170.447 31.5203 170.436 32.0271C170.142 45.2358 169.936 56.8124 170.061 68.5763C170.066 69.1628 171.153 69.2137 171.147 68.582Z" fill="#FFB500"/>
<path d="M170.907 100.364C170.907 99.7961 170.064 99.8979 170.054 100.433C169.689 119.529 169.989 142.448 170.111 164.254C170.111 164.823 171.188 164.937 171.18 164.305C170.902 140.383 171.064 121.124 170.907 100.364Z" fill="#FFB500"/>
<path d="M64.5987 154.05C64.4557 155.38 64.5987 162.156 64.5987 165.592C64.5987 166.007 65.4512 166.126 65.4627 165.648C65.5443 162.372 65.5923 155.413 65.4627 153.987C65.4157 153.465 64.6496 153.572 64.5987 154.05Z" fill="#FFB500"/>
<path d="M65.0329 89.3706C64.9786 90.3974 64.9786 91.4264 65.0329 92.4532C65.0581 92.5635 65.1215 92.6613 65.2118 92.7294C65.3021 92.7976 65.4136 92.8316 65.5266 92.8255C65.6396 92.8194 65.7468 92.7736 65.8293 92.6962C65.9118 92.6187 65.9643 92.5147 65.9775 92.4023C66.0222 91.3765 66.0107 90.349 65.943 89.3245C65.9423 89.2631 65.9293 89.2024 65.9047 89.1461C65.88 89.0898 65.8443 89.0391 65.7995 88.997C65.7548 88.9549 65.702 88.9223 65.6443 88.9011C65.5866 88.8799 65.5253 88.8705 65.4639 88.8736C65.4025 88.8767 65.3424 88.8922 65.2872 88.9191C65.232 88.946 65.1828 88.9838 65.1425 89.0303C65.1022 89.0767 65.0718 89.1308 65.0529 89.1892C65.0341 89.2477 65.0273 89.3094 65.0329 89.3706Z" fill="#FFB500"/>
<path d="M65.3172 99.4492C65.3709 109.12 64.9927 119.457 64.9648 128.086C64.9648 128.967 65.8125 129.122 65.8922 128.2C66.064 126.192 66.425 102.6 66.1706 99.5173C66.1322 99.0508 65.3143 98.9375 65.3172 99.4492Z" fill="#FFB500"/>
<path d="M136.312 105.109C131.488 107.351 126.682 109.774 121.84 111.839C121.38 111.252 120.794 110.775 120.126 110.443C119.457 110.111 118.724 109.933 117.978 109.92C117.232 109.908 116.492 110.062 115.813 110.371C115.134 110.68 114.533 111.137 114.053 111.708C104.462 104.193 94.1425 96.5401 83.9021 89.8354C84.2046 86.5071 81.9284 84.2108 78.6222 84.1465C77.9121 84.1465 77.2097 84.2937 76.5594 84.5788C75.9091 84.8639 75.3249 85.2807 74.8438 85.8029C74.3626 86.3251 73.9949 86.9413 73.7639 87.6128C73.5329 88.2842 73.4435 88.9962 73.5015 89.7039C65.8983 93.6188 58.273 97.7593 50.6641 101.747C51.2545 102.386 51.748 103.109 52.129 103.891C59.6487 100.147 67.0724 96.2962 74.3943 92.2633C76.4026 95.1644 81.1805 94.453 82.9268 92.343C93.5482 99.5842 102.65 106.206 112.889 114.102C112.713 114.841 112.712 115.61 112.886 116.348C113.06 117.087 113.404 117.775 113.891 118.357C114.377 118.94 114.993 119.4 115.69 119.702C116.386 120.004 117.143 120.14 117.901 120.098C121.684 120.098 123.737 117.174 123.049 114.159C128.169 112.014 132.959 109.522 137.914 107.202C137.504 106.999 137.146 106.705 136.869 106.342C136.591 105.979 136.401 105.557 136.312 105.109Z" fill="#FFB500"/>
<path d="M187.133 81.6452C185.993 80.857 165.849 83.2964 165.515 84.8074C165.405 85.3095 166.329 87.4186 167.575 89.808C161.087 93.4378 154.271 96.4695 147.58 99.7181C147.173 100.666 147.051 101.711 147.226 102.727C154.417 99.1748 161.517 95.9348 168.798 92.0554C170.533 95.1437 172.422 98.0352 172.985 98.0391C174.123 98.0477 188.28 82.4381 187.133 81.6452Z" fill="#FFB500"/>
<path d="M40.6796 106.977C32.3055 111.033 23.9833 115.629 15.7292 119.998C14.9942 119.253 14.0865 118.7 13.0866 118.39C12.0868 118.08 11.0259 118.022 9.9981 118.22C8.97031 118.419 8.00749 118.868 7.19521 119.529C6.38293 120.189 5.74633 121.04 5.34199 122.005C3.80599 125.691 5.48983 130.688 11.03 130.837C12.0943 130.9 13.1572 130.693 14.1203 130.236C15.0833 129.778 15.9154 129.085 16.5394 128.221C17.1634 127.356 17.5592 126.348 17.6901 125.29C17.821 124.232 17.6828 123.158 17.2882 122.168C25.7295 117.736 34.0354 113.169 42.6255 108.874C42.2534 108.009 41.5537 107.326 40.6796 106.977Z" fill="#FFB500"/>
</svg>
