<svg width="192" height="193" viewBox="0 0 192 193" fill="none" xmlns="http://www.w3.org/2000/svg">
<path d="M186.771 35.2342C186.175 40.9942 167.023 130.956 154.563 169.567C152.566 175.759 149.83 180.761 143.446 179.445C143.331 179.445 142.812 179.138 142.966 178.889C143.455 178.015 147.459 179.417 150.415 175.73C157.059 167.445 177.9 72.1366 180.175 61.951C187.567 28.5142 187.539 29.4646 182.604 25.7014C181.846 25.1254 181.961 24.5878 182.479 24.6358C183.451 24.9528 184.335 25.4918 185.062 26.2102C188.057 29.1862 187.135 31.7302 186.771 35.2342Z" fill="black"/>
<path d="M122.499 20.5739C122.39 20.5257 122.298 20.4452 122.237 20.3432C122.175 20.2412 122.146 20.1226 122.154 20.0036C122.161 19.8847 122.204 19.7708 122.278 19.6771C122.352 19.5835 122.452 19.5145 122.566 19.4795C123.738 19.0955 136.17 20.8907 137.494 21.0827C138.819 21.2747 139.107 21.8411 138.81 22.2923C138.195 23.2523 136.131 22.7627 134.97 22.6283C135.018 22.5611 123.834 21.3611 122.499 20.5739Z" fill="black"/>
<path d="M143.177 23.8462C142.217 21.9262 145.433 20.3326 146.22 22.4542C147.008 24.5758 143.993 25.4398 143.177 23.8462Z" fill="black"/>
<path fill-rule="evenodd" clip-rule="evenodd" d="M84.4329 165.195C67.8585 160.192 67.4927 160.081 69.0162 148.081C71.0956 131.676 77.0082 102.706 82.9621 76.1005C83.3145 76.136 83.6601 76.1629 84.0009 76.1792C75.1986 115.525 69.2745 148.648 69.7074 155.272V155.262C69.7122 156.212 69.9851 157.141 70.4946 157.943C71.0041 158.744 71.7295 159.386 72.5874 159.793C77.1378 162.299 109.384 171.313 115.048 172.648C122.906 174.526 126.49 175.098 129.754 175.619C131.342 175.872 132.855 176.113 134.747 176.488C137.57 177.064 141.381 177.217 143.579 175.364C151.394 168.769 176.306 46.7245 177.928 37.7485L177.969 37.5277C178.938 32.1786 179.533 28.8973 178.297 26.6039C176.333 22.9635 169.75 21.8135 152.716 18.8403L152.584 18.8173C140.68 16.7341 114.943 14.0173 105.275 13.9597C98.9279 13.9597 98.542 15.5495 96.1084 25.5872C95.7132 27.227 95.31 28.8647 94.8988 30.5005C93.4769 36.0939 92.0865 41.6953 90.7276 47.3043L90.6162 47.2045C90.3599 46.9741 90.095 46.7437 89.8233 46.5162C93.2236 32.3936 96.0422 21.5658 97.3266 17.7805C99.1151 12.6042 102.567 12.7808 109.429 13.1322C109.936 13.1581 110.462 13.185 111.007 13.2109C137.051 14.4109 169.163 19.6045 176.191 23.2429C180.799 25.6237 180.76 28.5901 179.071 37.5949C176.728 50.1229 169.375 86.1133 165.362 103.105L164.822 105.392C151.051 163.714 148.245 175.6 142.102 177.692C140.53 178.227 138.74 178.122 136.492 177.988L136.437 177.985C137.08 178.628 117.727 175.748 95.7618 168.702C91.3324 167.278 87.5894 166.148 84.4338 165.195H84.4329ZM86.494 76.1082C79.2652 108.57 72.3609 143.678 72.0892 152.564C72.0028 156.587 72.838 157.691 80.7292 160.244C93.958 164.526 131.542 175.028 135.814 174.001C137.319 173.876 138.772 173.388 140.048 172.58C142.764 170.478 144.051 166.744 145.472 162.385C149.744 149.348 179.004 30.5005 174.704 26.6605C174.679 26.6254 174.641 26.6009 174.599 26.5918C174.557 26.5827 174.513 26.5896 174.476 26.6112C174.439 26.6329 174.411 26.6676 174.398 26.7087C174.385 26.7498 174.388 26.7942 174.406 26.8333C175.932 32.2477 150.454 145.528 143.292 164.968C140.787 171.688 138.867 173.608 132.147 172.648C125.955 171.745 100.716 165.236 87.0268 161.185C74.6236 157.508 73.3276 156.424 73.2604 153.812C73.0281 144.208 80.6658 107.041 87.6431 75.9776C87.2783 76.0227 86.8962 76.0659 86.494 76.1082ZM93.6153 50.1594C93.3211 49.8398 93.0218 49.5249 92.7177 49.2147C95.9807 35.7133 98.9058 24.6877 100.822 19.2109C101.513 17.2141 102.3 16.2253 106.121 16.4941C106.726 16.4941 113.139 16.5805 115.817 17.1373C116.318 17.2429 116.366 18.1223 116.427 19.2387C116.526 21.0723 116.66 23.5443 118.899 24.2595C123.248 25.6515 140.902 27.9267 142.198 28.0323L143.791 28.1706C151.134 28.8109 151.985 28.8858 155.446 22.7917C155.862 22.0659 156.631 22.1639 157.129 22.2282C157.218 22.2397 157.298 22.2493 157.366 22.2541C160.486 22.4749 167.139 23.3965 170.038 24.5773C170.576 24.7981 170.739 25.2973 170.336 25.3069C170.093 25.3069 169.694 25.2138 168.997 25.0506C167.324 24.6599 163.931 23.8669 156.838 22.9933C156.442 22.9424 156.128 23.5751 155.684 24.4688C154.7 26.4522 153.08 29.72 148.505 29.6269C139.477 29.1866 130.494 28.0893 121.625 26.3437C116.825 25.2973 115.443 24.7309 115.424 19.3837C115.424 18.9872 115.464 18.7098 115.493 18.512C115.563 18.032 115.563 18.0311 114.732 17.9629C109.558 17.4733 106.294 17.4925 106.467 17.4925C105.974 17.4813 105.482 17.4599 104.99 17.4282C104.002 17.3696 103.355 17.3322 102.858 17.5856C101.913 18.0695 101.507 19.6112 100.333 24.0819C99.6278 26.7961 98.8914 29.5022 98.1244 32.1997C97.2709 35.1872 95.6447 41.6615 93.6153 50.1584V50.1594Z" fill="#191919"/>
<path d="M127.393 94.6956C126.318 94.6956 126.001 94.8204 125.588 95.7708C124.753 97.6908 124.072 105.025 123.995 107.55C123.899 110.708 126.385 110.104 149.003 112.945C150.443 113.128 150.568 112.456 151.009 110.891C151.637 108.335 152.041 105.731 152.219 103.105C152.977 96.9324 153.486 97.4316 148.196 96.7116C148.1 96.7116 128.728 94.6668 127.393 94.6956ZM127.624 102.673C127.648 101.453 128.157 100.292 129.037 99.4456C129.917 98.5995 131.097 98.1376 132.318 98.1612C132.975 98.1795 133.62 98.3376 134.211 98.6251C134.802 98.9125 135.325 99.3227 135.745 99.8282C136.164 100.334 136.472 100.923 136.646 101.557C136.82 102.19 136.857 102.854 136.754 103.503C136.619 104.37 136.239 105.182 135.659 105.841C133.038 108.961 127.412 107.041 127.672 102.673H127.624Z" fill="#191919"/>
<path d="M132.413 106.389C133.307 106.345 134.153 105.975 134.792 105.349C135.431 104.722 135.818 103.883 135.878 102.99C135.965 98.7086 130.118 98.0174 128.89 101.464C128.673 102.024 128.598 102.629 128.673 103.225C128.749 103.821 128.972 104.389 129.321 104.878C129.671 105.366 130.136 105.76 130.675 106.025C131.215 106.288 131.812 106.413 132.413 106.389ZM131.165 101.925C130.099 102.769 131.318 103.336 130.666 103.691C130.272 103.902 129.523 102.885 130.08 101.829C130.378 101.253 130.867 100.869 131.251 101.224C131.635 101.579 131.424 101.723 131.165 101.925ZM131.837 100.609C131.84 100.546 131.856 100.484 131.884 100.427C131.911 100.37 131.95 100.32 131.997 100.278C132.044 100.236 132.1 100.203 132.159 100.183C132.219 100.162 132.283 100.154 132.346 100.158C132.473 100.166 132.592 100.224 132.676 100.319C132.761 100.415 132.804 100.54 132.797 100.667C132.787 101.349 131.722 101.109 131.837 100.609Z" fill="#191919"/>
<path fill-rule="evenodd" clip-rule="evenodd" d="M130.445 112.646C121.527 111.465 121.2 111.312 121.805 105.302C122.166 101.494 122.772 97.7134 123.619 93.9835C123.991 92.5915 125.459 92.7259 126.91 92.8565C127.072 92.8718 127.233 92.8853 127.392 92.8987C136.498 93.6168 142.073 94.379 145.499 94.8475C150.083 95.4744 150.816 95.5752 151.008 94.3387L151.383 91.9483C152.721 83.4322 152.924 82.1323 151.008 81.5323C148.541 80.6694 145.984 80.0896 143.386 79.8043C143.192 79.7428 142.983 79.7513 142.795 79.8286C142.607 79.9058 142.453 80.0468 142.359 80.2267C142.084 80.7384 141.838 81.1435 141.64 81.468C140.929 82.6392 140.855 82.7611 142.359 83.1067L142.906 83.22C143.982 83.4408 145.617 83.7749 147.994 84.4699C148.954 84.7675 148.781 85.6411 147.331 85.4299C142.617 84.7598 119.496 80.507 109.311 78.6331C106.366 78.0926 104.503 77.7499 104.477 77.7499C103.421 77.5291 103.517 76.6555 104.602 76.7227C105.251 76.7227 106.319 76.8283 107.85 76.9819H107.851L109.21 77.1163C109.634 77.1576 109.59 77.0405 108.996 75.4718L108.682 74.6395C108.442 73.9963 108.202 73.8043 107.175 73.6795C98.7649 72.5275 97.9009 74.0251 96.9985 77.5195C96.5041 79.3762 96.0453 82.0843 95.3761 86.0366C95.1861 87.1531 94.9806 88.3694 94.7522 89.6923C93.8075 95.1634 92.9243 99.5909 92.2081 103.186C89.7861 115.331 89.259 117.971 94.6369 119.193C99.1969 120.23 133.594 126.441 140.007 127.305C145.885 128.097 145.907 128.01 147.423 122.164C147.56 121.632 147.711 121.053 147.879 120.422C148.293 118.915 148.56 117.372 148.675 115.814C148.811 114.707 148.501 114.675 143.642 114.183C140.916 113.905 136.759 113.484 130.445 112.646ZM149.059 88.1755C148.503 87.6859 146.237 87.3211 146.352 88.0603C146.429 88.5499 147.754 88.8571 148.272 88.8571C149.107 88.8571 149.299 88.3963 149.059 88.1755ZM142.839 86.8027C141.341 86.6875 140.631 88.0027 143.875 87.9835C144.547 87.9739 145.104 87.0235 142.839 86.8027ZM139.105 86.2939C137.31 85.7659 136.955 85.7947 136.744 86.1883C136.532 86.5819 138.346 87.3019 139.008 87.1963C139.671 87.0907 139.325 86.3611 139.105 86.2939ZM134.391 85.3243C133.661 84.8059 131.424 84.4987 131.626 85.4203C131.827 86.3419 135.773 86.2747 134.391 85.3243ZM126.711 84.2971C126.711 84.7627 127.465 84.9086 128.3 85.0699L128.323 85.0747L128.376 85.0843C128.73 85.1515 128.813 85.1659 128.885 85.1448C128.909 85.1367 128.932 85.1268 128.955 85.115C128.984 85.1005 129.013 85.087 129.043 85.0747C131.347 84.3931 126.826 83.0875 126.711 84.2971ZM99.9169 85.4491C100.723 84.9691 101.52 82.4059 100.147 82.3867C98.7745 82.3675 98.7361 86.1595 99.9169 85.4491ZM95.7889 111.84C95.9329 111.081 99.6289 88.8859 99.3697 88.3195C99.0433 87.5035 98.4097 87.8587 98.4097 88.1755C97.6609 89.9035 94.1665 111.216 94.3297 111.916C94.3657 112.089 94.4624 112.243 94.6023 112.351C94.7421 112.459 94.916 112.513 95.0923 112.504C95.2686 112.495 95.4358 112.423 95.5636 112.301C95.6914 112.179 95.7713 112.015 95.7889 111.84ZM96.7777 115.843C94.1089 114.979 93.2833 116.803 96.1633 116.803C97.3441 116.812 97.4785 116.073 96.7777 115.843ZM99.8795 116.359C99.5521 116.29 99.4139 116.261 99.2353 116.361C99.1773 116.399 99.1273 116.448 99.0882 116.505C99.0491 116.562 99.0216 116.626 99.0074 116.694C98.9931 116.762 98.9923 116.832 99.0051 116.9C99.0179 116.968 99.0439 117.033 99.0817 117.091C99.4081 117.552 100.906 117.657 101.309 117.657C101.45 117.665 101.589 117.617 101.695 117.524C101.801 117.43 101.865 117.299 101.875 117.158C101.914 116.707 101.175 116.582 100.455 116.467C100.211 116.428 100.026 116.389 99.8795 116.359ZM102.768 79.3435C99.9457 78.4699 99.3601 80.3035 102.058 80.3035C103.383 80.3227 103.421 79.5451 102.768 79.3435ZM105.283 117.302C105.227 117.291 105.171 117.28 105.115 117.268C104.638 117.169 104.1 117.058 103.997 117.59C103.892 118.133 104.307 118.213 104.665 118.281H104.666L104.765 118.3L104.858 118.32C105.562 118.479 106.696 118.733 106.915 118.118C107.111 117.572 106.262 117.448 105.607 117.352C105.499 117.337 105.391 117.32 105.283 117.302ZM105.994 79.8907C106.128 79.9195 106.277 79.9512 106.445 79.9771L106.559 79.9944C107.182 80.0923 107.783 80.1864 107.847 80.6395C107.962 81.6283 104.074 80.9851 105.082 79.9771C105.313 79.7458 105.583 79.8034 105.994 79.8907ZM111.633 118.493L111.631 118.492C110.626 118.184 108.97 117.676 108.97 118.684C108.97 119.184 110.765 119.52 111.427 119.52C112.599 119.52 112.56 118.78 111.85 118.56L111.633 118.493ZM110.698 80.7163C112.503 81.0907 112.589 81.1483 112.752 81.3883C112.817 81.4805 112.879 81.5102 112.913 81.5275C112.93 81.5362 112.94 81.541 112.942 81.5486C112.946 81.5611 112.924 81.5813 112.863 81.636C112.809 81.6838 112.756 81.7324 112.704 81.7819C112.32 82.1467 112.234 82.1467 110.496 81.7819C109.613 81.5995 109.853 80.5339 110.698 80.7163ZM115.699 119.184C114.336 118.944 114.384 119.971 115.181 120.144C115.98 120.372 116.795 120.536 117.619 120.633C117.888 120.633 118.33 120.345 118.291 120.076C118.234 119.673 117.111 119.433 115.699 119.184ZM117.571 82.069L117.802 82.1362C118.829 82.4338 118.071 83.1442 117.677 83.1442C117.735 83.1442 116.871 83.0002 116.775 83.0002L116.751 82.9973C115.406 82.7794 114.922 82.7006 114.922 82.2811C114.976 81.2971 116.488 81.7464 117.571 82.069ZM124.003 83.3938C123.13 83.0622 122.222 82.8334 121.296 82.7122C120.49 82.5778 120.288 83.5282 121.056 83.7394C121.882 83.9928 122.731 84.1608 123.591 84.2386C124.505 84.2386 124.204 83.7422 124.061 83.5061C124.028 83.4523 124.003 83.412 124.003 83.3947V83.3938ZM120.903 120.988C120.528 120.652 121.018 120.134 122.026 120.211C123.197 120.297 124.301 120.95 123.523 121.353C123.085 121.479 122.626 121.511 122.174 121.448C121.723 121.385 121.29 121.229 120.903 120.988ZM126.279 121.228C125.501 121.228 125.549 122.102 126.211 122.284C129.168 123.1 129.84 121.248 126.279 121.228ZM130.829 122.544C130.963 122.092 131.357 122.179 132.989 122.544C133.69 122.697 133.699 123.532 132.816 123.504C132.115 123.504 130.695 122.995 130.829 122.544ZM138.01 123.36L137.767 123.309C137.138 123.174 136.266 122.988 135.869 123.292C135.696 123.417 135.571 123.724 135.735 123.888C136.411 124.187 137.146 124.335 137.885 124.32C138.739 124.224 138.663 123.475 138.01 123.36ZM140.765 123.993C139.21 124.531 143.021 125.798 143.213 124.752C143.501 124.32 141.418 123.772 140.765 123.993Z" fill="#191919"/>
<path d="M101.417 128.642C99.641 133.826 92.057 150.424 95.3018 141.823C100.86 127.115 100.668 127.605 101.417 128.642Z" fill="#191919"/>
<path d="M115.285 132.887C115.871 131.85 116.361 132.657 116.428 133.847C116.562 136.535 116.265 138.647 115.372 146.01C115.247 146.97 114.681 145.463 114.748 141.844C114.921 141.834 115.237 132.964 115.285 132.887Z" fill="#191919"/>
<path d="M134.505 134.143C144.624 148.707 139.929 145.059 133.392 134.719C132.748 133.702 133.872 133.222 134.505 134.143Z" fill="#191919"/>
<path d="M80.6309 130.676C81.4181 129.716 88.3109 122.036 89.0693 123.092C89.1042 123.172 89.1181 123.26 89.1097 123.347C89.1013 123.435 89.0709 123.518 89.0213 123.591C87.8981 124.858 77.8853 134.141 80.6309 130.676Z" fill="#191919"/>
<path d="M124.695 45.0167C123.611 44.9495 123.735 43.3079 123.159 34.8503C122.583 26.3927 125.809 45.0743 124.695 45.0167Z" fill="#191919"/>
<path d="M139.68 47.6272C141.929 44.1211 144.398 40.7607 147.072 37.5664C147.273 38.4304 139.324 51.1984 139.68 47.6272Z" fill="#191919"/>
<path d="M151.115 60.6925C151.094 60.6036 151.092 60.5112 151.11 60.4216C151.129 60.3321 151.166 60.2476 151.22 60.1741C152.833 58.9165 163.816 56.0845 161.291 57.2941C160.916 57.4669 151.46 61.9789 151.115 60.6925Z" fill="#191919"/>
<path d="M110.391 50.8757C108.413 48.3125 100.925 32.6357 111.197 50.1653C111.754 51.1829 110.736 51.3653 110.391 50.8757Z" fill="#191919"/>
<path d="M52.2822 82.9549C52.4358 100.235 33.687 111.592 18.375 103.412C13.0972 100.628 9.05746 95.9627 7.05559 90.3411C5.05371 84.7195 5.23566 78.5511 7.5654 73.0573C9.10882 69.4189 11.5337 66.2219 14.6214 63.7549C28.5126 52.4845 52.0806 61.1821 52.2822 82.9549ZM28.935 63.2845C23.861 63.2966 18.9954 65.3039 15.3887 68.8729C11.782 72.4418 9.72372 77.2861 9.6582 82.3596C9.63809 84.9479 10.1386 87.5138 11.1301 89.9047C12.1216 92.2956 13.5837 94.4627 15.4295 96.2772C17.2753 98.0916 19.4672 99.5164 21.8747 100.467C24.2822 101.417 26.8563 101.874 29.4438 101.809C34.4068 101.702 39.1316 99.6608 42.6121 96.1212C46.0926 92.5815 48.0535 87.8229 48.0774 82.8589C48.1376 80.3082 47.6868 77.7713 46.7515 75.3976C45.8163 73.0239 44.4155 70.8613 42.6317 69.0372C40.8479 67.2131 38.7171 65.7644 36.3648 64.7765C34.0125 63.7885 31.4863 63.2812 28.935 63.2845Z" fill="#FFB500"/>
<path d="M46.8759 82.539C46.852 87.2043 45.0272 91.6801 41.7824 95.0322C38.5376 98.3843 34.1236 100.354 29.4615 100.529C27.0574 100.632 24.6571 100.249 22.404 99.4044C20.1508 98.5594 18.0909 97.2694 16.347 95.6113C14.6033 93.9529 13.2116 91.9603 12.255 89.7522C11.2984 87.5442 10.7964 85.1661 10.779 82.7598C10.747 80.3895 11.1836 78.0362 12.0637 75.8351C12.9438 73.634 14.2501 71.6285 15.9074 69.9336C17.5648 68.2388 19.5407 66.888 21.7215 65.959C23.9024 65.0299 26.2453 64.5408 28.6158 64.5198C33.4247 64.4942 38.0475 66.3768 41.4704 69.7547C44.8933 73.1326 46.8369 77.7301 46.875 82.539H46.8759ZM34.0503 79.659C29.8167 79.7454 32.5815 79.8318 35.8071 77.115C40.8951 72.843 35.7207 70.251 28.7607 71.8638C26.8407 72.2958 27.6471 72.4014 26.6679 70.1934C26.5352 69.9492 26.3138 69.7653 26.0495 69.6795C25.7851 69.5938 25.4979 69.6128 25.2471 69.7326C24.5271 70.0686 24.6999 70.5198 25.1703 72.1806C25.3911 72.9582 25.3911 72.7182 23.8935 73.2174C23.2887 73.4286 23.5575 73.4478 22.6743 71.1918C22.4151 70.5102 20.9079 70.8174 21.0999 71.9598C21.3975 73.7646 21.9255 73.8798 21.2823 74.2158C18.9591 75.3774 18.4023 75.7038 17.9223 76.4814C17.8321 76.6144 17.7911 76.7747 17.8063 76.9347C17.8215 77.0947 17.892 77.2444 18.0057 77.3581C18.1193 77.4717 18.269 77.5422 18.429 77.5574C18.589 77.5726 18.7493 77.5316 18.8823 77.4414C22.3767 75.7998 22.0887 75.7806 22.2519 76.4334C23.4327 80.9934 23.5959 81.0126 22.9623 81.1374C20.9559 81.531 21.6855 83.5854 23.1063 83.2014C24.0663 82.9518 23.8455 82.443 24.4407 85.7454C25.2375 90.2478 25.2951 90.027 24.7959 90.1998C23.7867 90.4743 22.8342 90.9262 21.9831 91.5342C21.8719 91.6352 21.7941 91.7677 21.76 91.914C21.726 92.0604 21.7374 92.2136 21.7926 92.3534C21.8479 92.4931 21.9444 92.6126 22.0694 92.6961C22.1943 92.7796 22.3417 92.823 22.4919 92.8206C23.3818 92.7796 24.2658 92.6542 25.1319 92.4462C25.7463 92.3022 25.4967 92.667 25.8615 94.3662C26.2263 96.0654 27.1671 95.6142 27.4071 95.211C27.6471 94.8078 27.7239 94.5198 27.5703 92.1966C27.5703 91.5726 27.6663 91.7742 29.0391 91.3326C29.6727 91.131 29.4327 91.2174 29.6631 92.4558C29.8935 93.6942 29.9319 94.3758 30.6231 94.3758C32.3127 94.3758 30.9591 90.6702 31.7079 90.315C36.8631 87.867 38.7735 87.147 40.7991 84.891C42.8247 82.635 41.2695 79.5438 34.0503 79.6878V79.659Z" fill="#FFB500"/>
<path d="M27.4293 89.0683C27.1221 89.1643 27.1989 89.0683 26.8821 87.4363C25.8261 82.0219 25.6725 82.4347 26.6229 82.2715C40.9845 79.8427 45.6789 82.9339 27.4293 89.0683Z" fill="#FFB500"/>
<path d="M32.7668 76.7738C30.5205 78.0602 28.196 79.2048 25.8068 80.201C25.25 80.4506 25.4804 80.537 24.1652 75.401C24.1076 75.161 24.1652 75.0458 24.4052 74.9882C25.2116 74.7578 29.2052 73.7018 31.2884 73.289C31.8644 73.2026 39.5252 72.5306 32.7668 76.7738Z" fill="#FFB500"/>
<path d="M77.376 53.8864C78.7968 52.1008 81.5808 51.4768 83.2896 52.648C84.7584 53.608 83.9328 55.3936 83.4432 57.688C83.3376 58.1488 83.7888 58.408 77.5104 54.5776C77.0688 54.3088 77.0496 54.2896 77.376 53.8864Z" fill="#FFB500"/>
<path d="M89.7595 48.1442C78.8347 38.3138 56.5147 32.3618 55.6987 44.1794C54.9499 55.0177 76.4347 70.1953 90.4892 69.1969C99.5516 68.5537 102.624 59.7122 89.7595 48.1442ZM65.9227 45.9554C66.3547 45.2546 67.1323 45.773 68.6779 46.9154C69.3787 47.4338 69.6379 46.1666 72.2204 45.9554C77.9804 45.5618 75.9548 52.2722 76.9244 51.4946C81.0428 48.221 87.4843 50.4674 86.0539 55.9298C85.8907 56.5922 85.8716 56.5826 86.486 56.8898C87.2419 57.2488 87.9278 57.7397 88.5116 58.3393C89.0492 58.9825 88.3099 59.117 87.8107 59.0401C87.0065 58.7696 86.2289 58.4258 85.4876 58.013C85.0652 58.9729 85.0171 58.9729 85.3723 59.2417C86.9659 60.4417 87.4459 60.5665 87.1771 61.0945C86.6203 62.1697 84.9115 60.0194 83.9995 60.2593C83.9202 60.287 83.836 60.2975 83.7523 60.2903C83.6686 60.2831 83.5874 60.2583 83.514 60.2175C83.4406 60.1767 83.3766 60.1209 83.3263 60.0536C83.276 59.9864 83.2404 59.9093 83.222 59.8273C83.1068 59.2321 83.1451 59.3762 78.3547 56.573C76.4347 55.4402 76.5403 55.3634 76.2619 55.7858C75.4843 56.9858 74.4379 56.2753 74.3419 55.5553C74.2555 54.5089 74.5819 54.3169 73.9867 53.9425C68.4859 50.5345 68.3803 50.5442 68.6107 50.0354C68.6555 49.9639 68.7142 49.9023 68.7834 49.8542C68.8526 49.8061 68.9308 49.7725 69.0134 49.7555C69.0959 49.7384 69.181 49.7383 69.2636 49.755C69.3462 49.7718 69.4246 49.8051 69.4939 49.853C75.5419 53.0498 74.5051 53.5778 74.7547 50.9378C74.7547 48.125 73.5835 47.3666 71.7979 47.741C67.3435 48.701 67.1707 52.1666 66.1723 51.8786C65.1739 51.5906 65.7883 50.4002 66.3163 49.4978C66.7291 48.7874 63.5131 48.0962 64.2331 47.2226C64.5499 46.8482 64.9724 47.0882 66.4988 47.7698C67.4588 48.2018 67.1419 48.3938 67.8427 47.7698C66.8251 47.1938 65.4427 46.733 65.9227 45.9554ZM89.2699 65.4337C76.3675 64.7329 60.8923 53.9138 58.8091 46.2338C58.0411 43.4402 59.3947 41.837 60.5467 41.2322C63.0427 39.9362 60.3835 42.0866 60.2779 42.1922C55.4779 46.4834 70.1179 62.6593 90.2491 64.7137C101.395 64.5601 92.054 50.0065 76.9244 43.6418C73.4808 42.1027 69.7918 41.1861 66.0283 40.9346C63.7435 40.7426 63.9547 40.1474 66.0955 40.0514C70.6363 39.8594 80.1595 43.3826 87.6091 49.1042C95.7116 55.3826 100.838 66.0673 89.2699 65.4337Z" fill="#FFB500"/>
<path d="M86.1414 74.8694C70.3974 74.3414 54.3846 61.0742 52.5414 51.6662C52.0518 49.1126 52.839 47.2502 54.1158 45.0038C54.9606 43.5254 53.9334 48.8438 58.9158 54.7286C66.5958 63.7334 80.4582 71.4518 91.2102 70.0886C94.5222 69.6662 94.2342 69.1286 95.319 69.1286C95.3442 69.2586 95.3442 69.3922 95.319 69.5222C92.6886 73.9862 91.191 74.2742 86.1414 74.8694Z" fill="#FFB500"/>
<path d="M113.042 69.436C112.975 66.7737 113.678 64.1486 115.066 61.8759C116.454 59.6033 118.469 57.7797 120.869 56.6241C123.268 55.4685 125.95 55.0301 128.592 55.3614C131.235 55.6927 133.725 56.7798 135.765 58.492C137.508 59.9352 138.869 61.7853 139.728 63.879C140.586 65.9726 140.916 68.2454 140.688 70.4968C140.461 72.7482 139.682 74.9089 138.422 76.7882C137.161 78.6676 135.458 80.2077 133.461 81.2728C133.116 81.4456 119.167 78.7 117.141 78.3928C115.25 78.1336 112.85 72.6616 113.042 69.436ZM131.215 66.2584C128.536 66.3064 129.362 66.3832 131.589 64.9528C135.65 62.3416 134.469 59.1928 128.258 60.076C125.253 60.5176 126.271 60.9496 125.445 59.0008C125.186 58.396 123.573 58.1656 124.101 59.9608C124.408 61.0168 124.408 60.9976 123.343 61.3048C122.46 61.564 122.815 58.8952 121.528 59.5864C120.895 59.932 121.144 60.5464 121.442 61.5064C121.644 62.1304 121.442 61.9288 119.186 63.2824C118.764 63.5416 118.408 64.1464 118.812 64.444C119.215 64.7416 119.599 64.5688 121.471 63.6088C121.999 63.34 121.932 63.4264 122.642 66.2872C122.94 67.5064 122.824 67.1896 122.066 67.564C121.906 67.6349 121.776 67.7598 121.698 67.9168C121.621 68.0739 121.601 68.2532 121.642 68.4234C121.683 68.5936 121.783 68.744 121.923 68.8484C122.064 68.9527 122.237 69.0044 122.412 68.9944C122.997 68.9944 123.247 68.6584 123.372 69.196C124.38 74.7352 124.485 74.1688 123.784 74.4472C122.258 75.052 121.442 75.292 121.711 76.0312C121.874 76.5016 122.325 76.4344 124.12 76.1176C125.253 75.916 124.197 78.4408 125.551 78.4312C126.904 78.4216 125.551 75.5512 126.511 75.4648C127.864 75.3976 127.288 74.3416 127.912 77.0968C128.095 77.8936 129.592 78.2584 129.103 74.908C129.026 74.38 129.18 74.6392 132.232 73.1512C139.384 69.6568 137.829 66.1336 131.215 66.2584Z" fill="#FFB500"/>
<path d="M109.059 69.2529C109.366 49.6209 133.519 44.9073 142.15 59.2305C149.34 71.1633 140.23 82.5969 138.915 82.3857C130.275 81.0225 138.521 82.9425 141.257 72.6129C141.728 70.6942 141.81 68.7005 141.498 66.7495C141.186 64.7986 140.486 62.93 139.44 61.2541C138.394 59.5783 137.022 58.1289 135.407 56.9916C133.792 55.8542 131.965 55.0519 130.035 54.6321C127.973 54.1919 125.841 54.1976 123.781 54.6487C121.722 55.0998 119.782 55.986 118.093 57.2478C116.404 58.5096 115.004 60.1179 113.988 61.9649C112.971 63.8118 112.361 65.8548 112.198 67.9568C111.641 75.0992 116.134 78.1425 114.771 77.9121C111.123 77.2976 111.151 77.3937 110.931 76.952C108.348 71.5184 109.433 68.8305 109.059 69.2529Z" fill="#FFB500"/>
<path d="M126.157 73.4362C125.744 73.5706 125.849 73.5802 125.053 69.433C124.851 68.4154 124.592 68.3578 125.897 68.1562C136.928 66.4762 139.385 69.001 126.157 73.4362Z" fill="#FFB500"/>
<path d="M129.92 64.0996C129.056 64.5604 127.655 65.2324 124.89 66.6052C124.266 66.9124 124.535 66.7012 123.556 63.1108C123.469 62.8132 123.556 62.7172 123.824 62.6404C128.471 61.4788 127.357 61.6804 129.008 61.4308C132.061 60.9604 134.394 61.7476 129.92 64.0996Z" fill="#FFB500"/>
</svg>
