<svg width="192" height="193" viewBox="0 0 192 193" fill="none" xmlns="http://www.w3.org/2000/svg">
<path d="M181.206 153.473C122.713 153.771 61.7816 154.117 5.36716 154.049C4.67692 154.049 4.57996 155.132 5.28556 155.135C63.7275 155.469 122.631 154.943 181.091 154.655C181.874 154.653 181.966 153.469 181.206 153.473Z" fill="#FFB500"/>
<path d="M149.087 103.368C149.055 104.071 148.848 104.755 148.484 105.357C148.1 105.899 148.593 106.413 149.131 105.944C149.454 105.596 149.682 105.17 149.792 104.709C149.903 104.247 149.892 103.765 149.761 103.308C149.728 103.244 149.676 103.19 149.613 103.155C149.549 103.12 149.476 103.104 149.404 103.111C149.332 103.117 149.263 103.145 149.206 103.191C149.15 103.237 149.108 103.298 149.087 103.368Z" fill="black"/>
<path d="M149.24 100.228C150.121 99.548 150.747 98.5913 151.017 97.5122C151.234 96.6587 150.713 96.1 150.218 97.1694C149.892 98.0499 149.408 98.8633 148.789 99.5694C148.305 100.113 148.577 100.559 149.24 100.228Z" fill="black"/>
<path d="M140.736 91.9581C140.913 95.1761 139.992 98.7636 140.909 101.536C141.041 101.933 141.708 101.862 141.659 101.417C141.398 99.2209 141.398 97.0016 141.659 94.8055C142.145 87.3588 140.027 88.2151 140.154 88.8621C140.481 89.8647 140.676 90.9054 140.736 91.9581Z" fill="black"/>
<path d="M148.097 98.7216C148.928 97.5506 149.399 96.1633 149.455 94.729C149.382 93.6422 148.568 93.5606 148.521 94.56C148.397 95.8444 147.991 97.0855 147.331 98.1946C146.999 98.9328 147.446 99.5904 148.097 98.7216Z" fill="black"/>
<path d="M149.5 101.628C149.136 102.09 149.472 102.459 149.999 102.22C150.762 101.711 151.367 100.998 151.744 100.162C152.128 98.9606 151.149 98.8176 151.004 99.6182C150.877 100.325 149.816 101.226 149.5 101.628Z" fill="black"/>
<path d="M144.638 95.5733C144.92 94.9752 146.667 92.6933 146.735 92.9928C146.64 94.7039 146.032 96.3469 144.992 97.7083C144.742 98.0347 145.105 98.6472 145.752 98.1211C146.794 97.2725 147.74 94.2159 147.626 92.8834C147.617 92.7652 147.584 92.6503 147.527 92.5459C147.471 92.4416 147.394 92.3502 147.3 92.2778C147.207 92.2053 147.099 92.1534 146.984 92.1254C146.868 92.0975 146.749 92.094 146.632 92.1154C145.635 92.2834 144.379 94.1765 144.019 95.2834C143.905 95.6443 144.469 95.9314 144.638 95.5733Z" fill="black"/>
<path d="M118.455 91.9596C118.362 91.8864 118.254 91.833 118.14 91.8026C118.025 91.7722 117.905 91.7655 117.788 91.7828C117.671 91.8002 117.558 91.8412 117.457 91.9034C117.356 91.9657 117.269 92.0478 117.2 92.1449C116.939 92.5634 117.122 92.8284 117.51 92.6335C117.777 92.4984 118.079 92.4491 118.374 92.4924C118.673 92.5029 118.694 92.1065 118.455 91.9596Z" fill="black"/>
<path d="M112.297 97.2286C112.134 96.859 111.482 97.1326 111.548 97.5435C111.826 99.2869 114.16 100.088 115.139 99.8744C115.469 99.8024 115.707 99.571 115.459 99.2869C115.071 98.8443 113.28 99.4616 112.297 97.2286Z" fill="black"/>
<path d="M112.678 89.9904C112.322 90.0649 111.993 90.2385 111.731 90.4914C111.468 90.7443 111.283 91.0661 111.195 91.4198C111.109 91.9622 111.516 92.2838 111.978 91.5773C112.077 91.4056 112.209 91.2552 112.366 91.1349C112.524 91.0146 112.704 90.9268 112.895 90.8765C113.65 90.6806 113.401 89.9088 112.678 89.9904Z" fill="black"/>
<path d="M114.302 92.8285C114.059 92.7315 113.789 92.729 113.545 92.8214C113.3 92.9138 113.099 93.0945 112.982 93.3277C112.79 93.703 112.955 94.0131 113.389 93.7578C113.655 93.5832 113.967 93.4904 114.285 93.4909C114.624 93.488 114.665 93.0128 114.302 92.8285Z" fill="black"/>
<path d="M118.789 89.3628C118.536 89.1419 118.229 88.9927 117.9 88.9307C117.57 88.8688 117.23 88.8963 116.915 89.0104C116.404 89.2274 116.491 89.8197 117.107 89.8197C117.549 89.7539 118 89.7988 118.421 89.9503C118.914 90.1327 119.06 89.6076 118.789 89.3628Z" fill="black"/>
<path d="M115.68 95.9246C115.2 96.3538 115.822 96.7013 116.864 96.2126C117.054 96.1562 117.219 96.0366 117.332 95.8735C117.444 95.7104 117.498 95.5137 117.483 95.316C117.291 94.5365 116.956 93.7995 116.494 93.1426C116.11 92.7518 115.919 93.2683 116.087 93.6859C116.316 94.2536 116.498 94.8388 116.631 95.436C116.654 95.4917 115.797 95.819 115.68 95.9246Z" fill="black"/>
<path d="M58.384 59.0316C58.1364 62.5836 58.8804 72.2076 55.4944 75.5196C52.6816 78.27 47.8365 75.8787 45.8724 73.206C45.4749 72.6636 45.0208 73.3356 45.4106 73.8684C47.7444 77.0499 53.0272 79.35 56.2384 76.2041C59.4496 73.0582 59.034 63.7856 59.1012 59.1728C59.1069 58.782 58.4157 58.5795 58.384 59.0316Z" fill="black"/>
<path d="M40.9074 67.0262C41.3814 67.8881 42.0972 68.5925 42.9666 69.0528C42.6659 71.7 42.575 74.3669 42.6949 77.0284C42.7506 78.4137 43.5954 78.3724 43.5589 77.0284C43.4755 74.402 43.5788 71.773 43.868 69.1612C44.06 67.4716 43.5349 68.951 41.923 66.6134C40.6616 64.7836 41.347 62.8128 42.4664 62.6774C43.8248 62.5171 44.5697 64.2489 45.1832 63.5088C46.3354 61.785 47.0785 59.8208 47.3557 57.766C50.6533 58.534 62.179 59.9404 62.8501 53.542C63.6642 45.7747 49.3006 45.6268 45.0258 51.0326C42.7544 48.3868 37.507 51.288 41.5054 61.8979C40.0165 62.8022 39.7362 65.2492 40.9074 67.0262Z" fill="black"/>
<path d="M57.6836 61.0926C57.2091 60.6627 56.5958 60.4177 55.9556 60.4023C55.298 60.4465 55.1291 61.1963 55.9115 61.3623C56.3442 61.3765 56.7635 61.5163 57.1182 61.7646C57.7268 62.3041 58.2395 61.5918 57.6836 61.0926Z" fill="black"/>
<path d="M53.0859 68.5397C52.3477 68.4908 51.8907 69.3212 53.2328 69.4143C54.0911 69.4738 54.5307 69.2395 54.7429 68.8383C55.0626 68.2344 54.9493 65.8527 54.7429 64.7957C54.7429 64.7028 54.706 64.6137 54.6403 64.5479C54.5746 64.4822 54.4854 64.4453 54.3925 64.4453C54.2996 64.4453 54.2104 64.4822 54.1447 64.5479C54.079 64.6137 54.0421 64.7028 54.0421 64.7957C54.1323 67.9522 54.4808 68.6319 53.0859 68.5397Z" fill="black"/>
<path d="M49.1093 69.2989C48.8271 72.151 52.4693 73.3568 53.5042 72.4006C53.5521 72.3445 53.5846 72.2768 53.5983 72.2042C53.612 72.1317 53.6066 72.0568 53.5824 71.987C53.5582 71.9173 53.5162 71.855 53.4606 71.8065C53.4049 71.758 53.3375 71.7248 53.2651 71.7104C52.8825 71.8093 52.483 71.8251 52.0937 71.7568C51.7044 71.6884 51.3343 71.5375 51.0082 71.3141C50.6822 71.0907 50.4077 70.8 50.2034 70.4617C49.999 70.1234 49.8695 69.7452 49.8235 69.3526C49.8239 69.2618 49.7898 69.1743 49.7282 69.1076C49.6666 69.0409 49.582 69 49.4914 68.9932C49.4009 68.9864 49.3111 69.0141 49.2402 69.0709C49.1693 69.1276 49.1225 69.209 49.1093 69.2989Z" fill="black"/>
<path d="M56.5187 65.9218C57.2685 65.8642 57.209 64.2984 56.5187 64.3407C56.0032 64.3724 55.7853 65.9784 56.5187 65.9218Z" fill="#191919"/>
<path d="M51.3306 64.2536C50.6326 64.3832 50.7872 65.7963 51.3306 65.7685C51.8739 65.7406 52.0304 64.123 51.3306 64.2536Z" fill="#191919"/>
<path d="M51.8049 60.7269C51.3749 60.2469 49.5691 60.5809 49.3089 61.7694C49.2437 62.0689 49.5749 62.6661 50.1451 61.9489C50.7153 61.2318 51.3854 61.5957 51.612 61.5198C51.6885 61.493 51.757 61.4474 51.8115 61.3873C51.8659 61.3272 51.9044 61.2545 51.9236 61.1757C51.9428 61.0969 51.9419 61.0146 51.9212 60.9362C51.9005 60.8578 51.8605 60.7859 51.8049 60.7269Z" fill="black"/>
<path d="M44.659 101.462C44.8868 96.232 45.5217 91.0281 46.5578 85.8971C46.6903 85.2395 45.857 85.0552 45.7207 85.7051C45.0238 89.0363 43.385 98.1458 43.9169 101.46C43.9315 101.547 43.9767 101.627 44.0445 101.685C44.1122 101.742 44.1982 101.774 44.2871 101.774C44.376 101.774 44.4622 101.743 44.5302 101.686C44.5983 101.629 44.6439 101.549 44.659 101.462Z" fill="black"/>
<path d="M75.1508 139.288C75.4292 138.41 75.601 125.831 75.3946 124.37C75.3703 124.288 75.3202 124.216 75.2517 124.165C75.1832 124.114 75.1 124.086 75.0145 124.086C74.929 124.086 74.8458 124.114 74.7772 124.165C74.7087 124.216 74.6586 124.288 74.6343 124.37C74.3789 125.749 74.6286 132.318 74.2273 139.288C74.1994 139.766 74.9991 139.764 75.1508 139.288Z" fill="#191919"/>
<path d="M28.4858 124.729C28.4292 127.513 30.0554 137.77 30.6583 141.489C30.8349 142.577 30.8004 142.737 31.8813 143.054C43.7162 146.535 60.882 144.338 73.6039 143.228C73.6752 143.221 73.7444 143.199 73.8075 143.165C73.8706 143.132 73.9264 143.085 73.9717 143.03C74.0171 142.975 74.051 142.911 74.0717 142.842C74.0923 142.773 74.0993 142.701 74.0921 142.63C74.0849 142.559 74.0637 142.49 74.0298 142.427C73.9959 142.363 73.9499 142.308 73.8944 142.262C73.8389 142.217 73.775 142.183 73.7064 142.162C73.6378 142.142 73.5658 142.135 73.4945 142.142C60.1274 143.314 44.8701 145.281 31.8487 142.06C31.0548 136.876 29.9575 131.347 29.2788 124.676C29.2682 124.22 28.4954 124.251 28.4858 124.729Z" fill="#191919"/>
<path d="M29.4285 101.893C28.5808 102.79 27.6112 106.523 27.4615 107.624C27.4567 107.712 27.4838 107.799 27.538 107.869C27.5922 107.939 27.6697 107.987 27.7564 108.004C27.843 108.021 27.933 108.006 28.0097 107.962C28.0863 107.919 28.1446 107.848 28.1738 107.765C29.0532 104.093 29.9757 103.067 30.042 102.203C30.065 101.903 29.6551 101.653 29.4285 101.893Z" fill="#191919"/>
<path d="M84.6828 124.463C85.3298 124.422 85.3682 123.637 84.6828 123.588C79.4261 123.231 74.2036 122.481 69.0588 121.345C68.2341 117.178 68.0508 112.909 68.5154 108.686C68.598 108.03 67.7724 108.056 67.6898 108.686C67.1541 112.773 67.0053 117.173 68.2332 121.133C66.6357 120.687 61.9039 119.501 60.6271 118.482C60.0525 114.51 59.8597 110.491 60.0511 106.482C67.3382 106.345 74.5996 107.385 81.5551 109.563C81.9468 109.686 81.9785 109.134 81.6309 108.921C79.2309 107.456 74.3628 106.574 71.5106 106.205C71.3369 105.042 70.4671 101.446 69.9132 100.849C69.8748 100.815 69.8301 100.788 69.7816 100.772C69.7331 100.755 69.6817 100.748 69.6304 100.751C69.5791 100.754 69.529 100.767 69.4828 100.789C69.4366 100.812 69.3953 100.843 69.3612 100.881C68.9772 101.31 69.8978 102.321 70.5487 106.086C67.2669 105.654 63.9602 105.44 60.6501 105.444C59.3954 105.444 59.1074 105.444 58.9826 106.596C58.7374 110.335 58.8831 114.09 59.4175 117.799C59.6028 119.189 59.8399 119.431 61.2098 120.124C65.1228 122.106 79.7945 124.78 84.6828 124.463Z" fill="#191919"/>
<path d="M43.6121 114.042C43.0255 121.061 44.0489 134.318 45.1932 141.536C45.2892 142.166 46.2741 142.081 46.1877 141.44C45.0106 132.364 44.4116 123.223 44.3945 114.071C44.383 113.977 44.3385 113.891 44.269 113.827C44.1996 113.763 44.1097 113.726 44.0155 113.723C43.9213 113.719 43.829 113.75 43.7551 113.808C43.6811 113.867 43.6304 113.949 43.6121 114.042Z" fill="#191919"/>
<path d="M21.4896 127.501C24.5646 126.517 27.344 124.778 29.5737 122.442C30.2189 121.77 30.4473 121.427 29.7907 120.568C28.5345 119.101 27.6355 117.363 27.1641 115.49C26.6927 113.617 26.6618 111.66 27.0739 109.773C27.2544 108.784 27.0739 108.221 26.0477 108.496C23.0275 109.309 17.8464 111.209 15.7257 113.152C15.3878 113.462 15.7853 114.033 16.1712 113.804C19.2256 111.887 22.5623 110.462 26.0592 109.58C25.1952 114.632 26.5267 117.49 29.2051 121.439C28.055 122.675 26.7448 123.751 25.3094 124.639C20.7897 120.945 19.6176 116.212 19.8768 114.002C19.9296 113.557 19.007 112.85 19.0185 114.137C19.0375 116.263 19.5416 118.356 20.4924 120.258C21.4432 122.159 22.8156 123.818 24.5049 125.108C23.6193 125.6 22.6942 126.018 21.7392 126.356C16.031 128.372 13.0589 127.078 11.8848 121.195C10.0176 111.84 17.6774 97.6542 23.663 90.7182C28.4736 85.1425 30.1171 84.9832 37.6032 82.4008C38.278 84.2802 39.3225 86.0054 40.6752 87.4744C41.9549 88.8683 42.48 87.0529 46.2211 84.1499C47.4957 85.352 48.6562 86.6697 49.6877 88.0859C50.1302 88.636 50.6477 88.5899 51.3197 88.3192C55.2531 86.5015 58.7959 83.9369 61.751 80.7678C62.4845 81.4686 71.639 84.5387 77.2234 90.052C82.3891 95.1534 89.4058 107.664 90.359 115.092C90.4416 115.732 91.2077 115.558 91.127 114.912C90.167 107.43 83.52 94.8837 77.879 89.3761C73.631 85.2241 67.775 82.252 62.2723 80.1381C62.3268 80.0698 62.367 79.9913 62.3905 79.9072C62.4141 79.8231 62.4204 79.7351 62.4092 79.6484C62.398 79.5618 62.3695 79.4783 62.3254 79.403C62.2812 79.3276 62.2224 79.2619 62.1523 79.2097C61.2168 78.3547 60.2121 77.5786 59.1485 76.8894C58.1721 76.2721 58.1366 76.2462 57.2361 77.0315C53.5075 80.2821 51.5318 81.4149 46.3056 82.8385C44.6065 81.7045 43.1006 80.305 41.8454 78.6933C41.3049 78.0011 41.2589 77.9051 40.439 78.3294C39.2976 78.9208 36.9993 80.6056 37.2931 81.4533C29.3529 84.2142 27.9158 84.1758 22.8806 90.1019C16.8739 97.1723 9.11903 111.251 10.8576 121.002C11.9664 127.22 15.1459 129.524 21.4896 127.501ZM58.2902 77.4846C59.3584 78.1603 60.3686 78.9236 61.3104 79.7665C58.3504 83.1405 54.6659 85.8018 50.5325 87.5512C49.4844 86.0983 48.274 84.7697 46.9248 83.5912C51.228 82.71 55.179 80.5882 58.2902 77.4875V77.4846ZM41.1062 79.0821C42.253 80.8151 43.7432 82.2942 45.4848 83.428C44.0757 84.4309 42.8078 85.6184 41.7149 86.9589C40.1639 85.362 38.9552 83.4654 38.1629 81.3851C38.9739 80.4246 39.9743 79.6416 41.1014 79.0849L41.1062 79.0821Z" fill="#191919"/>
<path d="M51.9793 114.803C51.9793 114.641 51.9198 114.424 51.7403 114.374C50.8542 114.131 51.1969 115.142 48.3121 115.064C48.2152 115.047 48.1154 115.067 48.0323 115.119C47.9491 115.172 47.8885 115.254 47.8621 115.348C47.8358 115.443 47.8456 115.544 47.8898 115.632C47.9339 115.72 48.0092 115.789 48.1009 115.824C49.4997 116.386 51.9659 115.597 51.9793 114.803Z" fill="#191919"/>
<path d="M50.2438 103.846C49.7763 103.77 49.7437 104.471 50.1478 104.628C53.0634 105.764 54.2394 105.023 56.9715 107.306C57.3027 107.584 57.9392 107.345 57.7914 106.826C57.3344 105.209 53.3293 104.347 50.2438 103.846Z" fill="#191919"/>
<path d="M52.4549 117.85C53.0309 117.432 52.667 116.682 51.9605 116.997C51.1941 117.395 50.3064 117.492 49.4722 117.269C49.0267 117.187 48.924 117.693 49.3042 118.019C50.0222 118.633 51.7272 118.378 52.4549 117.85Z" fill="#191919"/>
<path d="M47.0619 112.73C46.6779 112.821 46.747 113.55 47.1579 113.524C51.7313 113.236 53.0888 108.351 52.1393 107.51C52.0757 107.453 51.9935 107.422 51.9084 107.422C51.8233 107.422 51.7412 107.453 51.6776 107.51C50.8212 108.266 51.7947 111.616 47.0619 112.73Z" fill="#191919"/>
<path d="M51.2287 120.212C54.4927 121.049 58.1235 118.669 58.0447 117.349C58.0447 117.023 57.6377 116.697 57.3228 116.931C57.0079 117.164 55.9375 119.701 51.3468 119.452C51.2557 119.455 51.1686 119.49 51.1005 119.55C51.0323 119.611 50.9874 119.693 50.9734 119.783C50.9594 119.873 50.9773 119.965 51.0239 120.043C51.0705 120.122 51.1429 120.181 51.2287 120.212Z" fill="#191919"/>
<path d="M29.0401 109.11C30.411 107.337 33.6923 103.926 36.1998 105.34C36.77 105.662 37.1713 104.799 36.5973 104.476C33.6577 102.828 29.5249 106.036 28.4478 108.42C28.0302 109.341 28.7838 109.441 29.0401 109.11Z" fill="#191919"/>
<path d="M38.0886 115.689C37.0201 115.574 35.9778 115.284 35.0032 114.831C34.6192 114.765 33.6592 115.783 36.2089 116.367C39.0985 117.032 38.5936 115.722 38.0886 115.689Z" fill="#191919"/>
<path d="M34.4214 117.197C33.3836 116.692 33.3971 118.112 35.1769 118.566C35.7212 118.705 37.3571 118.684 37.2035 118.023C37.0633 117.425 36.5132 118.214 34.4214 117.197Z" fill="#191919"/>
<path d="M35.5126 120.214C35.959 119.983 35.7343 119.298 35.262 119.446C33.63 119.945 32.4962 119.896 30.2047 119.043C30.1239 119.019 30.0375 119.022 29.9587 119.052C29.8799 119.082 29.8131 119.137 29.7686 119.209C29.7242 119.281 29.7046 119.365 29.7128 119.449C29.721 119.533 29.7565 119.611 29.814 119.673C30.6458 120.226 31.6013 120.564 32.5954 120.659C33.5896 120.753 34.5917 120.6 35.5126 120.214Z" fill="#191919"/>
<path d="M39.6784 113.523C36.6909 111.974 35.9959 111.051 35.1914 109.416C35.0234 109.073 34.2314 109.202 34.5069 110.127C35.0608 111.977 37.6634 113.517 39.2877 114.351C39.3431 114.385 39.4048 114.406 39.469 114.414C39.5331 114.422 39.5983 114.416 39.6601 114.398C39.722 114.379 39.7793 114.347 39.8282 114.305C39.8771 114.263 39.9166 114.211 39.9441 114.152C39.9716 114.094 39.9865 114.03 39.9878 113.965C39.9892 113.901 39.9769 113.837 39.9519 113.777C39.9268 113.717 39.8895 113.664 39.8424 113.619C39.7953 113.575 39.7395 113.541 39.6784 113.52V113.523Z" fill="#191919"/>
<path d="M145.808 130.632C144.181 132.661 143.265 136.633 145.634 138.238C148.252 140.011 151.523 138.178 153.122 135.869C154.946 133.245 155.197 129.456 153.122 128.127C150.838 126.663 147.664 128.315 145.808 130.632ZM153.174 133.522C152.118 136.238 148.691 138.957 146.313 137.39C144.459 136.169 145.353 132.676 146.622 131.186C147.748 129.861 149.756 128.338 151.642 128.676C153.901 129.083 153.799 131.919 153.174 133.522Z" fill="#191919"/>
<path d="M122.335 148.165C122.28 148.165 105.759 148.423 102.858 148.54C100.65 148.629 100.143 148.795 100.143 150.8C100.075 151.259 100.169 151.728 100.41 152.125C100.651 152.522 101.024 152.822 101.463 152.973C101.837 153.057 102.006 152.582 101.756 152.31C101.556 152.139 101.401 151.921 101.306 151.675C101.212 151.429 101.179 151.164 101.213 150.903C101.278 149.751 101.246 149.628 102.783 149.578C109.014 149.372 114.92 149.589 121.395 149.295C122.775 149.232 123.16 149.355 123.356 147.991C124.586 139.397 125.783 128.336 127.251 118.894C127.94 114.461 131.82 113.449 135.83 113.321C144.559 113.038 156.686 112.824 165.519 112.69C173.059 112.575 172.103 115.634 171.69 120.296C170.73 131.161 169.661 140.674 168.273 150.023C168.183 150.625 167.927 151.19 167.535 151.655C167.477 151.688 167.428 151.731 167.389 151.784C167.35 151.837 167.323 151.897 167.309 151.961C167.295 152.025 167.294 152.092 167.308 152.156C167.321 152.22 167.348 152.28 167.386 152.334C167.425 152.387 167.474 152.431 167.531 152.464C167.587 152.497 167.65 152.517 167.716 152.524C167.781 152.53 167.847 152.523 167.909 152.503C167.971 152.483 168.028 152.449 168.077 152.405C168.783 151.705 169.23 150.785 169.343 149.798C170.516 140.314 171.774 131.105 172.647 121.521C173.339 113.916 173.358 111.585 166.295 111.552C157.989 111.514 142.935 112.242 136.449 112.253C130.967 112.262 127.137 113.533 126.295 119.174C124.86 128.816 123.492 138.729 122.335 148.165Z" fill="#191919"/>
<path d="M74.8181 144.35C61.8581 146.05 38.5925 147.642 30.9769 143.938C30.8569 145.761 30.8732 150.114 30.8242 152.531C34.79 152.482 72.2482 152.325 74.8287 152.222C74.8613 150.989 74.9765 146.284 74.8181 144.35Z" fill="#191919"/>
<path d="M120.358 93.5036C120.302 91.7966 120.155 90.0937 119.919 88.4022C119.848 88.0652 119.226 88.0114 119.266 88.4022C119.607 91.7622 120.359 100.594 118.452 102.962C117.417 104.246 115.018 104.651 110.921 103.364C110.379 103.193 110.239 103.748 110.737 103.994C112.24 104.724 113.891 105.096 115.561 105.08C115.715 106.631 116.056 108.158 116.577 109.627C116.723 110.035 117.371 109.862 117.249 109.435C116.972 108.475 116.764 107.496 116.625 106.507C122.758 105.963 128.929 101.276 127.425 100.705C125.921 100.133 122.678 98.029 120.358 93.5036Z" fill="#191919"/>
<path d="M105.872 108.011V109.863C105.863 109.965 105.895 110.066 105.961 110.144C106.027 110.222 106.121 110.271 106.223 110.28C106.325 110.289 106.426 110.256 106.504 110.191C106.582 110.125 106.631 110.03 106.64 109.929C106.874 106.914 106.827 103.884 106.498 100.878C106.378 99.79 106.558 99.5154 105.634 99.357C104.319 99.1305 103.838 97.725 103.63 96.3637C103.438 95.0985 103.875 93.7717 104.956 93.7122C105.949 93.6604 106.26 94.8969 106.726 93.4569C106.99 92.1384 106.966 90.7784 106.656 89.47C109.334 89.47 119.294 89.1561 125.062 83.7705C125.866 83.0207 122.052 83.1676 120.21 80.4105C116.615 75.0258 106.221 71.7839 102.603 81.1333C97.9948 79.2969 95.4652 83.5737 96.91 95.4594C97.5484 100.713 93.3081 105.238 93.262 105.781C93.2159 106.325 98.9404 108.506 105.872 108.011Z" fill="#191919"/>
<path d="M55.5854 95.5483C54.6706 95.3316 53.7724 95.0503 52.8974 94.7063C53.7778 93.5169 54.7013 92.3543 55.5058 91.115C55.572 91.0306 55.6019 90.9233 55.589 90.8169C55.5762 90.7104 55.5215 90.6133 55.4371 90.5471C55.3527 90.4809 55.2455 90.451 55.139 90.4639C55.0325 90.4767 54.9355 90.5314 54.8693 90.6158C53.7211 91.8922 52.6461 93.2326 51.6494 94.6305C51.5656 94.7474 51.5315 94.8928 51.5548 95.0348C51.578 95.1768 51.6566 95.3038 51.7733 95.3879C52.499 95.735 53.256 96.0124 54.0341 96.2164C52.7467 97.1457 50.8286 98.2219 49.6123 98.9332C48.8443 99.3825 49.068 100.077 49.8946 99.7799C51.898 98.8184 53.838 97.7298 55.7026 96.5207C56.2229 96.2596 56.2574 95.7067 55.5854 95.5483Z" fill="#FFB500"/>
<path d="M39.4293 99.6504C38.7938 97.9099 38.0296 96.205 37.2558 94.5211C37.0533 94.0795 36.5838 93.8146 36.2622 94.4895C36.0088 95.0395 35.6993 95.5619 35.3387 96.0485C34.5198 94.6599 33.8201 93.2045 33.2469 91.6978C33.228 91.6482 33.1995 91.6028 33.163 91.5642C33.1266 91.5256 33.0829 91.4945 33.0344 91.4728C32.986 91.4511 32.9337 91.4392 32.8806 91.4377C32.8276 91.4362 32.7747 91.4451 32.7251 91.464C32.6755 91.4829 32.6301 91.5114 32.5915 91.5479C32.5529 91.5843 32.5219 91.628 32.5002 91.6765C32.4785 91.7249 32.4665 91.7772 32.465 91.8302C32.4635 91.8833 32.4725 91.9362 32.4914 91.9858C33.1114 93.8312 33.8781 95.6241 34.7838 97.3474C34.8176 97.4359 34.8738 97.514 34.947 97.5742C35.0201 97.6343 35.1077 97.6743 35.2011 97.6902C35.2945 97.7061 35.3904 97.6973 35.4793 97.6648C35.5683 97.6323 35.6472 97.5772 35.7083 97.5048C36.0917 96.9943 36.4244 96.4478 36.7019 95.8728C37.4098 97.2039 38.0481 98.5709 38.6142 99.9682C38.6281 100.03 38.6553 100.089 38.6939 100.14C38.7325 100.191 38.7816 100.233 38.8379 100.263C38.8942 100.293 38.9564 100.31 39.0201 100.314C39.0838 100.318 39.1475 100.308 39.207 100.284C39.2665 100.261 39.3202 100.225 39.3645 100.18C39.4089 100.134 39.4428 100.079 39.4639 100.019C39.485 99.9583 39.4928 99.8942 39.4869 99.8307C39.4809 99.7671 39.4612 99.7056 39.4293 99.6504Z" fill="#FFB500"/>
<path d="M23.0421 127.516C18.3016 133.994 18.6962 142.78 10.0034 149.529C9.03089 150.284 8.92049 151.826 10.8943 150.279C18.6223 144.222 19.4488 136.063 23.7967 128.007C24.0616 127.513 23.3301 127.124 23.0421 127.516Z" fill="#FFB500"/>
<path d="M79.9188 143.384C65.5476 137.201 64.6385 124.714 57.6468 119.704C57.2282 119.404 56.8068 120.032 57.1034 120.388C65.1367 130.058 66.0506 138.963 79.5674 144.53C80.2922 144.828 80.61 143.682 79.9188 143.384Z" fill="#FFB500"/>
<path d="M164.077 89.5885C163.636 95.9149 163.654 103.631 158.503 108.891C157.966 109.439 158.759 110.341 159.291 109.787C164.631 104.229 165.185 97.2378 165.099 89.6538C165.103 89.5867 165.094 89.5195 165.072 89.4558C165.051 89.3922 165.017 89.3335 164.972 89.2831C164.928 89.2326 164.874 89.1914 164.814 89.1618C164.753 89.1322 164.688 89.1147 164.621 89.1104C164.553 89.1061 164.486 89.1151 164.423 89.1368C164.359 89.1585 164.3 89.1925 164.25 89.2369C164.199 89.2813 164.158 89.3352 164.129 89.3955C164.099 89.4559 164.081 89.5214 164.077 89.5885Z" fill="#FFB500"/>
<path d="M162.979 43.9345C162.845 42.3591 162.841 39.2861 162.539 37.9825C162.443 37.5754 161.794 37.4717 161.68 37.9287C161.483 40.0045 161.534 42.0965 161.833 44.1601C161.924 44.8743 163.047 44.7437 162.979 43.9345Z" fill="#FFB500"/>
<path d="M139.01 64.3621C139.814 64.4216 143.182 63.7688 144.41 63.6498C145.035 63.5902 144.954 62.517 144.301 62.564C143.33 62.6322 139.717 62.9979 138.82 63.5365C138.745 63.5887 138.688 63.662 138.655 63.7469C138.623 63.8319 138.616 63.9246 138.637 64.0133C138.657 64.102 138.704 64.1826 138.77 64.2448C138.837 64.3069 138.92 64.3477 139.01 64.3621Z" fill="#FFB500"/>
<path d="M145.137 47.4679C146.385 48.5518 147.03 49.0462 147.853 49.7988C148.44 50.3354 149.301 49.7681 148.798 49.1527C147.766 48.0525 146.623 47.062 145.386 46.1969C144.383 45.3012 143.814 46.3236 145.137 47.4679Z" fill="#FFB500"/>
<path d="M177.791 42.305C176.792 43.0173 175.199 45.7025 174.613 46.7277C174.569 46.7943 174.539 46.8692 174.525 46.9478C174.511 47.0265 174.513 47.1073 174.531 47.185C174.55 47.2628 174.584 47.336 174.632 47.4C174.68 47.464 174.74 47.5174 174.81 47.557C174.879 47.5966 174.956 47.6215 175.035 47.6302C175.115 47.6388 175.195 47.631 175.272 47.6072C175.348 47.5835 175.418 47.5443 175.479 47.4921C175.54 47.4398 175.589 47.3757 175.623 47.3037C176.523 45.7831 177.515 44.3133 178.437 42.8061C178.612 42.5191 178.091 42.0881 177.791 42.305Z" fill="#FFB500"/>
<path d="M150.472 62.1078C150.856 67.3561 154.647 71.8432 158.745 74.8528C159.288 75.2512 159.705 74.5811 159.24 74.1472C156.143 71.2307 152.92 68.1702 151.933 63.8252C148.452 48.5008 175.599 46.3264 175.756 60.4048C175.812 65.5494 172.492 69.7945 169.448 73.6336C168.975 74.2307 169.661 74.727 170.165 74.1769C173.309 70.742 176.475 66.5718 176.885 61.6816C178.278 45.3596 149.302 46.2448 150.472 62.1078Z" fill="#FFB500"/>
<path d="M186.616 57.4838C184.726 57.7036 182.814 57.9551 180.952 58.294C180.41 58.39 180.632 59.2338 181.126 59.1954C183.028 59.0489 184.926 58.8351 186.82 58.5541C187.463 58.4591 187.219 57.4146 186.616 57.4838Z" fill="#FFB500"/>
<path d="M168.208 63.4538C172.649 59.5495 167.408 55.7825 165.525 60.2916C165.062 61.4021 164.699 62.5512 164.438 63.7255C163.411 63.9079 162.365 63.9608 161.325 63.8829C160.924 62.3892 160.374 59.9469 158.829 59.2749C155.668 57.9002 154.011 63.9146 160.388 64.9572C161.106 67.981 161.667 71.0402 162.067 74.1223C162.079 74.218 162.126 74.3058 162.199 74.3694C162.271 74.4331 162.364 74.4682 162.461 74.4682C162.557 74.4682 162.651 74.4331 162.723 74.3694C162.796 74.3058 162.843 74.218 162.855 74.1223C162.803 71.0767 162.393 68.0478 161.632 65.0983C162.49 65.1328 163.35 65.0926 164.202 64.9783C163.792 67.9703 163.958 71.013 164.691 73.9428C164.853 74.6868 165.675 74.4852 165.538 73.7681C164.97 70.7881 164.957 67.7288 165.5 64.744C166.501 64.5623 167.436 64.1169 168.208 63.4538ZM168.241 59.5745C169.756 60.5709 167.388 63.0305 165.785 63.4145C166.671 59.8567 167.681 59.2058 168.241 59.5745ZM157.375 61.9543C156.75 60.737 157.831 59.6561 158.826 60.6833C159.446 61.5817 159.861 62.6051 160.043 63.6813C159.503 63.589 158.988 63.3882 158.527 63.0913C158.067 62.7943 157.672 62.4072 157.365 61.9533L157.375 61.9543Z" fill="#FFB500"/>
<path d="M185.415 72.8244C183.789 71.8881 182.075 71.1132 180.298 70.5108C179.841 70.386 179.554 71.0868 179.933 71.347C181.464 72.3809 183.299 72.906 184.894 73.843C185.903 74.4411 186.659 73.6721 185.415 72.8244Z" fill="#FFB500"/>
<path d="M150.108 74.7612C149.402 74.8946 147.004 77.7487 146.652 78.4092C145.943 79.7532 146.947 79.8933 147.169 79.4959C148.175 77.6901 149.959 76.4575 150.483 75.6924C150.728 75.3362 150.673 74.6546 150.108 74.7612Z" fill="#FFB500"/>
<path d="M159.042 75.9496C158.77 83.262 160.339 87.75 164.327 87.7576C169.407 87.7653 169.956 81.6684 169.613 75.5781C166.108 76.0228 162.569 76.1472 159.042 75.9496ZM167.163 82.6101C165.785 83.5331 164.204 84.1091 162.555 84.2892C161.947 84.2997 161.829 83.6248 162.408 83.4799C163.901 83.123 165.316 82.4989 166.586 81.6376C166.713 81.5832 166.856 81.5768 166.988 81.6197C167.119 81.6626 167.231 81.7518 167.301 81.8708C167.372 81.9898 167.397 82.1304 167.371 82.2665C167.346 82.4025 167.272 82.5246 167.163 82.6101ZM167.326 78.9871C166.139 79.9336 162.116 80.9426 161.535 80.9071C161.106 80.9071 160.843 80.4434 161.269 80.1631C162.022 79.6658 164.437 79.2482 166.701 78.0511C167.467 77.6479 168.058 78.4034 167.33 78.9871H167.326Z" fill="#FFB500"/>
<path d="M42.1444 103.008C38.1124 103.2 36.5265 104.904 36.7607 108C36.995 111.096 38.7921 111.803 42.155 111.885C41.3921 110.53 40.9904 109.002 40.9886 107.448C40.9867 105.893 41.3848 104.364 42.1444 103.008Z" fill="#FFB500"/>
<path d="M49.2788 107.652C49.3384 104.16 46.0148 103.155 43.4824 103.008C42.6392 104.333 42.1914 105.87 42.1914 107.441C42.1914 109.011 42.6392 110.549 43.4824 111.873C46.1982 111.759 48.4686 111.178 49.083 108.935C49.6916 109.195 49.9662 109.799 50.4356 109.385C51.1556 108.747 49.778 107.913 49.2788 107.652Z" fill="#FFB500"/>
<path d="M114.508 118.825C113.172 116.918 108.022 113.267 103.747 110.263C100.145 111.349 93.4576 114.501 89.8499 118.179C86.2422 121.856 80.3075 139.017 81.831 147.514C82.887 153.403 87.4326 152.632 99.2156 152.524C98.9545 151.703 98.7001 148.769 100.188 147.894C101.676 147.02 116.247 147.126 121.375 147.172C121.587 146.015 122 142.827 122.462 138.974C113.542 138.431 102.231 139.861 93.374 140.577C92.8307 140.62 92.7932 140.116 93.303 140.034C94.5076 139.78 95.722 139.575 96.9433 139.42C97.0902 137.247 97.8486 130.108 98.6598 128.011C98.8307 127.572 99.3068 127.733 99.23 128.164C98.5995 131.852 98.186 135.574 97.9916 139.311C106.155 138.348 114.371 137.913 122.591 138.007C125.331 116.029 124.945 113.987 129.952 112.164C128.512 111.436 121.612 109.34 118.267 109.34C118.008 110.589 116.051 116.765 114.508 118.825Z" fill="#FFB500"/>
<path d="M138.215 111.188C141.127 111.085 146.445 110.949 148.325 110.846C148.455 110.09 148.678 108.926 149.113 107.157C148.026 106.389 142.191 103.397 140.473 102.645C140.339 103.226 138.764 109.029 138.215 111.188Z" fill="#FFB500"/>
</svg>
