<svg width="192" height="193" viewBox="0 0 192 193" fill="none" xmlns="http://www.w3.org/2000/svg">
<path d="M111.471 115.86C111.468 115.793 111.452 115.728 111.423 115.669C111.394 115.609 111.354 115.556 111.304 115.512C111.299 115.312 111.246 115.116 111.149 114.94C111.052 114.765 110.915 114.615 110.748 114.504C110.582 114.393 110.391 114.324 110.192 114.302C109.993 114.28 109.791 114.307 109.604 114.379C108.836 113.419 107.23 114.865 107.78 115.448C107.768 115.46 107.768 115.474 107.755 115.486C107.371 116.464 108.411 117.496 109.313 117.662C109.578 117.719 109.852 117.715 110.115 117.65C110.379 117.585 110.623 117.461 110.832 117.287C111.04 117.114 111.205 116.895 111.316 116.647C111.427 116.4 111.48 116.131 111.471 115.86Z" fill="black"/>
<path d="M83.4324 125.619C83.3285 125.447 83.1738 125.311 82.9895 125.23C82.8052 125.15 82.6004 125.128 82.4032 125.168C82.308 125.195 82.2212 125.246 82.1512 125.316C82.0813 125.386 82.0305 125.472 82.0039 125.568C81.6909 126.493 82.6231 127.488 83.2653 127.074C83.6935 126.879 83.6551 125.972 83.4324 125.619Z" fill="#191919"/>
<path d="M88.9402 123.737C88.8377 123.564 88.6831 123.427 88.4984 123.346C88.3137 123.265 88.1082 123.245 87.9111 123.287C87.8158 123.314 87.729 123.365 87.6591 123.435C87.5892 123.505 87.5384 123.591 87.5117 123.687C87.1988 124.611 88.13 125.601 88.7732 125.192C89.1994 124.999 89.1648 124.1 88.9402 123.737Z" fill="#191919"/>
<path d="M89.3397 129.378C88.6689 127.972 87.8673 126.631 86.9454 125.375C86.7117 124.958 86.3803 124.605 85.9797 124.345C85.9386 124.323 85.8919 124.313 85.8455 124.317C85.799 124.321 85.7547 124.339 85.7179 124.367C85.6811 124.396 85.6534 124.435 85.6382 124.479C85.623 124.523 85.6209 124.57 85.6322 124.616C85.6936 125.014 85.8136 125.071 86.8168 126.688C87.5995 127.964 88.2921 129.293 88.8894 130.666V130.704C88.2712 130.691 86.5979 130.692 86.4174 130.73C85.9806 130.826 86.0699 131.402 86.4174 131.528C86.9463 131.666 87.4949 131.714 88.0398 131.67C88.5219 131.73 89.0112 131.695 89.4798 131.567C90.4043 131.156 89.6104 129.945 89.3397 129.378Z" fill="#191919"/>
<path d="M86.5977 133.744C86.6146 134.192 86.7892 134.619 87.0905 134.951C87.3919 135.283 87.8007 135.498 88.245 135.558C88.7144 135.556 89.1671 135.384 89.5198 135.074C89.8726 134.764 90.1017 134.338 90.165 133.872C90.2447 133.538 90.3349 133.002 89.9077 132.856C89.5113 132.72 89.3058 133.114 89.2127 133.421C89.0754 133.873 88.942 134.554 88.3372 134.554C87.694 134.554 87.4924 133.882 87.0757 133.537C87.0348 133.501 86.9844 133.478 86.9305 133.469C86.8766 133.461 86.8214 133.468 86.7713 133.489C86.7212 133.511 86.6783 133.546 86.6476 133.591C86.6168 133.636 86.5995 133.689 86.5977 133.744Z" fill="#191919"/>
<path d="M73.2766 143.061C72.2399 143.217 71.2248 143.494 70.2517 143.884C63.261 146.333 55.9784 149.177 49.7461 153.628C48.7969 154.288 47.8899 155.005 47.0302 155.778C46.1446 156.49 45.4978 157.455 45.1765 158.545C45.0997 158.893 45.5605 159.255 45.8331 158.929C46.4249 158.163 47.0565 157.429 47.7253 156.729C50.0838 154.703 52.6512 152.933 55.3842 151.449C60.1291 148.937 65.0663 146.807 70.149 145.078C71.2884 144.736 72.3851 144.265 73.4178 143.674C73.7144 143.513 73.6366 143.023 73.2766 143.061Z" fill="#191919"/>
<path d="M91.4531 143.796C100.413 148.062 108.98 148.404 116.221 157.274C118.503 160.067 118.984 161.736 120.096 163.117C120.394 163.489 120.893 163.079 120.817 162.693C120.537 161.645 120.08 160.652 119.465 159.758C117.774 157.002 115.639 154.544 113.145 152.485C108.815 148.927 105.4 147.913 100.672 146.177C93.6793 143.612 93.4576 143.579 91.7382 143.178C91.3504 143.088 91.0941 143.625 91.4531 143.796Z" fill="#191919"/>
<path d="M135.761 119.49C135.529 119.874 135.308 120.662 135.697 121.034C135.766 121.097 135.848 121.146 135.936 121.176C136.024 121.207 136.118 121.22 136.212 121.214C136.305 121.208 136.397 121.184 136.481 121.142C136.564 121.1 136.639 121.041 136.7 120.97C136.898 120.715 137.011 120.405 137.022 120.082C137.133 119.021 136.159 118.835 135.761 119.49Z" fill="#191919"/>
<path d="M141.733 119.958C141.652 119.912 141.563 119.882 141.471 119.872C141.378 119.861 141.285 119.869 141.196 119.896C141.107 119.922 141.024 119.966 140.953 120.026C140.881 120.085 140.823 120.158 140.78 120.241C140.549 120.625 140.327 121.413 140.716 121.785C140.786 121.848 140.867 121.896 140.956 121.927C141.044 121.958 141.138 121.971 141.231 121.965C141.325 121.959 141.416 121.934 141.5 121.892C141.584 121.85 141.659 121.792 141.72 121.721C141.918 121.466 142.031 121.156 142.042 120.833C142.081 120.673 142.072 120.505 142.017 120.349C141.963 120.194 141.864 120.058 141.733 119.958Z" fill="#191919"/>
<path d="M136.722 124.915C137.332 124.505 137.842 123.964 138.216 123.332C138.734 122.437 139.05 121.439 139.142 120.409C139.166 120.114 138.744 120.037 138.602 120.268C137.93 121.359 137.622 122.843 136.426 123.834C136.166 124.05 135.717 124.194 135.525 124.49C135.11 125.132 136.053 125.803 136.491 126.151C137.057 126.601 137.867 127.231 138.628 127.052C138.682 127.036 138.731 127.008 138.773 126.971C138.815 126.933 138.847 126.887 138.869 126.835C138.89 126.783 138.899 126.726 138.895 126.67C138.891 126.614 138.874 126.56 138.846 126.511C138.459 125.875 137.554 125.779 136.722 124.915Z" fill="#191919"/>
<path d="M140.446 127.91C139.254 128.465 137.902 128.574 136.636 128.218C136.263 128.064 135.867 127.973 135.465 127.949C135.419 127.951 135.374 127.964 135.335 127.988C135.296 128.012 135.263 128.045 135.24 128.085C135.217 128.124 135.204 128.169 135.203 128.215C135.202 128.261 135.212 128.306 135.233 128.347C135.684 129.146 137.057 129.341 137.885 129.403C138.58 129.449 139.277 129.371 139.944 129.172C138.917 132.254 136.8 132.532 136.469 131.566C136.236 130.884 136.324 130.151 136.109 129.467C136.083 129.386 136.032 129.315 135.963 129.265C135.894 129.214 135.81 129.187 135.725 129.187C135.639 129.187 135.556 129.214 135.487 129.265C135.418 129.315 135.367 129.386 135.341 129.467C135.103 130.399 135.199 131.384 135.612 132.251C135.849 132.617 136.204 132.892 136.618 133.03C137.032 133.168 137.48 133.161 137.89 133.011C139.608 132.635 140.839 130.227 141.172 128.493C141.204 128.397 141.206 128.293 141.177 128.196C141.149 128.099 141.091 128.013 141.012 127.949C140.933 127.886 140.836 127.848 140.735 127.841C140.634 127.834 140.533 127.858 140.446 127.91Z" fill="#191919"/>
<path d="M146.161 144.597C145.757 144.491 145.328 144.532 144.95 144.713C142.713 145.337 140.322 145.078 138.27 143.992C137.435 143.565 136.724 142.943 135.915 142.486C135.875 142.462 135.829 142.448 135.783 142.446C135.736 142.443 135.69 142.451 135.647 142.47C135.605 142.489 135.567 142.517 135.537 142.554C135.508 142.59 135.487 142.632 135.477 142.678C135.04 142.553 135.008 142.689 132.954 142.858C129.187 143.168 121.05 142.13 116.065 147.119C114.82 148.224 113.993 149.724 113.723 151.367C113.724 151.47 113.76 151.571 113.823 151.653C113.887 151.735 113.975 151.794 114.075 151.821C114.175 151.849 114.281 151.843 114.378 151.805C114.474 151.768 114.556 151.7 114.611 151.611C115.158 150.361 115.886 149.198 116.774 148.161C121.416 143.273 129.021 144.437 133.044 143.965C133.829 143.869 135.078 143.824 135.636 143.18C135.648 143.167 135.648 143.167 135.648 143.154C137.045 145.374 140.811 146.464 143.642 146.14C144.427 146.051 146.016 145.957 146.384 145.098C146.406 145.051 146.418 144.999 146.419 144.947C146.42 144.895 146.409 144.844 146.388 144.796C146.367 144.748 146.335 144.706 146.296 144.671C146.257 144.637 146.211 144.612 146.161 144.597Z" fill="#191919"/>
<path d="M122.073 110.199C121.571 109.516 119.985 108.82 119.46 109.865C119.441 109.896 119.43 109.931 119.427 109.968C119.424 110.004 119.43 110.041 119.444 110.074C119.457 110.108 119.479 110.138 119.507 110.162C119.534 110.186 119.567 110.203 119.602 110.212C119.912 110.261 120.22 110.175 120.516 110.237C120.695 110.28 120.862 110.364 121.003 110.482C121.144 110.601 121.255 110.751 121.328 110.92C122.201 112.719 120.635 115.119 119.216 114.627C118.908 114.521 118.727 114.243 118.456 114.087C118.059 113.86 117.592 114.292 117.916 115.001C117.834 115.037 117.763 115.095 117.71 115.168C116.909 116.565 115.811 117.769 114.492 118.695C111.125 120.755 107.484 119.253 106.846 116.184C106.366 113.859 106.832 109.884 107.244 107.573C107.427 106.557 107.717 105.513 107.798 104.484C107.798 104.417 107.776 104.352 107.736 104.299C107.695 104.246 107.638 104.208 107.574 104.19C107.51 104.173 107.441 104.177 107.379 104.202C107.318 104.227 107.266 104.272 107.232 104.329C105.984 106.839 105.251 114.072 105.932 116.738C106.336 118.158 107.287 119.359 108.575 120.079C109.864 120.798 111.385 120.978 112.806 120.578C112.77 120.972 112.867 121.26 112.78 122.74C112.672 124.571 112.396 124.802 112.703 125.251C112.726 125.29 112.757 125.325 112.794 125.352C112.832 125.379 112.874 125.399 112.918 125.41C112.963 125.421 113.01 125.423 113.055 125.415C113.1 125.408 113.144 125.391 113.183 125.367C113.591 125.091 113.605 124.671 113.672 124.195C113.802 123.273 113.828 122.339 113.749 121.411C113.738 121.049 113.682 120.69 113.582 120.342C113.852 120.239 114.126 120.142 114.392 120.021C116.279 119.107 117.747 117.51 118.499 115.554C121.353 116.915 123.796 112.54 122.073 110.199Z" fill="#191919"/>
<path d="M120.48 116.26C120.002 117.468 119.796 118.766 119.876 120.063C119.956 121.36 120.32 122.624 120.943 123.764C121.201 124.188 121.983 123.907 121.78 123.404C120.601 120.469 120.65 119.478 120.995 116.401C120.996 116.34 120.976 116.28 120.94 116.231C120.903 116.182 120.851 116.147 120.792 116.131C120.733 116.115 120.671 116.119 120.614 116.142C120.558 116.165 120.511 116.207 120.48 116.26Z" fill="#191919"/>
<path d="M131.448 99.5403C131.792 98.9526 132.007 98.299 132.08 97.6224C132.153 96.9458 132.082 96.2613 131.873 95.6139C131.678 95.1347 131.347 94.7226 130.922 94.4277C130.497 94.1329 129.996 93.9679 129.478 93.9531C129.814 92.37 129.71 90.4788 128.578 89.3067C128.226 88.9498 127.773 88.7101 127.28 88.6202C126.787 88.5304 126.278 88.5948 125.823 88.8046C125.72 88.2087 125.463 87.6502 125.076 87.1849C124.69 86.7196 124.188 86.3638 123.622 86.1531C123.082 85.9823 122.504 85.9782 121.962 86.1412C121.42 86.3043 120.94 86.6269 120.584 87.067C119.549 86.2155 118.287 85.6874 116.954 85.5483C116.53 85.4578 116.088 85.5065 115.694 85.6872C115.299 85.868 114.974 86.171 114.766 86.5515C114.184 86.1756 113.509 85.9672 112.817 85.949C112.124 85.9309 111.44 86.1038 110.839 86.4488C110.296 86.7982 109.871 87.3026 109.619 87.8966C109.366 88.4906 109.298 89.1467 109.423 89.78C108.774 89.7476 108.128 89.875 107.54 90.151C106.951 90.4271 106.44 90.8432 106.051 91.363C105.688 91.8968 105.482 92.5218 105.457 93.1668C105.432 93.8117 105.589 94.4508 105.91 95.011C105.369 95.1648 104.893 95.4878 104.55 95.9326C104.207 96.3774 104.015 96.9205 104.004 97.482C104.026 97.8341 104.127 98.1768 104.298 98.4851C104.47 98.7935 104.708 99.0597 104.995 99.2644C105.283 99.4691 105.612 99.6071 105.96 99.6685C106.307 99.7298 106.664 99.7129 107.004 99.619C107.071 99.6001 107.135 99.568 107.19 99.5247C107.245 99.4814 107.291 99.4276 107.326 99.3665C107.36 99.3053 107.382 99.238 107.39 99.1683C107.399 99.0986 107.393 99.028 107.374 98.9604C107.356 98.8929 107.324 98.8297 107.28 98.7745C107.237 98.7193 107.183 98.6732 107.122 98.6388C107.061 98.6044 106.993 98.5823 106.924 98.5739C106.854 98.5656 106.783 98.571 106.716 98.5899C106.529 98.6298 106.335 98.6282 106.148 98.5852C105.961 98.5423 105.787 98.4589 105.636 98.3411C105.485 98.2232 105.361 98.0737 105.274 97.9031C105.187 97.7324 105.139 97.5448 105.132 97.3534C105.21 96.9437 105.435 96.5765 105.764 96.3206C106.094 96.0647 106.505 95.9377 106.921 95.9633C107.031 95.9621 107.138 95.9288 107.229 95.8675C107.32 95.8062 107.391 95.7196 107.434 95.6183C107.476 95.5171 107.488 95.4057 107.468 95.2977C107.448 95.1898 107.397 95.0901 107.321 95.011C106.901 94.6231 106.637 94.0955 106.577 93.527C106.518 92.9584 106.668 92.3878 106.999 91.9217C107.377 91.4717 107.879 91.1436 108.443 90.9785C109.006 90.8135 109.606 90.819 110.167 90.9944C110.591 91.1124 111.072 90.5931 110.785 90.1841C110.633 89.9522 110.53 89.6913 110.483 89.4178C110.436 89.1442 110.446 88.864 110.513 88.5945C110.579 88.3251 110.7 88.0722 110.869 87.8518C111.038 87.6314 111.25 87.4482 111.493 87.3137C112.062 87.0479 112.702 86.9757 113.316 87.1081C113.929 87.2406 114.483 87.5704 114.891 88.0472C115.291 88.484 116.066 87.9243 115.728 87.403C115.463 86.996 115.986 86.6859 116.346 86.635C117.095 86.6321 117.838 86.7786 118.53 87.0659C119.222 87.3532 119.85 87.7755 120.378 88.3083C120.444 88.3715 120.526 88.4167 120.615 88.4396C120.704 88.4625 120.797 88.4623 120.886 88.4392C120.975 88.416 121.056 88.3706 121.123 88.3072C121.189 88.2439 121.238 88.1646 121.266 88.0769C121.352 87.8751 121.479 87.6928 121.638 87.5409C121.796 87.3889 121.984 87.2704 122.189 87.1923C122.394 87.1142 122.613 87.0782 122.833 87.0863C123.052 87.0945 123.268 87.1467 123.467 87.2398C123.947 87.5183 124.337 87.9287 124.59 88.4222C124.843 88.9157 124.95 89.4716 124.896 90.0238C124.901 90.1497 124.949 90.2699 125.034 90.3634C125.118 90.4568 125.233 90.5174 125.358 90.5344C125.483 90.5514 125.609 90.5238 125.716 90.4563C125.822 90.3889 125.901 90.286 125.939 90.1659C126.038 89.9798 126.194 89.8306 126.384 89.7401C126.574 89.6497 126.788 89.6229 126.995 89.6638C127.256 89.7166 127.5 89.8337 127.705 90.0045C127.91 90.1753 128.068 90.3944 128.167 90.642C128.678 91.8857 128.687 93.279 128.192 94.5291C128.015 95.0331 128.592 95.3172 128.991 95.1473C129.971 94.7288 130.856 95.6878 130.998 96.5758C131.047 97.6957 130.755 98.8042 130.162 99.7553C130.111 99.8493 130.088 99.9562 130.096 100.063C130.105 100.17 130.144 100.272 130.21 100.356C130.275 100.441 130.364 100.505 130.465 100.54C130.566 100.575 130.675 100.58 130.779 100.554C131.321 100.451 131.709 101.017 131.758 101.48C131.768 102.103 131.598 102.715 131.269 103.244C131.085 103.716 130.788 104.136 130.404 104.466C130.02 104.797 129.561 105.028 129.067 105.14C128.668 105.192 128.587 105.757 128.835 106.004C129.084 106.251 128.946 107.189 128.938 107.523C128.944 108.095 128.812 108.66 128.554 109.171C128.372 109.564 128.054 109.877 127.659 110.054C127.264 110.23 126.818 110.258 126.405 110.131C126.307 110.078 126.196 110.058 126.086 110.073C125.976 110.089 125.875 110.14 125.797 110.218C125.718 110.296 125.667 110.398 125.651 110.507C125.636 110.617 125.656 110.729 125.709 110.826C125.836 111.115 125.889 111.431 125.863 111.745C125.836 112.059 125.731 112.362 125.556 112.625C125.382 112.888 125.144 113.103 124.865 113.25C124.586 113.396 124.274 113.47 123.958 113.465C123.839 113.469 123.724 113.516 123.635 113.597C123.547 113.678 123.489 113.787 123.474 113.906C123.459 114.025 123.486 114.146 123.551 114.247C123.616 114.348 123.715 114.422 123.83 114.457C123.965 114.529 124.081 114.632 124.168 114.758C124.256 114.884 124.313 115.028 124.334 115.18C124.356 115.331 124.341 115.486 124.291 115.631C124.242 115.776 124.159 115.907 124.049 116.014C123.419 116.621 122.305 116.239 121.731 115.757C121.459 115.527 120.974 115.82 121.191 116.155C121.381 116.453 121.635 116.704 121.934 116.892C122.233 117.08 122.571 117.199 122.921 117.241C123.272 117.283 123.628 117.246 123.963 117.134C124.298 117.022 124.604 116.837 124.859 116.593C125.133 116.272 125.298 115.872 125.33 115.451C125.363 115.03 125.261 114.61 125.039 114.25C125.632 114.019 126.132 113.598 126.46 113.053C126.789 112.508 126.927 111.87 126.855 111.238C127.36 111.241 127.858 111.112 128.298 110.863C128.738 110.615 129.106 110.256 129.365 109.822C129.757 109.112 129.964 108.316 129.97 107.505C130.027 106.991 130.013 106.472 129.931 105.961C130.569 105.642 131.135 105.195 131.593 104.648C132.052 104.101 132.393 103.465 132.596 102.781C133.215 101.129 132.487 99.8859 131.448 99.5403Z" fill="#191919"/>
<path d="M109.652 107.171C109.61 107.102 109.552 107.044 109.484 107.001C109.415 106.959 109.337 106.934 109.256 106.927C109.176 106.921 109.095 106.934 109.021 106.965C108.946 106.997 108.88 107.045 108.828 107.107C108.667 107.267 108.554 107.468 108.502 107.689C108.449 107.909 108.46 108.14 108.531 108.355C108.551 108.426 108.586 108.493 108.635 108.548C108.684 108.604 108.746 108.647 108.814 108.675C108.883 108.703 108.957 108.714 109.031 108.709C109.105 108.703 109.176 108.681 109.24 108.643C109.478 108.491 109.651 108.257 109.727 107.986C109.803 107.714 109.776 107.424 109.652 107.171Z" fill="#191919"/>
<path d="M113.195 107.637C113.153 107.567 113.095 107.509 113.027 107.467C112.958 107.424 112.88 107.398 112.799 107.392C112.719 107.386 112.638 107.399 112.563 107.43C112.489 107.462 112.423 107.51 112.371 107.573C112.21 107.732 112.097 107.934 112.044 108.154C111.992 108.375 112.003 108.606 112.075 108.821C112.094 108.892 112.13 108.958 112.179 109.013C112.228 109.069 112.289 109.112 112.358 109.14C112.426 109.168 112.5 109.179 112.574 109.174C112.648 109.169 112.719 109.146 112.783 109.109C113.019 108.956 113.192 108.722 113.268 108.451C113.344 108.18 113.318 107.89 113.195 107.637Z" fill="#191919"/>
<path d="M110.464 107.998C109.971 108.583 109.567 109.238 109.267 109.941C108.901 110.648 108.62 111.396 108.43 112.168C108.112 113.855 110.285 113.548 111.249 113.147C111.649 112.981 111.416 112.387 111.043 112.387C110.435 112.387 109.724 112.616 109.498 112.503C109.37 112.593 109.345 112.542 109.408 112.374C109.447 112.271 109.473 112.143 109.511 112.04C110.392 109.609 110.626 109.34 110.914 108.268C110.983 108.013 110.646 107.795 110.464 107.998Z" fill="#191919"/>
<path d="M120.799 102.592C119.493 99.1093 115.903 97.7202 112.342 98.3182C110.48 98.5413 108.752 99.4007 107.451 100.751C107.36 100.725 107.371 100.853 107.451 100.751L107.438 100.789C107.399 100.777 107.386 100.789 107.36 100.829C107.09 101.317 106.78 102.002 107.193 102.502C107.642 103.044 108.482 102.827 109.06 102.682C110.83 102.236 112.566 101.146 115.045 101.845C117.501 102.541 118.789 104.586 119.434 107.046C119.617 107.742 119.645 108.685 120.388 108.938C120.459 108.96 120.535 108.967 120.61 108.958C120.684 108.95 120.757 108.926 120.822 108.889C120.887 108.851 120.944 108.801 120.988 108.741C121.033 108.68 121.065 108.612 121.083 108.538C121.432 106.56 121.336 104.528 120.799 102.592Z" fill="#FFB500"/>
<path d="M111.482 125.696C111.825 126.633 113.041 127.12 113.928 127.383C115.012 127.667 116.128 127.809 117.249 127.807C118.491 127.893 119.739 127.73 120.917 127.327C121.768 126.994 123.007 126.336 123.132 125.332C123.148 125.258 123.143 125.18 123.117 125.109C123.091 125.037 123.044 124.975 122.984 124.929C122.923 124.883 122.851 124.855 122.775 124.849C122.699 124.843 122.623 124.859 122.556 124.894C121.64 125.438 121.308 126.869 117.137 126.71C113.119 126.555 112.759 125.608 111.782 125.366C111.737 125.353 111.69 125.353 111.645 125.366C111.601 125.378 111.56 125.403 111.529 125.438C111.498 125.472 111.477 125.514 111.469 125.56C111.461 125.606 111.465 125.653 111.482 125.696Z" fill="#191919"/>
<path d="M111.07 125.763C107.76 126.145 104.495 126.857 101.325 127.887C99.1291 128.542 97.0769 129.608 95.2774 131.027C95.0289 131.246 94.8161 131.503 94.6467 131.788C94.4625 132.098 94.3774 132.457 94.4029 132.817C94.4053 132.886 94.4274 132.952 94.4665 133.009C94.5055 133.066 94.56 133.111 94.6235 133.138C94.6869 133.165 94.7568 133.173 94.8248 133.162C94.8929 133.15 94.9563 133.12 95.0077 133.074C95.4224 132.627 95.8429 132.108 96.295 131.71C98.0718 130.409 100.062 129.429 102.177 128.814C105.125 127.875 108.24 127.398 111.137 126.329C111.416 126.2 111.403 125.739 111.07 125.763Z" fill="#191919"/>
<path d="M123.699 125.734C124.834 126.365 126.057 126.821 127.329 127.085C127.87 127.262 128.421 127.411 128.95 127.627C129.426 127.926 129.948 128.143 130.495 128.27C130.548 128.27 130.6 128.257 130.647 128.234C130.694 128.21 130.735 128.175 130.767 128.133C130.798 128.09 130.819 128.041 130.828 127.988C130.837 127.936 130.833 127.883 130.817 127.832C130.576 126.781 128.801 126.386 127.921 126.133C125.425 125.412 124.708 125.122 123.854 125.155C123.786 125.157 123.722 125.181 123.669 125.223C123.616 125.264 123.579 125.322 123.561 125.387C123.544 125.452 123.548 125.521 123.573 125.583C123.598 125.645 123.642 125.698 123.699 125.734Z" fill="#191919"/>
<path d="M63.1827 102.052C62.0247 101.124 61.1249 99.9135 60.5696 98.5373C60.4675 98.0908 60.3344 97.6519 60.1712 97.224C60.146 97.1858 60.1107 97.1555 60.0692 97.1362C60.0277 97.117 59.9817 97.1096 59.9363 97.115C59.8909 97.1204 59.8479 97.1383 59.8121 97.1667C59.7762 97.1951 59.749 97.2329 59.7334 97.2758C59.5881 98.0932 59.7195 98.9358 60.1068 99.6701C60.423 100.406 60.8579 101.084 61.3942 101.678C62.0426 102.367 62.768 102.979 63.5561 103.502C63.6598 103.567 63.6598 103.618 63.5177 103.682C63.415 103.874 63.0569 104.084 62.887 104.223C62.5318 104.511 62.0336 104.75 61.9472 105.24C61.9274 105.32 61.9391 105.404 61.9799 105.476C62.0206 105.547 62.0873 105.6 62.166 105.624C62.6556 105.702 62.9648 105.406 63.3507 105.109C63.8266 104.828 64.2352 104.445 64.5478 103.989C64.9904 103.044 63.7606 102.517 63.1827 102.052Z" fill="#191919"/>
<path d="M59.889 108.744C59.8228 108.872 59.7076 109.141 59.5674 109.195C59.3466 109.28 59.1422 109.003 59.0394 108.86C58.7514 108.423 58.7649 107.851 58.473 107.431C58.377 107.288 58.0967 107.239 58.0094 107.431C57.863 107.892 57.8858 108.389 58.0737 108.835C58.1829 109.294 58.452 109.7 58.833 109.98C59.02 110.104 59.2362 110.176 59.4601 110.19C59.6839 110.203 59.9073 110.158 60.1079 110.058C60.291 109.942 60.4429 109.784 60.5505 109.596C60.6582 109.408 60.7181 109.197 60.7252 108.98C60.7838 108.524 60.0897 108.355 59.889 108.744Z" fill="#191919"/>
<path d="M56.9155 99.0651C56.7673 99.1029 56.6351 99.187 56.5379 99.3051C56.4408 99.4231 56.3837 99.569 56.375 99.7217C56.4559 100.105 56.6281 100.462 56.8771 100.764C57.2611 101.133 57.8812 100.987 57.8812 100.12C57.8812 99.6055 57.5347 98.9268 56.9155 99.0651Z" fill="#191919"/>
<path d="M48.6525 105.926C48.6141 105.862 48.5528 105.816 48.4813 105.797C48.4098 105.778 48.3336 105.787 48.2685 105.822C47.8154 106.076 47.729 106.57 47.4189 106.942C47.0805 107.357 46.5976 107.629 46.0672 107.702C45.4744 107.685 44.8962 107.514 44.3886 107.207C43.8811 106.901 43.4616 106.468 43.1709 105.951C41.8615 103.679 44.0522 100.348 45.7456 101.678C45.8133 101.747 45.9039 101.788 46.0002 101.795C46.0965 101.801 46.1918 101.772 46.268 101.713C46.3442 101.653 46.396 101.568 46.4135 101.473C46.431 101.378 46.413 101.28 46.3629 101.198C46.1777 100.905 45.9111 100.672 45.5957 100.528C45.2802 100.384 44.9296 100.335 44.5869 100.388C42.7264 100.587 40.9312 103.556 42.064 106.128C42.4116 106.887 42.9622 107.535 43.6549 108.001C44.3476 108.467 45.1555 108.732 45.9895 108.767C46.7472 108.724 47.4627 108.404 48.0007 107.869C48.4749 107.396 49.1066 106.581 48.6525 105.926Z" fill="#191919"/>
<path d="M46.5148 109.064C47.237 111.257 47.4343 113.589 47.0908 115.873C46.8748 116.99 46.5378 117.025 46.5494 117.676C46.5503 117.727 46.5629 117.778 46.5861 117.823C46.6094 117.869 46.6428 117.909 46.6838 117.94C46.7247 117.971 46.7722 117.992 46.8226 118.002C46.873 118.012 46.925 118.011 46.9746 117.997C47.735 117.901 47.9654 116.98 48.1074 116.337C48.6742 113.787 48.3041 111.119 47.0649 108.82C47.0238 108.762 46.9641 108.721 46.8959 108.702C46.8277 108.684 46.7551 108.689 46.6905 108.718C46.6259 108.746 46.5731 108.796 46.5411 108.859C46.5091 108.923 46.4998 108.995 46.5148 109.064Z" fill="#191919"/>
<path d="M44.6218 91.6211C44.8225 91.3373 44.9054 90.9866 44.8531 90.6429C44.83 90.5637 44.7771 90.4966 44.7054 90.4558C44.6338 90.4149 44.549 90.4035 44.4691 90.424C43.7866 90.5248 43.4832 91.6999 43.3104 92.2778C42.6436 94.9484 42.9829 97.7709 44.2637 100.207C44.4154 100.495 44.8013 100.285 44.7523 100.002C44.2742 97.2247 43.2538 94.6355 44.6218 91.6211Z" fill="#191919"/>
<path d="M51.7662 85.0205C50.9228 85.4147 50.2119 86.0449 49.7194 86.8349C47.9242 89.0429 46.3518 91.9335 46.4756 94.778C46.49 95.0996 46.9892 95.2023 47.0516 94.8548C47.524 92.1399 48.7165 89.6017 50.5047 87.505C51.1674 86.8987 51.7092 86.1723 52.1012 85.3642C52.1146 85.3174 52.1154 85.2678 52.1035 85.2206C52.0915 85.1733 52.0674 85.1301 52.0333 85.0952C51.9993 85.0603 51.9567 85.035 51.9098 85.0219C51.8629 85.0088 51.8133 85.0083 51.7662 85.0205Z" fill="#191919"/>
<path d="M58.4078 82.8708C58.4063 82.8244 58.3945 82.779 58.3734 82.7378C58.3522 82.6965 58.3223 82.6604 58.2856 82.6321C58.2489 82.6038 58.2064 82.5839 58.1612 82.5739C58.1159 82.5638 58.069 82.5639 58.0238 82.5741C57.4267 82.7661 57.5025 83.1357 56.2958 84.3895C54.5044 86.2548 52.2792 87.7956 51.6744 90.4135C51.612 90.6842 52.0238 90.8935 52.1544 90.6055C53.7201 87.0948 58.6065 84.4749 58.4078 82.8708Z" fill="#191919"/>
<path d="M61.009 85.6127C61.4564 85.2029 61.7402 84.645 61.8078 84.0421C61.7972 83.8501 61.6004 83.6408 61.3959 83.7205C60.6481 84.0085 60.6385 84.572 58.9498 86.3845C58.0927 87.3277 57.1583 88.1976 56.1562 88.9851C55.9009 89.1771 56.2206 89.5506 56.4788 89.4095C58.2314 88.4651 59.7729 87.1732 61.009 85.6127Z" fill="#191919"/>
<path d="M63.4417 87.6698C63.747 87.255 64.1847 86.7309 64.0465 86.1894C64.0373 86.1534 64.0208 86.1196 63.998 86.0902C63.9753 86.0608 63.9467 86.0364 63.9142 86.0184C63.8816 86.0004 63.8457 85.9893 63.8087 85.9857C63.7717 85.9821 63.7344 85.9861 63.699 85.9974C63.2353 86.1002 62.9876 86.5869 62.7332 86.9498C61.7156 88.3494 60.5455 89.6315 59.2446 90.7725C59.0026 90.9818 59.307 91.361 59.5671 91.1978C61.0866 90.2995 62.4054 89.0987 63.4417 87.6698Z" fill="#191919"/>
<path d="M65.3752 90.0789C65.7006 89.6834 66.0981 89.165 65.9032 88.6389C65.8867 88.5861 65.8514 88.5412 65.804 88.5127C65.7565 88.4842 65.7003 88.4741 65.6459 88.4844C64.9202 88.6572 64.924 89.4713 63.3544 90.7106C62.3269 91.4692 61.2521 92.1615 60.1365 92.7833C59.8936 92.9292 60.0472 93.3391 60.3285 93.247C62.2888 92.7175 64.0462 91.6143 65.3752 90.0789Z" fill="#191919"/>
<path d="M66.4549 89.927C66.4244 89.8718 66.3757 89.8287 66.3172 89.8051C66.2586 89.7814 66.1937 89.7788 66.1333 89.7974C65.6188 89.9779 65.3903 90.6365 65.1426 91.0723C64.8125 91.627 64.4241 92.1449 63.9839 92.617C63.1011 93.5515 62.0703 94.3341 60.933 94.9334C60.8761 94.9683 60.8336 95.0225 60.8136 95.0862C60.7935 95.1498 60.7971 95.2186 60.8238 95.2798C60.8505 95.341 60.8984 95.3905 60.9587 95.4191C61.019 95.4477 61.0876 95.4535 61.1519 95.4355C63.1657 94.7931 64.8829 93.4506 65.9922 91.6512C66.2735 91.1818 66.7208 90.4877 66.4549 89.927Z" fill="#191919"/>
<path d="M43.9014 140.977C44.2931 142.399 44.8777 143.771 45.3692 145.174C46.2745 147.76 46.3676 148.534 46.9139 149.099C46.9478 149.133 46.99 149.158 47.0364 149.171C47.0828 149.184 47.1317 149.185 47.1784 149.173C47.2251 149.162 47.268 149.138 47.3029 149.105C47.3378 149.072 47.3635 149.03 47.3776 148.984C47.4372 148.304 47.3311 147.619 47.0684 146.988C46.4201 144.825 45.5441 142.737 44.4553 140.758C44.421 140.692 44.3636 140.642 44.2944 140.616C44.2251 140.591 44.1488 140.591 44.0801 140.619C44.0114 140.646 43.9551 140.697 43.9221 140.763C43.8891 140.83 43.8818 140.906 43.9014 140.977Z" fill="#191919"/>
<path d="M57.3032 119.814C57.2128 119.835 57.1262 119.87 57.046 119.917C57.1785 119.508 57.1829 119.068 57.0584 118.656C56.6629 115.985 56.9701 114.313 56.7109 113.568C56.6988 113.527 56.6751 113.49 56.6426 113.463C56.6101 113.435 56.5702 113.417 56.5279 113.412C56.4855 113.407 56.4425 113.414 56.4041 113.432C56.3657 113.451 56.3335 113.48 56.3116 113.517C56.104 113.974 55.9945 114.469 55.99 114.971C55.8997 116.174 55.9341 117.384 56.0927 118.58C56.1589 119.082 56.1445 119.674 56.5727 120.02C56.6144 120.055 56.6627 120.081 56.7148 120.098C56.4575 120.239 56.2242 120.386 55.9554 120.522C54.3595 121.154 52.6003 121.244 50.948 120.779C47.9461 120.072 46.8085 118.135 45.5932 116.814C45.5512 116.776 45.4981 116.753 45.4417 116.747C45.3853 116.741 45.3285 116.753 45.2796 116.782C45.2307 116.811 45.1923 116.854 45.17 116.907C45.1476 116.959 45.1425 117.017 45.1554 117.072C45.646 118.935 47.878 121.2 50.8453 121.86C52.1178 122.167 53.437 122.228 54.7324 122.041C55.8018 121.865 57.3416 121.409 57.7189 120.265C57.7378 120.205 57.7406 120.142 57.7271 120.081C57.7136 120.02 57.6842 119.964 57.642 119.919C57.5998 119.873 57.5462 119.839 57.4868 119.82C57.4273 119.802 57.3639 119.8 57.3032 119.814Z" fill="#191919"/>
<path d="M44.0442 117.082C42.5055 117.183 40.9951 117.544 39.5774 118.151C30.3854 121.392 25.787 127.588 24.9671 133.559C24.0014 140.597 27.1338 149.494 30.2702 152.919C30.5658 153.24 31.0276 152.83 30.8462 152.468C29.3119 149.83 28.0688 147.033 27.1386 144.127C26.2621 141.198 25.8706 138.146 25.9799 135.091C26.2497 129.285 30.0494 124.461 34.8878 121.535C38.9774 119.063 42.9854 118.302 44.1815 117.61C44.2357 117.579 44.2783 117.532 44.3026 117.474C44.3269 117.417 44.3316 117.353 44.3159 117.293C44.3002 117.233 44.2651 117.18 44.216 117.141C44.1669 117.103 44.1065 117.082 44.0442 117.082Z" fill="#191919"/>
<path d="M64.6276 120.536C64.4932 120.022 63.8932 119.74 63.4439 119.531C61.7863 118.74 59.9367 118.44 58.114 118.667C58.0582 118.685 58.0095 118.721 57.975 118.768C57.9405 118.816 57.9219 118.873 57.9219 118.931C57.9219 118.99 57.9405 119.047 57.975 119.095C58.0095 119.142 58.0582 119.177 58.114 119.195C59.7727 119.426 61.3952 119.867 62.9419 120.509C63.3796 120.701 63.923 121.035 64.4222 120.881C64.4939 120.861 64.5551 120.813 64.5933 120.749C64.6314 120.685 64.6437 120.609 64.6276 120.536Z" fill="#191919"/>
<path d="M96.114 82.6737C95.4688 80.7067 93.2849 80.5703 92.4967 82.4299C91.817 84.0321 92.7664 85.5297 94.6596 90.4363C94.6661 90.4625 94.6789 90.4868 94.6967 90.5071C94.7145 90.5275 94.7368 90.5434 94.762 90.5534C94.7871 90.5634 94.8142 90.5673 94.8411 90.5648C94.8681 90.5623 94.894 90.5535 94.9169 90.539C96.2093 89.6554 97.3705 88.5937 98.3661 87.3854C99.2061 86.3294 100.286 84.9393 100.31 83.5233C100.354 81.2155 97.3898 80.7028 96.114 82.6737Z" fill="#FFB500"/>
<path d="M118.624 68.7754C118.954 68.8452 119.292 68.8713 119.629 68.8532C119.775 68.8532 119.916 68.7948 120.02 68.691C120.124 68.5871 120.183 68.4462 120.183 68.2993C120.183 68.1524 120.124 68.0115 120.02 67.9076C119.916 67.8037 119.775 67.7454 119.629 67.7454C119.292 67.7171 118.953 67.7434 118.624 67.8231C118.524 67.8555 118.436 67.9191 118.373 68.0047C118.311 68.0902 118.277 68.1934 118.277 68.2993C118.277 68.4052 118.311 68.5083 118.373 68.5939C118.436 68.6795 118.524 68.743 118.624 68.7754Z" fill="#191919"/>
<path d="M119.657 73.2783C119.321 73.254 118.982 73.2802 118.653 73.356C118.55 73.3863 118.46 73.449 118.396 73.5348C118.332 73.6207 118.297 73.725 118.297 73.8322C118.297 73.9394 118.332 74.0437 118.396 74.1296C118.46 74.2154 118.55 74.2781 118.653 74.3084C118.983 74.3797 119.321 74.4055 119.657 74.3852C119.804 74.3839 119.944 74.3253 120.047 74.2219C120.151 74.1185 120.21 73.9786 120.211 73.8322C120.212 73.7593 120.198 73.6871 120.17 73.6196C120.142 73.5522 120.102 73.4909 120.05 73.4394C119.999 73.3878 119.937 73.3471 119.87 73.3194C119.802 73.2918 119.73 73.2778 119.657 73.2783Z" fill="#191919"/>
<path d="M122.245 65.3639C122.193 65.3364 122.133 65.3263 122.075 65.3352C122.017 65.344 121.963 65.3713 121.921 65.413C121.879 65.4547 121.852 65.5087 121.843 65.5671C121.834 65.6254 121.844 65.6851 121.872 65.7373C122.475 66.5547 122.98 67.4402 123.377 68.3754C124.06 70.519 123.964 72.8348 123.107 74.9149C122.441 76.7447 121.794 77.2304 122.103 77.8496C122.121 77.8813 122.148 77.9075 122.179 77.9256C122.211 77.9437 122.247 77.9529 122.284 77.9523C122.824 77.9139 123.069 77.3091 123.288 76.8714C124.194 75.151 124.712 73.2531 124.806 71.3111C124.85 69.2768 124.149 66.4515 122.245 65.3639Z" fill="#191919"/>
<path d="M97.2478 45.6442C90.6085 33.2928 73.4254 32.7802 64.3976 38.834C57.7506 43.2932 54.909 51.3466 55.052 59.0823C55.219 68.0592 61.6645 75.3188 69.3022 76.5888C70.3707 76.7664 71.4517 76.8461 72.5326 76.9239C72.6642 78.2381 74.4238 80.9271 77.2059 82.3556C77.8357 82.6791 78.7755 83.2436 79.4965 82.896C80.133 82.896 79.7144 81.5338 79.6885 81.2103C79.5397 79.2653 79.939 77.7389 79.869 76.2673C84.4325 76.1908 88.8101 74.4461 92.1752 71.3626C95.6149 68.2906 97.6894 63.7949 98.8174 59.4048C100.046 54.784 99.4857 49.8696 97.2478 45.6442ZM98.2232 55.2202C97.818 59.7903 96.2241 64.1749 93.5998 67.9383C90.3301 72.4215 84.9291 74.8781 79.4014 75.289C79.3049 75.2933 79.2117 75.3257 79.1334 75.3824C79.0551 75.4391 78.9951 75.5175 78.9609 75.6079C78.9266 75.6983 78.9197 75.7968 78.9408 75.8911C78.962 75.9854 79.0103 76.0715 79.0798 76.1386C78.6362 77.9523 78.4714 79.8231 78.5912 81.6864C78.3098 81.5923 78.0347 81.4804 77.7675 81.3514C75.8758 80.2906 74.333 78.703 73.3266 76.7818C73.3543 76.7393 73.3713 76.6908 73.3764 76.6404C73.3814 76.5899 73.3741 76.539 73.3553 76.4919C73.3365 76.4448 73.3066 76.403 73.2682 76.3699C73.2297 76.3368 73.1839 76.3134 73.1346 76.3018C70.8414 76.0904 68.5871 75.5722 66.4318 74.761C63.8258 73.6058 61.5431 71.8289 59.7836 69.5861C58.0242 67.3433 56.8419 64.7031 56.3403 61.897C55.7793 57.7662 56.1892 53.5614 57.5374 49.6167C59.9634 42.722 65.277 37.9479 73.5118 36.6029C77.5102 35.9387 81.6082 36.2118 85.483 37.4007C89.2552 38.5819 92.5396 40.9605 94.8386 44.176C97.1375 47.3915 98.3258 51.2687 98.2232 55.2202Z" fill="#191919"/>
<path d="M67.1653 55.6978C66.9023 55.8803 66.6881 56.1245 66.5414 56.409C66.3948 56.6936 66.3203 57.0098 66.3244 57.3298C66.3382 57.7756 66.5183 58.2 66.8291 58.5198C67.14 58.8395 67.5592 59.0314 68.0044 59.0578C68.3775 59.0405 68.7323 58.8908 69.005 58.6355C69.2778 58.3802 69.4505 58.0361 69.4924 57.6649C69.7573 55.9762 68.2348 55.0258 67.1653 55.6978Z" fill="#FFB500"/>
<path d="M75.7503 55.7099C75.4813 55.8897 75.262 56.1343 75.1125 56.4212C74.963 56.7081 74.8882 57.0281 74.895 57.3515C74.9086 57.7975 75.0887 58.2222 75.3998 58.542C75.7109 58.8618 76.1305 59.0536 76.5759 59.0795C76.949 59.0624 77.3038 58.9127 77.5764 58.6574C77.849 58.402 78.0215 58.0578 78.063 57.6866C78.325 56.0142 76.8495 55.0686 75.7503 55.7099Z" fill="#FFB500"/>
<path d="M85.5061 55.8969C85.2788 55.6014 84.9507 55.4 84.5843 55.331C84.218 55.2619 83.8391 55.3301 83.5198 55.5225C83.2572 55.7052 83.0432 55.9495 82.8968 56.234C82.7504 56.5185 82.6759 56.8345 82.6798 57.1545C82.6932 57.6004 82.8731 58.0251 83.1841 58.3449C83.4951 58.6647 83.9145 58.8565 84.3598 58.8825C85.8296 58.8882 86.3038 56.8809 85.5061 55.8969Z" fill="#FFB500"/>
<path d="M31.3142 40.2358C31.1146 39.7107 30.9619 38.8717 30.3744 38.6653C30.3156 38.6485 30.2534 38.648 30.1944 38.6639C30.1354 38.6798 30.0818 38.7115 30.0394 38.7555C29.5795 39.2864 29.9962 40.1734 30.2198 40.7379C30.8227 42.2576 32.8061 45.8557 34.0598 45.9507C34.1449 45.9499 34.2263 45.9158 34.2864 45.8557C34.3466 45.7955 34.3807 45.7142 34.3814 45.6291C34.3536 44.4665 32.9741 44.6163 31.3142 40.2358Z" fill="#191919"/>
<path d="M42.0217 34.0318C41.6898 34.6667 41.4937 35.3637 41.4457 36.0785C41.1903 37.865 41.0703 40.9668 41.7337 42.6689C41.7564 42.7478 41.8068 42.816 41.8756 42.8609C41.9444 42.9059 42.0271 42.9246 42.1086 42.9136C42.19 42.9027 42.2648 42.8628 42.3194 42.8013C42.3739 42.7399 42.4045 42.6608 42.4057 42.5786C42.6073 40.3639 42.1417 40.0654 42.5737 36.1812C42.6973 35.4977 42.7318 34.801 42.6764 34.1086C42.6005 33.8004 42.1647 33.8014 42.0217 34.0318Z" fill="#191919"/>
<path d="M55.4489 30.1575C55.4258 29.9251 55.2031 29.6515 54.9334 29.7581C54.3382 29.9952 54.1039 30.5731 53.814 31.0973C52.8254 32.7827 52.0309 34.5746 51.4457 36.4387C51.4288 36.5115 51.4382 36.5879 51.4721 36.6545C51.506 36.7211 51.5622 36.7736 51.631 36.8028C51.6997 36.832 51.7766 36.8361 51.848 36.8143C51.9195 36.7925 51.981 36.7462 52.0217 36.6835C53.2198 34.6675 53.5951 33.841 54.7769 31.7664C55.0505 31.2903 55.5074 30.7488 55.4489 30.1575Z" fill="#191919"/>
<path d="M151.619 87.4C150.874 87.2437 150.114 87.1748 149.353 87.1945C147.827 87.1177 145.099 86.8941 143.342 86.6925C144.373 85.168 146.342 81.8243 146.547 80.3459C146.59 80.0377 146.187 79.6643 145.93 79.9984C145.211 81.1029 144.57 82.2558 144.01 83.4486C143.334 84.6261 142.599 85.7689 141.808 86.8729C141.525 87.2713 141.911 87.6937 142.297 87.7369C143.588 87.8761 150.315 88.623 151.591 88.3293C151.692 88.3026 151.782 88.2439 151.847 88.1621C151.912 88.0802 151.949 87.9795 151.952 87.875C151.955 87.7705 151.924 87.6678 151.864 87.5822C151.804 87.4966 151.718 87.4327 151.619 87.4Z" fill="#191919"/>
<path d="M187.573 72.5213C187.452 64.8749 183.67 56.858 176.629 53.3415C168.527 49.2941 155.071 50.3425 149.018 58.1818C144.553 63.9629 143.893 75.1873 145.967 79.0349C146.188 79.4449 146.802 79.1511 146.701 78.7258C145.879 75.0571 145.818 71.2591 146.52 67.5658C147.243 63.4849 148.724 59.5873 151.927 56.8138C157.441 52.0455 166.813 51.1498 173.514 53.3261C180.849 55.7089 185.109 62.2013 186.206 69.7642C186.824 74.0305 186.124 77.4865 184.7 81.5549C183.319 85.4986 181.458 88.3402 177.478 90.6557C171.982 93.7444 165.492 94.5531 159.405 92.9079C156.772 92.2871 154.37 90.93 152.48 88.9949C152.207 88.7415 151.673 89.0909 151.927 89.4202C158.344 97.6263 178.176 96.5242 184.249 85.4295C186.335 81.4395 187.472 77.0224 187.573 72.5213Z" fill="#191919"/>
<path d="M177.245 66.9061C176.438 66.6503 175.596 66.5243 174.749 66.5327C173.874 66.4866 158.311 65.9922 157.874 65.9922C157.399 66.0145 156.926 66.0661 156.458 66.1468C156.085 66.19 155.916 66.7659 156.355 66.8677C157.855 67.2133 156.235 67.1394 174.646 67.82C175.517 67.8945 176.395 67.8297 177.246 67.628C177.321 67.601 177.385 67.5519 177.43 67.4872C177.475 67.4226 177.499 67.3456 177.499 67.2667C177.499 67.1879 177.474 67.1109 177.429 67.0464C177.384 66.9819 177.32 66.9329 177.245 66.9061Z" fill="#191919"/>
<path d="M176.318 73.1263C175.536 72.9246 174.73 72.8337 173.923 72.8565C172.928 72.8018 162.289 72.2258 159.331 72.2258C158.504 72.1738 157.673 72.23 156.859 72.3929C156.789 72.4146 156.728 72.4581 156.684 72.5172C156.641 72.5763 156.617 72.6478 156.617 72.7212C156.617 72.7946 156.641 72.8661 156.684 72.9251C156.728 72.9842 156.789 73.0278 156.859 73.0495C157.631 73.2345 158.422 73.321 159.215 73.3068C176.178 74.1151 175.382 74.2581 176.322 74.0661C176.82 73.9634 176.745 73.2761 176.318 73.1263Z" fill="#191919"/>
<path d="M175.455 78.3779C173.913 78.1086 172.349 77.9836 170.783 78.0045C169.235 77.9352 167.685 77.8837 166.136 77.8499C163.04 77.6983 159.937 77.7843 156.854 78.1072C156.456 78.16 156.597 78.7418 156.945 78.7792C160.728 79.1565 163.465 78.8234 170.667 79.1911C172.21 79.3606 173.763 79.4206 175.314 79.3706C175.855 79.3159 176.048 78.52 175.455 78.3779Z" fill="#191919"/>
<path d="M131.136 42.5679C129.718 42.1688 128.24 42.0293 126.772 42.1561C125.555 39.4057 125.677 37.2601 126.388 34.3935C126.63 33.6718 126.752 32.9151 126.749 32.1538C126.708 31.8362 126.594 31.5324 126.415 31.2665C126.237 31.0006 125.999 30.7798 125.72 30.6215C125.442 30.4633 125.131 30.3719 124.811 30.3546C124.491 30.3373 124.171 30.3945 123.878 30.5218C122.546 31.1398 121.502 32.2447 120.96 33.6092C120.371 34.9763 120.023 36.4349 119.93 37.9205C118.609 37.6854 117.265 37.6164 115.927 37.7151C114.54 37.7261 113.176 38.0705 111.95 38.7193C110.216 39.8194 109.698 42.109 111.46 43.3791C111.063 43.611 110.754 43.9681 110.582 44.3944C110.409 44.8208 110.383 45.2922 110.508 45.7349C110.637 46.0877 110.846 46.4058 111.119 46.6647C111.391 46.9235 111.719 47.1162 112.078 47.2277C111.839 47.3606 111.657 47.5776 111.568 47.8367C111.48 48.0958 111.49 48.3786 111.598 48.6303C111.902 49.4569 112.654 49.6479 113.439 49.7631C113.306 49.9287 113.227 50.1303 113.211 50.3415C113.195 50.5528 113.243 50.764 113.348 50.9477C113.98 52.0748 115.871 52.286 117.017 52.4405C118.46 52.6588 119.93 52.611 121.355 52.2994C121.883 52.2221 122.373 51.9781 122.752 51.603C123.132 51.228 123.383 50.7415 123.467 50.2143C125.033 49.9263 125.333 49.9186 125.449 49.6863C125.706 50.3045 126.505 50.4322 127.162 50.5743C127.646 50.6725 128.136 50.7367 128.629 50.7663C129.067 50.8504 129.52 50.8013 129.929 50.6252C130.634 50.2085 130.643 49.094 130.766 48.398C130.958 47.3314 131.116 46.2447 131.319 45.1666C131.457 44.4313 132.015 43.0133 131.136 42.5679ZM111.744 45.7858C111.131 45.1138 111.677 43.9042 112.98 44.0357C114.908 44.2277 116.385 44.6117 118.567 44.1001C118.682 44.0607 118.824 44.0357 118.939 43.9964C119.289 44.1033 119.617 44.2735 119.905 44.4985C119.966 44.5432 120.016 44.5997 120.055 44.6645C120.093 44.7294 120.117 44.8013 120.127 44.8759C120.136 44.9505 120.131 45.0263 120.11 45.0987C120.09 45.1711 120.055 45.2386 120.008 45.2972C119.764 45.6706 119.16 45.7772 118.746 45.9145C117.74 46.2361 116.706 46.4611 115.657 46.5865C115.093 46.6955 114.516 46.7172 113.945 46.6508C113.14 46.595 112.372 46.293 111.744 45.7858ZM112.889 48.541C111.976 47.9986 113.545 47.6981 113.933 47.6137C115.279 47.5534 116.618 47.3813 117.936 47.0991C118.545 46.9857 119.14 46.8088 119.712 46.5711C120.15 46.7631 120.672 47.0338 120.549 47.5753C120.295 48.662 116.108 49.3839 115.026 48.9788C114.297 48.9193 113.578 48.7723 112.885 48.541H112.889ZM117.977 51.517C117.03 51.4544 116.095 51.2729 115.193 50.9765C114.961 50.8997 114.296 50.7183 114.254 50.4361C114.218 50.2037 114.734 49.9983 114.884 49.9983C117.015 49.9983 118.532 50.0127 120.419 48.9817C120.774 49.2025 121.853 48.9404 122.479 49.6633C122.453 49.7471 122.453 49.8368 122.479 49.9205C122.874 51.733 118.944 51.5794 117.97 51.5141L117.977 51.517ZM125.379 49.0585C125.318 48.9948 125.242 48.9473 125.159 48.9203C125.075 48.8933 124.986 48.8877 124.899 48.9039C124.268 49.0201 123.624 49.1353 122.979 49.2514C122.857 48.9537 122.639 48.7049 122.361 48.5439C122.019 48.3555 121.642 48.2373 121.254 48.1964C121.654 47.5753 121.559 46.7228 120.623 45.9817C120.818 45.7971 120.958 45.5627 121.028 45.3041C121.098 45.0454 121.097 44.7724 121.023 44.5148C120.942 44.2774 120.813 44.059 120.645 43.873C120.477 43.687 120.272 43.5372 120.044 43.4329C120.083 43.3945 120.109 43.382 120.147 43.3436C121.203 42.2972 120.093 41.0559 119.079 40.5884C117.856 39.949 116.431 39.8195 115.114 40.2284C114.676 40.4204 114.933 41.0655 115.345 41.078C116.33 40.9226 117.338 41.0109 118.281 41.3353C118.692 41.4898 119.319 41.7365 119.516 42.1714C119.78 42.7541 118.899 42.9605 118.525 43.0729C116.726 43.4414 114.87 43.4194 113.08 43.0085C112.183 42.7205 111.227 42.1589 111.42 41.078C111.55 40.6046 111.807 40.1757 112.163 39.8374C112.52 39.4992 112.961 39.2643 113.44 39.158C115.657 38.5399 117.991 38.4779 120.237 38.9775C120.311 38.9958 120.388 38.9972 120.462 38.9818C120.537 38.9664 120.607 38.9345 120.667 38.8885C120.728 38.8424 120.777 38.7834 120.812 38.7157C120.847 38.6481 120.866 38.5735 120.868 38.4975C120.877 36.7862 121.278 35.0997 122.039 33.5669C123.495 30.9375 125.406 30.8741 125.837 31.9455C126.295 33.0841 125.215 34.1708 125.064 37.429C124.94 39.2391 125.362 41.0447 126.274 42.613C126.203 42.7705 126.147 42.934 126.107 43.1017C125.541 45.0333 125.294 47.0444 125.376 49.0556L125.379 49.0585ZM130.489 44.6943C130.399 45.1964 129.908 48.0668 129.742 48.9941C129.664 49.4319 129.691 49.7842 129.189 49.8437C128.673 49.8652 128.155 49.8132 127.653 49.6892C127.319 49.6249 126.467 49.5615 126.315 49.2255C126.293 47.3249 126.519 45.4296 126.987 43.5874C127.023 43.4713 127.051 43.1074 127.167 43.0594C127.258 43.0252 127.355 43.012 127.451 43.021C127.739 43.021 130.609 43.3772 130.63 43.3945C130.813 43.55 130.533 44.4687 130.481 44.6914L130.489 44.6943Z" fill="#191919"/>
<path d="M61.5622 107.007C61.776 107.834 61.918 108.678 61.9866 109.53C62.1218 110.261 61.999 111.016 61.639 111.667C60.103 113.779 55.4058 111.605 53.1699 110.263C52.5053 109.92 51.9222 109.437 51.4602 108.849C50.9981 108.26 50.6677 107.579 50.4915 106.852C50.3773 106.234 49.4355 106.492 49.5392 107.11C49.7464 107.963 50.134 108.761 50.6759 109.452C51.2177 110.142 51.9012 110.709 52.6803 111.113C54.3678 112.105 56.1821 112.862 58.0736 113.366C59.5942 113.668 61.5296 113.581 62.5021 112.155C62.9238 111.437 63.1 110.602 63.0042 109.775C62.9361 108.745 62.7754 107.724 62.5242 106.724C62.4754 106.61 62.3868 106.518 62.275 106.466C62.1632 106.413 62.0361 106.404 61.9176 106.439C61.7991 106.473 61.6975 106.551 61.632 106.655C61.5665 106.76 61.5417 106.885 61.5622 107.007Z" fill="#191919"/>
<path d="M169.612 151.993C166.252 147.559 161.815 146.691 158.388 145.712C158.207 145.673 158.054 145.608 157.873 145.557C158.979 145.313 160.026 144.852 160.952 144.2C161.878 143.548 162.664 142.718 163.267 141.759C163.322 141.657 163.344 141.539 163.328 141.423C163.311 141.307 163.258 141.199 163.176 141.116C158.122 136.64 158.437 129.235 158.221 123.031C158.012 117.07 157.011 110.234 151.54 106.76C150.24 105.882 148.727 105.372 147.162 105.283C145.596 105.195 144.035 105.532 142.645 106.257C139.861 103.799 131.007 110.865 132.785 118.281C132.844 118.542 132.958 118.788 133.12 119.001C132.541 120.82 132.174 122.699 132.025 124.601C131.758 126.732 131.867 128.892 132.347 130.985C132.549 131.851 132.923 132.668 133.447 133.387C133.971 134.106 134.635 134.712 135.398 135.169C136.312 135.636 137.334 135.849 138.358 135.787C138.394 137.106 138.265 138.425 137.974 139.713C137.81 140.447 137.572 141.162 137.266 141.849C137.101 142.21 136.76 142.932 137.356 143.085C138.053 143.265 138.425 141.872 138.657 141.193C139.259 139.431 139.426 137.55 139.146 135.709C141.642 135.319 144.671 133.784 145.788 131.581C145.834 131.496 145.848 131.396 145.827 131.301C145.806 131.206 145.752 131.121 145.675 131.063C145.597 131.004 145.501 130.974 145.404 130.98C145.307 130.985 145.215 131.025 145.145 131.093C144.106 132.331 142.81 133.328 141.347 134.014C139.797 134.686 137.755 135.136 136.163 134.387C132.775 132.797 132.874 128.158 133.061 125.003C133.245 122.918 133.559 120.846 134.001 118.799C138.204 114.143 140.217 113.661 140.965 112.582C142.164 116.005 144.36 118.991 147.272 121.155C148.008 121.664 148.815 122.063 149.666 122.339C149.705 122.339 149.743 122.352 149.769 122.339C149.852 122.401 149.93 122.47 150.001 122.545C150.085 122.627 150.192 122.68 150.308 122.696C150.424 122.712 150.542 122.691 150.644 122.635C151.037 122.424 151.491 122.359 151.927 122.451C152.363 122.543 152.752 122.786 153.026 123.137C153.305 123.508 153.489 123.94 153.563 124.398C153.637 124.855 153.598 125.324 153.451 125.763C153.31 126.2 153.077 126.603 152.769 126.943C152.46 127.283 152.083 127.554 151.661 127.737C151.24 127.92 150.784 128.01 150.325 128.003C149.865 127.996 149.413 127.89 148.997 127.694C148.894 127.638 148.776 127.616 148.66 127.633C148.544 127.649 148.436 127.702 148.353 127.785C148.042 128.238 147.828 128.75 147.722 129.29C146.218 134.489 146.393 140.188 146.551 145.239C146.559 145.333 146.59 145.424 146.642 145.503C146.693 145.583 146.763 145.648 146.846 145.694C146.929 145.739 147.022 145.764 147.116 145.766C147.211 145.767 147.304 145.745 147.388 145.702C148.591 146.197 149.885 146.434 151.185 146.397C152.854 146.372 154.519 146.226 156.166 145.96C158.318 147.035 161.83 147.518 164.56 149.062C166.351 150.074 167.889 151.481 169.055 153.177C170.222 154.872 170.987 156.81 171.292 158.845C171.422 159.623 171.529 161.194 171.716 161.716C171.73 161.761 171.756 161.801 171.792 161.831C171.828 161.861 171.872 161.88 171.919 161.885C171.965 161.891 172.012 161.882 172.054 161.861C172.096 161.84 172.131 161.807 172.154 161.767C172.804 160.223 172.425 155.7 169.612 151.993ZM147.369 118.331C147.295 118.376 147.211 118.4 147.125 118.4C147.038 118.4 146.954 118.376 146.88 118.331C145.097 117.212 143.734 115.533 143.006 113.556C142.705 112.951 142.593 112.27 142.684 111.6C142.696 111.557 142.719 111.518 142.751 111.487C142.783 111.456 142.822 111.434 142.866 111.423C142.909 111.412 142.954 111.414 142.997 111.426C143.04 111.439 143.078 111.463 143.108 111.496C143.508 112.115 143.827 112.781 144.061 113.479C144.722 114.846 145.672 116.054 146.845 117.019C147.2 117.318 148.015 117.897 147.369 118.331ZM150.291 107.751C149.732 107.854 149.511 107.385 148.283 107.017C147.515 106.785 146.721 106.831 145.94 106.657C145.906 106.647 145.875 106.627 145.851 106.599C145.828 106.572 145.813 106.538 145.809 106.502C145.805 106.466 145.812 106.43 145.828 106.398C145.845 106.366 145.87 106.339 145.902 106.322C146.705 106.031 147.579 106.004 148.398 106.245C149.016 106.384 150.318 106.708 150.471 107.442C150.484 107.583 150.42 107.738 150.291 107.751Z" fill="#191919"/>
<path d="M94.8999 111.652C95.3435 109.18 95.4299 106.4 94.1406 104.148C93.6354 103.196 92.8663 102.411 91.9256 101.886C90.9849 101.361 89.9127 101.118 88.8375 101.187C86.5211 101.475 84.9975 103.355 83.1611 104.598C78.5454 107.732 73.1329 106.625 69.8382 110.533C66.1902 114.853 66.89 120.997 69.1431 125.797C68.2628 126.191 67.5383 126.867 67.083 127.717C66.7627 128.344 66.6044 129.042 66.6225 129.746C66.6406 130.45 66.8345 131.139 67.1867 131.749C67.594 132.414 68.1558 132.97 68.8243 133.372C69.4929 133.773 70.2484 134.006 71.0267 134.053C71.8419 134.183 72.677 134.094 73.4468 133.796C74.5057 136.545 74.8985 139.506 74.5931 142.436C74.5581 142.666 74.5494 142.899 74.5671 143.132C74.4769 143.041 74.3886 142.963 74.2964 142.873C74.25 142.831 74.1911 142.804 74.1284 142.797C74.0657 142.79 74.0024 142.803 73.9478 142.835C73.8932 142.867 73.8502 142.915 73.825 142.973C73.7998 143.031 73.7937 143.095 73.8078 143.157C74.2427 144.741 75.8814 145.741 77.3214 146.31C80.4189 147.468 83.8226 147.514 86.9502 146.44C88.4075 145.933 90.2439 145.164 91.1463 143.865C91.442 143.44 90.8891 143.053 90.5031 143.221C90.0886 143.417 89.6922 143.65 89.3185 143.916C89.2926 143.22 88.6177 142.989 88.4948 140.3C88.4775 139.926 88.5332 139.54 88.4948 139.179C89.3137 139.076 90.1049 138.815 90.8247 138.411C91.6438 137.873 92.327 137.153 92.8206 136.306C93.3142 135.46 93.6046 134.51 93.6692 133.533C93.775 131.063 93.4155 128.596 92.6094 126.26C91.9373 123.715 91.001 121.247 89.8158 118.896C92.6382 117.086 94.2779 115.124 94.8999 111.652ZM92.6094 131.54C92.7515 132.485 92.6894 133.45 92.4273 134.369C92.1652 135.288 91.709 136.141 91.0897 136.869C89.7255 138.246 87.5118 138.324 85.6839 138.168C83.7268 138.027 81.8735 137.234 80.4193 135.916C80.3639 135.865 80.292 135.835 80.2164 135.831C80.1408 135.827 80.0664 135.851 80.0063 135.897C79.9462 135.943 79.9043 136.008 79.888 136.082C79.8717 136.156 79.8821 136.233 79.9172 136.3C80.3576 137.132 81.0456 137.807 81.8862 138.231C83.6832 139.081 85.6705 139.449 87.6529 139.299C87.3303 140.671 87.4338 142.108 87.9495 143.419C88.0974 143.789 88.2193 144.216 88.5668 144.409C86.9634 145.302 85.1882 145.843 83.3595 145.996C81.5308 146.149 79.6904 145.912 77.9607 145.298C76.9428 144.911 75.9981 144.354 75.1671 143.65C75.8391 143.2 75.8046 142.028 75.8747 141.308C76.1732 138.24 75.2084 134.534 74.33 133.314C74.5235 133.19 74.6842 133.021 74.7985 132.821C74.9128 132.622 74.9773 132.398 74.9867 132.168C74.9861 132.084 74.9634 132.002 74.921 131.929C74.8785 131.857 74.8178 131.797 74.7448 131.755C74.6718 131.713 74.5891 131.691 74.505 131.692C74.4209 131.692 74.3384 131.714 74.2657 131.757C73.4843 132.129 73.2894 133.182 71.0219 132.825C70.4494 132.78 69.8961 132.599 69.4079 132.296C68.9198 131.994 68.5111 131.579 68.2158 131.087C67.9818 130.66 67.8516 130.184 67.8357 129.697C67.8198 129.211 67.9187 128.728 68.1244 128.287C68.33 127.845 68.6367 127.459 69.0195 127.158C69.4023 126.858 69.8505 126.651 70.3278 126.556C71.1671 126.318 72.0623 126.37 72.8683 126.704C73.6743 127.038 74.3439 127.635 74.7687 128.397C75.0635 128.938 76.0436 128.718 75.9793 128.075C75.7275 125.647 76.0906 123.194 77.0353 120.943C82.3499 122.079 85.8788 121.282 89.1611 119.348C89.5585 120.514 92.2455 126.96 92.6094 131.54ZM90.5492 113.557C91.6401 111.989 92.2487 110.137 92.3003 108.228C92.3252 107.636 92.2235 107.043 92.2484 106.451C92.2503 106.383 92.2717 106.317 92.3102 106.262C92.3487 106.206 92.4026 106.162 92.4653 106.137C92.528 106.111 92.5969 106.104 92.6635 106.116C92.7301 106.129 92.7917 106.16 92.8407 106.207C93.8209 107.132 93.5127 109.013 93.3428 110.223C93.156 111.681 92.6024 113.068 91.7339 114.255C91.2116 114.939 90.0222 114.253 90.5492 113.558V113.557Z" fill="#191919"/>
<path d="M21.918 76.4207C22.336 76.485 22.7614 76.485 23.1794 76.4207C23.6369 76.3659 24.0743 76.2012 24.4543 75.9407C24.7971 75.6871 25.0641 75.3447 25.2265 74.9504C25.3888 74.556 25.4403 74.1249 25.3754 73.7034C25.3104 73.282 25.1315 72.8863 24.858 72.5592C24.5845 72.232 24.2268 71.9858 23.8236 71.8472C23.2653 71.684 22.6911 71.5807 22.1109 71.5391C22.1487 73.1687 22.0843 74.7991 21.918 76.4207Z" fill="#FFB500"/>
<path d="M39.1244 86.1127C38.1796 85.6931 37.3462 85.0582 36.6908 84.2589C36.4028 83.9709 35.6348 83.1703 35.3909 82.8429C37.3249 80.0558 38.3325 76.7307 38.2709 73.3389C38.4313 66.4759 33.4316 58.2275 25.5913 56.656C22.0754 56.0511 18.4584 56.5512 15.2386 58.0874C12.0187 59.6236 9.35432 62.1203 7.61238 65.2336C4.84086 70.1939 4.1391 77.2163 7.05942 82.7267C8.70807 85.7506 11.1344 88.2794 14.0876 90.0515C17.8911 91.9888 23.3765 92.0426 26.6252 91.12C28.7727 90.5095 30.1234 89.3517 31.9801 87.568C31.989 87.5799 32.0006 87.5896 32.0139 87.5963C32.0273 87.6029 32.042 87.6064 32.0569 87.6064C33.2717 88.0635 34.5826 88.2052 35.8671 88.0183C36.7561 87.8944 38.6876 87.3463 39.2271 86.68C39.2782 86.6461 39.3182 86.598 39.3423 86.5415C39.3663 86.4851 39.3733 86.4229 39.3624 86.3625C39.3515 86.3022 39.3231 86.2464 39.2808 86.202C39.2385 86.1576 39.1841 86.1265 39.1244 86.1127ZM16.6604 71.3095C16.6888 71.1012 16.7902 70.9098 16.9465 70.7692C17.1028 70.6287 17.3038 70.5482 17.5139 70.5419C17.724 70.5357 17.9295 70.6042 18.0939 70.7353C18.2582 70.8663 18.3707 71.0514 18.4114 71.2576C18.6793 72.8234 16.3983 72.4461 16.6613 71.3095H16.6604ZM17.1404 75.9818C17.2334 75.8321 17.3696 75.7142 17.5311 75.6437C17.6925 75.5732 17.8716 75.5534 18.0446 75.5869C18.2176 75.6204 18.3763 75.7057 18.4997 75.8314C18.6232 75.9571 18.7055 76.1173 18.7359 76.2909C19.0268 77.9776 16.262 77.3805 17.1385 75.9818H17.1404ZM22.8677 77.848C22.0575 77.8903 20.6597 77.8864 20.5513 76.8439C20.515 75.7919 20.5926 74.739 20.7826 73.7037C20.9161 72.6352 21.0601 71.5552 21.2626 70.4723C21.2739 70.4262 21.296 70.3834 21.3272 70.3475C21.3584 70.3116 21.3976 70.2836 21.4418 70.266C21.4859 70.2483 21.5336 70.2415 21.5809 70.246C21.6282 70.2505 21.6738 70.2662 21.7138 70.2919C21.7791 70.2141 22.1612 69.9127 23.4639 70.1891C28.0191 71.1587 28.0105 77.5783 22.8658 77.848H22.8677Z" fill="#FFB500"/>
</svg>
