<svg width="115" height="134" viewBox="0 0 115 134" fill="none" xmlns="http://www.w3.org/2000/svg">
<path d="M57.5162 31.9118C56.5152 36.6209 43.9978 47.369 39.0981 46.3276L25.038 43.339L15.6606 87.456C18.2798 88.7517 24.8163 89.4021 29.7207 90.4446L34.6204 91.4861C42.8697 95.9736 61.5765 103.778 70.4097 99.0933L73.4887 48.7023C71.9948 46.9747 69.9329 42.4473 73.6361 38.1583C77.3394 33.8692 77.0861 24.1163 77.7402 18.8501C78.2499 14.7465 72.6841 10.4598 67.8764 9.43793C63.0687 8.41602 61.6428 11.4031 61.5308 13.0243L57.5162 31.9118Z" fill="white" stroke="black" stroke-width="0.860428"/>
<rect x="101.794" y="54.5779" width="15.2235" height="37.0977" rx="7.61176" transform="rotate(102 101.794 54.5779)" fill="white" stroke="black" stroke-width="0.860428"/>
<rect x="95.6567" y="92.7374" width="14.5802" height="34.5243" rx="7.29008" transform="rotate(102 95.6567 92.7374)" fill="white" stroke="black" stroke-width="0.860428"/>
<rect x="103.525" y="68.1002" width="14.5802" height="45.4614" rx="7.29008" transform="rotate(102 103.525 68.1002)" fill="white" stroke="black" stroke-width="0.860428"/>
<rect x="100.849" y="80.6863" width="14.5802" height="41.6012" rx="7.29008" transform="rotate(102 100.849 80.6863)" fill="white" stroke="black" stroke-width="0.860428"/>
<path d="M38.421 88.6821C43.4759 68.7092 30.3403 52.4336 19.9766 48.5864L17.9701 58.0259C24.5043 60.2918 35.8478 69.8438 31.4592 90.491C27.5801 108.741 41.1987 119.967 49.1253 121.871L50.8642 113.69C50.8642 113.69 33.3661 108.655 38.421 88.6821Z" fill="white" stroke="black" stroke-width="0.860428"/>
<path d="M32.088 90.625C37.1429 70.652 24.0072 54.3765 13.6436 50.5293L11.6371 59.9688C18.1713 62.2346 29.5148 71.7867 25.1262 92.4338C21.2471 110.684 34.8657 121.909 42.7923 123.814L44.5312 115.633C44.5312 115.633 27.0331 110.598 32.088 90.625Z" fill="#FFF6BD" stroke="black" stroke-width="0.860428"/>
</svg>
