<svg width="136" height="136" viewBox="0 0 136 136" fill="none" xmlns="http://www.w3.org/2000/svg">
<path opacity="0.2" d="M19.1393 28.8005C17 31.8484 17 40.9082 17 59.0279V67.9512C17 99.9003 41.0208 115.405 56.0918 121.988C60.1801 123.774 62.2242 124.667 68 124.667C73.7758 124.667 75.8199 123.774 79.9081 121.988C94.9792 115.405 119 99.9003 119 67.9512V59.0279C119 40.9082 119 31.8484 116.861 28.8005C114.721 25.7526 106.203 22.8366 89.1655 17.0047L85.9196 15.8936C77.0384 12.8535 72.5979 11.3335 68 11.3335C63.4021 11.3335 58.9616 12.8535 50.0804 15.8936L46.8345 17.0047L46.8345 17.0047C29.7972 22.8366 21.2785 25.7526 19.1393 28.8005Z" fill="#FFB500"/>
<path d="M85.3371 59.4971C86.9004 57.7462 86.7483 55.0596 84.9974 53.4963C83.2466 51.933 80.5599 52.0851 78.9966 53.836L61.9288 72.952L57.0038 67.436C55.4405 65.6851 52.7538 65.533 51.003 67.0963C49.2521 68.6596 49.1 71.3462 50.6633 73.0971L58.7585 82.1638C59.5649 83.0669 60.7181 83.5832 61.9288 83.5832C63.1395 83.5832 64.2927 83.0669 65.099 82.1638L85.3371 59.4971Z" fill="#FFB500"/>
</svg>
