<svg width="195" height="120" viewBox="0 0 195 120" fill="none" xmlns="http://www.w3.org/2000/svg">
<g clip-path="url(#clip0_27_1678)">
<path d="M194.662 74.6736C193.319 76.3366 192.136 78.1627 190.608 79.6399C179.414 90.4562 169.865 102.531 162.177 116.054C160.391 119.194 157.445 120.397 154.171 119.413C151.894 118.728 150.389 117.261 149.826 114.965C146.821 102.697 141.617 91.4247 134.476 81.0094C132.405 77.9866 133.041 74.3475 135.931 72.0062C138.422 69.9877 142.184 70.1442 144.474 72.8605C146.631 75.4203 148.364 78.3518 150.114 81.2214C151.72 83.8529 153.096 86.6214 154.823 89.7812C155.092 87.9518 155.344 86.5529 155.495 85.1475C156.799 72.9029 156.229 60.8279 151.69 49.2258C148.512 41.0964 143.786 34.0888 135.699 29.9442C129.803 26.9247 123.475 26.0312 116.944 26.6018C113.382 26.9116 109.846 27.5312 106.019 28.0464C106.861 29.7519 107.562 31.0692 108.172 32.429C116.05 49.9823 114.857 66.6323 102.509 81.7594C94.8996 91.0823 84.9964 96.9127 72.7469 97.9888C63.581 98.7942 54.91 97.1116 47.7694 90.9355C38.6855 83.0801 36.6504 72.9975 39.5244 61.7605C42.1919 51.3388 48.5985 43.3562 56.8467 36.7105C64.0333 30.9225 72.1767 26.7714 80.6314 23.1747C81.4769 22.816 82.3224 22.454 83.3677 22.0105C80.0678 19.5649 76.7022 17.579 72.9894 16.2812C56.8533 10.6431 41.5365 13.0432 26.8292 21.0975C22.5133 23.4616 18.7775 26.4877 15.9822 30.5736C14.0783 33.3551 13.2787 36.2638 14.3896 39.6453C15.4382 42.8312 13.8161 45.9355 10.6636 47.4062C7.8978 48.6942 4.61422 47.9312 2.92327 45.1464C1.83202 43.3464 1.39617 41.1518 0.665397 39.1366L0.665397 34.2453C1.03898 32.8399 1.32734 31.4051 1.79923 30.0323C4.33894 22.6431 9.27743 17.0768 15.6119 12.7301C28.2645 4.04641 42.323 -0.0753307 57.7021 0.306194C72.6682 0.677937 85.76 5.60837 96.5184 16.1671C97.187 16.8225 97.7408 16.9595 98.6616 16.6953C105.337 14.7747 112.124 13.4279 119.104 13.366C136.059 13.2127 149.508 19.7638 158.667 34.2062C166.84 47.0899 169.429 61.4149 169.259 76.4018C169.232 78.6453 169.255 80.8888 169.255 83.1681C169.544 82.8584 169.865 82.5127 170.193 82.1703C174.528 77.6605 178.811 73.0953 183.225 68.6573C186.017 65.8464 190.104 65.7942 192.761 68.4486C193.574 69.2605 194.039 70.4182 194.662 71.416C194.662 72.5018 194.662 73.591 194.662 74.6768L194.662 74.6736ZM93.1103 32.2921C92.7335 32.416 92.527 32.4747 92.3271 32.5497C91.1539 32.9899 89.9742 33.4105 88.8174 33.8834C79.7007 37.5942 70.8921 41.8464 63.3877 48.3649C57.7905 53.2268 53.5271 58.9497 51.9476 66.3225C50.9022 71.2007 51.1971 75.9388 54.9002 79.7279C59.8125 84.7529 66.1076 85.7866 72.7338 84.8931C80.52 83.8464 86.8479 79.9431 91.9077 74.041C98.0029 66.9323 100.877 58.8127 99.6808 49.3692C98.891 43.1475 96.6561 37.5518 93.1071 32.2921L93.1103 32.2921Z" fill="#FFB500"/>
</g>
<defs>
<clipPath id="clip0_27_1678">
<rect width="194" height="120" fill="white" transform="translate(194.662 120) rotate(-180)"/>
</clipPath>
</defs>
</svg>
